<?xml version="1.0" encoding="utf-8"?>
<svg xmlns="http://www.w3.org/2000/svg" xmlns:xlink="http://www.w3.org/1999/xlink" width="600" height="400" viewBox="0 0 2400 1600">
<defs>
  <clipPath id="clip420">
    <rect x="0" y="0" width="2400" height="1600"/>
  </clipPath>
</defs>
<path clip-path="url(#clip420)" d="M0 1600 L2400 1600 L2400 0 L0 0  Z" fill="#ffffff" fill-rule="evenodd" fill-opacity="1"/>
<defs>
  <clipPath id="clip421">
    <rect x="480" y="0" width="1681" height="1600"/>
  </clipPath>
</defs>
<path clip-path="url(#clip420)" d="M232.389 1423.18 L2352.76 1423.18 L2352.76 47.2441 L232.389 47.2441  Z" fill="#ffffff" fill-rule="evenodd" fill-opacity="1"/>
<defs>
  <clipPath id="clip422">
    <rect x="232" y="47" width="2121" height="1377"/>
  </clipPath>
</defs>
<polyline clip-path="url(#clip422)" style="stroke:#000000; stroke-linecap:round; stroke-linejoin:round; stroke-width:2; stroke-opacity:0.1; fill:none" points="514.66,1423.18 514.66,47.2441 "/>
<polyline clip-path="url(#clip422)" style="stroke:#000000; stroke-linecap:round; stroke-linejoin:round; stroke-width:2; stroke-opacity:0.1; fill:none" points="959.182,1423.18 959.182,47.2441 "/>
<polyline clip-path="url(#clip422)" style="stroke:#000000; stroke-linecap:round; stroke-linejoin:round; stroke-width:2; stroke-opacity:0.1; fill:none" points="1403.7,1423.18 1403.7,47.2441 "/>
<polyline clip-path="url(#clip422)" style="stroke:#000000; stroke-linecap:round; stroke-linejoin:round; stroke-width:2; stroke-opacity:0.1; fill:none" points="1848.22,1423.18 1848.22,47.2441 "/>
<polyline clip-path="url(#clip422)" style="stroke:#000000; stroke-linecap:round; stroke-linejoin:round; stroke-width:2; stroke-opacity:0.1; fill:none" points="2292.75,1423.18 2292.75,47.2441 "/>
<polyline clip-path="url(#clip422)" style="stroke:#000000; stroke-linecap:round; stroke-linejoin:round; stroke-width:2; stroke-opacity:0.1; fill:none" points="232.389,1241.81 2352.76,1241.81 "/>
<polyline clip-path="url(#clip422)" style="stroke:#000000; stroke-linecap:round; stroke-linejoin:round; stroke-width:2; stroke-opacity:0.1; fill:none" points="232.389,990.026 2352.76,990.026 "/>
<polyline clip-path="url(#clip422)" style="stroke:#000000; stroke-linecap:round; stroke-linejoin:round; stroke-width:2; stroke-opacity:0.1; fill:none" points="232.389,738.246 2352.76,738.246 "/>
<polyline clip-path="url(#clip422)" style="stroke:#000000; stroke-linecap:round; stroke-linejoin:round; stroke-width:2; stroke-opacity:0.1; fill:none" points="232.389,486.466 2352.76,486.466 "/>
<polyline clip-path="url(#clip422)" style="stroke:#000000; stroke-linecap:round; stroke-linejoin:round; stroke-width:2; stroke-opacity:0.1; fill:none" points="232.389,234.686 2352.76,234.686 "/>
<polyline clip-path="url(#clip420)" style="stroke:#000000; stroke-linecap:round; stroke-linejoin:round; stroke-width:4; stroke-opacity:1; fill:none" points="232.389,1423.18 2352.76,1423.18 "/>
<polyline clip-path="url(#clip420)" style="stroke:#000000; stroke-linecap:round; stroke-linejoin:round; stroke-width:4; stroke-opacity:1; fill:none" points="514.66,1423.18 514.66,1404.28 "/>
<polyline clip-path="url(#clip420)" style="stroke:#000000; stroke-linecap:round; stroke-linejoin:round; stroke-width:4; stroke-opacity:1; fill:none" points="959.182,1423.18 959.182,1404.28 "/>
<polyline clip-path="url(#clip420)" style="stroke:#000000; stroke-linecap:round; stroke-linejoin:round; stroke-width:4; stroke-opacity:1; fill:none" points="1403.7,1423.18 1403.7,1404.28 "/>
<polyline clip-path="url(#clip420)" style="stroke:#000000; stroke-linecap:round; stroke-linejoin:round; stroke-width:4; stroke-opacity:1; fill:none" points="1848.22,1423.18 1848.22,1404.28 "/>
<polyline clip-path="url(#clip420)" style="stroke:#000000; stroke-linecap:round; stroke-linejoin:round; stroke-width:4; stroke-opacity:1; fill:none" points="2292.75,1423.18 2292.75,1404.28 "/>
<path clip-path="url(#clip420)" d="M474.267 1481.64 L481.906 1481.64 L481.906 1455.28 L473.596 1456.95 L473.596 1452.69 L481.86 1451.02 L486.536 1451.02 L486.536 1481.64 L494.174 1481.64 L494.174 1485.58 L474.267 1485.58 L474.267 1481.64 Z" fill="#000000" fill-rule="nonzero" fill-opacity="1" /><path clip-path="url(#clip420)" d="M513.619 1454.1 Q510.008 1454.1 508.179 1457.66 Q506.373 1461.2 506.373 1468.33 Q506.373 1475.44 508.179 1479.01 Q510.008 1482.55 513.619 1482.55 Q517.253 1482.55 519.058 1479.01 Q520.887 1475.44 520.887 1468.33 Q520.887 1461.2 519.058 1457.66 Q517.253 1454.1 513.619 1454.1 M513.619 1450.39 Q519.429 1450.39 522.484 1455 Q525.563 1459.58 525.563 1468.33 Q525.563 1477.06 522.484 1481.67 Q519.429 1486.25 513.619 1486.25 Q507.809 1486.25 504.73 1481.67 Q501.674 1477.06 501.674 1468.33 Q501.674 1459.58 504.73 1455 Q507.809 1450.39 513.619 1450.39 Z" fill="#000000" fill-rule="nonzero" fill-opacity="1" /><path clip-path="url(#clip420)" d="M543.781 1454.1 Q540.169 1454.1 538.341 1457.66 Q536.535 1461.2 536.535 1468.33 Q536.535 1475.44 538.341 1479.01 Q540.169 1482.55 543.781 1482.55 Q547.415 1482.55 549.22 1479.01 Q551.049 1475.44 551.049 1468.33 Q551.049 1461.2 549.22 1457.66 Q547.415 1454.1 543.781 1454.1 M543.781 1450.39 Q549.591 1450.39 552.646 1455 Q555.725 1459.58 555.725 1468.33 Q555.725 1477.06 552.646 1481.67 Q549.591 1486.25 543.781 1486.25 Q537.97 1486.25 534.892 1481.67 Q531.836 1477.06 531.836 1468.33 Q531.836 1459.58 534.892 1455 Q537.97 1450.39 543.781 1450.39 Z" fill="#000000" fill-rule="nonzero" fill-opacity="1" /><path clip-path="url(#clip420)" d="M922.874 1481.64 L939.193 1481.64 L939.193 1485.58 L917.249 1485.58 L917.249 1481.64 Q919.911 1478.89 924.494 1474.26 Q929.101 1469.61 930.281 1468.27 Q932.527 1465.74 933.406 1464.01 Q934.309 1462.25 934.309 1460.56 Q934.309 1457.8 932.365 1456.07 Q930.443 1454.33 927.342 1454.33 Q925.142 1454.33 922.689 1455.09 Q920.258 1455.86 917.48 1457.41 L917.48 1452.69 Q920.305 1451.55 922.758 1450.97 Q925.212 1450.39 927.249 1450.39 Q932.619 1450.39 935.814 1453.08 Q939.008 1455.77 939.008 1460.26 Q939.008 1462.39 938.198 1464.31 Q937.411 1466.2 935.304 1468.8 Q934.726 1469.47 931.624 1472.69 Q928.522 1475.88 922.874 1481.64 Z" fill="#000000" fill-rule="nonzero" fill-opacity="1" /><path clip-path="url(#clip420)" d="M959.008 1454.1 Q955.397 1454.1 953.568 1457.66 Q951.763 1461.2 951.763 1468.33 Q951.763 1475.44 953.568 1479.01 Q955.397 1482.55 959.008 1482.55 Q962.642 1482.55 964.448 1479.01 Q966.277 1475.44 966.277 1468.33 Q966.277 1461.2 964.448 1457.66 Q962.642 1454.1 959.008 1454.1 M959.008 1450.39 Q964.818 1450.39 967.874 1455 Q970.952 1459.58 970.952 1468.33 Q970.952 1477.06 967.874 1481.67 Q964.818 1486.25 959.008 1486.25 Q953.198 1486.25 950.119 1481.67 Q947.064 1477.06 947.064 1468.33 Q947.064 1459.58 950.119 1455 Q953.198 1450.39 959.008 1450.39 Z" fill="#000000" fill-rule="nonzero" fill-opacity="1" /><path clip-path="url(#clip420)" d="M989.17 1454.1 Q985.559 1454.1 983.73 1457.66 Q981.925 1461.2 981.925 1468.33 Q981.925 1475.44 983.73 1479.01 Q985.559 1482.55 989.17 1482.55 Q992.804 1482.55 994.61 1479.01 Q996.438 1475.44 996.438 1468.33 Q996.438 1461.2 994.61 1457.66 Q992.804 1454.1 989.17 1454.1 M989.17 1450.39 Q994.98 1450.39 998.036 1455 Q1001.11 1459.58 1001.11 1468.33 Q1001.11 1477.06 998.036 1481.67 Q994.98 1486.25 989.17 1486.25 Q983.36 1486.25 980.281 1481.67 Q977.226 1477.06 977.226 1468.33 Q977.226 1459.58 980.281 1455 Q983.36 1450.39 989.17 1450.39 Z" fill="#000000" fill-rule="nonzero" fill-opacity="1" /><path clip-path="url(#clip420)" d="M1377.46 1466.95 Q1380.82 1467.66 1382.7 1469.93 Q1384.59 1472.2 1384.59 1475.53 Q1384.59 1480.65 1381.08 1483.45 Q1377.56 1486.25 1371.08 1486.25 Q1368.9 1486.25 1366.59 1485.81 Q1364.29 1485.39 1361.84 1484.54 L1361.84 1480.02 Q1363.78 1481.16 1366.1 1481.74 Q1368.41 1482.32 1370.94 1482.32 Q1375.34 1482.32 1377.63 1480.58 Q1379.94 1478.84 1379.94 1475.53 Q1379.94 1472.48 1377.79 1470.77 Q1375.66 1469.03 1371.84 1469.03 L1367.81 1469.03 L1367.81 1465.19 L1372.02 1465.19 Q1375.47 1465.19 1377.3 1463.82 Q1379.13 1462.43 1379.13 1459.84 Q1379.13 1457.18 1377.23 1455.77 Q1375.36 1454.33 1371.84 1454.33 Q1369.92 1454.33 1367.72 1454.75 Q1365.52 1455.16 1362.88 1456.04 L1362.88 1451.88 Q1365.54 1451.14 1367.86 1450.77 Q1370.2 1450.39 1372.26 1450.39 Q1377.58 1450.39 1380.68 1452.83 Q1383.78 1455.23 1383.78 1459.35 Q1383.78 1462.22 1382.14 1464.21 Q1380.5 1466.18 1377.46 1466.95 Z" fill="#000000" fill-rule="nonzero" fill-opacity="1" /><path clip-path="url(#clip420)" d="M1403.46 1454.1 Q1399.85 1454.1 1398.02 1457.66 Q1396.21 1461.2 1396.21 1468.33 Q1396.21 1475.44 1398.02 1479.01 Q1399.85 1482.55 1403.46 1482.55 Q1407.09 1482.55 1408.9 1479.01 Q1410.73 1475.44 1410.73 1468.33 Q1410.73 1461.2 1408.9 1457.66 Q1407.09 1454.1 1403.46 1454.1 M1403.46 1450.39 Q1409.27 1450.39 1412.33 1455 Q1415.4 1459.58 1415.4 1468.33 Q1415.4 1477.06 1412.33 1481.67 Q1409.27 1486.25 1403.46 1486.25 Q1397.65 1486.25 1394.57 1481.67 Q1391.52 1477.06 1391.52 1468.33 Q1391.52 1459.58 1394.57 1455 Q1397.65 1450.39 1403.46 1450.39 Z" fill="#000000" fill-rule="nonzero" fill-opacity="1" /><path clip-path="url(#clip420)" d="M1433.62 1454.1 Q1430.01 1454.1 1428.18 1457.66 Q1426.38 1461.2 1426.38 1468.33 Q1426.38 1475.44 1428.18 1479.01 Q1430.01 1482.55 1433.62 1482.55 Q1437.26 1482.55 1439.06 1479.01 Q1440.89 1475.44 1440.89 1468.33 Q1440.89 1461.2 1439.06 1457.66 Q1437.26 1454.1 1433.62 1454.1 M1433.62 1450.39 Q1439.43 1450.39 1442.49 1455 Q1445.57 1459.58 1445.57 1468.33 Q1445.57 1477.06 1442.49 1481.67 Q1439.43 1486.25 1433.62 1486.25 Q1427.81 1486.25 1424.73 1481.67 Q1421.68 1477.06 1421.68 1468.33 Q1421.68 1459.58 1424.73 1455 Q1427.81 1450.39 1433.62 1450.39 Z" fill="#000000" fill-rule="nonzero" fill-opacity="1" /><path clip-path="url(#clip420)" d="M1821.31 1455.09 L1809.51 1473.54 L1821.31 1473.54 L1821.31 1455.09 M1820.09 1451.02 L1825.97 1451.02 L1825.97 1473.54 L1830.9 1473.54 L1830.9 1477.43 L1825.97 1477.43 L1825.97 1485.58 L1821.31 1485.58 L1821.31 1477.43 L1805.71 1477.43 L1805.71 1472.92 L1820.09 1451.02 Z" fill="#000000" fill-rule="nonzero" fill-opacity="1" /><path clip-path="url(#clip420)" d="M1848.63 1454.1 Q1845.02 1454.1 1843.19 1457.66 Q1841.38 1461.2 1841.38 1468.33 Q1841.38 1475.44 1843.19 1479.01 Q1845.02 1482.55 1848.63 1482.55 Q1852.26 1482.55 1854.07 1479.01 Q1855.9 1475.44 1855.9 1468.33 Q1855.9 1461.2 1854.07 1457.66 Q1852.26 1454.1 1848.63 1454.1 M1848.63 1450.39 Q1854.44 1450.39 1857.5 1455 Q1860.57 1459.58 1860.57 1468.33 Q1860.57 1477.06 1857.5 1481.67 Q1854.44 1486.25 1848.63 1486.25 Q1842.82 1486.25 1839.74 1481.67 Q1836.68 1477.06 1836.68 1468.33 Q1836.68 1459.58 1839.74 1455 Q1842.82 1450.39 1848.63 1450.39 Z" fill="#000000" fill-rule="nonzero" fill-opacity="1" /><path clip-path="url(#clip420)" d="M1878.79 1454.1 Q1875.18 1454.1 1873.35 1457.66 Q1871.55 1461.2 1871.55 1468.33 Q1871.55 1475.44 1873.35 1479.01 Q1875.18 1482.55 1878.79 1482.55 Q1882.43 1482.55 1884.23 1479.01 Q1886.06 1475.44 1886.06 1468.33 Q1886.06 1461.2 1884.23 1457.66 Q1882.43 1454.1 1878.79 1454.1 M1878.79 1450.39 Q1884.6 1450.39 1887.66 1455 Q1890.74 1459.58 1890.74 1468.33 Q1890.74 1477.06 1887.66 1481.67 Q1884.6 1486.25 1878.79 1486.25 Q1872.98 1486.25 1869.9 1481.67 Q1866.85 1477.06 1866.85 1468.33 Q1866.85 1459.58 1869.9 1455 Q1872.98 1450.39 1878.79 1450.39 Z" fill="#000000" fill-rule="nonzero" fill-opacity="1" /><path clip-path="url(#clip420)" d="M2252.36 1451.02 L2270.72 1451.02 L2270.72 1454.96 L2256.65 1454.96 L2256.65 1463.43 Q2257.66 1463.08 2258.68 1462.92 Q2259.7 1462.73 2260.72 1462.73 Q2266.51 1462.73 2269.89 1465.9 Q2273.27 1469.08 2273.27 1474.49 Q2273.27 1480.07 2269.79 1483.17 Q2266.32 1486.25 2260 1486.25 Q2257.83 1486.25 2255.56 1485.88 Q2253.31 1485.51 2250.91 1484.77 L2250.91 1480.07 Q2252.99 1481.2 2255.21 1481.76 Q2257.43 1482.32 2259.91 1482.32 Q2263.91 1482.32 2266.25 1480.21 Q2268.59 1478.1 2268.59 1474.49 Q2268.59 1470.88 2266.25 1468.77 Q2263.91 1466.67 2259.91 1466.67 Q2258.04 1466.67 2256.16 1467.08 Q2254.31 1467.5 2252.36 1468.38 L2252.36 1451.02 Z" fill="#000000" fill-rule="nonzero" fill-opacity="1" /><path clip-path="url(#clip420)" d="M2292.48 1454.1 Q2288.87 1454.1 2287.04 1457.66 Q2285.23 1461.2 2285.23 1468.33 Q2285.23 1475.44 2287.04 1479.01 Q2288.87 1482.55 2292.48 1482.55 Q2296.11 1482.55 2297.92 1479.01 Q2299.75 1475.44 2299.75 1468.33 Q2299.75 1461.2 2297.92 1457.66 Q2296.11 1454.1 2292.48 1454.1 M2292.48 1450.39 Q2298.29 1450.39 2301.35 1455 Q2304.42 1459.58 2304.42 1468.33 Q2304.42 1477.06 2301.35 1481.67 Q2298.29 1486.25 2292.48 1486.25 Q2286.67 1486.25 2283.59 1481.67 Q2280.53 1477.06 2280.53 1468.33 Q2280.53 1459.58 2283.59 1455 Q2286.67 1450.39 2292.48 1450.39 Z" fill="#000000" fill-rule="nonzero" fill-opacity="1" /><path clip-path="url(#clip420)" d="M2322.64 1454.1 Q2319.03 1454.1 2317.2 1457.66 Q2315.4 1461.2 2315.4 1468.33 Q2315.4 1475.44 2317.2 1479.01 Q2319.03 1482.55 2322.64 1482.55 Q2326.28 1482.55 2328.08 1479.01 Q2329.91 1475.44 2329.91 1468.33 Q2329.91 1461.2 2328.08 1457.66 Q2326.28 1454.1 2322.64 1454.1 M2322.64 1450.39 Q2328.45 1450.39 2331.51 1455 Q2334.59 1459.58 2334.59 1468.33 Q2334.59 1477.06 2331.51 1481.67 Q2328.45 1486.25 2322.64 1486.25 Q2316.83 1486.25 2313.75 1481.67 Q2310.7 1477.06 2310.7 1468.33 Q2310.7 1459.58 2313.75 1455 Q2316.83 1450.39 2322.64 1450.39 Z" fill="#000000" fill-rule="nonzero" fill-opacity="1" /><path clip-path="url(#clip420)" d="M1274.4 1520.52 L1281.31 1520.52 L1293.11 1538.19 L1304.99 1520.52 L1311.89 1520.52 L1296.61 1543.34 L1312.91 1568.04 L1306 1568.04 L1292.64 1547.83 L1279.17 1568.04 L1272.23 1568.04 L1289.2 1542.68 L1274.4 1520.52 Z" fill="#000000" fill-rule="nonzero" fill-opacity="1" /><polyline clip-path="url(#clip420)" style="stroke:#000000; stroke-linecap:round; stroke-linejoin:round; stroke-width:4; stroke-opacity:1; fill:none" points="232.389,1423.18 232.389,47.2441 "/>
<polyline clip-path="url(#clip420)" style="stroke:#000000; stroke-linecap:round; stroke-linejoin:round; stroke-width:4; stroke-opacity:1; fill:none" points="232.389,1241.81 251.287,1241.81 "/>
<polyline clip-path="url(#clip420)" style="stroke:#000000; stroke-linecap:round; stroke-linejoin:round; stroke-width:4; stroke-opacity:1; fill:none" points="232.389,990.026 251.287,990.026 "/>
<polyline clip-path="url(#clip420)" style="stroke:#000000; stroke-linecap:round; stroke-linejoin:round; stroke-width:4; stroke-opacity:1; fill:none" points="232.389,738.246 251.287,738.246 "/>
<polyline clip-path="url(#clip420)" style="stroke:#000000; stroke-linecap:round; stroke-linejoin:round; stroke-width:4; stroke-opacity:1; fill:none" points="232.389,486.466 251.287,486.466 "/>
<polyline clip-path="url(#clip420)" style="stroke:#000000; stroke-linecap:round; stroke-linejoin:round; stroke-width:4; stroke-opacity:1; fill:none" points="232.389,234.686 251.287,234.686 "/>
<path clip-path="url(#clip420)" d="M148.311 1255.15 L164.63 1255.15 L164.63 1259.09 L142.686 1259.09 L142.686 1255.15 Q145.348 1252.4 149.931 1247.77 Q154.538 1243.11 155.718 1241.77 Q157.964 1239.25 158.843 1237.51 Q159.746 1235.75 159.746 1234.06 Q159.746 1231.31 157.802 1229.57 Q155.88 1227.84 152.778 1227.84 Q150.579 1227.84 148.126 1228.6 Q145.695 1229.36 142.917 1230.91 L142.917 1226.19 Q145.741 1225.06 148.195 1224.48 Q150.649 1223.9 152.686 1223.9 Q158.056 1223.9 161.251 1226.59 Q164.445 1229.27 164.445 1233.76 Q164.445 1235.89 163.635 1237.81 Q162.848 1239.71 160.741 1242.3 Q160.163 1242.97 157.061 1246.19 Q153.959 1249.39 148.311 1255.15 Z" fill="#000000" fill-rule="nonzero" fill-opacity="1" /><path clip-path="url(#clip420)" d="M184.445 1227.6 Q180.834 1227.6 179.005 1231.17 Q177.2 1234.71 177.2 1241.84 Q177.2 1248.95 179.005 1252.51 Q180.834 1256.05 184.445 1256.05 Q188.079 1256.05 189.885 1252.51 Q191.713 1248.95 191.713 1241.84 Q191.713 1234.71 189.885 1231.17 Q188.079 1227.6 184.445 1227.6 M184.445 1223.9 Q190.255 1223.9 193.311 1228.51 Q196.389 1233.09 196.389 1241.84 Q196.389 1250.57 193.311 1255.17 Q190.255 1259.76 184.445 1259.76 Q178.635 1259.76 175.556 1255.17 Q172.501 1250.57 172.501 1241.84 Q172.501 1233.09 175.556 1228.51 Q178.635 1223.9 184.445 1223.9 Z" fill="#000000" fill-rule="nonzero" fill-opacity="1" /><path clip-path="url(#clip420)" d="M157.13 976.82 L145.325 995.269 L157.13 995.269 L157.13 976.82 M155.903 972.746 L161.783 972.746 L161.783 995.269 L166.714 995.269 L166.714 999.158 L161.783 999.158 L161.783 1007.31 L157.13 1007.31 L157.13 999.158 L141.529 999.158 L141.529 994.644 L155.903 972.746 Z" fill="#000000" fill-rule="nonzero" fill-opacity="1" /><path clip-path="url(#clip420)" d="M184.445 975.825 Q180.834 975.825 179.005 979.389 Q177.2 982.931 177.2 990.061 Q177.2 997.167 179.005 1000.73 Q180.834 1004.27 184.445 1004.27 Q188.079 1004.27 189.885 1000.73 Q191.713 997.167 191.713 990.061 Q191.713 982.931 189.885 979.389 Q188.079 975.825 184.445 975.825 M184.445 972.121 Q190.255 972.121 193.311 976.727 Q196.389 981.311 196.389 990.061 Q196.389 998.787 193.311 1003.39 Q190.255 1007.98 184.445 1007.98 Q178.635 1007.98 175.556 1003.39 Q172.501 998.787 172.501 990.061 Q172.501 981.311 175.556 976.727 Q178.635 972.121 184.445 972.121 Z" fill="#000000" fill-rule="nonzero" fill-opacity="1" /><path clip-path="url(#clip420)" d="M154.862 736.382 Q151.714 736.382 149.862 738.535 Q148.033 740.688 148.033 744.438 Q148.033 748.165 149.862 750.341 Q151.714 752.493 154.862 752.493 Q158.01 752.493 159.839 750.341 Q161.69 748.165 161.69 744.438 Q161.69 740.688 159.839 738.535 Q158.01 736.382 154.862 736.382 M164.144 721.73 L164.144 725.989 Q162.385 725.156 160.579 724.716 Q158.797 724.276 157.038 724.276 Q152.408 724.276 149.954 727.401 Q147.524 730.526 147.177 736.845 Q148.542 734.832 150.603 733.767 Q152.663 732.679 155.14 732.679 Q160.348 732.679 163.357 735.85 Q166.39 738.998 166.39 744.438 Q166.39 749.762 163.241 752.98 Q160.093 756.197 154.862 756.197 Q148.866 756.197 145.695 751.614 Q142.524 747.007 142.524 738.281 Q142.524 730.086 146.413 725.225 Q150.302 720.341 156.853 720.341 Q158.612 720.341 160.394 720.688 Q162.2 721.035 164.144 721.73 Z" fill="#000000" fill-rule="nonzero" fill-opacity="1" /><path clip-path="url(#clip420)" d="M184.445 724.045 Q180.834 724.045 179.005 727.609 Q177.2 731.151 177.2 738.281 Q177.2 745.387 179.005 748.952 Q180.834 752.493 184.445 752.493 Q188.079 752.493 189.885 748.952 Q191.713 745.387 191.713 738.281 Q191.713 731.151 189.885 727.609 Q188.079 724.045 184.445 724.045 M184.445 720.341 Q190.255 720.341 193.311 724.947 Q196.389 729.531 196.389 738.281 Q196.389 747.007 193.311 751.614 Q190.255 756.197 184.445 756.197 Q178.635 756.197 175.556 751.614 Q172.501 747.007 172.501 738.281 Q172.501 729.531 175.556 724.947 Q178.635 720.341 184.445 720.341 Z" fill="#000000" fill-rule="nonzero" fill-opacity="1" /><path clip-path="url(#clip420)" d="M154.283 487.334 Q150.95 487.334 149.028 489.116 Q147.13 490.899 147.13 494.024 Q147.13 497.149 149.028 498.931 Q150.95 500.713 154.283 500.713 Q157.616 500.713 159.538 498.931 Q161.459 497.126 161.459 494.024 Q161.459 490.899 159.538 489.116 Q157.64 487.334 154.283 487.334 M149.607 485.343 Q146.598 484.602 144.908 482.542 Q143.241 480.482 143.241 477.519 Q143.241 473.376 146.181 470.968 Q149.144 468.561 154.283 468.561 Q159.445 468.561 162.385 470.968 Q165.325 473.376 165.325 477.519 Q165.325 480.482 163.635 482.542 Q161.968 484.602 158.982 485.343 Q162.362 486.13 164.237 488.422 Q166.135 490.714 166.135 494.024 Q166.135 499.047 163.056 501.732 Q160.001 504.417 154.283 504.417 Q148.566 504.417 145.487 501.732 Q142.431 499.047 142.431 494.024 Q142.431 490.714 144.329 488.422 Q146.228 486.13 149.607 485.343 M147.894 477.959 Q147.894 480.644 149.561 482.149 Q151.251 483.653 154.283 483.653 Q157.292 483.653 158.982 482.149 Q160.695 480.644 160.695 477.959 Q160.695 475.274 158.982 473.769 Q157.292 472.265 154.283 472.265 Q151.251 472.265 149.561 473.769 Q147.894 475.274 147.894 477.959 Z" fill="#000000" fill-rule="nonzero" fill-opacity="1" /><path clip-path="url(#clip420)" d="M184.445 472.265 Q180.834 472.265 179.005 475.829 Q177.2 479.371 177.2 486.501 Q177.2 493.607 179.005 497.172 Q180.834 500.713 184.445 500.713 Q188.079 500.713 189.885 497.172 Q191.713 493.607 191.713 486.501 Q191.713 479.371 189.885 475.829 Q188.079 472.265 184.445 472.265 M184.445 468.561 Q190.255 468.561 193.311 473.167 Q196.389 477.751 196.389 486.501 Q196.389 495.227 193.311 499.834 Q190.255 504.417 184.445 504.417 Q178.635 504.417 175.556 499.834 Q172.501 495.227 172.501 486.501 Q172.501 477.751 175.556 473.167 Q178.635 468.561 184.445 468.561 Z" fill="#000000" fill-rule="nonzero" fill-opacity="1" /><path clip-path="url(#clip420)" d="M114.931 248.031 L122.57 248.031 L122.57 221.665 L114.26 223.332 L114.26 219.073 L122.524 217.406 L127.2 217.406 L127.2 248.031 L134.839 248.031 L134.839 251.966 L114.931 251.966 L114.931 248.031 Z" fill="#000000" fill-rule="nonzero" fill-opacity="1" /><path clip-path="url(#clip420)" d="M154.283 220.485 Q150.672 220.485 148.843 224.049 Q147.038 227.591 147.038 234.721 Q147.038 241.827 148.843 245.392 Q150.672 248.934 154.283 248.934 Q157.917 248.934 159.723 245.392 Q161.552 241.827 161.552 234.721 Q161.552 227.591 159.723 224.049 Q157.917 220.485 154.283 220.485 M154.283 216.781 Q160.093 216.781 163.149 221.387 Q166.227 225.971 166.227 234.721 Q166.227 243.447 163.149 248.054 Q160.093 252.637 154.283 252.637 Q148.473 252.637 145.394 248.054 Q142.339 243.447 142.339 234.721 Q142.339 225.971 145.394 221.387 Q148.473 216.781 154.283 216.781 Z" fill="#000000" fill-rule="nonzero" fill-opacity="1" /><path clip-path="url(#clip420)" d="M184.445 220.485 Q180.834 220.485 179.005 224.049 Q177.2 227.591 177.2 234.721 Q177.2 241.827 179.005 245.392 Q180.834 248.934 184.445 248.934 Q188.079 248.934 189.885 245.392 Q191.713 241.827 191.713 234.721 Q191.713 227.591 189.885 224.049 Q188.079 220.485 184.445 220.485 M184.445 216.781 Q190.255 216.781 193.311 221.387 Q196.389 225.971 196.389 234.721 Q196.389 243.447 193.311 248.054 Q190.255 252.637 184.445 252.637 Q178.635 252.637 175.556 248.054 Q172.501 243.447 172.501 234.721 Q172.501 225.971 175.556 221.387 Q178.635 216.781 184.445 216.781 Z" fill="#000000" fill-rule="nonzero" fill-opacity="1" /><path clip-path="url(#clip420)" d="M16.4842 755.248 L16.4842 748.341 L36.0269 735.164 L16.4842 722.083 L16.4842 715.176 L41.3741 731.981 L64.0042 731.981 L64.0042 738.443 L41.3741 738.443 L16.4842 755.248 Z" fill="#000000" fill-rule="nonzero" fill-opacity="1" /><polyline clip-path="url(#clip422)" style="stroke:#009af9; stroke-linecap:round; stroke-linejoin:round; stroke-width:4; stroke-opacity:1; fill:none" points="292.4,1272.25 296.845,1289.21 301.29,1339.71 305.735,1293.98 310.181,1304.77 314.626,1332.61 319.071,1337.57 323.516,1270.27 327.961,1292.56 332.407,1289.35 336.852,1306.27 341.297,1246.16 345.742,1277.13 350.187,1297.36 354.633,1295.01 359.078,1279.85 363.523,1263.66 367.968,1261.54 372.414,1288.85 376.859,1282.5 381.304,1255.3 385.749,1268.28 390.194,1322.96 394.64,1286.55 399.085,1262.77 403.53,1314.12 407.975,1297.55 412.42,1286.32 416.866,1280.66 421.311,1303.22 425.756,1277.02 430.201,1280.31 434.647,1307.44 439.092,1312.88 443.537,1239.11 447.982,1218.48 452.427,1234.87 456.873,1260.88 461.318,1258.82 465.763,1225.86 470.208,1317.52 474.653,1239.23 479.099,1276.98 483.544,1261.82 487.989,1292.7 492.434,1235.55 496.88,1255.59 501.325,1244.79 505.77,1245.21 510.215,1239.25 514.66,1270.95 519.106,1243.89 523.551,1255.79 527.996,1287.98 532.441,1242.87 536.886,1250.01 541.332,1199.3 545.777,1221.03 550.222,1259.4 554.667,1281.94 559.112,1250.37 563.558,1234.77 568.003,1246.72 572.448,1251.75 576.893,1225.71 581.339,1227.72 585.784,1243.48 590.229,1274.46 594.674,1217.4 599.119,1268.22 603.565,1256.16 608.01,1210.83 612.455,1263.08 616.9,1196.54 621.345,1196.8 625.791,1238.25 630.236,1225.26 634.681,1243.87 639.126,1213.49 643.572,1187.56 648.017,1199.93 652.462,1194 656.907,1180.9 661.352,1128.34 665.798,1153.93 670.243,1130.78 674.688,1127.33 679.133,1104.06 683.578,1120.33 688.024,1124.41 692.469,1077.13 696.914,1064.17 701.359,1086.95 705.805,1063.59 710.25,1033.88 714.695,1061.5 719.14,1064.5 723.585,1042.56 728.031,1009.77 732.476,1021.73 736.921,993.862 741.366,1005.87 745.811,1017.05 750.257,1058.49 754.702,1098.27 759.147,1057.29 763.592,1027.59 768.038,1063.77 772.483,1077.37 776.928,1122.15 781.373,1135.36 785.818,1120.59 790.264,1157.6 794.709,1198.43 799.154,1176.67 803.599,1169.85 808.044,1212.58 812.49,1198.81 816.935,1204.85 821.38,1243.41 825.825,1227.09 830.27,1242.05 834.716,1212.35 839.161,1207.03 843.606,1261.51 848.051,1243.56 852.497,1307.24 856.942,1269.04 861.387,1273.03 865.832,1273.92 870.277,1283.34 874.723,1302.93 879.168,1347.33 883.613,1316.12 888.058,1312.03 892.503,1359.2 896.949,1279.96 901.394,1326.05 905.839,1293.94 910.284,1316.64 914.73,1334.71 919.175,1325.59 923.62,1308.37 928.065,1317.36 932.51,1326.17 936.956,1323.4 941.401,1310.29 945.846,1329.38 950.291,1336.09 954.736,1365.65 959.182,1322.17 963.627,1353.46 968.072,1303.26 972.517,1332.87 976.963,1384.24 981.408,1360.64 985.853,1336.2 990.298,1335.01 994.743,1338.11 999.189,1339.43 1003.63,1307.32 1008.08,1343.38 1012.52,1378.47 1016.97,1342.48 1021.41,1297.19 1025.86,1325.81 1030.31,1314.72 1034.75,1325.14 1039.2,1372.37 1043.64,1332.06 1048.09,1295.78 1052.53,1317.4 1056.98,1343 1061.42,1333.69 1065.87,1337.25 1070.31,1314.97 1074.76,1347.77 1079.2,1333.93 1083.65,1370.52 1088.09,1326.01 1092.54,1270.59 1096.98,1344.58 1101.43,1296.18 1105.87,1374.05 1110.32,1283.66 1114.76,1325.54 1119.21,1309.5 1123.65,1283.06 1128.1,1266.2 1132.54,1280.18 1136.99,1285.97 1141.44,1201.49 1145.88,1098.32 1150.33,993.315 1154.77,874.719 1159.22,655.893 1163.66,494.586 1168.11,301.061 1172.55,181.721 1177,86.1857 1181.44,99.0722 1185.89,110.527 1190.33,159.383 1194.78,331.638 1199.22,516.97 1203.67,688.017 1208.11,835.156 1212.56,948.497 1217,1073.86 1221.45,1141.66 1225.89,1234.54 1230.34,1190.61 1234.78,1282.45 1239.23,1275.57 1243.68,1265.77 1248.12,1249 1252.57,1284.14 1257.01,1258.76 1261.46,1214.45 1265.9,1297.93 1270.35,1270.86 1274.79,1195.81 1279.24,1278.44 1283.68,1248.57 1288.13,1241.64 1292.57,1223.96 1297.02,1228.23 1301.46,1213.86 1305.91,1255.32 1310.35,1244.89 1314.8,1249.1 1319.24,1219.43 1323.69,1282.01 1328.13,1237.99 1332.58,1186.03 1337.02,1199.79 1341.47,1198.05 1345.92,1210.76 1350.36,1196.1 1354.81,1114.21 1359.25,1175.7 1363.7,1171.63 1368.14,1186.23 1372.59,1175.56 1377.03,1168.78 1381.48,1130.39 1385.92,1203.91 1390.37,1128.49 1394.81,1081.13 1399.26,1100.69 1403.7,1158.97 1408.15,1102.63 1412.59,1049.41 1417.04,1103.58 1421.48,1071.63 1425.93,1058.91 1430.37,1091.97 1434.82,1076.66 1439.26,1024.28 1443.71,1044.21 1448.16,1076.06 1452.6,987.403 1457.05,1027.11 1461.49,1054.72 1465.94,1029.02 1470.38,978.221 1474.83,994.973 1479.27,987.276 1483.72,949.999 1488.16,969.929 1492.61,901.116 1497.05,930.074 1501.5,881.345 1505.94,924.895 1510.39,910.38 1514.83,878.276 1519.28,866.887 1523.72,928.429 1528.17,876.154 1532.61,872.719 1537.06,897.934 1541.5,819.042 1545.95,794.936 1550.39,866.951 1554.84,826.347 1559.29,789.115 1563.73,830.43 1568.18,764.029 1572.62,745.728 1577.07,791.876 1581.51,746.523 1585.96,732.125 1590.4,723.156 1594.85,718.937 1599.29,803.944 1603.74,737.603 1608.18,734.403 1612.63,742.179 1617.07,759.963 1621.52,759.273 1625.96,723.232 1630.41,731.643 1634.85,736.65 1639.3,679.32 1643.74,703.485 1648.19,726.498 1652.63,709.755 1657.08,733.689 1661.53,690.651 1665.97,691.174 1670.42,650.419 1674.86,687.653 1679.31,716.188 1683.75,683.921 1688.2,724.084 1692.64,706.399 1697.09,728.642 1701.53,687.722 1705.98,732.076 1710.42,717.334 1714.87,696.091 1719.31,751.499 1723.76,723.903 1728.2,725.954 1732.65,743.788 1737.09,712.199 1741.54,731.847 1745.98,796.916 1750.43,785.417 1754.87,793.497 1759.32,769.652 1763.77,771.567 1768.21,772.803 1772.66,796.818 1777.1,773.52 1781.55,815.218 1785.99,772.88 1790.44,813.071 1794.88,732.806 1799.33,799.822 1803.77,869.076 1808.22,778.052 1812.66,842.872 1817.11,837.528 1821.55,844.474 1826,820.722 1830.44,829.091 1834.89,870.633 1839.33,789.362 1843.78,830.003 1848.22,858.937 1852.67,847.245 1857.11,837.849 1861.56,852.24 1866.01,803.632 1870.45,829.092 1874.9,804.697 1879.34,852.302 1883.79,829.435 1888.23,806.547 1892.68,844.373 1897.12,825.4 1901.57,857.908 1906.01,796.153 1910.46,842.608 1914.9,832.747 1919.35,890.968 1923.79,841.963 1928.24,825.716 1932.68,859.112 1937.13,877.167 1941.57,853.968 1946.02,874.659 1950.46,856.008 1954.91,844.879 1959.35,822.181 1963.8,855.267 1968.24,843.265 1972.69,833.287 1977.14,891.559 1981.58,870.634 1986.03,845.144 1990.47,839.557 1994.92,865.535 1999.36,861.88 2003.81,860.05 2008.25,862.616 2012.7,859.399 2017.14,900.78 2021.59,850.167 2026.03,835.86 2030.48,891.5 2034.92,878.805 2039.37,843.454 2043.81,899.327 2048.26,867.187 2052.7,821.942 2057.15,918.974 2061.59,800.193 2066.04,569.36 2070.48,224.291 2074.93,496.024 2079.38,776.802 2083.82,757.781 2088.27,771.157 2092.71,673.281 2097.16,693.755 2101.6,597.04 2106.05,524.654 2110.49,502.975 2114.94,490.912 2119.38,494.566 2123.83,602.077 2128.27,652.14 2132.72,632.261 2137.16,703.07 2141.61,689.089 2146.05,780.494 2150.5,844.778 2154.94,881.064 2159.39,898.814 2163.83,880.408 2168.28,858.609 2172.72,911.104 2177.17,889.199 2181.62,916.78 2186.06,920.05 2190.51,848.038 2194.95,896.447 2199.4,891.347 2203.84,896.695 2208.29,864.543 2212.73,944.633 2217.18,925.026 2221.62,905.331 2226.07,955.022 2230.51,877.105 2234.96,929.201 2239.4,937.815 2243.85,928.968 2248.29,936.947 2252.74,879.157 2257.18,914.404 2261.63,955.592 2266.07,916.511 2270.52,995.9 2274.96,916.823 2279.41,906.009 2283.86,915.749 2288.3,915.75 2292.75,963.291 "/>
<polyline clip-path="url(#clip422)" style="stroke:#e26f46; stroke-linecap:round; stroke-linejoin:round; stroke-width:4; stroke-opacity:1; fill:none" points="292.4,1290.83 296.845,1289.74 301.29,1288.7 305.735,1287.71 310.181,1286.77 314.626,1285.87 319.071,1285.02 323.516,1284.21 327.961,1283.45 332.407,1282.73 336.852,1282.06 341.297,1281.42 345.742,1280.83 350.187,1280.28 354.633,1279.77 359.078,1279.31 363.523,1278.88 367.968,1278.49 372.414,1278.14 376.859,1277.82 381.304,1277.55 385.749,1277.31 390.194,1277.1 394.64,1276.93 399.085,1276.8 403.53,1276.7 407.975,1276.64 412.42,1276.61 416.866,1276.61 421.311,1276.64 425.756,1276.71 430.201,1276.8 434.647,1276.93 439.092,1277.08 443.537,1277.27 447.982,1277.48 452.427,1277.72 456.873,1277.99 461.318,1278.28 465.763,1278.6 470.208,1278.95 474.653,1279.32 479.099,1279.72 483.544,1280.14 487.989,1280.58 492.434,1281.05 496.88,1281.54 501.325,1282.05 505.77,1282.58 510.215,1283.13 514.66,1283.7 519.106,1284.29 523.551,1284.89 527.996,1285.52 532.441,1286.16 536.886,1286.82 541.332,1287.5 545.777,1288.19 550.222,1288.9 554.667,1289.62 559.112,1290.36 563.558,1291.11 568.003,1291.87 572.448,1292.64 576.893,1293.43 581.339,1294.22 585.784,1295.03 590.229,1295.84 594.674,1296.67 599.119,1297.5 603.565,1298.35 608.01,1299.2 612.455,1300.05 616.9,1300.91 621.345,1301.78 625.791,1302.65 630.236,1303.53 634.681,1304.41 639.126,1305.3 643.572,1306.19 648.017,1307.08 652.462,1307.97 656.907,1308.86 661.352,1309.75 665.798,1310.65 670.243,1311.54 674.688,1312.43 679.133,1313.32 683.578,1314.2 688.024,1315.08 692.469,1315.96 696.914,1316.84 701.359,1317.71 705.805,1318.57 710.25,1319.43 714.695,1320.28 719.14,1321.13 723.585,1321.96 728.031,1322.79 732.476,1323.61 736.921,1324.42 741.366,1325.22 745.811,1326.01 750.257,1326.79 754.702,1327.55 759.147,1328.31 763.592,1329.05 768.038,1329.77 772.483,1330.48 776.928,1331.18 781.373,1331.86 785.818,1332.53 790.264,1333.18 794.709,1333.81 799.154,1334.42 803.599,1335.02 808.044,1335.6 812.49,1336.16 816.935,1336.69 821.38,1337.21 825.825,1337.7 830.27,1338.18 834.716,1338.63 839.161,1339.06 843.606,1339.46 848.051,1339.84 852.497,1340.2 856.942,1340.53 861.387,1340.83 865.832,1341.11 870.277,1341.36 874.723,1341.58 879.168,1341.78 883.613,1341.94 888.058,1342.08 892.503,1342.18 896.949,1342.26 901.394,1342.3 905.839,1342.31 910.284,1342.29 914.73,1342.24 919.175,1342.15 923.62,1342.03 928.065,1341.88 932.51,1341.68 936.956,1341.46 941.401,1341.19 945.846,1340.89 950.291,1340.55 954.736,1340.18 959.182,1339.76 963.627,1339.31 968.072,1338.81 972.517,1338.28 976.963,1337.7 981.408,1337.09 985.853,1336.44 990.298,1335.75 994.743,1335.02 999.189,1334.25 1003.63,1333.45 1008.08,1332.61 1012.52,1331.74 1016.97,1330.82 1021.41,1329.87 1025.86,1328.89 1030.31,1327.87 1034.75,1326.82 1039.2,1325.73 1043.64,1324.61 1048.09,1323.45 1052.53,1322.26 1056.98,1321.04 1061.42,1319.78 1065.87,1318.49 1070.31,1317.17 1074.76,1315.82 1079.2,1314.44 1083.65,1313.02 1088.09,1311.58 1092.54,1310.1 1096.98,1308.59 1101.43,1307.06 1105.87,1305.49 1110.32,1303.9 1114.76,1302.28 1119.21,1300.63 1123.65,1298.95 1128.1,1297.24 1132.54,1295.51 1136.99,1293.75 1141.44,1291.96 1145.88,1290.15 1150.33,1288.31 1154.77,1286.44 1159.22,1284.55 1163.66,1282.64 1168.11,1280.7 1172.55,1278.74 1177,1276.75 1181.44,1274.74 1185.89,1272.71 1190.33,1270.65 1194.78,1268.57 1199.22,1266.47 1203.67,1264.35 1208.11,1262.2 1212.56,1260.04 1217,1257.85 1221.45,1255.65 1225.89,1253.42 1230.34,1251.17 1234.78,1248.91 1239.23,1246.63 1243.68,1244.32 1248.12,1242 1252.57,1239.66 1257.01,1237.31 1261.46,1234.93 1265.9,1232.54 1270.35,1230.13 1274.79,1227.71 1279.24,1225.27 1283.68,1222.82 1288.13,1220.35 1292.57,1217.86 1297.02,1215.36 1301.46,1212.85 1305.91,1210.32 1310.35,1207.78 1314.8,1205.23 1319.24,1202.66 1323.69,1200.08 1328.13,1197.49 1332.58,1194.89 1337.02,1192.28 1341.47,1189.65 1345.92,1187.02 1350.36,1184.37 1354.81,1181.71 1359.25,1179.05 1363.7,1176.37 1368.14,1173.69 1372.59,1171 1377.03,1168.3 1381.48,1165.59 1385.92,1162.87 1390.37,1160.15 1394.81,1157.42 1399.26,1154.68 1403.7,1151.94 1408.15,1149.19 1412.59,1146.43 1417.04,1143.67 1421.48,1140.91 1425.93,1138.14 1430.37,1135.37 1434.82,1132.59 1439.26,1129.81 1443.71,1127.03 1448.16,1124.24 1452.6,1121.45 1457.05,1118.66 1461.49,1115.87 1465.94,1113.08 1470.38,1110.28 1474.83,1107.49 1479.27,1104.69 1483.72,1101.89 1488.16,1099.1 1492.61,1096.3 1497.05,1093.51 1501.5,1090.72 1505.94,1087.93 1510.39,1085.14 1514.83,1082.36 1519.28,1079.57 1523.72,1076.79 1528.17,1074.02 1532.61,1071.24 1537.06,1068.48 1541.5,1065.71 1545.95,1062.95 1550.39,1060.2 1554.84,1057.45 1559.29,1054.71 1563.73,1051.97 1568.18,1049.24 1572.62,1046.52 1577.07,1043.81 1581.51,1041.1 1585.96,1038.4 1590.4,1035.71 1594.85,1033.02 1599.29,1030.35 1603.74,1027.69 1608.18,1025.03 1612.63,1022.39 1617.07,1019.75 1621.52,1017.13 1625.96,1014.52 1630.41,1011.92 1634.85,1009.33 1639.3,1006.75 1643.74,1004.18 1648.19,1001.63 1652.63,999.094 1657.08,996.569 1661.53,994.057 1665.97,991.56 1670.42,989.078 1674.86,986.61 1679.31,984.157 1683.75,981.72 1688.2,979.299 1692.64,976.894 1697.09,974.506 1701.53,972.135 1705.98,969.781 1710.42,967.444 1714.87,965.126 1719.31,962.826 1723.76,960.544 1728.2,958.282 1732.65,956.039 1737.09,953.816 1741.54,951.612 1745.98,949.43 1750.43,947.267 1754.87,945.126 1759.32,943.007 1763.77,940.909 1768.21,938.833 1772.66,936.78 1777.1,934.75 1781.55,932.742 1785.99,930.759 1790.44,928.799 1794.88,926.863 1799.33,924.952 1803.77,923.066 1808.22,921.205 1812.66,919.369 1817.11,917.56 1821.55,915.777 1826,914.02 1830.44,912.29 1834.89,910.588 1839.33,908.913 1843.78,907.267 1848.22,905.648 1852.67,904.059 1857.11,902.498 1861.56,900.967 1866.01,899.465 1870.45,897.994 1874.9,896.553 1879.34,895.142 1883.79,893.763 1888.23,892.415 1892.68,891.099 1897.12,889.816 1901.57,888.564 1906.01,887.346 1910.46,886.16 1914.9,885.009 1919.35,883.891 1923.79,882.807 1928.24,881.758 1932.68,880.744 1937.13,879.765 1941.57,878.821 1946.02,877.914 1950.46,877.042 1954.91,876.208 1959.35,875.41 1963.8,874.65 1968.24,873.927 1972.69,873.243 1977.14,872.597 1981.58,871.989 1986.03,871.421 1990.47,870.892 1994.92,870.402 1999.36,869.953 2003.81,869.544 2008.25,869.176 2012.7,868.849 2017.14,868.564 2021.59,868.32 2026.03,868.118 2030.48,867.959 2034.92,867.843 2039.37,867.77 2043.81,867.741 2048.26,867.755 2052.7,867.814 2057.15,867.917 2061.59,868.065 2066.04,868.259 2070.48,868.498 2074.93,868.783 2079.38,869.114 2083.82,869.492 2088.27,869.917 2092.71,870.389 2097.16,870.909 2101.6,871.477 2106.05,872.093 2110.49,872.758 2114.94,873.472 2119.38,874.236 2123.83,875.049 2128.27,875.913 2132.72,876.826 2137.16,877.791 2141.61,878.807 2146.05,879.874 2150.5,880.993 2154.94,882.164 2159.39,883.388 2163.83,884.664 2168.28,885.994 2172.72,887.378 2177.17,888.815 2181.62,890.306 2186.06,891.852 2190.51,893.453 2194.95,895.11 2199.4,896.821 2203.84,898.589 2208.29,900.413 2212.73,902.294 2217.18,904.232 2221.62,906.227 2226.07,908.28 2230.51,910.391 2234.96,912.56 2239.4,914.789 2243.85,917.076 2248.29,919.422 2252.74,921.828 2257.18,924.295 2261.63,926.822 2266.07,929.409 2270.52,932.058 2274.96,934.769 2279.41,937.541 2283.86,940.375 2288.3,943.272 2292.75,946.232 "/>
<polyline clip-path="url(#clip422)" style="stroke:#3da44d; stroke-linecap:round; stroke-linejoin:round; stroke-width:4; stroke-opacity:1; fill:none" points="292.4,1301.62 296.845,1300.83 301.29,1300.03 305.735,1299.22 310.181,1298.4 314.626,1297.57 319.071,1296.74 323.516,1295.9 327.961,1295.04 332.407,1294.19 336.852,1293.32 341.297,1292.44 345.742,1291.56 350.187,1290.67 354.633,1289.77 359.078,1288.86 363.523,1287.94 367.968,1287.02 372.414,1286.09 376.859,1285.14 381.304,1284.19 385.749,1283.23 390.194,1282.26 394.64,1281.29 399.085,1280.3 403.53,1279.3 407.975,1278.3 412.42,1277.28 416.866,1276.26 421.311,1275.22 425.756,1274.18 430.201,1273.13 434.647,1272.06 439.092,1270.99 443.537,1269.91 447.982,1268.81 452.427,1267.71 456.873,1266.6 461.318,1265.48 465.763,1264.35 470.208,1263.22 474.653,1262.07 479.099,1260.91 483.544,1259.75 487.989,1258.57 492.434,1257.39 496.88,1256.2 501.325,1255 505.77,1253.79 510.215,1252.57 514.66,1251.35 519.106,1250.2 523.551,1249.16 527.996,1248.22 532.441,1247.38 536.886,1246.63 541.332,1245.99 545.777,1245.43 550.222,1244.97 554.667,1244.59 559.112,1244.31 563.558,1244.11 568.003,1243.99 572.448,1243.95 576.893,1244 581.339,1244.12 585.784,1244.32 590.229,1244.6 594.674,1244.95 599.119,1245.37 603.565,1245.85 608.01,1246.41 612.455,1247.03 616.9,1247.71 621.345,1248.45 625.791,1249.25 630.236,1250.11 634.681,1251.03 639.126,1252 643.572,1253.02 648.017,1254.09 652.462,1255.21 656.907,1256.37 661.352,1257.58 665.798,1258.83 670.243,1260.12 674.688,1261.45 679.133,1262.82 683.578,1264.22 688.024,1265.65 692.469,1267.11 696.914,1268.61 701.359,1270.13 705.805,1271.67 710.25,1273.24 714.695,1274.83 719.14,1276.44 723.585,1278.06 728.031,1279.7 732.476,1281.36 736.921,1283.03 741.366,1284.7 745.811,1286.39 750.257,1288.08 754.702,1289.77 759.147,1291.47 763.592,1293.17 768.038,1294.86 772.483,1296.56 776.928,1298.24 781.373,1299.92 785.818,1301.6 790.264,1303.25 794.709,1304.9 799.154,1306.53 803.599,1308.15 808.044,1309.75 812.49,1311.32 816.935,1312.88 821.38,1314.41 825.825,1315.91 830.27,1317.38 834.716,1318.83 839.161,1320.24 843.606,1321.62 848.051,1322.96 852.497,1324.27 856.942,1325.54 861.387,1326.76 865.832,1327.94 870.277,1329.08 874.723,1330.17 879.168,1331.21 883.613,1332.2 888.058,1333.13 892.503,1334.01 896.949,1334.84 901.394,1335.6 905.839,1336.31 910.284,1336.95 914.73,1337.53 919.175,1338.05 923.62,1338.49 928.065,1338.87 932.51,1339.17 936.956,1339.4 941.401,1339.55 945.846,1339.63 950.291,1339.62 954.736,1339.54 959.182,1339.37 963.627,1339.13 968.072,1338.87 972.517,1338.58 976.963,1338.27 981.408,1337.94 985.853,1337.58 990.298,1337.21 994.743,1336.8 999.189,1336.38 1003.63,1335.93 1008.08,1335.46 1012.52,1334.97 1016.97,1334.45 1021.41,1333.91 1025.86,1333.35 1030.31,1332.76 1034.75,1332.16 1039.2,1331.53 1043.64,1330.87 1048.09,1330.2 1052.53,1329.61 1056.98,1329.13 1061.42,1328.76 1065.87,1328.49 1070.31,1328.31 1074.76,1328.21 1079.2,1328.18 1083.65,1328.22 1088.09,1328.33 1092.54,1328.48 1096.98,1328.69 1101.43,1328.93 1105.87,1329.2 1110.32,1329.5 1114.76,1329.81 1119.21,1330.13 1123.65,1330.46 1128.1,1330.78 1132.54,1331.08 1136.99,1331.37 1141.44,1331.63 1145.88,1331.85 1150.33,1332.03 1154.77,1332.17 1159.22,1332.24 1163.66,1332.25 1168.11,1332.19 1172.55,1332.06 1177,1331.83 1181.44,1331.51 1185.89,1331.09 1190.33,1330.57 1194.78,1329.93 1199.22,1329.16 1203.67,1328.26 1208.11,1327.23 1212.56,1326.05 1217,1324.72 1221.45,1323.23 1225.89,1321.58 1230.34,1319.75 1234.78,1317.73 1239.23,1315.53 1243.68,1313.14 1248.12,1310.53 1252.57,1307.72 1257.01,1304.69 1261.46,1301.44 1265.9,1297.95 1270.35,1294.22 1274.79,1290.24 1279.24,1286.01 1283.68,1281.52 1288.13,1276.75 1292.57,1271.71 1297.02,1266.39 1301.46,1260.77 1305.91,1254.85 1310.35,1248.63 1314.8,1242.1 1319.24,1235.28 1323.69,1228.31 1328.13,1221.19 1332.58,1213.93 1337.02,1206.51 1341.47,1198.95 1345.92,1191.24 1350.36,1183.38 1354.81,1175.38 1359.25,1167.22 1363.7,1159.16 1368.14,1151.25 1372.59,1143.49 1377.03,1135.88 1381.48,1128.42 1385.92,1121.11 1390.37,1113.94 1394.81,1106.92 1399.26,1100.04 1403.7,1093.3 1408.15,1086.7 1412.59,1080.24 1417.04,1073.91 1421.48,1067.72 1425.93,1061.66 1430.37,1055.74 1434.82,1049.94 1439.26,1044.28 1443.71,1038.74 1448.16,1033.33 1452.6,1028.04 1457.05,1022.87 1461.49,1017.83 1465.94,1012.91 1470.38,1008.1 1474.83,1003.41 1479.27,998.835 1483.72,994.375 1488.16,990.026 1492.61,985.789 1497.05,981.66 1501.5,977.639 1505.94,973.724 1510.39,969.914 1514.83,966.206 1519.28,962.601 1523.72,959.095 1528.17,955.688 1532.61,952.378 1537.06,949.163 1541.5,946.042 1545.95,943.014 1550.39,940.076 1554.84,937.228 1559.29,934.468 1563.73,931.794 1568.18,929.205 1572.62,926.699 1577.07,924.275 1581.51,921.931 1585.96,919.666 1590.4,917.478 1594.85,915.366 1599.29,913.328 1603.74,911.363 1608.18,909.469 1612.63,907.645 1617.07,905.888 1621.52,904.199 1625.96,902.574 1630.41,901.013 1634.85,899.514 1639.3,898.075 1643.74,896.696 1648.19,895.373 1652.63,894.107 1657.08,892.896 1661.53,891.737 1665.97,890.629 1670.42,889.572 1674.86,888.563 1679.31,887.6 1683.75,886.683 1688.2,885.81 1692.64,884.979 1697.09,884.189 1701.53,883.438 1705.98,882.725 1710.42,882.048 1714.87,881.406 1719.31,880.797 1723.76,880.219 1728.2,879.672 1732.65,879.153 1737.09,878.661 1741.54,878.195 1745.98,877.753 1750.43,877.334 1754.87,876.935 1759.32,876.556 1763.77,876.195 1768.21,875.85 1772.66,875.521 1777.1,875.204 1781.55,874.9 1785.99,874.606 1790.44,874.321 1794.88,874.043 1799.33,873.771 1803.77,873.503 1808.22,873.238 1812.66,872.975 1817.11,872.711 1821.55,872.445 1826,872.176 1830.44,871.902 1834.89,871.622 1839.33,871.334 1843.78,871.037 1848.22,870.728 1852.67,870.408 1857.11,870.073 1861.56,869.723 1866.01,869.356 1870.45,868.97 1874.9,868.565 1879.34,868.138 1883.79,867.687 1888.23,867.213 1892.68,866.712 1897.12,866.183 1901.57,865.626 1906.01,865.038 1910.46,864.417 1914.9,863.763 1919.35,863.074 1923.79,862.348 1928.24,861.584 1932.68,860.78 1937.13,859.934 1941.57,859.067 1946.02,858.254 1950.46,857.497 1954.91,856.793 1959.35,856.145 1963.8,855.552 1968.24,855.013 1972.69,854.529 1977.14,854.099 1981.58,853.725 1986.03,853.385 1990.47,853.076 1994.92,852.799 1999.36,852.555 2003.81,852.347 2008.25,852.175 2012.7,852.041 2017.14,851.946 2021.59,851.891 2026.03,851.88 2030.48,851.911 2034.92,851.988 2039.37,852.111 2043.81,852.282 2048.26,852.503 2052.7,852.774 2057.15,853.098 2061.59,853.475 2066.04,853.908 2070.48,854.397 2074.93,854.944 2079.38,855.551 2083.82,856.218 2088.27,856.948 2092.71,857.742 2097.16,858.601 2101.6,859.527 2106.05,860.52 2110.49,861.584 2114.94,862.718 2119.38,863.925 2123.83,865.205 2128.27,866.561 2132.72,867.994 2137.16,869.505 2141.61,871.096 2146.05,872.767 2150.5,874.522 2154.94,876.36 2159.39,878.283 2163.83,880.294 2168.28,882.392 2172.72,884.581 2177.17,886.861 2181.62,889.233 2186.06,891.699 2190.51,894.261 2194.95,896.92 2199.4,899.677 2203.84,902.534 2208.29,905.487 2212.73,908.518 2217.18,911.628 2221.62,914.816 2226.07,918.082 2230.51,921.426 2234.96,924.849 2239.4,928.35 2243.85,931.929 2248.29,935.586 2252.74,939.243 2257.18,942.801 2261.63,946.161 2266.07,949.223 2270.52,951.888 2274.96,954.057 2279.41,955.631 2283.86,956.51 2288.3,956.596 2292.75,955.788 "/>
<polyline clip-path="url(#clip422)" style="stroke:#c271d2; stroke-linecap:round; stroke-linejoin:round; stroke-width:4; stroke-opacity:1; fill:none" points="292.4,1295.79 296.845,1295.03 301.29,1294.27 305.735,1293.51 310.181,1292.75 314.626,1291.98 319.071,1291.22 323.516,1290.46 327.961,1289.7 332.407,1288.95 336.852,1288.2 341.297,1287.45 345.742,1286.71 350.187,1285.98 354.633,1285.25 359.078,1284.53 363.523,1283.82 367.968,1283.12 372.414,1282.43 376.859,1281.76 381.304,1281.09 385.749,1280.43 390.194,1279.79 394.64,1279.16 399.085,1278.54 403.53,1277.94 407.975,1277.35 412.42,1276.77 416.866,1276.21 421.311,1275.67 425.756,1275.14 430.201,1274.64 434.647,1274.15 439.092,1273.69 443.537,1273.25 447.982,1272.83 452.427,1272.45 456.873,1272.09 461.318,1271.77 465.763,1271.47 470.208,1271.21 474.653,1270.98 479.099,1270.79 483.544,1270.62 487.989,1270.49 492.434,1270.4 496.88,1270.34 501.325,1270.31 505.77,1270.33 510.215,1270.37 514.66,1270.45 519.106,1270.57 523.551,1270.71 527.996,1270.89 532.441,1271.11 536.886,1271.35 541.332,1271.62 545.777,1271.93 550.222,1272.26 554.667,1272.62 559.112,1273.01 563.558,1273.43 568.003,1273.87 572.448,1274.34 576.893,1274.83 581.339,1275.35 585.784,1275.89 590.229,1276.45 594.674,1277.04 599.119,1277.64 603.565,1278.27 608.01,1278.92 612.455,1279.59 616.9,1280.27 621.345,1280.98 625.791,1281.7 630.236,1282.44 634.681,1283.19 639.126,1283.96 643.572,1284.74 648.017,1285.54 652.462,1286.35 656.907,1287.17 661.352,1288 665.798,1288.85 670.243,1289.7 674.688,1290.57 679.133,1291.44 683.578,1292.32 688.024,1293.21 692.469,1294.1 696.914,1295 701.359,1295.91 705.805,1296.82 710.25,1297.74 714.695,1298.66 719.14,1299.58 723.585,1300.5 728.031,1301.42 732.476,1302.35 736.921,1303.27 741.366,1304.19 745.811,1305.11 750.257,1306.03 754.702,1306.95 759.147,1307.86 763.592,1308.77 768.038,1309.67 772.483,1310.57 776.928,1311.46 781.373,1312.34 785.818,1313.21 790.264,1314.08 794.709,1314.93 799.154,1315.78 803.599,1316.62 808.044,1317.44 812.49,1318.25 816.935,1319.05 821.38,1319.83 825.825,1320.61 830.27,1321.36 834.716,1322.1 839.161,1322.83 843.606,1323.53 848.051,1324.22 852.497,1324.89 856.942,1325.54 861.387,1326.17 865.832,1326.78 870.277,1327.37 874.723,1327.94 879.168,1328.48 883.613,1329 888.058,1329.5 892.503,1329.97 896.949,1330.42 901.394,1330.84 905.839,1331.23 910.284,1331.6 914.73,1331.94 919.175,1332.25 923.62,1332.52 928.065,1332.77 932.51,1332.99 936.956,1333.17 941.401,1333.33 945.846,1333.45 950.291,1333.53 954.736,1333.58 959.182,1333.6 963.627,1333.58 968.072,1333.52 972.517,1333.43 976.963,1333.29 981.408,1333.12 985.853,1332.91 990.298,1332.66 994.743,1332.37 999.189,1332.03 1003.63,1331.66 1008.08,1331.25 1012.52,1330.8 1016.97,1330.31 1021.41,1329.77 1025.86,1329.2 1030.31,1328.59 1034.75,1327.94 1039.2,1327.25 1043.64,1326.52 1048.09,1325.76 1052.53,1324.95 1056.98,1324.11 1061.42,1323.23 1065.87,1322.31 1070.31,1321.36 1074.76,1320.37 1079.2,1319.34 1083.65,1318.27 1088.09,1317.17 1092.54,1316.04 1096.98,1314.86 1101.43,1313.65 1105.87,1312.41 1110.32,1311.13 1114.76,1309.81 1119.21,1308.46 1123.65,1307.08 1128.1,1305.66 1132.54,1304.2 1136.99,1302.72 1141.44,1301.19 1145.88,1299.64 1150.33,1298.05 1154.77,1296.43 1159.22,1294.77 1163.66,1293.08 1168.11,1291.36 1172.55,1289.61 1177,1287.82 1181.44,1286 1185.89,1284.16 1190.33,1282.27 1194.78,1280.36 1199.22,1278.42 1203.67,1276.44 1208.11,1274.44 1212.56,1272.4 1217,1270.33 1221.45,1268.23 1225.89,1266.11 1230.34,1263.95 1234.78,1261.76 1239.23,1259.55 1243.68,1257.3 1248.12,1255.03 1252.57,1252.72 1257.01,1250.39 1261.46,1248.03 1265.9,1245.64 1270.35,1243.23 1274.79,1240.78 1279.24,1238.31 1283.68,1235.81 1288.13,1233.28 1292.57,1230.73 1297.02,1228.15 1301.46,1225.54 1305.91,1222.91 1310.35,1220.25 1314.8,1217.57 1319.24,1214.86 1323.69,1212.12 1328.13,1209.36 1332.58,1206.58 1337.02,1203.77 1341.47,1200.94 1345.92,1198.1 1350.36,1195.24 1354.81,1192.36 1359.25,1189.46 1363.7,1186.55 1368.14,1183.63 1372.59,1180.69 1377.03,1177.74 1381.48,1174.78 1385.92,1171.81 1390.37,1168.82 1394.81,1165.83 1399.26,1162.82 1403.7,1159.8 1408.15,1156.77 1412.59,1153.74 1417.04,1150.7 1421.48,1147.64 1425.93,1144.58 1430.37,1141.52 1434.82,1138.44 1439.26,1135.36 1443.71,1132.28 1448.16,1129.19 1452.6,1126.1 1457.05,1123 1461.49,1119.89 1465.94,1116.79 1470.38,1113.68 1474.83,1110.57 1479.27,1107.46 1483.72,1104.35 1488.16,1101.23 1492.61,1098.12 1497.05,1095.01 1501.5,1091.89 1505.94,1088.78 1510.39,1085.67 1514.83,1082.57 1519.28,1079.46 1523.72,1076.36 1528.17,1073.27 1532.61,1070.17 1537.06,1067.09 1541.5,1064 1545.95,1060.93 1550.39,1057.86 1554.84,1054.79 1559.29,1051.74 1563.73,1048.69 1568.18,1045.65 1572.62,1042.61 1577.07,1039.59 1581.51,1036.58 1585.96,1033.58 1590.4,1030.59 1594.85,1027.6 1599.29,1024.64 1603.74,1021.68 1608.18,1018.73 1612.63,1015.8 1617.07,1012.89 1621.52,1009.98 1625.96,1007.1 1630.41,1004.22 1634.85,1001.36 1639.3,998.523 1643.74,995.698 1648.19,992.89 1652.63,990.1 1657.08,987.328 1661.53,984.575 1665.97,981.84 1670.42,979.126 1674.86,976.431 1679.31,973.757 1683.75,971.104 1688.2,968.472 1692.64,965.863 1697.09,963.276 1701.53,960.712 1705.98,958.172 1710.42,955.656 1714.87,953.164 1719.31,950.697 1723.76,948.256 1728.2,945.841 1732.65,943.452 1737.09,941.09 1741.54,938.756 1745.98,936.449 1750.43,934.172 1754.87,931.923 1759.32,929.703 1763.77,927.514 1768.21,925.355 1772.66,923.226 1777.1,921.13 1781.55,919.065 1785.99,917.033 1790.44,915.033 1794.88,913.067 1799.33,911.135 1803.77,909.237 1808.22,907.374 1812.66,905.546 1817.11,903.755 1821.55,901.999 1826,900.281 1830.44,898.599 1834.89,896.956 1839.33,895.351 1843.78,893.785 1848.22,892.258 1852.67,890.771 1857.11,889.324 1861.56,887.918 1866.01,886.553 1870.45,885.23 1874.9,883.95 1879.34,882.712 1883.79,881.517 1888.23,880.366 1892.68,879.26 1897.12,878.198 1901.57,877.181 1906.01,876.21 1910.46,875.285 1914.9,874.407 1919.35,873.577 1923.79,872.793 1928.24,872.058 1932.68,871.372 1937.13,870.735 1941.57,870.148 1946.02,869.611 1950.46,869.124 1954.91,868.689 1959.35,868.304 1963.8,867.972 1968.24,867.69 1972.69,867.459 1977.14,867.278 1981.58,867.146 1986.03,867.061 1990.47,867.023 1994.92,867.032 1999.36,867.086 2003.81,867.185 2008.25,867.327 2012.7,867.512 2017.14,867.74 2021.59,868.008 2026.03,868.318 2030.48,868.667 2034.92,869.054 2039.37,869.48 2043.81,869.943 2048.26,870.442 2052.7,870.977 2057.15,871.547 2061.59,872.15 2066.04,872.787 2070.48,873.456 2074.93,874.156 2079.38,874.887 2083.82,875.648 2088.27,876.438 2092.71,877.256 2097.16,878.102 2101.6,878.974 2106.05,879.871 2110.49,880.794 2114.94,881.741 2119.38,882.711 2123.83,883.703 2128.27,884.717 2132.72,885.752 2137.16,886.807 2141.61,887.881 2146.05,888.973 2150.5,890.083 2154.94,891.21 2159.39,892.352 2163.83,893.51 2168.28,894.682 2172.72,895.867 2177.17,897.065 2181.62,898.275 2186.06,899.495 2190.51,900.726 2194.95,901.966 2199.4,903.215 2203.84,904.471 2208.29,905.735 2212.73,907.004 2217.18,908.278 2221.62,909.555 2226.07,910.836 2230.51,912.119 2234.96,913.403 2239.4,914.689 2243.85,915.975 2248.29,917.261 2252.74,918.548 2257.18,919.834 2261.63,921.121 2266.07,922.407 2270.52,923.693 2274.96,924.98 2279.41,926.266 2283.86,927.552 2288.3,928.839 2292.75,930.125 "/>
<path clip-path="url(#clip420)" d="M303.068 352.309 L735.752 352.309 L735.752 93.1086 L303.068 93.1086  Z" fill="#ffffff" fill-rule="evenodd" fill-opacity="1"/>
<polyline clip-path="url(#clip420)" style="stroke:#000000; stroke-linecap:round; stroke-linejoin:round; stroke-width:4; stroke-opacity:1; fill:none" points="303.068,352.309 735.752,352.309 735.752,93.1086 303.068,93.1086 303.068,352.309 "/>
<polyline clip-path="url(#clip420)" style="stroke:#009af9; stroke-linecap:round; stroke-linejoin:round; stroke-width:4; stroke-opacity:1; fill:none" points="326.628,144.949 467.986,144.949 "/>
<path clip-path="url(#clip420)" d="M509.971 137.067 L509.971 141.094 Q508.166 140.169 506.221 139.706 Q504.277 139.243 502.193 139.243 Q499.022 139.243 497.425 140.215 Q495.851 141.187 495.851 143.131 Q495.851 144.613 496.985 145.469 Q498.119 146.303 501.545 147.067 L503.004 147.391 Q507.541 148.363 509.439 150.145 Q511.36 151.905 511.36 155.076 Q511.36 158.687 508.49 160.793 Q505.642 162.9 500.642 162.9 Q498.559 162.9 496.291 162.483 Q494.045 162.09 491.545 161.28 L491.545 156.881 Q493.906 158.108 496.198 158.733 Q498.49 159.335 500.735 159.335 Q503.744 159.335 505.365 158.317 Q506.985 157.275 506.985 155.4 Q506.985 153.664 505.804 152.738 Q504.647 151.812 500.689 150.956 L499.207 150.608 Q495.249 149.775 493.49 148.062 Q491.73 146.326 491.73 143.317 Q491.73 139.659 494.323 137.669 Q496.916 135.678 501.684 135.678 Q504.045 135.678 506.129 136.025 Q508.212 136.372 509.971 137.067 Z" fill="#000000" fill-rule="nonzero" fill-opacity="1" /><path clip-path="url(#clip420)" d="M518.142 136.303 L522.402 136.303 L522.402 162.229 L518.142 162.229 L518.142 136.303 M518.142 126.21 L522.402 126.21 L522.402 131.604 L518.142 131.604 L518.142 126.21 Z" fill="#000000" fill-rule="nonzero" fill-opacity="1" /><path clip-path="url(#clip420)" d="M548.374 148.965 Q548.374 144.335 546.452 141.789 Q544.554 139.243 541.105 139.243 Q537.679 139.243 535.758 141.789 Q533.86 144.335 533.86 148.965 Q533.86 153.571 535.758 156.118 Q537.679 158.664 541.105 158.664 Q544.554 158.664 546.452 156.118 Q548.374 153.571 548.374 148.965 M552.633 159.011 Q552.633 165.631 549.693 168.849 Q546.753 172.09 540.689 172.09 Q538.443 172.09 536.452 171.742 Q534.462 171.418 532.587 170.724 L532.587 166.58 Q534.462 167.599 536.29 168.085 Q538.119 168.571 540.017 168.571 Q544.207 168.571 546.29 166.372 Q548.374 164.196 548.374 159.775 L548.374 157.668 Q547.054 159.96 544.994 161.094 Q542.934 162.229 540.064 162.229 Q535.295 162.229 532.378 158.594 Q529.462 154.96 529.462 148.965 Q529.462 142.946 532.378 139.312 Q535.295 135.678 540.064 135.678 Q542.934 135.678 544.994 136.812 Q547.054 137.946 548.374 140.238 L548.374 136.303 L552.633 136.303 L552.633 159.011 Z" fill="#000000" fill-rule="nonzero" fill-opacity="1" /><path clip-path="url(#clip420)" d="M582.957 146.581 L582.957 162.229 L578.698 162.229 L578.698 146.719 Q578.698 143.039 577.262 141.21 Q575.827 139.382 572.957 139.382 Q569.508 139.382 567.517 141.581 Q565.526 143.78 565.526 147.576 L565.526 162.229 L561.244 162.229 L561.244 136.303 L565.526 136.303 L565.526 140.331 Q567.054 137.993 569.114 136.835 Q571.198 135.678 573.906 135.678 Q578.373 135.678 580.665 138.456 Q582.957 141.21 582.957 146.581 Z" fill="#000000" fill-rule="nonzero" fill-opacity="1" /><path clip-path="url(#clip420)" d="M603.234 149.196 Q598.072 149.196 596.082 150.377 Q594.091 151.557 594.091 154.405 Q594.091 156.673 595.572 158.016 Q597.077 159.335 599.647 159.335 Q603.188 159.335 605.318 156.835 Q607.471 154.312 607.471 150.145 L607.471 149.196 L603.234 149.196 M611.73 147.437 L611.73 162.229 L607.471 162.229 L607.471 158.293 Q606.012 160.655 603.836 161.789 Q601.66 162.9 598.512 162.9 Q594.531 162.9 592.17 160.678 Q589.832 158.432 589.832 154.682 Q589.832 150.307 592.748 148.085 Q595.688 145.863 601.498 145.863 L607.471 145.863 L607.471 145.446 Q607.471 142.507 605.526 140.909 Q603.605 139.289 600.109 139.289 Q597.887 139.289 595.781 139.821 Q593.674 140.354 591.73 141.419 L591.73 137.483 Q594.068 136.581 596.267 136.141 Q598.466 135.678 600.549 135.678 Q606.174 135.678 608.952 138.594 Q611.73 141.511 611.73 147.437 Z" fill="#000000" fill-rule="nonzero" fill-opacity="1" /><path clip-path="url(#clip420)" d="M620.503 126.21 L624.762 126.21 L624.762 162.229 L620.503 162.229 L620.503 126.21 Z" fill="#000000" fill-rule="nonzero" fill-opacity="1" /><polyline clip-path="url(#clip420)" style="stroke:#e26f46; stroke-linecap:round; stroke-linejoin:round; stroke-width:4; stroke-opacity:1; fill:none" points="326.628,196.789 467.986,196.789 "/>
<path clip-path="url(#clip420)" d="M496.221 183.351 L496.221 210.226 L501.869 210.226 Q509.022 210.226 512.332 206.985 Q515.666 203.745 515.666 196.754 Q515.666 189.809 512.332 186.592 Q509.022 183.351 501.869 183.351 L496.221 183.351 M491.545 179.509 L501.152 179.509 Q511.198 179.509 515.897 183.698 Q520.596 187.865 520.596 196.754 Q520.596 205.689 515.874 209.879 Q511.152 214.069 501.152 214.069 L491.545 214.069 L491.545 179.509 Z" fill="#000000" fill-rule="nonzero" fill-opacity="1" /><path clip-path="url(#clip420)" d="M544.392 188.907 L544.392 192.934 Q542.587 192.009 540.642 191.546 Q538.698 191.083 536.614 191.083 Q533.443 191.083 531.846 192.055 Q530.272 193.027 530.272 194.971 Q530.272 196.453 531.406 197.309 Q532.54 198.143 535.966 198.907 L537.425 199.231 Q541.962 200.203 543.86 201.985 Q545.781 203.745 545.781 206.916 Q545.781 210.527 542.911 212.633 Q540.064 214.74 535.064 214.74 Q532.98 214.74 530.712 214.323 Q528.466 213.93 525.966 213.12 L525.966 208.721 Q528.327 209.948 530.619 210.573 Q532.911 211.175 535.156 211.175 Q538.165 211.175 539.786 210.157 Q541.406 209.115 541.406 207.24 Q541.406 205.504 540.226 204.578 Q539.068 203.652 535.11 202.796 L533.628 202.448 Q529.67 201.615 527.911 199.902 Q526.152 198.166 526.152 195.157 Q526.152 191.499 528.744 189.509 Q531.337 187.518 536.105 187.518 Q538.466 187.518 540.55 187.865 Q542.633 188.212 544.392 188.907 Z" fill="#000000" fill-rule="nonzero" fill-opacity="1" /><path clip-path="url(#clip420)" d="M556.684 210.18 L556.684 223.93 L552.401 223.93 L552.401 188.143 L556.684 188.143 L556.684 192.078 Q558.026 189.763 560.063 188.652 Q562.124 187.518 564.971 187.518 Q569.693 187.518 572.633 191.268 Q575.596 195.018 575.596 201.129 Q575.596 207.24 572.633 210.99 Q569.693 214.74 564.971 214.74 Q562.124 214.74 560.063 213.629 Q558.026 212.495 556.684 210.18 M571.174 201.129 Q571.174 196.43 569.23 193.768 Q567.309 191.083 563.929 191.083 Q560.55 191.083 558.605 193.768 Q556.684 196.43 556.684 201.129 Q556.684 205.828 558.605 208.513 Q560.55 211.175 563.929 211.175 Q567.309 211.175 569.23 208.513 Q571.174 205.828 571.174 201.129 Z" fill="#000000" fill-rule="nonzero" fill-opacity="1" /><path clip-path="url(#clip420)" d="M582.656 178.05 L586.915 178.05 L586.915 214.069 L582.656 214.069 L582.656 178.05 Z" fill="#000000" fill-rule="nonzero" fill-opacity="1" /><path clip-path="url(#clip420)" d="M595.827 188.143 L600.086 188.143 L600.086 214.069 L595.827 214.069 L595.827 188.143 M595.827 178.05 L600.086 178.05 L600.086 183.444 L595.827 183.444 L595.827 178.05 Z" fill="#000000" fill-rule="nonzero" fill-opacity="1" /><path clip-path="url(#clip420)" d="M630.549 198.421 L630.549 214.069 L626.29 214.069 L626.29 198.559 Q626.29 194.879 624.855 193.05 Q623.42 191.222 620.549 191.222 Q617.1 191.222 615.109 193.421 Q613.119 195.62 613.119 199.416 L613.119 214.069 L608.836 214.069 L608.836 188.143 L613.119 188.143 L613.119 192.171 Q614.646 189.833 616.707 188.675 Q618.79 187.518 621.498 187.518 Q625.966 187.518 628.257 190.296 Q630.549 193.05 630.549 198.421 Z" fill="#000000" fill-rule="nonzero" fill-opacity="1" /><path clip-path="url(#clip420)" d="M661.22 200.041 L661.22 202.124 L641.637 202.124 Q641.915 206.522 644.276 208.837 Q646.66 211.129 650.896 211.129 Q653.35 211.129 655.642 210.527 Q657.956 209.925 660.225 208.721 L660.225 212.749 Q657.933 213.721 655.526 214.231 Q653.118 214.74 650.642 214.74 Q644.438 214.74 640.804 211.129 Q637.193 207.518 637.193 201.36 Q637.193 194.995 640.619 191.268 Q644.068 187.518 649.901 187.518 Q655.132 187.518 658.165 190.897 Q661.22 194.254 661.22 200.041 M656.961 198.791 Q656.915 195.296 654.993 193.212 Q653.095 191.129 649.947 191.129 Q646.382 191.129 644.23 193.143 Q642.1 195.157 641.776 198.814 L656.961 198.791 Z" fill="#000000" fill-rule="nonzero" fill-opacity="1" /><polyline clip-path="url(#clip420)" style="stroke:#3da44d; stroke-linecap:round; stroke-linejoin:round; stroke-width:4; stroke-opacity:1; fill:none" points="326.628,248.629 467.986,248.629 "/>
<path clip-path="url(#clip420)" d="M510.457 252.645 Q510.457 248.015 508.536 245.469 Q506.638 242.923 503.189 242.923 Q499.763 242.923 497.842 245.469 Q495.943 248.015 495.943 252.645 Q495.943 257.251 497.842 259.798 Q499.763 262.344 503.189 262.344 Q506.638 262.344 508.536 259.798 Q510.457 257.251 510.457 252.645 M514.716 262.691 Q514.716 269.311 511.777 272.529 Q508.837 275.77 502.772 275.77 Q500.527 275.77 498.536 275.422 Q496.545 275.098 494.67 274.404 L494.67 270.26 Q496.545 271.279 498.374 271.765 Q500.203 272.251 502.101 272.251 Q506.291 272.251 508.374 270.052 Q510.457 267.876 510.457 263.455 L510.457 261.348 Q509.138 263.64 507.078 264.774 Q505.017 265.909 502.147 265.909 Q497.379 265.909 494.462 262.274 Q491.545 258.64 491.545 252.645 Q491.545 246.626 494.462 242.992 Q497.379 239.358 502.147 239.358 Q505.017 239.358 507.078 240.492 Q509.138 241.626 510.457 243.918 L510.457 239.983 L514.716 239.983 L514.716 262.691 Z" fill="#000000" fill-rule="nonzero" fill-opacity="1" /><path clip-path="url(#clip420)" d="M542.147 240.978 L542.147 244.96 Q540.341 243.964 538.513 243.478 Q536.707 242.969 534.855 242.969 Q530.712 242.969 528.42 245.608 Q526.128 248.224 526.128 252.969 Q526.128 257.714 528.42 260.353 Q530.712 262.969 534.855 262.969 Q536.707 262.969 538.513 262.483 Q540.341 261.973 542.147 260.978 L542.147 264.913 Q540.364 265.747 538.443 266.163 Q536.545 266.58 534.392 266.58 Q528.536 266.58 525.087 262.899 Q521.638 259.219 521.638 252.969 Q521.638 246.626 525.11 242.992 Q528.605 239.358 534.67 239.358 Q536.638 239.358 538.513 239.775 Q540.388 240.168 542.147 240.978 Z" fill="#000000" fill-rule="nonzero" fill-opacity="1" /><path clip-path="url(#clip420)" d="M546.499 239.983 L551.013 239.983 L559.114 261.742 L567.216 239.983 L571.73 239.983 L562.008 265.909 L556.221 265.909 L546.499 239.983 Z" fill="#000000" fill-rule="nonzero" fill-opacity="1" /><path clip-path="url(#clip420)" d="M594.137 240.747 L594.137 244.774 Q592.332 243.849 590.387 243.386 Q588.443 242.923 586.36 242.923 Q583.188 242.923 581.591 243.895 Q580.017 244.867 580.017 246.811 Q580.017 248.293 581.151 249.149 Q582.286 249.983 585.711 250.747 L587.17 251.071 Q591.707 252.043 593.605 253.825 Q595.526 255.585 595.526 258.756 Q595.526 262.367 592.656 264.473 Q589.809 266.58 584.809 266.58 Q582.725 266.58 580.457 266.163 Q578.211 265.77 575.711 264.96 L575.711 260.561 Q578.073 261.788 580.364 262.413 Q582.656 263.015 584.901 263.015 Q587.91 263.015 589.531 261.997 Q591.151 260.955 591.151 259.08 Q591.151 257.344 589.971 256.418 Q588.813 255.492 584.855 254.636 L583.373 254.288 Q579.415 253.455 577.656 251.742 Q575.897 250.006 575.897 246.997 Q575.897 243.339 578.489 241.349 Q581.082 239.358 585.85 239.358 Q588.211 239.358 590.295 239.705 Q592.378 240.052 594.137 240.747 Z" fill="#000000" fill-rule="nonzero" fill-opacity="1" /><path clip-path="url(#clip420)" d="M606.429 262.02 L606.429 275.77 L602.147 275.77 L602.147 239.983 L606.429 239.983 L606.429 243.918 Q607.771 241.603 609.809 240.492 Q611.869 239.358 614.716 239.358 Q619.438 239.358 622.378 243.108 Q625.341 246.858 625.341 252.969 Q625.341 259.08 622.378 262.83 Q619.438 266.58 614.716 266.58 Q611.869 266.58 609.809 265.469 Q607.771 264.335 606.429 262.02 M620.92 252.969 Q620.92 248.27 618.975 245.608 Q617.054 242.923 613.674 242.923 Q610.295 242.923 608.35 245.608 Q606.429 248.27 606.429 252.969 Q606.429 257.668 608.35 260.353 Q610.295 263.015 613.674 263.015 Q617.054 263.015 618.975 260.353 Q620.92 257.668 620.92 252.969 Z" fill="#000000" fill-rule="nonzero" fill-opacity="1" /><path clip-path="url(#clip420)" d="M632.401 229.89 L636.66 229.89 L636.66 265.909 L632.401 265.909 L632.401 229.89 Z" fill="#000000" fill-rule="nonzero" fill-opacity="1" /><path clip-path="url(#clip420)" d="M645.572 239.983 L649.831 239.983 L649.831 265.909 L645.572 265.909 L645.572 239.983 M645.572 229.89 L649.831 229.89 L649.831 235.284 L645.572 235.284 L645.572 229.89 Z" fill="#000000" fill-rule="nonzero" fill-opacity="1" /><path clip-path="url(#clip420)" d="M680.294 250.261 L680.294 265.909 L676.035 265.909 L676.035 250.399 Q676.035 246.719 674.6 244.89 Q673.165 243.062 670.294 243.062 Q666.845 243.062 664.855 245.261 Q662.864 247.46 662.864 251.256 L662.864 265.909 L658.581 265.909 L658.581 239.983 L662.864 239.983 L662.864 244.011 Q664.392 241.673 666.452 240.515 Q668.535 239.358 671.243 239.358 Q675.711 239.358 678.003 242.136 Q680.294 244.89 680.294 250.261 Z" fill="#000000" fill-rule="nonzero" fill-opacity="1" /><path clip-path="url(#clip420)" d="M710.965 251.881 L710.965 253.964 L691.382 253.964 Q691.66 258.362 694.021 260.677 Q696.405 262.969 700.641 262.969 Q703.095 262.969 705.387 262.367 Q707.702 261.765 709.97 260.561 L709.97 264.589 Q707.678 265.561 705.271 266.071 Q702.864 266.58 700.387 266.58 Q694.183 266.58 690.549 262.969 Q686.938 259.358 686.938 253.2 Q686.938 246.835 690.364 243.108 Q693.813 239.358 699.646 239.358 Q704.877 239.358 707.91 242.737 Q710.965 246.094 710.965 251.881 M706.706 250.631 Q706.66 247.136 704.739 245.052 Q702.84 242.969 699.692 242.969 Q696.127 242.969 693.975 244.983 Q691.845 246.997 691.521 250.654 L706.706 250.631 Z" fill="#000000" fill-rule="nonzero" fill-opacity="1" /><polyline clip-path="url(#clip420)" style="stroke:#c271d2; stroke-linecap:round; stroke-linejoin:round; stroke-width:4; stroke-opacity:1; fill:none" points="326.628,300.469 467.986,300.469 "/>
<path clip-path="url(#clip420)" d="M491.545 291.823 L495.804 291.823 L501.129 312.054 L506.429 291.823 L511.453 291.823 L516.777 312.054 L522.078 291.823 L526.337 291.823 L519.554 317.749 L514.531 317.749 L508.953 296.499 L503.351 317.749 L498.328 317.749 L491.545 291.823 Z" fill="#000000" fill-rule="nonzero" fill-opacity="1" /><path clip-path="url(#clip420)" d="M554.346 302.101 L554.346 317.749 L550.087 317.749 L550.087 302.239 Q550.087 298.559 548.651 296.73 Q547.216 294.902 544.346 294.902 Q540.897 294.902 538.906 297.101 Q536.915 299.3 536.915 303.096 L536.915 317.749 L532.633 317.749 L532.633 281.73 L536.915 281.73 L536.915 295.851 Q538.443 293.513 540.503 292.355 Q542.587 291.198 545.295 291.198 Q549.763 291.198 552.054 293.976 Q554.346 296.73 554.346 302.101 Z" fill="#000000" fill-rule="nonzero" fill-opacity="1" /><path clip-path="url(#clip420)" d="M562.841 291.823 L567.1 291.823 L567.1 317.749 L562.841 317.749 L562.841 291.823 M562.841 281.73 L567.1 281.73 L567.1 287.124 L562.841 287.124 L562.841 281.73 Z" fill="#000000" fill-rule="nonzero" fill-opacity="1" /><path clip-path="url(#clip420)" d="M580.225 284.462 L580.225 291.823 L588.998 291.823 L588.998 295.133 L580.225 295.133 L580.225 309.207 Q580.225 312.378 581.082 313.281 Q581.961 314.184 584.623 314.184 L588.998 314.184 L588.998 317.749 L584.623 317.749 Q579.693 317.749 577.818 315.92 Q575.943 314.068 575.943 309.207 L575.943 295.133 L572.818 295.133 L572.818 291.823 L575.943 291.823 L575.943 284.462 L580.225 284.462 Z" fill="#000000" fill-rule="nonzero" fill-opacity="1" /><path clip-path="url(#clip420)" d="M598.813 284.462 L598.813 291.823 L607.586 291.823 L607.586 295.133 L598.813 295.133 L598.813 309.207 Q598.813 312.378 599.67 313.281 Q600.549 314.184 603.211 314.184 L607.586 314.184 L607.586 317.749 L603.211 317.749 Q598.281 317.749 596.406 315.92 Q594.531 314.068 594.531 309.207 L594.531 295.133 L591.406 295.133 L591.406 291.823 L594.531 291.823 L594.531 284.462 L598.813 284.462 Z" fill="#000000" fill-rule="nonzero" fill-opacity="1" /><path clip-path="url(#clip420)" d="M624.97 304.716 Q619.808 304.716 617.818 305.897 Q615.827 307.077 615.827 309.925 Q615.827 312.193 617.308 313.536 Q618.813 314.855 621.383 314.855 Q624.924 314.855 627.054 312.355 Q629.207 309.832 629.207 305.665 L629.207 304.716 L624.97 304.716 M633.466 302.957 L633.466 317.749 L629.207 317.749 L629.207 313.813 Q627.748 316.175 625.572 317.309 Q623.396 318.42 620.248 318.42 Q616.267 318.42 613.906 316.198 Q611.568 313.952 611.568 310.202 Q611.568 305.827 614.484 303.605 Q617.424 301.383 623.234 301.383 L629.207 301.383 L629.207 300.966 Q629.207 298.027 627.262 296.429 Q625.341 294.809 621.845 294.809 Q619.623 294.809 617.517 295.341 Q615.41 295.874 613.466 296.939 L613.466 293.003 Q615.804 292.101 618.003 291.661 Q620.202 291.198 622.285 291.198 Q627.91 291.198 630.688 294.114 Q633.466 297.031 633.466 302.957 Z" fill="#000000" fill-rule="nonzero" fill-opacity="1" /><path clip-path="url(#clip420)" d="M642.077 281.73 L646.359 281.73 L646.359 303.003 L659.068 291.823 L664.507 291.823 L650.757 303.952 L665.086 317.749 L659.53 317.749 L646.359 305.087 L646.359 317.749 L642.077 317.749 L642.077 281.73 Z" fill="#000000" fill-rule="nonzero" fill-opacity="1" /><path clip-path="url(#clip420)" d="M690.178 303.721 L690.178 305.804 L670.595 305.804 Q670.873 310.202 673.234 312.517 Q675.618 314.809 679.854 314.809 Q682.308 314.809 684.6 314.207 Q686.915 313.605 689.183 312.401 L689.183 316.429 Q686.891 317.401 684.484 317.911 Q682.077 318.42 679.6 318.42 Q673.396 318.42 669.762 314.809 Q666.151 311.198 666.151 305.04 Q666.151 298.675 669.577 294.948 Q673.026 291.198 678.859 291.198 Q684.091 291.198 687.123 294.577 Q690.178 297.934 690.178 303.721 M685.919 302.471 Q685.873 298.976 683.952 296.892 Q682.053 294.809 678.905 294.809 Q675.341 294.809 673.188 296.823 Q671.058 298.837 670.734 302.494 L685.919 302.471 Z" fill="#000000" fill-rule="nonzero" fill-opacity="1" /><path clip-path="url(#clip420)" d="M712.192 295.804 Q711.475 295.388 710.618 295.202 Q709.785 294.994 708.766 294.994 Q705.155 294.994 703.211 297.355 Q701.29 299.693 701.29 304.091 L701.29 317.749 L697.007 317.749 L697.007 291.823 L701.29 291.823 L701.29 295.851 Q702.632 293.489 704.785 292.355 Q706.938 291.198 710.016 291.198 Q710.456 291.198 710.989 291.267 Q711.521 291.314 712.169 291.429 L712.192 295.804 Z" fill="#000000" fill-rule="nonzero" fill-opacity="1" /></svg>
