<?xml version="1.0" encoding="utf-8"?>
<svg xmlns="http://www.w3.org/2000/svg" xmlns:xlink="http://www.w3.org/1999/xlink" width="600" height="400" viewBox="0 0 2400 1600">
<defs>
  <clipPath id="clip390">
    <rect x="0" y="0" width="2400" height="1600"/>
  </clipPath>
</defs>
<path clip-path="url(#clip390)" d="M0 1600 L2400 1600 L2400 0 L0 0  Z" fill="#ffffff" fill-rule="evenodd" fill-opacity="1"/>
<defs>
  <clipPath id="clip391">
    <rect x="480" y="0" width="1681" height="1600"/>
  </clipPath>
</defs>
<path clip-path="url(#clip390)" d="M232.389 1423.18 L2352.76 1423.18 L2352.76 47.2441 L232.389 47.2441  Z" fill="#ffffff" fill-rule="evenodd" fill-opacity="1"/>
<defs>
  <clipPath id="clip392">
    <rect x="232" y="47" width="2121" height="1377"/>
  </clipPath>
</defs>
<polyline clip-path="url(#clip392)" style="stroke:#000000; stroke-linecap:round; stroke-linejoin:round; stroke-width:2; stroke-opacity:0.1; fill:none" points="514.66,1423.18 514.66,47.2441 "/>
<polyline clip-path="url(#clip392)" style="stroke:#000000; stroke-linecap:round; stroke-linejoin:round; stroke-width:2; stroke-opacity:0.1; fill:none" points="959.182,1423.18 959.182,47.2441 "/>
<polyline clip-path="url(#clip392)" style="stroke:#000000; stroke-linecap:round; stroke-linejoin:round; stroke-width:2; stroke-opacity:0.1; fill:none" points="1403.7,1423.18 1403.7,47.2441 "/>
<polyline clip-path="url(#clip392)" style="stroke:#000000; stroke-linecap:round; stroke-linejoin:round; stroke-width:2; stroke-opacity:0.1; fill:none" points="1848.22,1423.18 1848.22,47.2441 "/>
<polyline clip-path="url(#clip392)" style="stroke:#000000; stroke-linecap:round; stroke-linejoin:round; stroke-width:2; stroke-opacity:0.1; fill:none" points="2292.75,1423.18 2292.75,47.2441 "/>
<polyline clip-path="url(#clip392)" style="stroke:#000000; stroke-linecap:round; stroke-linejoin:round; stroke-width:2; stroke-opacity:0.1; fill:none" points="232.389,1241.81 2352.76,1241.81 "/>
<polyline clip-path="url(#clip392)" style="stroke:#000000; stroke-linecap:round; stroke-linejoin:round; stroke-width:2; stroke-opacity:0.1; fill:none" points="232.389,990.026 2352.76,990.026 "/>
<polyline clip-path="url(#clip392)" style="stroke:#000000; stroke-linecap:round; stroke-linejoin:round; stroke-width:2; stroke-opacity:0.1; fill:none" points="232.389,738.246 2352.76,738.246 "/>
<polyline clip-path="url(#clip392)" style="stroke:#000000; stroke-linecap:round; stroke-linejoin:round; stroke-width:2; stroke-opacity:0.1; fill:none" points="232.389,486.466 2352.76,486.466 "/>
<polyline clip-path="url(#clip392)" style="stroke:#000000; stroke-linecap:round; stroke-linejoin:round; stroke-width:2; stroke-opacity:0.1; fill:none" points="232.389,234.686 2352.76,234.686 "/>
<polyline clip-path="url(#clip390)" style="stroke:#000000; stroke-linecap:round; stroke-linejoin:round; stroke-width:4; stroke-opacity:1; fill:none" points="232.389,1423.18 2352.76,1423.18 "/>
<polyline clip-path="url(#clip390)" style="stroke:#000000; stroke-linecap:round; stroke-linejoin:round; stroke-width:4; stroke-opacity:1; fill:none" points="514.66,1423.18 514.66,1404.28 "/>
<polyline clip-path="url(#clip390)" style="stroke:#000000; stroke-linecap:round; stroke-linejoin:round; stroke-width:4; stroke-opacity:1; fill:none" points="959.182,1423.18 959.182,1404.28 "/>
<polyline clip-path="url(#clip390)" style="stroke:#000000; stroke-linecap:round; stroke-linejoin:round; stroke-width:4; stroke-opacity:1; fill:none" points="1403.7,1423.18 1403.7,1404.28 "/>
<polyline clip-path="url(#clip390)" style="stroke:#000000; stroke-linecap:round; stroke-linejoin:round; stroke-width:4; stroke-opacity:1; fill:none" points="1848.22,1423.18 1848.22,1404.28 "/>
<polyline clip-path="url(#clip390)" style="stroke:#000000; stroke-linecap:round; stroke-linejoin:round; stroke-width:4; stroke-opacity:1; fill:none" points="2292.75,1423.18 2292.75,1404.28 "/>
<path clip-path="url(#clip390)" d="M474.267 1481.64 L481.906 1481.64 L481.906 1455.28 L473.596 1456.95 L473.596 1452.69 L481.86 1451.02 L486.536 1451.02 L486.536 1481.64 L494.174 1481.64 L494.174 1485.58 L474.267 1485.58 L474.267 1481.64 Z" fill="#000000" fill-rule="nonzero" fill-opacity="1" /><path clip-path="url(#clip390)" d="M513.619 1454.1 Q510.008 1454.1 508.179 1457.66 Q506.373 1461.2 506.373 1468.33 Q506.373 1475.44 508.179 1479.01 Q510.008 1482.55 513.619 1482.55 Q517.253 1482.55 519.058 1479.01 Q520.887 1475.44 520.887 1468.33 Q520.887 1461.2 519.058 1457.66 Q517.253 1454.1 513.619 1454.1 M513.619 1450.39 Q519.429 1450.39 522.484 1455 Q525.563 1459.58 525.563 1468.33 Q525.563 1477.06 522.484 1481.67 Q519.429 1486.25 513.619 1486.25 Q507.809 1486.25 504.73 1481.67 Q501.674 1477.06 501.674 1468.33 Q501.674 1459.58 504.73 1455 Q507.809 1450.39 513.619 1450.39 Z" fill="#000000" fill-rule="nonzero" fill-opacity="1" /><path clip-path="url(#clip390)" d="M543.781 1454.1 Q540.169 1454.1 538.341 1457.66 Q536.535 1461.2 536.535 1468.33 Q536.535 1475.44 538.341 1479.01 Q540.169 1482.55 543.781 1482.55 Q547.415 1482.55 549.22 1479.01 Q551.049 1475.44 551.049 1468.33 Q551.049 1461.2 549.22 1457.66 Q547.415 1454.1 543.781 1454.1 M543.781 1450.39 Q549.591 1450.39 552.646 1455 Q555.725 1459.58 555.725 1468.33 Q555.725 1477.06 552.646 1481.67 Q549.591 1486.25 543.781 1486.25 Q537.97 1486.25 534.892 1481.67 Q531.836 1477.06 531.836 1468.33 Q531.836 1459.58 534.892 1455 Q537.97 1450.39 543.781 1450.39 Z" fill="#000000" fill-rule="nonzero" fill-opacity="1" /><path clip-path="url(#clip390)" d="M922.874 1481.64 L939.193 1481.64 L939.193 1485.58 L917.249 1485.58 L917.249 1481.64 Q919.911 1478.89 924.494 1474.26 Q929.101 1469.61 930.281 1468.27 Q932.527 1465.74 933.406 1464.01 Q934.309 1462.25 934.309 1460.56 Q934.309 1457.8 932.365 1456.07 Q930.443 1454.33 927.342 1454.33 Q925.142 1454.33 922.689 1455.09 Q920.258 1455.86 917.48 1457.41 L917.48 1452.69 Q920.305 1451.55 922.758 1450.97 Q925.212 1450.39 927.249 1450.39 Q932.619 1450.39 935.814 1453.08 Q939.008 1455.77 939.008 1460.26 Q939.008 1462.39 938.198 1464.31 Q937.411 1466.2 935.304 1468.8 Q934.726 1469.47 931.624 1472.69 Q928.522 1475.88 922.874 1481.64 Z" fill="#000000" fill-rule="nonzero" fill-opacity="1" /><path clip-path="url(#clip390)" d="M959.008 1454.1 Q955.397 1454.1 953.568 1457.66 Q951.763 1461.2 951.763 1468.33 Q951.763 1475.44 953.568 1479.01 Q955.397 1482.55 959.008 1482.55 Q962.642 1482.55 964.448 1479.01 Q966.277 1475.44 966.277 1468.33 Q966.277 1461.2 964.448 1457.66 Q962.642 1454.1 959.008 1454.1 M959.008 1450.39 Q964.818 1450.39 967.874 1455 Q970.952 1459.58 970.952 1468.33 Q970.952 1477.06 967.874 1481.67 Q964.818 1486.25 959.008 1486.25 Q953.198 1486.25 950.119 1481.67 Q947.064 1477.06 947.064 1468.33 Q947.064 1459.58 950.119 1455 Q953.198 1450.39 959.008 1450.39 Z" fill="#000000" fill-rule="nonzero" fill-opacity="1" /><path clip-path="url(#clip390)" d="M989.17 1454.1 Q985.559 1454.1 983.73 1457.66 Q981.925 1461.2 981.925 1468.33 Q981.925 1475.44 983.73 1479.01 Q985.559 1482.55 989.17 1482.55 Q992.804 1482.55 994.61 1479.01 Q996.438 1475.44 996.438 1468.33 Q996.438 1461.2 994.61 1457.66 Q992.804 1454.1 989.17 1454.1 M989.17 1450.39 Q994.98 1450.39 998.036 1455 Q1001.11 1459.58 1001.11 1468.33 Q1001.11 1477.06 998.036 1481.67 Q994.98 1486.25 989.17 1486.25 Q983.36 1486.25 980.281 1481.67 Q977.226 1477.06 977.226 1468.33 Q977.226 1459.58 980.281 1455 Q983.36 1450.39 989.17 1450.39 Z" fill="#000000" fill-rule="nonzero" fill-opacity="1" /><path clip-path="url(#clip390)" d="M1377.46 1466.95 Q1380.82 1467.66 1382.7 1469.93 Q1384.59 1472.2 1384.59 1475.53 Q1384.59 1480.65 1381.08 1483.45 Q1377.56 1486.25 1371.08 1486.25 Q1368.9 1486.25 1366.59 1485.81 Q1364.29 1485.39 1361.84 1484.54 L1361.84 1480.02 Q1363.78 1481.16 1366.1 1481.74 Q1368.41 1482.32 1370.94 1482.32 Q1375.34 1482.32 1377.63 1480.58 Q1379.94 1478.84 1379.94 1475.53 Q1379.94 1472.48 1377.79 1470.77 Q1375.66 1469.03 1371.84 1469.03 L1367.81 1469.03 L1367.81 1465.19 L1372.02 1465.19 Q1375.47 1465.19 1377.3 1463.82 Q1379.13 1462.43 1379.13 1459.84 Q1379.13 1457.18 1377.23 1455.77 Q1375.36 1454.33 1371.84 1454.33 Q1369.92 1454.33 1367.72 1454.75 Q1365.52 1455.16 1362.88 1456.04 L1362.88 1451.88 Q1365.54 1451.14 1367.86 1450.77 Q1370.2 1450.39 1372.26 1450.39 Q1377.58 1450.39 1380.68 1452.83 Q1383.78 1455.23 1383.78 1459.35 Q1383.78 1462.22 1382.14 1464.21 Q1380.5 1466.18 1377.46 1466.95 Z" fill="#000000" fill-rule="nonzero" fill-opacity="1" /><path clip-path="url(#clip390)" d="M1403.46 1454.1 Q1399.85 1454.1 1398.02 1457.66 Q1396.21 1461.2 1396.21 1468.33 Q1396.21 1475.44 1398.02 1479.01 Q1399.85 1482.55 1403.46 1482.55 Q1407.09 1482.55 1408.9 1479.01 Q1410.73 1475.44 1410.73 1468.33 Q1410.73 1461.2 1408.9 1457.66 Q1407.09 1454.1 1403.46 1454.1 M1403.46 1450.39 Q1409.27 1450.39 1412.33 1455 Q1415.4 1459.58 1415.4 1468.33 Q1415.4 1477.06 1412.33 1481.67 Q1409.27 1486.25 1403.46 1486.25 Q1397.65 1486.25 1394.57 1481.67 Q1391.52 1477.06 1391.52 1468.33 Q1391.52 1459.58 1394.57 1455 Q1397.65 1450.39 1403.46 1450.39 Z" fill="#000000" fill-rule="nonzero" fill-opacity="1" /><path clip-path="url(#clip390)" d="M1433.62 1454.1 Q1430.01 1454.1 1428.18 1457.66 Q1426.38 1461.2 1426.38 1468.33 Q1426.38 1475.44 1428.18 1479.01 Q1430.01 1482.55 1433.62 1482.55 Q1437.26 1482.55 1439.06 1479.01 Q1440.89 1475.44 1440.89 1468.33 Q1440.89 1461.2 1439.06 1457.66 Q1437.26 1454.1 1433.62 1454.1 M1433.62 1450.39 Q1439.43 1450.39 1442.49 1455 Q1445.57 1459.58 1445.57 1468.33 Q1445.57 1477.06 1442.49 1481.67 Q1439.43 1486.25 1433.62 1486.25 Q1427.81 1486.25 1424.73 1481.67 Q1421.68 1477.06 1421.68 1468.33 Q1421.68 1459.58 1424.73 1455 Q1427.81 1450.39 1433.62 1450.39 Z" fill="#000000" fill-rule="nonzero" fill-opacity="1" /><path clip-path="url(#clip390)" d="M1821.31 1455.09 L1809.51 1473.54 L1821.31 1473.54 L1821.31 1455.09 M1820.09 1451.02 L1825.97 1451.02 L1825.97 1473.54 L1830.9 1473.54 L1830.9 1477.43 L1825.97 1477.43 L1825.97 1485.58 L1821.31 1485.58 L1821.31 1477.43 L1805.71 1477.43 L1805.71 1472.92 L1820.09 1451.02 Z" fill="#000000" fill-rule="nonzero" fill-opacity="1" /><path clip-path="url(#clip390)" d="M1848.63 1454.1 Q1845.02 1454.1 1843.19 1457.66 Q1841.38 1461.2 1841.38 1468.33 Q1841.38 1475.44 1843.19 1479.01 Q1845.02 1482.55 1848.63 1482.55 Q1852.26 1482.55 1854.07 1479.01 Q1855.9 1475.44 1855.9 1468.33 Q1855.9 1461.2 1854.07 1457.66 Q1852.26 1454.1 1848.63 1454.1 M1848.63 1450.39 Q1854.44 1450.39 1857.5 1455 Q1860.57 1459.58 1860.57 1468.33 Q1860.57 1477.06 1857.5 1481.67 Q1854.44 1486.25 1848.63 1486.25 Q1842.82 1486.25 1839.74 1481.67 Q1836.68 1477.06 1836.68 1468.33 Q1836.68 1459.58 1839.74 1455 Q1842.82 1450.39 1848.63 1450.39 Z" fill="#000000" fill-rule="nonzero" fill-opacity="1" /><path clip-path="url(#clip390)" d="M1878.79 1454.1 Q1875.18 1454.1 1873.35 1457.66 Q1871.55 1461.2 1871.55 1468.33 Q1871.55 1475.44 1873.35 1479.01 Q1875.18 1482.55 1878.79 1482.55 Q1882.43 1482.55 1884.23 1479.01 Q1886.06 1475.44 1886.06 1468.33 Q1886.06 1461.2 1884.23 1457.66 Q1882.43 1454.1 1878.79 1454.1 M1878.79 1450.39 Q1884.6 1450.39 1887.66 1455 Q1890.74 1459.58 1890.74 1468.33 Q1890.74 1477.06 1887.66 1481.67 Q1884.6 1486.25 1878.79 1486.25 Q1872.98 1486.25 1869.9 1481.67 Q1866.85 1477.06 1866.85 1468.33 Q1866.85 1459.58 1869.9 1455 Q1872.98 1450.39 1878.79 1450.39 Z" fill="#000000" fill-rule="nonzero" fill-opacity="1" /><path clip-path="url(#clip390)" d="M2252.36 1451.02 L2270.72 1451.02 L2270.72 1454.96 L2256.65 1454.96 L2256.65 1463.43 Q2257.66 1463.08 2258.68 1462.92 Q2259.7 1462.73 2260.72 1462.73 Q2266.51 1462.73 2269.89 1465.9 Q2273.27 1469.08 2273.27 1474.49 Q2273.27 1480.07 2269.79 1483.17 Q2266.32 1486.25 2260 1486.25 Q2257.83 1486.25 2255.56 1485.88 Q2253.31 1485.51 2250.91 1484.77 L2250.91 1480.07 Q2252.99 1481.2 2255.21 1481.76 Q2257.43 1482.32 2259.91 1482.32 Q2263.91 1482.32 2266.25 1480.21 Q2268.59 1478.1 2268.59 1474.49 Q2268.59 1470.88 2266.25 1468.77 Q2263.91 1466.67 2259.91 1466.67 Q2258.04 1466.67 2256.16 1467.08 Q2254.31 1467.5 2252.36 1468.38 L2252.36 1451.02 Z" fill="#000000" fill-rule="nonzero" fill-opacity="1" /><path clip-path="url(#clip390)" d="M2292.48 1454.1 Q2288.87 1454.1 2287.04 1457.66 Q2285.23 1461.2 2285.23 1468.33 Q2285.23 1475.44 2287.04 1479.01 Q2288.87 1482.55 2292.48 1482.55 Q2296.11 1482.55 2297.92 1479.01 Q2299.75 1475.44 2299.75 1468.33 Q2299.75 1461.2 2297.92 1457.66 Q2296.11 1454.1 2292.48 1454.1 M2292.48 1450.39 Q2298.29 1450.39 2301.35 1455 Q2304.42 1459.58 2304.42 1468.33 Q2304.42 1477.06 2301.35 1481.67 Q2298.29 1486.25 2292.48 1486.25 Q2286.67 1486.25 2283.59 1481.67 Q2280.53 1477.06 2280.53 1468.33 Q2280.53 1459.58 2283.59 1455 Q2286.67 1450.39 2292.48 1450.39 Z" fill="#000000" fill-rule="nonzero" fill-opacity="1" /><path clip-path="url(#clip390)" d="M2322.64 1454.1 Q2319.03 1454.1 2317.2 1457.66 Q2315.4 1461.2 2315.4 1468.33 Q2315.4 1475.44 2317.2 1479.01 Q2319.03 1482.55 2322.64 1482.55 Q2326.28 1482.55 2328.08 1479.01 Q2329.91 1475.44 2329.91 1468.33 Q2329.91 1461.2 2328.08 1457.66 Q2326.28 1454.1 2322.64 1454.1 M2322.64 1450.39 Q2328.45 1450.39 2331.51 1455 Q2334.59 1459.58 2334.59 1468.33 Q2334.59 1477.06 2331.51 1481.67 Q2328.45 1486.25 2322.64 1486.25 Q2316.83 1486.25 2313.75 1481.67 Q2310.7 1477.06 2310.7 1468.33 Q2310.7 1459.58 2313.75 1455 Q2316.83 1450.39 2322.64 1450.39 Z" fill="#000000" fill-rule="nonzero" fill-opacity="1" /><path clip-path="url(#clip390)" d="M1274.4 1520.52 L1281.31 1520.52 L1293.11 1538.19 L1304.99 1520.52 L1311.89 1520.52 L1296.61 1543.34 L1312.91 1568.04 L1306 1568.04 L1292.64 1547.83 L1279.17 1568.04 L1272.23 1568.04 L1289.2 1542.68 L1274.4 1520.52 Z" fill="#000000" fill-rule="nonzero" fill-opacity="1" /><polyline clip-path="url(#clip390)" style="stroke:#000000; stroke-linecap:round; stroke-linejoin:round; stroke-width:4; stroke-opacity:1; fill:none" points="232.389,1423.18 232.389,47.2441 "/>
<polyline clip-path="url(#clip390)" style="stroke:#000000; stroke-linecap:round; stroke-linejoin:round; stroke-width:4; stroke-opacity:1; fill:none" points="232.389,1241.81 251.287,1241.81 "/>
<polyline clip-path="url(#clip390)" style="stroke:#000000; stroke-linecap:round; stroke-linejoin:round; stroke-width:4; stroke-opacity:1; fill:none" points="232.389,990.026 251.287,990.026 "/>
<polyline clip-path="url(#clip390)" style="stroke:#000000; stroke-linecap:round; stroke-linejoin:round; stroke-width:4; stroke-opacity:1; fill:none" points="232.389,738.246 251.287,738.246 "/>
<polyline clip-path="url(#clip390)" style="stroke:#000000; stroke-linecap:round; stroke-linejoin:round; stroke-width:4; stroke-opacity:1; fill:none" points="232.389,486.466 251.287,486.466 "/>
<polyline clip-path="url(#clip390)" style="stroke:#000000; stroke-linecap:round; stroke-linejoin:round; stroke-width:4; stroke-opacity:1; fill:none" points="232.389,234.686 251.287,234.686 "/>
<path clip-path="url(#clip390)" d="M148.311 1255.15 L164.63 1255.15 L164.63 1259.09 L142.686 1259.09 L142.686 1255.15 Q145.348 1252.4 149.931 1247.77 Q154.538 1243.11 155.718 1241.77 Q157.964 1239.25 158.843 1237.51 Q159.746 1235.75 159.746 1234.06 Q159.746 1231.31 157.802 1229.57 Q155.88 1227.84 152.778 1227.84 Q150.579 1227.84 148.126 1228.6 Q145.695 1229.36 142.917 1230.91 L142.917 1226.19 Q145.741 1225.06 148.195 1224.48 Q150.649 1223.9 152.686 1223.9 Q158.056 1223.9 161.251 1226.59 Q164.445 1229.27 164.445 1233.76 Q164.445 1235.89 163.635 1237.81 Q162.848 1239.71 160.741 1242.3 Q160.163 1242.97 157.061 1246.19 Q153.959 1249.39 148.311 1255.15 Z" fill="#000000" fill-rule="nonzero" fill-opacity="1" /><path clip-path="url(#clip390)" d="M184.445 1227.6 Q180.834 1227.6 179.005 1231.17 Q177.2 1234.71 177.2 1241.84 Q177.2 1248.95 179.005 1252.51 Q180.834 1256.05 184.445 1256.05 Q188.079 1256.05 189.885 1252.51 Q191.713 1248.95 191.713 1241.84 Q191.713 1234.71 189.885 1231.17 Q188.079 1227.6 184.445 1227.6 M184.445 1223.9 Q190.255 1223.9 193.311 1228.51 Q196.389 1233.09 196.389 1241.84 Q196.389 1250.57 193.311 1255.17 Q190.255 1259.76 184.445 1259.76 Q178.635 1259.76 175.556 1255.17 Q172.501 1250.57 172.501 1241.84 Q172.501 1233.09 175.556 1228.51 Q178.635 1223.9 184.445 1223.9 Z" fill="#000000" fill-rule="nonzero" fill-opacity="1" /><path clip-path="url(#clip390)" d="M157.13 976.82 L145.325 995.269 L157.13 995.269 L157.13 976.82 M155.903 972.746 L161.783 972.746 L161.783 995.269 L166.714 995.269 L166.714 999.158 L161.783 999.158 L161.783 1007.31 L157.13 1007.31 L157.13 999.158 L141.529 999.158 L141.529 994.644 L155.903 972.746 Z" fill="#000000" fill-rule="nonzero" fill-opacity="1" /><path clip-path="url(#clip390)" d="M184.445 975.825 Q180.834 975.825 179.005 979.389 Q177.2 982.931 177.2 990.061 Q177.2 997.167 179.005 1000.73 Q180.834 1004.27 184.445 1004.27 Q188.079 1004.27 189.885 1000.73 Q191.713 997.167 191.713 990.061 Q191.713 982.931 189.885 979.389 Q188.079 975.825 184.445 975.825 M184.445 972.121 Q190.255 972.121 193.311 976.727 Q196.389 981.311 196.389 990.061 Q196.389 998.787 193.311 1003.39 Q190.255 1007.98 184.445 1007.98 Q178.635 1007.98 175.556 1003.39 Q172.501 998.787 172.501 990.061 Q172.501 981.311 175.556 976.727 Q178.635 972.121 184.445 972.121 Z" fill="#000000" fill-rule="nonzero" fill-opacity="1" /><path clip-path="url(#clip390)" d="M154.862 736.382 Q151.714 736.382 149.862 738.535 Q148.033 740.688 148.033 744.438 Q148.033 748.165 149.862 750.341 Q151.714 752.493 154.862 752.493 Q158.01 752.493 159.839 750.341 Q161.69 748.165 161.69 744.438 Q161.69 740.688 159.839 738.535 Q158.01 736.382 154.862 736.382 M164.144 721.73 L164.144 725.989 Q162.385 725.156 160.579 724.716 Q158.797 724.276 157.038 724.276 Q152.408 724.276 149.954 727.401 Q147.524 730.526 147.177 736.845 Q148.542 734.832 150.603 733.767 Q152.663 732.679 155.14 732.679 Q160.348 732.679 163.357 735.85 Q166.39 738.998 166.39 744.438 Q166.39 749.762 163.241 752.98 Q160.093 756.197 154.862 756.197 Q148.866 756.197 145.695 751.614 Q142.524 747.007 142.524 738.281 Q142.524 730.086 146.413 725.225 Q150.302 720.341 156.853 720.341 Q158.612 720.341 160.394 720.688 Q162.2 721.035 164.144 721.73 Z" fill="#000000" fill-rule="nonzero" fill-opacity="1" /><path clip-path="url(#clip390)" d="M184.445 724.045 Q180.834 724.045 179.005 727.609 Q177.2 731.151 177.2 738.281 Q177.2 745.387 179.005 748.952 Q180.834 752.493 184.445 752.493 Q188.079 752.493 189.885 748.952 Q191.713 745.387 191.713 738.281 Q191.713 731.151 189.885 727.609 Q188.079 724.045 184.445 724.045 M184.445 720.341 Q190.255 720.341 193.311 724.947 Q196.389 729.531 196.389 738.281 Q196.389 747.007 193.311 751.614 Q190.255 756.197 184.445 756.197 Q178.635 756.197 175.556 751.614 Q172.501 747.007 172.501 738.281 Q172.501 729.531 175.556 724.947 Q178.635 720.341 184.445 720.341 Z" fill="#000000" fill-rule="nonzero" fill-opacity="1" /><path clip-path="url(#clip390)" d="M154.283 487.334 Q150.95 487.334 149.028 489.116 Q147.13 490.899 147.13 494.024 Q147.13 497.149 149.028 498.931 Q150.95 500.713 154.283 500.713 Q157.616 500.713 159.538 498.931 Q161.459 497.126 161.459 494.024 Q161.459 490.899 159.538 489.116 Q157.64 487.334 154.283 487.334 M149.607 485.343 Q146.598 484.602 144.908 482.542 Q143.241 480.482 143.241 477.519 Q143.241 473.376 146.181 470.968 Q149.144 468.561 154.283 468.561 Q159.445 468.561 162.385 470.968 Q165.325 473.376 165.325 477.519 Q165.325 480.482 163.635 482.542 Q161.968 484.602 158.982 485.343 Q162.362 486.13 164.237 488.422 Q166.135 490.714 166.135 494.024 Q166.135 499.047 163.056 501.732 Q160.001 504.417 154.283 504.417 Q148.566 504.417 145.487 501.732 Q142.431 499.047 142.431 494.024 Q142.431 490.714 144.329 488.422 Q146.228 486.13 149.607 485.343 M147.894 477.959 Q147.894 480.644 149.561 482.149 Q151.251 483.653 154.283 483.653 Q157.292 483.653 158.982 482.149 Q160.695 480.644 160.695 477.959 Q160.695 475.274 158.982 473.769 Q157.292 472.265 154.283 472.265 Q151.251 472.265 149.561 473.769 Q147.894 475.274 147.894 477.959 Z" fill="#000000" fill-rule="nonzero" fill-opacity="1" /><path clip-path="url(#clip390)" d="M184.445 472.265 Q180.834 472.265 179.005 475.829 Q177.2 479.371 177.2 486.501 Q177.2 493.607 179.005 497.172 Q180.834 500.713 184.445 500.713 Q188.079 500.713 189.885 497.172 Q191.713 493.607 191.713 486.501 Q191.713 479.371 189.885 475.829 Q188.079 472.265 184.445 472.265 M184.445 468.561 Q190.255 468.561 193.311 473.167 Q196.389 477.751 196.389 486.501 Q196.389 495.227 193.311 499.834 Q190.255 504.417 184.445 504.417 Q178.635 504.417 175.556 499.834 Q172.501 495.227 172.501 486.501 Q172.501 477.751 175.556 473.167 Q178.635 468.561 184.445 468.561 Z" fill="#000000" fill-rule="nonzero" fill-opacity="1" /><path clip-path="url(#clip390)" d="M114.931 248.031 L122.57 248.031 L122.57 221.665 L114.26 223.332 L114.26 219.073 L122.524 217.406 L127.2 217.406 L127.2 248.031 L134.839 248.031 L134.839 251.966 L114.931 251.966 L114.931 248.031 Z" fill="#000000" fill-rule="nonzero" fill-opacity="1" /><path clip-path="url(#clip390)" d="M154.283 220.485 Q150.672 220.485 148.843 224.049 Q147.038 227.591 147.038 234.721 Q147.038 241.827 148.843 245.392 Q150.672 248.934 154.283 248.934 Q157.917 248.934 159.723 245.392 Q161.552 241.827 161.552 234.721 Q161.552 227.591 159.723 224.049 Q157.917 220.485 154.283 220.485 M154.283 216.781 Q160.093 216.781 163.149 221.387 Q166.227 225.971 166.227 234.721 Q166.227 243.447 163.149 248.054 Q160.093 252.637 154.283 252.637 Q148.473 252.637 145.394 248.054 Q142.339 243.447 142.339 234.721 Q142.339 225.971 145.394 221.387 Q148.473 216.781 154.283 216.781 Z" fill="#000000" fill-rule="nonzero" fill-opacity="1" /><path clip-path="url(#clip390)" d="M184.445 220.485 Q180.834 220.485 179.005 224.049 Q177.2 227.591 177.2 234.721 Q177.2 241.827 179.005 245.392 Q180.834 248.934 184.445 248.934 Q188.079 248.934 189.885 245.392 Q191.713 241.827 191.713 234.721 Q191.713 227.591 189.885 224.049 Q188.079 220.485 184.445 220.485 M184.445 216.781 Q190.255 216.781 193.311 221.387 Q196.389 225.971 196.389 234.721 Q196.389 243.447 193.311 248.054 Q190.255 252.637 184.445 252.637 Q178.635 252.637 175.556 248.054 Q172.501 243.447 172.501 234.721 Q172.501 225.971 175.556 221.387 Q178.635 216.781 184.445 216.781 Z" fill="#000000" fill-rule="nonzero" fill-opacity="1" /><path clip-path="url(#clip390)" d="M16.4842 755.248 L16.4842 748.341 L36.0269 735.164 L16.4842 722.083 L16.4842 715.176 L41.3741 731.981 L64.0042 731.981 L64.0042 738.443 L41.3741 738.443 L16.4842 755.248 Z" fill="#000000" fill-rule="nonzero" fill-opacity="1" /><polyline clip-path="url(#clip392)" style="stroke:#009af9; stroke-linecap:round; stroke-linejoin:round; stroke-width:4; stroke-opacity:1; fill:none" points="292.4,1272.25 296.845,1289.21 301.29,1339.71 305.735,1293.98 310.181,1304.77 314.626,1332.61 319.071,1337.57 323.516,1270.27 327.961,1292.56 332.407,1289.35 336.852,1306.27 341.297,1246.16 345.742,1277.13 350.187,1297.36 354.633,1295.01 359.078,1279.85 363.523,1263.66 367.968,1261.54 372.414,1288.85 376.859,1282.5 381.304,1255.3 385.749,1268.28 390.194,1322.96 394.64,1286.55 399.085,1262.77 403.53,1314.12 407.975,1297.55 412.42,1286.32 416.866,1280.66 421.311,1303.22 425.756,1277.02 430.201,1280.31 434.647,1307.44 439.092,1312.88 443.537,1239.11 447.982,1218.48 452.427,1234.87 456.873,1260.88 461.318,1258.82 465.763,1225.86 470.208,1317.52 474.653,1239.23 479.099,1276.98 483.544,1261.82 487.989,1292.7 492.434,1235.55 496.88,1255.59 501.325,1244.79 505.77,1245.21 510.215,1239.25 514.66,1270.95 519.106,1243.89 523.551,1255.79 527.996,1287.98 532.441,1242.87 536.886,1250.01 541.332,1199.3 545.777,1221.03 550.222,1259.4 554.667,1281.94 559.112,1250.37 563.558,1234.77 568.003,1246.72 572.448,1251.75 576.893,1225.71 581.339,1227.72 585.784,1243.48 590.229,1274.46 594.674,1217.4 599.119,1268.22 603.565,1256.16 608.01,1210.83 612.455,1263.08 616.9,1196.54 621.345,1196.8 625.791,1238.25 630.236,1225.26 634.681,1243.87 639.126,1213.49 643.572,1187.56 648.017,1199.93 652.462,1194 656.907,1180.9 661.352,1128.34 665.798,1153.93 670.243,1130.78 674.688,1127.33 679.133,1104.06 683.578,1120.33 688.024,1124.41 692.469,1077.13 696.914,1064.17 701.359,1086.95 705.805,1063.59 710.25,1033.88 714.695,1061.5 719.14,1064.5 723.585,1042.56 728.031,1009.77 732.476,1021.73 736.921,993.862 741.366,1005.87 745.811,1017.05 750.257,1058.49 754.702,1098.27 759.147,1057.29 763.592,1027.59 768.038,1063.77 772.483,1077.37 776.928,1122.15 781.373,1135.36 785.818,1120.59 790.264,1157.6 794.709,1198.43 799.154,1176.67 803.599,1169.85 808.044,1212.58 812.49,1198.81 816.935,1204.85 821.38,1243.41 825.825,1227.09 830.27,1242.05 834.716,1212.35 839.161,1207.03 843.606,1261.51 848.051,1243.56 852.497,1307.24 856.942,1269.04 861.387,1273.03 865.832,1273.92 870.277,1283.34 874.723,1302.93 879.168,1347.33 883.613,1316.12 888.058,1312.03 892.503,1359.2 896.949,1279.96 901.394,1326.05 905.839,1293.94 910.284,1316.64 914.73,1334.71 919.175,1325.59 923.62,1308.37 928.065,1317.36 932.51,1326.17 936.956,1323.4 941.401,1310.29 945.846,1329.38 950.291,1336.09 954.736,1365.65 959.182,1322.17 963.627,1353.46 968.072,1303.26 972.517,1332.87 976.963,1384.24 981.408,1360.64 985.853,1336.2 990.298,1335.01 994.743,1338.11 999.189,1339.43 1003.63,1307.32 1008.08,1343.38 1012.52,1378.47 1016.97,1342.48 1021.41,1297.19 1025.86,1325.81 1030.31,1314.72 1034.75,1325.14 1039.2,1372.37 1043.64,1332.06 1048.09,1295.78 1052.53,1317.4 1056.98,1343 1061.42,1333.69 1065.87,1337.25 1070.31,1314.97 1074.76,1347.77 1079.2,1333.93 1083.65,1370.52 1088.09,1326.01 1092.54,1270.59 1096.98,1344.58 1101.43,1296.18 1105.87,1374.05 1110.32,1283.66 1114.76,1325.54 1119.21,1309.5 1123.65,1283.06 1128.1,1266.2 1132.54,1280.18 1136.99,1285.97 1141.44,1201.49 1145.88,1098.32 1150.33,993.315 1154.77,874.719 1159.22,655.893 1163.66,494.586 1168.11,301.061 1172.55,181.721 1177,86.1857 1181.44,99.0722 1185.89,110.527 1190.33,159.383 1194.78,331.638 1199.22,516.97 1203.67,688.017 1208.11,835.156 1212.56,948.497 1217,1073.86 1221.45,1141.66 1225.89,1234.54 1230.34,1190.61 1234.78,1282.45 1239.23,1275.57 1243.68,1265.77 1248.12,1249 1252.57,1284.14 1257.01,1258.76 1261.46,1214.45 1265.9,1297.93 1270.35,1270.86 1274.79,1195.81 1279.24,1278.44 1283.68,1248.57 1288.13,1241.64 1292.57,1223.96 1297.02,1228.23 1301.46,1213.86 1305.91,1255.32 1310.35,1244.89 1314.8,1249.1 1319.24,1219.43 1323.69,1282.01 1328.13,1237.99 1332.58,1186.03 1337.02,1199.79 1341.47,1198.05 1345.92,1210.76 1350.36,1196.1 1354.81,1114.21 1359.25,1175.7 1363.7,1171.63 1368.14,1186.23 1372.59,1175.56 1377.03,1168.78 1381.48,1130.39 1385.92,1203.91 1390.37,1128.49 1394.81,1081.13 1399.26,1100.69 1403.7,1158.97 1408.15,1102.63 1412.59,1049.41 1417.04,1103.58 1421.48,1071.63 1425.93,1058.91 1430.37,1091.97 1434.82,1076.66 1439.26,1024.28 1443.71,1044.21 1448.16,1076.06 1452.6,987.403 1457.05,1027.11 1461.49,1054.72 1465.94,1029.02 1470.38,978.221 1474.83,994.973 1479.27,987.276 1483.72,949.999 1488.16,969.929 1492.61,901.116 1497.05,930.074 1501.5,881.345 1505.94,924.895 1510.39,910.38 1514.83,878.276 1519.28,866.887 1523.72,928.429 1528.17,876.154 1532.61,872.719 1537.06,897.934 1541.5,819.042 1545.95,794.936 1550.39,866.951 1554.84,826.347 1559.29,789.115 1563.73,830.43 1568.18,764.029 1572.62,745.728 1577.07,791.876 1581.51,746.523 1585.96,732.125 1590.4,723.156 1594.85,718.937 1599.29,803.944 1603.74,737.603 1608.18,734.403 1612.63,742.179 1617.07,759.963 1621.52,759.273 1625.96,723.232 1630.41,731.643 1634.85,736.65 1639.3,679.32 1643.74,703.485 1648.19,726.498 1652.63,709.755 1657.08,733.689 1661.53,690.651 1665.97,691.174 1670.42,650.419 1674.86,687.653 1679.31,716.188 1683.75,683.921 1688.2,724.084 1692.64,706.399 1697.09,728.642 1701.53,687.722 1705.98,732.076 1710.42,717.334 1714.87,696.091 1719.31,751.499 1723.76,723.903 1728.2,725.954 1732.65,743.788 1737.09,712.199 1741.54,731.847 1745.98,796.916 1750.43,785.417 1754.87,793.497 1759.32,769.652 1763.77,771.567 1768.21,772.803 1772.66,796.818 1777.1,773.52 1781.55,815.218 1785.99,772.88 1790.44,813.071 1794.88,732.806 1799.33,799.822 1803.77,869.076 1808.22,778.052 1812.66,842.872 1817.11,837.528 1821.55,844.474 1826,820.722 1830.44,829.091 1834.89,870.633 1839.33,789.362 1843.78,830.003 1848.22,858.937 1852.67,847.245 1857.11,837.849 1861.56,852.24 1866.01,803.632 1870.45,829.092 1874.9,804.697 1879.34,852.302 1883.79,829.435 1888.23,806.547 1892.68,844.373 1897.12,825.4 1901.57,857.908 1906.01,796.153 1910.46,842.608 1914.9,832.747 1919.35,890.968 1923.79,841.963 1928.24,825.716 1932.68,859.112 1937.13,877.167 1941.57,853.968 1946.02,874.659 1950.46,856.008 1954.91,844.879 1959.35,822.181 1963.8,855.267 1968.24,843.265 1972.69,833.287 1977.14,891.559 1981.58,870.634 1986.03,845.144 1990.47,839.557 1994.92,865.535 1999.36,861.88 2003.81,860.05 2008.25,862.616 2012.7,859.399 2017.14,900.78 2021.59,850.167 2026.03,835.86 2030.48,891.5 2034.92,878.805 2039.37,843.454 2043.81,899.327 2048.26,867.187 2052.7,821.942 2057.15,918.974 2061.59,800.193 2066.04,569.36 2070.48,224.291 2074.93,496.024 2079.38,776.802 2083.82,757.781 2088.27,771.157 2092.71,673.281 2097.16,693.755 2101.6,597.04 2106.05,524.654 2110.49,502.975 2114.94,490.912 2119.38,494.566 2123.83,602.077 2128.27,652.14 2132.72,632.261 2137.16,703.07 2141.61,689.089 2146.05,780.494 2150.5,844.778 2154.94,881.064 2159.39,898.814 2163.83,880.408 2168.28,858.609 2172.72,911.104 2177.17,889.199 2181.62,916.78 2186.06,920.05 2190.51,848.038 2194.95,896.447 2199.4,891.347 2203.84,896.695 2208.29,864.543 2212.73,944.633 2217.18,925.026 2221.62,905.331 2226.07,955.022 2230.51,877.105 2234.96,929.201 2239.4,937.815 2243.85,928.968 2248.29,936.947 2252.74,879.157 2257.18,914.404 2261.63,955.592 2266.07,916.511 2270.52,995.9 2274.96,916.823 2279.41,906.009 2283.86,915.749 2288.3,915.75 2292.75,963.291 "/>
<path clip-path="url(#clip390)" d="M303.068 196.789 L648.322 196.789 L648.322 93.1086 L303.068 93.1086  Z" fill="#ffffff" fill-rule="evenodd" fill-opacity="1"/>
<polyline clip-path="url(#clip390)" style="stroke:#000000; stroke-linecap:round; stroke-linejoin:round; stroke-width:4; stroke-opacity:1; fill:none" points="303.068,196.789 648.322,196.789 648.322,93.1086 303.068,93.1086 303.068,196.789 "/>
<polyline clip-path="url(#clip390)" style="stroke:#009af9; stroke-linecap:round; stroke-linejoin:round; stroke-width:4; stroke-opacity:1; fill:none" points="326.628,144.949 467.986,144.949 "/>
<path clip-path="url(#clip390)" d="M509.971 137.067 L509.971 141.094 Q508.166 140.169 506.221 139.706 Q504.277 139.243 502.193 139.243 Q499.022 139.243 497.425 140.215 Q495.851 141.187 495.851 143.131 Q495.851 144.613 496.985 145.469 Q498.119 146.303 501.545 147.067 L503.004 147.391 Q507.541 148.363 509.439 150.145 Q511.36 151.905 511.36 155.076 Q511.36 158.687 508.49 160.793 Q505.642 162.9 500.642 162.9 Q498.559 162.9 496.291 162.483 Q494.045 162.09 491.545 161.28 L491.545 156.881 Q493.906 158.108 496.198 158.733 Q498.49 159.335 500.735 159.335 Q503.744 159.335 505.365 158.317 Q506.985 157.275 506.985 155.4 Q506.985 153.664 505.804 152.738 Q504.647 151.812 500.689 150.956 L499.207 150.608 Q495.249 149.775 493.49 148.062 Q491.73 146.326 491.73 143.317 Q491.73 139.659 494.323 137.669 Q496.916 135.678 501.684 135.678 Q504.045 135.678 506.129 136.025 Q508.212 136.372 509.971 137.067 Z" fill="#000000" fill-rule="nonzero" fill-opacity="1" /><path clip-path="url(#clip390)" d="M518.142 136.303 L522.402 136.303 L522.402 162.229 L518.142 162.229 L518.142 136.303 M518.142 126.21 L522.402 126.21 L522.402 131.604 L518.142 131.604 L518.142 126.21 Z" fill="#000000" fill-rule="nonzero" fill-opacity="1" /><path clip-path="url(#clip390)" d="M548.374 148.965 Q548.374 144.335 546.452 141.789 Q544.554 139.243 541.105 139.243 Q537.679 139.243 535.758 141.789 Q533.86 144.335 533.86 148.965 Q533.86 153.571 535.758 156.118 Q537.679 158.664 541.105 158.664 Q544.554 158.664 546.452 156.118 Q548.374 153.571 548.374 148.965 M552.633 159.011 Q552.633 165.631 549.693 168.849 Q546.753 172.09 540.689 172.09 Q538.443 172.09 536.452 171.742 Q534.462 171.418 532.587 170.724 L532.587 166.58 Q534.462 167.599 536.29 168.085 Q538.119 168.571 540.017 168.571 Q544.207 168.571 546.29 166.372 Q548.374 164.196 548.374 159.775 L548.374 157.668 Q547.054 159.96 544.994 161.094 Q542.934 162.229 540.064 162.229 Q535.295 162.229 532.378 158.594 Q529.462 154.96 529.462 148.965 Q529.462 142.946 532.378 139.312 Q535.295 135.678 540.064 135.678 Q542.934 135.678 544.994 136.812 Q547.054 137.946 548.374 140.238 L548.374 136.303 L552.633 136.303 L552.633 159.011 Z" fill="#000000" fill-rule="nonzero" fill-opacity="1" /><path clip-path="url(#clip390)" d="M582.957 146.581 L582.957 162.229 L578.698 162.229 L578.698 146.719 Q578.698 143.039 577.262 141.21 Q575.827 139.382 572.957 139.382 Q569.508 139.382 567.517 141.581 Q565.526 143.78 565.526 147.576 L565.526 162.229 L561.244 162.229 L561.244 136.303 L565.526 136.303 L565.526 140.331 Q567.054 137.993 569.114 136.835 Q571.198 135.678 573.906 135.678 Q578.373 135.678 580.665 138.456 Q582.957 141.21 582.957 146.581 Z" fill="#000000" fill-rule="nonzero" fill-opacity="1" /><path clip-path="url(#clip390)" d="M603.234 149.196 Q598.072 149.196 596.082 150.377 Q594.091 151.557 594.091 154.405 Q594.091 156.673 595.572 158.016 Q597.077 159.335 599.647 159.335 Q603.188 159.335 605.318 156.835 Q607.471 154.312 607.471 150.145 L607.471 149.196 L603.234 149.196 M611.73 147.437 L611.73 162.229 L607.471 162.229 L607.471 158.293 Q606.012 160.655 603.836 161.789 Q601.66 162.9 598.512 162.9 Q594.531 162.9 592.17 160.678 Q589.832 158.432 589.832 154.682 Q589.832 150.307 592.748 148.085 Q595.688 145.863 601.498 145.863 L607.471 145.863 L607.471 145.446 Q607.471 142.507 605.526 140.909 Q603.605 139.289 600.109 139.289 Q597.887 139.289 595.781 139.821 Q593.674 140.354 591.73 141.419 L591.73 137.483 Q594.068 136.581 596.267 136.141 Q598.466 135.678 600.549 135.678 Q606.174 135.678 608.952 138.594 Q611.73 141.511 611.73 147.437 Z" fill="#000000" fill-rule="nonzero" fill-opacity="1" /><path clip-path="url(#clip390)" d="M620.503 126.21 L624.762 126.21 L624.762 162.229 L620.503 162.229 L620.503 126.21 Z" fill="#000000" fill-rule="nonzero" fill-opacity="1" /></svg>
