<?xml version="1.0" encoding="utf-8"?>
<svg xmlns="http://www.w3.org/2000/svg" xmlns:xlink="http://www.w3.org/1999/xlink" width="600" height="400" viewBox="0 0 2400 1600">
<defs>
  <clipPath id="clip540">
    <rect x="0" y="0" width="2400" height="1600"/>
  </clipPath>
</defs>
<path clip-path="url(#clip540)" d="M0 1600 L2400 1600 L2400 0 L0 0  Z" fill="#ffffff" fill-rule="evenodd" fill-opacity="1"/>
<defs>
  <clipPath id="clip541">
    <rect x="480" y="0" width="1681" height="1600"/>
  </clipPath>
</defs>
<path clip-path="url(#clip540)" d="M170.857 1486.45 L2352.76 1486.45 L2352.76 47.2441 L170.857 47.2441  Z" fill="#ffffff" fill-rule="evenodd" fill-opacity="1"/>
<defs>
  <clipPath id="clip542">
    <rect x="170" y="47" width="2183" height="1440"/>
  </clipPath>
</defs>
<polyline clip-path="url(#clip542)" style="stroke:#000000; stroke-linecap:round; stroke-linejoin:round; stroke-width:2; stroke-opacity:0.1; fill:none" points="231.7,1486.45 231.7,47.2441 "/>
<polyline clip-path="url(#clip542)" style="stroke:#000000; stroke-linecap:round; stroke-linejoin:round; stroke-width:2; stroke-opacity:0.1; fill:none" points="746.691,1486.45 746.691,47.2441 "/>
<polyline clip-path="url(#clip542)" style="stroke:#000000; stroke-linecap:round; stroke-linejoin:round; stroke-width:2; stroke-opacity:0.1; fill:none" points="1261.68,1486.45 1261.68,47.2441 "/>
<polyline clip-path="url(#clip542)" style="stroke:#000000; stroke-linecap:round; stroke-linejoin:round; stroke-width:2; stroke-opacity:0.1; fill:none" points="1776.67,1486.45 1776.67,47.2441 "/>
<polyline clip-path="url(#clip542)" style="stroke:#000000; stroke-linecap:round; stroke-linejoin:round; stroke-width:2; stroke-opacity:0.1; fill:none" points="2291.66,1486.45 2291.66,47.2441 "/>
<polyline clip-path="url(#clip542)" style="stroke:#000000; stroke-linecap:round; stroke-linejoin:round; stroke-width:2; stroke-opacity:0.1; fill:none" points="170.857,1440.77 2352.76,1440.77 "/>
<polyline clip-path="url(#clip542)" style="stroke:#000000; stroke-linecap:round; stroke-linejoin:round; stroke-width:2; stroke-opacity:0.1; fill:none" points="170.857,1170.22 2352.76,1170.22 "/>
<polyline clip-path="url(#clip542)" style="stroke:#000000; stroke-linecap:round; stroke-linejoin:round; stroke-width:2; stroke-opacity:0.1; fill:none" points="170.857,899.655 2352.76,899.655 "/>
<polyline clip-path="url(#clip542)" style="stroke:#000000; stroke-linecap:round; stroke-linejoin:round; stroke-width:2; stroke-opacity:0.1; fill:none" points="170.857,629.096 2352.76,629.096 "/>
<polyline clip-path="url(#clip542)" style="stroke:#000000; stroke-linecap:round; stroke-linejoin:round; stroke-width:2; stroke-opacity:0.1; fill:none" points="170.857,358.536 2352.76,358.536 "/>
<polyline clip-path="url(#clip542)" style="stroke:#000000; stroke-linecap:round; stroke-linejoin:round; stroke-width:2; stroke-opacity:0.1; fill:none" points="170.857,87.9763 2352.76,87.9763 "/>
<polyline clip-path="url(#clip540)" style="stroke:#000000; stroke-linecap:round; stroke-linejoin:round; stroke-width:4; stroke-opacity:1; fill:none" points="170.857,1486.45 2352.76,1486.45 "/>
<polyline clip-path="url(#clip540)" style="stroke:#000000; stroke-linecap:round; stroke-linejoin:round; stroke-width:4; stroke-opacity:1; fill:none" points="231.7,1486.45 231.7,1467.55 "/>
<polyline clip-path="url(#clip540)" style="stroke:#000000; stroke-linecap:round; stroke-linejoin:round; stroke-width:4; stroke-opacity:1; fill:none" points="746.691,1486.45 746.691,1467.55 "/>
<polyline clip-path="url(#clip540)" style="stroke:#000000; stroke-linecap:round; stroke-linejoin:round; stroke-width:4; stroke-opacity:1; fill:none" points="1261.68,1486.45 1261.68,1467.55 "/>
<polyline clip-path="url(#clip540)" style="stroke:#000000; stroke-linecap:round; stroke-linejoin:round; stroke-width:4; stroke-opacity:1; fill:none" points="1776.67,1486.45 1776.67,1467.55 "/>
<polyline clip-path="url(#clip540)" style="stroke:#000000; stroke-linecap:round; stroke-linejoin:round; stroke-width:4; stroke-opacity:1; fill:none" points="2291.66,1486.45 2291.66,1467.55 "/>
<path clip-path="url(#clip540)" d="M231.7 1517.37 Q228.089 1517.37 226.26 1520.93 Q224.455 1524.47 224.455 1531.6 Q224.455 1538.71 226.26 1542.27 Q228.089 1545.82 231.7 1545.82 Q235.334 1545.82 237.14 1542.27 Q238.968 1538.71 238.968 1531.6 Q238.968 1524.47 237.14 1520.93 Q235.334 1517.37 231.7 1517.37 M231.7 1513.66 Q237.51 1513.66 240.566 1518.27 Q243.644 1522.85 243.644 1531.6 Q243.644 1540.33 240.566 1544.94 Q237.51 1549.52 231.7 1549.52 Q225.89 1549.52 222.811 1544.94 Q219.756 1540.33 219.756 1531.6 Q219.756 1522.85 222.811 1518.27 Q225.89 1513.66 231.7 1513.66 Z" fill="#000000" fill-rule="nonzero" fill-opacity="1" /><path clip-path="url(#clip540)" d="M725.962 1544.91 L742.281 1544.91 L742.281 1548.85 L720.337 1548.85 L720.337 1544.91 Q722.999 1542.16 727.582 1537.53 Q732.189 1532.88 733.369 1531.53 Q735.615 1529.01 736.494 1527.27 Q737.397 1525.51 737.397 1523.82 Q737.397 1521.07 735.453 1519.33 Q733.531 1517.6 730.43 1517.6 Q728.231 1517.6 725.777 1518.36 Q723.346 1519.13 720.569 1520.68 L720.569 1515.95 Q723.393 1514.82 725.846 1514.24 Q728.3 1513.66 730.337 1513.66 Q735.707 1513.66 738.902 1516.35 Q742.096 1519.03 742.096 1523.52 Q742.096 1525.65 741.286 1527.57 Q740.499 1529.47 738.393 1532.07 Q737.814 1532.74 734.712 1535.95 Q731.61 1539.15 725.962 1544.91 Z" fill="#000000" fill-rule="nonzero" fill-opacity="1" /><path clip-path="url(#clip540)" d="M752.142 1514.29 L770.499 1514.29 L770.499 1518.22 L756.425 1518.22 L756.425 1526.7 Q757.443 1526.35 758.462 1526.19 Q759.48 1526 760.499 1526 Q766.286 1526 769.666 1529.17 Q773.045 1532.34 773.045 1537.76 Q773.045 1543.34 769.573 1546.44 Q766.101 1549.52 759.781 1549.52 Q757.605 1549.52 755.337 1549.15 Q753.092 1548.78 750.684 1548.04 L750.684 1543.34 Q752.767 1544.47 754.99 1545.03 Q757.212 1545.58 759.689 1545.58 Q763.693 1545.58 766.031 1543.48 Q768.369 1541.37 768.369 1537.76 Q768.369 1534.15 766.031 1532.04 Q763.693 1529.94 759.689 1529.94 Q757.814 1529.94 755.939 1530.35 Q754.087 1530.77 752.142 1531.65 L752.142 1514.29 Z" fill="#000000" fill-rule="nonzero" fill-opacity="1" /><path clip-path="url(#clip540)" d="M1236.38 1514.29 L1254.74 1514.29 L1254.74 1518.22 L1240.66 1518.22 L1240.66 1526.7 Q1241.68 1526.35 1242.7 1526.19 Q1243.72 1526 1244.74 1526 Q1250.52 1526 1253.9 1529.17 Q1257.28 1532.34 1257.28 1537.76 Q1257.28 1543.34 1253.81 1546.44 Q1250.34 1549.52 1244.02 1549.52 Q1241.84 1549.52 1239.58 1549.15 Q1237.33 1548.78 1234.92 1548.04 L1234.92 1543.34 Q1237.01 1544.47 1239.23 1545.03 Q1241.45 1545.58 1243.93 1545.58 Q1247.93 1545.58 1250.27 1543.48 Q1252.61 1541.37 1252.61 1537.76 Q1252.61 1534.15 1250.27 1532.04 Q1247.93 1529.94 1243.93 1529.94 Q1242.05 1529.94 1240.18 1530.35 Q1238.33 1530.77 1236.38 1531.65 L1236.38 1514.29 Z" fill="#000000" fill-rule="nonzero" fill-opacity="1" /><path clip-path="url(#clip540)" d="M1276.5 1517.37 Q1272.89 1517.37 1271.06 1520.93 Q1269.25 1524.47 1269.25 1531.6 Q1269.25 1538.71 1271.06 1542.27 Q1272.89 1545.82 1276.5 1545.82 Q1280.13 1545.82 1281.94 1542.27 Q1283.77 1538.71 1283.77 1531.6 Q1283.77 1524.47 1281.94 1520.93 Q1280.13 1517.37 1276.5 1517.37 M1276.5 1513.66 Q1282.31 1513.66 1285.36 1518.27 Q1288.44 1522.85 1288.44 1531.6 Q1288.44 1540.33 1285.36 1544.94 Q1282.31 1549.52 1276.5 1549.52 Q1270.69 1549.52 1267.61 1544.94 Q1264.55 1540.33 1264.55 1531.6 Q1264.55 1522.85 1267.61 1518.27 Q1270.69 1513.66 1276.5 1513.66 Z" fill="#000000" fill-rule="nonzero" fill-opacity="1" /><path clip-path="url(#clip540)" d="M1750.53 1514.29 L1772.75 1514.29 L1772.75 1516.28 L1760.2 1548.85 L1755.32 1548.85 L1767.12 1518.22 L1750.53 1518.22 L1750.53 1514.29 Z" fill="#000000" fill-rule="nonzero" fill-opacity="1" /><path clip-path="url(#clip540)" d="M1781.92 1514.29 L1800.27 1514.29 L1800.27 1518.22 L1786.2 1518.22 L1786.2 1526.7 Q1787.22 1526.35 1788.24 1526.19 Q1789.25 1526 1790.27 1526 Q1796.06 1526 1799.44 1529.17 Q1802.82 1532.34 1802.82 1537.76 Q1802.82 1543.34 1799.35 1546.44 Q1795.87 1549.52 1789.56 1549.52 Q1787.38 1549.52 1785.11 1549.15 Q1782.87 1548.78 1780.46 1548.04 L1780.46 1543.34 Q1782.54 1544.47 1784.76 1545.03 Q1786.99 1545.58 1789.46 1545.58 Q1793.47 1545.58 1795.81 1543.48 Q1798.14 1541.37 1798.14 1537.76 Q1798.14 1534.15 1795.81 1532.04 Q1793.47 1529.94 1789.46 1529.94 Q1787.59 1529.94 1785.71 1530.35 Q1783.86 1530.77 1781.92 1531.65 L1781.92 1514.29 Z" fill="#000000" fill-rule="nonzero" fill-opacity="1" /><path clip-path="url(#clip540)" d="M2251.27 1544.91 L2258.91 1544.91 L2258.91 1518.55 L2250.6 1520.21 L2250.6 1515.95 L2258.86 1514.29 L2263.54 1514.29 L2263.54 1544.91 L2271.18 1544.91 L2271.18 1548.85 L2251.27 1548.85 L2251.27 1544.91 Z" fill="#000000" fill-rule="nonzero" fill-opacity="1" /><path clip-path="url(#clip540)" d="M2290.62 1517.37 Q2287.01 1517.37 2285.18 1520.93 Q2283.38 1524.47 2283.38 1531.6 Q2283.38 1538.71 2285.18 1542.27 Q2287.01 1545.82 2290.62 1545.82 Q2294.26 1545.82 2296.06 1542.27 Q2297.89 1538.71 2297.89 1531.6 Q2297.89 1524.47 2296.06 1520.93 Q2294.26 1517.37 2290.62 1517.37 M2290.62 1513.66 Q2296.43 1513.66 2299.49 1518.27 Q2302.57 1522.85 2302.57 1531.6 Q2302.57 1540.33 2299.49 1544.94 Q2296.43 1549.52 2290.62 1549.52 Q2284.81 1549.52 2281.73 1544.94 Q2278.68 1540.33 2278.68 1531.6 Q2278.68 1522.85 2281.73 1518.27 Q2284.81 1513.66 2290.62 1513.66 Z" fill="#000000" fill-rule="nonzero" fill-opacity="1" /><path clip-path="url(#clip540)" d="M2320.78 1517.37 Q2317.17 1517.37 2315.35 1520.93 Q2313.54 1524.47 2313.54 1531.6 Q2313.54 1538.71 2315.35 1542.27 Q2317.17 1545.82 2320.78 1545.82 Q2324.42 1545.82 2326.22 1542.27 Q2328.05 1538.71 2328.05 1531.6 Q2328.05 1524.47 2326.22 1520.93 Q2324.42 1517.37 2320.78 1517.37 M2320.78 1513.66 Q2326.6 1513.66 2329.65 1518.27 Q2332.73 1522.85 2332.73 1531.6 Q2332.73 1540.33 2329.65 1544.94 Q2326.6 1549.52 2320.78 1549.52 Q2314.97 1549.52 2311.9 1544.94 Q2308.84 1540.33 2308.84 1531.6 Q2308.84 1522.85 2311.9 1518.27 Q2314.97 1513.66 2320.78 1513.66 Z" fill="#000000" fill-rule="nonzero" fill-opacity="1" /><polyline clip-path="url(#clip540)" style="stroke:#000000; stroke-linecap:round; stroke-linejoin:round; stroke-width:4; stroke-opacity:1; fill:none" points="170.857,1486.45 170.857,47.2441 "/>
<polyline clip-path="url(#clip540)" style="stroke:#000000; stroke-linecap:round; stroke-linejoin:round; stroke-width:4; stroke-opacity:1; fill:none" points="170.857,1440.77 189.755,1440.77 "/>
<polyline clip-path="url(#clip540)" style="stroke:#000000; stroke-linecap:round; stroke-linejoin:round; stroke-width:4; stroke-opacity:1; fill:none" points="170.857,1170.22 189.755,1170.22 "/>
<polyline clip-path="url(#clip540)" style="stroke:#000000; stroke-linecap:round; stroke-linejoin:round; stroke-width:4; stroke-opacity:1; fill:none" points="170.857,899.655 189.755,899.655 "/>
<polyline clip-path="url(#clip540)" style="stroke:#000000; stroke-linecap:round; stroke-linejoin:round; stroke-width:4; stroke-opacity:1; fill:none" points="170.857,629.096 189.755,629.096 "/>
<polyline clip-path="url(#clip540)" style="stroke:#000000; stroke-linecap:round; stroke-linejoin:round; stroke-width:4; stroke-opacity:1; fill:none" points="170.857,358.536 189.755,358.536 "/>
<polyline clip-path="url(#clip540)" style="stroke:#000000; stroke-linecap:round; stroke-linejoin:round; stroke-width:4; stroke-opacity:1; fill:none" points="170.857,87.9763 189.755,87.9763 "/>
<path clip-path="url(#clip540)" d="M122.913 1426.57 Q119.302 1426.57 117.473 1430.14 Q115.668 1433.68 115.668 1440.81 Q115.668 1447.92 117.473 1451.48 Q119.302 1455.02 122.913 1455.02 Q126.547 1455.02 128.353 1451.48 Q130.182 1447.92 130.182 1440.81 Q130.182 1433.68 128.353 1430.14 Q126.547 1426.57 122.913 1426.57 M122.913 1422.87 Q128.723 1422.87 131.779 1427.48 Q134.857 1432.06 134.857 1440.81 Q134.857 1449.54 131.779 1454.14 Q128.723 1458.73 122.913 1458.73 Q117.103 1458.73 114.024 1454.14 Q110.969 1449.54 110.969 1440.81 Q110.969 1432.06 114.024 1427.48 Q117.103 1422.87 122.913 1422.87 Z" fill="#000000" fill-rule="nonzero" fill-opacity="1" /><path clip-path="url(#clip540)" d="M82.7975 1152.94 L101.154 1152.94 L101.154 1156.87 L87.0799 1156.87 L87.0799 1165.34 Q88.0984 1165 89.1169 1164.83 Q90.1354 1164.65 91.1539 1164.65 Q96.941 1164.65 100.321 1167.82 Q103.7 1170.99 103.7 1176.41 Q103.7 1181.99 100.228 1185.09 Q96.7558 1188.17 90.4364 1188.17 Q88.2604 1188.17 85.9919 1187.8 Q83.7466 1187.43 81.3392 1186.68 L81.3392 1181.99 Q83.4225 1183.12 85.6447 1183.68 Q87.8669 1184.23 90.3438 1184.23 Q94.3484 1184.23 96.6863 1182.12 Q99.0243 1180.02 99.0243 1176.41 Q99.0243 1172.8 96.6863 1170.69 Q94.3484 1168.58 90.3438 1168.58 Q88.4688 1168.58 86.5938 1169 Q84.7419 1169.42 82.7975 1170.3 L82.7975 1152.94 Z" fill="#000000" fill-rule="nonzero" fill-opacity="1" /><path clip-path="url(#clip540)" d="M122.913 1156.01 Q119.302 1156.01 117.473 1159.58 Q115.668 1163.12 115.668 1170.25 Q115.668 1177.36 117.473 1180.92 Q119.302 1184.46 122.913 1184.46 Q126.547 1184.46 128.353 1180.92 Q130.182 1177.36 130.182 1170.25 Q130.182 1163.12 128.353 1159.58 Q126.547 1156.01 122.913 1156.01 M122.913 1152.31 Q128.723 1152.31 131.779 1156.92 Q134.857 1161.5 134.857 1170.25 Q134.857 1178.98 131.779 1183.58 Q128.723 1188.17 122.913 1188.17 Q117.103 1188.17 114.024 1183.58 Q110.969 1178.98 110.969 1170.25 Q110.969 1161.5 114.024 1156.92 Q117.103 1152.31 122.913 1152.31 Z" fill="#000000" fill-rule="nonzero" fill-opacity="1" /><path clip-path="url(#clip540)" d="M53.3995 913 L61.0384 913 L61.0384 886.635 L52.7282 888.301 L52.7282 884.042 L60.9921 882.375 L65.668 882.375 L65.668 913 L73.3068 913 L73.3068 916.935 L53.3995 916.935 L53.3995 913 Z" fill="#000000" fill-rule="nonzero" fill-opacity="1" /><path clip-path="url(#clip540)" d="M92.7512 885.454 Q89.1401 885.454 87.3114 889.019 Q85.5058 892.56 85.5058 899.69 Q85.5058 906.797 87.3114 910.361 Q89.1401 913.903 92.7512 913.903 Q96.3854 913.903 98.1909 910.361 Q100.02 906.797 100.02 899.69 Q100.02 892.56 98.1909 889.019 Q96.3854 885.454 92.7512 885.454 M92.7512 881.75 Q98.5613 881.75 101.617 886.357 Q104.696 890.94 104.696 899.69 Q104.696 908.417 101.617 913.023 Q98.5613 917.607 92.7512 917.607 Q86.941 917.607 83.8623 913.023 Q80.8068 908.417 80.8068 899.69 Q80.8068 890.94 83.8623 886.357 Q86.941 881.75 92.7512 881.75 Z" fill="#000000" fill-rule="nonzero" fill-opacity="1" /><path clip-path="url(#clip540)" d="M122.913 885.454 Q119.302 885.454 117.473 889.019 Q115.668 892.56 115.668 899.69 Q115.668 906.797 117.473 910.361 Q119.302 913.903 122.913 913.903 Q126.547 913.903 128.353 910.361 Q130.182 906.797 130.182 899.69 Q130.182 892.56 128.353 889.019 Q126.547 885.454 122.913 885.454 M122.913 881.75 Q128.723 881.75 131.779 886.357 Q134.857 890.94 134.857 899.69 Q134.857 908.417 131.779 913.023 Q128.723 917.607 122.913 917.607 Q117.103 917.607 114.024 913.023 Q110.969 908.417 110.969 899.69 Q110.969 890.94 114.024 886.357 Q117.103 881.75 122.913 881.75 Z" fill="#000000" fill-rule="nonzero" fill-opacity="1" /><path clip-path="url(#clip540)" d="M53.3995 642.44 L61.0384 642.44 L61.0384 616.075 L52.7282 617.742 L52.7282 613.482 L60.9921 611.816 L65.668 611.816 L65.668 642.44 L73.3068 642.44 L73.3068 646.376 L53.3995 646.376 L53.3995 642.44 Z" fill="#000000" fill-rule="nonzero" fill-opacity="1" /><path clip-path="url(#clip540)" d="M82.7975 611.816 L101.154 611.816 L101.154 615.751 L87.0799 615.751 L87.0799 624.223 Q88.0984 623.876 89.1169 623.714 Q90.1354 623.529 91.1539 623.529 Q96.941 623.529 100.321 626.7 Q103.7 629.871 103.7 635.288 Q103.7 640.866 100.228 643.968 Q96.7558 647.047 90.4364 647.047 Q88.2604 647.047 85.9919 646.677 Q83.7466 646.306 81.3392 645.565 L81.3392 640.866 Q83.4225 642.001 85.6447 642.556 Q87.8669 643.112 90.3438 643.112 Q94.3484 643.112 96.6863 641.005 Q99.0243 638.899 99.0243 635.288 Q99.0243 631.677 96.6863 629.57 Q94.3484 627.464 90.3438 627.464 Q88.4688 627.464 86.5938 627.88 Q84.7419 628.297 82.7975 629.177 L82.7975 611.816 Z" fill="#000000" fill-rule="nonzero" fill-opacity="1" /><path clip-path="url(#clip540)" d="M122.913 614.894 Q119.302 614.894 117.473 618.459 Q115.668 622.001 115.668 629.13 Q115.668 636.237 117.473 639.802 Q119.302 643.343 122.913 643.343 Q126.547 643.343 128.353 639.802 Q130.182 636.237 130.182 629.13 Q130.182 622.001 128.353 618.459 Q126.547 614.894 122.913 614.894 M122.913 611.191 Q128.723 611.191 131.779 615.797 Q134.857 620.38 134.857 629.13 Q134.857 637.857 131.779 642.464 Q128.723 647.047 122.913 647.047 Q117.103 647.047 114.024 642.464 Q110.969 637.857 110.969 629.13 Q110.969 620.38 114.024 615.797 Q117.103 611.191 122.913 611.191 Z" fill="#000000" fill-rule="nonzero" fill-opacity="1" /><path clip-path="url(#clip540)" d="M56.6171 371.881 L72.9365 371.881 L72.9365 375.816 L50.9921 375.816 L50.9921 371.881 Q53.6541 369.126 58.2375 364.497 Q62.8439 359.844 64.0245 358.501 Q66.2698 355.978 67.1494 354.242 Q68.0522 352.483 68.0522 350.793 Q68.0522 348.038 66.1078 346.302 Q64.1865 344.566 61.0847 344.566 Q58.8856 344.566 56.4319 345.33 Q54.0014 346.094 51.2236 347.645 L51.2236 342.923 Q54.0477 341.788 56.5014 341.21 Q58.955 340.631 60.9921 340.631 Q66.3624 340.631 69.5568 343.316 Q72.7513 346.001 72.7513 350.492 Q72.7513 352.622 71.9411 354.543 Q71.1541 356.441 69.0476 359.034 Q68.4689 359.705 65.367 362.923 Q62.2652 366.117 56.6171 371.881 Z" fill="#000000" fill-rule="nonzero" fill-opacity="1" /><path clip-path="url(#clip540)" d="M92.7512 344.335 Q89.1401 344.335 87.3114 347.899 Q85.5058 351.441 85.5058 358.571 Q85.5058 365.677 87.3114 369.242 Q89.1401 372.784 92.7512 372.784 Q96.3854 372.784 98.1909 369.242 Q100.02 365.677 100.02 358.571 Q100.02 351.441 98.1909 347.899 Q96.3854 344.335 92.7512 344.335 M92.7512 340.631 Q98.5613 340.631 101.617 345.237 Q104.696 349.821 104.696 358.571 Q104.696 367.297 101.617 371.904 Q98.5613 376.487 92.7512 376.487 Q86.941 376.487 83.8623 371.904 Q80.8068 367.297 80.8068 358.571 Q80.8068 349.821 83.8623 345.237 Q86.941 340.631 92.7512 340.631 Z" fill="#000000" fill-rule="nonzero" fill-opacity="1" /><path clip-path="url(#clip540)" d="M122.913 344.335 Q119.302 344.335 117.473 347.899 Q115.668 351.441 115.668 358.571 Q115.668 365.677 117.473 369.242 Q119.302 372.784 122.913 372.784 Q126.547 372.784 128.353 369.242 Q130.182 365.677 130.182 358.571 Q130.182 351.441 128.353 347.899 Q126.547 344.335 122.913 344.335 M122.913 340.631 Q128.723 340.631 131.779 345.237 Q134.857 349.821 134.857 358.571 Q134.857 367.297 131.779 371.904 Q128.723 376.487 122.913 376.487 Q117.103 376.487 114.024 371.904 Q110.969 367.297 110.969 358.571 Q110.969 349.821 114.024 345.237 Q117.103 340.631 122.913 340.631 Z" fill="#000000" fill-rule="nonzero" fill-opacity="1" /><path clip-path="url(#clip540)" d="M56.6171 101.321 L72.9365 101.321 L72.9365 105.256 L50.9921 105.256 L50.9921 101.321 Q53.6541 98.5665 58.2375 93.9369 Q62.8439 89.2841 64.0245 87.9416 Q66.2698 85.4184 67.1494 83.6823 Q68.0522 81.9231 68.0522 80.2333 Q68.0522 77.4786 66.1078 75.7425 Q64.1865 74.0064 61.0847 74.0064 Q58.8856 74.0064 56.4319 74.7703 Q54.0014 75.5342 51.2236 77.0851 L51.2236 72.3629 Q54.0477 71.2287 56.5014 70.65 Q58.955 70.0713 60.9921 70.0713 Q66.3624 70.0713 69.5568 72.7565 Q72.7513 75.4416 72.7513 79.9323 Q72.7513 82.062 71.9411 83.9832 Q71.1541 85.8814 69.0476 88.474 Q68.4689 89.1453 65.367 92.3628 Q62.2652 95.5573 56.6171 101.321 Z" fill="#000000" fill-rule="nonzero" fill-opacity="1" /><path clip-path="url(#clip540)" d="M82.7975 70.6963 L101.154 70.6963 L101.154 74.6314 L87.0799 74.6314 L87.0799 83.1036 Q88.0984 82.7564 89.1169 82.5944 Q90.1354 82.4092 91.1539 82.4092 Q96.941 82.4092 100.321 85.5805 Q103.7 88.7517 103.7 94.1684 Q103.7 99.747 100.228 102.849 Q96.7558 105.928 90.4364 105.928 Q88.2604 105.928 85.9919 105.557 Q83.7466 105.187 81.3392 104.446 L81.3392 99.747 Q83.4225 100.881 85.6447 101.437 Q87.8669 101.992 90.3438 101.992 Q94.3484 101.992 96.6863 99.8859 Q99.0243 97.7795 99.0243 94.1684 Q99.0243 90.5573 96.6863 88.4508 Q94.3484 86.3443 90.3438 86.3443 Q88.4688 86.3443 86.5938 86.761 Q84.7419 87.1777 82.7975 88.0573 L82.7975 70.6963 Z" fill="#000000" fill-rule="nonzero" fill-opacity="1" /><path clip-path="url(#clip540)" d="M122.913 73.775 Q119.302 73.775 117.473 77.3398 Q115.668 80.8814 115.668 88.011 Q115.668 95.1174 117.473 98.6822 Q119.302 102.224 122.913 102.224 Q126.547 102.224 128.353 98.6822 Q130.182 95.1174 130.182 88.011 Q130.182 80.8814 128.353 77.3398 Q126.547 73.775 122.913 73.775 M122.913 70.0713 Q128.723 70.0713 131.779 74.6777 Q134.857 79.261 134.857 88.011 Q134.857 96.7378 131.779 101.344 Q128.723 105.928 122.913 105.928 Q117.103 105.928 114.024 101.344 Q110.969 96.7378 110.969 88.011 Q110.969 79.261 114.024 74.6777 Q117.103 70.0713 122.913 70.0713 Z" fill="#000000" fill-rule="nonzero" fill-opacity="1" /><polyline clip-path="url(#clip542)" style="stroke:#009af9; stroke-linecap:round; stroke-linejoin:round; stroke-width:4; stroke-opacity:1; fill:none" points="232.609,1436.16 233.093,1442.61 233.64,1434.37 239.286,1440.98 242.171,1442.02 244.471,1440.82 247.377,1445.42 247.834,1442.34 250.475,1439.72 253.525,1441.03 254.082,1445.72 254.851,1439.42 258.662,1438.95 261.687,1438.71 262.003,1437.32 263.21,1440.92 263.212,1440.95 265.423,1442.8 268.524,1440.29 268.998,1441.52 270.965,1441.23 272.185,1441.19 275.432,1440.12 276.264,1442.78 277.462,1444.31 278.71,1442.27 285.626,1443.13 289.823,1444.69 292.36,1443.71 292.807,1440.2 297.858,1437.86 298.518,1437.84 299.12,1439.34 300.89,1438.03 308.383,1439.38 311.529,1440.24 313.617,1438.38 320.296,1435.62 320.77,1440.1 321.904,1440.98 322.868,1440.45 325.296,1442.15 327.858,1440.35 329.08,1442.34 329.579,1435.85 329.674,1437.03 334.264,1436.96 337.179,1436.78 337.979,1440.36 339.309,1441.94 340.954,1438.87 341.066,1440.65 342.282,1434.83 342.651,1441.7 343.262,1439.18 346.204,1439.42 348.852,1443.46 350.786,1440.78 353.442,1441.16 356.341,1434.4 358.779,1438.78 358.845,1437.33 358.962,1436.12 363.193,1434.97 369.057,1437.64 371.584,1436.98 372.251,1440.2 374.16,1438.23 375.664,1435.37 378.992,1438.36 379.945,1432.27 380.319,1442.53 381.051,1435.31 388.187,1437.64 390.748,1440.2 394.573,1438.67 397.111,1435.86 401.779,1439.3 404.037,1437.8 406.436,1440.76 406.687,1433.98 406.825,1439.65 410.029,1437.86 410.493,1436.09 414.802,1436.41 415.795,1436.71 416.428,1436.9 418.056,1433.82 419.268,1436.17 419.473,1432.85 420.479,1434.19 420.629,1435.71 423.269,1435.76 425.239,1436.36 429.136,1438 429.956,1436.03 433.632,1438.23 434.686,1438.53 436.087,1437.87 437.325,1440.36 437.994,1437.96 438.045,1437.75 442.455,1438.91 444.01,1438.35 445.182,1437.74 445.671,1436.55 445.856,1436.06 446.207,1444.71 447.398,1433.05 447.637,1440.2 452.732,1431.05 454.025,1437.24 454.784,1432.88 461.073,1434.07 464.432,1434.53 466.335,1430.65 467.323,1439.88 468.543,1432.38 472.188,1429.95 473.905,1436.48 474.046,1438.66 476.47,1437.25 476.859,1440 479.253,1435.32 479.304,1434.73 480.928,1435.1 481.375,1439.54 481.934,1435.87 482.591,1437.9 487.042,1434.39 488.067,1434.37 488.431,1433.92 489.347,1438.41 491.021,1437.18 494.311,1437.69 496.724,1432.36 497.11,1436.24 510.509,1436.94 511.831,1441.21 512.005,1433.16 512.955,1433.76 513.15,1435.24 515.712,1435.75 516.58,1433.4 520.913,1436.2 522.086,1433.61 526.282,1432.23 526.42,1429.44 532.499,1433.53 535.335,1439.54 535.852,1428.38 551.589,1435.6 561.367,1430.72 561.435,1437.88 561.588,1438.45 562.707,1436.11 564.027,1436.11 568.565,1431.76 569.994,1438.36 571.182,1436.7 571.303,1436.75 571.647,1434.66 574.138,1428.81 576.84,1435.52 582.16,1439.28 586.749,1434.23 586.844,1436.69 591.002,1432.62 593.035,1433.74 598.478,1433.25 600.044,1437.87 602.84,1432.47 603.184,1431.04 604.757,1438.69 606.221,1434.63 607.527,1431.17 608.264,1433.6 608.431,1432.39 608.971,1438.4 609.339,1429.1 609.856,1434.64 610.253,1433.52 619.464,1433.43 621.959,1435 623.001,1436.68 625.077,1437.06 629.785,1434.21 630.051,1431.82 632.083,1431.76 633.383,1433.82 636.562,1432.08 638.961,1430.57 643.575,1438.55 644.947,1429.97 650.187,1434.92 653.468,1430.81 658.467,1433.24 658.646,1433.54 663.835,1429.27 668.118,1432.28 670.242,1433.63 670.924,1433.63 673.794,1433.77 681.534,1431.24 682.134,1429.51 683.825,1429.75 684.159,1429.19 684.94,1434.03 685.014,1425.95 686.823,1425.82 687.33,1430.41 687.66,1435.26 689.344,1435.77 691.171,1431.77 693.326,1429.5 694.399,1425.98 695.909,1434.76 696.834,1431.91 699.742,1435.7 700.197,1433.17 700.326,1424.47 703.502,1428.51 704.337,1433.44 704.518,1433.93 705.398,1429.6 706.326,1430.76 707.318,1434.26 709.777,1430.98 712.317,1429.17 713.178,1430.45 713.403,1428.18 717.061,1430.55 721.324,1427.76 722.65,1434.05 726.935,1429.4 727.159,1425.06 731.396,1428.15 734.624,1429.89 734.986,1429.76 735.711,1432.62 738.663,1429.17 741.087,1438.21 744.87,1431.08 745.202,1430.7 750.914,1432.44 751.195,1427.77 754.378,1426.01 755.115,1429.7 755.629,1428.25 759.732,1429.89 762.051,1428.59 762.874,1426.53 765.352,1429.31 768.213,1430.79 769.006,1429.52 771.429,1430.25 772.883,1427.5 776.187,1431.47 776.474,1426.7 777.719,1429.12 779.387,1428.54 780.084,1430.52 780.484,1431.42 783.308,1430.6 789.892,1431.46 790.156,1427.19 790.39,1432.57 794.872,1425.93 797.754,1428.59 799.109,1425.66 806.832,1426.83 807.416,1420.82 808.023,1423.78 811.046,1421.52 811.355,1424.84 815.563,1422.57 818.71,1427.51 821.479,1426.07 822.896,1425.51 824.725,1431.74 825.26,1425.55 826.973,1427.13 827.458,1430.35 830.309,1423.89 830.673,1426.05 830.98,1425.77 834.384,1424.34 836.501,1430.07 838.846,1428.12 841.207,1428.1 841.427,1425.6 844.12,1422.42 845.091,1423.27 848.507,1418.58 850.749,1422.38 853.269,1424.01 855.325,1419.67 856.801,1421.99 859.157,1420.55 861.028,1426.52 864.169,1421.7 865.065,1425.65 865.285,1425.03 867.099,1422.85 875.012,1422.12 875.332,1417.87 875.486,1423.58 875.91,1422.65 878.001,1416.5 880.122,1421.85 881.101,1420.13 883.604,1415.32 884.798,1412.97 885.12,1418.15 885.601,1421.48 885.639,1415.14 887.155,1416.54 890.735,1414.84 892.848,1421.12 893.985,1416.6 896.395,1417.08 897.927,1415.88 902.423,1417.08 907.542,1416.58 908.067,1410.65 909.611,1413.44 909.714,1409.02 913.617,1414.61 916.116,1412.61 918.489,1405.34 921.544,1412.14 922.681,1410.04 922.695,1408.72 924.439,1409 926.607,1409.71 931.414,1401.87 933.221,1404.61 936.459,1403.5 937.469,1407.08 941.639,1404.46 942.933,1408.12 944.849,1399.24 947.78,1402.88 947.864,1404.67 948.238,1399.6 948.705,1399.69 949.353,1397.41 954.007,1397.13 964.848,1391.05 965.976,1388.86 966.505,1395.51 966.924,1384.87 967.056,1392.53 969.325,1393.63 969.897,1391.06 970.033,1387.62 972.123,1391.37 972.857,1395.64 973.364,1386.6 973.423,1389.95 973.908,1385.14 976.761,1393.91 979.026,1387.9 980.966,1384.89 981.083,1383.3 982.937,1390.49 984.732,1383.47 985.149,1387.25 993.192,1382.75 993.414,1382.54 995.009,1382.11 995.504,1385.23 997.411,1379.47 998.007,1382.09 1001.98,1379.58 1005.61,1377.34 1005.71,1380.31 1006.15,1377.88 1008.89,1378.85 1009.91,1373.21 1011.49,1387.79 1012.13,1379.06 1012.95,1374.85 1012.99,1378.52 1016.48,1375.72 1016.9,1374.44 1018.66,1370.65 1022.45,1373.9 1024.61,1375.26 1030.87,1371.32 1032.27,1367.46 1033.34,1370.07 1035.15,1368.22 1038.1,1374.74 1040.32,1370.37 1042.29,1368.92 1042.4,1371.35 1045.89,1371.6 1046.57,1368.24 1047.5,1367.3 1049.06,1367.01 1051.12,1372.85 1056.71,1375.04 1059.01,1370.87 1059.07,1369.74 1063,1368.36 1064.35,1366.34 1066.29,1372.25 1070.52,1369.68 1075.78,1373.16 1075.97,1369.38 1082.15,1372.61 1084.65,1370.65 1087.78,1372.57 1092.2,1373.95 1093.77,1371.89 1094.48,1374.96 1094.83,1378.72 1096.97,1374 1097.29,1377.07 1099.7,1377.14 1100.19,1372.93 1102.9,1376.86 1104.16,1377.72 1104.26,1378.9 1108.58,1377.57 1112.12,1376.43 1113.83,1382.34 1121.1,1386.42 1124.16,1380.72 1125.74,1382.76 1131.59,1387.03 1132.84,1384.31 1134.14,1385.99 1138.14,1385.48 1138.42,1387.24 1139.16,1387.18 1141.27,1387.27 1141.34,1385.38 1143.38,1385.57 1152.94,1389.24 1164.28,1394.03 1164.72,1400.07 1167.58,1395.99 1174.71,1397.2 1175.79,1394.77 1176.12,1394.54 1181.24,1396.43 1181.46,1403.56 1183.4,1398.41 1183.81,1400.32 1184.51,1400.25 1188.11,1407.42 1190.25,1404.2 1190.94,1403.24 1191.51,1405.97 1193.99,1399.92 1194.5,1401.57 1200.53,1409.09 1200.57,1409.62 1202.02,1408.39 1203.93,1408.94 1208.8,1410.05 1210.9,1411.71 1211.69,1407.83 1212.37,1410.37 1214.91,1410.7 1220.47,1408.8 1221.81,1406.47 1221.98,1405.63 1229,1415.54 1231.35,1413.35 1231.82,1415.04 1239.24,1413.74 1241.83,1415.19 1245.66,1413.83 1247.14,1414.35 1253.14,1416.45 1254.61,1413.69 1254.94,1420.58 1255.2,1412.43 1259.79,1415.14 1259.9,1412.79 1261.26,1414.12 1262.11,1414.2 1265.54,1419.24 1268.12,1415.57 1276.18,1414.89 1277.41,1417.75 1277.91,1413.4 1279.5,1416.38 1280.44,1416.68 1282.11,1417.64 1284.11,1411.36 1287.58,1416.08 1287.85,1418.27 1292.85,1418.26 1294.01,1411.22 1295.03,1415.67 1295.34,1418.18 1295.56,1419.43 1295.64,1417.64 1299.06,1416.96 1299.09,1417.62 1300.9,1414.78 1304.53,1419.48 1305.64,1418.7 1308.73,1415.85 1309.71,1420.02 1311.41,1413.17 1315.6,1423.06 1318.55,1418.37 1320.63,1418.31 1321.56,1420.87 1323.09,1415 1326.31,1419.05 1327.01,1415.83 1327.21,1417.84 1328.5,1418.27 1329.42,1419.53 1331.81,1417.82 1331.95,1417.05 1332.07,1418.71 1339.66,1417.31 1341.75,1419.99 1341.85,1415.46 1341.86,1413.88 1342.09,1419.56 1342.81,1418.29 1342.89,1413.24 1344.94,1416.24 1346.67,1414.23 1350.9,1420.94 1351.58,1419.13 1354.94,1418.9 1355.59,1420.26 1357.57,1416.21 1357.66,1414.2 1360.66,1416.32 1361.03,1416.01 1363.32,1413.45 1368.31,1415.05 1377.71,1417.15 1379.09,1410.03 1381.19,1416.46 1381.71,1415.79 1382.54,1419.35 1385.1,1414.58 1387.99,1416.39 1388.82,1411.85 1389.35,1416.36 1389.92,1414.34 1392.93,1415.73 1395.88,1416.17 1397.26,1422.12 1399.91,1420.95 1400.7,1414.39 1401.74,1417.1 1402.03,1415.5 1403.2,1419.24 1406.29,1413.98 1406.75,1417.76 1409.32,1411.61 1411.59,1414.74 1412.43,1413.18 1413.48,1416.73 1414.12,1418.15 1414.88,1417.59 1418.41,1419.49 1418.92,1417.74 1420.69,1414.08 1421.45,1415.61 1421.62,1411.5 1423.3,1420.07 1423.32,1417.31 1423.84,1414.41 1426.54,1417.84 1428.5,1416.11 1429.66,1416.14 1431.59,1413.5 1434.01,1416.81 1434.99,1417.78 1435.42,1411.56 1436.11,1414.91 1437.59,1415.97 1440.06,1415.66 1443.42,1422.4 1446.99,1411.68 1447.37,1416.16 1450.31,1414.41 1451.33,1413.92 1451.83,1416.33 1452.27,1416.38 1453.03,1417.71 1458.56,1413.38 1460.53,1415.38 1461.56,1415.68 1467.24,1417.25 1469.1,1412.01 1469.22,1413.86 1469.29,1411.26 1469.79,1416.33 1471.22,1417.85 1478.49,1415.86 1482.14,1410.05 1483.35,1417.51 1484.52,1416.04 1485.8,1415.13 1486.32,1413.63 1493.5,1409.94 1495.41,1416.01 1495.49,1412.65 1496.66,1417.13 1499.44,1413.91 1508.03,1414.42 1508.98,1409.21 1511.67,1410.75 1512.48,1413.37 1512.79,1412.48 1514.21,1416.45 1516.3,1413.85 1519.39,1407.3 1521.21,1414.03 1521.74,1413.4 1521.82,1408.96 1522.09,1412.48 1523.74,1412.32 1525.76,1413.67 1530.27,1412.32 1535.15,1411.96 1538.85,1415.42 1540.17,87.9763 1541.86,1409.55 1542.74,1418.17 1545.25,1411.42 1546.24,1415.17 1546.9,1412.02 1548.33,1416.43 1549,1407.84 1549.68,1412.4 1551.41,1408.28 1553.56,1411.38 1558.01,1413.03 1558.9,1414.45 1559.75,1410.83 1562,1414.38 1563.24,1408.44 1567.26,1413.87 1568.78,1408.42 1571.33,1414.26 1576.54,1414.12 1577.91,1415.72 1579.71,1411.44 1581.72,1413.43 1582.93,1413.14 1589.29,1417.13 1602.68,1409.31 1603.8,1410.74 1607.91,1414.11 1609.06,1410.03 1611.96,1412.36 1614.46,1409.74 1617.78,1411.48 1618.01,1411.23 1619.36,1411.37 1621.32,1412.53 1624.74,1404.34 1626.38,1416.1 1627.26,1411.82 1627.95,1411.12 1633.8,1409.99 1634.29,1411.16 1634.58,1417.3 1635.15,1409.95 1635.36,1408.48 1638.72,1411.59 1639.77,1414.01 1641.02,1409.96 1642.2,1408.8 1644.04,1411.41 1644.08,1405.84 1646.17,1411.76 1647.27,1412.07 1647.57,1411.78 1649.97,1409.23 1653.66,1406.74 1655.19,1412.09 1659.95,1416.92 1660.21,1408.94 1661.81,1408.49 1663.13,1408.92 1665.75,1413.66 1666.75,1411.55 1667.07,1410.42 1669.21,1411.71 1670.38,1407.44 1672.55,1410.71 1674.48,1409.27 1676.4,1410.49 1676.78,1411.46 1678.81,1409.57 1679.5,1415.65 1680.49,1410.08 1680.81,1417.59 1682.32,1411.05 1682.51,1404.02 1685.27,1407.03 1685.45,1412.3 1694.11,1411.32 1699.62,1410.48 1701.13,1414.64 1705.41,1403.49 1705.6,1407.85 1705.82,1409.79 1706.18,1409.97 1708.22,1409.31 1708.44,1412.62 1708.75,1407.33 1713.62,1408.04 1714.06,1408.54 1717.55,1409.37 1718.62,1405.99 1724.89,1409.94 1725.89,1411.19 1726.57,1407.28 1729.73,1411.19 1729.74,1406.08 1729.93,1410.28 1738.56,1407.62 1739.97,1410.26 1740.15,1409.71 1740.64,1407.51 1741.1,1406.36 1742.07,1410.26 1743.87,1412.7 1746.79,1410.27 1750.64,1412.17 1751.45,1407.99 1753.54,1409.78 1757.4,1408.09 1758.96,1405.14 1760.24,1408.69 1760.71,1411 1761.82,1405.53 1763.42,1405.51 1764.23,1404.73 1764.25,1409.39 1764.91,1403.81 1772.5,1406.99 1777.06,1406.42 1784.73,1406.01 1785.31,1409.18 1786.83,1405.12 1787.72,1409.37 1789.13,1408.75 1796.64,1404.91 1798.91,1405.09 1799.72,1407.71 1803.27,1405.77 1805.04,1408.23 1805.95,1410.19 1807.87,1411.67 1809.47,1411.63 1811.68,1407.02 1813.71,1403.56 1814.82,1406.62 1816.45,1403.69 1818.23,1409.82 1819.11,1406.13 1822.27,1404.66 1824.53,1412.04 1826.83,1407.54 1829.33,1402.83 1832.13,1412.47 1832.15,1407.71 1832.36,1406.42 1834.37,1401.34 1835.27,1406.28 1835.61,1398.51 1836.83,1404.57 1838.69,1408.04 1838.97,1405.98 1841.53,1403.08 1841.54,1411.6 1841.57,1405.39 1842.87,1410.21 1847.92,1402.86 1848.94,1411.45 1851.18,1407.39 1853.49,1408.43 1854.19,1413.01 1854.51,1408.81 1855.16,1408.09 1859.31,1405.13 1862.49,1406.78 1864.07,1402.56 1868.44,1403.06 1870.14,1406.84 1870.89,1409.32 1871.96,1406.36 1874.1,1404.32 1874.92,1403.19 1876.68,1404.99 1877.56,1410.64 1888.32,1406.4 1889.18,1408.22 1893.48,1402.67 1895.27,1406 1899.54,1406.13 1902.79,1403.33 1903.41,1409.94 1903.9,1403.88 1906.23,1409.28 1908.37,1410.17 1908.93,1401.16 1912.81,1407.33 1914.26,1406.04 1916.56,1405.69 1917.39,1411.95 1917.68,1405.57 1918.69,1405.62 1920.07,1406.29 1921.89,1408.31 1921.97,1402.68 1924.5,1405.54 1925.94,1405.53 1929.79,1409.46 1932.34,1404.95 1932.72,1399.95 1933.73,1410.71 1944.07,1407.23 1948.05,1400.68 1948.48,1404.95 1949.94,1408.49 1950.89,1402.07 1951.21,1407.06 1952.04,1403.21 1954.5,1405.53 1959.05,1409.11 1962.66,1407.32 1964.57,1407.98 1965.31,1407.82 1965.65,1405.76 1969.18,1406.19 1969.45,1401.24 1971.58,1401.23 1977.78,1403 1979.2,1403.23 1984.72,1401.67 1985.36,1408.3 1985.98,1403.96 1986.86,1400.81 1987.14,1409.29 1987.21,1402.46 1988.3,1404.48 1991.23,1405.67 1996.59,1407.44 2003.4,1400.46 2004.07,1402.13 2006.86,1405.2 2013.96,1403.61 2014.33,1403.31 2015.07,1403.09 2016.88,1402.78 2018.84,1400.09 2021,1404.86 2022.84,1408.02 2025.44,1398.44 2025.99,1402.47 2030.72,1401.84 2032.85,1400.23 2034.85,1406.77 2036.65,1401.66 2038.5,1405.26 2041.01,1407.65 2041.4,1405.52 2044,1400.3 2046.88,1402.76 2049.36,1403.97 2050.07,1406.8 2051.4,1401.19 2051.61,1407.25 2051.84,1403.1 2053.06,1396.18 2067.78,1400.98 2070.73,1404.75 2073.07,1401.34 2074.18,1402.63 2074.89,1401.01 2076.69,1403.47 2080.38,1398.04 2082.26,1401.55 2084.21,1396.34 2087.19,1401.11 2089.94,1399.69 2090.73,1397.5 2093.07,1401.23 2093.36,1400.57 2094.1,1401.06 2094.7,1403.49 2099.37,1403.31 2103.57,1397.35 2108.71,1401.13 2109.51,1404.09 2113.7,1402.29 2113.86,1402.91 2114.67,1401.15 2114.83,1402.08 2116.47,1398.26 2117.95,1407.13 2120.29,1403.08 2120.73,1403.31 2122.07,1398.9 2123.23,1399.86 2123.53,1400.31 2125.57,1402.14 2126.41,1400.61 2126.79,1402.1 2127.03,1402.4 2129.43,1401.55 2134.27,1400.46 2137.2,1402.74 2139.69,1404.16 2140.01,1400.23 2142.44,1401.59 2142.63,1402.71 2144.14,1396.13 2147.04,1397 2154.63,1401.68 2155.49,1398.52 2156.08,1397.28 2157.91,1401.75 2160.19,1394.54 2161.12,1395.29 2162.03,1400.7 2163.29,1400.69 2167.08,1401.22 2168.85,1405.62 2169.65,1400.65 2170.35,1397.84 2172.56,1399.41 2175.85,1397.77 2176.01,1402 2177.24,1400.15 2177.98,1398.7 2178.87,1399.08 2179.28,1397.8 2183.18,1398.95 2186.24,1398.79 2186.43,1402.88 2193.03,1399.03 2194.55,1395.26 2199.82,1398.94 2203.19,1401.24 2206.02,1397.18 2208.34,1397.89 2208.88,1397.9 2212.62,1395.2 2218.8,1400.01 2220.4,1402.21 2220.96,1399.48 2222.7,1397.9 2223.48,1398.31 2228.02,1397.9 2228.39,1400.01 2229.44,1394.49 2234.05,1401.53 2234.2,1399.11 2234.66,1403.81 2237.16,1394.11 2237.55,1400.64 2238.82,1396.69 2240.05,1394.27 2241.59,1398.89 2242.14,1397.46 2243.69,1400.34 2247.1,1401.81 2255.87,1391.96 2256.81,1391.64 2257.31,1398.03 2257.83,1394.7 2257.86,1397.75 2258.59,1394.09 2262.93,1395.5 2263.01,1399.35 2263.22,1396.66 2263.63,1397.64 2264.56,1395.68 2266.92,1398.45 2268.08,1394.37 2268.53,1398.71 2270.29,1394.78 2273.32,1393.85 2273.65,1396.69 2273.99,1398.17 2277.11,1393.24 2278.87,1399.79 2281.99,1400.3 2285.93,1400.04 2291,1396.77 "/>
<polyline clip-path="url(#clip542)" style="stroke:#e26f46; stroke-linecap:round; stroke-linejoin:round; stroke-width:4; stroke-opacity:1; fill:none" points="232.832,1442.49 233.732,1440.34 237.368,1441.5 241.441,1443.42 242.185,1442.85 245.248,1445.19 245.256,1437.28 252.823,1441.54 252.919,1440.15 253.381,1440.1 254.223,1443.31 254.227,1438.5 255.133,1440.01 255.339,1438.98 258.379,1441.48 260.573,1442.68 264.105,1441.9 270.852,1438.57 272.263,1440.88 275.994,1442.6 277.737,1442.29 279.341,1439.87 279.835,1439.66 280.653,1440.21 281.092,1441.57 281.952,1442.07 282.013,1441.1 283.339,1439.79 295.429,1440.21 295.735,1441.51 296.049,1442.14 296.895,1437.33 299.171,1439.57 300.38,1440.84 302.509,1437.97 308.365,1442.12 315.083,1439.87 316.401,1441.98 320.253,1441.61 321.779,1441.65 326.633,1441.65 327.008,1439.31 329.074,1439.96 329.871,1442.62 333.107,1440.8 335.682,1442.04 342.645,1441.3 344.213,1437.98 344.442,1439.34 346.37,1436.83 347.917,1438.01 348.942,1441.98 353.543,1438.57 353.562,1438.92 356.31,1437.58 357.906,1442.26 359.762,1440.07 360.134,1441.92 362.129,1438.73 364.274,1440.63 365.017,1442.16 367.27,1440.02 368.411,1437.62 371.882,1438.41 378.174,1437.85 380.452,1439.37 381.485,1440.21 382.272,1440.7 392.033,1437.67 392.525,1437.4 394.006,1440.72 398.083,1439.06 399,1436.91 401.195,1437.8 404.183,1439.61 404.649,1440.29 404.738,1440 407.773,1441.65 409.051,1441.21 409.849,1439.43 413.683,1439.25 418.068,1438.62 420.602,1441.59 422.077,1440.08 424.811,1439.81 425.874,1438.83 426.137,1439.01 431.031,1439.04 431.709,1437.03 435.17,1441.18 436.099,1436.99 441.256,1439.37 442.377,1439.75 444.094,1436.44 444.524,1437.71 445.786,1439.85 446.203,1437.58 446.741,1439.75 447.253,1440.11 448.97,1439.5 450.53,1438.31 450.833,1436.4 452.658,1440.53 454.915,1438.86 456.307,1438.09 456.524,1439.08 457.041,1440.5 458.652,1440.24 458.733,1439.33 460.933,1440.32 465.632,1437.46 470.915,1436.35 473.955,1439.06 477.933,1437.83 483.94,1438.7 485.069,1438.28 488.014,1441.29 490.179,1437.76 491.207,1438.71 492.114,1439.97 500.442,1437.03 502.322,1442.02 503.606,1440.28 506.02,1437.72 507.915,1440.97 510.612,1438.66 512.651,1438.24 518.713,1440.02 523.657,1437.7 525.127,1437.82 526.26,1438.98 526.271,1437.81 531.865,1438.48 532.888,1440.1 536.559,1438.55 537.242,1441.11 537.799,1437.32 538.037,1438.38 538.502,1438.28 539.958,1438.62 540.357,1440.6 541.905,1438.79 542.182,1440.5 542.247,1437.97 542.9,1437.45 544.974,1438.98 546.396,1438.44 547.919,1435.78 548.441,1440.14 549.769,1440.72 552.054,1437.88 553.813,1439.58 554.274,1439.03 556.924,1437.94 558.091,1436.42 560.553,1439.37 562.609,1438.1 563.676,1436.83 564.161,1437.57 564.314,1436.33 564.564,1436.54 565.727,1436.75 566.555,1439.68 566.584,1439.87 570.694,1437.17 571.572,1440.34 571.76,1437.89 571.821,1436 573.537,1441.14 575.271,1439.28 579.029,1438.09 579.684,1436.88 583.313,1438.44 584.691,1438.14 587.462,1438.94 590.535,1438.93 590.554,1436.65 592.511,1438.4 595.25,1437.52 595.321,1438.16 599.988,1438.84 603.276,1437.97 605.467,1436.46 613.9,1438.63 613.944,1436.77 614.749,1436.89 615.917,1435.59 616.326,1440.12 616.458,1439.33 616.751,1437.27 617.346,1438.17 620.772,1438.14 620.84,1437.18 624.029,1439.68 628.621,1436.92 628.658,1438.82 631.463,1437.85 635.615,1438.78 635.788,1437.01 636.723,1438.7 637.683,1435.63 639.09,1435.86 639.78,1437.1 639.898,1436.09 641.925,1436.9 643.347,1437.95 644.917,1438.19 645.989,1439.81 646.014,1438.17 647.061,1439.57 647.441,1434.88 647.62,1437.83 648.18,1438.24 650.774,1437.25 650.886,1437.03 651.038,1437.44 653.382,1437.64 654.52,1435.51 655.672,1437.52 656.196,1438.29 657.948,1440.26 660.334,1436.97 660.536,1439.78 661.104,1435.31 680.722,1438.87 682.45,1436.07 683.849,1439.27 683.874,1435.56 685.596,1437.5 685.847,1435.5 688.306,1436.61 691.393,1435.81 695.986,1437.03 697.405,1436.89 697.998,1435.48 703.394,1436.67 704.167,1438.77 704.646,1438.56 705.973,1438 708.632,1434.65 709.16,1435.69 711.648,1435.63 718.72,1432.85 719.489,1434.52 719.553,1437.37 722.393,1438.11 723.985,1435.65 725.064,1437.45 726.573,1438.09 730.103,1436.5 731.7,1438.53 739.611,1434.7 747.209,1436.26 753.676,1437.29 754.768,1436.76 758.121,1436.77 758.232,1438.52 759.904,1438.2 760.221,1436.48 760.767,1437.11 761.354,1437.27 764.26,1435.73 764.71,1436.34 765.518,1437.24 767.082,1437.79 767.542,1434.24 767.806,1437.49 770.211,1439.19 771.757,1436.25 773.362,1437.31 777.65,1435.62 777.686,1434.55 778.775,1436.41 779.936,1437.55 780.321,1437.13 783.84,1435.43 784.296,1434.73 787.362,1436.92 790.185,1433 791.437,1438.56 796.163,1434.6 796.636,1437.5 796.67,1433.66 798.207,1436.43 799.947,1433.25 800.087,1432.96 800.188,1433.96 801.45,1433.71 803.436,1437.67 809.909,1437.09 810.178,1435.14 810.61,1436.8 813.171,1436.83 813.804,1435.36 815.551,1436.57 819.594,1433.37 827.421,1433.99 829.562,1437.44 831.382,1432.38 834.061,1437.33 834.95,1436.02 835.742,1435.14 841.506,1436.36 841.635,1435.1 843.57,1435.05 846.205,1434.19 847.296,1433.26 848.663,1436.02 848.902,1435.32 851.052,1436.37 853.518,1436.15 869.508,1434.13 870.638,1433.89 874.484,1435.58 878.104,1436.11 880.167,1435.97 880.632,1435.64 880.805,1435.73 883.635,1434.23 884.346,1434.32 884.709,1436.29 884.879,1435.41 885.347,1434.08 886.099,1435.11 886.631,1432.94 887.014,1434.65 890.576,1434.3 895.461,1436.82 897.615,1432.69 899.271,1434.79 905.11,1436.35 905.214,1437.82 906.49,1435.84 906.757,1435.74 906.845,1433.97 907.449,1437.18 910.361,1436.63 911.047,1436.6 911.8,1433.46 915.037,1435.32 915.833,1436.05 919.007,1431.79 919.172,1433.38 923.335,1433.4 924.939,1436.2 934.489,1436.75 935.029,1435.68 937.186,1433.77 938.996,1436.25 945.846,1434.14 948.071,1435.38 949.396,1433.26 952.108,1436.68 958.485,1434.34 959.678,1435.42 960.556,1432.95 962.381,1436.91 963.114,1433.53 963.445,1431.29 974.253,1433.65 976.649,1433.66 977.576,1437.22 979.814,1431.83 980.58,1433.81 982.203,1436.55 982.906,1435.25 988.225,1433.37 989.344,1434.29 989.532,1431.82 989.732,1435.31 992.189,1434.18 994.606,1431.84 994.747,1433.31 995.228,1431.35 997.114,1432.91 997.897,1433.77 998.348,1432.97 1006.25,1431.94 1010.93,1434.58 1011.28,1434.48 1011.4,1433.84 1017.69,1432.92 1017.82,1435.62 1018.29,1431.1 1019.11,1433.64 1019.82,1431.93 1020.43,1432.2 1024.31,1433.37 1025.34,1433.1 1025.93,1430.73 1026.54,1432.72 1031.52,1434.95 1033.34,1432.08 1038.32,1433.3 1038.47,1428.69 1038.92,1434.26 1040.49,1430.18 1046.27,1431.1 1047.15,1427.52 1047.34,1432.38 1049.88,1430.69 1051.2,1431.7 1052.33,1431.38 1052.67,1432.86 1053.04,1429.97 1055.2,1431.21 1057.03,1429.02 1061.4,1431.64 1064.07,1428.86 1066.06,1431.12 1066.92,1428.8 1067.88,1431.92 1073.05,1429.54 1074.82,1431.84 1080.2,1427.47 1080.29,1429.52 1080.43,1425.61 1081.65,1429.13 1082.41,1430.23 1082.77,1425.57 1087.25,1429 1087.69,1428.63 1090.88,1429.41 1091.54,1429.32 1092.06,1431.88 1093.71,1428.95 1094.62,1427 1096.53,1426.69 1099.63,1424.2 1101.3,1423.73 1101.71,1427.05 1103.36,1424.82 1107.64,1423.61 1107.85,1426.48 1108.13,1425.16 1110.38,1426.53 1111.74,1427.07 1111.9,1427.45 1114.69,1424.87 1115.28,1425.05 1116.03,1425.52 1117.56,1422.13 1120.27,1423.93 1125.37,1424.44 1132,1423.33 1132.7,1420.76 1134.92,1424.98 1136.34,1422.35 1138.9,1419.19 1140.46,1418.79 1142.88,1420.82 1143,1417.42 1145.85,1421.63 1147.63,1417.71 1148.47,1419.01 1149.5,1418.81 1149.81,1417.1 1152.34,1418.03 1153.24,1415.27 1154.95,1418.29 1156.99,1421.14 1160.56,1417.51 1161.11,1416.23 1161.51,1418.7 1169.36,1417.12 1170.01,1414.64 1177.06,1411.97 1177.57,1414.42 1177.93,1411.04 1180.96,1412.65 1185.14,1412.82 1187.54,1408.61 1192.11,1409.05 1193.89,1411.44 1196.78,1412.09 1196.97,1407.4 1197.04,1408.42 1202.71,1409.02 1203.46,1407.59 1206.42,1406 1206.42,1406.45 1209.14,1403.41 1213.38,1404.78 1214.41,1404.03 1216.3,1401.81 1216.39,1402.09 1217.75,1403.99 1217.85,1404 1218.93,1401.7 1220.93,1401.91 1223.58,1402.43 1224.36,1401.59 1227.71,1401.13 1227.97,1398.96 1232.75,1398.41 1233.65,1394.02 1236.89,1396.82 1237.15,1397.67 1240.04,1394.51 1241.07,1392.25 1242.63,1396.18 1244.2,1393.14 1244.58,1395.35 1247.34,1391.04 1254.57,1390.15 1257.98,1390.46 1262.53,1387.85 1265.33,1386.65 1267.61,1383.52 1267.97,1384.96 1268.84,1382.1 1270.21,1383.7 1275.14,1380.28 1278.31,1378.42 1280.17,1378.93 1290.5,1375.38 1291.45,1376.73 1293.3,1373.39 1299.62,1370.63 1300.69,1369.97 1303.74,1366.63 1303.76,1372 1307.72,1369.86 1308.25,1368.15 1308.3,1365.44 1314.16,1363.97 1317.6,1360.93 1319.91,1363.41 1321.58,1364.22 1325.35,1359.83 1327.14,1358.92 1327.7,1360.11 1331.97,1355.52 1334.47,1355.31 1335.76,1356.82 1335.92,1357.43 1337.28,1352.72 1338.47,1354.96 1339.7,1352.97 1342.12,1351.38 1342.7,1352.32 1343.75,1354.47 1345.2,1352.41 1347.44,1350.12 1349.28,1351 1351.3,1351.76 1351.44,1349.54 1354.32,1350.74 1354.66,1348.75 1356.93,1347.62 1369.11,1342.73 1369.38,1341.96 1371.84,1341.45 1376,1340.94 1378.96,1341.09 1379.04,1337.43 1382.08,1339.14 1385.08,1335.46 1385.18,1337.14 1385.82,1335.85 1387.31,1338.3 1396.16,1332.93 1396.34,1332.06 1398.09,1335.13 1398.71,1334.65 1399.84,1332.49 1407.71,1329.59 1410.64,1327.43 1412.31,1328.56 1413.71,1329.52 1417.21,1327.59 1417.42,1328.76 1420.94,1327.13 1421.3,1324.79 1424.48,1328.02 1424.76,1325.49 1426.03,1325.46 1437.66,1327.83 1437.76,1326.45 1438.62,1325.19 1438.95,1324.89 1440.36,1325.59 1440.47,1325.09 1441.14,1325.24 1441.34,1320.32 1453.08,1323.35 1453.37,1321.46 1453.7,1323.31 1454.15,1323.74 1454.16,1321.36 1454.37,1323.47 1461.88,1323.15 1464.97,1326.32 1469.04,1321.61 1472.24,1325.14 1482.22,1323.23 1482.56,1322.18 1486.15,1323.94 1490.5,1324.39 1492.88,1325.22 1493.17,1322.35 1494.07,1327.15 1497.23,1323.4 1499.95,1326.77 1500.55,1326.07 1505.43,1327.25 1512.63,1326.65 1512.92,1323.43 1516.17,1327.85 1517.58,1328.31 1517.83,1328.61 1520.14,1327.97 1520.19,1330.62 1520.52,1325.43 1522.06,1326.63 1522.29,1328.86 1524.79,1330.03 1525.98,1328.7 1529.1,1329.47 1531.77,1330.7 1532.34,1331.3 1537.12,1332.88 1544.88,1333.44 1546.09,1336.76 1548.1,1336.24 1549.24,1336.42 1549.55,1334.63 1554.44,1337.74 1558.25,1340.04 1558.93,1338.48 1559.83,1336.97 1560.56,1339.16 1564.14,1341.26 1565.5,1340.68 1566.29,1341.56 1572.59,1344.32 1574.64,1344.21 1578.84,1347.45 1579.08,1345.73 1580.6,1347.33 1593.29,1351.85 1600.08,1352.85 1601.71,1356.07 1602.73,1351.08 1603.74,1355.56 1604.1,1354.37 1611.68,1360.81 1613.3,1359.83 1613.49,1361.75 1614.8,1361.73 1618.19,1363.5 1619.22,1362.53 1620.43,1362.62 1622.6,1363.5 1624.56,1362.77 1625.11,1365.79 1628.33,1363.89 1628.76,1364.33 1629.6,1366.35 1630.71,1366.48 1630.78,1368.9 1631.49,1369.4 1633.47,1367.09 1635.88,1368.92 1636.65,1365.98 1639.52,1372.19 1640.6,1371.22 1640.97,1370.75 1642.75,1370.88 1645.46,1373.31 1646.14,1372.39 1651.66,1376.18 1655.92,1376.97 1657.03,1378.03 1657.97,1376.92 1658.49,1381.01 1660.22,1379 1660.99,1378.96 1661.5,1378.97 1663.78,1379.04 1665.23,1380.46 1665.8,1380.12 1667.54,1385.12 1669.17,1382.5 1672.91,1383.45 1680.77,1387.15 1684.9,1386.98 1687.3,1388.39 1689.01,1386.52 1693.34,1390.85 1693.45,1387.66 1693.96,1388.98 1694.68,1389.49 1695.09,1391.19 1696.26,1392.03 1696.78,1393.04 1697.56,1392.55 1698.29,1394 1700.79,1393.27 1708.09,1395.37 1712.93,1394.68 1713.42,1396.28 1713.58,1401.68 1713.65,1397.26 1714.92,1399.94 1715.21,1396.46 1716.34,1395.8 1718.6,1397.69 1718.85,1396.34 1721.3,1401.87 1722.67,1399.26 1726.72,1400.54 1732.21,1403.71 1737.56,1406.13 1738.74,1403.42 1738.95,1401.83 1740.77,1405.92 1741.89,1404.28 1743.79,1404.19 1745.11,1405.39 1746.08,1405.51 1746.55,1409.82 1750.52,1408.29 1751.6,1411.04 1752.43,1406.34 1754.47,1406.92 1755.99,1409.92 1756.69,1408.4 1756.7,1407.89 1757.4,1408.27 1758.58,1408.93 1759.51,1409.46 1759.69,1408.96 1759.84,1410.67 1761.06,1411.32 1765.71,1411.2 1766.55,1410.84 1766.59,1407.12 1768.84,1413.95 1771.9,1411.5 1775.68,1412.73 1776.14,1412.3 1777.01,1415.93 1777.38,1410.87 1778.04,1412.32 1780.48,1411.59 1780.62,1413.4 1783.26,1414.1 1786.71,1414.53 1787.93,1415.28 1788.79,1415.43 1789.21,1412.76 1791.51,1416.36 1794.44,1416.55 1797.12,1416.06 1797.68,1417.05 1802.48,1413.99 1804.58,1418.37 1808.09,1418.83 1808.2,1419.98 1808.43,1418.17 1809.96,1419.48 1810.62,1418.6 1810.74,1417.58 1811.41,1419.17 1815.18,1421.36 1815.59,1419.25 1819.99,1421.29 1823.92,1419.28 1824.89,1419.35 1826.97,1419.12 1827.37,1420.93 1829.21,1420.8 1830.9,1419.87 1831.08,1417.94 1833.93,1418.83 1839.22,1421.36 1839.3,1421.05 1841.75,1422.58 1842.27,1421.32 1842.29,1423.96 1843.26,1421.59 1843.4,1420.65 1845.41,1422.22 1846.13,1422.38 1848.97,1421.47 1851.38,1422.62 1851.66,1420.97 1853.65,1423 1856.38,1423.77 1856.85,1419.98 1857.49,1424.44 1858.29,1423.49 1858.64,1424.12 1861.8,1423.45 1862.01,1423.82 1862.45,1423.91 1870.77,1423.93 1874.36,1420.66 1877.69,1427.5 1881.01,1426.01 1882.57,1427.04 1885.71,1421.32 1886.93,1425.21 1889.85,1423.97 1892.24,1424.94 1899.13,1426.14 1901.32,1425.2 1905.98,1423.9 1906.87,1427.36 1907.18,1425.95 1909.57,1425.99 1911.47,1428.84 1911.89,1423.33 1914.97,1426.77 1915.18,1424.63 1917.82,1424.77 1921.46,1426.82 1922.7,1426.67 1923.48,1425.27 1923.96,1425.33 1930.74,1426.63 1930.94,1427.18 1934.3,1424.33 1937.41,1423.62 1937.91,1428.68 1939.99,1427.44 1944.22,1424.39 1946.08,1427.16 1950.32,1425.12 1951.17,1426.16 1955.97,1424.09 1956.73,1426 1956.97,1427.75 1957.51,1423.66 1961.19,1422.42 1961.26,1424.05 1962.47,1426.36 1964.75,1426.67 1972.14,1428.21 1975.82,1426.39 1977.4,1424.17 1979.35,1425.24 1980.12,1427.57 1981.25,1429.04 1981.74,1427.78 1982.57,1426.7 1992.18,1426.33 1998.6,1426.63 2001.58,1424.05 2001.75,1428.11 2002.31,1425.88 2003.85,1426.98 2006.55,1427.84 2006.59,1425.9 2007.08,1426.17 2007.33,1424.27 2009.54,1425.65 2010.2,1425.71 2011.36,1427.06 2013.56,1427.51 2013.7,1427.78 2018.05,1425.24 2019.54,1427.23 2022,1426.4 2027.19,1425.6 2029.3,1427.35 2034.68,1426.03 2036.04,1424.12 2041.54,1427.83 2041.61,1427.9 2042.11,1426.4 2044.85,1424.9 2045,1424.75 2048.97,1430.37 2049.82,1425.47 2049.82,1426.87 2051.76,1426.98 2052.21,1425.94 2053.15,1423.95 2057.02,1428.56 2060.55,1426.78 2061.31,1423.04 2064.11,1425.49 2067.23,1427.24 2067.26,1426.28 2072.32,1426.04 2073.02,1427.48 2073.78,1424.55 2074.79,1426.63 2075.28,1427.25 2076.87,1426.28 2077.37,1424.76 2077.57,1427.23 2080.2,1426.02 2080.41,1428.34 2083.36,1424.48 2086.7,1424.77 2087.57,1424.56 2089.51,1425.74 2093.39,1428.3 2094.46,1427.68 2095.3,1427.91 2096.72,1425.08 2096.86,1424.51 2100.22,1425.97 2100.77,1428.25 2103.29,1424.82 2107.1,1424.23 2107.64,1426.01 2111.51,1428.04 2113.77,1425.93 2115.09,1424.94 2115.8,1424.35 2117.14,1424.82 2118.01,1425.89 2119.3,1425.18 2122.66,1423.6 2123.54,1428.55 2125.54,1424.8 2125.61,1424.71 2127.37,1424.89 2130.64,1424.88 2132.03,1425.56 2132.06,1425.09 2132.55,1425.82 2133.86,1424.75 2136.21,1424.54 2137.7,1427.09 2139.15,1425.57 2141.51,1426.61 2143.83,1426.38 2144.02,1423.47 2150.76,1423.7 2153.2,1427.25 2153.94,1425.81 2153.95,1425.48 2154.34,1424.94 2154.54,1425.19 2158.68,1427.42 2161.21,1424.55 2161.63,1426.12 2162.79,1423.32 2162.81,1425.62 2163.23,1427.63 2166.32,1425.97 2168.3,1424.87 2171.51,1424.36 2174.47,1426.08 2174.62,1425.97 2176.93,1426.17 2179.18,1426.14 2184.29,1427.62 2186.79,1422.87 2187.76,1424.38 2191.47,1427.02 2192.93,1424.34 2193.5,1424.07 2193.86,1424.77 2194.24,1425.59 2199.22,1426.76 2199.67,1425.72 2202.7,1428.83 2205.42,1428.15 2207.92,1425.67 2210.12,1425.37 2213.4,1424.08 2215.37,1425.7 2216.01,1424.96 2216.24,1425.11 2216.63,1426.66 2217.12,1424.41 2221.02,1425.29 2222.45,1424.64 2222.77,1426.55 2224.96,1424.71 2226.45,1423.5 2226.54,1426.22 2232.87,1427.44 2233.14,1426.94 2235.04,1422.94 2235.28,1424.27 2237.29,1426.13 2238.92,1426.88 2239.22,1423.18 2241.44,1425.1 2252.29,1421.59 2254.7,1426.96 2255.8,1422.92 2267.26,1423.02 2267.3,1424.57 2267.43,1422.71 2270.26,1424.64 2270.59,1427.59 2271.76,1425.65 2273.34,1423.48 2278.22,1422.05 2278.92,1425.17 2288.44,1424.99 2289.54,1424.07 "/>
<path clip-path="url(#clip540)" d="M2009.41 250.738 L2280.03 250.738 L2280.03 95.2176 L2009.41 95.2176  Z" fill="#ffffff" fill-rule="evenodd" fill-opacity="1"/>
<polyline clip-path="url(#clip540)" style="stroke:#000000; stroke-linecap:round; stroke-linejoin:round; stroke-width:4; stroke-opacity:1; fill:none" points="2009.41,250.738 2280.03,250.738 2280.03,95.2176 2009.41,95.2176 2009.41,250.738 "/>
<polyline clip-path="url(#clip540)" style="stroke:#009af9; stroke-linecap:round; stroke-linejoin:round; stroke-width:4; stroke-opacity:1; fill:none" points="2033.65,147.058 2179.11,147.058 "/>
<path clip-path="url(#clip540)" d="M2217.19 166.745 Q2215.39 171.375 2213.68 172.787 Q2211.96 174.199 2209.09 174.199 L2205.69 174.199 L2205.69 170.634 L2208.19 170.634 Q2209.95 170.634 2210.92 169.8 Q2211.89 168.967 2213.07 165.865 L2213.84 163.921 L2203.35 138.412 L2207.87 138.412 L2215.97 158.689 L2224.07 138.412 L2228.58 138.412 L2217.19 166.745 Z" fill="#000000" fill-rule="nonzero" fill-opacity="1" /><path clip-path="url(#clip540)" d="M2235.88 160.402 L2243.51 160.402 L2243.51 134.037 L2235.2 135.703 L2235.2 131.444 L2243.47 129.778 L2248.14 129.778 L2248.14 160.402 L2255.78 160.402 L2255.78 164.338 L2235.88 164.338 L2235.88 160.402 Z" fill="#000000" fill-rule="nonzero" fill-opacity="1" /><polyline clip-path="url(#clip540)" style="stroke:#e26f46; stroke-linecap:round; stroke-linejoin:round; stroke-width:4; stroke-opacity:1; fill:none" points="2033.65,198.898 2179.11,198.898 "/>
<path clip-path="url(#clip540)" d="M2217.19 218.585 Q2215.39 223.215 2213.68 224.627 Q2211.96 226.039 2209.09 226.039 L2205.69 226.039 L2205.69 222.474 L2208.19 222.474 Q2209.95 222.474 2210.92 221.64 Q2211.89 220.807 2213.07 217.705 L2213.84 215.761 L2203.35 190.252 L2207.87 190.252 L2215.97 210.529 L2224.07 190.252 L2228.58 190.252 L2217.19 218.585 Z" fill="#000000" fill-rule="nonzero" fill-opacity="1" /><path clip-path="url(#clip540)" d="M2239.09 212.242 L2255.41 212.242 L2255.41 216.178 L2233.47 216.178 L2233.47 212.242 Q2236.13 209.488 2240.71 204.858 Q2245.32 200.205 2246.5 198.863 Q2248.75 196.34 2249.63 194.604 Q2250.53 192.844 2250.53 191.155 Q2250.53 188.4 2248.58 186.664 Q2246.66 184.928 2243.56 184.928 Q2241.36 184.928 2238.91 185.692 Q2236.48 186.455 2233.7 188.006 L2233.7 183.284 Q2236.52 182.15 2238.98 181.571 Q2241.43 180.993 2243.47 180.993 Q2248.84 180.993 2252.03 183.678 Q2255.23 186.363 2255.23 190.854 Q2255.23 192.983 2254.42 194.905 Q2253.63 196.803 2251.52 199.395 Q2250.94 200.067 2247.84 203.284 Q2244.74 206.479 2239.09 212.242 Z" fill="#000000" fill-rule="nonzero" fill-opacity="1" /></svg>
