<?xml version="1.0" encoding="utf-8"?>
<svg xmlns="http://www.w3.org/2000/svg" xmlns:xlink="http://www.w3.org/1999/xlink" width="600" height="400" viewBox="0 0 2400 1600">
<defs>
  <clipPath id="clip600">
    <rect x="0" y="0" width="2400" height="1600"/>
  </clipPath>
</defs>
<path clip-path="url(#clip600)" d="M0 1600 L2400 1600 L2400 0 L0 0  Z" fill="#ffffff" fill-rule="evenodd" fill-opacity="1"/>
<defs>
  <clipPath id="clip601">
    <rect x="480" y="0" width="1681" height="1600"/>
  </clipPath>
</defs>
<path clip-path="url(#clip600)" d="M140.696 1486.45 L2352.76 1486.45 L2352.76 47.2441 L140.696 47.2441  Z" fill="#ffffff" fill-rule="evenodd" fill-opacity="1"/>
<defs>
  <clipPath id="clip602">
    <rect x="140" y="47" width="2213" height="1440"/>
  </clipPath>
</defs>
<polyline clip-path="url(#clip602)" style="stroke:#000000; stroke-linecap:round; stroke-linejoin:round; stroke-width:2; stroke-opacity:0.1; fill:none" points="203.301,1486.45 203.301,47.2441 "/>
<polyline clip-path="url(#clip602)" style="stroke:#000000; stroke-linecap:round; stroke-linejoin:round; stroke-width:2; stroke-opacity:0.1; fill:none" points="725.013,1486.45 725.013,47.2441 "/>
<polyline clip-path="url(#clip602)" style="stroke:#000000; stroke-linecap:round; stroke-linejoin:round; stroke-width:2; stroke-opacity:0.1; fill:none" points="1246.73,1486.45 1246.73,47.2441 "/>
<polyline clip-path="url(#clip602)" style="stroke:#000000; stroke-linecap:round; stroke-linejoin:round; stroke-width:2; stroke-opacity:0.1; fill:none" points="1768.44,1486.45 1768.44,47.2441 "/>
<polyline clip-path="url(#clip602)" style="stroke:#000000; stroke-linecap:round; stroke-linejoin:round; stroke-width:2; stroke-opacity:0.1; fill:none" points="2290.15,1486.45 2290.15,47.2441 "/>
<polyline clip-path="url(#clip602)" style="stroke:#000000; stroke-linecap:round; stroke-linejoin:round; stroke-width:2; stroke-opacity:0.1; fill:none" points="140.696,1420.9 2352.76,1420.9 "/>
<polyline clip-path="url(#clip602)" style="stroke:#000000; stroke-linecap:round; stroke-linejoin:round; stroke-width:2; stroke-opacity:0.1; fill:none" points="140.696,1117.78 2352.76,1117.78 "/>
<polyline clip-path="url(#clip602)" style="stroke:#000000; stroke-linecap:round; stroke-linejoin:round; stroke-width:2; stroke-opacity:0.1; fill:none" points="140.696,814.669 2352.76,814.669 "/>
<polyline clip-path="url(#clip602)" style="stroke:#000000; stroke-linecap:round; stroke-linejoin:round; stroke-width:2; stroke-opacity:0.1; fill:none" points="140.696,511.555 2352.76,511.555 "/>
<polyline clip-path="url(#clip602)" style="stroke:#000000; stroke-linecap:round; stroke-linejoin:round; stroke-width:2; stroke-opacity:0.1; fill:none" points="140.696,208.441 2352.76,208.441 "/>
<polyline clip-path="url(#clip600)" style="stroke:#000000; stroke-linecap:round; stroke-linejoin:round; stroke-width:4; stroke-opacity:1; fill:none" points="140.696,1486.45 2352.76,1486.45 "/>
<polyline clip-path="url(#clip600)" style="stroke:#000000; stroke-linecap:round; stroke-linejoin:round; stroke-width:4; stroke-opacity:1; fill:none" points="203.301,1486.45 203.301,1467.55 "/>
<polyline clip-path="url(#clip600)" style="stroke:#000000; stroke-linecap:round; stroke-linejoin:round; stroke-width:4; stroke-opacity:1; fill:none" points="725.013,1486.45 725.013,1467.55 "/>
<polyline clip-path="url(#clip600)" style="stroke:#000000; stroke-linecap:round; stroke-linejoin:round; stroke-width:4; stroke-opacity:1; fill:none" points="1246.73,1486.45 1246.73,1467.55 "/>
<polyline clip-path="url(#clip600)" style="stroke:#000000; stroke-linecap:round; stroke-linejoin:round; stroke-width:4; stroke-opacity:1; fill:none" points="1768.44,1486.45 1768.44,1467.55 "/>
<polyline clip-path="url(#clip600)" style="stroke:#000000; stroke-linecap:round; stroke-linejoin:round; stroke-width:4; stroke-opacity:1; fill:none" points="2290.15,1486.45 2290.15,1467.55 "/>
<path clip-path="url(#clip600)" d="M203.301 1517.37 Q199.69 1517.37 197.861 1520.93 Q196.056 1524.47 196.056 1531.6 Q196.056 1538.71 197.861 1542.27 Q199.69 1545.82 203.301 1545.82 Q206.935 1545.82 208.741 1542.27 Q210.57 1538.71 210.57 1531.6 Q210.57 1524.47 208.741 1520.93 Q206.935 1517.37 203.301 1517.37 M203.301 1513.66 Q209.111 1513.66 212.167 1518.27 Q215.245 1522.85 215.245 1531.6 Q215.245 1540.33 212.167 1544.94 Q209.111 1549.52 203.301 1549.52 Q197.491 1549.52 194.412 1544.94 Q191.357 1540.33 191.357 1531.6 Q191.357 1522.85 194.412 1518.27 Q197.491 1513.66 203.301 1513.66 Z" fill="#000000" fill-rule="nonzero" fill-opacity="1" /><path clip-path="url(#clip600)" d="M704.284 1544.91 L720.604 1544.91 L720.604 1548.85 L698.659 1548.85 L698.659 1544.91 Q701.321 1542.16 705.905 1537.53 Q710.511 1532.88 711.692 1531.53 Q713.937 1529.01 714.817 1527.27 Q715.719 1525.51 715.719 1523.82 Q715.719 1521.07 713.775 1519.33 Q711.854 1517.6 708.752 1517.6 Q706.553 1517.6 704.099 1518.36 Q701.669 1519.13 698.891 1520.68 L698.891 1515.95 Q701.715 1514.82 704.169 1514.24 Q706.622 1513.66 708.659 1513.66 Q714.03 1513.66 717.224 1516.35 Q720.418 1519.03 720.418 1523.52 Q720.418 1525.65 719.608 1527.57 Q718.821 1529.47 716.715 1532.07 Q716.136 1532.74 713.034 1535.95 Q709.932 1539.15 704.284 1544.91 Z" fill="#000000" fill-rule="nonzero" fill-opacity="1" /><path clip-path="url(#clip600)" d="M730.465 1514.29 L748.821 1514.29 L748.821 1518.22 L734.747 1518.22 L734.747 1526.7 Q735.766 1526.35 736.784 1526.19 Q737.803 1526 738.821 1526 Q744.608 1526 747.988 1529.17 Q751.367 1532.34 751.367 1537.76 Q751.367 1543.34 747.895 1546.44 Q744.423 1549.52 738.104 1549.52 Q735.928 1549.52 733.659 1549.15 Q731.414 1548.78 729.006 1548.04 L729.006 1543.34 Q731.09 1544.47 733.312 1545.03 Q735.534 1545.58 738.011 1545.58 Q742.016 1545.58 744.354 1543.48 Q746.691 1541.37 746.691 1537.76 Q746.691 1534.15 744.354 1532.04 Q742.016 1529.94 738.011 1529.94 Q736.136 1529.94 734.261 1530.35 Q732.409 1530.77 730.465 1531.65 L730.465 1514.29 Z" fill="#000000" fill-rule="nonzero" fill-opacity="1" /><path clip-path="url(#clip600)" d="M1221.42 1514.29 L1239.78 1514.29 L1239.78 1518.22 L1225.71 1518.22 L1225.71 1526.7 Q1226.73 1526.35 1227.74 1526.19 Q1228.76 1526 1229.78 1526 Q1235.57 1526 1238.95 1529.17 Q1242.33 1532.34 1242.33 1537.76 Q1242.33 1543.34 1238.86 1546.44 Q1235.38 1549.52 1229.06 1549.52 Q1226.89 1549.52 1224.62 1549.15 Q1222.37 1548.78 1219.97 1548.04 L1219.97 1543.34 Q1222.05 1544.47 1224.27 1545.03 Q1226.49 1545.58 1228.97 1545.58 Q1232.98 1545.58 1235.31 1543.48 Q1237.65 1541.37 1237.65 1537.76 Q1237.65 1534.15 1235.31 1532.04 Q1232.98 1529.94 1228.97 1529.94 Q1227.1 1529.94 1225.22 1530.35 Q1223.37 1530.77 1221.42 1531.65 L1221.42 1514.29 Z" fill="#000000" fill-rule="nonzero" fill-opacity="1" /><path clip-path="url(#clip600)" d="M1261.54 1517.37 Q1257.93 1517.37 1256.1 1520.93 Q1254.3 1524.47 1254.3 1531.6 Q1254.3 1538.71 1256.1 1542.27 Q1257.93 1545.82 1261.54 1545.82 Q1265.17 1545.82 1266.98 1542.27 Q1268.81 1538.71 1268.81 1531.6 Q1268.81 1524.47 1266.98 1520.93 Q1265.17 1517.37 1261.54 1517.37 M1261.54 1513.66 Q1267.35 1513.66 1270.41 1518.27 Q1273.48 1522.85 1273.48 1531.6 Q1273.48 1540.33 1270.41 1544.94 Q1267.35 1549.52 1261.54 1549.52 Q1255.73 1549.52 1252.65 1544.94 Q1249.6 1540.33 1249.6 1531.6 Q1249.6 1522.85 1252.65 1518.27 Q1255.73 1513.66 1261.54 1513.66 Z" fill="#000000" fill-rule="nonzero" fill-opacity="1" /><path clip-path="url(#clip600)" d="M1742.29 1514.29 L1764.51 1514.29 L1764.51 1516.28 L1751.97 1548.85 L1747.08 1548.85 L1758.89 1518.22 L1742.29 1518.22 L1742.29 1514.29 Z" fill="#000000" fill-rule="nonzero" fill-opacity="1" /><path clip-path="url(#clip600)" d="M1773.68 1514.29 L1792.04 1514.29 L1792.04 1518.22 L1777.96 1518.22 L1777.96 1526.7 Q1778.98 1526.35 1780 1526.19 Q1781.02 1526 1782.04 1526 Q1787.82 1526 1791.2 1529.17 Q1794.58 1532.34 1794.58 1537.76 Q1794.58 1543.34 1791.11 1546.44 Q1787.64 1549.52 1781.32 1549.52 Q1779.14 1549.52 1776.88 1549.15 Q1774.63 1548.78 1772.22 1548.04 L1772.22 1543.34 Q1774.31 1544.47 1776.53 1545.03 Q1778.75 1545.58 1781.23 1545.58 Q1785.23 1545.58 1787.57 1543.48 Q1789.91 1541.37 1789.91 1537.76 Q1789.91 1534.15 1787.57 1532.04 Q1785.23 1529.94 1781.23 1529.94 Q1779.35 1529.94 1777.48 1530.35 Q1775.63 1530.77 1773.68 1531.65 L1773.68 1514.29 Z" fill="#000000" fill-rule="nonzero" fill-opacity="1" /><path clip-path="url(#clip600)" d="M2249.76 1544.91 L2257.4 1544.91 L2257.4 1518.55 L2249.09 1520.21 L2249.09 1515.95 L2257.35 1514.29 L2262.03 1514.29 L2262.03 1544.91 L2269.66 1544.91 L2269.66 1548.85 L2249.76 1548.85 L2249.76 1544.91 Z" fill="#000000" fill-rule="nonzero" fill-opacity="1" /><path clip-path="url(#clip600)" d="M2289.11 1517.37 Q2285.5 1517.37 2283.67 1520.93 Q2281.86 1524.47 2281.86 1531.6 Q2281.86 1538.71 2283.67 1542.27 Q2285.5 1545.82 2289.11 1545.82 Q2292.74 1545.82 2294.55 1542.27 Q2296.38 1538.71 2296.38 1531.6 Q2296.38 1524.47 2294.55 1520.93 Q2292.74 1517.37 2289.11 1517.37 M2289.11 1513.66 Q2294.92 1513.66 2297.97 1518.27 Q2301.05 1522.85 2301.05 1531.6 Q2301.05 1540.33 2297.97 1544.94 Q2294.92 1549.52 2289.11 1549.52 Q2283.3 1549.52 2280.22 1544.94 Q2277.16 1540.33 2277.16 1531.6 Q2277.16 1522.85 2280.22 1518.27 Q2283.3 1513.66 2289.11 1513.66 Z" fill="#000000" fill-rule="nonzero" fill-opacity="1" /><path clip-path="url(#clip600)" d="M2319.27 1517.37 Q2315.66 1517.37 2313.83 1520.93 Q2312.03 1524.47 2312.03 1531.6 Q2312.03 1538.71 2313.83 1542.27 Q2315.66 1545.82 2319.27 1545.82 Q2322.9 1545.82 2324.71 1542.27 Q2326.54 1538.71 2326.54 1531.6 Q2326.54 1524.47 2324.71 1520.93 Q2322.9 1517.37 2319.27 1517.37 M2319.27 1513.66 Q2325.08 1513.66 2328.14 1518.27 Q2331.22 1522.85 2331.22 1531.6 Q2331.22 1540.33 2328.14 1544.94 Q2325.08 1549.52 2319.27 1549.52 Q2313.46 1549.52 2310.38 1544.94 Q2307.33 1540.33 2307.33 1531.6 Q2307.33 1522.85 2310.38 1518.27 Q2313.46 1513.66 2319.27 1513.66 Z" fill="#000000" fill-rule="nonzero" fill-opacity="1" /><polyline clip-path="url(#clip600)" style="stroke:#000000; stroke-linecap:round; stroke-linejoin:round; stroke-width:4; stroke-opacity:1; fill:none" points="140.696,1486.45 140.696,47.2441 "/>
<polyline clip-path="url(#clip600)" style="stroke:#000000; stroke-linecap:round; stroke-linejoin:round; stroke-width:4; stroke-opacity:1; fill:none" points="140.696,1420.9 159.593,1420.9 "/>
<polyline clip-path="url(#clip600)" style="stroke:#000000; stroke-linecap:round; stroke-linejoin:round; stroke-width:4; stroke-opacity:1; fill:none" points="140.696,1117.78 159.593,1117.78 "/>
<polyline clip-path="url(#clip600)" style="stroke:#000000; stroke-linecap:round; stroke-linejoin:round; stroke-width:4; stroke-opacity:1; fill:none" points="140.696,814.669 159.593,814.669 "/>
<polyline clip-path="url(#clip600)" style="stroke:#000000; stroke-linecap:round; stroke-linejoin:round; stroke-width:4; stroke-opacity:1; fill:none" points="140.696,511.555 159.593,511.555 "/>
<polyline clip-path="url(#clip600)" style="stroke:#000000; stroke-linecap:round; stroke-linejoin:round; stroke-width:4; stroke-opacity:1; fill:none" points="140.696,208.441 159.593,208.441 "/>
<path clip-path="url(#clip600)" d="M92.7512 1406.7 Q89.1401 1406.7 87.3114 1410.26 Q85.5058 1413.8 85.5058 1420.93 Q85.5058 1428.04 87.3114 1431.6 Q89.1401 1435.15 92.7512 1435.15 Q96.3854 1435.15 98.1909 1431.6 Q100.02 1428.04 100.02 1420.93 Q100.02 1413.8 98.1909 1410.26 Q96.3854 1406.7 92.7512 1406.7 M92.7512 1402.99 Q98.5613 1402.99 101.617 1407.6 Q104.696 1412.18 104.696 1420.93 Q104.696 1429.66 101.617 1434.27 Q98.5613 1438.85 92.7512 1438.85 Q86.941 1438.85 83.8623 1434.27 Q80.8068 1429.66 80.8068 1420.93 Q80.8068 1412.18 83.8623 1407.6 Q86.941 1402.99 92.7512 1402.99 Z" fill="#000000" fill-rule="nonzero" fill-opacity="1" /><path clip-path="url(#clip600)" d="M83.7929 1100.5 L102.149 1100.5 L102.149 1104.44 L88.0753 1104.44 L88.0753 1112.91 Q89.0938 1112.56 90.1123 1112.4 Q91.1308 1112.22 92.1493 1112.22 Q97.9363 1112.22 101.316 1115.39 Q104.696 1118.56 104.696 1123.98 Q104.696 1129.55 101.223 1132.66 Q97.7511 1135.73 91.4317 1135.73 Q89.2558 1135.73 86.9873 1135.36 Q84.7419 1134.99 82.3346 1134.25 L82.3346 1129.55 Q84.4179 1130.69 86.6401 1131.24 Q88.8623 1131.8 91.3391 1131.8 Q95.3437 1131.8 97.6817 1129.69 Q100.02 1127.59 100.02 1123.98 Q100.02 1120.36 97.6817 1118.26 Q95.3437 1116.15 91.3391 1116.15 Q89.4641 1116.15 87.5892 1116.57 Q85.7373 1116.98 83.7929 1117.86 L83.7929 1100.5 Z" fill="#000000" fill-rule="nonzero" fill-opacity="1" /><path clip-path="url(#clip600)" d="M53.3995 828.014 L61.0384 828.014 L61.0384 801.649 L52.7282 803.315 L52.7282 799.056 L60.9921 797.389 L65.668 797.389 L65.668 828.014 L73.3068 828.014 L73.3068 831.949 L53.3995 831.949 L53.3995 828.014 Z" fill="#000000" fill-rule="nonzero" fill-opacity="1" /><path clip-path="url(#clip600)" d="M92.7512 800.468 Q89.1401 800.468 87.3114 804.033 Q85.5058 807.574 85.5058 814.704 Q85.5058 821.81 87.3114 825.375 Q89.1401 828.917 92.7512 828.917 Q96.3854 828.917 98.1909 825.375 Q100.02 821.81 100.02 814.704 Q100.02 807.574 98.1909 804.033 Q96.3854 800.468 92.7512 800.468 M92.7512 796.764 Q98.5613 796.764 101.617 801.371 Q104.696 805.954 104.696 814.704 Q104.696 823.431 101.617 828.037 Q98.5613 832.621 92.7512 832.621 Q86.941 832.621 83.8623 828.037 Q80.8068 823.431 80.8068 814.704 Q80.8068 805.954 83.8623 801.371 Q86.941 796.764 92.7512 796.764 Z" fill="#000000" fill-rule="nonzero" fill-opacity="1" /><path clip-path="url(#clip600)" d="M54.3949 524.9 L62.0337 524.9 L62.0337 498.534 L53.7236 500.201 L53.7236 495.942 L61.9874 494.275 L66.6633 494.275 L66.6633 524.9 L74.3022 524.9 L74.3022 528.835 L54.3949 528.835 L54.3949 524.9 Z" fill="#000000" fill-rule="nonzero" fill-opacity="1" /><path clip-path="url(#clip600)" d="M83.7929 494.275 L102.149 494.275 L102.149 498.21 L88.0753 498.21 L88.0753 506.682 Q89.0938 506.335 90.1123 506.173 Q91.1308 505.988 92.1493 505.988 Q97.9363 505.988 101.316 509.159 Q104.696 512.331 104.696 517.747 Q104.696 523.326 101.223 526.428 Q97.7511 529.506 91.4317 529.506 Q89.2558 529.506 86.9873 529.136 Q84.7419 528.766 82.3346 528.025 L82.3346 523.326 Q84.4179 524.46 86.6401 525.016 Q88.8623 525.571 91.3391 525.571 Q95.3437 525.571 97.6817 523.465 Q100.02 521.358 100.02 517.747 Q100.02 514.136 97.6817 512.03 Q95.3437 509.923 91.3391 509.923 Q89.4641 509.923 87.5892 510.34 Q85.7373 510.756 83.7929 511.636 L83.7929 494.275 Z" fill="#000000" fill-rule="nonzero" fill-opacity="1" /><path clip-path="url(#clip600)" d="M56.6171 221.786 L72.9365 221.786 L72.9365 225.721 L50.9921 225.721 L50.9921 221.786 Q53.6541 219.031 58.2375 214.401 Q62.8439 209.749 64.0245 208.406 Q66.2698 205.883 67.1494 204.147 Q68.0522 202.388 68.0522 200.698 Q68.0522 197.943 66.1078 196.207 Q64.1865 194.471 61.0847 194.471 Q58.8856 194.471 56.4319 195.235 Q54.0014 195.999 51.2236 197.55 L51.2236 192.828 Q54.0477 191.693 56.5014 191.115 Q58.955 190.536 60.9921 190.536 Q66.3624 190.536 69.5568 193.221 Q72.7513 195.906 72.7513 200.397 Q72.7513 202.527 71.9411 204.448 Q71.1541 206.346 69.0476 208.939 Q68.4689 209.61 65.367 212.827 Q62.2652 216.022 56.6171 221.786 Z" fill="#000000" fill-rule="nonzero" fill-opacity="1" /><path clip-path="url(#clip600)" d="M92.7512 194.24 Q89.1401 194.24 87.3114 197.804 Q85.5058 201.346 85.5058 208.476 Q85.5058 215.582 87.3114 219.147 Q89.1401 222.688 92.7512 222.688 Q96.3854 222.688 98.1909 219.147 Q100.02 215.582 100.02 208.476 Q100.02 201.346 98.1909 197.804 Q96.3854 194.24 92.7512 194.24 M92.7512 190.536 Q98.5613 190.536 101.617 195.142 Q104.696 199.726 104.696 208.476 Q104.696 217.202 101.617 221.809 Q98.5613 226.392 92.7512 226.392 Q86.941 226.392 83.8623 221.809 Q80.8068 217.202 80.8068 208.476 Q80.8068 199.726 83.8623 195.142 Q86.941 190.536 92.7512 190.536 Z" fill="#000000" fill-rule="nonzero" fill-opacity="1" /><polyline clip-path="url(#clip602)" style="stroke:#009af9; stroke-linecap:round; stroke-linejoin:round; stroke-width:4; stroke-opacity:1; fill:none" points="203.301,1369.25 213.735,1434.21 224.17,1417.89 234.604,1402.11 245.038,1422.89 255.472,1443.89 265.907,1410.86 276.341,1395.98 286.775,1391.83 297.209,1429.25 307.643,1377.88 318.078,1404.67 328.512,1376.75 338.946,1368.14 349.38,1362.72 359.815,1378.46 370.249,1373.45 380.683,1395.52 391.117,1363.29 401.552,1381.61 411.986,1401.35 422.42,1407.25 432.854,1339.86 443.289,1326.43 453.723,1367.58 464.157,1386.06 474.591,1371.46 485.026,1377.47 495.46,1363.68 505.894,1323.87 516.328,1306.92 526.763,1359.88 537.197,1308.63 547.631,1356.04 558.065,1402.08 568.5,1336.91 578.934,1335.32 589.368,1339.37 599.802,1375.24 610.237,1342.89 620.671,1387.69 631.105,1312.09 641.539,1295.57 651.974,1339.55 662.408,1342.01 672.842,1306.83 683.276,1297.05 693.711,1297.15 704.145,1303.72 714.579,1320.63 725.013,1313.11 735.448,1286.65 745.882,1303.73 756.316,1287.57 766.75,1313.63 777.185,1273.8 787.619,1226.59 798.053,1271.87 808.487,1262.66 818.922,1279.1 829.356,1194.73 839.79,1224.06 850.224,1216.79 860.659,1199.74 871.093,1135.51 881.527,1151.75 891.961,1093.58 902.396,1095.04 912.83,996.511 923.264,1037.77 933.698,932.817 944.133,875.478 954.567,829.321 965.001,829.058 975.435,767.074 985.87,720.07 996.304,710.07 1006.74,685.634 1017.17,608.816 1027.61,645.479 1038.04,679.915 1048.48,642.866 1058.91,622.879 1069.34,648.594 1079.78,675.035 1090.21,717.599 1100.65,789.195 1111.08,787.613 1121.51,801.544 1131.95,823.98 1142.38,870.754 1152.82,921.793 1163.25,916.022 1173.69,1022.47 1184.12,1056.79 1194.55,1088.89 1204.99,1062.4 1215.42,1119.62 1225.86,1129.61 1236.29,1141.49 1246.73,1122.71 1257.16,1134.83 1267.59,1155.75 1278.03,1168.7 1288.46,1158.41 1298.9,1158.44 1309.33,1137.61 1319.77,1170.17 1330.2,1131.99 1340.63,1176.23 1351.07,1119.68 1361.5,1149.41 1371.94,1128.68 1382.37,1144.79 1392.81,1128.62 1403.24,1168.95 1413.67,1163.04 1424.11,1136.51 1434.54,1107.08 1444.98,1124.31 1455.41,1143.53 1465.84,1143.34 1476.28,1105.52 1486.71,1131.04 1497.15,1073.46 1507.58,1050.9 1518.02,1104.73 1528.45,1078.97 1538.88,1092.52 1549.32,1096.45 1559.75,1107.15 1570.19,1106.23 1580.62,1143.02 1591.06,1075.61 1601.49,1101.84 1611.92,1081.55 1622.36,1078.89 1632.79,1071.79 1643.23,1044.01 1653.66,1068.98 1664.1,1074.7 1674.53,1026.96 1684.96,1090.59 1695.4,1027.63 1705.83,1061.9 1716.27,1079.44 1726.7,1060.14 1737.14,1088.68 1747.57,1061.24 1758,1013.66 1768.44,1036.53 1778.87,1029.28 1789.31,1019.66 1799.74,1092.26 1810.18,1060.28 1820.61,1020.24 1831.04,1049.71 1841.48,1076.84 1851.91,1023.55 1862.35,1021.52 1872.78,1073.97 1883.21,1044.81 1893.65,1025.7 1904.08,1006.32 1914.52,1044.56 1924.95,1042.76 1935.39,1054.83 1945.82,1014.14 1956.25,1049.37 1966.69,980.417 1977.12,989.271 1987.56,1034.02 1997.99,970.74 2008.43,1005.56 2018.86,1011.42 2029.29,1014.96 2039.73,971.901 2050.16,927.5 2060.6,965.187 2071.03,982.686 2081.47,949.212 2091.9,1002.62 2102.33,956.61 2112.77,951.281 2123.2,988.724 2133.64,994.526 2144.07,933.436 2154.51,979.673 2164.94,1005.17 2175.37,951.401 2185.81,981.757 2196.24,945.53 2206.68,937.418 2217.11,975.956 2227.54,909.55 2237.98,903.918 2248.41,941.97 2258.85,905.814 2269.28,902.915 2279.72,966.28 2290.15,927.889 "/>
<polyline clip-path="url(#clip602)" style="stroke:#e26f46; stroke-linecap:round; stroke-linejoin:round; stroke-width:4; stroke-opacity:1; fill:none" points="203.301,1440.13 213.735,1445.72 224.17,1426.14 234.604,1437.24 245.038,1425.31 255.472,1411.38 265.907,1413.81 276.341,1399.67 286.775,1414.43 297.209,1430.65 307.643,1429.81 318.078,1396.74 328.512,1390.65 338.946,1430.22 349.38,1390.37 359.815,1406.43 370.249,1408.92 380.683,1424.78 391.117,1398.28 401.552,1401.21 411.986,1386.8 422.42,1410.5 432.854,1415.58 443.289,1376.82 453.723,1389.5 464.157,1405.06 474.591,1382.68 485.026,1405.02 495.46,1405.17 505.894,1393.24 516.328,1414.55 526.763,1403.23 537.197,1400.06 547.631,1412.81 558.065,1387.93 568.5,1391.15 578.934,1391.8 589.368,1393.67 599.802,1400.41 610.237,1392.98 620.671,1389.83 631.105,1372.96 641.539,1366.15 651.974,1387.06 662.408,1375.33 672.842,1376.59 683.276,1392.12 693.711,1345.03 704.145,1388.5 714.579,1370.31 725.013,1369.16 735.448,1375.95 745.882,1369.39 756.316,1363.46 766.75,1369.46 777.185,1371.9 787.619,1381.04 798.053,1345.08 808.487,1374.99 818.922,1366.4 829.356,1364.05 839.79,1359.93 850.224,1344.58 860.659,1363.73 871.093,1350.18 881.527,1359.62 891.961,1353.52 902.396,1338.22 912.83,1374.29 923.264,1358.51 933.698,1372.66 944.133,1346.31 954.567,1338.67 965.001,1356.29 975.435,1328.63 985.87,1324.96 996.304,1338.14 1006.74,1336.52 1017.17,1328.28 1027.61,1310.93 1038.04,1307.23 1048.48,1311.83 1058.91,1307.46 1069.34,1283.29 1079.78,1259.93 1090.21,1230 1100.65,1213.98 1111.08,1233.34 1121.51,1190.4 1131.95,1175.55 1142.38,1181.65 1152.82,1156.7 1163.25,1095.89 1173.69,1062.8 1184.12,1061.78 1194.55,1006.07 1204.99,984.949 1215.42,948.845 1225.86,877.655 1236.29,858.17 1246.73,833.419 1257.16,767.751 1267.59,719.842 1278.03,680.555 1288.46,600.792 1298.9,563.132 1309.33,538.466 1319.77,464.023 1330.2,448.704 1340.63,408.275 1351.07,342.424 1361.5,303.825 1371.94,257.538 1382.37,216.612 1392.81,182.81 1403.24,159.248 1413.67,129.981 1424.11,153.512 1434.54,87.9763 1444.98,105.289 1455.41,103.503 1465.84,113.112 1476.28,114.445 1486.71,124.602 1497.15,145.828 1507.58,160.108 1518.02,175.861 1528.45,214.292 1538.88,235.469 1549.32,276.462 1559.75,330.898 1570.19,375.561 1580.62,416.6 1591.06,468.947 1601.49,523.736 1611.92,553.274 1622.36,608.347 1632.79,638.131 1643.23,700.225 1653.66,729.142 1664.1,782.698 1674.53,818.62 1684.96,843.117 1695.4,900.908 1705.83,962.311 1716.27,964.66 1726.7,1022.17 1737.14,1025.44 1747.57,1073.18 1758,1086.42 1768.44,1126.82 1778.87,1128.68 1789.31,1147.03 1799.74,1174.26 1810.18,1191.56 1820.61,1197.96 1831.04,1199.39 1841.48,1205.3 1851.91,1233.31 1862.35,1232.13 1872.78,1262.17 1883.21,1233.21 1893.65,1251.46 1904.08,1272.13 1914.52,1260.87 1924.95,1266.38 1935.39,1259.53 1945.82,1254.23 1956.25,1250.79 1966.69,1278.79 1977.12,1263.19 1987.56,1259.53 1997.99,1261.7 2008.43,1272.39 2018.86,1256.65 2029.29,1257.15 2039.73,1245.4 2050.16,1253.97 2060.6,1255.69 2071.03,1268.77 2081.47,1240.57 2091.9,1261.85 2102.33,1236.99 2112.77,1239.87 2123.2,1242.33 2133.64,1257.3 2144.07,1228.38 2154.51,1265.8 2164.94,1244.21 2175.37,1257.08 2185.81,1244.45 2196.24,1263.22 2206.68,1249.61 2217.11,1243.7 2227.54,1264.98 2237.98,1232.95 2248.41,1212.57 2258.85,1221.38 2269.28,1264.41 2279.72,1245.61 2290.15,1233.8 "/>
<path clip-path="url(#clip600)" d="M2005.38 250.738 L2279.02 250.738 L2279.02 95.2176 L2005.38 95.2176  Z" fill="#ffffff" fill-rule="evenodd" fill-opacity="1"/>
<polyline clip-path="url(#clip600)" style="stroke:#000000; stroke-linecap:round; stroke-linejoin:round; stroke-width:4; stroke-opacity:1; fill:none" points="2005.38,250.738 2279.02,250.738 2279.02,95.2176 2005.38,95.2176 2005.38,250.738 "/>
<polyline clip-path="url(#clip600)" style="stroke:#009af9; stroke-linecap:round; stroke-linejoin:round; stroke-width:4; stroke-opacity:1; fill:none" points="2029.96,147.058 2177.43,147.058 "/>
<path clip-path="url(#clip600)" d="M2215.85 166.745 Q2214.05 171.375 2212.34 172.787 Q2210.62 174.199 2207.75 174.199 L2204.35 174.199 L2204.35 170.634 L2206.85 170.634 Q2208.61 170.634 2209.58 169.8 Q2210.55 168.967 2211.73 165.865 L2212.5 163.921 L2202.01 138.412 L2206.53 138.412 L2214.63 158.689 L2222.73 138.412 L2227.24 138.412 L2215.85 166.745 Z" fill="#000000" fill-rule="nonzero" fill-opacity="1" /><path clip-path="url(#clip600)" d="M2234.53 160.402 L2242.17 160.402 L2242.17 134.037 L2233.86 135.703 L2233.86 131.444 L2242.13 129.778 L2246.8 129.778 L2246.8 160.402 L2254.44 160.402 L2254.44 164.338 L2234.53 164.338 L2234.53 160.402 Z" fill="#000000" fill-rule="nonzero" fill-opacity="1" /><polyline clip-path="url(#clip600)" style="stroke:#e26f46; stroke-linecap:round; stroke-linejoin:round; stroke-width:4; stroke-opacity:1; fill:none" points="2029.96,198.898 2177.43,198.898 "/>
<path clip-path="url(#clip600)" d="M2215.85 218.585 Q2214.05 223.215 2212.34 224.627 Q2210.62 226.039 2207.75 226.039 L2204.35 226.039 L2204.35 222.474 L2206.85 222.474 Q2208.61 222.474 2209.58 221.64 Q2210.55 220.807 2211.73 217.705 L2212.5 215.761 L2202.01 190.252 L2206.53 190.252 L2214.63 210.529 L2222.73 190.252 L2227.24 190.252 L2215.85 218.585 Z" fill="#000000" fill-rule="nonzero" fill-opacity="1" /><path clip-path="url(#clip600)" d="M2237.75 212.242 L2254.07 212.242 L2254.07 216.178 L2232.13 216.178 L2232.13 212.242 Q2234.79 209.488 2239.37 204.858 Q2243.98 200.205 2245.16 198.863 Q2247.41 196.34 2248.28 194.604 Q2249.19 192.844 2249.19 191.155 Q2249.19 188.4 2247.24 186.664 Q2245.32 184.928 2242.22 184.928 Q2240.02 184.928 2237.57 185.692 Q2235.14 186.455 2232.36 188.006 L2232.36 183.284 Q2235.18 182.15 2237.64 181.571 Q2240.09 180.993 2242.13 180.993 Q2247.5 180.993 2250.69 183.678 Q2253.89 186.363 2253.89 190.854 Q2253.89 192.983 2253.08 194.905 Q2252.29 196.803 2250.18 199.395 Q2249.6 200.067 2246.5 203.284 Q2243.4 206.479 2237.75 212.242 Z" fill="#000000" fill-rule="nonzero" fill-opacity="1" /></svg>
