<?xml version="1.0" encoding="utf-8"?>
<svg xmlns="http://www.w3.org/2000/svg" xmlns:xlink="http://www.w3.org/1999/xlink" width="600" height="400" viewBox="0 0 2400 1600">
<defs>
  <clipPath id="clip630">
    <rect x="0" y="0" width="2400" height="1600"/>
  </clipPath>
</defs>
<path clip-path="url(#clip630)" d="M0 1600 L2400 1600 L2400 0 L0 0  Z" fill="#ffffff" fill-rule="evenodd" fill-opacity="1"/>
<defs>
  <clipPath id="clip631">
    <rect x="480" y="0" width="1681" height="1600"/>
  </clipPath>
</defs>
<path clip-path="url(#clip630)" d="M140.696 1486.45 L2352.76 1486.45 L2352.76 47.2441 L140.696 47.2441  Z" fill="#ffffff" fill-rule="evenodd" fill-opacity="1"/>
<defs>
  <clipPath id="clip632">
    <rect x="140" y="47" width="2213" height="1440"/>
  </clipPath>
</defs>
<polyline clip-path="url(#clip632)" style="stroke:#000000; stroke-linecap:round; stroke-linejoin:round; stroke-width:2; stroke-opacity:0.1; fill:none" points="203.301,1486.45 203.301,47.2441 "/>
<polyline clip-path="url(#clip632)" style="stroke:#000000; stroke-linecap:round; stroke-linejoin:round; stroke-width:2; stroke-opacity:0.1; fill:none" points="725.013,1486.45 725.013,47.2441 "/>
<polyline clip-path="url(#clip632)" style="stroke:#000000; stroke-linecap:round; stroke-linejoin:round; stroke-width:2; stroke-opacity:0.1; fill:none" points="1246.73,1486.45 1246.73,47.2441 "/>
<polyline clip-path="url(#clip632)" style="stroke:#000000; stroke-linecap:round; stroke-linejoin:round; stroke-width:2; stroke-opacity:0.1; fill:none" points="1768.44,1486.45 1768.44,47.2441 "/>
<polyline clip-path="url(#clip632)" style="stroke:#000000; stroke-linecap:round; stroke-linejoin:round; stroke-width:2; stroke-opacity:0.1; fill:none" points="2290.15,1486.45 2290.15,47.2441 "/>
<polyline clip-path="url(#clip632)" style="stroke:#000000; stroke-linecap:round; stroke-linejoin:round; stroke-width:2; stroke-opacity:0.1; fill:none" points="140.696,1420.9 2352.76,1420.9 "/>
<polyline clip-path="url(#clip632)" style="stroke:#000000; stroke-linecap:round; stroke-linejoin:round; stroke-width:2; stroke-opacity:0.1; fill:none" points="140.696,1117.78 2352.76,1117.78 "/>
<polyline clip-path="url(#clip632)" style="stroke:#000000; stroke-linecap:round; stroke-linejoin:round; stroke-width:2; stroke-opacity:0.1; fill:none" points="140.696,814.669 2352.76,814.669 "/>
<polyline clip-path="url(#clip632)" style="stroke:#000000; stroke-linecap:round; stroke-linejoin:round; stroke-width:2; stroke-opacity:0.1; fill:none" points="140.696,511.555 2352.76,511.555 "/>
<polyline clip-path="url(#clip632)" style="stroke:#000000; stroke-linecap:round; stroke-linejoin:round; stroke-width:2; stroke-opacity:0.1; fill:none" points="140.696,208.441 2352.76,208.441 "/>
<polyline clip-path="url(#clip630)" style="stroke:#000000; stroke-linecap:round; stroke-linejoin:round; stroke-width:4; stroke-opacity:1; fill:none" points="140.696,1486.45 2352.76,1486.45 "/>
<polyline clip-path="url(#clip630)" style="stroke:#000000; stroke-linecap:round; stroke-linejoin:round; stroke-width:4; stroke-opacity:1; fill:none" points="203.301,1486.45 203.301,1467.55 "/>
<polyline clip-path="url(#clip630)" style="stroke:#000000; stroke-linecap:round; stroke-linejoin:round; stroke-width:4; stroke-opacity:1; fill:none" points="725.013,1486.45 725.013,1467.55 "/>
<polyline clip-path="url(#clip630)" style="stroke:#000000; stroke-linecap:round; stroke-linejoin:round; stroke-width:4; stroke-opacity:1; fill:none" points="1246.73,1486.45 1246.73,1467.55 "/>
<polyline clip-path="url(#clip630)" style="stroke:#000000; stroke-linecap:round; stroke-linejoin:round; stroke-width:4; stroke-opacity:1; fill:none" points="1768.44,1486.45 1768.44,1467.55 "/>
<polyline clip-path="url(#clip630)" style="stroke:#000000; stroke-linecap:round; stroke-linejoin:round; stroke-width:4; stroke-opacity:1; fill:none" points="2290.15,1486.45 2290.15,1467.55 "/>
<path clip-path="url(#clip630)" d="M203.301 1517.37 Q199.69 1517.37 197.861 1520.93 Q196.056 1524.47 196.056 1531.6 Q196.056 1538.71 197.861 1542.27 Q199.69 1545.82 203.301 1545.82 Q206.935 1545.82 208.741 1542.27 Q210.57 1538.71 210.57 1531.6 Q210.57 1524.47 208.741 1520.93 Q206.935 1517.37 203.301 1517.37 M203.301 1513.66 Q209.111 1513.66 212.167 1518.27 Q215.245 1522.85 215.245 1531.6 Q215.245 1540.33 212.167 1544.94 Q209.111 1549.52 203.301 1549.52 Q197.491 1549.52 194.412 1544.94 Q191.357 1540.33 191.357 1531.6 Q191.357 1522.85 194.412 1518.27 Q197.491 1513.66 203.301 1513.66 Z" fill="#000000" fill-rule="nonzero" fill-opacity="1" /><path clip-path="url(#clip630)" d="M704.284 1544.91 L720.604 1544.91 L720.604 1548.85 L698.659 1548.85 L698.659 1544.91 Q701.321 1542.16 705.905 1537.53 Q710.511 1532.88 711.692 1531.53 Q713.937 1529.01 714.817 1527.27 Q715.719 1525.51 715.719 1523.82 Q715.719 1521.07 713.775 1519.33 Q711.854 1517.6 708.752 1517.6 Q706.553 1517.6 704.099 1518.36 Q701.669 1519.13 698.891 1520.68 L698.891 1515.95 Q701.715 1514.82 704.169 1514.24 Q706.622 1513.66 708.659 1513.66 Q714.03 1513.66 717.224 1516.35 Q720.418 1519.03 720.418 1523.52 Q720.418 1525.65 719.608 1527.57 Q718.821 1529.47 716.715 1532.07 Q716.136 1532.74 713.034 1535.95 Q709.932 1539.15 704.284 1544.91 Z" fill="#000000" fill-rule="nonzero" fill-opacity="1" /><path clip-path="url(#clip630)" d="M730.465 1514.29 L748.821 1514.29 L748.821 1518.22 L734.747 1518.22 L734.747 1526.7 Q735.766 1526.35 736.784 1526.19 Q737.803 1526 738.821 1526 Q744.608 1526 747.988 1529.17 Q751.367 1532.34 751.367 1537.76 Q751.367 1543.34 747.895 1546.44 Q744.423 1549.52 738.104 1549.52 Q735.928 1549.52 733.659 1549.15 Q731.414 1548.78 729.006 1548.04 L729.006 1543.34 Q731.09 1544.47 733.312 1545.03 Q735.534 1545.58 738.011 1545.58 Q742.016 1545.58 744.354 1543.48 Q746.691 1541.37 746.691 1537.76 Q746.691 1534.15 744.354 1532.04 Q742.016 1529.94 738.011 1529.94 Q736.136 1529.94 734.261 1530.35 Q732.409 1530.77 730.465 1531.65 L730.465 1514.29 Z" fill="#000000" fill-rule="nonzero" fill-opacity="1" /><path clip-path="url(#clip630)" d="M1221.42 1514.29 L1239.78 1514.29 L1239.78 1518.22 L1225.71 1518.22 L1225.71 1526.7 Q1226.73 1526.35 1227.74 1526.19 Q1228.76 1526 1229.78 1526 Q1235.57 1526 1238.95 1529.17 Q1242.33 1532.34 1242.33 1537.76 Q1242.33 1543.34 1238.86 1546.44 Q1235.38 1549.52 1229.06 1549.52 Q1226.89 1549.52 1224.62 1549.15 Q1222.37 1548.78 1219.97 1548.04 L1219.97 1543.34 Q1222.05 1544.47 1224.27 1545.03 Q1226.49 1545.58 1228.97 1545.58 Q1232.98 1545.58 1235.31 1543.48 Q1237.65 1541.37 1237.65 1537.76 Q1237.65 1534.15 1235.31 1532.04 Q1232.98 1529.94 1228.97 1529.94 Q1227.1 1529.94 1225.22 1530.35 Q1223.37 1530.77 1221.42 1531.65 L1221.42 1514.29 Z" fill="#000000" fill-rule="nonzero" fill-opacity="1" /><path clip-path="url(#clip630)" d="M1261.54 1517.37 Q1257.93 1517.37 1256.1 1520.93 Q1254.3 1524.47 1254.3 1531.6 Q1254.3 1538.71 1256.1 1542.27 Q1257.93 1545.82 1261.54 1545.82 Q1265.17 1545.82 1266.98 1542.27 Q1268.81 1538.71 1268.81 1531.6 Q1268.81 1524.47 1266.98 1520.93 Q1265.17 1517.37 1261.54 1517.37 M1261.54 1513.66 Q1267.35 1513.66 1270.41 1518.27 Q1273.48 1522.85 1273.48 1531.6 Q1273.48 1540.33 1270.41 1544.94 Q1267.35 1549.52 1261.54 1549.52 Q1255.73 1549.52 1252.65 1544.94 Q1249.6 1540.33 1249.6 1531.6 Q1249.6 1522.85 1252.65 1518.27 Q1255.73 1513.66 1261.54 1513.66 Z" fill="#000000" fill-rule="nonzero" fill-opacity="1" /><path clip-path="url(#clip630)" d="M1742.29 1514.29 L1764.51 1514.29 L1764.51 1516.28 L1751.97 1548.85 L1747.08 1548.85 L1758.89 1518.22 L1742.29 1518.22 L1742.29 1514.29 Z" fill="#000000" fill-rule="nonzero" fill-opacity="1" /><path clip-path="url(#clip630)" d="M1773.68 1514.29 L1792.04 1514.29 L1792.04 1518.22 L1777.96 1518.22 L1777.96 1526.7 Q1778.98 1526.35 1780 1526.19 Q1781.02 1526 1782.04 1526 Q1787.82 1526 1791.2 1529.17 Q1794.58 1532.34 1794.58 1537.76 Q1794.58 1543.34 1791.11 1546.44 Q1787.64 1549.52 1781.32 1549.52 Q1779.14 1549.52 1776.88 1549.15 Q1774.63 1548.78 1772.22 1548.04 L1772.22 1543.34 Q1774.31 1544.47 1776.53 1545.03 Q1778.75 1545.58 1781.23 1545.58 Q1785.23 1545.58 1787.57 1543.48 Q1789.91 1541.37 1789.91 1537.76 Q1789.91 1534.15 1787.57 1532.04 Q1785.23 1529.94 1781.23 1529.94 Q1779.35 1529.94 1777.48 1530.35 Q1775.63 1530.77 1773.68 1531.65 L1773.68 1514.29 Z" fill="#000000" fill-rule="nonzero" fill-opacity="1" /><path clip-path="url(#clip630)" d="M2249.76 1544.91 L2257.4 1544.91 L2257.4 1518.55 L2249.09 1520.21 L2249.09 1515.95 L2257.35 1514.29 L2262.03 1514.29 L2262.03 1544.91 L2269.66 1544.91 L2269.66 1548.85 L2249.76 1548.85 L2249.76 1544.91 Z" fill="#000000" fill-rule="nonzero" fill-opacity="1" /><path clip-path="url(#clip630)" d="M2289.11 1517.37 Q2285.5 1517.37 2283.67 1520.93 Q2281.86 1524.47 2281.86 1531.6 Q2281.86 1538.71 2283.67 1542.27 Q2285.5 1545.82 2289.11 1545.82 Q2292.74 1545.82 2294.55 1542.27 Q2296.38 1538.71 2296.38 1531.6 Q2296.38 1524.47 2294.55 1520.93 Q2292.74 1517.37 2289.11 1517.37 M2289.11 1513.66 Q2294.92 1513.66 2297.97 1518.27 Q2301.05 1522.85 2301.05 1531.6 Q2301.05 1540.33 2297.97 1544.94 Q2294.92 1549.52 2289.11 1549.52 Q2283.3 1549.52 2280.22 1544.94 Q2277.16 1540.33 2277.16 1531.6 Q2277.16 1522.85 2280.22 1518.27 Q2283.3 1513.66 2289.11 1513.66 Z" fill="#000000" fill-rule="nonzero" fill-opacity="1" /><path clip-path="url(#clip630)" d="M2319.27 1517.37 Q2315.66 1517.37 2313.83 1520.93 Q2312.03 1524.47 2312.03 1531.6 Q2312.03 1538.71 2313.83 1542.27 Q2315.66 1545.82 2319.27 1545.82 Q2322.9 1545.82 2324.71 1542.27 Q2326.54 1538.71 2326.54 1531.6 Q2326.54 1524.47 2324.71 1520.93 Q2322.9 1517.37 2319.27 1517.37 M2319.27 1513.66 Q2325.08 1513.66 2328.14 1518.27 Q2331.22 1522.85 2331.22 1531.6 Q2331.22 1540.33 2328.14 1544.94 Q2325.08 1549.52 2319.27 1549.52 Q2313.46 1549.52 2310.38 1544.94 Q2307.33 1540.33 2307.33 1531.6 Q2307.33 1522.85 2310.38 1518.27 Q2313.46 1513.66 2319.27 1513.66 Z" fill="#000000" fill-rule="nonzero" fill-opacity="1" /><polyline clip-path="url(#clip630)" style="stroke:#000000; stroke-linecap:round; stroke-linejoin:round; stroke-width:4; stroke-opacity:1; fill:none" points="140.696,1486.45 140.696,47.2441 "/>
<polyline clip-path="url(#clip630)" style="stroke:#000000; stroke-linecap:round; stroke-linejoin:round; stroke-width:4; stroke-opacity:1; fill:none" points="140.696,1420.9 159.593,1420.9 "/>
<polyline clip-path="url(#clip630)" style="stroke:#000000; stroke-linecap:round; stroke-linejoin:round; stroke-width:4; stroke-opacity:1; fill:none" points="140.696,1117.78 159.593,1117.78 "/>
<polyline clip-path="url(#clip630)" style="stroke:#000000; stroke-linecap:round; stroke-linejoin:round; stroke-width:4; stroke-opacity:1; fill:none" points="140.696,814.669 159.593,814.669 "/>
<polyline clip-path="url(#clip630)" style="stroke:#000000; stroke-linecap:round; stroke-linejoin:round; stroke-width:4; stroke-opacity:1; fill:none" points="140.696,511.555 159.593,511.555 "/>
<polyline clip-path="url(#clip630)" style="stroke:#000000; stroke-linecap:round; stroke-linejoin:round; stroke-width:4; stroke-opacity:1; fill:none" points="140.696,208.441 159.593,208.441 "/>
<path clip-path="url(#clip630)" d="M92.7512 1406.7 Q89.1401 1406.7 87.3114 1410.26 Q85.5058 1413.8 85.5058 1420.93 Q85.5058 1428.04 87.3114 1431.6 Q89.1401 1435.15 92.7512 1435.15 Q96.3854 1435.15 98.1909 1431.6 Q100.02 1428.04 100.02 1420.93 Q100.02 1413.8 98.1909 1410.26 Q96.3854 1406.7 92.7512 1406.7 M92.7512 1402.99 Q98.5613 1402.99 101.617 1407.6 Q104.696 1412.18 104.696 1420.93 Q104.696 1429.66 101.617 1434.27 Q98.5613 1438.85 92.7512 1438.85 Q86.941 1438.85 83.8623 1434.27 Q80.8068 1429.66 80.8068 1420.93 Q80.8068 1412.18 83.8623 1407.6 Q86.941 1402.99 92.7512 1402.99 Z" fill="#000000" fill-rule="nonzero" fill-opacity="1" /><path clip-path="url(#clip630)" d="M83.7929 1100.5 L102.149 1100.5 L102.149 1104.44 L88.0753 1104.44 L88.0753 1112.91 Q89.0938 1112.56 90.1123 1112.4 Q91.1308 1112.22 92.1493 1112.22 Q97.9363 1112.22 101.316 1115.39 Q104.696 1118.56 104.696 1123.98 Q104.696 1129.55 101.223 1132.66 Q97.7511 1135.73 91.4317 1135.73 Q89.2558 1135.73 86.9873 1135.36 Q84.7419 1134.99 82.3346 1134.25 L82.3346 1129.55 Q84.4179 1130.69 86.6401 1131.24 Q88.8623 1131.8 91.3391 1131.8 Q95.3437 1131.8 97.6817 1129.69 Q100.02 1127.59 100.02 1123.98 Q100.02 1120.36 97.6817 1118.26 Q95.3437 1116.15 91.3391 1116.15 Q89.4641 1116.15 87.5892 1116.57 Q85.7373 1116.98 83.7929 1117.86 L83.7929 1100.5 Z" fill="#000000" fill-rule="nonzero" fill-opacity="1" /><path clip-path="url(#clip630)" d="M53.3995 828.014 L61.0384 828.014 L61.0384 801.649 L52.7282 803.315 L52.7282 799.056 L60.9921 797.389 L65.668 797.389 L65.668 828.014 L73.3068 828.014 L73.3068 831.949 L53.3995 831.949 L53.3995 828.014 Z" fill="#000000" fill-rule="nonzero" fill-opacity="1" /><path clip-path="url(#clip630)" d="M92.7512 800.468 Q89.1401 800.468 87.3114 804.033 Q85.5058 807.574 85.5058 814.704 Q85.5058 821.81 87.3114 825.375 Q89.1401 828.917 92.7512 828.917 Q96.3854 828.917 98.1909 825.375 Q100.02 821.81 100.02 814.704 Q100.02 807.574 98.1909 804.033 Q96.3854 800.468 92.7512 800.468 M92.7512 796.764 Q98.5613 796.764 101.617 801.371 Q104.696 805.954 104.696 814.704 Q104.696 823.431 101.617 828.037 Q98.5613 832.621 92.7512 832.621 Q86.941 832.621 83.8623 828.037 Q80.8068 823.431 80.8068 814.704 Q80.8068 805.954 83.8623 801.371 Q86.941 796.764 92.7512 796.764 Z" fill="#000000" fill-rule="nonzero" fill-opacity="1" /><path clip-path="url(#clip630)" d="M54.3949 524.9 L62.0337 524.9 L62.0337 498.534 L53.7236 500.201 L53.7236 495.942 L61.9874 494.275 L66.6633 494.275 L66.6633 524.9 L74.3022 524.9 L74.3022 528.835 L54.3949 528.835 L54.3949 524.9 Z" fill="#000000" fill-rule="nonzero" fill-opacity="1" /><path clip-path="url(#clip630)" d="M83.7929 494.275 L102.149 494.275 L102.149 498.21 L88.0753 498.21 L88.0753 506.682 Q89.0938 506.335 90.1123 506.173 Q91.1308 505.988 92.1493 505.988 Q97.9363 505.988 101.316 509.159 Q104.696 512.331 104.696 517.747 Q104.696 523.326 101.223 526.428 Q97.7511 529.506 91.4317 529.506 Q89.2558 529.506 86.9873 529.136 Q84.7419 528.766 82.3346 528.025 L82.3346 523.326 Q84.4179 524.46 86.6401 525.016 Q88.8623 525.571 91.3391 525.571 Q95.3437 525.571 97.6817 523.465 Q100.02 521.358 100.02 517.747 Q100.02 514.136 97.6817 512.03 Q95.3437 509.923 91.3391 509.923 Q89.4641 509.923 87.5892 510.34 Q85.7373 510.756 83.7929 511.636 L83.7929 494.275 Z" fill="#000000" fill-rule="nonzero" fill-opacity="1" /><path clip-path="url(#clip630)" d="M56.6171 221.786 L72.9365 221.786 L72.9365 225.721 L50.9921 225.721 L50.9921 221.786 Q53.6541 219.031 58.2375 214.401 Q62.8439 209.749 64.0245 208.406 Q66.2698 205.883 67.1494 204.147 Q68.0522 202.388 68.0522 200.698 Q68.0522 197.943 66.1078 196.207 Q64.1865 194.471 61.0847 194.471 Q58.8856 194.471 56.4319 195.235 Q54.0014 195.999 51.2236 197.55 L51.2236 192.828 Q54.0477 191.693 56.5014 191.115 Q58.955 190.536 60.9921 190.536 Q66.3624 190.536 69.5568 193.221 Q72.7513 195.906 72.7513 200.397 Q72.7513 202.527 71.9411 204.448 Q71.1541 206.346 69.0476 208.939 Q68.4689 209.61 65.367 212.827 Q62.2652 216.022 56.6171 221.786 Z" fill="#000000" fill-rule="nonzero" fill-opacity="1" /><path clip-path="url(#clip630)" d="M92.7512 194.24 Q89.1401 194.24 87.3114 197.804 Q85.5058 201.346 85.5058 208.476 Q85.5058 215.582 87.3114 219.147 Q89.1401 222.688 92.7512 222.688 Q96.3854 222.688 98.1909 219.147 Q100.02 215.582 100.02 208.476 Q100.02 201.346 98.1909 197.804 Q96.3854 194.24 92.7512 194.24 M92.7512 190.536 Q98.5613 190.536 101.617 195.142 Q104.696 199.726 104.696 208.476 Q104.696 217.202 101.617 221.809 Q98.5613 226.392 92.7512 226.392 Q86.941 226.392 83.8623 221.809 Q80.8068 217.202 80.8068 208.476 Q80.8068 199.726 83.8623 195.142 Q86.941 190.536 92.7512 190.536 Z" fill="#000000" fill-rule="nonzero" fill-opacity="1" /><polyline clip-path="url(#clip632)" style="stroke:#009af9; stroke-linecap:round; stroke-linejoin:round; stroke-width:4; stroke-opacity:1; fill:none" points="203.301,1369.25 213.735,1434.21 224.17,1417.89 234.604,1402.11 245.038,1422.89 255.472,1443.89 265.907,1410.86 276.341,1395.98 286.775,1391.83 297.209,1429.25 307.643,1377.88 318.078,1404.67 328.512,1376.75 338.946,1368.14 349.38,1362.72 359.815,1378.46 370.249,1373.45 380.683,1395.52 391.117,1363.29 401.552,1381.61 411.986,1401.35 422.42,1407.25 432.854,1339.86 443.289,1326.43 453.723,1367.58 464.157,1386.06 474.591,1371.46 485.026,1377.47 495.46,1363.68 505.894,1323.87 516.328,1306.92 526.763,1359.88 537.197,1308.63 547.631,1356.04 558.065,1402.08 568.5,1336.91 578.934,1335.32 589.368,1339.37 599.802,1375.24 610.237,1342.89 620.671,1387.69 631.105,1312.09 641.539,1295.57 651.974,1339.55 662.408,1342.01 672.842,1306.83 683.276,1297.05 693.711,1297.15 704.145,1303.72 714.579,1320.63 725.013,1313.11 735.448,1286.65 745.882,1303.73 756.316,1287.57 766.75,1313.63 777.185,1273.8 787.619,1226.59 798.053,1271.87 808.487,1262.66 818.922,1279.1 829.356,1194.73 839.79,1224.06 850.224,1216.79 860.659,1199.74 871.093,1135.51 881.527,1151.75 891.961,1093.58 902.396,1095.04 912.83,996.511 923.264,1037.77 933.698,932.817 944.133,875.478 954.567,829.321 965.001,829.058 975.435,767.074 985.87,720.07 996.304,710.07 1006.74,685.634 1017.17,608.816 1027.61,645.479 1038.04,679.915 1048.48,642.866 1058.91,622.879 1069.34,648.594 1079.78,675.035 1090.21,717.599 1100.65,789.195 1111.08,787.613 1121.51,801.544 1131.95,823.98 1142.38,870.754 1152.82,921.793 1163.25,916.022 1173.69,1022.47 1184.12,1056.79 1194.55,1088.89 1204.99,1062.4 1215.42,1119.62 1225.86,1129.61 1236.29,1141.49 1246.73,1122.71 1257.16,1134.83 1267.59,1155.75 1278.03,1168.7 1288.46,1158.41 1298.9,1158.44 1309.33,1137.61 1319.77,1170.17 1330.2,1131.99 1340.63,1176.23 1351.07,1119.68 1361.5,1149.41 1371.94,1128.68 1382.37,1144.79 1392.81,1128.62 1403.24,1168.95 1413.67,1163.04 1424.11,1136.51 1434.54,1107.08 1444.98,1124.31 1455.41,1143.53 1465.84,1143.34 1476.28,1105.52 1486.71,1131.04 1497.15,1073.46 1507.58,1050.9 1518.02,1104.73 1528.45,1078.97 1538.88,1092.52 1549.32,1096.45 1559.75,1107.15 1570.19,1106.23 1580.62,1143.02 1591.06,1075.61 1601.49,1101.84 1611.92,1081.55 1622.36,1078.89 1632.79,1071.79 1643.23,1044.01 1653.66,1068.98 1664.1,1074.7 1674.53,1026.96 1684.96,1090.59 1695.4,1027.63 1705.83,1061.9 1716.27,1079.44 1726.7,1060.14 1737.14,1088.68 1747.57,1061.24 1758,1013.66 1768.44,1036.53 1778.87,1029.28 1789.31,1019.66 1799.74,1092.26 1810.18,1060.28 1820.61,1020.24 1831.04,1049.71 1841.48,1076.84 1851.91,1023.55 1862.35,1021.52 1872.78,1073.97 1883.21,1044.81 1893.65,1025.7 1904.08,1006.32 1914.52,1044.56 1924.95,1042.76 1935.39,1054.83 1945.82,1014.14 1956.25,1049.37 1966.69,980.417 1977.12,989.271 1987.56,1034.02 1997.99,970.74 2008.43,1005.56 2018.86,1011.42 2029.29,1014.96 2039.73,971.901 2050.16,927.5 2060.6,965.187 2071.03,982.686 2081.47,949.212 2091.9,1002.62 2102.33,956.61 2112.77,951.281 2123.2,988.724 2133.64,994.526 2144.07,933.436 2154.51,979.673 2164.94,1005.17 2175.37,951.401 2185.81,981.757 2196.24,945.53 2206.68,937.418 2217.11,975.956 2227.54,909.55 2237.98,903.918 2248.41,941.97 2258.85,905.814 2269.28,902.915 2279.72,966.28 2290.15,927.889 "/>
<polyline clip-path="url(#clip632)" style="stroke:#e26f46; stroke-linecap:round; stroke-linejoin:round; stroke-width:4; stroke-opacity:1; fill:none" points="203.301,1440.13 213.735,1445.72 224.17,1426.14 234.604,1437.24 245.038,1425.31 255.472,1411.38 265.907,1413.81 276.341,1399.67 286.775,1414.43 297.209,1430.65 307.643,1429.81 318.078,1396.74 328.512,1390.65 338.946,1430.22 349.38,1390.37 359.815,1406.43 370.249,1408.92 380.683,1424.78 391.117,1398.28 401.552,1401.21 411.986,1386.8 422.42,1410.5 432.854,1415.58 443.289,1376.82 453.723,1389.5 464.157,1405.06 474.591,1382.68 485.026,1405.02 495.46,1405.17 505.894,1393.24 516.328,1414.55 526.763,1403.23 537.197,1400.06 547.631,1412.81 558.065,1387.93 568.5,1391.15 578.934,1391.8 589.368,1393.67 599.802,1400.41 610.237,1392.98 620.671,1389.83 631.105,1372.96 641.539,1366.15 651.974,1387.06 662.408,1375.33 672.842,1376.59 683.276,1392.12 693.711,1345.03 704.145,1388.5 714.579,1370.31 725.013,1369.16 735.448,1375.95 745.882,1369.39 756.316,1363.46 766.75,1369.46 777.185,1371.9 787.619,1381.04 798.053,1345.08 808.487,1374.99 818.922,1366.4 829.356,1364.05 839.79,1359.93 850.224,1344.58 860.659,1363.73 871.093,1350.18 881.527,1359.62 891.961,1353.52 902.396,1338.22 912.83,1374.29 923.264,1358.51 933.698,1372.66 944.133,1346.31 954.567,1338.67 965.001,1356.29 975.435,1328.63 985.87,1324.96 996.304,1338.14 1006.74,1336.52 1017.17,1328.28 1027.61,1310.93 1038.04,1307.23 1048.48,1311.83 1058.91,1307.46 1069.34,1283.29 1079.78,1259.93 1090.21,1230 1100.65,1213.98 1111.08,1233.34 1121.51,1190.4 1131.95,1175.55 1142.38,1181.65 1152.82,1156.7 1163.25,1095.89 1173.69,1062.8 1184.12,1061.78 1194.55,1006.07 1204.99,984.949 1215.42,948.845 1225.86,877.655 1236.29,858.17 1246.73,833.419 1257.16,767.751 1267.59,719.842 1278.03,680.555 1288.46,600.792 1298.9,563.132 1309.33,538.466 1319.77,464.023 1330.2,448.704 1340.63,408.275 1351.07,342.424 1361.5,303.825 1371.94,257.538 1382.37,216.612 1392.81,182.81 1403.24,159.248 1413.67,129.981 1424.11,153.512 1434.54,87.9763 1444.98,105.289 1455.41,103.503 1465.84,113.112 1476.28,114.445 1486.71,124.602 1497.15,145.828 1507.58,160.108 1518.02,175.861 1528.45,214.292 1538.88,235.469 1549.32,276.462 1559.75,330.898 1570.19,375.561 1580.62,416.6 1591.06,468.947 1601.49,523.736 1611.92,553.274 1622.36,608.347 1632.79,638.131 1643.23,700.225 1653.66,729.142 1664.1,782.698 1674.53,818.62 1684.96,843.117 1695.4,900.908 1705.83,962.311 1716.27,964.66 1726.7,1022.17 1737.14,1025.44 1747.57,1073.18 1758,1086.42 1768.44,1126.82 1778.87,1128.68 1789.31,1147.03 1799.74,1174.26 1810.18,1191.56 1820.61,1197.96 1831.04,1199.39 1841.48,1205.3 1851.91,1233.31 1862.35,1232.13 1872.78,1262.17 1883.21,1233.21 1893.65,1251.46 1904.08,1272.13 1914.52,1260.87 1924.95,1266.38 1935.39,1259.53 1945.82,1254.23 1956.25,1250.79 1966.69,1278.79 1977.12,1263.19 1987.56,1259.53 1997.99,1261.7 2008.43,1272.39 2018.86,1256.65 2029.29,1257.15 2039.73,1245.4 2050.16,1253.97 2060.6,1255.69 2071.03,1268.77 2081.47,1240.57 2091.9,1261.85 2102.33,1236.99 2112.77,1239.87 2123.2,1242.33 2133.64,1257.3 2144.07,1228.38 2154.51,1265.8 2164.94,1244.21 2175.37,1257.08 2185.81,1244.45 2196.24,1263.22 2206.68,1249.61 2217.11,1243.7 2227.54,1264.98 2237.98,1232.95 2248.41,1212.57 2258.85,1221.38 2269.28,1264.41 2279.72,1245.61 2290.15,1233.8 "/>
<polyline clip-path="url(#clip632)" style="stroke:#3da44d; stroke-linecap:round; stroke-linejoin:round; stroke-width:4; stroke-opacity:1; fill:none" points="203.301,1424.71 213.735,1422.28 224.17,1419.86 234.604,1417.44 245.038,1415.02 255.472,1412.6 265.907,1410.18 276.341,1407.76 286.775,1405.33 297.209,1402.91 307.643,1400.49 318.078,1398.06 328.512,1395.64 338.946,1393.22 349.38,1390.8 359.815,1388.37 370.249,1385.95 380.683,1383.52 391.117,1381.09 401.552,1378.66 411.986,1376.22 422.42,1373.78 432.854,1371.34 443.289,1368.88 453.723,1366.42 464.157,1363.95 474.591,1361.48 485.026,1358.99 495.46,1356.49 505.894,1353.99 516.328,1351.47 526.763,1348.95 537.197,1346.41 547.631,1343.85 558.065,1341.29 568.5,1338.71 578.934,1336.11 589.368,1333.5 599.802,1330.88 610.237,1328.23 620.671,1325.57 631.105,1322.9 641.539,1320.21 651.974,1317.51 662.408,1314.79 672.842,1312.06 683.276,1309.32 693.711,1306.57 704.145,1303.81 714.579,1301.04 725.013,1298.26 735.448,1295.47 745.882,1292.68 756.316,1289.88 766.75,1287.08 777.185,1284.27 787.619,1281.47 798.053,1278.66 808.487,1275.85 818.922,1273.05 829.356,1270.25 839.79,1267.45 850.224,1264.66 860.659,1261.87 871.093,1259.09 881.527,1256.32 891.961,1253.55 902.396,1250.79 912.83,1248.03 923.264,1245.28 933.698,1242.54 944.133,1239.81 954.567,1237.09 965.001,1234.37 975.435,1231.67 985.87,1228.97 996.304,1226.28 1006.74,1223.6 1017.17,1220.93 1027.61,1218.27 1038.04,1215.63 1048.48,1212.99 1058.91,1210.37 1069.34,1207.75 1079.78,1205.15 1090.21,1202.56 1100.65,1199.98 1111.08,1197.42 1121.51,1194.87 1131.95,1192.33 1142.38,1189.8 1152.82,1187.29 1163.25,1184.8 1173.69,1182.32 1184.12,1179.85 1194.55,1177.4 1204.99,1174.96 1215.42,1172.54 1225.86,1170.14 1236.29,1167.75 1246.73,1165.38 1257.16,1163.02 1267.59,1160.68 1278.03,1158.35 1288.46,1156.04 1298.9,1153.74 1309.33,1151.44 1319.77,1149.16 1330.2,1146.89 1340.63,1144.62 1351.07,1142.36 1361.5,1140.11 1371.94,1137.86 1382.37,1135.62 1392.81,1133.38 1403.24,1131.14 1413.67,1128.91 1424.11,1126.68 1434.54,1124.45 1444.98,1122.22 1455.41,1119.99 1465.84,1117.76 1476.28,1115.54 1486.71,1113.31 1497.15,1111.09 1507.58,1108.87 1518.02,1106.65 1528.45,1104.44 1538.88,1102.22 1549.32,1100.01 1559.75,1097.8 1570.19,1095.59 1580.62,1093.38 1591.06,1091.17 1601.49,1088.97 1611.92,1086.76 1622.36,1084.55 1632.79,1082.35 1643.23,1080.14 1653.66,1077.94 1664.1,1075.74 1674.53,1073.54 1684.96,1071.34 1695.4,1069.13 1705.83,1066.93 1716.27,1064.73 1726.7,1062.52 1737.14,1060.31 1747.57,1058.1 1758,1055.88 1768.44,1053.66 1778.87,1051.43 1789.31,1049.2 1799.74,1046.95 1810.18,1044.7 1820.61,1042.44 1831.04,1040.17 1841.48,1037.89 1851.91,1035.6 1862.35,1033.29 1872.78,1030.98 1883.21,1028.64 1893.65,1026.3 1904.08,1023.94 1914.52,1021.56 1924.95,1019.17 1935.39,1016.77 1945.82,1014.35 1956.25,1011.91 1966.69,1009.47 1977.12,1007.01 1987.56,1004.54 1997.99,1002.05 2008.43,999.56 2018.86,997.057 2029.29,994.544 2039.73,992.022 2050.16,989.492 2060.6,986.955 2071.03,984.411 2081.47,981.86 2091.9,979.304 2102.33,976.742 2112.77,974.174 2123.2,971.601 2133.64,969.023 2144.07,966.439 2154.51,963.849 2164.94,961.255 2175.37,958.656 2185.81,956.052 2196.24,953.445 2206.68,950.834 2217.11,948.222 2227.54,945.608 2237.98,942.993 2248.41,940.377 2258.85,937.762 2269.28,935.147 2279.72,932.533 2290.15,929.918 "/>
<polyline clip-path="url(#clip632)" style="stroke:#c271d2; stroke-linecap:round; stroke-linejoin:round; stroke-width:4; stroke-opacity:1; fill:none" points="203.301,1432.24 213.735,1431.08 224.17,1429.91 234.604,1428.75 245.038,1427.59 255.472,1426.43 265.907,1425.27 276.341,1424.11 286.775,1422.96 297.209,1421.8 307.643,1420.64 318.078,1419.49 328.512,1418.34 338.946,1417.18 349.38,1416.03 359.815,1414.88 370.249,1413.73 380.683,1412.58 391.117,1411.44 401.552,1410.29 411.986,1409.14 422.42,1407.99 432.854,1406.85 443.289,1405.7 453.723,1404.56 464.157,1403.41 474.591,1402.26 485.026,1401.11 495.46,1399.96 505.894,1398.81 516.328,1397.65 526.763,1396.5 537.197,1395.34 547.631,1394.17 558.065,1393.01 568.5,1391.84 578.934,1390.66 589.368,1389.49 599.802,1388.31 610.237,1387.13 620.671,1385.94 631.105,1384.75 641.539,1383.56 651.974,1382.37 662.408,1381.18 672.842,1379.98 683.276,1378.79 693.711,1377.59 704.145,1376.39 714.579,1375.18 725.013,1373.98 735.448,1372.77 745.882,1371.56 756.316,1370.36 766.75,1369.15 777.185,1367.94 787.619,1366.73 798.053,1365.52 808.487,1364.31 818.922,1363.1 829.356,1361.89 839.79,1360.68 850.224,1359.47 860.659,1358.26 871.093,1357.06 881.527,1355.85 891.961,1354.65 902.396,1353.45 912.83,1352.25 923.264,1351.05 933.698,1349.86 944.133,1348.67 954.567,1347.48 965.001,1346.3 975.435,1345.12 985.87,1343.94 996.304,1342.78 1006.74,1341.61 1017.17,1340.46 1027.61,1339.31 1038.04,1338.16 1048.48,1337.03 1058.91,1335.9 1069.34,1334.77 1079.78,1333.65 1090.21,1332.54 1100.65,1331.44 1111.08,1330.34 1121.51,1329.25 1131.95,1328.16 1142.38,1327.09 1152.82,1326.01 1163.25,1324.95 1173.69,1323.89 1184.12,1322.84 1194.55,1321.79 1204.99,1320.75 1215.42,1319.72 1225.86,1318.69 1236.29,1317.67 1246.73,1316.65 1257.16,1315.64 1267.59,1314.64 1278.03,1313.65 1288.46,1312.66 1298.9,1311.67 1309.33,1310.69 1319.77,1309.72 1330.2,1308.76 1340.63,1307.8 1351.07,1306.85 1361.5,1305.9 1371.94,1304.96 1382.37,1304.03 1392.81,1303.1 1403.24,1302.17 1413.67,1301.26 1424.11,1300.35 1434.54,1299.44 1444.98,1298.55 1455.41,1297.65 1465.84,1296.77 1476.28,1295.89 1486.71,1295.01 1497.15,1294.15 1507.58,1293.28 1518.02,1292.43 1528.45,1291.58 1538.88,1290.73 1549.32,1289.89 1559.75,1289.06 1570.19,1288.23 1580.62,1287.41 1591.06,1286.6 1601.49,1285.79 1611.92,1284.98 1622.36,1284.18 1632.79,1283.39 1643.23,1282.6 1653.66,1281.82 1664.1,1281.05 1674.53,1280.28 1684.96,1279.51 1695.4,1278.75 1705.83,1278 1716.27,1277.25 1726.7,1276.51 1737.14,1275.78 1747.57,1275.05 1758,1274.32 1768.44,1273.6 1778.87,1272.89 1789.31,1272.18 1799.74,1271.48 1810.18,1270.78 1820.61,1270.09 1831.04,1269.4 1841.48,1268.72 1851.91,1268.04 1862.35,1267.37 1872.78,1266.71 1883.21,1266.05 1893.65,1265.39 1904.08,1264.74 1914.52,1264.1 1924.95,1263.46 1935.39,1262.82 1945.82,1262.19 1956.25,1261.57 1966.69,1260.95 1977.12,1260.33 1987.56,1259.72 1997.99,1259.1 2008.43,1258.5 2018.86,1257.89 2029.29,1257.29 2039.73,1256.7 2050.16,1256.1 2060.6,1255.51 2071.03,1254.92 2081.47,1254.34 2091.9,1253.76 2102.33,1253.18 2112.77,1252.6 2123.2,1252.03 2133.64,1251.46 2144.07,1250.89 2154.51,1250.33 2164.94,1249.76 2175.37,1249.2 2185.81,1248.63 2196.24,1248.07 2206.68,1247.51 2217.11,1246.94 2227.54,1246.38 2237.98,1245.82 2248.41,1245.26 2258.85,1244.7 2269.28,1244.13 2279.72,1243.57 2290.15,1243.01 "/>
<path clip-path="url(#clip630)" d="M1740.87 354.418 L2279.02 354.418 L2279.02 95.2176 L1740.87 95.2176  Z" fill="#ffffff" fill-rule="evenodd" fill-opacity="1"/>
<polyline clip-path="url(#clip630)" style="stroke:#000000; stroke-linecap:round; stroke-linejoin:round; stroke-width:4; stroke-opacity:1; fill:none" points="1740.87,354.418 2279.02,354.418 2279.02,95.2176 1740.87,95.2176 1740.87,354.418 "/>
<polyline clip-path="url(#clip630)" style="stroke:#009af9; stroke-linecap:round; stroke-linejoin:round; stroke-width:4; stroke-opacity:1; fill:none" points="1765.45,147.058 1912.92,147.058 "/>
<path clip-path="url(#clip630)" d="M1951.34 166.745 Q1949.54 171.375 1947.82 172.787 Q1946.11 174.199 1943.24 174.199 L1939.84 174.199 L1939.84 170.634 L1942.34 170.634 Q1944.1 170.634 1945.07 169.8 Q1946.04 168.967 1947.22 165.865 L1947.99 163.921 L1937.5 138.412 L1942.01 138.412 L1950.12 158.689 L1958.22 138.412 L1962.73 138.412 L1951.34 166.745 Z" fill="#000000" fill-rule="nonzero" fill-opacity="1" /><path clip-path="url(#clip630)" d="M1970.02 160.402 L1977.66 160.402 L1977.66 134.037 L1969.35 135.703 L1969.35 131.444 L1977.61 129.778 L1982.29 129.778 L1982.29 160.402 L1989.93 160.402 L1989.93 164.338 L1970.02 164.338 L1970.02 160.402 Z" fill="#000000" fill-rule="nonzero" fill-opacity="1" /><polyline clip-path="url(#clip630)" style="stroke:#e26f46; stroke-linecap:round; stroke-linejoin:round; stroke-width:4; stroke-opacity:1; fill:none" points="1765.45,198.898 1912.92,198.898 "/>
<path clip-path="url(#clip630)" d="M1951.34 218.585 Q1949.54 223.215 1947.82 224.627 Q1946.11 226.039 1943.24 226.039 L1939.84 226.039 L1939.84 222.474 L1942.34 222.474 Q1944.1 222.474 1945.07 221.64 Q1946.04 220.807 1947.22 217.705 L1947.99 215.761 L1937.5 190.252 L1942.01 190.252 L1950.12 210.529 L1958.22 190.252 L1962.73 190.252 L1951.34 218.585 Z" fill="#000000" fill-rule="nonzero" fill-opacity="1" /><path clip-path="url(#clip630)" d="M1973.24 212.242 L1989.56 212.242 L1989.56 216.178 L1967.61 216.178 L1967.61 212.242 Q1970.28 209.488 1974.86 204.858 Q1979.47 200.205 1980.65 198.863 Q1982.89 196.34 1983.77 194.604 Q1984.68 192.844 1984.68 191.155 Q1984.68 188.4 1982.73 186.664 Q1980.81 184.928 1977.71 184.928 Q1975.51 184.928 1973.05 185.692 Q1970.62 186.455 1967.85 188.006 L1967.85 183.284 Q1970.67 182.15 1973.12 181.571 Q1975.58 180.993 1977.61 180.993 Q1982.99 180.993 1986.18 183.678 Q1989.37 186.363 1989.37 190.854 Q1989.37 192.983 1988.56 194.905 Q1987.78 196.803 1985.67 199.395 Q1985.09 200.067 1981.99 203.284 Q1978.89 206.479 1973.24 212.242 Z" fill="#000000" fill-rule="nonzero" fill-opacity="1" /><polyline clip-path="url(#clip630)" style="stroke:#3da44d; stroke-linecap:round; stroke-linejoin:round; stroke-width:4; stroke-opacity:1; fill:none" points="1765.45,250.738 1912.92,250.738 "/>
<path clip-path="url(#clip630)" d="M1956.27 255.078 Q1956.27 250.379 1954.33 247.717 Q1952.41 245.032 1949.03 245.032 Q1945.65 245.032 1943.7 247.717 Q1941.78 250.379 1941.78 255.078 Q1941.78 259.777 1943.7 262.462 Q1945.65 265.124 1949.03 265.124 Q1952.41 265.124 1954.33 262.462 Q1956.27 259.777 1956.27 255.078 M1941.78 246.027 Q1943.12 243.712 1945.16 242.601 Q1947.22 241.467 1950.07 241.467 Q1954.79 241.467 1957.73 245.217 Q1960.69 248.967 1960.69 255.078 Q1960.69 261.189 1957.73 264.939 Q1954.79 268.689 1950.07 268.689 Q1947.22 268.689 1945.16 267.578 Q1943.12 266.443 1941.78 264.129 L1941.78 268.018 L1937.5 268.018 L1937.5 231.999 L1941.78 231.999 L1941.78 246.027 Z" fill="#000000" fill-rule="nonzero" fill-opacity="1" /><path clip-path="url(#clip630)" d="M1979.54 254.985 Q1974.37 254.985 1972.38 256.166 Q1970.39 257.346 1970.39 260.194 Q1970.39 262.462 1971.87 263.805 Q1973.38 265.124 1975.95 265.124 Q1979.49 265.124 1981.62 262.624 Q1983.77 260.101 1983.77 255.934 L1983.77 254.985 L1979.54 254.985 M1988.03 253.226 L1988.03 268.018 L1983.77 268.018 L1983.77 264.082 Q1982.31 266.443 1980.14 267.578 Q1977.96 268.689 1974.81 268.689 Q1970.83 268.689 1968.47 266.467 Q1966.13 264.221 1966.13 260.471 Q1966.13 256.096 1969.05 253.874 Q1971.99 251.652 1977.8 251.652 L1983.77 251.652 L1983.77 251.235 Q1983.77 248.295 1981.83 246.698 Q1979.91 245.078 1976.41 245.078 Q1974.19 245.078 1972.08 245.61 Q1969.98 246.143 1968.03 247.207 L1968.03 243.272 Q1970.37 242.37 1972.57 241.93 Q1974.77 241.467 1976.85 241.467 Q1982.48 241.467 1985.25 244.383 Q1988.03 247.3 1988.03 253.226 Z" fill="#000000" fill-rule="nonzero" fill-opacity="1" /><path clip-path="url(#clip630)" d="M2015.46 243.087 L2015.46 247.069 Q2013.66 246.073 2011.83 245.587 Q2010.02 245.078 2008.17 245.078 Q2004.03 245.078 2001.74 247.717 Q1999.44 250.332 1999.44 255.078 Q1999.44 259.823 2001.74 262.462 Q2004.03 265.078 2008.17 265.078 Q2010.02 265.078 2011.83 264.592 Q2013.66 264.082 2015.46 263.087 L2015.46 267.022 Q2013.68 267.856 2011.76 268.272 Q2009.86 268.689 2007.71 268.689 Q2001.85 268.689 1998.4 265.008 Q1994.95 261.328 1994.95 255.078 Q1994.95 248.735 1998.42 245.101 Q2001.92 241.467 2007.99 241.467 Q2009.95 241.467 2011.83 241.883 Q2013.7 242.277 2015.46 243.087 Z" fill="#000000" fill-rule="nonzero" fill-opacity="1" /><path clip-path="url(#clip630)" d="M2022.71 231.999 L2026.99 231.999 L2026.99 253.272 L2039.7 242.092 L2045.14 242.092 L2031.39 254.221 L2045.72 268.018 L2040.16 268.018 L2026.99 255.356 L2026.99 268.018 L2022.71 268.018 L2022.71 231.999 Z" fill="#000000" fill-rule="nonzero" fill-opacity="1" /><path clip-path="url(#clip630)" d="M2067.38 254.754 Q2067.38 250.124 2065.46 247.578 Q2063.56 245.032 2060.11 245.032 Q2056.69 245.032 2054.77 247.578 Q2052.87 250.124 2052.87 254.754 Q2052.87 259.36 2054.77 261.906 Q2056.69 264.453 2060.11 264.453 Q2063.56 264.453 2065.46 261.906 Q2067.38 259.36 2067.38 254.754 M2071.64 264.8 Q2071.64 271.42 2068.7 274.638 Q2065.76 277.879 2059.7 277.879 Q2057.45 277.879 2055.46 277.531 Q2053.47 277.207 2051.6 276.513 L2051.6 272.369 Q2053.47 273.388 2055.3 273.874 Q2057.13 274.36 2059.03 274.36 Q2063.22 274.36 2065.3 272.161 Q2067.38 269.985 2067.38 265.564 L2067.38 263.457 Q2066.06 265.749 2064 266.883 Q2061.94 268.018 2059.07 268.018 Q2054.3 268.018 2051.39 264.383 Q2048.47 260.749 2048.47 254.754 Q2048.47 248.735 2051.39 245.101 Q2054.3 241.467 2059.07 241.467 Q2061.94 241.467 2064 242.601 Q2066.06 243.735 2067.38 246.027 L2067.38 242.092 L2071.64 242.092 L2071.64 264.8 Z" fill="#000000" fill-rule="nonzero" fill-opacity="1" /><path clip-path="url(#clip630)" d="M2095.44 246.073 Q2094.72 245.657 2093.86 245.471 Q2093.03 245.263 2092.01 245.263 Q2088.4 245.263 2086.46 247.624 Q2084.54 249.962 2084.54 254.36 L2084.54 268.018 L2080.25 268.018 L2080.25 242.092 L2084.54 242.092 L2084.54 246.12 Q2085.88 243.758 2088.03 242.624 Q2090.18 241.467 2093.26 241.467 Q2093.7 241.467 2094.23 241.536 Q2094.77 241.583 2095.42 241.698 L2095.44 246.073 Z" fill="#000000" fill-rule="nonzero" fill-opacity="1" /><path clip-path="url(#clip630)" d="M2108.91 245.078 Q2105.48 245.078 2103.49 247.763 Q2101.5 250.425 2101.5 255.078 Q2101.5 259.731 2103.47 262.416 Q2105.46 265.078 2108.91 265.078 Q2112.31 265.078 2114.3 262.393 Q2116.29 259.707 2116.29 255.078 Q2116.29 250.471 2114.3 247.786 Q2112.31 245.078 2108.91 245.078 M2108.91 241.467 Q2114.47 241.467 2117.64 245.078 Q2120.81 248.689 2120.81 255.078 Q2120.81 261.444 2117.64 265.078 Q2114.47 268.689 2108.91 268.689 Q2103.33 268.689 2100.16 265.078 Q2097.01 261.444 2097.01 255.078 Q2097.01 248.689 2100.16 245.078 Q2103.33 241.467 2108.91 241.467 Z" fill="#000000" fill-rule="nonzero" fill-opacity="1" /><path clip-path="url(#clip630)" d="M2127.43 257.786 L2127.43 242.092 L2131.69 242.092 L2131.69 257.624 Q2131.69 261.305 2133.12 263.156 Q2134.56 264.985 2137.43 264.985 Q2140.88 264.985 2142.87 262.786 Q2144.88 260.587 2144.88 256.791 L2144.88 242.092 L2149.14 242.092 L2149.14 268.018 L2144.88 268.018 L2144.88 264.036 Q2143.33 266.397 2141.27 267.555 Q2139.23 268.689 2136.53 268.689 Q2132.06 268.689 2129.74 265.911 Q2127.43 263.133 2127.43 257.786 M2138.15 241.467 L2138.15 241.467 Z" fill="#000000" fill-rule="nonzero" fill-opacity="1" /><path clip-path="url(#clip630)" d="M2179.47 252.369 L2179.47 268.018 L2175.21 268.018 L2175.21 252.508 Q2175.21 248.828 2173.77 246.999 Q2172.34 245.17 2169.47 245.17 Q2166.02 245.17 2164.03 247.37 Q2162.04 249.569 2162.04 253.365 L2162.04 268.018 L2157.75 268.018 L2157.75 242.092 L2162.04 242.092 L2162.04 246.12 Q2163.56 243.782 2165.62 242.624 Q2167.71 241.467 2170.41 241.467 Q2174.88 241.467 2177.17 244.245 Q2179.47 246.999 2179.47 252.369 Z" fill="#000000" fill-rule="nonzero" fill-opacity="1" /><path clip-path="url(#clip630)" d="M2205.02 246.027 L2205.02 231.999 L2209.28 231.999 L2209.28 268.018 L2205.02 268.018 L2205.02 264.129 Q2203.68 266.443 2201.62 267.578 Q2199.58 268.689 2196.71 268.689 Q2192.01 268.689 2189.05 264.939 Q2186.11 261.189 2186.11 255.078 Q2186.11 248.967 2189.05 245.217 Q2192.01 241.467 2196.71 241.467 Q2199.58 241.467 2201.62 242.601 Q2203.68 243.712 2205.02 246.027 M2190.51 255.078 Q2190.51 259.777 2192.43 262.462 Q2194.37 265.124 2197.75 265.124 Q2201.13 265.124 2203.08 262.462 Q2205.02 259.777 2205.02 255.078 Q2205.02 250.379 2203.08 247.717 Q2201.13 245.032 2197.75 245.032 Q2194.37 245.032 2192.43 247.717 Q2190.51 250.379 2190.51 255.078 Z" fill="#000000" fill-rule="nonzero" fill-opacity="1" /><path clip-path="url(#clip630)" d="M2234.53 264.082 L2242.17 264.082 L2242.17 237.717 L2233.86 239.383 L2233.86 235.124 L2242.13 233.458 L2246.8 233.458 L2246.8 264.082 L2254.44 264.082 L2254.44 268.018 L2234.53 268.018 L2234.53 264.082 Z" fill="#000000" fill-rule="nonzero" fill-opacity="1" /><polyline clip-path="url(#clip630)" style="stroke:#c271d2; stroke-linecap:round; stroke-linejoin:round; stroke-width:4; stroke-opacity:1; fill:none" points="1765.45,302.578 1912.92,302.578 "/>
<path clip-path="url(#clip630)" d="M1956.27 306.918 Q1956.27 302.219 1954.33 299.557 Q1952.41 296.872 1949.03 296.872 Q1945.65 296.872 1943.7 299.557 Q1941.78 302.219 1941.78 306.918 Q1941.78 311.617 1943.7 314.302 Q1945.65 316.964 1949.03 316.964 Q1952.41 316.964 1954.33 314.302 Q1956.27 311.617 1956.27 306.918 M1941.78 297.867 Q1943.12 295.552 1945.16 294.441 Q1947.22 293.307 1950.07 293.307 Q1954.79 293.307 1957.73 297.057 Q1960.69 300.807 1960.69 306.918 Q1960.69 313.029 1957.73 316.779 Q1954.79 320.529 1950.07 320.529 Q1947.22 320.529 1945.16 319.418 Q1943.12 318.283 1941.78 315.969 L1941.78 319.858 L1937.5 319.858 L1937.5 283.839 L1941.78 283.839 L1941.78 297.867 Z" fill="#000000" fill-rule="nonzero" fill-opacity="1" /><path clip-path="url(#clip630)" d="M1979.54 306.825 Q1974.37 306.825 1972.38 308.006 Q1970.39 309.186 1970.39 312.034 Q1970.39 314.302 1971.87 315.645 Q1973.38 316.964 1975.95 316.964 Q1979.49 316.964 1981.62 314.464 Q1983.77 311.941 1983.77 307.774 L1983.77 306.825 L1979.54 306.825 M1988.03 305.066 L1988.03 319.858 L1983.77 319.858 L1983.77 315.922 Q1982.31 318.283 1980.14 319.418 Q1977.96 320.529 1974.81 320.529 Q1970.83 320.529 1968.47 318.307 Q1966.13 316.061 1966.13 312.311 Q1966.13 307.936 1969.05 305.714 Q1971.99 303.492 1977.8 303.492 L1983.77 303.492 L1983.77 303.075 Q1983.77 300.135 1981.83 298.538 Q1979.91 296.918 1976.41 296.918 Q1974.19 296.918 1972.08 297.45 Q1969.98 297.983 1968.03 299.047 L1968.03 295.112 Q1970.37 294.21 1972.57 293.77 Q1974.77 293.307 1976.85 293.307 Q1982.48 293.307 1985.25 296.223 Q1988.03 299.14 1988.03 305.066 Z" fill="#000000" fill-rule="nonzero" fill-opacity="1" /><path clip-path="url(#clip630)" d="M2015.46 294.927 L2015.46 298.909 Q2013.66 297.913 2011.83 297.427 Q2010.02 296.918 2008.17 296.918 Q2004.03 296.918 2001.74 299.557 Q1999.44 302.172 1999.44 306.918 Q1999.44 311.663 2001.74 314.302 Q2004.03 316.918 2008.17 316.918 Q2010.02 316.918 2011.83 316.432 Q2013.66 315.922 2015.46 314.927 L2015.46 318.862 Q2013.68 319.696 2011.76 320.112 Q2009.86 320.529 2007.71 320.529 Q2001.85 320.529 1998.4 316.848 Q1994.95 313.168 1994.95 306.918 Q1994.95 300.575 1998.42 296.941 Q2001.92 293.307 2007.99 293.307 Q2009.95 293.307 2011.83 293.723 Q2013.7 294.117 2015.46 294.927 Z" fill="#000000" fill-rule="nonzero" fill-opacity="1" /><path clip-path="url(#clip630)" d="M2022.71 283.839 L2026.99 283.839 L2026.99 305.112 L2039.7 293.932 L2045.14 293.932 L2031.39 306.061 L2045.72 319.858 L2040.16 319.858 L2026.99 307.196 L2026.99 319.858 L2022.71 319.858 L2022.71 283.839 Z" fill="#000000" fill-rule="nonzero" fill-opacity="1" /><path clip-path="url(#clip630)" d="M2067.38 306.594 Q2067.38 301.964 2065.46 299.418 Q2063.56 296.872 2060.11 296.872 Q2056.69 296.872 2054.77 299.418 Q2052.87 301.964 2052.87 306.594 Q2052.87 311.2 2054.77 313.746 Q2056.69 316.293 2060.11 316.293 Q2063.56 316.293 2065.46 313.746 Q2067.38 311.2 2067.38 306.594 M2071.64 316.64 Q2071.64 323.26 2068.7 326.478 Q2065.76 329.719 2059.7 329.719 Q2057.45 329.719 2055.46 329.371 Q2053.47 329.047 2051.6 328.353 L2051.6 324.209 Q2053.47 325.228 2055.3 325.714 Q2057.13 326.2 2059.03 326.2 Q2063.22 326.2 2065.3 324.001 Q2067.38 321.825 2067.38 317.404 L2067.38 315.297 Q2066.06 317.589 2064 318.723 Q2061.94 319.858 2059.07 319.858 Q2054.3 319.858 2051.39 316.223 Q2048.47 312.589 2048.47 306.594 Q2048.47 300.575 2051.39 296.941 Q2054.3 293.307 2059.07 293.307 Q2061.94 293.307 2064 294.441 Q2066.06 295.575 2067.38 297.867 L2067.38 293.932 L2071.64 293.932 L2071.64 316.64 Z" fill="#000000" fill-rule="nonzero" fill-opacity="1" /><path clip-path="url(#clip630)" d="M2095.44 297.913 Q2094.72 297.497 2093.86 297.311 Q2093.03 297.103 2092.01 297.103 Q2088.4 297.103 2086.46 299.464 Q2084.54 301.802 2084.54 306.2 L2084.54 319.858 L2080.25 319.858 L2080.25 293.932 L2084.54 293.932 L2084.54 297.96 Q2085.88 295.598 2088.03 294.464 Q2090.18 293.307 2093.26 293.307 Q2093.7 293.307 2094.23 293.376 Q2094.77 293.423 2095.42 293.538 L2095.44 297.913 Z" fill="#000000" fill-rule="nonzero" fill-opacity="1" /><path clip-path="url(#clip630)" d="M2108.91 296.918 Q2105.48 296.918 2103.49 299.603 Q2101.5 302.265 2101.5 306.918 Q2101.5 311.571 2103.47 314.256 Q2105.46 316.918 2108.91 316.918 Q2112.31 316.918 2114.3 314.233 Q2116.29 311.547 2116.29 306.918 Q2116.29 302.311 2114.3 299.626 Q2112.31 296.918 2108.91 296.918 M2108.91 293.307 Q2114.47 293.307 2117.64 296.918 Q2120.81 300.529 2120.81 306.918 Q2120.81 313.284 2117.64 316.918 Q2114.47 320.529 2108.91 320.529 Q2103.33 320.529 2100.16 316.918 Q2097.01 313.284 2097.01 306.918 Q2097.01 300.529 2100.16 296.918 Q2103.33 293.307 2108.91 293.307 Z" fill="#000000" fill-rule="nonzero" fill-opacity="1" /><path clip-path="url(#clip630)" d="M2127.43 309.626 L2127.43 293.932 L2131.69 293.932 L2131.69 309.464 Q2131.69 313.145 2133.12 314.996 Q2134.56 316.825 2137.43 316.825 Q2140.88 316.825 2142.87 314.626 Q2144.88 312.427 2144.88 308.631 L2144.88 293.932 L2149.14 293.932 L2149.14 319.858 L2144.88 319.858 L2144.88 315.876 Q2143.33 318.237 2141.27 319.395 Q2139.23 320.529 2136.53 320.529 Q2132.06 320.529 2129.74 317.751 Q2127.43 314.973 2127.43 309.626 M2138.15 293.307 L2138.15 293.307 Z" fill="#000000" fill-rule="nonzero" fill-opacity="1" /><path clip-path="url(#clip630)" d="M2179.47 304.209 L2179.47 319.858 L2175.21 319.858 L2175.21 304.348 Q2175.21 300.668 2173.77 298.839 Q2172.34 297.01 2169.47 297.01 Q2166.02 297.01 2164.03 299.21 Q2162.04 301.409 2162.04 305.205 L2162.04 319.858 L2157.75 319.858 L2157.75 293.932 L2162.04 293.932 L2162.04 297.96 Q2163.56 295.622 2165.62 294.464 Q2167.71 293.307 2170.41 293.307 Q2174.88 293.307 2177.17 296.085 Q2179.47 298.839 2179.47 304.209 Z" fill="#000000" fill-rule="nonzero" fill-opacity="1" /><path clip-path="url(#clip630)" d="M2205.02 297.867 L2205.02 283.839 L2209.28 283.839 L2209.28 319.858 L2205.02 319.858 L2205.02 315.969 Q2203.68 318.283 2201.62 319.418 Q2199.58 320.529 2196.71 320.529 Q2192.01 320.529 2189.05 316.779 Q2186.11 313.029 2186.11 306.918 Q2186.11 300.807 2189.05 297.057 Q2192.01 293.307 2196.71 293.307 Q2199.58 293.307 2201.62 294.441 Q2203.68 295.552 2205.02 297.867 M2190.51 306.918 Q2190.51 311.617 2192.43 314.302 Q2194.37 316.964 2197.75 316.964 Q2201.13 316.964 2203.08 314.302 Q2205.02 311.617 2205.02 306.918 Q2205.02 302.219 2203.08 299.557 Q2201.13 296.872 2197.75 296.872 Q2194.37 296.872 2192.43 299.557 Q2190.51 302.219 2190.51 306.918 Z" fill="#000000" fill-rule="nonzero" fill-opacity="1" /><path clip-path="url(#clip630)" d="M2237.75 315.922 L2254.07 315.922 L2254.07 319.858 L2232.13 319.858 L2232.13 315.922 Q2234.79 313.168 2239.37 308.538 Q2243.98 303.885 2245.16 302.543 Q2247.41 300.02 2248.28 298.284 Q2249.19 296.524 2249.19 294.835 Q2249.19 292.08 2247.24 290.344 Q2245.32 288.608 2242.22 288.608 Q2240.02 288.608 2237.57 289.372 Q2235.14 290.135 2232.36 291.686 L2232.36 286.964 Q2235.18 285.83 2237.64 285.251 Q2240.09 284.673 2242.13 284.673 Q2247.5 284.673 2250.69 287.358 Q2253.89 290.043 2253.89 294.534 Q2253.89 296.663 2253.08 298.585 Q2252.29 300.483 2250.18 303.075 Q2249.6 303.747 2246.5 306.964 Q2243.4 310.159 2237.75 315.922 Z" fill="#000000" fill-rule="nonzero" fill-opacity="1" /></svg>
