<?xml version="1.0" encoding="utf-8"?>
<svg xmlns="http://www.w3.org/2000/svg" xmlns:xlink="http://www.w3.org/1999/xlink" width="600" height="400" viewBox="0 0 2400 1600">
<defs>
  <clipPath id="clip690">
    <rect x="0" y="0" width="2400" height="1600"/>
  </clipPath>
</defs>
<path clip-path="url(#clip690)" d="M0 1600 L2400 1600 L2400 0 L0 0  Z" fill="#ffffff" fill-rule="evenodd" fill-opacity="1"/>
<defs>
  <clipPath id="clip691">
    <rect x="480" y="0" width="1681" height="1600"/>
  </clipPath>
</defs>
<path clip-path="url(#clip690)" d="M112.177 1486.45 L2352.76 1486.45 L2352.76 47.2441 L112.177 47.2441  Z" fill="#ffffff" fill-rule="evenodd" fill-opacity="1"/>
<defs>
  <clipPath id="clip692">
    <rect x="112" y="47" width="2242" height="1440"/>
  </clipPath>
</defs>
<polyline clip-path="url(#clip692)" style="stroke:#000000; stroke-linecap:round; stroke-linejoin:round; stroke-width:2; stroke-opacity:0.1; fill:none" points="175.59,1486.45 175.59,47.2441 "/>
<polyline clip-path="url(#clip692)" style="stroke:#000000; stroke-linecap:round; stroke-linejoin:round; stroke-width:2; stroke-opacity:0.1; fill:none" points="704.028,1486.45 704.028,47.2441 "/>
<polyline clip-path="url(#clip692)" style="stroke:#000000; stroke-linecap:round; stroke-linejoin:round; stroke-width:2; stroke-opacity:0.1; fill:none" points="1232.47,1486.45 1232.47,47.2441 "/>
<polyline clip-path="url(#clip692)" style="stroke:#000000; stroke-linecap:round; stroke-linejoin:round; stroke-width:2; stroke-opacity:0.1; fill:none" points="1760.9,1486.45 1760.9,47.2441 "/>
<polyline clip-path="url(#clip692)" style="stroke:#000000; stroke-linecap:round; stroke-linejoin:round; stroke-width:2; stroke-opacity:0.1; fill:none" points="2289.34,1486.45 2289.34,47.2441 "/>
<polyline clip-path="url(#clip692)" style="stroke:#000000; stroke-linecap:round; stroke-linejoin:round; stroke-width:2; stroke-opacity:0.1; fill:none" points="112.177,1408.88 2352.76,1408.88 "/>
<polyline clip-path="url(#clip692)" style="stroke:#000000; stroke-linecap:round; stroke-linejoin:round; stroke-width:2; stroke-opacity:0.1; fill:none" points="112.177,1130.1 2352.76,1130.1 "/>
<polyline clip-path="url(#clip692)" style="stroke:#000000; stroke-linecap:round; stroke-linejoin:round; stroke-width:2; stroke-opacity:0.1; fill:none" points="112.177,851.309 2352.76,851.309 "/>
<polyline clip-path="url(#clip692)" style="stroke:#000000; stroke-linecap:round; stroke-linejoin:round; stroke-width:2; stroke-opacity:0.1; fill:none" points="112.177,572.521 2352.76,572.521 "/>
<polyline clip-path="url(#clip692)" style="stroke:#000000; stroke-linecap:round; stroke-linejoin:round; stroke-width:2; stroke-opacity:0.1; fill:none" points="112.177,293.733 2352.76,293.733 "/>
<polyline clip-path="url(#clip690)" style="stroke:#000000; stroke-linecap:round; stroke-linejoin:round; stroke-width:4; stroke-opacity:1; fill:none" points="112.177,1486.45 2352.76,1486.45 "/>
<polyline clip-path="url(#clip690)" style="stroke:#000000; stroke-linecap:round; stroke-linejoin:round; stroke-width:4; stroke-opacity:1; fill:none" points="175.59,1486.45 175.59,1467.55 "/>
<polyline clip-path="url(#clip690)" style="stroke:#000000; stroke-linecap:round; stroke-linejoin:round; stroke-width:4; stroke-opacity:1; fill:none" points="704.028,1486.45 704.028,1467.55 "/>
<polyline clip-path="url(#clip690)" style="stroke:#000000; stroke-linecap:round; stroke-linejoin:round; stroke-width:4; stroke-opacity:1; fill:none" points="1232.47,1486.45 1232.47,1467.55 "/>
<polyline clip-path="url(#clip690)" style="stroke:#000000; stroke-linecap:round; stroke-linejoin:round; stroke-width:4; stroke-opacity:1; fill:none" points="1760.9,1486.45 1760.9,1467.55 "/>
<polyline clip-path="url(#clip690)" style="stroke:#000000; stroke-linecap:round; stroke-linejoin:round; stroke-width:4; stroke-opacity:1; fill:none" points="2289.34,1486.45 2289.34,1467.55 "/>
<path clip-path="url(#clip690)" d="M175.59 1517.37 Q171.979 1517.37 170.15 1520.93 Q168.344 1524.47 168.344 1531.6 Q168.344 1538.71 170.15 1542.27 Q171.979 1545.82 175.59 1545.82 Q179.224 1545.82 181.03 1542.27 Q182.858 1538.71 182.858 1531.6 Q182.858 1524.47 181.03 1520.93 Q179.224 1517.37 175.59 1517.37 M175.59 1513.66 Q181.4 1513.66 184.455 1518.27 Q187.534 1522.85 187.534 1531.6 Q187.534 1540.33 184.455 1544.94 Q181.4 1549.52 175.59 1549.52 Q169.78 1549.52 166.701 1544.94 Q163.645 1540.33 163.645 1531.6 Q163.645 1522.85 166.701 1518.27 Q169.78 1513.66 175.59 1513.66 Z" fill="#000000" fill-rule="nonzero" fill-opacity="1" /><path clip-path="url(#clip690)" d="M683.299 1544.91 L699.618 1544.91 L699.618 1548.85 L677.674 1548.85 L677.674 1544.91 Q680.336 1542.16 684.919 1537.53 Q689.526 1532.88 690.706 1531.53 Q692.952 1529.01 693.831 1527.27 Q694.734 1525.51 694.734 1523.82 Q694.734 1521.07 692.79 1519.33 Q690.869 1517.6 687.767 1517.6 Q685.568 1517.6 683.114 1518.36 Q680.683 1519.13 677.906 1520.68 L677.906 1515.95 Q680.73 1514.82 683.183 1514.24 Q685.637 1513.66 687.674 1513.66 Q693.044 1513.66 696.239 1516.35 Q699.433 1519.03 699.433 1523.52 Q699.433 1525.65 698.623 1527.57 Q697.836 1529.47 695.73 1532.07 Q695.151 1532.74 692.049 1535.95 Q688.947 1539.15 683.299 1544.91 Z" fill="#000000" fill-rule="nonzero" fill-opacity="1" /><path clip-path="url(#clip690)" d="M709.48 1514.29 L727.836 1514.29 L727.836 1518.22 L713.762 1518.22 L713.762 1526.7 Q714.78 1526.35 715.799 1526.19 Q716.817 1526 717.836 1526 Q723.623 1526 727.003 1529.17 Q730.382 1532.34 730.382 1537.76 Q730.382 1543.34 726.91 1546.44 Q723.438 1549.52 717.118 1549.52 Q714.942 1549.52 712.674 1549.15 Q710.429 1548.78 708.021 1548.04 L708.021 1543.34 Q710.105 1544.47 712.327 1545.03 Q714.549 1545.58 717.026 1545.58 Q721.03 1545.58 723.368 1543.48 Q725.706 1541.37 725.706 1537.76 Q725.706 1534.15 723.368 1532.04 Q721.03 1529.94 717.026 1529.94 Q715.151 1529.94 713.276 1530.35 Q711.424 1530.77 709.48 1531.65 L709.48 1514.29 Z" fill="#000000" fill-rule="nonzero" fill-opacity="1" /><path clip-path="url(#clip690)" d="M1207.17 1514.29 L1225.52 1514.29 L1225.52 1518.22 L1211.45 1518.22 L1211.45 1526.7 Q1212.47 1526.35 1213.49 1526.19 Q1214.5 1526 1215.52 1526 Q1221.31 1526 1224.69 1529.17 Q1228.07 1532.34 1228.07 1537.76 Q1228.07 1543.34 1224.6 1546.44 Q1221.12 1549.52 1214.8 1549.52 Q1212.63 1549.52 1210.36 1549.15 Q1208.11 1548.78 1205.71 1548.04 L1205.71 1543.34 Q1207.79 1544.47 1210.01 1545.03 Q1212.24 1545.58 1214.71 1545.58 Q1218.72 1545.58 1221.05 1543.48 Q1223.39 1541.37 1223.39 1537.76 Q1223.39 1534.15 1221.05 1532.04 Q1218.72 1529.94 1214.71 1529.94 Q1212.84 1529.94 1210.96 1530.35 Q1209.11 1530.77 1207.17 1531.65 L1207.17 1514.29 Z" fill="#000000" fill-rule="nonzero" fill-opacity="1" /><path clip-path="url(#clip690)" d="M1247.28 1517.37 Q1243.67 1517.37 1241.84 1520.93 Q1240.04 1524.47 1240.04 1531.6 Q1240.04 1538.71 1241.84 1542.27 Q1243.67 1545.82 1247.28 1545.82 Q1250.92 1545.82 1252.72 1542.27 Q1254.55 1538.71 1254.55 1531.6 Q1254.55 1524.47 1252.72 1520.93 Q1250.92 1517.37 1247.28 1517.37 M1247.28 1513.66 Q1253.09 1513.66 1256.15 1518.27 Q1259.23 1522.85 1259.23 1531.6 Q1259.23 1540.33 1256.15 1544.94 Q1253.09 1549.52 1247.28 1549.52 Q1241.47 1549.52 1238.39 1544.94 Q1235.34 1540.33 1235.34 1531.6 Q1235.34 1522.85 1238.39 1518.27 Q1241.47 1513.66 1247.28 1513.66 Z" fill="#000000" fill-rule="nonzero" fill-opacity="1" /><path clip-path="url(#clip690)" d="M1734.76 1514.29 L1756.98 1514.29 L1756.98 1516.28 L1744.44 1548.85 L1739.55 1548.85 L1751.36 1518.22 L1734.76 1518.22 L1734.76 1514.29 Z" fill="#000000" fill-rule="nonzero" fill-opacity="1" /><path clip-path="url(#clip690)" d="M1766.15 1514.29 L1784.5 1514.29 L1784.5 1518.22 L1770.43 1518.22 L1770.43 1526.7 Q1771.45 1526.35 1772.47 1526.19 Q1773.49 1526 1774.5 1526 Q1780.29 1526 1783.67 1529.17 Q1787.05 1532.34 1787.05 1537.76 Q1787.05 1543.34 1783.58 1546.44 Q1780.11 1549.52 1773.79 1549.52 Q1771.61 1549.52 1769.34 1549.15 Q1767.1 1548.78 1764.69 1548.04 L1764.69 1543.34 Q1766.77 1544.47 1769 1545.03 Q1771.22 1545.58 1773.69 1545.58 Q1777.7 1545.58 1780.04 1543.48 Q1782.37 1541.37 1782.37 1537.76 Q1782.37 1534.15 1780.04 1532.04 Q1777.7 1529.94 1773.69 1529.94 Q1771.82 1529.94 1769.94 1530.35 Q1768.09 1530.77 1766.15 1531.65 L1766.15 1514.29 Z" fill="#000000" fill-rule="nonzero" fill-opacity="1" /><path clip-path="url(#clip690)" d="M2248.95 1544.91 L2256.59 1544.91 L2256.59 1518.55 L2248.28 1520.21 L2248.28 1515.95 L2256.54 1514.29 L2261.22 1514.29 L2261.22 1544.91 L2268.86 1544.91 L2268.86 1548.85 L2248.95 1548.85 L2248.95 1544.91 Z" fill="#000000" fill-rule="nonzero" fill-opacity="1" /><path clip-path="url(#clip690)" d="M2288.3 1517.37 Q2284.69 1517.37 2282.86 1520.93 Q2281.06 1524.47 2281.06 1531.6 Q2281.06 1538.71 2282.86 1542.27 Q2284.69 1545.82 2288.3 1545.82 Q2291.94 1545.82 2293.74 1542.27 Q2295.57 1538.71 2295.57 1531.6 Q2295.57 1524.47 2293.74 1520.93 Q2291.94 1517.37 2288.3 1517.37 M2288.3 1513.66 Q2294.11 1513.66 2297.17 1518.27 Q2300.25 1522.85 2300.25 1531.6 Q2300.25 1540.33 2297.17 1544.94 Q2294.11 1549.52 2288.3 1549.52 Q2282.49 1549.52 2279.41 1544.94 Q2276.36 1540.33 2276.36 1531.6 Q2276.36 1522.85 2279.41 1518.27 Q2282.49 1513.66 2288.3 1513.66 Z" fill="#000000" fill-rule="nonzero" fill-opacity="1" /><path clip-path="url(#clip690)" d="M2318.46 1517.37 Q2314.85 1517.37 2313.02 1520.93 Q2311.22 1524.47 2311.22 1531.6 Q2311.22 1538.71 2313.02 1542.27 Q2314.85 1545.82 2318.46 1545.82 Q2322.1 1545.82 2323.9 1542.27 Q2325.73 1538.71 2325.73 1531.6 Q2325.73 1524.47 2323.9 1520.93 Q2322.1 1517.37 2318.46 1517.37 M2318.46 1513.66 Q2324.27 1513.66 2327.33 1518.27 Q2330.41 1522.85 2330.41 1531.6 Q2330.41 1540.33 2327.33 1544.94 Q2324.27 1549.52 2318.46 1549.52 Q2312.65 1549.52 2309.57 1544.94 Q2306.52 1540.33 2306.52 1531.6 Q2306.52 1522.85 2309.57 1518.27 Q2312.65 1513.66 2318.46 1513.66 Z" fill="#000000" fill-rule="nonzero" fill-opacity="1" /><polyline clip-path="url(#clip690)" style="stroke:#000000; stroke-linecap:round; stroke-linejoin:round; stroke-width:4; stroke-opacity:1; fill:none" points="112.177,1486.45 112.177,47.2441 "/>
<polyline clip-path="url(#clip690)" style="stroke:#000000; stroke-linecap:round; stroke-linejoin:round; stroke-width:4; stroke-opacity:1; fill:none" points="112.177,1408.88 131.075,1408.88 "/>
<polyline clip-path="url(#clip690)" style="stroke:#000000; stroke-linecap:round; stroke-linejoin:round; stroke-width:4; stroke-opacity:1; fill:none" points="112.177,1130.1 131.075,1130.1 "/>
<polyline clip-path="url(#clip690)" style="stroke:#000000; stroke-linecap:round; stroke-linejoin:round; stroke-width:4; stroke-opacity:1; fill:none" points="112.177,851.309 131.075,851.309 "/>
<polyline clip-path="url(#clip690)" style="stroke:#000000; stroke-linecap:round; stroke-linejoin:round; stroke-width:4; stroke-opacity:1; fill:none" points="112.177,572.521 131.075,572.521 "/>
<polyline clip-path="url(#clip690)" style="stroke:#000000; stroke-linecap:round; stroke-linejoin:round; stroke-width:4; stroke-opacity:1; fill:none" points="112.177,293.733 131.075,293.733 "/>
<path clip-path="url(#clip690)" d="M64.2328 1394.68 Q60.6217 1394.68 58.793 1398.25 Q56.9875 1401.79 56.9875 1408.92 Q56.9875 1416.03 58.793 1419.59 Q60.6217 1423.13 64.2328 1423.13 Q67.867 1423.13 69.6726 1419.59 Q71.5013 1416.03 71.5013 1408.92 Q71.5013 1401.79 69.6726 1398.25 Q67.867 1394.68 64.2328 1394.68 M64.2328 1390.98 Q70.0429 1390.98 73.0985 1395.59 Q76.1772 1400.17 76.1772 1408.92 Q76.1772 1417.65 73.0985 1422.25 Q70.0429 1426.84 64.2328 1426.84 Q58.4226 1426.84 55.344 1422.25 Q52.2884 1417.65 52.2884 1408.92 Q52.2884 1400.17 55.344 1395.59 Q58.4226 1390.98 64.2328 1390.98 Z" fill="#000000" fill-rule="nonzero" fill-opacity="1" /><path clip-path="url(#clip690)" d="M59.8578 1143.44 L76.1772 1143.44 L76.1772 1147.38 L54.2328 1147.38 L54.2328 1143.44 Q56.8949 1140.69 61.4782 1136.06 Q66.0846 1131.4 67.2652 1130.06 Q69.5105 1127.54 70.3902 1125.8 Q71.2929 1124.04 71.2929 1122.35 Q71.2929 1119.6 69.3485 1117.86 Q67.4272 1116.13 64.3254 1116.13 Q62.1263 1116.13 59.6726 1116.89 Q57.2421 1117.65 54.4643 1119.21 L54.4643 1114.48 Q57.2884 1113.35 59.7421 1112.77 Q62.1958 1112.19 64.2328 1112.19 Q69.6031 1112.19 72.7976 1114.88 Q75.992 1117.56 75.992 1122.05 Q75.992 1124.18 75.1818 1126.1 Q74.3948 1128 72.2883 1130.59 Q71.7096 1131.27 68.6078 1134.48 Q65.5059 1137.68 59.8578 1143.44 Z" fill="#000000" fill-rule="nonzero" fill-opacity="1" /><path clip-path="url(#clip690)" d="M66.5939 838.103 L54.7884 856.552 L66.5939 856.552 L66.5939 838.103 M65.367 834.029 L71.2466 834.029 L71.2466 856.552 L76.1772 856.552 L76.1772 860.441 L71.2466 860.441 L71.2466 868.589 L66.5939 868.589 L66.5939 860.441 L50.9921 860.441 L50.9921 855.927 L65.367 834.029 Z" fill="#000000" fill-rule="nonzero" fill-opacity="1" /><path clip-path="url(#clip690)" d="M64.6495 570.658 Q61.5013 570.658 59.6495 572.81 Q57.8208 574.963 57.8208 578.713 Q57.8208 582.44 59.6495 584.616 Q61.5013 586.769 64.6495 586.769 Q67.7976 586.769 69.6263 584.616 Q71.4781 582.44 71.4781 578.713 Q71.4781 574.963 69.6263 572.81 Q67.7976 570.658 64.6495 570.658 M73.9318 556.005 L73.9318 560.264 Q72.1726 559.431 70.367 558.991 Q68.5846 558.551 66.8254 558.551 Q62.1958 558.551 59.7421 561.676 Q57.3115 564.801 56.9643 571.121 Q58.33 569.107 60.3902 568.042 Q62.4504 566.954 64.9272 566.954 Q70.1355 566.954 73.1448 570.125 Q76.1772 573.273 76.1772 578.713 Q76.1772 584.037 73.029 587.255 Q69.8809 590.472 64.6495 590.472 Q58.6541 590.472 55.4828 585.889 Q52.3116 581.283 52.3116 572.556 Q52.3116 564.361 56.2004 559.5 Q60.0893 554.616 66.6402 554.616 Q68.3994 554.616 70.1818 554.963 Q71.9874 555.31 73.9318 556.005 Z" fill="#000000" fill-rule="nonzero" fill-opacity="1" /><path clip-path="url(#clip690)" d="M64.3254 294.601 Q60.9921 294.601 59.0708 296.384 Q57.1726 298.166 57.1726 301.291 Q57.1726 304.416 59.0708 306.198 Q60.9921 307.981 64.3254 307.981 Q67.6587 307.981 69.58 306.198 Q71.5013 304.393 71.5013 301.291 Q71.5013 298.166 69.58 296.384 Q67.6819 294.601 64.3254 294.601 M59.6495 292.611 Q56.6402 291.87 54.9504 289.81 Q53.2838 287.749 53.2838 284.787 Q53.2838 280.643 56.2236 278.236 Q59.1865 275.828 64.3254 275.828 Q69.4874 275.828 72.4272 278.236 Q75.367 280.643 75.367 284.787 Q75.367 287.749 73.6772 289.81 Q72.0105 291.87 69.0244 292.611 Q72.404 293.398 74.279 295.689 Q76.1772 297.981 76.1772 301.291 Q76.1772 306.314 73.0985 308.999 Q70.0429 311.685 64.3254 311.685 Q58.6078 311.685 55.5291 308.999 Q52.4736 306.314 52.4736 301.291 Q52.4736 297.981 54.3717 295.689 Q56.2699 293.398 59.6495 292.611 M57.9365 285.226 Q57.9365 287.912 59.6032 289.416 Q61.293 290.921 64.3254 290.921 Q67.3346 290.921 69.0244 289.416 Q70.7374 287.912 70.7374 285.226 Q70.7374 282.541 69.0244 281.037 Q67.3346 279.532 64.3254 279.532 Q61.293 279.532 59.6032 281.037 Q57.9365 282.541 57.9365 285.226 Z" fill="#000000" fill-rule="nonzero" fill-opacity="1" /><polyline clip-path="url(#clip692)" style="stroke:#000000; stroke-linecap:round; stroke-linejoin:round; stroke-width:8; stroke-opacity:1; fill:none" points="175.59,1350.07 186.159,1373.22 196.727,1391.18 207.296,1404.09 217.865,1412.26 228.434,1416.11 239.002,1416.28 249.571,1413.59 260.14,1408.96 270.709,1403.28 281.277,1397.39 291.846,1392.09 302.415,1388.04 312.984,1385.72 323.553,1385.35 334.121,1386.83 344.69,1389.76 355.259,1393.58 365.828,1397.62 376.396,1401.33 386.965,1404.2 397.534,1405.96 408.103,1406.63 418.671,1406.44 429.24,1405.61 439.809,1404.3 450.378,1402.72 460.947,1401.23 471.515,1400.33 482.084,1400.64 492.653,1402.65 503.222,1406.56 513.79,1412.16 524.359,1418.94 534.928,1426.12 545.497,1432.91 556.065,1438.71 566.634,1442.99 577.203,1445.4 587.772,1445.72 598.34,1444.05 608.909,1440.76 619.478,1436.45 630.047,1431.74 640.616,1427.11 651.184,1422.98 661.753,1419.67 672.322,1417.31 682.891,1415.82 693.459,1414.9 704.028,1414.14 714.597,1413.17 725.166,1411.62 735.734,1409.17 746.303,1405.5 756.872,1400.3 767.441,1393.27 778.01,1383.93 788.578,1371.53 799.147,1355.17 809.716,1333.88 820.285,1306.69 830.853,1272.6 841.422,1230.71 851.991,1180.35 862.56,1121.18 873.128,1053.18 883.697,976.802 894.266,892.999 904.835,803.254 915.404,709.502 925.972,614.15 936.541,519.844 947.11,429.258 957.679,344.969 968.247,269.442 978.816,204.905 989.385,153.245 999.954,115.954 1010.52,94.0552 1021.09,87.9763 1031.66,97.6699 1042.23,122.736 1052.8,162.357 1063.37,215.238 1073.94,279.673 1084.5,353.702 1095.07,435.313 1105.64,522.62 1116.21,613.809 1126.78,707.014 1137.35,800.242 1147.92,891.393 1158.49,978.357 1169.05,1059.1 1179.62,1132 1190.19,1195.97 1200.76,1250.54 1211.33,1295.71 1221.9,1331.96 1232.47,1360.1 1243.04,1381.2 1253.6,1396.34 1264.17,1406.6 1274.74,1413.02 1285.31,1416.65 1295.88,1418.44 1306.45,1419.25 1317.02,1419.73 1327.59,1420.4 1338.15,1421.56 1348.72,1423.34 1359.29,1425.62 1369.86,1428.08 1380.43,1430.2 1391,1431.45 1401.57,1431.31 1412.14,1429.49 1422.7,1426.01 1433.27,1421.02 1443.84,1414.84 1454.41,1407.93 1464.98,1400.93 1475.55,1394.69 1486.12,1390.04 1496.69,1387.66 1507.25,1387.83 1517.82,1390.35 1528.39,1394.62 1538.96,1399.74 1549.53,1404.69 1560.1,1408.5 1570.67,1410.47 1581.24,1410.26 1591.8,1407.99 1602.37,1404.09 1612.94,1399.22 1623.51,1394.13 1634.08,1389.52 1644.65,1385.93 1655.22,1383.67 1665.79,1382.81 1676.35,1383.23 1686.92,1384.61 1697.49,1386.54 1708.06,1388.6 1718.63,1390.43 1729.2,1391.92 1739.77,1393.2 1750.34,1394.64 1760.9,1396.66 1771.47,1399.51 1782.04,1403.21 1792.61,1407.57 1803.18,1412.24 1813.75,1416.97 1824.32,1421.56 1834.89,1425.84 1845.46,1429.68 1856.02,1433.05 1866.59,1435.91 1877.16,1438.15 1887.73,1439.72 1898.3,1440.57 1908.87,1440.56 1919.44,1439.44 1930.01,1437.02 1940.57,1433.24 1951.14,1428.26 1961.71,1422.34 1972.28,1415.82 1982.85,1408.99 1993.42,1402.06 2003.99,1395.3 2014.56,1388.95 2025.12,1383.37 2035.69,1379.07 2046.26,1376.59 2056.83,1376.38 2067.4,1378.51 2077.97,1382.77 2088.54,1388.77 2099.11,1395.89 2109.67,1403.49 2120.24,1410.84 2130.81,1417.17 2141.38,1421.8 2151.95,1424.24 2162.52,1424.11 2173.09,1421.32 2183.66,1416.12 2194.22,1409.08 2204.79,1401.03 2215.36,1392.96 2225.93,1385.9 2236.5,1380.92 2247.07,1378.9 2257.64,1380.46 2268.21,1385.98 2278.77,1395.63 2289.34,1409.4 "/>
<polyline clip-path="url(#clip692)" style="stroke:#0000ff; stroke-linecap:round; stroke-linejoin:round; stroke-width:4; stroke-opacity:1; fill:none" points="1021.09,1440.57 1021.09,87.9763 "/>
<polyline clip-path="url(#clip692)" style="stroke:#0000ff; stroke-linecap:round; stroke-linejoin:round; stroke-width:4; stroke-opacity:0.5; fill:none" stroke-dasharray="16, 10" points="1021.09,1440.57 1898.3,1440.57 "/>
<polyline clip-path="url(#clip692)" style="stroke:#808080; stroke-linecap:round; stroke-linejoin:round; stroke-width:4; stroke-opacity:1; fill:none" stroke-dasharray="16, 10" points="909.229,764.275 1133.27,764.275 "/>
<circle clip-path="url(#clip692)" cx="909.229" cy="764.275" r="14.4" fill="#808080" fill-rule="evenodd" fill-opacity="1" stroke="#000000" stroke-opacity="1" stroke-width="3.2"/>
<circle clip-path="url(#clip692)" cx="1133.27" cy="764.275" r="14.4" fill="#808080" fill-rule="evenodd" fill-opacity="1" stroke="#000000" stroke-opacity="1" stroke-width="3.2"/>
<circle clip-path="url(#clip692)" cx="1021.09" cy="87.9763" r="14.4" fill="#ff0000" fill-rule="evenodd" fill-opacity="1" stroke="#000000" stroke-opacity="1" stroke-width="3.2"/>
<path clip-path="url(#clip690)" d="M1779.45 354.418 L2278.07 354.418 L2278.07 95.2176 L1779.45 95.2176  Z" fill="#ffffff" fill-rule="evenodd" fill-opacity="1"/>
<polyline clip-path="url(#clip690)" style="stroke:#000000; stroke-linecap:round; stroke-linejoin:round; stroke-width:4; stroke-opacity:1; fill:none" points="1779.45,354.418 2278.07,354.418 2278.07,95.2176 1779.45,95.2176 1779.45,354.418 "/>
<polyline clip-path="url(#clip690)" style="stroke:#000000; stroke-linecap:round; stroke-linejoin:round; stroke-width:8; stroke-opacity:1; fill:none" points="1804.35,147.058 1953.72,147.058 "/>
<path clip-path="url(#clip690)" d="M1997.04 139.176 L1997.04 143.203 Q1995.24 142.277 1993.29 141.815 Q1991.35 141.352 1989.26 141.352 Q1986.09 141.352 1984.5 142.324 Q1982.92 143.296 1982.92 145.24 Q1982.92 146.722 1984.06 147.578 Q1985.19 148.412 1988.62 149.176 L1990.07 149.5 Q1994.61 150.472 1996.51 152.254 Q1998.43 154.014 1998.43 157.185 Q1998.43 160.796 1995.56 162.902 Q1992.71 165.009 1987.71 165.009 Q1985.63 165.009 1983.36 164.592 Q1981.12 164.199 1978.62 163.388 L1978.62 158.99 Q1980.98 160.217 1983.27 160.842 Q1985.56 161.444 1987.81 161.444 Q1990.81 161.444 1992.44 160.426 Q1994.06 159.384 1994.06 157.509 Q1994.06 155.773 1992.88 154.847 Q1991.72 153.921 1987.76 153.064 L1986.28 152.717 Q1982.32 151.884 1980.56 150.171 Q1978.8 148.435 1978.8 145.426 Q1978.8 141.768 1981.39 139.778 Q1983.99 137.787 1988.75 137.787 Q1991.12 137.787 1993.2 138.134 Q1995.28 138.481 1997.04 139.176 Z" fill="#000000" fill-rule="nonzero" fill-opacity="1" /><path clip-path="url(#clip690)" d="M2005.21 138.412 L2009.47 138.412 L2009.47 164.338 L2005.21 164.338 L2005.21 138.412 M2005.21 128.319 L2009.47 128.319 L2009.47 133.713 L2005.21 133.713 L2005.21 128.319 Z" fill="#000000" fill-rule="nonzero" fill-opacity="1" /><path clip-path="url(#clip690)" d="M2035.44 151.074 Q2035.44 146.444 2033.52 143.898 Q2031.62 141.352 2028.18 141.352 Q2024.75 141.352 2022.83 143.898 Q2020.93 146.444 2020.93 151.074 Q2020.93 155.68 2022.83 158.226 Q2024.75 160.773 2028.18 160.773 Q2031.62 160.773 2033.52 158.226 Q2035.44 155.68 2035.44 151.074 M2039.7 161.12 Q2039.7 167.74 2036.76 170.958 Q2033.82 174.199 2027.76 174.199 Q2025.51 174.199 2023.52 173.851 Q2021.53 173.527 2019.66 172.833 L2019.66 168.689 Q2021.53 169.708 2023.36 170.194 Q2025.19 170.68 2027.09 170.68 Q2031.28 170.68 2033.36 168.481 Q2035.44 166.305 2035.44 161.884 L2035.44 159.777 Q2034.12 162.069 2032.06 163.203 Q2030 164.338 2027.13 164.338 Q2022.37 164.338 2019.45 160.703 Q2016.53 157.069 2016.53 151.074 Q2016.53 145.055 2019.45 141.421 Q2022.37 137.787 2027.13 137.787 Q2030 137.787 2032.06 138.921 Q2034.12 140.055 2035.44 142.347 L2035.44 138.412 L2039.7 138.412 L2039.7 161.12 Z" fill="#000000" fill-rule="nonzero" fill-opacity="1" /><path clip-path="url(#clip690)" d="M2070.03 148.689 L2070.03 164.338 L2065.77 164.338 L2065.77 148.828 Q2065.77 145.148 2064.33 143.319 Q2062.9 141.49 2060.03 141.49 Q2056.58 141.49 2054.59 143.69 Q2052.6 145.889 2052.6 149.685 L2052.6 164.338 L2048.31 164.338 L2048.31 138.412 L2052.6 138.412 L2052.6 142.44 Q2054.12 140.102 2056.18 138.944 Q2058.27 137.787 2060.98 137.787 Q2065.44 137.787 2067.74 140.565 Q2070.03 143.319 2070.03 148.689 Z" fill="#000000" fill-rule="nonzero" fill-opacity="1" /><path clip-path="url(#clip690)" d="M2090.31 151.305 Q2085.14 151.305 2083.15 152.486 Q2081.16 153.666 2081.16 156.514 Q2081.16 158.782 2082.64 160.125 Q2084.15 161.444 2086.72 161.444 Q2090.26 161.444 2092.39 158.944 Q2094.54 156.421 2094.54 152.254 L2094.54 151.305 L2090.31 151.305 M2098.8 149.546 L2098.8 164.338 L2094.54 164.338 L2094.54 160.402 Q2093.08 162.763 2090.91 163.898 Q2088.73 165.009 2085.58 165.009 Q2081.6 165.009 2079.24 162.787 Q2076.9 160.541 2076.9 156.791 Q2076.9 152.416 2079.82 150.194 Q2082.76 147.972 2088.57 147.972 L2094.54 147.972 L2094.54 147.555 Q2094.54 144.615 2092.6 143.018 Q2090.68 141.398 2087.18 141.398 Q2084.96 141.398 2082.85 141.93 Q2080.74 142.463 2078.8 143.527 L2078.8 139.592 Q2081.14 138.69 2083.34 138.25 Q2085.54 137.787 2087.62 137.787 Q2093.24 137.787 2096.02 140.703 Q2098.8 143.62 2098.8 149.546 Z" fill="#000000" fill-rule="nonzero" fill-opacity="1" /><path clip-path="url(#clip690)" d="M2107.57 128.319 L2111.83 128.319 L2111.83 164.338 L2107.57 164.338 L2107.57 128.319 Z" fill="#000000" fill-rule="nonzero" fill-opacity="1" /><polyline clip-path="url(#clip690)" style="stroke:#0000ff; stroke-linecap:round; stroke-linejoin:round; stroke-width:4; stroke-opacity:1; fill:none" points="1804.35,198.898 1953.72,198.898 "/>
<path clip-path="url(#clip690)" d="M1982.9 212.289 L1982.9 226.039 L1978.62 226.039 L1978.62 190.252 L1982.9 190.252 L1982.9 194.187 Q1984.24 191.872 1986.28 190.761 Q1988.34 189.627 1991.19 189.627 Q1995.91 189.627 1998.85 193.377 Q2001.81 197.127 2001.81 203.238 Q2001.81 209.349 1998.85 213.099 Q1995.91 216.849 1991.19 216.849 Q1988.34 216.849 1986.28 215.738 Q1984.24 214.603 1982.9 212.289 M1997.39 203.238 Q1997.39 198.539 1995.44 195.877 Q1993.52 193.192 1990.14 193.192 Q1986.76 193.192 1984.82 195.877 Q1982.9 198.539 1982.9 203.238 Q1982.9 207.937 1984.82 210.622 Q1986.76 213.284 1990.14 213.284 Q1993.52 213.284 1995.44 210.622 Q1997.39 207.937 1997.39 203.238 Z" fill="#000000" fill-rule="nonzero" fill-opacity="1" /><path clip-path="url(#clip690)" d="M2023.89 194.233 Q2023.18 193.817 2022.32 193.631 Q2021.49 193.423 2020.47 193.423 Q2016.86 193.423 2014.91 195.784 Q2012.99 198.122 2012.99 202.52 L2012.99 216.178 L2008.71 216.178 L2008.71 190.252 L2012.99 190.252 L2012.99 194.28 Q2014.33 191.918 2016.49 190.784 Q2018.64 189.627 2021.72 189.627 Q2022.16 189.627 2022.69 189.696 Q2023.22 189.743 2023.87 189.858 L2023.89 194.233 Z" fill="#000000" fill-rule="nonzero" fill-opacity="1" /><path clip-path="url(#clip690)" d="M2037.37 193.238 Q2033.94 193.238 2031.95 195.923 Q2029.96 198.585 2029.96 203.238 Q2029.96 207.891 2031.93 210.576 Q2033.92 213.238 2037.37 213.238 Q2040.77 213.238 2042.76 210.553 Q2044.75 207.867 2044.75 203.238 Q2044.75 198.631 2042.76 195.946 Q2040.77 193.238 2037.37 193.238 M2037.37 189.627 Q2042.92 189.627 2046.09 193.238 Q2049.26 196.849 2049.26 203.238 Q2049.26 209.604 2046.09 213.238 Q2042.92 216.849 2037.37 216.849 Q2031.79 216.849 2028.62 213.238 Q2025.47 209.604 2025.47 203.238 Q2025.47 196.849 2028.62 193.238 Q2031.79 189.627 2037.37 189.627 Z" fill="#000000" fill-rule="nonzero" fill-opacity="1" /><path clip-path="url(#clip690)" d="M2076.51 195.229 Q2078.11 192.358 2080.33 190.993 Q2082.55 189.627 2085.56 189.627 Q2089.61 189.627 2091.81 192.474 Q2094.01 195.298 2094.01 200.529 L2094.01 216.178 L2089.73 216.178 L2089.73 200.668 Q2089.73 196.942 2088.41 195.136 Q2087.09 193.33 2084.38 193.33 Q2081.07 193.33 2079.15 195.53 Q2077.23 197.729 2077.23 201.525 L2077.23 216.178 L2072.94 216.178 L2072.94 200.668 Q2072.94 196.918 2071.62 195.136 Q2070.31 193.33 2067.55 193.33 Q2064.29 193.33 2062.37 195.553 Q2060.44 197.752 2060.44 201.525 L2060.44 216.178 L2056.16 216.178 L2056.16 190.252 L2060.44 190.252 L2060.44 194.28 Q2061.9 191.895 2063.94 190.761 Q2065.98 189.627 2068.78 189.627 Q2071.6 189.627 2073.57 191.062 Q2075.56 192.497 2076.51 195.229 Z" fill="#000000" fill-rule="nonzero" fill-opacity="1" /><path clip-path="url(#clip690)" d="M2102.5 190.252 L2106.76 190.252 L2106.76 216.178 L2102.5 216.178 L2102.5 190.252 M2102.5 180.159 L2106.76 180.159 L2106.76 185.553 L2102.5 185.553 L2102.5 180.159 Z" fill="#000000" fill-rule="nonzero" fill-opacity="1" /><path clip-path="url(#clip690)" d="M2137.23 200.529 L2137.23 216.178 L2132.97 216.178 L2132.97 200.668 Q2132.97 196.988 2131.53 195.159 Q2130.1 193.33 2127.23 193.33 Q2123.78 193.33 2121.79 195.53 Q2119.8 197.729 2119.8 201.525 L2119.8 216.178 L2115.51 216.178 L2115.51 190.252 L2119.8 190.252 L2119.8 194.28 Q2121.32 191.942 2123.38 190.784 Q2125.47 189.627 2128.18 189.627 Q2132.64 189.627 2134.93 192.405 Q2137.23 195.159 2137.23 200.529 Z" fill="#000000" fill-rule="nonzero" fill-opacity="1" /><path clip-path="url(#clip690)" d="M2167.9 202.15 L2167.9 204.233 L2148.31 204.233 Q2148.59 208.631 2150.95 210.946 Q2153.34 213.238 2157.57 213.238 Q2160.03 213.238 2162.32 212.636 Q2164.63 212.034 2166.9 210.83 L2166.9 214.858 Q2164.61 215.83 2162.2 216.34 Q2159.8 216.849 2157.32 216.849 Q2151.11 216.849 2147.48 213.238 Q2143.87 209.627 2143.87 203.469 Q2143.87 197.104 2147.3 193.377 Q2150.74 189.627 2156.58 189.627 Q2161.81 189.627 2164.84 193.006 Q2167.9 196.363 2167.9 202.15 M2163.64 200.9 Q2163.59 197.405 2161.67 195.321 Q2159.77 193.238 2156.62 193.238 Q2153.06 193.238 2150.91 195.252 Q2148.78 197.266 2148.45 200.923 L2163.64 200.9 Z" fill="#000000" fill-rule="nonzero" fill-opacity="1" /><path clip-path="url(#clip690)" d="M2196.44 200.529 L2196.44 216.178 L2192.18 216.178 L2192.18 200.668 Q2192.18 196.988 2190.74 195.159 Q2189.31 193.33 2186.44 193.33 Q2182.99 193.33 2181 195.53 Q2179.01 197.729 2179.01 201.525 L2179.01 216.178 L2174.73 216.178 L2174.73 190.252 L2179.01 190.252 L2179.01 194.28 Q2180.54 191.942 2182.6 190.784 Q2184.68 189.627 2187.39 189.627 Q2191.86 189.627 2194.15 192.405 Q2196.44 195.159 2196.44 200.529 Z" fill="#000000" fill-rule="nonzero" fill-opacity="1" /><path clip-path="url(#clip690)" d="M2223.59 191.247 L2223.59 195.229 Q2221.79 194.233 2219.96 193.747 Q2218.15 193.238 2216.3 193.238 Q2212.16 193.238 2209.86 195.877 Q2207.57 198.492 2207.57 203.238 Q2207.57 207.983 2209.86 210.622 Q2212.16 213.238 2216.3 213.238 Q2218.15 213.238 2219.96 212.752 Q2221.79 212.242 2223.59 211.247 L2223.59 215.182 Q2221.81 216.016 2219.89 216.432 Q2217.99 216.849 2215.84 216.849 Q2209.98 216.849 2206.53 213.168 Q2203.08 209.488 2203.08 203.238 Q2203.08 196.895 2206.55 193.261 Q2210.05 189.627 2216.11 189.627 Q2218.08 189.627 2219.96 190.043 Q2221.83 190.437 2223.59 191.247 Z" fill="#000000" fill-rule="nonzero" fill-opacity="1" /><path clip-path="url(#clip690)" d="M2253.17 202.15 L2253.17 204.233 L2233.59 204.233 Q2233.87 208.631 2236.23 210.946 Q2238.61 213.238 2242.85 213.238 Q2245.3 213.238 2247.6 212.636 Q2249.91 212.034 2252.18 210.83 L2252.18 214.858 Q2249.89 215.83 2247.48 216.34 Q2245.07 216.849 2242.6 216.849 Q2236.39 216.849 2232.76 213.238 Q2229.15 209.627 2229.15 203.469 Q2229.15 197.104 2232.57 193.377 Q2236.02 189.627 2241.86 189.627 Q2247.09 189.627 2250.12 193.006 Q2253.17 196.363 2253.17 202.15 M2248.92 200.9 Q2248.87 197.405 2246.95 195.321 Q2245.05 193.238 2241.9 193.238 Q2238.34 193.238 2236.18 195.252 Q2234.05 197.266 2233.73 200.923 L2248.92 200.9 Z" fill="#000000" fill-rule="nonzero" fill-opacity="1" /><polyline clip-path="url(#clip690)" style="stroke:#808080; stroke-linecap:round; stroke-linejoin:round; stroke-width:4; stroke-opacity:1; fill:none" stroke-dasharray="16, 10" points="1804.35,250.738 1953.72,250.738 "/>
<path clip-path="url(#clip690)" d="M1978.62 242.092 L1982.88 242.092 L1988.2 262.323 L1993.5 242.092 L1998.52 242.092 L2003.85 262.323 L2009.15 242.092 L2013.41 242.092 L2006.63 268.018 L2001.6 268.018 L1996.02 246.768 L1990.42 268.018 L1985.4 268.018 L1978.62 242.092 Z" fill="#000000" fill-rule="nonzero" fill-opacity="1" /><path clip-path="url(#clip690)" d="M2019.87 242.092 L2024.12 242.092 L2024.12 268.018 L2019.87 268.018 L2019.87 242.092 M2019.87 231.999 L2024.12 231.999 L2024.12 237.393 L2019.87 237.393 L2019.87 231.999 Z" fill="#000000" fill-rule="nonzero" fill-opacity="1" /><path clip-path="url(#clip690)" d="M2050.1 246.027 L2050.1 231.999 L2054.36 231.999 L2054.36 268.018 L2050.1 268.018 L2050.1 264.129 Q2048.75 266.443 2046.69 267.578 Q2044.66 268.689 2041.79 268.689 Q2037.09 268.689 2034.12 264.939 Q2031.19 261.189 2031.19 255.078 Q2031.19 248.967 2034.12 245.217 Q2037.09 241.467 2041.79 241.467 Q2044.66 241.467 2046.69 242.601 Q2048.75 243.712 2050.1 246.027 M2035.58 255.078 Q2035.58 259.777 2037.5 262.462 Q2039.45 265.124 2042.83 265.124 Q2046.21 265.124 2048.15 262.462 Q2050.1 259.777 2050.1 255.078 Q2050.1 250.379 2048.15 247.717 Q2046.21 245.032 2042.83 245.032 Q2039.45 245.032 2037.5 247.717 Q2035.58 250.379 2035.58 255.078 Z" fill="#000000" fill-rule="nonzero" fill-opacity="1" /><path clip-path="url(#clip690)" d="M2067.34 234.731 L2067.34 242.092 L2076.12 242.092 L2076.12 245.402 L2067.34 245.402 L2067.34 259.476 Q2067.34 262.647 2068.2 263.55 Q2069.08 264.453 2071.74 264.453 L2076.12 264.453 L2076.12 268.018 L2071.74 268.018 Q2066.81 268.018 2064.93 266.189 Q2063.06 264.337 2063.06 259.476 L2063.06 245.402 L2059.93 245.402 L2059.93 242.092 L2063.06 242.092 L2063.06 234.731 L2067.34 234.731 Z" fill="#000000" fill-rule="nonzero" fill-opacity="1" /><path clip-path="url(#clip690)" d="M2103.27 252.369 L2103.27 268.018 L2099.01 268.018 L2099.01 252.508 Q2099.01 248.828 2097.57 246.999 Q2096.14 245.17 2093.27 245.17 Q2089.82 245.17 2087.83 247.37 Q2085.84 249.569 2085.84 253.365 L2085.84 268.018 L2081.56 268.018 L2081.56 231.999 L2085.84 231.999 L2085.84 246.12 Q2087.37 243.782 2089.43 242.624 Q2091.51 241.467 2094.22 241.467 Q2098.68 241.467 2100.98 244.245 Q2103.27 246.999 2103.27 252.369 Z" fill="#000000" fill-rule="nonzero" fill-opacity="1" /><circle clip-path="url(#clip690)" cx="1879.03" cy="302.578" r="20.48" fill="#ff0000" fill-rule="evenodd" fill-opacity="1" stroke="#000000" stroke-opacity="1" stroke-width="4.55111"/>
<path clip-path="url(#clip690)" d="M1998.96 298.909 Q2000.56 296.038 2002.78 294.673 Q2005 293.307 2008.01 293.307 Q2012.06 293.307 2014.26 296.154 Q2016.46 298.978 2016.46 304.209 L2016.46 319.858 L2012.18 319.858 L2012.18 304.348 Q2012.18 300.622 2010.86 298.816 Q2009.54 297.01 2006.83 297.01 Q2003.52 297.01 2001.6 299.21 Q1999.68 301.409 1999.68 305.205 L1999.68 319.858 L1995.4 319.858 L1995.4 304.348 Q1995.4 300.598 1994.08 298.816 Q1992.76 297.01 1990 297.01 Q1986.74 297.01 1984.82 299.233 Q1982.9 301.432 1982.9 305.205 L1982.9 319.858 L1978.62 319.858 L1978.62 293.932 L1982.9 293.932 L1982.9 297.96 Q1984.36 295.575 1986.39 294.441 Q1988.43 293.307 1991.23 293.307 Q1994.06 293.307 1996.02 294.742 Q1998.01 296.177 1998.96 298.909 Z" fill="#000000" fill-rule="nonzero" fill-opacity="1" /><path clip-path="url(#clip690)" d="M2036.74 306.825 Q2031.58 306.825 2029.59 308.006 Q2027.6 309.186 2027.6 312.034 Q2027.6 314.302 2029.08 315.645 Q2030.58 316.964 2033.15 316.964 Q2036.69 316.964 2038.82 314.464 Q2040.98 311.941 2040.98 307.774 L2040.98 306.825 L2036.74 306.825 M2045.24 305.066 L2045.24 319.858 L2040.98 319.858 L2040.98 315.922 Q2039.52 318.283 2037.34 319.418 Q2035.17 320.529 2032.02 320.529 Q2028.04 320.529 2025.68 318.307 Q2023.34 316.061 2023.34 312.311 Q2023.34 307.936 2026.25 305.714 Q2029.19 303.492 2035 303.492 L2040.98 303.492 L2040.98 303.075 Q2040.98 300.135 2039.03 298.538 Q2037.11 296.918 2033.62 296.918 Q2031.39 296.918 2029.29 297.45 Q2027.18 297.983 2025.24 299.047 L2025.24 295.112 Q2027.57 294.21 2029.77 293.77 Q2031.97 293.307 2034.06 293.307 Q2039.68 293.307 2042.46 296.223 Q2045.24 299.14 2045.24 305.066 Z" fill="#000000" fill-rule="nonzero" fill-opacity="1" /><path clip-path="url(#clip690)" d="M2075.56 293.932 L2066.18 306.547 L2076.05 319.858 L2071.02 319.858 L2063.48 309.672 L2055.93 319.858 L2050.91 319.858 L2060.98 306.293 L2051.76 293.932 L2056.79 293.932 L2063.66 303.168 L2070.54 293.932 L2075.56 293.932 Z" fill="#000000" fill-rule="nonzero" fill-opacity="1" /><path clip-path="url(#clip690)" d="M2082.06 293.932 L2086.32 293.932 L2086.32 319.858 L2082.06 319.858 L2082.06 293.932 M2082.06 283.839 L2086.32 283.839 L2086.32 289.233 L2082.06 289.233 L2082.06 283.839 Z" fill="#000000" fill-rule="nonzero" fill-opacity="1" /><path clip-path="url(#clip690)" d="M2115.42 298.909 Q2117.02 296.038 2119.24 294.673 Q2121.46 293.307 2124.47 293.307 Q2128.52 293.307 2130.72 296.154 Q2132.92 298.978 2132.92 304.209 L2132.92 319.858 L2128.64 319.858 L2128.64 304.348 Q2128.64 300.622 2127.32 298.816 Q2126 297.01 2123.29 297.01 Q2119.98 297.01 2118.06 299.21 Q2116.14 301.409 2116.14 305.205 L2116.14 319.858 L2111.86 319.858 L2111.86 304.348 Q2111.86 300.598 2110.54 298.816 Q2109.22 297.01 2106.46 297.01 Q2103.2 297.01 2101.28 299.233 Q2099.36 301.432 2099.36 305.205 L2099.36 319.858 L2095.07 319.858 L2095.07 293.932 L2099.36 293.932 L2099.36 297.96 Q2100.81 295.575 2102.85 294.441 Q2104.89 293.307 2107.69 293.307 Q2110.51 293.307 2112.48 294.742 Q2114.47 296.177 2115.42 298.909 Z" fill="#000000" fill-rule="nonzero" fill-opacity="1" /><path clip-path="url(#clip690)" d="M2153.2 306.825 Q2148.04 306.825 2146.05 308.006 Q2144.05 309.186 2144.05 312.034 Q2144.05 314.302 2145.54 315.645 Q2147.04 316.964 2149.61 316.964 Q2153.15 316.964 2155.28 314.464 Q2157.43 311.941 2157.43 307.774 L2157.43 306.825 L2153.2 306.825 M2161.69 305.066 L2161.69 319.858 L2157.43 319.858 L2157.43 315.922 Q2155.98 318.283 2153.8 319.418 Q2151.62 320.529 2148.48 320.529 Q2144.49 320.529 2142.13 318.307 Q2139.8 316.061 2139.8 312.311 Q2139.8 307.936 2142.71 305.714 Q2145.65 303.492 2151.46 303.492 L2157.43 303.492 L2157.43 303.075 Q2157.43 300.135 2155.49 298.538 Q2153.57 296.918 2150.07 296.918 Q2147.85 296.918 2145.74 297.45 Q2143.64 297.983 2141.69 299.047 L2141.69 295.112 Q2144.03 294.21 2146.23 293.77 Q2148.43 293.307 2150.51 293.307 Q2156.14 293.307 2158.92 296.223 Q2161.69 299.14 2161.69 305.066 Z" fill="#000000" fill-rule="nonzero" fill-opacity="1" /></svg>
