<?xml version="1.0" encoding="utf-8"?>
<svg xmlns="http://www.w3.org/2000/svg" xmlns:xlink="http://www.w3.org/1999/xlink" width="600" height="400" viewBox="0 0 2400 1600">
<defs>
  <clipPath id="clip990">
    <rect x="0" y="0" width="2400" height="1600"/>
  </clipPath>
</defs>
<path clip-path="url(#clip990)" d="M0 1600 L2400 1600 L2400 0 L0 0  Z" fill="#ffffff" fill-rule="evenodd" fill-opacity="1"/>
<defs>
  <clipPath id="clip991">
    <rect x="480" y="0" width="1681" height="1600"/>
  </clipPath>
</defs>
<path clip-path="url(#clip990)" d="M205.121 1423.18 L2352.76 1423.18 L2352.76 47.2441 L205.121 47.2441  Z" fill="#ffffff" fill-rule="evenodd" fill-opacity="1"/>
<defs>
  <clipPath id="clip992">
    <rect x="205" y="47" width="2149" height="1377"/>
  </clipPath>
</defs>
<polyline clip-path="url(#clip992)" style="stroke:#000000; stroke-linecap:round; stroke-linejoin:round; stroke-width:2; stroke-opacity:0.1; fill:none" points="265.903,1423.18 265.903,47.2441 "/>
<polyline clip-path="url(#clip992)" style="stroke:#000000; stroke-linecap:round; stroke-linejoin:round; stroke-width:2; stroke-opacity:0.1; fill:none" points="772.421,1423.18 772.421,47.2441 "/>
<polyline clip-path="url(#clip992)" style="stroke:#000000; stroke-linecap:round; stroke-linejoin:round; stroke-width:2; stroke-opacity:0.1; fill:none" points="1278.94,1423.18 1278.94,47.2441 "/>
<polyline clip-path="url(#clip992)" style="stroke:#000000; stroke-linecap:round; stroke-linejoin:round; stroke-width:2; stroke-opacity:0.1; fill:none" points="1785.46,1423.18 1785.46,47.2441 "/>
<polyline clip-path="url(#clip992)" style="stroke:#000000; stroke-linecap:round; stroke-linejoin:round; stroke-width:2; stroke-opacity:0.1; fill:none" points="2291.97,1423.18 2291.97,47.2441 "/>
<polyline clip-path="url(#clip992)" style="stroke:#000000; stroke-linecap:round; stroke-linejoin:round; stroke-width:2; stroke-opacity:0.1; fill:none" points="205.121,1299.09 2352.76,1299.09 "/>
<polyline clip-path="url(#clip992)" style="stroke:#000000; stroke-linecap:round; stroke-linejoin:round; stroke-width:2; stroke-opacity:0.1; fill:none" points="205.121,999.889 2352.76,999.889 "/>
<polyline clip-path="url(#clip992)" style="stroke:#000000; stroke-linecap:round; stroke-linejoin:round; stroke-width:2; stroke-opacity:0.1; fill:none" points="205.121,700.683 2352.76,700.683 "/>
<polyline clip-path="url(#clip992)" style="stroke:#000000; stroke-linecap:round; stroke-linejoin:round; stroke-width:2; stroke-opacity:0.1; fill:none" points="205.121,401.478 2352.76,401.478 "/>
<polyline clip-path="url(#clip992)" style="stroke:#000000; stroke-linecap:round; stroke-linejoin:round; stroke-width:2; stroke-opacity:0.1; fill:none" points="205.121,102.272 2352.76,102.272 "/>
<polyline clip-path="url(#clip990)" style="stroke:#000000; stroke-linecap:round; stroke-linejoin:round; stroke-width:4; stroke-opacity:1; fill:none" points="205.121,1423.18 2352.76,1423.18 "/>
<polyline clip-path="url(#clip990)" style="stroke:#000000; stroke-linecap:round; stroke-linejoin:round; stroke-width:4; stroke-opacity:1; fill:none" points="265.903,1423.18 265.903,1404.28 "/>
<polyline clip-path="url(#clip990)" style="stroke:#000000; stroke-linecap:round; stroke-linejoin:round; stroke-width:4; stroke-opacity:1; fill:none" points="772.421,1423.18 772.421,1404.28 "/>
<polyline clip-path="url(#clip990)" style="stroke:#000000; stroke-linecap:round; stroke-linejoin:round; stroke-width:4; stroke-opacity:1; fill:none" points="1278.94,1423.18 1278.94,1404.28 "/>
<polyline clip-path="url(#clip990)" style="stroke:#000000; stroke-linecap:round; stroke-linejoin:round; stroke-width:4; stroke-opacity:1; fill:none" points="1785.46,1423.18 1785.46,1404.28 "/>
<polyline clip-path="url(#clip990)" style="stroke:#000000; stroke-linecap:round; stroke-linejoin:round; stroke-width:4; stroke-opacity:1; fill:none" points="2291.97,1423.18 2291.97,1404.28 "/>
<path clip-path="url(#clip990)" d="M265.903 1454.1 Q262.292 1454.1 260.463 1457.66 Q258.658 1461.2 258.658 1468.33 Q258.658 1475.44 260.463 1479.01 Q262.292 1482.55 265.903 1482.55 Q269.537 1482.55 271.343 1479.01 Q273.172 1475.44 273.172 1468.33 Q273.172 1461.2 271.343 1457.66 Q269.537 1454.1 265.903 1454.1 M265.903 1450.39 Q271.713 1450.39 274.769 1455 Q277.847 1459.58 277.847 1468.33 Q277.847 1477.06 274.769 1481.67 Q271.713 1486.25 265.903 1486.25 Q260.093 1486.25 257.014 1481.67 Q253.959 1477.06 253.959 1468.33 Q253.959 1459.58 257.014 1455 Q260.093 1450.39 265.903 1450.39 Z" fill="#000000" fill-rule="nonzero" fill-opacity="1" /><path clip-path="url(#clip990)" d="M751.692 1481.64 L768.011 1481.64 L768.011 1485.58 L746.067 1485.58 L746.067 1481.64 Q748.729 1478.89 753.312 1474.26 Q757.919 1469.61 759.099 1468.27 Q761.344 1465.74 762.224 1464.01 Q763.127 1462.25 763.127 1460.56 Q763.127 1457.8 761.182 1456.07 Q759.261 1454.33 756.159 1454.33 Q753.96 1454.33 751.507 1455.09 Q749.076 1455.86 746.298 1457.41 L746.298 1452.69 Q749.122 1451.55 751.576 1450.97 Q754.03 1450.39 756.067 1450.39 Q761.437 1450.39 764.631 1453.08 Q767.826 1455.77 767.826 1460.26 Q767.826 1462.39 767.016 1464.31 Q766.229 1466.2 764.122 1468.8 Q763.544 1469.47 760.442 1472.69 Q757.34 1475.88 751.692 1481.64 Z" fill="#000000" fill-rule="nonzero" fill-opacity="1" /><path clip-path="url(#clip990)" d="M777.872 1451.02 L796.229 1451.02 L796.229 1454.96 L782.155 1454.96 L782.155 1463.43 Q783.173 1463.08 784.192 1462.92 Q785.21 1462.73 786.229 1462.73 Q792.016 1462.73 795.395 1465.9 Q798.775 1469.08 798.775 1474.49 Q798.775 1480.07 795.303 1483.17 Q791.83 1486.25 785.511 1486.25 Q783.335 1486.25 781.067 1485.88 Q778.821 1485.51 776.414 1484.77 L776.414 1480.07 Q778.497 1481.2 780.719 1481.76 Q782.942 1482.32 785.418 1482.32 Q789.423 1482.32 791.761 1480.21 Q794.099 1478.1 794.099 1474.49 Q794.099 1470.88 791.761 1468.77 Q789.423 1466.67 785.418 1466.67 Q783.543 1466.67 781.668 1467.08 Q779.817 1467.5 777.872 1468.38 L777.872 1451.02 Z" fill="#000000" fill-rule="nonzero" fill-opacity="1" /><path clip-path="url(#clip990)" d="M1253.64 1451.02 L1271.99 1451.02 L1271.99 1454.96 L1257.92 1454.96 L1257.92 1463.43 Q1258.94 1463.08 1259.96 1462.92 Q1260.98 1462.73 1261.99 1462.73 Q1267.78 1462.73 1271.16 1465.9 Q1274.54 1469.08 1274.54 1474.49 Q1274.54 1480.07 1271.07 1483.17 Q1267.6 1486.25 1261.28 1486.25 Q1259.1 1486.25 1256.83 1485.88 Q1254.59 1485.51 1252.18 1484.77 L1252.18 1480.07 Q1254.26 1481.2 1256.48 1481.76 Q1258.71 1482.32 1261.18 1482.32 Q1265.19 1482.32 1267.53 1480.21 Q1269.86 1478.1 1269.86 1474.49 Q1269.86 1470.88 1267.53 1468.77 Q1265.19 1466.67 1261.18 1466.67 Q1259.31 1466.67 1257.43 1467.08 Q1255.58 1467.5 1253.64 1468.38 L1253.64 1451.02 Z" fill="#000000" fill-rule="nonzero" fill-opacity="1" /><path clip-path="url(#clip990)" d="M1293.75 1454.1 Q1290.14 1454.1 1288.31 1457.66 Q1286.51 1461.2 1286.51 1468.33 Q1286.51 1475.44 1288.31 1479.01 Q1290.14 1482.55 1293.75 1482.55 Q1297.39 1482.55 1299.19 1479.01 Q1301.02 1475.44 1301.02 1468.33 Q1301.02 1461.2 1299.19 1457.66 Q1297.39 1454.1 1293.75 1454.1 M1293.75 1450.39 Q1299.56 1450.39 1302.62 1455 Q1305.7 1459.58 1305.7 1468.33 Q1305.7 1477.06 1302.62 1481.67 Q1299.56 1486.25 1293.75 1486.25 Q1287.94 1486.25 1284.86 1481.67 Q1281.81 1477.06 1281.81 1468.33 Q1281.81 1459.58 1284.86 1455 Q1287.94 1450.39 1293.75 1450.39 Z" fill="#000000" fill-rule="nonzero" fill-opacity="1" /><path clip-path="url(#clip990)" d="M1759.31 1451.02 L1781.53 1451.02 L1781.53 1453.01 L1768.99 1485.58 L1764.1 1485.58 L1775.91 1454.96 L1759.31 1454.96 L1759.31 1451.02 Z" fill="#000000" fill-rule="nonzero" fill-opacity="1" /><path clip-path="url(#clip990)" d="M1790.7 1451.02 L1809.06 1451.02 L1809.06 1454.96 L1794.98 1454.96 L1794.98 1463.43 Q1796 1463.08 1797.02 1462.92 Q1798.04 1462.73 1799.06 1462.73 Q1804.84 1462.73 1808.22 1465.9 Q1811.6 1469.08 1811.6 1474.49 Q1811.6 1480.07 1808.13 1483.17 Q1804.66 1486.25 1798.34 1486.25 Q1796.16 1486.25 1793.89 1485.88 Q1791.65 1485.51 1789.24 1484.77 L1789.24 1480.07 Q1791.32 1481.2 1793.55 1481.76 Q1795.77 1482.32 1798.25 1482.32 Q1802.25 1482.32 1804.59 1480.21 Q1806.93 1478.1 1806.93 1474.49 Q1806.93 1470.88 1804.59 1468.77 Q1802.25 1466.67 1798.25 1466.67 Q1796.37 1466.67 1794.5 1467.08 Q1792.64 1467.5 1790.7 1468.38 L1790.7 1451.02 Z" fill="#000000" fill-rule="nonzero" fill-opacity="1" /><path clip-path="url(#clip990)" d="M2251.58 1481.64 L2259.22 1481.64 L2259.22 1455.28 L2250.91 1456.95 L2250.91 1452.69 L2259.17 1451.02 L2263.85 1451.02 L2263.85 1481.64 L2271.49 1481.64 L2271.49 1485.58 L2251.58 1485.58 L2251.58 1481.64 Z" fill="#000000" fill-rule="nonzero" fill-opacity="1" /><path clip-path="url(#clip990)" d="M2290.93 1454.1 Q2287.32 1454.1 2285.49 1457.66 Q2283.69 1461.2 2283.69 1468.33 Q2283.69 1475.44 2285.49 1479.01 Q2287.32 1482.55 2290.93 1482.55 Q2294.57 1482.55 2296.37 1479.01 Q2298.2 1475.44 2298.2 1468.33 Q2298.2 1461.2 2296.37 1457.66 Q2294.57 1454.1 2290.93 1454.1 M2290.93 1450.39 Q2296.74 1450.39 2299.8 1455 Q2302.88 1459.58 2302.88 1468.33 Q2302.88 1477.06 2299.8 1481.67 Q2296.74 1486.25 2290.93 1486.25 Q2285.12 1486.25 2282.04 1481.67 Q2278.99 1477.06 2278.99 1468.33 Q2278.99 1459.58 2282.04 1455 Q2285.12 1450.39 2290.93 1450.39 Z" fill="#000000" fill-rule="nonzero" fill-opacity="1" /><path clip-path="url(#clip990)" d="M2321.09 1454.1 Q2317.48 1454.1 2315.65 1457.66 Q2313.85 1461.2 2313.85 1468.33 Q2313.85 1475.44 2315.65 1479.01 Q2317.48 1482.55 2321.09 1482.55 Q2324.73 1482.55 2326.53 1479.01 Q2328.36 1475.44 2328.36 1468.33 Q2328.36 1461.2 2326.53 1457.66 Q2324.73 1454.1 2321.09 1454.1 M2321.09 1450.39 Q2326.9 1450.39 2329.96 1455 Q2333.04 1459.58 2333.04 1468.33 Q2333.04 1477.06 2329.96 1481.67 Q2326.9 1486.25 2321.09 1486.25 Q2315.28 1486.25 2312.21 1481.67 Q2309.15 1477.06 2309.15 1468.33 Q2309.15 1459.58 2312.21 1455 Q2315.28 1450.39 2321.09 1450.39 Z" fill="#000000" fill-rule="nonzero" fill-opacity="1" /><path clip-path="url(#clip990)" d="M1260.76 1520.52 L1267.67 1520.52 L1279.48 1538.19 L1291.35 1520.52 L1298.26 1520.52 L1282.98 1543.34 L1299.28 1568.04 L1292.37 1568.04 L1279 1547.83 L1265.54 1568.04 L1258.6 1568.04 L1275.56 1542.68 L1260.76 1520.52 Z" fill="#000000" fill-rule="nonzero" fill-opacity="1" /><polyline clip-path="url(#clip990)" style="stroke:#000000; stroke-linecap:round; stroke-linejoin:round; stroke-width:4; stroke-opacity:1; fill:none" points="205.121,1423.18 205.121,47.2441 "/>
<polyline clip-path="url(#clip990)" style="stroke:#000000; stroke-linecap:round; stroke-linejoin:round; stroke-width:4; stroke-opacity:1; fill:none" points="205.121,1299.09 224.019,1299.09 "/>
<polyline clip-path="url(#clip990)" style="stroke:#000000; stroke-linecap:round; stroke-linejoin:round; stroke-width:4; stroke-opacity:1; fill:none" points="205.121,999.889 224.019,999.889 "/>
<polyline clip-path="url(#clip990)" style="stroke:#000000; stroke-linecap:round; stroke-linejoin:round; stroke-width:4; stroke-opacity:1; fill:none" points="205.121,700.683 224.019,700.683 "/>
<polyline clip-path="url(#clip990)" style="stroke:#000000; stroke-linecap:round; stroke-linejoin:round; stroke-width:4; stroke-opacity:1; fill:none" points="205.121,401.478 224.019,401.478 "/>
<polyline clip-path="url(#clip990)" style="stroke:#000000; stroke-linecap:round; stroke-linejoin:round; stroke-width:4; stroke-opacity:1; fill:none" points="205.121,102.272 224.019,102.272 "/>
<path clip-path="url(#clip990)" d="M157.177 1284.89 Q153.566 1284.89 151.737 1288.46 Q149.931 1292 149.931 1299.13 Q149.931 1306.24 151.737 1309.8 Q153.566 1313.34 157.177 1313.34 Q160.811 1313.34 162.616 1309.8 Q164.445 1306.24 164.445 1299.13 Q164.445 1292 162.616 1288.46 Q160.811 1284.89 157.177 1284.89 M157.177 1281.19 Q162.987 1281.19 166.042 1285.8 Q169.121 1290.38 169.121 1299.13 Q169.121 1307.86 166.042 1312.46 Q162.987 1317.05 157.177 1317.05 Q151.366 1317.05 148.288 1312.46 Q145.232 1307.86 145.232 1299.13 Q145.232 1290.38 148.288 1285.8 Q151.366 1281.19 157.177 1281.19 Z" fill="#000000" fill-rule="nonzero" fill-opacity="1" /><path clip-path="url(#clip990)" d="M117.825 1013.23 L125.464 1013.23 L125.464 986.868 L117.154 988.535 L117.154 984.275 L125.418 982.609 L130.093 982.609 L130.093 1013.23 L137.732 1013.23 L137.732 1017.17 L117.825 1017.17 L117.825 1013.23 Z" fill="#000000" fill-rule="nonzero" fill-opacity="1" /><path clip-path="url(#clip990)" d="M157.177 985.687 Q153.566 985.687 151.737 989.252 Q149.931 992.794 149.931 999.924 Q149.931 1007.03 151.737 1010.59 Q153.566 1014.14 157.177 1014.14 Q160.811 1014.14 162.616 1010.59 Q164.445 1007.03 164.445 999.924 Q164.445 992.794 162.616 989.252 Q160.811 985.687 157.177 985.687 M157.177 981.984 Q162.987 981.984 166.042 986.59 Q169.121 991.174 169.121 999.924 Q169.121 1008.65 166.042 1013.26 Q162.987 1017.84 157.177 1017.84 Q151.366 1017.84 148.288 1013.26 Q145.232 1008.65 145.232 999.924 Q145.232 991.174 148.288 986.59 Q151.366 981.984 157.177 981.984 Z" fill="#000000" fill-rule="nonzero" fill-opacity="1" /><path clip-path="url(#clip990)" d="M121.043 714.028 L137.362 714.028 L137.362 717.963 L115.418 717.963 L115.418 714.028 Q118.08 711.273 122.663 706.644 Q127.269 701.991 128.45 700.649 Q130.695 698.125 131.575 696.389 Q132.478 694.63 132.478 692.94 Q132.478 690.186 130.533 688.45 Q128.612 686.713 125.51 686.713 Q123.311 686.713 120.857 687.477 Q118.427 688.241 115.649 689.792 L115.649 685.07 Q118.473 683.936 120.927 683.357 Q123.38 682.778 125.418 682.778 Q130.788 682.778 133.982 685.463 Q137.177 688.149 137.177 692.639 Q137.177 694.769 136.367 696.69 Q135.579 698.588 133.473 701.181 Q132.894 701.852 129.792 705.07 Q126.691 708.264 121.043 714.028 Z" fill="#000000" fill-rule="nonzero" fill-opacity="1" /><path clip-path="url(#clip990)" d="M157.177 686.482 Q153.566 686.482 151.737 690.047 Q149.931 693.588 149.931 700.718 Q149.931 707.824 151.737 711.389 Q153.566 714.931 157.177 714.931 Q160.811 714.931 162.616 711.389 Q164.445 707.824 164.445 700.718 Q164.445 693.588 162.616 690.047 Q160.811 686.482 157.177 686.482 M157.177 682.778 Q162.987 682.778 166.042 687.385 Q169.121 691.968 169.121 700.718 Q169.121 709.445 166.042 714.051 Q162.987 718.635 157.177 718.635 Q151.366 718.635 148.288 714.051 Q145.232 709.445 145.232 700.718 Q145.232 691.968 148.288 687.385 Q151.366 682.778 157.177 682.778 Z" fill="#000000" fill-rule="nonzero" fill-opacity="1" /><path clip-path="url(#clip990)" d="M131.181 400.124 Q134.538 400.841 136.413 403.11 Q138.311 405.378 138.311 408.711 Q138.311 413.827 134.792 416.628 Q131.274 419.429 124.793 419.429 Q122.617 419.429 120.302 418.989 Q118.01 418.572 115.556 417.716 L115.556 413.202 Q117.501 414.336 119.816 414.915 Q122.13 415.494 124.654 415.494 Q129.052 415.494 131.343 413.758 Q133.658 412.022 133.658 408.711 Q133.658 405.656 131.505 403.943 Q129.376 402.207 125.556 402.207 L121.529 402.207 L121.529 398.364 L125.742 398.364 Q129.191 398.364 131.019 396.999 Q132.848 395.61 132.848 393.017 Q132.848 390.355 130.95 388.943 Q129.075 387.508 125.556 387.508 Q123.635 387.508 121.436 387.925 Q119.237 388.341 116.598 389.221 L116.598 385.054 Q119.26 384.313 121.575 383.943 Q123.913 383.573 125.973 383.573 Q131.297 383.573 134.399 386.003 Q137.501 388.411 137.501 392.531 Q137.501 395.401 135.857 397.392 Q134.214 399.36 131.181 400.124 Z" fill="#000000" fill-rule="nonzero" fill-opacity="1" /><path clip-path="url(#clip990)" d="M157.177 387.276 Q153.566 387.276 151.737 390.841 Q149.931 394.383 149.931 401.512 Q149.931 408.619 151.737 412.184 Q153.566 415.725 157.177 415.725 Q160.811 415.725 162.616 412.184 Q164.445 408.619 164.445 401.512 Q164.445 394.383 162.616 390.841 Q160.811 387.276 157.177 387.276 M157.177 383.573 Q162.987 383.573 166.042 388.179 Q169.121 392.762 169.121 401.512 Q169.121 410.239 166.042 414.846 Q162.987 419.429 157.177 419.429 Q151.366 419.429 148.288 414.846 Q145.232 410.239 145.232 401.512 Q145.232 392.762 148.288 388.179 Q151.366 383.573 157.177 383.573 Z" fill="#000000" fill-rule="nonzero" fill-opacity="1" /><path clip-path="url(#clip990)" d="M129.862 89.0662 L118.056 107.515 L129.862 107.515 L129.862 89.0662 M128.635 84.9921 L134.515 84.9921 L134.515 107.515 L139.445 107.515 L139.445 111.404 L134.515 111.404 L134.515 119.552 L129.862 119.552 L129.862 111.404 L114.26 111.404 L114.26 106.89 L128.635 84.9921 Z" fill="#000000" fill-rule="nonzero" fill-opacity="1" /><path clip-path="url(#clip990)" d="M157.177 88.0708 Q153.566 88.0708 151.737 91.6356 Q149.931 95.1773 149.931 102.307 Q149.931 109.413 151.737 112.978 Q153.566 116.52 157.177 116.52 Q160.811 116.52 162.616 112.978 Q164.445 109.413 164.445 102.307 Q164.445 95.1773 162.616 91.6356 Q160.811 88.0708 157.177 88.0708 M157.177 84.3671 Q162.987 84.3671 166.042 88.9736 Q169.121 93.5569 169.121 102.307 Q169.121 111.034 166.042 115.64 Q162.987 120.223 157.177 120.223 Q151.366 120.223 148.288 115.64 Q145.232 111.034 145.232 102.307 Q145.232 93.5569 148.288 88.9736 Q151.366 84.3671 157.177 84.3671 Z" fill="#000000" fill-rule="nonzero" fill-opacity="1" /><path clip-path="url(#clip990)" d="M16.4842 755.248 L16.4842 748.341 L36.0269 735.164 L16.4842 722.083 L16.4842 715.176 L41.3741 731.981 L64.0042 731.981 L64.0042 738.443 L41.3741 738.443 L16.4842 755.248 Z" fill="#000000" fill-rule="nonzero" fill-opacity="1" /><circle clip-path="url(#clip992)" cx="265.903" cy="1384.24" r="14.4" fill="#009af9" fill-rule="evenodd" fill-opacity="1" stroke="#000000" stroke-opacity="1" stroke-width="3.2"/>
<circle clip-path="url(#clip992)" cx="276.033" cy="1252.17" r="14.4" fill="#009af9" fill-rule="evenodd" fill-opacity="1" stroke="#000000" stroke-opacity="1" stroke-width="3.2"/>
<circle clip-path="url(#clip992)" cx="286.164" cy="1106.75" r="14.4" fill="#009af9" fill-rule="evenodd" fill-opacity="1" stroke="#000000" stroke-opacity="1" stroke-width="3.2"/>
<circle clip-path="url(#clip992)" cx="296.294" cy="1320.31" r="14.4" fill="#009af9" fill-rule="evenodd" fill-opacity="1" stroke="#000000" stroke-opacity="1" stroke-width="3.2"/>
<circle clip-path="url(#clip992)" cx="306.425" cy="1358.39" r="14.4" fill="#009af9" fill-rule="evenodd" fill-opacity="1" stroke="#000000" stroke-opacity="1" stroke-width="3.2"/>
<circle clip-path="url(#clip992)" cx="316.555" cy="1342.73" r="14.4" fill="#009af9" fill-rule="evenodd" fill-opacity="1" stroke="#000000" stroke-opacity="1" stroke-width="3.2"/>
<circle clip-path="url(#clip992)" cx="326.685" cy="1255.41" r="14.4" fill="#009af9" fill-rule="evenodd" fill-opacity="1" stroke="#000000" stroke-opacity="1" stroke-width="3.2"/>
<circle clip-path="url(#clip992)" cx="336.816" cy="1249.72" r="14.4" fill="#009af9" fill-rule="evenodd" fill-opacity="1" stroke="#000000" stroke-opacity="1" stroke-width="3.2"/>
<circle clip-path="url(#clip992)" cx="346.946" cy="1244.06" r="14.4" fill="#009af9" fill-rule="evenodd" fill-opacity="1" stroke="#000000" stroke-opacity="1" stroke-width="3.2"/>
<circle clip-path="url(#clip992)" cx="357.076" cy="1316.5" r="14.4" fill="#009af9" fill-rule="evenodd" fill-opacity="1" stroke="#000000" stroke-opacity="1" stroke-width="3.2"/>
<circle clip-path="url(#clip992)" cx="367.207" cy="1233.85" r="14.4" fill="#009af9" fill-rule="evenodd" fill-opacity="1" stroke="#000000" stroke-opacity="1" stroke-width="3.2"/>
<circle clip-path="url(#clip992)" cx="377.337" cy="1240.13" r="14.4" fill="#009af9" fill-rule="evenodd" fill-opacity="1" stroke="#000000" stroke-opacity="1" stroke-width="3.2"/>
<circle clip-path="url(#clip992)" cx="387.467" cy="1226.86" r="14.4" fill="#009af9" fill-rule="evenodd" fill-opacity="1" stroke="#000000" stroke-opacity="1" stroke-width="3.2"/>
<circle clip-path="url(#clip992)" cx="397.598" cy="1215.89" r="14.4" fill="#009af9" fill-rule="evenodd" fill-opacity="1" stroke="#000000" stroke-opacity="1" stroke-width="3.2"/>
<circle clip-path="url(#clip992)" cx="407.728" cy="1136.03" r="14.4" fill="#009af9" fill-rule="evenodd" fill-opacity="1" stroke="#000000" stroke-opacity="1" stroke-width="3.2"/>
<circle clip-path="url(#clip992)" cx="417.858" cy="1203.26" r="14.4" fill="#009af9" fill-rule="evenodd" fill-opacity="1" stroke="#000000" stroke-opacity="1" stroke-width="3.2"/>
<circle clip-path="url(#clip992)" cx="427.989" cy="1231.11" r="14.4" fill="#009af9" fill-rule="evenodd" fill-opacity="1" stroke="#000000" stroke-opacity="1" stroke-width="3.2"/>
<circle clip-path="url(#clip992)" cx="438.119" cy="1205.08" r="14.4" fill="#009af9" fill-rule="evenodd" fill-opacity="1" stroke="#000000" stroke-opacity="1" stroke-width="3.2"/>
<circle clip-path="url(#clip992)" cx="448.249" cy="1135.49" r="14.4" fill="#009af9" fill-rule="evenodd" fill-opacity="1" stroke="#000000" stroke-opacity="1" stroke-width="3.2"/>
<circle clip-path="url(#clip992)" cx="458.38" cy="1146.28" r="14.4" fill="#009af9" fill-rule="evenodd" fill-opacity="1" stroke="#000000" stroke-opacity="1" stroke-width="3.2"/>
<circle clip-path="url(#clip992)" cx="468.51" cy="1169.83" r="14.4" fill="#009af9" fill-rule="evenodd" fill-opacity="1" stroke="#000000" stroke-opacity="1" stroke-width="3.2"/>
<circle clip-path="url(#clip992)" cx="478.641" cy="1138.66" r="14.4" fill="#009af9" fill-rule="evenodd" fill-opacity="1" stroke="#000000" stroke-opacity="1" stroke-width="3.2"/>
<circle clip-path="url(#clip992)" cx="488.771" cy="1129.57" r="14.4" fill="#009af9" fill-rule="evenodd" fill-opacity="1" stroke="#000000" stroke-opacity="1" stroke-width="3.2"/>
<circle clip-path="url(#clip992)" cx="498.901" cy="1167.36" r="14.4" fill="#009af9" fill-rule="evenodd" fill-opacity="1" stroke="#000000" stroke-opacity="1" stroke-width="3.2"/>
<circle clip-path="url(#clip992)" cx="509.032" cy="1139.43" r="14.4" fill="#009af9" fill-rule="evenodd" fill-opacity="1" stroke="#000000" stroke-opacity="1" stroke-width="3.2"/>
<circle clip-path="url(#clip992)" cx="519.162" cy="1150.73" r="14.4" fill="#009af9" fill-rule="evenodd" fill-opacity="1" stroke="#000000" stroke-opacity="1" stroke-width="3.2"/>
<circle clip-path="url(#clip992)" cx="529.292" cy="1098.64" r="14.4" fill="#009af9" fill-rule="evenodd" fill-opacity="1" stroke="#000000" stroke-opacity="1" stroke-width="3.2"/>
<circle clip-path="url(#clip992)" cx="539.423" cy="1217.25" r="14.4" fill="#009af9" fill-rule="evenodd" fill-opacity="1" stroke="#000000" stroke-opacity="1" stroke-width="3.2"/>
<circle clip-path="url(#clip992)" cx="549.553" cy="1190.52" r="14.4" fill="#009af9" fill-rule="evenodd" fill-opacity="1" stroke="#000000" stroke-opacity="1" stroke-width="3.2"/>
<circle clip-path="url(#clip992)" cx="559.683" cy="1183.6" r="14.4" fill="#009af9" fill-rule="evenodd" fill-opacity="1" stroke="#000000" stroke-opacity="1" stroke-width="3.2"/>
<circle clip-path="url(#clip992)" cx="569.814" cy="1094.31" r="14.4" fill="#009af9" fill-rule="evenodd" fill-opacity="1" stroke="#000000" stroke-opacity="1" stroke-width="3.2"/>
<circle clip-path="url(#clip992)" cx="579.944" cy="1213.66" r="14.4" fill="#009af9" fill-rule="evenodd" fill-opacity="1" stroke="#000000" stroke-opacity="1" stroke-width="3.2"/>
<circle clip-path="url(#clip992)" cx="590.074" cy="990.965" r="14.4" fill="#009af9" fill-rule="evenodd" fill-opacity="1" stroke="#000000" stroke-opacity="1" stroke-width="3.2"/>
<circle clip-path="url(#clip992)" cx="600.205" cy="1078.3" r="14.4" fill="#009af9" fill-rule="evenodd" fill-opacity="1" stroke="#000000" stroke-opacity="1" stroke-width="3.2"/>
<circle clip-path="url(#clip992)" cx="610.335" cy="1118.5" r="14.4" fill="#009af9" fill-rule="evenodd" fill-opacity="1" stroke="#000000" stroke-opacity="1" stroke-width="3.2"/>
<circle clip-path="url(#clip992)" cx="620.465" cy="1117.25" r="14.4" fill="#009af9" fill-rule="evenodd" fill-opacity="1" stroke="#000000" stroke-opacity="1" stroke-width="3.2"/>
<circle clip-path="url(#clip992)" cx="630.596" cy="1183.68" r="14.4" fill="#009af9" fill-rule="evenodd" fill-opacity="1" stroke="#000000" stroke-opacity="1" stroke-width="3.2"/>
<circle clip-path="url(#clip992)" cx="640.726" cy="1119.46" r="14.4" fill="#009af9" fill-rule="evenodd" fill-opacity="1" stroke="#000000" stroke-opacity="1" stroke-width="3.2"/>
<circle clip-path="url(#clip992)" cx="650.857" cy="1194.11" r="14.4" fill="#009af9" fill-rule="evenodd" fill-opacity="1" stroke="#000000" stroke-opacity="1" stroke-width="3.2"/>
<circle clip-path="url(#clip992)" cx="660.987" cy="1181.43" r="14.4" fill="#009af9" fill-rule="evenodd" fill-opacity="1" stroke="#000000" stroke-opacity="1" stroke-width="3.2"/>
<circle clip-path="url(#clip992)" cx="671.117" cy="998.329" r="14.4" fill="#009af9" fill-rule="evenodd" fill-opacity="1" stroke="#000000" stroke-opacity="1" stroke-width="3.2"/>
<circle clip-path="url(#clip992)" cx="681.248" cy="981.169" r="14.4" fill="#009af9" fill-rule="evenodd" fill-opacity="1" stroke="#000000" stroke-opacity="1" stroke-width="3.2"/>
<circle clip-path="url(#clip992)" cx="691.378" cy="1017.58" r="14.4" fill="#009af9" fill-rule="evenodd" fill-opacity="1" stroke="#000000" stroke-opacity="1" stroke-width="3.2"/>
<circle clip-path="url(#clip992)" cx="701.508" cy="1105.21" r="14.4" fill="#009af9" fill-rule="evenodd" fill-opacity="1" stroke="#000000" stroke-opacity="1" stroke-width="3.2"/>
<circle clip-path="url(#clip992)" cx="711.639" cy="1088.03" r="14.4" fill="#009af9" fill-rule="evenodd" fill-opacity="1" stroke="#000000" stroke-opacity="1" stroke-width="3.2"/>
<circle clip-path="url(#clip992)" cx="721.769" cy="1040.64" r="14.4" fill="#009af9" fill-rule="evenodd" fill-opacity="1" stroke="#000000" stroke-opacity="1" stroke-width="3.2"/>
<circle clip-path="url(#clip992)" cx="731.899" cy="994.815" r="14.4" fill="#009af9" fill-rule="evenodd" fill-opacity="1" stroke="#000000" stroke-opacity="1" stroke-width="3.2"/>
<circle clip-path="url(#clip992)" cx="742.03" cy="1089.49" r="14.4" fill="#009af9" fill-rule="evenodd" fill-opacity="1" stroke="#000000" stroke-opacity="1" stroke-width="3.2"/>
<circle clip-path="url(#clip992)" cx="752.16" cy="1085.53" r="14.4" fill="#009af9" fill-rule="evenodd" fill-opacity="1" stroke="#000000" stroke-opacity="1" stroke-width="3.2"/>
<circle clip-path="url(#clip992)" cx="762.29" cy="1063.16" r="14.4" fill="#009af9" fill-rule="evenodd" fill-opacity="1" stroke="#000000" stroke-opacity="1" stroke-width="3.2"/>
<circle clip-path="url(#clip992)" cx="772.421" cy="928.639" r="14.4" fill="#009af9" fill-rule="evenodd" fill-opacity="1" stroke="#000000" stroke-opacity="1" stroke-width="3.2"/>
<circle clip-path="url(#clip992)" cx="782.551" cy="1078.63" r="14.4" fill="#009af9" fill-rule="evenodd" fill-opacity="1" stroke="#000000" stroke-opacity="1" stroke-width="3.2"/>
<circle clip-path="url(#clip992)" cx="792.681" cy="932.021" r="14.4" fill="#009af9" fill-rule="evenodd" fill-opacity="1" stroke="#000000" stroke-opacity="1" stroke-width="3.2"/>
<circle clip-path="url(#clip992)" cx="802.812" cy="908.921" r="14.4" fill="#009af9" fill-rule="evenodd" fill-opacity="1" stroke="#000000" stroke-opacity="1" stroke-width="3.2"/>
<circle clip-path="url(#clip992)" cx="812.942" cy="993.994" r="14.4" fill="#009af9" fill-rule="evenodd" fill-opacity="1" stroke="#000000" stroke-opacity="1" stroke-width="3.2"/>
<circle clip-path="url(#clip992)" cx="823.073" cy="976.164" r="14.4" fill="#009af9" fill-rule="evenodd" fill-opacity="1" stroke="#000000" stroke-opacity="1" stroke-width="3.2"/>
<circle clip-path="url(#clip992)" cx="833.203" cy="1028.74" r="14.4" fill="#009af9" fill-rule="evenodd" fill-opacity="1" stroke="#000000" stroke-opacity="1" stroke-width="3.2"/>
<circle clip-path="url(#clip992)" cx="843.333" cy="1069.83" r="14.4" fill="#009af9" fill-rule="evenodd" fill-opacity="1" stroke="#000000" stroke-opacity="1" stroke-width="3.2"/>
<circle clip-path="url(#clip992)" cx="853.464" cy="1105.29" r="14.4" fill="#009af9" fill-rule="evenodd" fill-opacity="1" stroke="#000000" stroke-opacity="1" stroke-width="3.2"/>
<circle clip-path="url(#clip992)" cx="863.594" cy="1108.66" r="14.4" fill="#009af9" fill-rule="evenodd" fill-opacity="1" stroke="#000000" stroke-opacity="1" stroke-width="3.2"/>
<circle clip-path="url(#clip992)" cx="873.724" cy="1038.76" r="14.4" fill="#009af9" fill-rule="evenodd" fill-opacity="1" stroke="#000000" stroke-opacity="1" stroke-width="3.2"/>
<circle clip-path="url(#clip992)" cx="883.855" cy="965.423" r="14.4" fill="#009af9" fill-rule="evenodd" fill-opacity="1" stroke="#000000" stroke-opacity="1" stroke-width="3.2"/>
<circle clip-path="url(#clip992)" cx="893.985" cy="923.382" r="14.4" fill="#009af9" fill-rule="evenodd" fill-opacity="1" stroke="#000000" stroke-opacity="1" stroke-width="3.2"/>
<circle clip-path="url(#clip992)" cx="904.115" cy="971.017" r="14.4" fill="#009af9" fill-rule="evenodd" fill-opacity="1" stroke="#000000" stroke-opacity="1" stroke-width="3.2"/>
<circle clip-path="url(#clip992)" cx="914.246" cy="926.919" r="14.4" fill="#009af9" fill-rule="evenodd" fill-opacity="1" stroke="#000000" stroke-opacity="1" stroke-width="3.2"/>
<circle clip-path="url(#clip992)" cx="924.376" cy="891.382" r="14.4" fill="#009af9" fill-rule="evenodd" fill-opacity="1" stroke="#000000" stroke-opacity="1" stroke-width="3.2"/>
<circle clip-path="url(#clip992)" cx="934.506" cy="792.588" r="14.4" fill="#009af9" fill-rule="evenodd" fill-opacity="1" stroke="#000000" stroke-opacity="1" stroke-width="3.2"/>
<circle clip-path="url(#clip992)" cx="944.637" cy="782.297" r="14.4" fill="#009af9" fill-rule="evenodd" fill-opacity="1" stroke="#000000" stroke-opacity="1" stroke-width="3.2"/>
<circle clip-path="url(#clip992)" cx="954.767" cy="802.372" r="14.4" fill="#009af9" fill-rule="evenodd" fill-opacity="1" stroke="#000000" stroke-opacity="1" stroke-width="3.2"/>
<circle clip-path="url(#clip992)" cx="964.897" cy="791.498" r="14.4" fill="#009af9" fill-rule="evenodd" fill-opacity="1" stroke="#000000" stroke-opacity="1" stroke-width="3.2"/>
<circle clip-path="url(#clip992)" cx="975.028" cy="778.283" r="14.4" fill="#009af9" fill-rule="evenodd" fill-opacity="1" stroke="#000000" stroke-opacity="1" stroke-width="3.2"/>
<circle clip-path="url(#clip992)" cx="985.158" cy="718.476" r="14.4" fill="#009af9" fill-rule="evenodd" fill-opacity="1" stroke="#000000" stroke-opacity="1" stroke-width="3.2"/>
<circle clip-path="url(#clip992)" cx="995.289" cy="769.636" r="14.4" fill="#009af9" fill-rule="evenodd" fill-opacity="1" stroke="#000000" stroke-opacity="1" stroke-width="3.2"/>
<circle clip-path="url(#clip992)" cx="1005.42" cy="633.659" r="14.4" fill="#009af9" fill-rule="evenodd" fill-opacity="1" stroke="#000000" stroke-opacity="1" stroke-width="3.2"/>
<circle clip-path="url(#clip992)" cx="1015.55" cy="597.602" r="14.4" fill="#009af9" fill-rule="evenodd" fill-opacity="1" stroke="#000000" stroke-opacity="1" stroke-width="3.2"/>
<circle clip-path="url(#clip992)" cx="1025.68" cy="582.433" r="14.4" fill="#009af9" fill-rule="evenodd" fill-opacity="1" stroke="#000000" stroke-opacity="1" stroke-width="3.2"/>
<circle clip-path="url(#clip992)" cx="1035.81" cy="563.816" r="14.4" fill="#009af9" fill-rule="evenodd" fill-opacity="1" stroke="#000000" stroke-opacity="1" stroke-width="3.2"/>
<circle clip-path="url(#clip992)" cx="1045.94" cy="557.055" r="14.4" fill="#009af9" fill-rule="evenodd" fill-opacity="1" stroke="#000000" stroke-opacity="1" stroke-width="3.2"/>
<circle clip-path="url(#clip992)" cx="1056.07" cy="523.888" r="14.4" fill="#009af9" fill-rule="evenodd" fill-opacity="1" stroke="#000000" stroke-opacity="1" stroke-width="3.2"/>
<circle clip-path="url(#clip992)" cx="1066.2" cy="422.698" r="14.4" fill="#009af9" fill-rule="evenodd" fill-opacity="1" stroke="#000000" stroke-opacity="1" stroke-width="3.2"/>
<circle clip-path="url(#clip992)" cx="1076.33" cy="484.961" r="14.4" fill="#009af9" fill-rule="evenodd" fill-opacity="1" stroke="#000000" stroke-opacity="1" stroke-width="3.2"/>
<circle clip-path="url(#clip992)" cx="1086.46" cy="425.211" r="14.4" fill="#009af9" fill-rule="evenodd" fill-opacity="1" stroke="#000000" stroke-opacity="1" stroke-width="3.2"/>
<circle clip-path="url(#clip992)" cx="1096.59" cy="522.533" r="14.4" fill="#009af9" fill-rule="evenodd" fill-opacity="1" stroke="#000000" stroke-opacity="1" stroke-width="3.2"/>
<circle clip-path="url(#clip992)" cx="1106.72" cy="471.185" r="14.4" fill="#009af9" fill-rule="evenodd" fill-opacity="1" stroke="#000000" stroke-opacity="1" stroke-width="3.2"/>
<circle clip-path="url(#clip992)" cx="1116.85" cy="513.036" r="14.4" fill="#009af9" fill-rule="evenodd" fill-opacity="1" stroke="#000000" stroke-opacity="1" stroke-width="3.2"/>
<circle clip-path="url(#clip992)" cx="1126.98" cy="498.389" r="14.4" fill="#009af9" fill-rule="evenodd" fill-opacity="1" stroke="#000000" stroke-opacity="1" stroke-width="3.2"/>
<circle clip-path="url(#clip992)" cx="1137.11" cy="361.709" r="14.4" fill="#009af9" fill-rule="evenodd" fill-opacity="1" stroke="#000000" stroke-opacity="1" stroke-width="3.2"/>
<circle clip-path="url(#clip992)" cx="1147.24" cy="454.962" r="14.4" fill="#009af9" fill-rule="evenodd" fill-opacity="1" stroke="#000000" stroke-opacity="1" stroke-width="3.2"/>
<circle clip-path="url(#clip992)" cx="1157.37" cy="441.233" r="14.4" fill="#009af9" fill-rule="evenodd" fill-opacity="1" stroke="#000000" stroke-opacity="1" stroke-width="3.2"/>
<circle clip-path="url(#clip992)" cx="1167.5" cy="541.81" r="14.4" fill="#009af9" fill-rule="evenodd" fill-opacity="1" stroke="#000000" stroke-opacity="1" stroke-width="3.2"/>
<circle clip-path="url(#clip992)" cx="1177.63" cy="474.997" r="14.4" fill="#009af9" fill-rule="evenodd" fill-opacity="1" stroke="#000000" stroke-opacity="1" stroke-width="3.2"/>
<circle clip-path="url(#clip992)" cx="1187.77" cy="550.647" r="14.4" fill="#009af9" fill-rule="evenodd" fill-opacity="1" stroke="#000000" stroke-opacity="1" stroke-width="3.2"/>
<circle clip-path="url(#clip992)" cx="1197.9" cy="418.825" r="14.4" fill="#009af9" fill-rule="evenodd" fill-opacity="1" stroke="#000000" stroke-opacity="1" stroke-width="3.2"/>
<circle clip-path="url(#clip992)" cx="1208.03" cy="489.37" r="14.4" fill="#009af9" fill-rule="evenodd" fill-opacity="1" stroke="#000000" stroke-opacity="1" stroke-width="3.2"/>
<circle clip-path="url(#clip992)" cx="1218.16" cy="486.452" r="14.4" fill="#009af9" fill-rule="evenodd" fill-opacity="1" stroke="#000000" stroke-opacity="1" stroke-width="3.2"/>
<circle clip-path="url(#clip992)" cx="1228.29" cy="495.751" r="14.4" fill="#009af9" fill-rule="evenodd" fill-opacity="1" stroke="#000000" stroke-opacity="1" stroke-width="3.2"/>
<circle clip-path="url(#clip992)" cx="1238.42" cy="591.025" r="14.4" fill="#009af9" fill-rule="evenodd" fill-opacity="1" stroke="#000000" stroke-opacity="1" stroke-width="3.2"/>
<circle clip-path="url(#clip992)" cx="1248.55" cy="452.402" r="14.4" fill="#009af9" fill-rule="evenodd" fill-opacity="1" stroke="#000000" stroke-opacity="1" stroke-width="3.2"/>
<circle clip-path="url(#clip992)" cx="1258.68" cy="419.028" r="14.4" fill="#009af9" fill-rule="evenodd" fill-opacity="1" stroke="#000000" stroke-opacity="1" stroke-width="3.2"/>
<circle clip-path="url(#clip992)" cx="1268.81" cy="394.702" r="14.4" fill="#009af9" fill-rule="evenodd" fill-opacity="1" stroke="#000000" stroke-opacity="1" stroke-width="3.2"/>
<circle clip-path="url(#clip992)" cx="1278.94" cy="400.519" r="14.4" fill="#009af9" fill-rule="evenodd" fill-opacity="1" stroke="#000000" stroke-opacity="1" stroke-width="3.2"/>
<circle clip-path="url(#clip992)" cx="1289.07" cy="489.1" r="14.4" fill="#009af9" fill-rule="evenodd" fill-opacity="1" stroke="#000000" stroke-opacity="1" stroke-width="3.2"/>
<circle clip-path="url(#clip992)" cx="1299.2" cy="383.69" r="14.4" fill="#009af9" fill-rule="evenodd" fill-opacity="1" stroke="#000000" stroke-opacity="1" stroke-width="3.2"/>
<circle clip-path="url(#clip992)" cx="1309.33" cy="444.956" r="14.4" fill="#009af9" fill-rule="evenodd" fill-opacity="1" stroke="#000000" stroke-opacity="1" stroke-width="3.2"/>
<circle clip-path="url(#clip992)" cx="1319.46" cy="333.751" r="14.4" fill="#009af9" fill-rule="evenodd" fill-opacity="1" stroke="#000000" stroke-opacity="1" stroke-width="3.2"/>
<circle clip-path="url(#clip992)" cx="1329.59" cy="364.316" r="14.4" fill="#009af9" fill-rule="evenodd" fill-opacity="1" stroke="#000000" stroke-opacity="1" stroke-width="3.2"/>
<circle clip-path="url(#clip992)" cx="1339.72" cy="423.639" r="14.4" fill="#009af9" fill-rule="evenodd" fill-opacity="1" stroke="#000000" stroke-opacity="1" stroke-width="3.2"/>
<circle clip-path="url(#clip992)" cx="1349.85" cy="326.061" r="14.4" fill="#009af9" fill-rule="evenodd" fill-opacity="1" stroke="#000000" stroke-opacity="1" stroke-width="3.2"/>
<circle clip-path="url(#clip992)" cx="1359.98" cy="359.19" r="14.4" fill="#009af9" fill-rule="evenodd" fill-opacity="1" stroke="#000000" stroke-opacity="1" stroke-width="3.2"/>
<circle clip-path="url(#clip992)" cx="1370.11" cy="294.887" r="14.4" fill="#009af9" fill-rule="evenodd" fill-opacity="1" stroke="#000000" stroke-opacity="1" stroke-width="3.2"/>
<circle clip-path="url(#clip992)" cx="1380.24" cy="396.427" r="14.4" fill="#009af9" fill-rule="evenodd" fill-opacity="1" stroke="#000000" stroke-opacity="1" stroke-width="3.2"/>
<circle clip-path="url(#clip992)" cx="1390.37" cy="236.385" r="14.4" fill="#009af9" fill-rule="evenodd" fill-opacity="1" stroke="#000000" stroke-opacity="1" stroke-width="3.2"/>
<circle clip-path="url(#clip992)" cx="1400.5" cy="289.268" r="14.4" fill="#009af9" fill-rule="evenodd" fill-opacity="1" stroke="#000000" stroke-opacity="1" stroke-width="3.2"/>
<circle clip-path="url(#clip992)" cx="1410.63" cy="206.829" r="14.4" fill="#009af9" fill-rule="evenodd" fill-opacity="1" stroke="#000000" stroke-opacity="1" stroke-width="3.2"/>
<circle clip-path="url(#clip992)" cx="1420.76" cy="284.336" r="14.4" fill="#009af9" fill-rule="evenodd" fill-opacity="1" stroke="#000000" stroke-opacity="1" stroke-width="3.2"/>
<circle clip-path="url(#clip992)" cx="1430.89" cy="260.51" r="14.4" fill="#009af9" fill-rule="evenodd" fill-opacity="1" stroke="#000000" stroke-opacity="1" stroke-width="3.2"/>
<circle clip-path="url(#clip992)" cx="1441.02" cy="247.711" r="14.4" fill="#009af9" fill-rule="evenodd" fill-opacity="1" stroke="#000000" stroke-opacity="1" stroke-width="3.2"/>
<circle clip-path="url(#clip992)" cx="1451.15" cy="347.149" r="14.4" fill="#009af9" fill-rule="evenodd" fill-opacity="1" stroke="#000000" stroke-opacity="1" stroke-width="3.2"/>
<circle clip-path="url(#clip992)" cx="1461.28" cy="148.335" r="14.4" fill="#009af9" fill-rule="evenodd" fill-opacity="1" stroke="#000000" stroke-opacity="1" stroke-width="3.2"/>
<circle clip-path="url(#clip992)" cx="1471.42" cy="86.1857" r="14.4" fill="#009af9" fill-rule="evenodd" fill-opacity="1" stroke="#000000" stroke-opacity="1" stroke-width="3.2"/>
<circle clip-path="url(#clip992)" cx="1481.55" cy="186.974" r="14.4" fill="#009af9" fill-rule="evenodd" fill-opacity="1" stroke="#000000" stroke-opacity="1" stroke-width="3.2"/>
<circle clip-path="url(#clip992)" cx="1491.68" cy="210.69" r="14.4" fill="#009af9" fill-rule="evenodd" fill-opacity="1" stroke="#000000" stroke-opacity="1" stroke-width="3.2"/>
<circle clip-path="url(#clip992)" cx="1501.81" cy="240.208" r="14.4" fill="#009af9" fill-rule="evenodd" fill-opacity="1" stroke="#000000" stroke-opacity="1" stroke-width="3.2"/>
<circle clip-path="url(#clip992)" cx="1511.94" cy="216.89" r="14.4" fill="#009af9" fill-rule="evenodd" fill-opacity="1" stroke="#000000" stroke-opacity="1" stroke-width="3.2"/>
<circle clip-path="url(#clip992)" cx="1522.07" cy="189.58" r="14.4" fill="#009af9" fill-rule="evenodd" fill-opacity="1" stroke="#000000" stroke-opacity="1" stroke-width="3.2"/>
<circle clip-path="url(#clip992)" cx="1532.2" cy="178.34" r="14.4" fill="#009af9" fill-rule="evenodd" fill-opacity="1" stroke="#000000" stroke-opacity="1" stroke-width="3.2"/>
<circle clip-path="url(#clip992)" cx="1542.33" cy="163.663" r="14.4" fill="#009af9" fill-rule="evenodd" fill-opacity="1" stroke="#000000" stroke-opacity="1" stroke-width="3.2"/>
<circle clip-path="url(#clip992)" cx="1552.46" cy="187.62" r="14.4" fill="#009af9" fill-rule="evenodd" fill-opacity="1" stroke="#000000" stroke-opacity="1" stroke-width="3.2"/>
<circle clip-path="url(#clip992)" cx="1562.59" cy="297.478" r="14.4" fill="#009af9" fill-rule="evenodd" fill-opacity="1" stroke="#000000" stroke-opacity="1" stroke-width="3.2"/>
<circle clip-path="url(#clip992)" cx="1572.72" cy="299.493" r="14.4" fill="#009af9" fill-rule="evenodd" fill-opacity="1" stroke="#000000" stroke-opacity="1" stroke-width="3.2"/>
<circle clip-path="url(#clip992)" cx="1582.85" cy="267.937" r="14.4" fill="#009af9" fill-rule="evenodd" fill-opacity="1" stroke="#000000" stroke-opacity="1" stroke-width="3.2"/>
<circle clip-path="url(#clip992)" cx="1592.98" cy="193.321" r="14.4" fill="#009af9" fill-rule="evenodd" fill-opacity="1" stroke="#000000" stroke-opacity="1" stroke-width="3.2"/>
<circle clip-path="url(#clip992)" cx="1603.11" cy="245.785" r="14.4" fill="#009af9" fill-rule="evenodd" fill-opacity="1" stroke="#000000" stroke-opacity="1" stroke-width="3.2"/>
<circle clip-path="url(#clip992)" cx="1613.24" cy="407.711" r="14.4" fill="#009af9" fill-rule="evenodd" fill-opacity="1" stroke="#000000" stroke-opacity="1" stroke-width="3.2"/>
<circle clip-path="url(#clip992)" cx="1623.37" cy="322.437" r="14.4" fill="#009af9" fill-rule="evenodd" fill-opacity="1" stroke="#000000" stroke-opacity="1" stroke-width="3.2"/>
<circle clip-path="url(#clip992)" cx="1633.5" cy="231.788" r="14.4" fill="#009af9" fill-rule="evenodd" fill-opacity="1" stroke="#000000" stroke-opacity="1" stroke-width="3.2"/>
<circle clip-path="url(#clip992)" cx="1643.63" cy="253.058" r="14.4" fill="#009af9" fill-rule="evenodd" fill-opacity="1" stroke="#000000" stroke-opacity="1" stroke-width="3.2"/>
<circle clip-path="url(#clip992)" cx="1653.76" cy="333.934" r="14.4" fill="#009af9" fill-rule="evenodd" fill-opacity="1" stroke="#000000" stroke-opacity="1" stroke-width="3.2"/>
<circle clip-path="url(#clip992)" cx="1663.89" cy="323.516" r="14.4" fill="#009af9" fill-rule="evenodd" fill-opacity="1" stroke="#000000" stroke-opacity="1" stroke-width="3.2"/>
<circle clip-path="url(#clip992)" cx="1674.02" cy="365.753" r="14.4" fill="#009af9" fill-rule="evenodd" fill-opacity="1" stroke="#000000" stroke-opacity="1" stroke-width="3.2"/>
<circle clip-path="url(#clip992)" cx="1684.15" cy="352.824" r="14.4" fill="#009af9" fill-rule="evenodd" fill-opacity="1" stroke="#000000" stroke-opacity="1" stroke-width="3.2"/>
<circle clip-path="url(#clip992)" cx="1694.28" cy="352.391" r="14.4" fill="#009af9" fill-rule="evenodd" fill-opacity="1" stroke="#000000" stroke-opacity="1" stroke-width="3.2"/>
<circle clip-path="url(#clip992)" cx="1704.41" cy="298.309" r="14.4" fill="#009af9" fill-rule="evenodd" fill-opacity="1" stroke="#000000" stroke-opacity="1" stroke-width="3.2"/>
<circle clip-path="url(#clip992)" cx="1714.54" cy="420.402" r="14.4" fill="#009af9" fill-rule="evenodd" fill-opacity="1" stroke="#000000" stroke-opacity="1" stroke-width="3.2"/>
<circle clip-path="url(#clip992)" cx="1724.67" cy="327.867" r="14.4" fill="#009af9" fill-rule="evenodd" fill-opacity="1" stroke="#000000" stroke-opacity="1" stroke-width="3.2"/>
<circle clip-path="url(#clip992)" cx="1734.8" cy="400.324" r="14.4" fill="#009af9" fill-rule="evenodd" fill-opacity="1" stroke="#000000" stroke-opacity="1" stroke-width="3.2"/>
<circle clip-path="url(#clip992)" cx="1744.93" cy="376.263" r="14.4" fill="#009af9" fill-rule="evenodd" fill-opacity="1" stroke="#000000" stroke-opacity="1" stroke-width="3.2"/>
<circle clip-path="url(#clip992)" cx="1755.07" cy="426.328" r="14.4" fill="#009af9" fill-rule="evenodd" fill-opacity="1" stroke="#000000" stroke-opacity="1" stroke-width="3.2"/>
<circle clip-path="url(#clip992)" cx="1765.2" cy="458.736" r="14.4" fill="#009af9" fill-rule="evenodd" fill-opacity="1" stroke="#000000" stroke-opacity="1" stroke-width="3.2"/>
<circle clip-path="url(#clip992)" cx="1775.33" cy="443.375" r="14.4" fill="#009af9" fill-rule="evenodd" fill-opacity="1" stroke="#000000" stroke-opacity="1" stroke-width="3.2"/>
<circle clip-path="url(#clip992)" cx="1785.46" cy="407.314" r="14.4" fill="#009af9" fill-rule="evenodd" fill-opacity="1" stroke="#000000" stroke-opacity="1" stroke-width="3.2"/>
<circle clip-path="url(#clip992)" cx="1795.59" cy="546.283" r="14.4" fill="#009af9" fill-rule="evenodd" fill-opacity="1" stroke="#000000" stroke-opacity="1" stroke-width="3.2"/>
<circle clip-path="url(#clip992)" cx="1805.72" cy="408.57" r="14.4" fill="#009af9" fill-rule="evenodd" fill-opacity="1" stroke="#000000" stroke-opacity="1" stroke-width="3.2"/>
<circle clip-path="url(#clip992)" cx="1815.85" cy="546.577" r="14.4" fill="#009af9" fill-rule="evenodd" fill-opacity="1" stroke="#000000" stroke-opacity="1" stroke-width="3.2"/>
<circle clip-path="url(#clip992)" cx="1825.98" cy="600.85" r="14.4" fill="#009af9" fill-rule="evenodd" fill-opacity="1" stroke="#000000" stroke-opacity="1" stroke-width="3.2"/>
<circle clip-path="url(#clip992)" cx="1836.11" cy="568.226" r="14.4" fill="#009af9" fill-rule="evenodd" fill-opacity="1" stroke="#000000" stroke-opacity="1" stroke-width="3.2"/>
<circle clip-path="url(#clip992)" cx="1846.24" cy="567.566" r="14.4" fill="#009af9" fill-rule="evenodd" fill-opacity="1" stroke="#000000" stroke-opacity="1" stroke-width="3.2"/>
<circle clip-path="url(#clip992)" cx="1856.37" cy="540.659" r="14.4" fill="#009af9" fill-rule="evenodd" fill-opacity="1" stroke="#000000" stroke-opacity="1" stroke-width="3.2"/>
<circle clip-path="url(#clip992)" cx="1866.5" cy="568.353" r="14.4" fill="#009af9" fill-rule="evenodd" fill-opacity="1" stroke="#000000" stroke-opacity="1" stroke-width="3.2"/>
<circle clip-path="url(#clip992)" cx="1876.63" cy="580.28" r="14.4" fill="#009af9" fill-rule="evenodd" fill-opacity="1" stroke="#000000" stroke-opacity="1" stroke-width="3.2"/>
<circle clip-path="url(#clip992)" cx="1886.76" cy="595.704" r="14.4" fill="#009af9" fill-rule="evenodd" fill-opacity="1" stroke="#000000" stroke-opacity="1" stroke-width="3.2"/>
<circle clip-path="url(#clip992)" cx="1896.89" cy="628.109" r="14.4" fill="#009af9" fill-rule="evenodd" fill-opacity="1" stroke="#000000" stroke-opacity="1" stroke-width="3.2"/>
<circle clip-path="url(#clip992)" cx="1907.02" cy="576.299" r="14.4" fill="#009af9" fill-rule="evenodd" fill-opacity="1" stroke="#000000" stroke-opacity="1" stroke-width="3.2"/>
<circle clip-path="url(#clip992)" cx="1917.15" cy="567.64" r="14.4" fill="#009af9" fill-rule="evenodd" fill-opacity="1" stroke="#000000" stroke-opacity="1" stroke-width="3.2"/>
<circle clip-path="url(#clip992)" cx="1927.28" cy="611.259" r="14.4" fill="#009af9" fill-rule="evenodd" fill-opacity="1" stroke="#000000" stroke-opacity="1" stroke-width="3.2"/>
<circle clip-path="url(#clip992)" cx="1937.41" cy="828.273" r="14.4" fill="#009af9" fill-rule="evenodd" fill-opacity="1" stroke="#000000" stroke-opacity="1" stroke-width="3.2"/>
<circle clip-path="url(#clip992)" cx="1947.54" cy="625.561" r="14.4" fill="#009af9" fill-rule="evenodd" fill-opacity="1" stroke="#000000" stroke-opacity="1" stroke-width="3.2"/>
<circle clip-path="url(#clip992)" cx="1957.67" cy="612.226" r="14.4" fill="#009af9" fill-rule="evenodd" fill-opacity="1" stroke="#000000" stroke-opacity="1" stroke-width="3.2"/>
<circle clip-path="url(#clip992)" cx="1967.8" cy="627.784" r="14.4" fill="#009af9" fill-rule="evenodd" fill-opacity="1" stroke="#000000" stroke-opacity="1" stroke-width="3.2"/>
<circle clip-path="url(#clip992)" cx="1977.93" cy="682.455" r="14.4" fill="#009af9" fill-rule="evenodd" fill-opacity="1" stroke="#000000" stroke-opacity="1" stroke-width="3.2"/>
<circle clip-path="url(#clip992)" cx="1988.06" cy="757.656" r="14.4" fill="#009af9" fill-rule="evenodd" fill-opacity="1" stroke="#000000" stroke-opacity="1" stroke-width="3.2"/>
<circle clip-path="url(#clip992)" cx="1998.19" cy="593.471" r="14.4" fill="#009af9" fill-rule="evenodd" fill-opacity="1" stroke="#000000" stroke-opacity="1" stroke-width="3.2"/>
<circle clip-path="url(#clip992)" cx="2008.32" cy="681.221" r="14.4" fill="#009af9" fill-rule="evenodd" fill-opacity="1" stroke="#000000" stroke-opacity="1" stroke-width="3.2"/>
<circle clip-path="url(#clip992)" cx="2018.45" cy="657.1" r="14.4" fill="#009af9" fill-rule="evenodd" fill-opacity="1" stroke="#000000" stroke-opacity="1" stroke-width="3.2"/>
<circle clip-path="url(#clip992)" cx="2028.58" cy="607.15" r="14.4" fill="#009af9" fill-rule="evenodd" fill-opacity="1" stroke="#000000" stroke-opacity="1" stroke-width="3.2"/>
<circle clip-path="url(#clip992)" cx="2038.71" cy="615.018" r="14.4" fill="#009af9" fill-rule="evenodd" fill-opacity="1" stroke="#000000" stroke-opacity="1" stroke-width="3.2"/>
<circle clip-path="url(#clip992)" cx="2048.85" cy="693.031" r="14.4" fill="#009af9" fill-rule="evenodd" fill-opacity="1" stroke="#000000" stroke-opacity="1" stroke-width="3.2"/>
<circle clip-path="url(#clip992)" cx="2058.98" cy="638.062" r="14.4" fill="#009af9" fill-rule="evenodd" fill-opacity="1" stroke="#000000" stroke-opacity="1" stroke-width="3.2"/>
<circle clip-path="url(#clip992)" cx="2069.11" cy="641.989" r="14.4" fill="#009af9" fill-rule="evenodd" fill-opacity="1" stroke="#000000" stroke-opacity="1" stroke-width="3.2"/>
<circle clip-path="url(#clip992)" cx="2079.24" cy="708.66" r="14.4" fill="#009af9" fill-rule="evenodd" fill-opacity="1" stroke="#000000" stroke-opacity="1" stroke-width="3.2"/>
<circle clip-path="url(#clip992)" cx="2089.37" cy="665.561" r="14.4" fill="#009af9" fill-rule="evenodd" fill-opacity="1" stroke="#000000" stroke-opacity="1" stroke-width="3.2"/>
<circle clip-path="url(#clip992)" cx="2099.5" cy="766.495" r="14.4" fill="#009af9" fill-rule="evenodd" fill-opacity="1" stroke="#000000" stroke-opacity="1" stroke-width="3.2"/>
<circle clip-path="url(#clip992)" cx="2109.63" cy="730.737" r="14.4" fill="#009af9" fill-rule="evenodd" fill-opacity="1" stroke="#000000" stroke-opacity="1" stroke-width="3.2"/>
<circle clip-path="url(#clip992)" cx="2119.76" cy="752.578" r="14.4" fill="#009af9" fill-rule="evenodd" fill-opacity="1" stroke="#000000" stroke-opacity="1" stroke-width="3.2"/>
<circle clip-path="url(#clip992)" cx="2129.89" cy="736.169" r="14.4" fill="#009af9" fill-rule="evenodd" fill-opacity="1" stroke="#000000" stroke-opacity="1" stroke-width="3.2"/>
<circle clip-path="url(#clip992)" cx="2140.02" cy="795.23" r="14.4" fill="#009af9" fill-rule="evenodd" fill-opacity="1" stroke="#000000" stroke-opacity="1" stroke-width="3.2"/>
<circle clip-path="url(#clip992)" cx="2150.15" cy="776.403" r="14.4" fill="#009af9" fill-rule="evenodd" fill-opacity="1" stroke="#000000" stroke-opacity="1" stroke-width="3.2"/>
<circle clip-path="url(#clip992)" cx="2160.28" cy="663.744" r="14.4" fill="#009af9" fill-rule="evenodd" fill-opacity="1" stroke="#000000" stroke-opacity="1" stroke-width="3.2"/>
<circle clip-path="url(#clip992)" cx="2170.41" cy="757.591" r="14.4" fill="#009af9" fill-rule="evenodd" fill-opacity="1" stroke="#000000" stroke-opacity="1" stroke-width="3.2"/>
<circle clip-path="url(#clip992)" cx="2180.54" cy="811.505" r="14.4" fill="#009af9" fill-rule="evenodd" fill-opacity="1" stroke="#000000" stroke-opacity="1" stroke-width="3.2"/>
<circle clip-path="url(#clip992)" cx="2190.67" cy="673.497" r="14.4" fill="#009af9" fill-rule="evenodd" fill-opacity="1" stroke="#000000" stroke-opacity="1" stroke-width="3.2"/>
<circle clip-path="url(#clip992)" cx="2200.8" cy="598.751" r="14.4" fill="#009af9" fill-rule="evenodd" fill-opacity="1" stroke="#000000" stroke-opacity="1" stroke-width="3.2"/>
<circle clip-path="url(#clip992)" cx="2210.93" cy="669.779" r="14.4" fill="#009af9" fill-rule="evenodd" fill-opacity="1" stroke="#000000" stroke-opacity="1" stroke-width="3.2"/>
<circle clip-path="url(#clip992)" cx="2221.06" cy="646.7" r="14.4" fill="#009af9" fill-rule="evenodd" fill-opacity="1" stroke="#000000" stroke-opacity="1" stroke-width="3.2"/>
<circle clip-path="url(#clip992)" cx="2231.19" cy="664.64" r="14.4" fill="#009af9" fill-rule="evenodd" fill-opacity="1" stroke="#000000" stroke-opacity="1" stroke-width="3.2"/>
<circle clip-path="url(#clip992)" cx="2241.32" cy="637.785" r="14.4" fill="#009af9" fill-rule="evenodd" fill-opacity="1" stroke="#000000" stroke-opacity="1" stroke-width="3.2"/>
<circle clip-path="url(#clip992)" cx="2251.45" cy="739.668" r="14.4" fill="#009af9" fill-rule="evenodd" fill-opacity="1" stroke="#000000" stroke-opacity="1" stroke-width="3.2"/>
<circle clip-path="url(#clip992)" cx="2261.58" cy="722.925" r="14.4" fill="#009af9" fill-rule="evenodd" fill-opacity="1" stroke="#000000" stroke-opacity="1" stroke-width="3.2"/>
<circle clip-path="url(#clip992)" cx="2271.71" cy="741.761" r="14.4" fill="#009af9" fill-rule="evenodd" fill-opacity="1" stroke="#000000" stroke-opacity="1" stroke-width="3.2"/>
<circle clip-path="url(#clip992)" cx="2281.84" cy="716.797" r="14.4" fill="#009af9" fill-rule="evenodd" fill-opacity="1" stroke="#000000" stroke-opacity="1" stroke-width="3.2"/>
<circle clip-path="url(#clip992)" cx="2291.97" cy="703.725" r="14.4" fill="#009af9" fill-rule="evenodd" fill-opacity="1" stroke="#000000" stroke-opacity="1" stroke-width="3.2"/>
<polyline clip-path="url(#clip992)" style="stroke:#e26f46; stroke-linecap:round; stroke-linejoin:round; stroke-width:4; stroke-opacity:1; fill:none" points="265.903,1277.7 276.033,1273.35 286.164,1273.14 296.294,1271.94 306.425,1269.86 316.555,1258.98 326.685,1250.82 336.816,1246.12 346.946,1251.3 357.076,1245.16 367.207,1232.63 377.337,1228.3 387.467,1229.98 397.598,1219.94 407.728,1209.89 417.858,1199.18 427.989,1193.68 438.119,1185.72 448.249,1184.31 458.38,1177.68 468.51,1175.04 478.641,1167.36 488.771,1166.67 498.901,1154.83 509.032,1151.79 519.162,1147.33 529.292,1141.34 539.423,1140.21 549.553,1139.37 559.683,1141.88 569.814,1142.5 579.944,1135.11 590.074,1127.3 600.205,1119.42 610.335,1117.61 620.465,1114.31 630.596,1111.26 640.726,1099.56 650.857,1094.24 660.987,1089.08 671.117,1087.44 681.248,1072.44 691.378,1077.05 701.508,1069.35 711.639,1058.32 721.769,1051.83 731.899,1040.91 742.03,1036.14 752.16,1029.6 762.29,1025.59 772.421,1031.39 782.551,1034.43 792.681,1031.68 802.812,1022.11 812.942,1015.95 823.073,1009.97 833.203,1004.52 843.333,988.897 853.464,972.937 863.594,959.211 873.724,951.994 883.855,936.186 893.985,924.947 904.115,917.616 914.246,898.651 924.376,878.727 934.506,855.237 944.637,828.604 954.767,799.75 964.897,768.973 975.028,736.549 985.158,711.261 995.289,685.042 1005.42,661.437 1015.55,637.451 1025.68,617.538 1035.81,602.054 1045.94,579.918 1056.07,561.633 1066.2,543.198 1076.33,530.752 1086.46,517.937 1096.59,506.412 1106.72,495.105 1116.85,489.408 1126.98,484.357 1137.11,480.774 1147.24,482.562 1157.37,478.8 1167.5,478.607 1177.63,473.856 1187.77,472.557 1197.9,470.797 1208.03,466.192 1218.16,462.609 1228.29,453.944 1238.42,454.081 1248.55,452.432 1258.68,446.371 1268.81,436.759 1278.94,427.28 1289.07,419.163 1299.2,409.561 1309.33,399.029 1319.46,384.312 1329.59,373.185 1339.72,355.789 1349.85,345.016 1359.98,341.233 1370.11,328.266 1380.24,311.722 1390.37,295.821 1400.5,286.716 1410.63,275.94 1420.76,269.789 1430.89,260.592 1441.02,247.682 1451.15,239.135 1461.28,230.105 1471.42,230.241 1481.55,225.139 1491.68,226.8 1501.81,221.75 1511.94,223.8 1522.07,230.294 1532.2,233.553 1542.33,232.715 1552.46,227.763 1562.59,237.531 1572.72,250.022 1582.85,259.432 1592.98,266.912 1603.11,272.817 1613.24,277.102 1623.37,289.251 1633.5,297.12 1643.63,309.576 1653.76,319.505 1663.89,326.286 1674.02,334.668 1684.15,343.901 1694.28,355.164 1704.41,370.98 1714.54,371.025 1724.67,382.822 1734.8,402.246 1744.93,418.834 1755.07,431.13 1765.2,442.559 1775.33,453.222 1785.46,465.193 1795.59,477.999 1805.72,495.357 1815.85,503.562 1825.98,516.182 1836.11,527.284 1846.24,551.074 1856.37,561.56 1866.5,569.638 1876.63,579.344 1886.76,593.825 1896.89,604.95 1907.02,614.682 1917.15,621.768 1927.28,624.729 1937.41,626.777 1947.54,629.275 1957.67,637.294 1967.8,640.963 1977.93,644.211 1988.06,650.156 1998.19,652.127 2008.32,662.137 2018.45,670.722 2028.58,678.159 2038.71,673.312 2048.85,682.242 2058.98,690.883 2069.11,692.775 2079.24,696.73 2089.37,699.564 2099.5,703.776 2109.63,699.435 2119.76,700.103 2129.89,702.184 2140.02,704.796 2150.15,701.888 2160.28,707.236 2170.41,711.496 2180.54,713.238 2190.67,715.934 2200.8,712.631 2210.93,711.897 2221.06,711.328 2231.19,710.631 2241.32,707.706 2251.45,700.411 2261.58,700.458 2271.71,694.622 2281.84,687.162 2291.97,683.228 "/>
<polyline clip-path="url(#clip992)" style="stroke:#3da44d; stroke-linecap:round; stroke-linejoin:round; stroke-width:4; stroke-opacity:1; fill:none" points="265.903,1271.89 276.033,1272.11 286.164,1272.71 296.294,1273.56 306.425,1274.41 316.555,1274.65 326.685,1273.08 336.816,1268.75 346.946,1262.21 357.076,1254.5 367.207,1245.57 377.337,1235.31 387.467,1224.8 397.598,1214.92 407.728,1205.48 417.858,1196.27 427.989,1187.43 438.119,1179.29 448.249,1172.03 458.38,1165.7 468.51,1160.58 478.641,1156.95 488.771,1154.63 498.901,1153.44 509.032,1153.03 519.162,1152.54 529.292,1151.24 539.423,1148.61 549.553,1144.84 559.683,1140.45 569.814,1135.97 579.944,1132.16 590.074,1129.18 600.205,1126.32 610.335,1122.91 620.465,1118.79 630.596,1114.27 640.726,1109.27 650.857,1103.15 660.987,1095.66 671.117,1087.38 681.248,1078.76 691.378,1070.13 701.508,1062.33 711.639,1055.67 721.769,1049.63 731.899,1043.61 742.03,1037.22 752.16,1030.2 762.29,1022.45 772.421,1014.91 782.551,1009.27 792.681,1006.7 802.812,1007.12 812.942,1009.46 823.073,1012.65 833.203,1015.85 843.333,1017.77 853.464,1016.55 863.594,1010.4 873.724,998.702 883.855,981.488 893.985,959.352 904.115,933.811 914.246,906.558 924.376,878.978 934.506,851.808 944.637,825.246 954.767,799.05 964.897,772.716 975.028,745.848 985.158,718.143 995.289,689.655 1005.42,660.524 1015.55,631.078 1025.68,602.108 1035.81,574.762 1045.94,550.452 1056.07,529.681 1066.2,512.352 1076.33,498.297 1086.46,487.491 1096.59,479.657 1106.72,474.476 1116.85,471.696 1126.98,470.74 1137.11,471.153 1147.24,472.421 1157.37,474.411 1167.5,477.206 1177.63,480.348 1187.77,483.136 1197.9,484.721 1208.03,484.565 1218.16,482.312 1228.29,477.621 1238.42,470.787 1248.55,462.235 1258.68,452.635 1268.81,442.363 1278.94,431.546 1289.07,420.246 1299.2,408.892 1309.33,397.931 1319.46,387.178 1329.59,376.3 1339.72,364.614 1349.85,351.86 1359.98,338.358 1370.11,325.004 1380.24,312.404 1390.37,299.883 1400.5,286.943 1410.63,273.7 1420.76,260.653 1430.89,248.568 1441.02,237.626 1451.15,227.866 1461.28,219.316 1471.42,211.992 1481.55,206.088 1491.68,202.194 1501.81,200.922 1511.94,202.307 1522.07,206.007 1532.2,211.942 1542.33,220.138 1552.46,229.47 1562.59,238.778 1572.72,248.12 1582.85,257.656 1592.98,267.213 1603.11,276.536 1613.24,285.331 1623.37,293.356 1633.5,300.817 1643.63,308.177 1653.76,315.81 1663.89,323.773 1674.02,331.793 1684.15,339.968 1694.28,348.788 1704.41,358.569 1714.54,369.137 1724.67,379.97 1734.8,391.103 1744.93,403.416 1755.07,417.371 1765.2,432.89 1775.33,449.504 1785.46,466.517 1795.59,483.362 1805.72,499.768 1815.85,515.449 1825.98,530.041 1836.11,543.177 1846.24,554.621 1856.37,565.126 1866.5,575.331 1876.63,585.13 1886.76,594.645 1896.89,603.923 1907.02,613.472 1917.15,623.466 1927.28,633.126 1937.41,641.854 1947.54,649.027 1957.67,654.163 1967.8,657.309 1977.93,658.696 1988.06,658.506 1998.19,657.186 2008.32,655.466 2018.45,654.517 2028.58,655.521 2038.71,658.503 2048.85,663.221 2058.98,670.089 2069.11,679.39 2079.24,690.437 2089.37,701.835 2099.5,712.94 2109.63,723.116 2119.76,730.915 2129.89,735.411 2140.02,736.377 2150.15,733.708 2160.28,727.63 2170.41,719.202 2180.54,709.815 2190.67,700.905 2200.8,693.636 2210.93,688.627 2221.06,686.272 2231.19,686.754 2241.32,689.791 2251.45,694.652 2261.58,700.54 2271.71,706.347 2281.84,710.508 2291.97,711.958 "/>
<polyline clip-path="url(#clip992)" style="stroke:#c271d2; stroke-linecap:round; stroke-linejoin:round; stroke-width:4; stroke-opacity:1; fill:none" points="265.903,1272.79 276.033,1272.31 286.164,1272.78 296.294,1273.3 306.425,1273.7 316.555,1272.22 326.685,1269.63 336.816,1265.24 346.946,1260.52 357.076,1253.05 367.207,1243.57 377.337,1234.22 387.467,1225.6 397.598,1215.69 407.728,1206.16 417.858,1196.72 427.989,1188.4 438.119,1180.29 448.249,1173.93 458.38,1167.55 468.51,1162.82 478.641,1158.57 488.771,1156.5 498.901,1153.66 509.032,1152.84 519.162,1151.73 529.292,1149.7 539.423,1147.31 549.553,1143.99 559.683,1140.68 569.814,1136.98 579.944,1132.61 590.074,1128.88 600.205,1125.25 610.335,1122.09 620.465,1118.1 630.596,1113.81 640.726,1107.77 650.857,1101.76 660.987,1094.64 671.117,1087.39 681.248,1077.78 691.378,1071.2 701.508,1063.42 711.639,1056.08 721.769,1049.97 731.899,1043.19 742.03,1037.05 752.16,1030.1 762.29,1022.94 772.421,1017.47 782.551,1013.17 792.681,1010.58 802.812,1009.45 812.942,1010.47 823.073,1012.24 833.203,1014.09 843.333,1013.29 853.464,1009.78 863.594,1002.46 873.724,991.458 883.855,974.461 893.985,954.015 904.115,931.299 914.246,905.331 924.376,878.939 934.506,852.34 944.637,825.767 954.767,799.158 964.897,772.135 975.028,744.405 985.158,717.075 995.289,688.94 1005.42,660.665 1015.55,632.067 1025.68,604.501 1035.81,578.995 1045.94,555.022 1056.07,534.637 1066.2,517.136 1076.33,503.331 1086.46,492.213 1096.59,483.807 1106.72,477.676 1116.85,474.443 1126.98,472.852 1137.11,472.645 1147.24,473.994 1157.37,475.091 1167.5,477.423 1177.63,479.341 1187.77,481.495 1197.9,482.562 1208.03,481.715 1218.16,479.256 1228.29,473.949 1238.42,468.196 1248.55,460.715 1258.68,451.664 1268.81,441.494 1278.94,430.885 1289.07,420.078 1299.2,408.995 1309.33,398.101 1319.46,386.733 1329.59,375.817 1339.72,363.246 1349.85,350.798 1359.98,338.804 1370.11,325.51 1380.24,312.298 1390.37,299.253 1400.5,286.908 1410.63,274.047 1420.76,262.07 1430.89,250.433 1441.02,239.185 1451.15,229.614 1461.28,220.989 1471.42,214.823 1481.55,209.043 1491.68,206.011 1501.81,204.152 1511.94,205.64 1522.07,209.774 1532.2,215.294 1542.33,222.088 1552.46,229.205 1562.59,238.585 1572.72,248.415 1582.85,257.931 1592.98,267.167 1603.11,275.959 1613.24,284.055 1623.37,292.719 1633.5,300.244 1643.63,308.394 1653.76,316.383 1663.89,324.162 1674.02,332.239 1684.15,340.578 1694.28,349.777 1704.41,360.494 1714.54,369.43 1724.67,380.412 1734.8,392.832 1744.93,405.807 1755.07,419.505 1765.2,434.39 1775.33,450.081 1785.46,466.311 1795.59,482.53 1805.72,499.084 1815.85,513.605 1825.98,527.891 1836.11,540.712 1846.24,554.071 1856.37,564.573 1866.5,574.448 1876.63,584.232 1886.76,594.518 1896.89,604.083 1907.02,613.66 1917.15,623.202 1927.28,631.823 1937.41,639.515 1947.54,645.964 1957.67,651.547 1967.8,654.773 1977.93,656.449 1988.06,657.21 1998.19,656.402 2008.32,656.501 2018.45,657.03 2028.58,659.032 2038.71,660.8 2048.85,666.171 2058.98,673.314 2069.11,681.466 2079.24,691.413 2089.37,701.483 2099.5,711.518 2109.63,719.443 2119.76,726.136 2129.89,730.258 2140.02,731.479 2150.15,728.773 2160.28,724.467 2170.41,718.006 2180.54,710.346 2190.67,703.236 2200.8,696.582 2210.93,692.237 2221.06,690.159 2231.19,690.458 2241.32,692.57 2251.45,695.545 2261.58,700.527 2271.71,704.528 2281.84,706.887 2291.97,707.502 "/>
<polyline clip-path="url(#clip992)" style="stroke:#ac8d18; stroke-linecap:round; stroke-linejoin:round; stroke-width:4; stroke-opacity:1; fill:none" points="265.903,1273.78 276.033,1272.95 286.164,1271.78 296.294,1274.03 306.425,1274.33 316.555,1272.67 326.685,1268.65 336.816,1264.79 346.946,1258.94 357.076,1252.7 367.207,1245.07 377.337,1236.58 387.467,1225.58 397.598,1214.64 407.728,1204.39 417.858,1197.09 427.989,1189.64 438.119,1181.42 448.249,1172.38 458.38,1166.57 468.51,1162.4 478.641,1159.26 488.771,1156.67 498.901,1156.18 509.032,1153.12 519.162,1150.1 529.292,1147.67 539.423,1146.78 549.553,1144.48 559.683,1140.74 569.814,1136.97 579.944,1134.82 590.074,1128.98 600.205,1125.19 610.335,1121.41 620.465,1117.86 630.596,1113.72 640.726,1108.22 650.857,1102.07 660.987,1094.5 671.117,1084.66 681.248,1078.29 691.378,1071.38 701.508,1065.98 711.639,1058.61 721.769,1049.39 731.899,1041.35 742.03,1034.63 752.16,1028.44 762.29,1023.25 772.421,1017.78 782.551,1015.17 792.681,1011.32 802.812,1010.03 812.942,1011.12 823.073,1012.5 833.203,1013.51 843.333,1013.57 853.464,1010.4 863.594,1002.72 873.724,989.04 883.855,972.8 893.985,953.836 904.115,932.165 914.246,908.291 924.376,881.404 934.506,852.586 944.637,824.596 954.767,797.897 964.897,771.951 975.028,745.753 985.158,717.475 995.289,688.845 1005.42,658.448 1015.55,630.3 1025.68,604.218 1035.81,579.874 1045.94,557.419 1056.07,535.582 1066.2,516.197 1076.33,501.431 1086.46,490.25 1096.59,483.935 1106.72,479.34 1116.85,475.659 1126.98,472.542 1137.11,470.086 1147.24,471.696 1157.37,475.837 1167.5,479.887 1177.63,481.72 1187.77,481.946 1197.9,479.972 1208.03,479.513 1218.16,478.04 1228.29,476.203 1238.42,470.71 1248.55,460.739 1258.68,450.275 1268.81,440.18 1278.94,430.637 1289.07,421.643 1299.2,410.638 1309.33,399.118 1319.46,386.189 1329.59,373.693 1339.72,363.009 1349.85,350.666 1359.98,338.503 1370.11,326.63 1380.24,314.251 1390.37,299.187 1400.5,285.331 1410.63,272.428 1420.76,261.503 1430.89,250.733 1441.02,241.101 1451.15,231.58 1461.28,219.943 1471.42,210.6 1481.55,207.695 1491.68,206.79 1501.81,207.561 1511.94,207.342 1522.07,208.312 1532.2,212.85 1542.33,220.024 1552.46,230.305 1562.59,240.908 1572.72,249.352 1582.85,256.705 1592.98,264.558 1603.11,274.959 1613.24,286.319 1623.37,293.636 1633.5,300.383 1643.63,307.476 1653.76,315.578 1663.89,323.753 1674.02,332.901 1684.15,341.989 1694.28,350.226 1704.41,357.825 1714.54,369.836 1724.67,380.491 1734.8,392.661 1744.93,405.488 1755.07,420.162 1765.2,435.31 1775.33,450.322 1785.46,465.759 1795.59,482.654 1805.72,497.097 1815.85,514.397 1825.98,529.363 1836.11,541.444 1846.24,551.686 1856.37,563.403 1866.5,575.157 1876.63,585.909 1886.76,595.113 1896.89,604.777 1907.02,613.331 1917.15,621.729 1927.28,631.94 1937.41,642.185 1947.54,646.482 1957.67,649.601 1967.8,653.175 1977.93,656.29 1988.06,657.834 1998.19,657.175 2008.32,657.193 2018.45,656.861 2028.58,656.873 2038.71,661.41 2048.85,667.573 2058.98,674 2069.11,682.008 2079.24,690.785 2089.37,700.77 2099.5,711.667 2109.63,720.363 2119.76,726.521 2129.89,729.861 2140.02,730.6 2150.15,728.466 2160.28,722.913 2170.41,718.028 2180.54,712.111 2190.67,703.532 2200.8,696.635 2210.93,692.663 2221.06,690.295 2231.19,690.204 2241.32,692.445 2251.45,697.655 2261.58,700.671 2271.71,703.394 2281.84,705.805 2291.97,707.101 "/>
<polyline clip-path="url(#clip992)" style="stroke:#00a9ad; stroke-linecap:round; stroke-linejoin:round; stroke-width:4; stroke-opacity:1; fill:none" points="265.903,1267.93 276.033,1268.96 286.164,1271.63 296.294,1274.92 306.425,1277.58 316.555,1278.47 326.685,1276.76 336.816,1272.08 346.946,1264.84 357.076,1255.85 367.207,1245.67 377.337,1234.84 387.467,1224.12 397.598,1214 407.728,1204.51 417.858,1195.57 427.989,1187.13 438.119,1179.14 448.249,1171.62 458.38,1164.71 468.51,1158.81 478.641,1154.41 488.771,1151.79 498.901,1151.01 509.032,1151.72 519.162,1153.01 529.292,1153.71 539.423,1152.66 549.553,1149.2 559.683,1143.42 569.814,1136.21 579.944,1129.19 590.074,1123.94 600.205,1121.19 610.335,1120.59 620.465,1120.76 630.596,1119.83 640.726,1116.08 650.857,1108.64 660.987,1098.01 671.117,1085.93 681.248,1074.37 691.378,1064.86 701.508,1058.19 711.639,1053.97 721.769,1050.83 731.899,1047.14 742.03,1041.62 752.16,1033.77 762.29,1023.91 772.421,1013.47 782.551,1004.56 792.681,999.238 802.812,998.761 812.942,1003.06 823.073,1010.74 833.203,1019.32 843.333,1025.7 853.464,1026.94 863.594,1021.1 873.724,1007.75 883.855,987.667 893.985,962.474 904.115,934.282 914.246,905.097 924.376,876.448 934.506,849.168 944.637,823.398 954.767,798.658 964.897,774.039 975.028,748.56 985.158,721.434 995.289,692.414 1005.42,661.813 1015.55,630.467 1025.68,599.621 1035.81,570.672 1045.94,545.008 1056.07,523.489 1066.2,506.422 1076.33,493.607 1086.46,484.454 1096.59,478.064 1106.72,473.617 1116.85,470.656 1126.98,469.005 1137.11,468.784 1147.24,470.058 1157.37,472.763 1167.5,476.603 1177.63,480.881 1187.77,484.751 1197.9,487.321 1208.03,487.889 1218.16,485.954 1228.29,481.215 1238.42,473.826 1248.55,464.239 1258.68,453.242 1268.81,441.657 1278.94,430.157 1289.07,419.088 1299.2,408.537 1309.33,398.33 1319.46,388.029 1329.59,377.274 1339.72,365.698 1349.85,353.133 1359.98,339.634 1370.11,325.605 1380.24,311.635 1390.37,298.061 1400.5,285.15 1410.63,272.941 1420.76,261.176 1430.89,249.601 1441.02,238.058 1451.15,226.847 1461.28,216.659 1471.42,208.268 1481.55,202.26 1491.68,198.952 1501.81,198.344 1511.94,200.142 1522.07,203.999 1532.2,209.804 1542.33,217.631 1552.46,227.144 1562.59,237.734 1572.72,248.828 1582.85,259.679 1592.98,269.593 1603.11,278.287 1613.24,285.924 1623.37,292.936 1633.5,299.889 1643.63,307.232 1653.76,315.139 1663.89,323.51 1674.02,332.029 1684.15,340.508 1694.28,349.025 1704.41,357.865 1714.54,367.39 1724.67,377.852 1734.8,389.441 1744.93,402.339 1755.07,416.484 1765.2,431.75 1775.33,448.043 1785.46,465.2 1795.59,482.898 1805.72,500.615 1815.85,517.607 1825.98,533.099 1836.11,546.502 1846.24,557.585 1856.37,566.858 1866.5,575.184 1876.63,583.396 1886.76,592.291 1896.89,602.181 1907.02,613.008 1917.15,624.253 1927.28,634.979 1937.41,644.417 1947.54,651.954 1957.67,657.201 1967.8,660.128 1977.93,660.942 1988.06,659.992 1998.19,657.837 2008.32,655.196 2018.45,653.03 2028.58,652.441 2038.71,654.187 2048.85,658.736 2058.98,666.354 2069.11,676.818 2079.24,689.274 2089.37,702.433 2099.5,715.179 2109.63,726.458 2119.76,735.1 2129.89,740.292 2140.02,741.607 2150.15,738.833 2160.28,732.122 2170.41,722.248 2180.54,710.516 2190.67,698.671 2200.8,688.613 2210.93,681.926 2221.06,679.573 2231.19,681.636 2241.32,687.247 2251.45,694.873 2261.58,702.859 2271.71,709.723 2281.84,714.265 2291.97,715.824 "/>
<path clip-path="url(#clip990)" d="M276.709 455.989 L714.249 455.989 L714.249 93.1086 L276.709 93.1086  Z" fill="#ffffff" fill-rule="evenodd" fill-opacity="1"/>
<polyline clip-path="url(#clip990)" style="stroke:#000000; stroke-linecap:round; stroke-linejoin:round; stroke-width:4; stroke-opacity:1; fill:none" points="276.709,455.989 714.249,455.989 714.249,93.1086 276.709,93.1086 276.709,455.989 "/>
<circle clip-path="url(#clip990)" cx="372.159" cy="144.949" r="20.48" fill="#009af9" fill-rule="evenodd" fill-opacity="1" stroke="#000000" stroke-opacity="1" stroke-width="4.55111"/>
<path clip-path="url(#clip990)" d="M486.036 137.067 L486.036 141.094 Q484.23 140.169 482.286 139.706 Q480.341 139.243 478.258 139.243 Q475.087 139.243 473.489 140.215 Q471.915 141.187 471.915 143.131 Q471.915 144.613 473.049 145.469 Q474.184 146.303 477.61 147.067 L479.068 147.391 Q483.605 148.363 485.503 150.145 Q487.424 151.905 487.424 155.076 Q487.424 158.687 484.554 160.793 Q481.707 162.9 476.707 162.9 Q474.624 162.9 472.355 162.483 Q470.11 162.09 467.61 161.28 L467.61 156.881 Q469.971 158.108 472.262 158.733 Q474.554 159.335 476.799 159.335 Q479.809 159.335 481.429 158.317 Q483.049 157.275 483.049 155.4 Q483.049 153.664 481.869 152.738 Q480.711 151.812 476.753 150.956 L475.272 150.608 Q471.313 149.775 469.554 148.062 Q467.795 146.326 467.795 143.317 Q467.795 139.659 470.387 137.669 Q472.98 135.678 477.749 135.678 Q480.11 135.678 482.193 136.025 Q484.276 136.372 486.036 137.067 Z" fill="#000000" fill-rule="nonzero" fill-opacity="1" /><path clip-path="url(#clip990)" d="M494.207 136.303 L498.466 136.303 L498.466 162.229 L494.207 162.229 L494.207 136.303 M494.207 126.21 L498.466 126.21 L498.466 131.604 L494.207 131.604 L494.207 126.21 Z" fill="#000000" fill-rule="nonzero" fill-opacity="1" /><path clip-path="url(#clip990)" d="M524.438 148.965 Q524.438 144.335 522.517 141.789 Q520.619 139.243 517.17 139.243 Q513.744 139.243 511.822 141.789 Q509.924 144.335 509.924 148.965 Q509.924 153.571 511.822 156.118 Q513.744 158.664 517.17 158.664 Q520.619 158.664 522.517 156.118 Q524.438 153.571 524.438 148.965 M528.697 159.011 Q528.697 165.631 525.758 168.849 Q522.818 172.09 516.753 172.09 Q514.508 172.09 512.517 171.742 Q510.526 171.418 508.651 170.724 L508.651 166.58 Q510.526 167.599 512.355 168.085 Q514.184 168.571 516.082 168.571 Q520.271 168.571 522.355 166.372 Q524.438 164.196 524.438 159.775 L524.438 157.668 Q523.119 159.96 521.058 161.094 Q518.998 162.229 516.128 162.229 Q511.359 162.229 508.443 158.594 Q505.526 154.96 505.526 148.965 Q505.526 142.946 508.443 139.312 Q511.359 135.678 516.128 135.678 Q518.998 135.678 521.058 136.812 Q523.119 137.946 524.438 140.238 L524.438 136.303 L528.697 136.303 L528.697 159.011 Z" fill="#000000" fill-rule="nonzero" fill-opacity="1" /><path clip-path="url(#clip990)" d="M559.021 146.581 L559.021 162.229 L554.762 162.229 L554.762 146.719 Q554.762 143.039 553.327 141.21 Q551.892 139.382 549.021 139.382 Q545.572 139.382 543.582 141.581 Q541.591 143.78 541.591 147.576 L541.591 162.229 L537.308 162.229 L537.308 136.303 L541.591 136.303 L541.591 140.331 Q543.119 137.993 545.179 136.835 Q547.262 135.678 549.97 135.678 Q554.438 135.678 556.73 138.456 Q559.021 141.21 559.021 146.581 Z" fill="#000000" fill-rule="nonzero" fill-opacity="1" /><path clip-path="url(#clip990)" d="M579.299 149.196 Q574.137 149.196 572.146 150.377 Q570.155 151.557 570.155 154.405 Q570.155 156.673 571.637 158.016 Q573.142 159.335 575.711 159.335 Q579.253 159.335 581.382 156.835 Q583.535 154.312 583.535 150.145 L583.535 149.196 L579.299 149.196 M587.794 147.437 L587.794 162.229 L583.535 162.229 L583.535 158.293 Q582.077 160.655 579.901 161.789 Q577.725 162.9 574.577 162.9 Q570.595 162.9 568.234 160.678 Q565.896 158.432 565.896 154.682 Q565.896 150.307 568.813 148.085 Q571.753 145.863 577.563 145.863 L583.535 145.863 L583.535 145.446 Q583.535 142.507 581.591 140.909 Q579.669 139.289 576.174 139.289 Q573.952 139.289 571.845 139.821 Q569.739 140.354 567.794 141.419 L567.794 137.483 Q570.132 136.581 572.331 136.141 Q574.53 135.678 576.614 135.678 Q582.239 135.678 585.016 138.594 Q587.794 141.511 587.794 147.437 Z" fill="#000000" fill-rule="nonzero" fill-opacity="1" /><path clip-path="url(#clip990)" d="M596.567 126.21 L600.827 126.21 L600.827 162.229 L596.567 162.229 L596.567 126.21 Z" fill="#000000" fill-rule="nonzero" fill-opacity="1" /><polyline clip-path="url(#clip990)" style="stroke:#e26f46; stroke-linecap:round; stroke-linejoin:round; stroke-width:4; stroke-opacity:1; fill:none" points="300.571,196.789 443.747,196.789 "/>
<path clip-path="url(#clip990)" d="M484.114 178.05 L484.114 181.592 L480.04 181.592 Q477.749 181.592 476.846 182.518 Q475.966 183.444 475.966 185.851 L475.966 188.143 L482.98 188.143 L482.98 191.453 L475.966 191.453 L475.966 214.069 L471.684 214.069 L471.684 191.453 L467.61 191.453 L467.61 188.143 L471.684 188.143 L471.684 186.337 Q471.684 182.009 473.698 180.041 Q475.711 178.05 480.086 178.05 L484.114 178.05 Z" fill="#000000" fill-rule="nonzero" fill-opacity="1" /><path clip-path="url(#clip990)" d="M487.679 178.05 L491.938 178.05 L491.938 214.069 L487.679 214.069 L487.679 178.05 Z" fill="#000000" fill-rule="nonzero" fill-opacity="1" /><path clip-path="url(#clip990)" d="M512.633 201.036 Q507.471 201.036 505.48 202.217 Q503.489 203.397 503.489 206.245 Q503.489 208.513 504.971 209.856 Q506.475 211.175 509.045 211.175 Q512.586 211.175 514.716 208.675 Q516.869 206.152 516.869 201.985 L516.869 201.036 L512.633 201.036 M521.128 199.277 L521.128 214.069 L516.869 214.069 L516.869 210.133 Q515.41 212.495 513.234 213.629 Q511.059 214.74 507.91 214.74 Q503.929 214.74 501.568 212.518 Q499.23 210.272 499.23 206.522 Q499.23 202.147 502.147 199.925 Q505.086 197.703 510.896 197.703 L516.869 197.703 L516.869 197.286 Q516.869 194.347 514.924 192.749 Q513.003 191.129 509.508 191.129 Q507.285 191.129 505.179 191.661 Q503.072 192.194 501.128 193.259 L501.128 189.323 Q503.466 188.421 505.665 187.981 Q507.864 187.518 509.947 187.518 Q515.572 187.518 518.35 190.434 Q521.128 193.351 521.128 199.277 Z" fill="#000000" fill-rule="nonzero" fill-opacity="1" /><path clip-path="url(#clip990)" d="M534.114 180.782 L534.114 188.143 L542.887 188.143 L542.887 191.453 L534.114 191.453 L534.114 205.527 Q534.114 208.698 534.97 209.601 Q535.85 210.504 538.512 210.504 L542.887 210.504 L542.887 214.069 L538.512 214.069 Q533.582 214.069 531.707 212.24 Q529.832 210.388 529.832 205.527 L529.832 191.453 L526.707 191.453 L526.707 188.143 L529.832 188.143 L529.832 180.782 L534.114 180.782 Z" fill="#000000" fill-rule="nonzero" fill-opacity="1" /><polyline clip-path="url(#clip990)" style="stroke:#3da44d; stroke-linecap:round; stroke-linejoin:round; stroke-width:4; stroke-opacity:1; fill:none" points="300.571,248.629 443.747,248.629 "/>
<path clip-path="url(#clip990)" d="M489.323 250.261 L489.323 265.909 L485.063 265.909 L485.063 250.399 Q485.063 246.719 483.628 244.89 Q482.193 243.062 479.323 243.062 Q475.874 243.062 473.883 245.261 Q471.892 247.46 471.892 251.256 L471.892 265.909 L467.61 265.909 L467.61 229.89 L471.892 229.89 L471.892 244.011 Q473.42 241.673 475.48 240.515 Q477.563 239.358 480.272 239.358 Q484.739 239.358 487.031 242.136 Q489.323 244.89 489.323 250.261 Z" fill="#000000" fill-rule="nonzero" fill-opacity="1" /><path clip-path="url(#clip990)" d="M509.6 252.876 Q504.438 252.876 502.447 254.057 Q500.457 255.237 500.457 258.085 Q500.457 260.353 501.938 261.696 Q503.443 263.015 506.012 263.015 Q509.554 263.015 511.684 260.515 Q513.836 257.992 513.836 253.825 L513.836 252.876 L509.6 252.876 M518.096 251.117 L518.096 265.909 L513.836 265.909 L513.836 261.973 Q512.378 264.335 510.202 265.469 Q508.026 266.58 504.878 266.58 Q500.897 266.58 498.535 264.358 Q496.197 262.112 496.197 258.362 Q496.197 253.987 499.114 251.765 Q502.054 249.543 507.864 249.543 L513.836 249.543 L513.836 249.126 Q513.836 246.187 511.892 244.589 Q509.971 242.969 506.475 242.969 Q504.253 242.969 502.147 243.501 Q500.04 244.034 498.096 245.099 L498.096 241.163 Q500.434 240.261 502.633 239.821 Q504.832 239.358 506.915 239.358 Q512.54 239.358 515.318 242.274 Q518.096 245.191 518.096 251.117 Z" fill="#000000" fill-rule="nonzero" fill-opacity="1" /><path clip-path="url(#clip990)" d="M548.419 250.261 L548.419 265.909 L544.16 265.909 L544.16 250.399 Q544.16 246.719 542.725 244.89 Q541.29 243.062 538.419 243.062 Q534.97 243.062 532.98 245.261 Q530.989 247.46 530.989 251.256 L530.989 265.909 L526.707 265.909 L526.707 239.983 L530.989 239.983 L530.989 244.011 Q532.517 241.673 534.577 240.515 Q536.66 239.358 539.369 239.358 Q543.836 239.358 546.128 242.136 Q548.419 244.89 548.419 250.261 Z" fill="#000000" fill-rule="nonzero" fill-opacity="1" /><path clip-path="url(#clip990)" d="M578.466 250.261 L578.466 265.909 L574.206 265.909 L574.206 250.399 Q574.206 246.719 572.771 244.89 Q571.336 243.062 568.466 243.062 Q565.017 243.062 563.026 245.261 Q561.035 247.46 561.035 251.256 L561.035 265.909 L556.753 265.909 L556.753 239.983 L561.035 239.983 L561.035 244.011 Q562.563 241.673 564.623 240.515 Q566.706 239.358 569.415 239.358 Q573.882 239.358 576.174 242.136 Q578.466 244.89 578.466 250.261 Z" fill="#000000" fill-rule="nonzero" fill-opacity="1" /><path clip-path="url(#clip990)" d="M586.961 239.983 L591.22 239.983 L591.22 265.909 L586.961 265.909 L586.961 239.983 M586.961 229.89 L591.22 229.89 L591.22 235.284 L586.961 235.284 L586.961 229.89 Z" fill="#000000" fill-rule="nonzero" fill-opacity="1" /><path clip-path="url(#clip990)" d="M621.683 250.261 L621.683 265.909 L617.424 265.909 L617.424 250.399 Q617.424 246.719 615.989 244.89 Q614.553 243.062 611.683 243.062 Q608.234 243.062 606.243 245.261 Q604.252 247.46 604.252 251.256 L604.252 265.909 L599.97 265.909 L599.97 239.983 L604.252 239.983 L604.252 244.011 Q605.78 241.673 607.84 240.515 Q609.924 239.358 612.632 239.358 Q617.1 239.358 619.391 242.136 Q621.683 244.89 621.683 250.261 Z" fill="#000000" fill-rule="nonzero" fill-opacity="1" /><path clip-path="url(#clip990)" d="M647.238 252.645 Q647.238 248.015 645.317 245.469 Q643.419 242.923 639.97 242.923 Q636.544 242.923 634.623 245.469 Q632.725 248.015 632.725 252.645 Q632.725 257.251 634.623 259.798 Q636.544 262.344 639.97 262.344 Q643.419 262.344 645.317 259.798 Q647.238 257.251 647.238 252.645 M651.498 262.691 Q651.498 269.311 648.558 272.529 Q645.618 275.77 639.553 275.77 Q637.308 275.77 635.317 275.422 Q633.326 275.098 631.451 274.404 L631.451 270.26 Q633.326 271.279 635.155 271.765 Q636.984 272.251 638.882 272.251 Q643.072 272.251 645.155 270.052 Q647.238 267.876 647.238 263.455 L647.238 261.348 Q645.919 263.64 643.859 264.774 Q641.799 265.909 638.928 265.909 Q634.16 265.909 631.243 262.274 Q628.326 258.64 628.326 252.645 Q628.326 246.626 631.243 242.992 Q634.16 239.358 638.928 239.358 Q641.799 239.358 643.859 240.492 Q645.919 241.626 647.238 243.918 L647.238 239.983 L651.498 239.983 L651.498 262.691 Z" fill="#000000" fill-rule="nonzero" fill-opacity="1" /><polyline clip-path="url(#clip990)" style="stroke:#c271d2; stroke-linecap:round; stroke-linejoin:round; stroke-width:4; stroke-opacity:1; fill:none" points="300.571,300.469 443.747,300.469 "/>
<path clip-path="url(#clip990)" d="M489.323 302.101 L489.323 317.749 L485.063 317.749 L485.063 302.239 Q485.063 298.559 483.628 296.73 Q482.193 294.902 479.323 294.902 Q475.874 294.902 473.883 297.101 Q471.892 299.3 471.892 303.096 L471.892 317.749 L467.61 317.749 L467.61 281.73 L471.892 281.73 L471.892 295.851 Q473.42 293.513 475.48 292.355 Q477.563 291.198 480.272 291.198 Q484.739 291.198 487.031 293.976 Q489.323 296.73 489.323 302.101 Z" fill="#000000" fill-rule="nonzero" fill-opacity="1" /><path clip-path="url(#clip990)" d="M509.6 304.716 Q504.438 304.716 502.447 305.897 Q500.457 307.077 500.457 309.925 Q500.457 312.193 501.938 313.536 Q503.443 314.855 506.012 314.855 Q509.554 314.855 511.684 312.355 Q513.836 309.832 513.836 305.665 L513.836 304.716 L509.6 304.716 M518.096 302.957 L518.096 317.749 L513.836 317.749 L513.836 313.813 Q512.378 316.175 510.202 317.309 Q508.026 318.42 504.878 318.42 Q500.897 318.42 498.535 316.198 Q496.197 313.952 496.197 310.202 Q496.197 305.827 499.114 303.605 Q502.054 301.383 507.864 301.383 L513.836 301.383 L513.836 300.966 Q513.836 298.027 511.892 296.429 Q509.971 294.809 506.475 294.809 Q504.253 294.809 502.147 295.341 Q500.04 295.874 498.096 296.939 L498.096 293.003 Q500.434 292.101 502.633 291.661 Q504.832 291.198 506.915 291.198 Q512.54 291.198 515.318 294.114 Q518.096 297.031 518.096 302.957 Z" fill="#000000" fill-rule="nonzero" fill-opacity="1" /><path clip-path="url(#clip990)" d="M547.054 296.8 Q548.651 293.929 550.873 292.564 Q553.095 291.198 556.105 291.198 Q560.155 291.198 562.355 294.045 Q564.554 296.869 564.554 302.101 L564.554 317.749 L560.271 317.749 L560.271 302.239 Q560.271 298.513 558.952 296.707 Q557.632 294.902 554.924 294.902 Q551.614 294.902 549.693 297.101 Q547.771 299.3 547.771 303.096 L547.771 317.749 L543.489 317.749 L543.489 302.239 Q543.489 298.489 542.169 296.707 Q540.85 294.902 538.095 294.902 Q534.832 294.902 532.91 297.124 Q530.989 299.323 530.989 303.096 L530.989 317.749 L526.707 317.749 L526.707 291.823 L530.989 291.823 L530.989 295.851 Q532.447 293.466 534.484 292.332 Q536.521 291.198 539.322 291.198 Q542.146 291.198 544.114 292.633 Q546.105 294.068 547.054 296.8 Z" fill="#000000" fill-rule="nonzero" fill-opacity="1" /><path clip-path="url(#clip990)" d="M593.234 296.8 Q594.831 293.929 597.053 292.564 Q599.276 291.198 602.285 291.198 Q606.336 291.198 608.535 294.045 Q610.734 296.869 610.734 302.101 L610.734 317.749 L606.452 317.749 L606.452 302.239 Q606.452 298.513 605.132 296.707 Q603.813 294.902 601.104 294.902 Q597.794 294.902 595.873 297.101 Q593.952 299.3 593.952 303.096 L593.952 317.749 L589.669 317.749 L589.669 302.239 Q589.669 298.489 588.35 296.707 Q587.03 294.902 584.276 294.902 Q581.012 294.902 579.091 297.124 Q577.169 299.323 577.169 303.096 L577.169 317.749 L572.887 317.749 L572.887 291.823 L577.169 291.823 L577.169 295.851 Q578.628 293.466 580.665 292.332 Q582.702 291.198 585.503 291.198 Q588.327 291.198 590.294 292.633 Q592.285 294.068 593.234 296.8 Z" fill="#000000" fill-rule="nonzero" fill-opacity="1" /><path clip-path="url(#clip990)" d="M619.229 291.823 L623.488 291.823 L623.488 317.749 L619.229 317.749 L619.229 291.823 M619.229 281.73 L623.488 281.73 L623.488 287.124 L619.229 287.124 L619.229 281.73 Z" fill="#000000" fill-rule="nonzero" fill-opacity="1" /><path clip-path="url(#clip990)" d="M653.951 302.101 L653.951 317.749 L649.692 317.749 L649.692 302.239 Q649.692 298.559 648.257 296.73 Q646.822 294.902 643.951 294.902 Q640.502 294.902 638.512 297.101 Q636.521 299.3 636.521 303.096 L636.521 317.749 L632.238 317.749 L632.238 291.823 L636.521 291.823 L636.521 295.851 Q638.049 293.513 640.109 292.355 Q642.192 291.198 644.9 291.198 Q649.368 291.198 651.66 293.976 Q653.951 296.73 653.951 302.101 Z" fill="#000000" fill-rule="nonzero" fill-opacity="1" /><path clip-path="url(#clip990)" d="M679.507 304.485 Q679.507 299.855 677.585 297.309 Q675.687 294.763 672.238 294.763 Q668.812 294.763 666.891 297.309 Q664.993 299.855 664.993 304.485 Q664.993 309.091 666.891 311.638 Q668.812 314.184 672.238 314.184 Q675.687 314.184 677.585 311.638 Q679.507 309.091 679.507 304.485 M683.766 314.531 Q683.766 321.151 680.826 324.369 Q677.886 327.61 671.822 327.61 Q669.576 327.61 667.585 327.262 Q665.595 326.938 663.72 326.244 L663.72 322.1 Q665.595 323.119 667.423 323.605 Q669.252 324.091 671.15 324.091 Q675.34 324.091 677.423 321.892 Q679.507 319.716 679.507 315.295 L679.507 313.188 Q678.187 315.48 676.127 316.614 Q674.067 317.749 671.197 317.749 Q666.428 317.749 663.511 314.114 Q660.595 310.48 660.595 304.485 Q660.595 298.466 663.511 294.832 Q666.428 291.198 671.197 291.198 Q674.067 291.198 676.127 292.332 Q678.187 293.466 679.507 295.758 L679.507 291.823 L683.766 291.823 L683.766 314.531 Z" fill="#000000" fill-rule="nonzero" fill-opacity="1" /><polyline clip-path="url(#clip990)" style="stroke:#ac8d18; stroke-linecap:round; stroke-linejoin:round; stroke-width:4; stroke-opacity:1; fill:none" points="300.571,352.309 443.747,352.309 "/>
<path clip-path="url(#clip990)" d="M486.383 356.649 Q486.383 351.95 484.438 349.288 Q482.517 346.603 479.137 346.603 Q475.758 346.603 473.813 349.288 Q471.892 351.95 471.892 356.649 Q471.892 361.348 473.813 364.033 Q475.758 366.695 479.137 366.695 Q482.517 366.695 484.438 364.033 Q486.383 361.348 486.383 356.649 M471.892 347.598 Q473.235 345.283 475.272 344.172 Q477.332 343.038 480.179 343.038 Q484.901 343.038 487.841 346.788 Q490.804 350.538 490.804 356.649 Q490.804 362.76 487.841 366.51 Q484.901 370.26 480.179 370.26 Q477.332 370.26 475.272 369.149 Q473.235 368.015 471.892 365.7 L471.892 369.589 L467.61 369.589 L467.61 333.57 L471.892 333.57 L471.892 347.598 Z" fill="#000000" fill-rule="nonzero" fill-opacity="1" /><path clip-path="url(#clip990)" d="M509.647 356.556 Q504.484 356.556 502.494 357.737 Q500.503 358.917 500.503 361.765 Q500.503 364.033 501.985 365.376 Q503.489 366.695 506.059 366.695 Q509.6 366.695 511.73 364.195 Q513.883 361.672 513.883 357.505 L513.883 356.556 L509.647 356.556 M518.142 354.797 L518.142 369.589 L513.883 369.589 L513.883 365.653 Q512.424 368.015 510.248 369.149 Q508.072 370.26 504.924 370.26 Q500.943 370.26 498.582 368.038 Q496.244 365.792 496.244 362.042 Q496.244 357.667 499.16 355.445 Q502.1 353.223 507.91 353.223 L513.883 353.223 L513.883 352.806 Q513.883 349.867 511.938 348.269 Q510.017 346.649 506.522 346.649 Q504.299 346.649 502.193 347.181 Q500.086 347.714 498.142 348.779 L498.142 344.843 Q500.48 343.941 502.679 343.501 Q504.878 343.038 506.961 343.038 Q512.586 343.038 515.364 345.954 Q518.142 348.871 518.142 354.797 Z" fill="#000000" fill-rule="nonzero" fill-opacity="1" /><path clip-path="url(#clip990)" d="M541.938 347.644 Q541.22 347.228 540.364 347.042 Q539.531 346.834 538.512 346.834 Q534.901 346.834 532.957 349.195 Q531.035 351.533 531.035 355.931 L531.035 369.589 L526.753 369.589 L526.753 343.663 L531.035 343.663 L531.035 347.691 Q532.378 345.329 534.531 344.195 Q536.683 343.038 539.762 343.038 Q540.202 343.038 540.734 343.107 Q541.267 343.154 541.915 343.269 L541.938 347.644 Z" fill="#000000" fill-rule="nonzero" fill-opacity="1" /><path clip-path="url(#clip990)" d="M550.619 336.302 L550.619 343.663 L559.392 343.663 L559.392 346.973 L550.619 346.973 L550.619 361.047 Q550.619 364.218 551.475 365.121 Q552.355 366.024 555.017 366.024 L559.392 366.024 L559.392 369.589 L555.017 369.589 Q550.086 369.589 548.211 367.76 Q546.336 365.908 546.336 361.047 L546.336 346.973 L543.211 346.973 L543.211 343.663 L546.336 343.663 L546.336 336.302 L550.619 336.302 Z" fill="#000000" fill-rule="nonzero" fill-opacity="1" /><path clip-path="url(#clip990)" d="M564.993 333.57 L569.253 333.57 L569.253 369.589 L564.993 369.589 L564.993 333.57 Z" fill="#000000" fill-rule="nonzero" fill-opacity="1" /><path clip-path="url(#clip990)" d="M600.34 355.561 L600.34 357.644 L580.757 357.644 Q581.035 362.042 583.396 364.357 Q585.78 366.649 590.016 366.649 Q592.47 366.649 594.762 366.047 Q597.077 365.445 599.345 364.241 L599.345 368.269 Q597.053 369.241 594.646 369.751 Q592.239 370.26 589.762 370.26 Q583.558 370.26 579.924 366.649 Q576.313 363.038 576.313 356.88 Q576.313 350.515 579.739 346.788 Q583.188 343.038 589.021 343.038 Q594.253 343.038 597.285 346.417 Q600.34 349.774 600.34 355.561 M596.081 354.311 Q596.035 350.816 594.114 348.732 Q592.216 346.649 589.067 346.649 Q585.503 346.649 583.35 348.663 Q581.22 350.677 580.896 354.334 L596.081 354.311 Z" fill="#000000" fill-rule="nonzero" fill-opacity="1" /><path clip-path="url(#clip990)" d="M611.544 336.302 L611.544 343.663 L620.317 343.663 L620.317 346.973 L611.544 346.973 L611.544 361.047 Q611.544 364.218 612.401 365.121 Q613.28 366.024 615.942 366.024 L620.317 366.024 L620.317 369.589 L615.942 369.589 Q611.012 369.589 609.137 367.76 Q607.262 365.908 607.262 361.047 L607.262 346.973 L604.137 346.973 L604.137 343.663 L607.262 343.663 L607.262 336.302 L611.544 336.302 Z" fill="#000000" fill-rule="nonzero" fill-opacity="1" /><path clip-path="url(#clip990)" d="M630.132 336.302 L630.132 343.663 L638.905 343.663 L638.905 346.973 L630.132 346.973 L630.132 361.047 Q630.132 364.218 630.988 365.121 Q631.868 366.024 634.53 366.024 L638.905 366.024 L638.905 369.589 L634.53 369.589 Q629.6 369.589 627.725 367.76 Q625.85 365.908 625.85 361.047 L625.85 346.973 L622.725 346.973 L622.725 343.663 L625.85 343.663 L625.85 336.302 L630.132 336.302 Z" fill="#000000" fill-rule="nonzero" fill-opacity="1" /><polyline clip-path="url(#clip990)" style="stroke:#00a9ad; stroke-linecap:round; stroke-linejoin:round; stroke-width:4; stroke-opacity:1; fill:none" points="300.571,404.149 443.747,404.149 "/>
<path clip-path="url(#clip990)" d="M486.383 408.489 Q486.383 403.79 484.438 401.128 Q482.517 398.443 479.137 398.443 Q475.758 398.443 473.813 401.128 Q471.892 403.79 471.892 408.489 Q471.892 413.188 473.813 415.873 Q475.758 418.535 479.137 418.535 Q482.517 418.535 484.438 415.873 Q486.383 413.188 486.383 408.489 M471.892 399.438 Q473.235 397.123 475.272 396.012 Q477.332 394.878 480.179 394.878 Q484.901 394.878 487.841 398.628 Q490.804 402.378 490.804 408.489 Q490.804 414.6 487.841 418.35 Q484.901 422.1 480.179 422.1 Q477.332 422.1 475.272 420.989 Q473.235 419.855 471.892 417.54 L471.892 421.429 L467.61 421.429 L467.61 385.41 L471.892 385.41 L471.892 399.438 Z" fill="#000000" fill-rule="nonzero" fill-opacity="1" /><path clip-path="url(#clip990)" d="M497.864 385.41 L502.123 385.41 L502.123 421.429 L497.864 421.429 L497.864 385.41 Z" fill="#000000" fill-rule="nonzero" fill-opacity="1" /><path clip-path="url(#clip990)" d="M522.818 408.396 Q517.656 408.396 515.665 409.577 Q513.674 410.757 513.674 413.605 Q513.674 415.873 515.156 417.216 Q516.66 418.535 519.23 418.535 Q522.771 418.535 524.901 416.035 Q527.054 413.512 527.054 409.345 L527.054 408.396 L522.818 408.396 M531.313 406.637 L531.313 421.429 L527.054 421.429 L527.054 417.493 Q525.595 419.855 523.42 420.989 Q521.244 422.1 518.096 422.1 Q514.114 422.1 511.753 419.878 Q509.415 417.632 509.415 413.882 Q509.415 409.507 512.332 407.285 Q515.271 405.063 521.082 405.063 L527.054 405.063 L527.054 404.646 Q527.054 401.707 525.109 400.109 Q523.188 398.489 519.693 398.489 Q517.471 398.489 515.364 399.021 Q513.258 399.554 511.313 400.619 L511.313 396.683 Q513.651 395.781 515.85 395.341 Q518.049 394.878 520.133 394.878 Q525.758 394.878 528.535 397.794 Q531.313 400.711 531.313 406.637 Z" fill="#000000" fill-rule="nonzero" fill-opacity="1" /><path clip-path="url(#clip990)" d="M558.743 396.498 L558.743 400.48 Q556.938 399.484 555.109 398.998 Q553.304 398.489 551.452 398.489 Q547.308 398.489 545.017 401.128 Q542.725 403.744 542.725 408.489 Q542.725 413.234 545.017 415.873 Q547.308 418.489 551.452 418.489 Q553.304 418.489 555.109 418.003 Q556.938 417.493 558.743 416.498 L558.743 420.433 Q556.961 421.267 555.04 421.683 Q553.142 422.1 550.989 422.1 Q545.132 422.1 541.683 418.419 Q538.234 414.739 538.234 408.489 Q538.234 402.146 541.707 398.512 Q545.202 394.878 551.267 394.878 Q553.234 394.878 555.109 395.295 Q556.984 395.688 558.743 396.498 Z" fill="#000000" fill-rule="nonzero" fill-opacity="1" /><path clip-path="url(#clip990)" d="M565.989 385.41 L570.271 385.41 L570.271 406.683 L582.979 395.503 L588.419 395.503 L574.669 407.632 L588.998 421.429 L583.442 421.429 L570.271 408.767 L570.271 421.429 L565.989 421.429 L565.989 385.41 Z" fill="#000000" fill-rule="nonzero" fill-opacity="1" /><path clip-path="url(#clip990)" d="M613.789 400.48 Q615.387 397.609 617.609 396.244 Q619.831 394.878 622.84 394.878 Q626.891 394.878 629.09 397.725 Q631.289 400.549 631.289 405.781 L631.289 421.429 L627.007 421.429 L627.007 405.919 Q627.007 402.193 625.688 400.387 Q624.368 398.582 621.66 398.582 Q618.35 398.582 616.428 400.781 Q614.507 402.98 614.507 406.776 L614.507 421.429 L610.225 421.429 L610.225 405.919 Q610.225 402.169 608.905 400.387 Q607.586 398.582 604.831 398.582 Q601.567 398.582 599.646 400.804 Q597.725 403.003 597.725 406.776 L597.725 421.429 L593.442 421.429 L593.442 395.503 L597.725 395.503 L597.725 399.531 Q599.183 397.146 601.22 396.012 Q603.257 394.878 606.058 394.878 Q608.882 394.878 610.85 396.313 Q612.84 397.748 613.789 400.48 Z" fill="#000000" fill-rule="nonzero" fill-opacity="1" /><path clip-path="url(#clip990)" d="M651.567 408.396 Q646.405 408.396 644.414 409.577 Q642.424 410.757 642.424 413.605 Q642.424 415.873 643.905 417.216 Q645.41 418.535 647.979 418.535 Q651.521 418.535 653.65 416.035 Q655.803 413.512 655.803 409.345 L655.803 408.396 L651.567 408.396 M660.062 406.637 L660.062 421.429 L655.803 421.429 L655.803 417.493 Q654.345 419.855 652.169 420.989 Q649.993 422.1 646.845 422.1 Q642.863 422.1 640.502 419.878 Q638.164 417.632 638.164 413.882 Q638.164 409.507 641.081 407.285 Q644.021 405.063 649.831 405.063 L655.803 405.063 L655.803 404.646 Q655.803 401.707 653.859 400.109 Q651.937 398.489 648.442 398.489 Q646.22 398.489 644.113 399.021 Q642.007 399.554 640.062 400.619 L640.062 396.683 Q642.4 395.781 644.599 395.341 Q646.799 394.878 648.882 394.878 Q654.507 394.878 657.285 397.794 Q660.062 400.711 660.062 406.637 Z" fill="#000000" fill-rule="nonzero" fill-opacity="1" /><path clip-path="url(#clip990)" d="M690.386 405.781 L690.386 421.429 L686.127 421.429 L686.127 405.919 Q686.127 402.239 684.692 400.41 Q683.257 398.582 680.386 398.582 Q676.937 398.582 674.947 400.781 Q672.956 402.98 672.956 406.776 L672.956 421.429 L668.673 421.429 L668.673 395.503 L672.956 395.503 L672.956 399.531 Q674.484 397.193 676.544 396.035 Q678.627 394.878 681.335 394.878 Q685.803 394.878 688.095 397.656 Q690.386 400.41 690.386 405.781 Z" fill="#000000" fill-rule="nonzero" fill-opacity="1" /></svg>
