<?xml version="1.0" encoding="utf-8"?>
<svg xmlns="http://www.w3.org/2000/svg" xmlns:xlink="http://www.w3.org/1999/xlink" width="600" height="400" viewBox="0 0 2400 1600">
<defs>
  <clipPath id="clip020">
    <rect x="0" y="0" width="2400" height="1600"/>
  </clipPath>
</defs>
<path clip-path="url(#clip020)" d="M0 1600 L2400 1600 L2400 0 L0 0  Z" fill="#ffffff" fill-rule="evenodd" fill-opacity="1"/>
<defs>
  <clipPath id="clip021">
    <rect x="480" y="0" width="1681" height="1600"/>
  </clipPath>
</defs>
<path clip-path="url(#clip020)" d="M205.121 1423.18 L2352.76 1423.18 L2352.76 47.2441 L205.121 47.2441  Z" fill="#ffffff" fill-rule="evenodd" fill-opacity="1"/>
<defs>
  <clipPath id="clip022">
    <rect x="205" y="47" width="2149" height="1377"/>
  </clipPath>
</defs>
<polyline clip-path="url(#clip022)" style="stroke:#000000; stroke-linecap:round; stroke-linejoin:round; stroke-width:2; stroke-opacity:0.1; fill:none" points="265.903,1423.18 265.903,47.2441 "/>
<polyline clip-path="url(#clip022)" style="stroke:#000000; stroke-linecap:round; stroke-linejoin:round; stroke-width:2; stroke-opacity:0.1; fill:none" points="772.421,1423.18 772.421,47.2441 "/>
<polyline clip-path="url(#clip022)" style="stroke:#000000; stroke-linecap:round; stroke-linejoin:round; stroke-width:2; stroke-opacity:0.1; fill:none" points="1278.94,1423.18 1278.94,47.2441 "/>
<polyline clip-path="url(#clip022)" style="stroke:#000000; stroke-linecap:round; stroke-linejoin:round; stroke-width:2; stroke-opacity:0.1; fill:none" points="1785.46,1423.18 1785.46,47.2441 "/>
<polyline clip-path="url(#clip022)" style="stroke:#000000; stroke-linecap:round; stroke-linejoin:round; stroke-width:2; stroke-opacity:0.1; fill:none" points="2291.97,1423.18 2291.97,47.2441 "/>
<polyline clip-path="url(#clip022)" style="stroke:#000000; stroke-linecap:round; stroke-linejoin:round; stroke-width:2; stroke-opacity:0.1; fill:none" points="205.121,1299.09 2352.76,1299.09 "/>
<polyline clip-path="url(#clip022)" style="stroke:#000000; stroke-linecap:round; stroke-linejoin:round; stroke-width:2; stroke-opacity:0.1; fill:none" points="205.121,999.889 2352.76,999.889 "/>
<polyline clip-path="url(#clip022)" style="stroke:#000000; stroke-linecap:round; stroke-linejoin:round; stroke-width:2; stroke-opacity:0.1; fill:none" points="205.121,700.683 2352.76,700.683 "/>
<polyline clip-path="url(#clip022)" style="stroke:#000000; stroke-linecap:round; stroke-linejoin:round; stroke-width:2; stroke-opacity:0.1; fill:none" points="205.121,401.478 2352.76,401.478 "/>
<polyline clip-path="url(#clip022)" style="stroke:#000000; stroke-linecap:round; stroke-linejoin:round; stroke-width:2; stroke-opacity:0.1; fill:none" points="205.121,102.272 2352.76,102.272 "/>
<polyline clip-path="url(#clip020)" style="stroke:#000000; stroke-linecap:round; stroke-linejoin:round; stroke-width:4; stroke-opacity:1; fill:none" points="205.121,1423.18 2352.76,1423.18 "/>
<polyline clip-path="url(#clip020)" style="stroke:#000000; stroke-linecap:round; stroke-linejoin:round; stroke-width:4; stroke-opacity:1; fill:none" points="265.903,1423.18 265.903,1404.28 "/>
<polyline clip-path="url(#clip020)" style="stroke:#000000; stroke-linecap:round; stroke-linejoin:round; stroke-width:4; stroke-opacity:1; fill:none" points="772.421,1423.18 772.421,1404.28 "/>
<polyline clip-path="url(#clip020)" style="stroke:#000000; stroke-linecap:round; stroke-linejoin:round; stroke-width:4; stroke-opacity:1; fill:none" points="1278.94,1423.18 1278.94,1404.28 "/>
<polyline clip-path="url(#clip020)" style="stroke:#000000; stroke-linecap:round; stroke-linejoin:round; stroke-width:4; stroke-opacity:1; fill:none" points="1785.46,1423.18 1785.46,1404.28 "/>
<polyline clip-path="url(#clip020)" style="stroke:#000000; stroke-linecap:round; stroke-linejoin:round; stroke-width:4; stroke-opacity:1; fill:none" points="2291.97,1423.18 2291.97,1404.28 "/>
<path clip-path="url(#clip020)" d="M265.903 1454.1 Q262.292 1454.1 260.463 1457.66 Q258.658 1461.2 258.658 1468.33 Q258.658 1475.44 260.463 1479.01 Q262.292 1482.55 265.903 1482.55 Q269.537 1482.55 271.343 1479.01 Q273.172 1475.44 273.172 1468.33 Q273.172 1461.2 271.343 1457.66 Q269.537 1454.1 265.903 1454.1 M265.903 1450.39 Q271.713 1450.39 274.769 1455 Q277.847 1459.58 277.847 1468.33 Q277.847 1477.06 274.769 1481.67 Q271.713 1486.25 265.903 1486.25 Q260.093 1486.25 257.014 1481.67 Q253.959 1477.06 253.959 1468.33 Q253.959 1459.58 257.014 1455 Q260.093 1450.39 265.903 1450.39 Z" fill="#000000" fill-rule="nonzero" fill-opacity="1" /><path clip-path="url(#clip020)" d="M751.692 1481.64 L768.011 1481.64 L768.011 1485.58 L746.067 1485.58 L746.067 1481.64 Q748.729 1478.89 753.312 1474.26 Q757.919 1469.61 759.099 1468.27 Q761.344 1465.74 762.224 1464.01 Q763.127 1462.25 763.127 1460.56 Q763.127 1457.8 761.182 1456.07 Q759.261 1454.33 756.159 1454.33 Q753.96 1454.33 751.507 1455.09 Q749.076 1455.86 746.298 1457.41 L746.298 1452.69 Q749.122 1451.55 751.576 1450.97 Q754.03 1450.39 756.067 1450.39 Q761.437 1450.39 764.631 1453.08 Q767.826 1455.77 767.826 1460.26 Q767.826 1462.39 767.016 1464.31 Q766.229 1466.2 764.122 1468.8 Q763.544 1469.47 760.442 1472.69 Q757.34 1475.88 751.692 1481.64 Z" fill="#000000" fill-rule="nonzero" fill-opacity="1" /><path clip-path="url(#clip020)" d="M777.872 1451.02 L796.229 1451.02 L796.229 1454.96 L782.155 1454.96 L782.155 1463.43 Q783.173 1463.08 784.192 1462.92 Q785.21 1462.73 786.229 1462.73 Q792.016 1462.73 795.395 1465.9 Q798.775 1469.08 798.775 1474.49 Q798.775 1480.07 795.303 1483.17 Q791.83 1486.25 785.511 1486.25 Q783.335 1486.25 781.067 1485.88 Q778.821 1485.51 776.414 1484.77 L776.414 1480.07 Q778.497 1481.2 780.719 1481.76 Q782.942 1482.32 785.418 1482.32 Q789.423 1482.32 791.761 1480.21 Q794.099 1478.1 794.099 1474.49 Q794.099 1470.88 791.761 1468.77 Q789.423 1466.67 785.418 1466.67 Q783.543 1466.67 781.668 1467.08 Q779.817 1467.5 777.872 1468.38 L777.872 1451.02 Z" fill="#000000" fill-rule="nonzero" fill-opacity="1" /><path clip-path="url(#clip020)" d="M1253.64 1451.02 L1271.99 1451.02 L1271.99 1454.96 L1257.92 1454.96 L1257.92 1463.43 Q1258.94 1463.08 1259.96 1462.92 Q1260.98 1462.73 1261.99 1462.73 Q1267.78 1462.73 1271.16 1465.9 Q1274.54 1469.08 1274.54 1474.49 Q1274.54 1480.07 1271.07 1483.17 Q1267.6 1486.25 1261.28 1486.25 Q1259.1 1486.25 1256.83 1485.88 Q1254.59 1485.51 1252.18 1484.77 L1252.18 1480.07 Q1254.26 1481.2 1256.48 1481.76 Q1258.71 1482.32 1261.18 1482.32 Q1265.19 1482.32 1267.53 1480.21 Q1269.86 1478.1 1269.86 1474.49 Q1269.86 1470.88 1267.53 1468.77 Q1265.19 1466.67 1261.18 1466.67 Q1259.31 1466.67 1257.43 1467.08 Q1255.58 1467.5 1253.64 1468.38 L1253.64 1451.02 Z" fill="#000000" fill-rule="nonzero" fill-opacity="1" /><path clip-path="url(#clip020)" d="M1293.75 1454.1 Q1290.14 1454.1 1288.31 1457.66 Q1286.51 1461.2 1286.51 1468.33 Q1286.51 1475.44 1288.31 1479.01 Q1290.14 1482.55 1293.75 1482.55 Q1297.39 1482.55 1299.19 1479.01 Q1301.02 1475.44 1301.02 1468.33 Q1301.02 1461.2 1299.19 1457.66 Q1297.39 1454.1 1293.75 1454.1 M1293.75 1450.39 Q1299.56 1450.39 1302.62 1455 Q1305.7 1459.58 1305.7 1468.33 Q1305.7 1477.06 1302.62 1481.67 Q1299.56 1486.25 1293.75 1486.25 Q1287.94 1486.25 1284.86 1481.67 Q1281.81 1477.06 1281.81 1468.33 Q1281.81 1459.58 1284.86 1455 Q1287.94 1450.39 1293.75 1450.39 Z" fill="#000000" fill-rule="nonzero" fill-opacity="1" /><path clip-path="url(#clip020)" d="M1759.31 1451.02 L1781.53 1451.02 L1781.53 1453.01 L1768.99 1485.58 L1764.1 1485.58 L1775.91 1454.96 L1759.31 1454.96 L1759.31 1451.02 Z" fill="#000000" fill-rule="nonzero" fill-opacity="1" /><path clip-path="url(#clip020)" d="M1790.7 1451.02 L1809.06 1451.02 L1809.06 1454.96 L1794.98 1454.96 L1794.98 1463.43 Q1796 1463.08 1797.02 1462.92 Q1798.04 1462.73 1799.06 1462.73 Q1804.84 1462.73 1808.22 1465.9 Q1811.6 1469.08 1811.6 1474.49 Q1811.6 1480.07 1808.13 1483.17 Q1804.66 1486.25 1798.34 1486.25 Q1796.16 1486.25 1793.89 1485.88 Q1791.65 1485.51 1789.24 1484.77 L1789.24 1480.07 Q1791.32 1481.2 1793.55 1481.76 Q1795.77 1482.32 1798.25 1482.32 Q1802.25 1482.32 1804.59 1480.21 Q1806.93 1478.1 1806.93 1474.49 Q1806.93 1470.88 1804.59 1468.77 Q1802.25 1466.67 1798.25 1466.67 Q1796.37 1466.67 1794.5 1467.08 Q1792.64 1467.5 1790.7 1468.38 L1790.7 1451.02 Z" fill="#000000" fill-rule="nonzero" fill-opacity="1" /><path clip-path="url(#clip020)" d="M2251.58 1481.64 L2259.22 1481.64 L2259.22 1455.28 L2250.91 1456.95 L2250.91 1452.69 L2259.17 1451.02 L2263.85 1451.02 L2263.85 1481.64 L2271.49 1481.64 L2271.49 1485.58 L2251.58 1485.58 L2251.58 1481.64 Z" fill="#000000" fill-rule="nonzero" fill-opacity="1" /><path clip-path="url(#clip020)" d="M2290.93 1454.1 Q2287.32 1454.1 2285.49 1457.66 Q2283.69 1461.2 2283.69 1468.33 Q2283.69 1475.44 2285.49 1479.01 Q2287.32 1482.55 2290.93 1482.55 Q2294.57 1482.55 2296.37 1479.01 Q2298.2 1475.44 2298.2 1468.33 Q2298.2 1461.2 2296.37 1457.66 Q2294.57 1454.1 2290.93 1454.1 M2290.93 1450.39 Q2296.74 1450.39 2299.8 1455 Q2302.88 1459.58 2302.88 1468.33 Q2302.88 1477.06 2299.8 1481.67 Q2296.74 1486.25 2290.93 1486.25 Q2285.12 1486.25 2282.04 1481.67 Q2278.99 1477.06 2278.99 1468.33 Q2278.99 1459.58 2282.04 1455 Q2285.12 1450.39 2290.93 1450.39 Z" fill="#000000" fill-rule="nonzero" fill-opacity="1" /><path clip-path="url(#clip020)" d="M2321.09 1454.1 Q2317.48 1454.1 2315.65 1457.66 Q2313.85 1461.2 2313.85 1468.33 Q2313.85 1475.44 2315.65 1479.01 Q2317.48 1482.55 2321.09 1482.55 Q2324.73 1482.55 2326.53 1479.01 Q2328.36 1475.44 2328.36 1468.33 Q2328.36 1461.2 2326.53 1457.66 Q2324.73 1454.1 2321.09 1454.1 M2321.09 1450.39 Q2326.9 1450.39 2329.96 1455 Q2333.04 1459.58 2333.04 1468.33 Q2333.04 1477.06 2329.96 1481.67 Q2326.9 1486.25 2321.09 1486.25 Q2315.28 1486.25 2312.21 1481.67 Q2309.15 1477.06 2309.15 1468.33 Q2309.15 1459.58 2312.21 1455 Q2315.28 1450.39 2321.09 1450.39 Z" fill="#000000" fill-rule="nonzero" fill-opacity="1" /><path clip-path="url(#clip020)" d="M1260.76 1520.52 L1267.67 1520.52 L1279.48 1538.19 L1291.35 1520.52 L1298.26 1520.52 L1282.98 1543.34 L1299.28 1568.04 L1292.37 1568.04 L1279 1547.83 L1265.54 1568.04 L1258.6 1568.04 L1275.56 1542.68 L1260.76 1520.52 Z" fill="#000000" fill-rule="nonzero" fill-opacity="1" /><polyline clip-path="url(#clip020)" style="stroke:#000000; stroke-linecap:round; stroke-linejoin:round; stroke-width:4; stroke-opacity:1; fill:none" points="205.121,1423.18 205.121,47.2441 "/>
<polyline clip-path="url(#clip020)" style="stroke:#000000; stroke-linecap:round; stroke-linejoin:round; stroke-width:4; stroke-opacity:1; fill:none" points="205.121,1299.09 224.019,1299.09 "/>
<polyline clip-path="url(#clip020)" style="stroke:#000000; stroke-linecap:round; stroke-linejoin:round; stroke-width:4; stroke-opacity:1; fill:none" points="205.121,999.889 224.019,999.889 "/>
<polyline clip-path="url(#clip020)" style="stroke:#000000; stroke-linecap:round; stroke-linejoin:round; stroke-width:4; stroke-opacity:1; fill:none" points="205.121,700.683 224.019,700.683 "/>
<polyline clip-path="url(#clip020)" style="stroke:#000000; stroke-linecap:round; stroke-linejoin:round; stroke-width:4; stroke-opacity:1; fill:none" points="205.121,401.478 224.019,401.478 "/>
<polyline clip-path="url(#clip020)" style="stroke:#000000; stroke-linecap:round; stroke-linejoin:round; stroke-width:4; stroke-opacity:1; fill:none" points="205.121,102.272 224.019,102.272 "/>
<path clip-path="url(#clip020)" d="M157.177 1284.89 Q153.566 1284.89 151.737 1288.46 Q149.931 1292 149.931 1299.13 Q149.931 1306.24 151.737 1309.8 Q153.566 1313.34 157.177 1313.34 Q160.811 1313.34 162.616 1309.8 Q164.445 1306.24 164.445 1299.13 Q164.445 1292 162.616 1288.46 Q160.811 1284.89 157.177 1284.89 M157.177 1281.19 Q162.987 1281.19 166.042 1285.8 Q169.121 1290.38 169.121 1299.13 Q169.121 1307.86 166.042 1312.46 Q162.987 1317.05 157.177 1317.05 Q151.366 1317.05 148.288 1312.46 Q145.232 1307.86 145.232 1299.13 Q145.232 1290.38 148.288 1285.8 Q151.366 1281.19 157.177 1281.19 Z" fill="#000000" fill-rule="nonzero" fill-opacity="1" /><path clip-path="url(#clip020)" d="M117.825 1013.23 L125.464 1013.23 L125.464 986.868 L117.154 988.535 L117.154 984.275 L125.418 982.609 L130.093 982.609 L130.093 1013.23 L137.732 1013.23 L137.732 1017.17 L117.825 1017.17 L117.825 1013.23 Z" fill="#000000" fill-rule="nonzero" fill-opacity="1" /><path clip-path="url(#clip020)" d="M157.177 985.687 Q153.566 985.687 151.737 989.252 Q149.931 992.794 149.931 999.924 Q149.931 1007.03 151.737 1010.59 Q153.566 1014.14 157.177 1014.14 Q160.811 1014.14 162.616 1010.59 Q164.445 1007.03 164.445 999.924 Q164.445 992.794 162.616 989.252 Q160.811 985.687 157.177 985.687 M157.177 981.984 Q162.987 981.984 166.042 986.59 Q169.121 991.174 169.121 999.924 Q169.121 1008.65 166.042 1013.26 Q162.987 1017.84 157.177 1017.84 Q151.366 1017.84 148.288 1013.26 Q145.232 1008.65 145.232 999.924 Q145.232 991.174 148.288 986.59 Q151.366 981.984 157.177 981.984 Z" fill="#000000" fill-rule="nonzero" fill-opacity="1" /><path clip-path="url(#clip020)" d="M121.043 714.028 L137.362 714.028 L137.362 717.963 L115.418 717.963 L115.418 714.028 Q118.08 711.273 122.663 706.644 Q127.269 701.991 128.45 700.649 Q130.695 698.125 131.575 696.389 Q132.478 694.63 132.478 692.94 Q132.478 690.186 130.533 688.45 Q128.612 686.713 125.51 686.713 Q123.311 686.713 120.857 687.477 Q118.427 688.241 115.649 689.792 L115.649 685.07 Q118.473 683.936 120.927 683.357 Q123.38 682.778 125.418 682.778 Q130.788 682.778 133.982 685.463 Q137.177 688.149 137.177 692.639 Q137.177 694.769 136.367 696.69 Q135.579 698.588 133.473 701.181 Q132.894 701.852 129.792 705.07 Q126.691 708.264 121.043 714.028 Z" fill="#000000" fill-rule="nonzero" fill-opacity="1" /><path clip-path="url(#clip020)" d="M157.177 686.482 Q153.566 686.482 151.737 690.047 Q149.931 693.588 149.931 700.718 Q149.931 707.824 151.737 711.389 Q153.566 714.931 157.177 714.931 Q160.811 714.931 162.616 711.389 Q164.445 707.824 164.445 700.718 Q164.445 693.588 162.616 690.047 Q160.811 686.482 157.177 686.482 M157.177 682.778 Q162.987 682.778 166.042 687.385 Q169.121 691.968 169.121 700.718 Q169.121 709.445 166.042 714.051 Q162.987 718.635 157.177 718.635 Q151.366 718.635 148.288 714.051 Q145.232 709.445 145.232 700.718 Q145.232 691.968 148.288 687.385 Q151.366 682.778 157.177 682.778 Z" fill="#000000" fill-rule="nonzero" fill-opacity="1" /><path clip-path="url(#clip020)" d="M131.181 400.124 Q134.538 400.841 136.413 403.11 Q138.311 405.378 138.311 408.711 Q138.311 413.827 134.792 416.628 Q131.274 419.429 124.793 419.429 Q122.617 419.429 120.302 418.989 Q118.01 418.572 115.556 417.716 L115.556 413.202 Q117.501 414.336 119.816 414.915 Q122.13 415.494 124.654 415.494 Q129.052 415.494 131.343 413.758 Q133.658 412.022 133.658 408.711 Q133.658 405.656 131.505 403.943 Q129.376 402.207 125.556 402.207 L121.529 402.207 L121.529 398.364 L125.742 398.364 Q129.191 398.364 131.019 396.999 Q132.848 395.61 132.848 393.017 Q132.848 390.355 130.95 388.943 Q129.075 387.508 125.556 387.508 Q123.635 387.508 121.436 387.925 Q119.237 388.341 116.598 389.221 L116.598 385.054 Q119.26 384.313 121.575 383.943 Q123.913 383.573 125.973 383.573 Q131.297 383.573 134.399 386.003 Q137.501 388.411 137.501 392.531 Q137.501 395.401 135.857 397.392 Q134.214 399.36 131.181 400.124 Z" fill="#000000" fill-rule="nonzero" fill-opacity="1" /><path clip-path="url(#clip020)" d="M157.177 387.276 Q153.566 387.276 151.737 390.841 Q149.931 394.383 149.931 401.512 Q149.931 408.619 151.737 412.184 Q153.566 415.725 157.177 415.725 Q160.811 415.725 162.616 412.184 Q164.445 408.619 164.445 401.512 Q164.445 394.383 162.616 390.841 Q160.811 387.276 157.177 387.276 M157.177 383.573 Q162.987 383.573 166.042 388.179 Q169.121 392.762 169.121 401.512 Q169.121 410.239 166.042 414.846 Q162.987 419.429 157.177 419.429 Q151.366 419.429 148.288 414.846 Q145.232 410.239 145.232 401.512 Q145.232 392.762 148.288 388.179 Q151.366 383.573 157.177 383.573 Z" fill="#000000" fill-rule="nonzero" fill-opacity="1" /><path clip-path="url(#clip020)" d="M129.862 89.0662 L118.056 107.515 L129.862 107.515 L129.862 89.0662 M128.635 84.9921 L134.515 84.9921 L134.515 107.515 L139.445 107.515 L139.445 111.404 L134.515 111.404 L134.515 119.552 L129.862 119.552 L129.862 111.404 L114.26 111.404 L114.26 106.89 L128.635 84.9921 Z" fill="#000000" fill-rule="nonzero" fill-opacity="1" /><path clip-path="url(#clip020)" d="M157.177 88.0708 Q153.566 88.0708 151.737 91.6356 Q149.931 95.1773 149.931 102.307 Q149.931 109.413 151.737 112.978 Q153.566 116.52 157.177 116.52 Q160.811 116.52 162.616 112.978 Q164.445 109.413 164.445 102.307 Q164.445 95.1773 162.616 91.6356 Q160.811 88.0708 157.177 88.0708 M157.177 84.3671 Q162.987 84.3671 166.042 88.9736 Q169.121 93.5569 169.121 102.307 Q169.121 111.034 166.042 115.64 Q162.987 120.223 157.177 120.223 Q151.366 120.223 148.288 115.64 Q145.232 111.034 145.232 102.307 Q145.232 93.5569 148.288 88.9736 Q151.366 84.3671 157.177 84.3671 Z" fill="#000000" fill-rule="nonzero" fill-opacity="1" /><path clip-path="url(#clip020)" d="M16.4842 755.248 L16.4842 748.341 L36.0269 735.164 L16.4842 722.083 L16.4842 715.176 L41.3741 731.981 L64.0042 731.981 L64.0042 738.443 L41.3741 738.443 L16.4842 755.248 Z" fill="#000000" fill-rule="nonzero" fill-opacity="1" /><circle clip-path="url(#clip022)" cx="265.903" cy="1384.24" r="14.4" fill="#009af9" fill-rule="evenodd" fill-opacity="1" stroke="#000000" stroke-opacity="1" stroke-width="3.2"/>
<circle clip-path="url(#clip022)" cx="276.033" cy="1252.17" r="14.4" fill="#009af9" fill-rule="evenodd" fill-opacity="1" stroke="#000000" stroke-opacity="1" stroke-width="3.2"/>
<circle clip-path="url(#clip022)" cx="286.164" cy="1106.75" r="14.4" fill="#009af9" fill-rule="evenodd" fill-opacity="1" stroke="#000000" stroke-opacity="1" stroke-width="3.2"/>
<circle clip-path="url(#clip022)" cx="296.294" cy="1320.31" r="14.4" fill="#009af9" fill-rule="evenodd" fill-opacity="1" stroke="#000000" stroke-opacity="1" stroke-width="3.2"/>
<circle clip-path="url(#clip022)" cx="306.425" cy="1358.39" r="14.4" fill="#009af9" fill-rule="evenodd" fill-opacity="1" stroke="#000000" stroke-opacity="1" stroke-width="3.2"/>
<circle clip-path="url(#clip022)" cx="316.555" cy="1342.73" r="14.4" fill="#009af9" fill-rule="evenodd" fill-opacity="1" stroke="#000000" stroke-opacity="1" stroke-width="3.2"/>
<circle clip-path="url(#clip022)" cx="326.685" cy="1255.41" r="14.4" fill="#009af9" fill-rule="evenodd" fill-opacity="1" stroke="#000000" stroke-opacity="1" stroke-width="3.2"/>
<circle clip-path="url(#clip022)" cx="336.816" cy="1249.72" r="14.4" fill="#009af9" fill-rule="evenodd" fill-opacity="1" stroke="#000000" stroke-opacity="1" stroke-width="3.2"/>
<circle clip-path="url(#clip022)" cx="346.946" cy="1244.06" r="14.4" fill="#009af9" fill-rule="evenodd" fill-opacity="1" stroke="#000000" stroke-opacity="1" stroke-width="3.2"/>
<circle clip-path="url(#clip022)" cx="357.076" cy="1316.5" r="14.4" fill="#009af9" fill-rule="evenodd" fill-opacity="1" stroke="#000000" stroke-opacity="1" stroke-width="3.2"/>
<circle clip-path="url(#clip022)" cx="367.207" cy="1233.85" r="14.4" fill="#009af9" fill-rule="evenodd" fill-opacity="1" stroke="#000000" stroke-opacity="1" stroke-width="3.2"/>
<circle clip-path="url(#clip022)" cx="377.337" cy="1240.13" r="14.4" fill="#009af9" fill-rule="evenodd" fill-opacity="1" stroke="#000000" stroke-opacity="1" stroke-width="3.2"/>
<circle clip-path="url(#clip022)" cx="387.467" cy="1226.86" r="14.4" fill="#009af9" fill-rule="evenodd" fill-opacity="1" stroke="#000000" stroke-opacity="1" stroke-width="3.2"/>
<circle clip-path="url(#clip022)" cx="397.598" cy="1215.89" r="14.4" fill="#009af9" fill-rule="evenodd" fill-opacity="1" stroke="#000000" stroke-opacity="1" stroke-width="3.2"/>
<circle clip-path="url(#clip022)" cx="407.728" cy="1136.03" r="14.4" fill="#009af9" fill-rule="evenodd" fill-opacity="1" stroke="#000000" stroke-opacity="1" stroke-width="3.2"/>
<circle clip-path="url(#clip022)" cx="417.858" cy="1203.26" r="14.4" fill="#009af9" fill-rule="evenodd" fill-opacity="1" stroke="#000000" stroke-opacity="1" stroke-width="3.2"/>
<circle clip-path="url(#clip022)" cx="427.989" cy="1231.11" r="14.4" fill="#009af9" fill-rule="evenodd" fill-opacity="1" stroke="#000000" stroke-opacity="1" stroke-width="3.2"/>
<circle clip-path="url(#clip022)" cx="438.119" cy="1205.08" r="14.4" fill="#009af9" fill-rule="evenodd" fill-opacity="1" stroke="#000000" stroke-opacity="1" stroke-width="3.2"/>
<circle clip-path="url(#clip022)" cx="448.249" cy="1135.49" r="14.4" fill="#009af9" fill-rule="evenodd" fill-opacity="1" stroke="#000000" stroke-opacity="1" stroke-width="3.2"/>
<circle clip-path="url(#clip022)" cx="458.38" cy="1146.28" r="14.4" fill="#009af9" fill-rule="evenodd" fill-opacity="1" stroke="#000000" stroke-opacity="1" stroke-width="3.2"/>
<circle clip-path="url(#clip022)" cx="468.51" cy="1169.83" r="14.4" fill="#009af9" fill-rule="evenodd" fill-opacity="1" stroke="#000000" stroke-opacity="1" stroke-width="3.2"/>
<circle clip-path="url(#clip022)" cx="478.641" cy="1138.66" r="14.4" fill="#009af9" fill-rule="evenodd" fill-opacity="1" stroke="#000000" stroke-opacity="1" stroke-width="3.2"/>
<circle clip-path="url(#clip022)" cx="488.771" cy="1129.57" r="14.4" fill="#009af9" fill-rule="evenodd" fill-opacity="1" stroke="#000000" stroke-opacity="1" stroke-width="3.2"/>
<circle clip-path="url(#clip022)" cx="498.901" cy="1167.36" r="14.4" fill="#009af9" fill-rule="evenodd" fill-opacity="1" stroke="#000000" stroke-opacity="1" stroke-width="3.2"/>
<circle clip-path="url(#clip022)" cx="509.032" cy="1139.43" r="14.4" fill="#009af9" fill-rule="evenodd" fill-opacity="1" stroke="#000000" stroke-opacity="1" stroke-width="3.2"/>
<circle clip-path="url(#clip022)" cx="519.162" cy="1150.73" r="14.4" fill="#009af9" fill-rule="evenodd" fill-opacity="1" stroke="#000000" stroke-opacity="1" stroke-width="3.2"/>
<circle clip-path="url(#clip022)" cx="529.292" cy="1098.64" r="14.4" fill="#009af9" fill-rule="evenodd" fill-opacity="1" stroke="#000000" stroke-opacity="1" stroke-width="3.2"/>
<circle clip-path="url(#clip022)" cx="539.423" cy="1217.25" r="14.4" fill="#009af9" fill-rule="evenodd" fill-opacity="1" stroke="#000000" stroke-opacity="1" stroke-width="3.2"/>
<circle clip-path="url(#clip022)" cx="549.553" cy="1190.52" r="14.4" fill="#009af9" fill-rule="evenodd" fill-opacity="1" stroke="#000000" stroke-opacity="1" stroke-width="3.2"/>
<circle clip-path="url(#clip022)" cx="559.683" cy="1183.6" r="14.4" fill="#009af9" fill-rule="evenodd" fill-opacity="1" stroke="#000000" stroke-opacity="1" stroke-width="3.2"/>
<circle clip-path="url(#clip022)" cx="569.814" cy="1094.31" r="14.4" fill="#009af9" fill-rule="evenodd" fill-opacity="1" stroke="#000000" stroke-opacity="1" stroke-width="3.2"/>
<circle clip-path="url(#clip022)" cx="579.944" cy="1213.66" r="14.4" fill="#009af9" fill-rule="evenodd" fill-opacity="1" stroke="#000000" stroke-opacity="1" stroke-width="3.2"/>
<circle clip-path="url(#clip022)" cx="590.074" cy="990.965" r="14.4" fill="#009af9" fill-rule="evenodd" fill-opacity="1" stroke="#000000" stroke-opacity="1" stroke-width="3.2"/>
<circle clip-path="url(#clip022)" cx="600.205" cy="1078.3" r="14.4" fill="#009af9" fill-rule="evenodd" fill-opacity="1" stroke="#000000" stroke-opacity="1" stroke-width="3.2"/>
<circle clip-path="url(#clip022)" cx="610.335" cy="1118.5" r="14.4" fill="#009af9" fill-rule="evenodd" fill-opacity="1" stroke="#000000" stroke-opacity="1" stroke-width="3.2"/>
<circle clip-path="url(#clip022)" cx="620.465" cy="1117.25" r="14.4" fill="#009af9" fill-rule="evenodd" fill-opacity="1" stroke="#000000" stroke-opacity="1" stroke-width="3.2"/>
<circle clip-path="url(#clip022)" cx="630.596" cy="1183.68" r="14.4" fill="#009af9" fill-rule="evenodd" fill-opacity="1" stroke="#000000" stroke-opacity="1" stroke-width="3.2"/>
<circle clip-path="url(#clip022)" cx="640.726" cy="1119.46" r="14.4" fill="#009af9" fill-rule="evenodd" fill-opacity="1" stroke="#000000" stroke-opacity="1" stroke-width="3.2"/>
<circle clip-path="url(#clip022)" cx="650.857" cy="1194.11" r="14.4" fill="#009af9" fill-rule="evenodd" fill-opacity="1" stroke="#000000" stroke-opacity="1" stroke-width="3.2"/>
<circle clip-path="url(#clip022)" cx="660.987" cy="1181.43" r="14.4" fill="#009af9" fill-rule="evenodd" fill-opacity="1" stroke="#000000" stroke-opacity="1" stroke-width="3.2"/>
<circle clip-path="url(#clip022)" cx="671.117" cy="998.329" r="14.4" fill="#009af9" fill-rule="evenodd" fill-opacity="1" stroke="#000000" stroke-opacity="1" stroke-width="3.2"/>
<circle clip-path="url(#clip022)" cx="681.248" cy="981.169" r="14.4" fill="#009af9" fill-rule="evenodd" fill-opacity="1" stroke="#000000" stroke-opacity="1" stroke-width="3.2"/>
<circle clip-path="url(#clip022)" cx="691.378" cy="1017.58" r="14.4" fill="#009af9" fill-rule="evenodd" fill-opacity="1" stroke="#000000" stroke-opacity="1" stroke-width="3.2"/>
<circle clip-path="url(#clip022)" cx="701.508" cy="1105.21" r="14.4" fill="#009af9" fill-rule="evenodd" fill-opacity="1" stroke="#000000" stroke-opacity="1" stroke-width="3.2"/>
<circle clip-path="url(#clip022)" cx="711.639" cy="1088.03" r="14.4" fill="#009af9" fill-rule="evenodd" fill-opacity="1" stroke="#000000" stroke-opacity="1" stroke-width="3.2"/>
<circle clip-path="url(#clip022)" cx="721.769" cy="1040.64" r="14.4" fill="#009af9" fill-rule="evenodd" fill-opacity="1" stroke="#000000" stroke-opacity="1" stroke-width="3.2"/>
<circle clip-path="url(#clip022)" cx="731.899" cy="994.815" r="14.4" fill="#009af9" fill-rule="evenodd" fill-opacity="1" stroke="#000000" stroke-opacity="1" stroke-width="3.2"/>
<circle clip-path="url(#clip022)" cx="742.03" cy="1089.49" r="14.4" fill="#009af9" fill-rule="evenodd" fill-opacity="1" stroke="#000000" stroke-opacity="1" stroke-width="3.2"/>
<circle clip-path="url(#clip022)" cx="752.16" cy="1085.53" r="14.4" fill="#009af9" fill-rule="evenodd" fill-opacity="1" stroke="#000000" stroke-opacity="1" stroke-width="3.2"/>
<circle clip-path="url(#clip022)" cx="762.29" cy="1063.16" r="14.4" fill="#009af9" fill-rule="evenodd" fill-opacity="1" stroke="#000000" stroke-opacity="1" stroke-width="3.2"/>
<circle clip-path="url(#clip022)" cx="772.421" cy="928.639" r="14.4" fill="#009af9" fill-rule="evenodd" fill-opacity="1" stroke="#000000" stroke-opacity="1" stroke-width="3.2"/>
<circle clip-path="url(#clip022)" cx="782.551" cy="1078.63" r="14.4" fill="#009af9" fill-rule="evenodd" fill-opacity="1" stroke="#000000" stroke-opacity="1" stroke-width="3.2"/>
<circle clip-path="url(#clip022)" cx="792.681" cy="932.021" r="14.4" fill="#009af9" fill-rule="evenodd" fill-opacity="1" stroke="#000000" stroke-opacity="1" stroke-width="3.2"/>
<circle clip-path="url(#clip022)" cx="802.812" cy="908.921" r="14.4" fill="#009af9" fill-rule="evenodd" fill-opacity="1" stroke="#000000" stroke-opacity="1" stroke-width="3.2"/>
<circle clip-path="url(#clip022)" cx="812.942" cy="993.994" r="14.4" fill="#009af9" fill-rule="evenodd" fill-opacity="1" stroke="#000000" stroke-opacity="1" stroke-width="3.2"/>
<circle clip-path="url(#clip022)" cx="823.073" cy="976.164" r="14.4" fill="#009af9" fill-rule="evenodd" fill-opacity="1" stroke="#000000" stroke-opacity="1" stroke-width="3.2"/>
<circle clip-path="url(#clip022)" cx="833.203" cy="1028.74" r="14.4" fill="#009af9" fill-rule="evenodd" fill-opacity="1" stroke="#000000" stroke-opacity="1" stroke-width="3.2"/>
<circle clip-path="url(#clip022)" cx="843.333" cy="1069.83" r="14.4" fill="#009af9" fill-rule="evenodd" fill-opacity="1" stroke="#000000" stroke-opacity="1" stroke-width="3.2"/>
<circle clip-path="url(#clip022)" cx="853.464" cy="1105.29" r="14.4" fill="#009af9" fill-rule="evenodd" fill-opacity="1" stroke="#000000" stroke-opacity="1" stroke-width="3.2"/>
<circle clip-path="url(#clip022)" cx="863.594" cy="1108.66" r="14.4" fill="#009af9" fill-rule="evenodd" fill-opacity="1" stroke="#000000" stroke-opacity="1" stroke-width="3.2"/>
<circle clip-path="url(#clip022)" cx="873.724" cy="1038.76" r="14.4" fill="#009af9" fill-rule="evenodd" fill-opacity="1" stroke="#000000" stroke-opacity="1" stroke-width="3.2"/>
<circle clip-path="url(#clip022)" cx="883.855" cy="965.423" r="14.4" fill="#009af9" fill-rule="evenodd" fill-opacity="1" stroke="#000000" stroke-opacity="1" stroke-width="3.2"/>
<circle clip-path="url(#clip022)" cx="893.985" cy="923.382" r="14.4" fill="#009af9" fill-rule="evenodd" fill-opacity="1" stroke="#000000" stroke-opacity="1" stroke-width="3.2"/>
<circle clip-path="url(#clip022)" cx="904.115" cy="971.017" r="14.4" fill="#009af9" fill-rule="evenodd" fill-opacity="1" stroke="#000000" stroke-opacity="1" stroke-width="3.2"/>
<circle clip-path="url(#clip022)" cx="914.246" cy="926.919" r="14.4" fill="#009af9" fill-rule="evenodd" fill-opacity="1" stroke="#000000" stroke-opacity="1" stroke-width="3.2"/>
<circle clip-path="url(#clip022)" cx="924.376" cy="891.382" r="14.4" fill="#009af9" fill-rule="evenodd" fill-opacity="1" stroke="#000000" stroke-opacity="1" stroke-width="3.2"/>
<circle clip-path="url(#clip022)" cx="934.506" cy="792.588" r="14.4" fill="#009af9" fill-rule="evenodd" fill-opacity="1" stroke="#000000" stroke-opacity="1" stroke-width="3.2"/>
<circle clip-path="url(#clip022)" cx="944.637" cy="782.297" r="14.4" fill="#009af9" fill-rule="evenodd" fill-opacity="1" stroke="#000000" stroke-opacity="1" stroke-width="3.2"/>
<circle clip-path="url(#clip022)" cx="954.767" cy="802.372" r="14.4" fill="#009af9" fill-rule="evenodd" fill-opacity="1" stroke="#000000" stroke-opacity="1" stroke-width="3.2"/>
<circle clip-path="url(#clip022)" cx="964.897" cy="791.498" r="14.4" fill="#009af9" fill-rule="evenodd" fill-opacity="1" stroke="#000000" stroke-opacity="1" stroke-width="3.2"/>
<circle clip-path="url(#clip022)" cx="975.028" cy="778.283" r="14.4" fill="#009af9" fill-rule="evenodd" fill-opacity="1" stroke="#000000" stroke-opacity="1" stroke-width="3.2"/>
<circle clip-path="url(#clip022)" cx="985.158" cy="718.476" r="14.4" fill="#009af9" fill-rule="evenodd" fill-opacity="1" stroke="#000000" stroke-opacity="1" stroke-width="3.2"/>
<circle clip-path="url(#clip022)" cx="995.289" cy="769.636" r="14.4" fill="#009af9" fill-rule="evenodd" fill-opacity="1" stroke="#000000" stroke-opacity="1" stroke-width="3.2"/>
<circle clip-path="url(#clip022)" cx="1005.42" cy="633.659" r="14.4" fill="#009af9" fill-rule="evenodd" fill-opacity="1" stroke="#000000" stroke-opacity="1" stroke-width="3.2"/>
<circle clip-path="url(#clip022)" cx="1015.55" cy="597.602" r="14.4" fill="#009af9" fill-rule="evenodd" fill-opacity="1" stroke="#000000" stroke-opacity="1" stroke-width="3.2"/>
<circle clip-path="url(#clip022)" cx="1025.68" cy="582.433" r="14.4" fill="#009af9" fill-rule="evenodd" fill-opacity="1" stroke="#000000" stroke-opacity="1" stroke-width="3.2"/>
<circle clip-path="url(#clip022)" cx="1035.81" cy="563.816" r="14.4" fill="#009af9" fill-rule="evenodd" fill-opacity="1" stroke="#000000" stroke-opacity="1" stroke-width="3.2"/>
<circle clip-path="url(#clip022)" cx="1045.94" cy="557.055" r="14.4" fill="#009af9" fill-rule="evenodd" fill-opacity="1" stroke="#000000" stroke-opacity="1" stroke-width="3.2"/>
<circle clip-path="url(#clip022)" cx="1056.07" cy="523.888" r="14.4" fill="#009af9" fill-rule="evenodd" fill-opacity="1" stroke="#000000" stroke-opacity="1" stroke-width="3.2"/>
<circle clip-path="url(#clip022)" cx="1066.2" cy="422.698" r="14.4" fill="#009af9" fill-rule="evenodd" fill-opacity="1" stroke="#000000" stroke-opacity="1" stroke-width="3.2"/>
<circle clip-path="url(#clip022)" cx="1076.33" cy="484.961" r="14.4" fill="#009af9" fill-rule="evenodd" fill-opacity="1" stroke="#000000" stroke-opacity="1" stroke-width="3.2"/>
<circle clip-path="url(#clip022)" cx="1086.46" cy="425.211" r="14.4" fill="#009af9" fill-rule="evenodd" fill-opacity="1" stroke="#000000" stroke-opacity="1" stroke-width="3.2"/>
<circle clip-path="url(#clip022)" cx="1096.59" cy="522.533" r="14.4" fill="#009af9" fill-rule="evenodd" fill-opacity="1" stroke="#000000" stroke-opacity="1" stroke-width="3.2"/>
<circle clip-path="url(#clip022)" cx="1106.72" cy="471.185" r="14.4" fill="#009af9" fill-rule="evenodd" fill-opacity="1" stroke="#000000" stroke-opacity="1" stroke-width="3.2"/>
<circle clip-path="url(#clip022)" cx="1116.85" cy="513.036" r="14.4" fill="#009af9" fill-rule="evenodd" fill-opacity="1" stroke="#000000" stroke-opacity="1" stroke-width="3.2"/>
<circle clip-path="url(#clip022)" cx="1126.98" cy="498.389" r="14.4" fill="#009af9" fill-rule="evenodd" fill-opacity="1" stroke="#000000" stroke-opacity="1" stroke-width="3.2"/>
<circle clip-path="url(#clip022)" cx="1137.11" cy="361.709" r="14.4" fill="#009af9" fill-rule="evenodd" fill-opacity="1" stroke="#000000" stroke-opacity="1" stroke-width="3.2"/>
<circle clip-path="url(#clip022)" cx="1147.24" cy="454.962" r="14.4" fill="#009af9" fill-rule="evenodd" fill-opacity="1" stroke="#000000" stroke-opacity="1" stroke-width="3.2"/>
<circle clip-path="url(#clip022)" cx="1157.37" cy="441.233" r="14.4" fill="#009af9" fill-rule="evenodd" fill-opacity="1" stroke="#000000" stroke-opacity="1" stroke-width="3.2"/>
<circle clip-path="url(#clip022)" cx="1167.5" cy="541.81" r="14.4" fill="#009af9" fill-rule="evenodd" fill-opacity="1" stroke="#000000" stroke-opacity="1" stroke-width="3.2"/>
<circle clip-path="url(#clip022)" cx="1177.63" cy="474.997" r="14.4" fill="#009af9" fill-rule="evenodd" fill-opacity="1" stroke="#000000" stroke-opacity="1" stroke-width="3.2"/>
<circle clip-path="url(#clip022)" cx="1187.77" cy="550.647" r="14.4" fill="#009af9" fill-rule="evenodd" fill-opacity="1" stroke="#000000" stroke-opacity="1" stroke-width="3.2"/>
<circle clip-path="url(#clip022)" cx="1197.9" cy="418.825" r="14.4" fill="#009af9" fill-rule="evenodd" fill-opacity="1" stroke="#000000" stroke-opacity="1" stroke-width="3.2"/>
<circle clip-path="url(#clip022)" cx="1208.03" cy="489.37" r="14.4" fill="#009af9" fill-rule="evenodd" fill-opacity="1" stroke="#000000" stroke-opacity="1" stroke-width="3.2"/>
<circle clip-path="url(#clip022)" cx="1218.16" cy="486.452" r="14.4" fill="#009af9" fill-rule="evenodd" fill-opacity="1" stroke="#000000" stroke-opacity="1" stroke-width="3.2"/>
<circle clip-path="url(#clip022)" cx="1228.29" cy="495.751" r="14.4" fill="#009af9" fill-rule="evenodd" fill-opacity="1" stroke="#000000" stroke-opacity="1" stroke-width="3.2"/>
<circle clip-path="url(#clip022)" cx="1238.42" cy="591.025" r="14.4" fill="#009af9" fill-rule="evenodd" fill-opacity="1" stroke="#000000" stroke-opacity="1" stroke-width="3.2"/>
<circle clip-path="url(#clip022)" cx="1248.55" cy="452.402" r="14.4" fill="#009af9" fill-rule="evenodd" fill-opacity="1" stroke="#000000" stroke-opacity="1" stroke-width="3.2"/>
<circle clip-path="url(#clip022)" cx="1258.68" cy="419.028" r="14.4" fill="#009af9" fill-rule="evenodd" fill-opacity="1" stroke="#000000" stroke-opacity="1" stroke-width="3.2"/>
<circle clip-path="url(#clip022)" cx="1268.81" cy="394.702" r="14.4" fill="#009af9" fill-rule="evenodd" fill-opacity="1" stroke="#000000" stroke-opacity="1" stroke-width="3.2"/>
<circle clip-path="url(#clip022)" cx="1278.94" cy="400.519" r="14.4" fill="#009af9" fill-rule="evenodd" fill-opacity="1" stroke="#000000" stroke-opacity="1" stroke-width="3.2"/>
<circle clip-path="url(#clip022)" cx="1289.07" cy="489.1" r="14.4" fill="#009af9" fill-rule="evenodd" fill-opacity="1" stroke="#000000" stroke-opacity="1" stroke-width="3.2"/>
<circle clip-path="url(#clip022)" cx="1299.2" cy="383.69" r="14.4" fill="#009af9" fill-rule="evenodd" fill-opacity="1" stroke="#000000" stroke-opacity="1" stroke-width="3.2"/>
<circle clip-path="url(#clip022)" cx="1309.33" cy="444.956" r="14.4" fill="#009af9" fill-rule="evenodd" fill-opacity="1" stroke="#000000" stroke-opacity="1" stroke-width="3.2"/>
<circle clip-path="url(#clip022)" cx="1319.46" cy="333.751" r="14.4" fill="#009af9" fill-rule="evenodd" fill-opacity="1" stroke="#000000" stroke-opacity="1" stroke-width="3.2"/>
<circle clip-path="url(#clip022)" cx="1329.59" cy="364.316" r="14.4" fill="#009af9" fill-rule="evenodd" fill-opacity="1" stroke="#000000" stroke-opacity="1" stroke-width="3.2"/>
<circle clip-path="url(#clip022)" cx="1339.72" cy="423.639" r="14.4" fill="#009af9" fill-rule="evenodd" fill-opacity="1" stroke="#000000" stroke-opacity="1" stroke-width="3.2"/>
<circle clip-path="url(#clip022)" cx="1349.85" cy="326.061" r="14.4" fill="#009af9" fill-rule="evenodd" fill-opacity="1" stroke="#000000" stroke-opacity="1" stroke-width="3.2"/>
<circle clip-path="url(#clip022)" cx="1359.98" cy="359.19" r="14.4" fill="#009af9" fill-rule="evenodd" fill-opacity="1" stroke="#000000" stroke-opacity="1" stroke-width="3.2"/>
<circle clip-path="url(#clip022)" cx="1370.11" cy="294.887" r="14.4" fill="#009af9" fill-rule="evenodd" fill-opacity="1" stroke="#000000" stroke-opacity="1" stroke-width="3.2"/>
<circle clip-path="url(#clip022)" cx="1380.24" cy="396.427" r="14.4" fill="#009af9" fill-rule="evenodd" fill-opacity="1" stroke="#000000" stroke-opacity="1" stroke-width="3.2"/>
<circle clip-path="url(#clip022)" cx="1390.37" cy="236.385" r="14.4" fill="#009af9" fill-rule="evenodd" fill-opacity="1" stroke="#000000" stroke-opacity="1" stroke-width="3.2"/>
<circle clip-path="url(#clip022)" cx="1400.5" cy="289.268" r="14.4" fill="#009af9" fill-rule="evenodd" fill-opacity="1" stroke="#000000" stroke-opacity="1" stroke-width="3.2"/>
<circle clip-path="url(#clip022)" cx="1410.63" cy="206.829" r="14.4" fill="#009af9" fill-rule="evenodd" fill-opacity="1" stroke="#000000" stroke-opacity="1" stroke-width="3.2"/>
<circle clip-path="url(#clip022)" cx="1420.76" cy="284.336" r="14.4" fill="#009af9" fill-rule="evenodd" fill-opacity="1" stroke="#000000" stroke-opacity="1" stroke-width="3.2"/>
<circle clip-path="url(#clip022)" cx="1430.89" cy="260.51" r="14.4" fill="#009af9" fill-rule="evenodd" fill-opacity="1" stroke="#000000" stroke-opacity="1" stroke-width="3.2"/>
<circle clip-path="url(#clip022)" cx="1441.02" cy="247.711" r="14.4" fill="#009af9" fill-rule="evenodd" fill-opacity="1" stroke="#000000" stroke-opacity="1" stroke-width="3.2"/>
<circle clip-path="url(#clip022)" cx="1451.15" cy="347.149" r="14.4" fill="#009af9" fill-rule="evenodd" fill-opacity="1" stroke="#000000" stroke-opacity="1" stroke-width="3.2"/>
<circle clip-path="url(#clip022)" cx="1461.28" cy="148.335" r="14.4" fill="#009af9" fill-rule="evenodd" fill-opacity="1" stroke="#000000" stroke-opacity="1" stroke-width="3.2"/>
<circle clip-path="url(#clip022)" cx="1471.42" cy="86.1857" r="14.4" fill="#009af9" fill-rule="evenodd" fill-opacity="1" stroke="#000000" stroke-opacity="1" stroke-width="3.2"/>
<circle clip-path="url(#clip022)" cx="1481.55" cy="186.974" r="14.4" fill="#009af9" fill-rule="evenodd" fill-opacity="1" stroke="#000000" stroke-opacity="1" stroke-width="3.2"/>
<circle clip-path="url(#clip022)" cx="1491.68" cy="210.69" r="14.4" fill="#009af9" fill-rule="evenodd" fill-opacity="1" stroke="#000000" stroke-opacity="1" stroke-width="3.2"/>
<circle clip-path="url(#clip022)" cx="1501.81" cy="240.208" r="14.4" fill="#009af9" fill-rule="evenodd" fill-opacity="1" stroke="#000000" stroke-opacity="1" stroke-width="3.2"/>
<circle clip-path="url(#clip022)" cx="1511.94" cy="216.89" r="14.4" fill="#009af9" fill-rule="evenodd" fill-opacity="1" stroke="#000000" stroke-opacity="1" stroke-width="3.2"/>
<circle clip-path="url(#clip022)" cx="1522.07" cy="189.58" r="14.4" fill="#009af9" fill-rule="evenodd" fill-opacity="1" stroke="#000000" stroke-opacity="1" stroke-width="3.2"/>
<circle clip-path="url(#clip022)" cx="1532.2" cy="178.34" r="14.4" fill="#009af9" fill-rule="evenodd" fill-opacity="1" stroke="#000000" stroke-opacity="1" stroke-width="3.2"/>
<circle clip-path="url(#clip022)" cx="1542.33" cy="163.663" r="14.4" fill="#009af9" fill-rule="evenodd" fill-opacity="1" stroke="#000000" stroke-opacity="1" stroke-width="3.2"/>
<circle clip-path="url(#clip022)" cx="1552.46" cy="187.62" r="14.4" fill="#009af9" fill-rule="evenodd" fill-opacity="1" stroke="#000000" stroke-opacity="1" stroke-width="3.2"/>
<circle clip-path="url(#clip022)" cx="1562.59" cy="297.478" r="14.4" fill="#009af9" fill-rule="evenodd" fill-opacity="1" stroke="#000000" stroke-opacity="1" stroke-width="3.2"/>
<circle clip-path="url(#clip022)" cx="1572.72" cy="299.493" r="14.4" fill="#009af9" fill-rule="evenodd" fill-opacity="1" stroke="#000000" stroke-opacity="1" stroke-width="3.2"/>
<circle clip-path="url(#clip022)" cx="1582.85" cy="267.937" r="14.4" fill="#009af9" fill-rule="evenodd" fill-opacity="1" stroke="#000000" stroke-opacity="1" stroke-width="3.2"/>
<circle clip-path="url(#clip022)" cx="1592.98" cy="193.321" r="14.4" fill="#009af9" fill-rule="evenodd" fill-opacity="1" stroke="#000000" stroke-opacity="1" stroke-width="3.2"/>
<circle clip-path="url(#clip022)" cx="1603.11" cy="245.785" r="14.4" fill="#009af9" fill-rule="evenodd" fill-opacity="1" stroke="#000000" stroke-opacity="1" stroke-width="3.2"/>
<circle clip-path="url(#clip022)" cx="1613.24" cy="407.711" r="14.4" fill="#009af9" fill-rule="evenodd" fill-opacity="1" stroke="#000000" stroke-opacity="1" stroke-width="3.2"/>
<circle clip-path="url(#clip022)" cx="1623.37" cy="322.437" r="14.4" fill="#009af9" fill-rule="evenodd" fill-opacity="1" stroke="#000000" stroke-opacity="1" stroke-width="3.2"/>
<circle clip-path="url(#clip022)" cx="1633.5" cy="231.788" r="14.4" fill="#009af9" fill-rule="evenodd" fill-opacity="1" stroke="#000000" stroke-opacity="1" stroke-width="3.2"/>
<circle clip-path="url(#clip022)" cx="1643.63" cy="253.058" r="14.4" fill="#009af9" fill-rule="evenodd" fill-opacity="1" stroke="#000000" stroke-opacity="1" stroke-width="3.2"/>
<circle clip-path="url(#clip022)" cx="1653.76" cy="333.934" r="14.4" fill="#009af9" fill-rule="evenodd" fill-opacity="1" stroke="#000000" stroke-opacity="1" stroke-width="3.2"/>
<circle clip-path="url(#clip022)" cx="1663.89" cy="323.516" r="14.4" fill="#009af9" fill-rule="evenodd" fill-opacity="1" stroke="#000000" stroke-opacity="1" stroke-width="3.2"/>
<circle clip-path="url(#clip022)" cx="1674.02" cy="365.753" r="14.4" fill="#009af9" fill-rule="evenodd" fill-opacity="1" stroke="#000000" stroke-opacity="1" stroke-width="3.2"/>
<circle clip-path="url(#clip022)" cx="1684.15" cy="352.824" r="14.4" fill="#009af9" fill-rule="evenodd" fill-opacity="1" stroke="#000000" stroke-opacity="1" stroke-width="3.2"/>
<circle clip-path="url(#clip022)" cx="1694.28" cy="352.391" r="14.4" fill="#009af9" fill-rule="evenodd" fill-opacity="1" stroke="#000000" stroke-opacity="1" stroke-width="3.2"/>
<circle clip-path="url(#clip022)" cx="1704.41" cy="298.309" r="14.4" fill="#009af9" fill-rule="evenodd" fill-opacity="1" stroke="#000000" stroke-opacity="1" stroke-width="3.2"/>
<circle clip-path="url(#clip022)" cx="1714.54" cy="420.402" r="14.4" fill="#009af9" fill-rule="evenodd" fill-opacity="1" stroke="#000000" stroke-opacity="1" stroke-width="3.2"/>
<circle clip-path="url(#clip022)" cx="1724.67" cy="327.867" r="14.4" fill="#009af9" fill-rule="evenodd" fill-opacity="1" stroke="#000000" stroke-opacity="1" stroke-width="3.2"/>
<circle clip-path="url(#clip022)" cx="1734.8" cy="400.324" r="14.4" fill="#009af9" fill-rule="evenodd" fill-opacity="1" stroke="#000000" stroke-opacity="1" stroke-width="3.2"/>
<circle clip-path="url(#clip022)" cx="1744.93" cy="376.263" r="14.4" fill="#009af9" fill-rule="evenodd" fill-opacity="1" stroke="#000000" stroke-opacity="1" stroke-width="3.2"/>
<circle clip-path="url(#clip022)" cx="1755.07" cy="426.328" r="14.4" fill="#009af9" fill-rule="evenodd" fill-opacity="1" stroke="#000000" stroke-opacity="1" stroke-width="3.2"/>
<circle clip-path="url(#clip022)" cx="1765.2" cy="458.736" r="14.4" fill="#009af9" fill-rule="evenodd" fill-opacity="1" stroke="#000000" stroke-opacity="1" stroke-width="3.2"/>
<circle clip-path="url(#clip022)" cx="1775.33" cy="443.375" r="14.4" fill="#009af9" fill-rule="evenodd" fill-opacity="1" stroke="#000000" stroke-opacity="1" stroke-width="3.2"/>
<circle clip-path="url(#clip022)" cx="1785.46" cy="407.314" r="14.4" fill="#009af9" fill-rule="evenodd" fill-opacity="1" stroke="#000000" stroke-opacity="1" stroke-width="3.2"/>
<circle clip-path="url(#clip022)" cx="1795.59" cy="546.283" r="14.4" fill="#009af9" fill-rule="evenodd" fill-opacity="1" stroke="#000000" stroke-opacity="1" stroke-width="3.2"/>
<circle clip-path="url(#clip022)" cx="1805.72" cy="408.57" r="14.4" fill="#009af9" fill-rule="evenodd" fill-opacity="1" stroke="#000000" stroke-opacity="1" stroke-width="3.2"/>
<circle clip-path="url(#clip022)" cx="1815.85" cy="546.577" r="14.4" fill="#009af9" fill-rule="evenodd" fill-opacity="1" stroke="#000000" stroke-opacity="1" stroke-width="3.2"/>
<circle clip-path="url(#clip022)" cx="1825.98" cy="600.85" r="14.4" fill="#009af9" fill-rule="evenodd" fill-opacity="1" stroke="#000000" stroke-opacity="1" stroke-width="3.2"/>
<circle clip-path="url(#clip022)" cx="1836.11" cy="568.226" r="14.4" fill="#009af9" fill-rule="evenodd" fill-opacity="1" stroke="#000000" stroke-opacity="1" stroke-width="3.2"/>
<circle clip-path="url(#clip022)" cx="1846.24" cy="567.566" r="14.4" fill="#009af9" fill-rule="evenodd" fill-opacity="1" stroke="#000000" stroke-opacity="1" stroke-width="3.2"/>
<circle clip-path="url(#clip022)" cx="1856.37" cy="540.659" r="14.4" fill="#009af9" fill-rule="evenodd" fill-opacity="1" stroke="#000000" stroke-opacity="1" stroke-width="3.2"/>
<circle clip-path="url(#clip022)" cx="1866.5" cy="568.353" r="14.4" fill="#009af9" fill-rule="evenodd" fill-opacity="1" stroke="#000000" stroke-opacity="1" stroke-width="3.2"/>
<circle clip-path="url(#clip022)" cx="1876.63" cy="580.28" r="14.4" fill="#009af9" fill-rule="evenodd" fill-opacity="1" stroke="#000000" stroke-opacity="1" stroke-width="3.2"/>
<circle clip-path="url(#clip022)" cx="1886.76" cy="595.704" r="14.4" fill="#009af9" fill-rule="evenodd" fill-opacity="1" stroke="#000000" stroke-opacity="1" stroke-width="3.2"/>
<circle clip-path="url(#clip022)" cx="1896.89" cy="628.109" r="14.4" fill="#009af9" fill-rule="evenodd" fill-opacity="1" stroke="#000000" stroke-opacity="1" stroke-width="3.2"/>
<circle clip-path="url(#clip022)" cx="1907.02" cy="576.299" r="14.4" fill="#009af9" fill-rule="evenodd" fill-opacity="1" stroke="#000000" stroke-opacity="1" stroke-width="3.2"/>
<circle clip-path="url(#clip022)" cx="1917.15" cy="567.64" r="14.4" fill="#009af9" fill-rule="evenodd" fill-opacity="1" stroke="#000000" stroke-opacity="1" stroke-width="3.2"/>
<circle clip-path="url(#clip022)" cx="1927.28" cy="611.259" r="14.4" fill="#009af9" fill-rule="evenodd" fill-opacity="1" stroke="#000000" stroke-opacity="1" stroke-width="3.2"/>
<circle clip-path="url(#clip022)" cx="1937.41" cy="828.273" r="14.4" fill="#009af9" fill-rule="evenodd" fill-opacity="1" stroke="#000000" stroke-opacity="1" stroke-width="3.2"/>
<circle clip-path="url(#clip022)" cx="1947.54" cy="625.561" r="14.4" fill="#009af9" fill-rule="evenodd" fill-opacity="1" stroke="#000000" stroke-opacity="1" stroke-width="3.2"/>
<circle clip-path="url(#clip022)" cx="1957.67" cy="612.226" r="14.4" fill="#009af9" fill-rule="evenodd" fill-opacity="1" stroke="#000000" stroke-opacity="1" stroke-width="3.2"/>
<circle clip-path="url(#clip022)" cx="1967.8" cy="627.784" r="14.4" fill="#009af9" fill-rule="evenodd" fill-opacity="1" stroke="#000000" stroke-opacity="1" stroke-width="3.2"/>
<circle clip-path="url(#clip022)" cx="1977.93" cy="682.455" r="14.4" fill="#009af9" fill-rule="evenodd" fill-opacity="1" stroke="#000000" stroke-opacity="1" stroke-width="3.2"/>
<circle clip-path="url(#clip022)" cx="1988.06" cy="757.656" r="14.4" fill="#009af9" fill-rule="evenodd" fill-opacity="1" stroke="#000000" stroke-opacity="1" stroke-width="3.2"/>
<circle clip-path="url(#clip022)" cx="1998.19" cy="593.471" r="14.4" fill="#009af9" fill-rule="evenodd" fill-opacity="1" stroke="#000000" stroke-opacity="1" stroke-width="3.2"/>
<circle clip-path="url(#clip022)" cx="2008.32" cy="681.221" r="14.4" fill="#009af9" fill-rule="evenodd" fill-opacity="1" stroke="#000000" stroke-opacity="1" stroke-width="3.2"/>
<circle clip-path="url(#clip022)" cx="2018.45" cy="657.1" r="14.4" fill="#009af9" fill-rule="evenodd" fill-opacity="1" stroke="#000000" stroke-opacity="1" stroke-width="3.2"/>
<circle clip-path="url(#clip022)" cx="2028.58" cy="607.15" r="14.4" fill="#009af9" fill-rule="evenodd" fill-opacity="1" stroke="#000000" stroke-opacity="1" stroke-width="3.2"/>
<circle clip-path="url(#clip022)" cx="2038.71" cy="615.018" r="14.4" fill="#009af9" fill-rule="evenodd" fill-opacity="1" stroke="#000000" stroke-opacity="1" stroke-width="3.2"/>
<circle clip-path="url(#clip022)" cx="2048.85" cy="693.031" r="14.4" fill="#009af9" fill-rule="evenodd" fill-opacity="1" stroke="#000000" stroke-opacity="1" stroke-width="3.2"/>
<circle clip-path="url(#clip022)" cx="2058.98" cy="638.062" r="14.4" fill="#009af9" fill-rule="evenodd" fill-opacity="1" stroke="#000000" stroke-opacity="1" stroke-width="3.2"/>
<circle clip-path="url(#clip022)" cx="2069.11" cy="641.989" r="14.4" fill="#009af9" fill-rule="evenodd" fill-opacity="1" stroke="#000000" stroke-opacity="1" stroke-width="3.2"/>
<circle clip-path="url(#clip022)" cx="2079.24" cy="708.66" r="14.4" fill="#009af9" fill-rule="evenodd" fill-opacity="1" stroke="#000000" stroke-opacity="1" stroke-width="3.2"/>
<circle clip-path="url(#clip022)" cx="2089.37" cy="665.561" r="14.4" fill="#009af9" fill-rule="evenodd" fill-opacity="1" stroke="#000000" stroke-opacity="1" stroke-width="3.2"/>
<circle clip-path="url(#clip022)" cx="2099.5" cy="766.495" r="14.4" fill="#009af9" fill-rule="evenodd" fill-opacity="1" stroke="#000000" stroke-opacity="1" stroke-width="3.2"/>
<circle clip-path="url(#clip022)" cx="2109.63" cy="730.737" r="14.4" fill="#009af9" fill-rule="evenodd" fill-opacity="1" stroke="#000000" stroke-opacity="1" stroke-width="3.2"/>
<circle clip-path="url(#clip022)" cx="2119.76" cy="752.578" r="14.4" fill="#009af9" fill-rule="evenodd" fill-opacity="1" stroke="#000000" stroke-opacity="1" stroke-width="3.2"/>
<circle clip-path="url(#clip022)" cx="2129.89" cy="736.169" r="14.4" fill="#009af9" fill-rule="evenodd" fill-opacity="1" stroke="#000000" stroke-opacity="1" stroke-width="3.2"/>
<circle clip-path="url(#clip022)" cx="2140.02" cy="795.23" r="14.4" fill="#009af9" fill-rule="evenodd" fill-opacity="1" stroke="#000000" stroke-opacity="1" stroke-width="3.2"/>
<circle clip-path="url(#clip022)" cx="2150.15" cy="776.403" r="14.4" fill="#009af9" fill-rule="evenodd" fill-opacity="1" stroke="#000000" stroke-opacity="1" stroke-width="3.2"/>
<circle clip-path="url(#clip022)" cx="2160.28" cy="663.744" r="14.4" fill="#009af9" fill-rule="evenodd" fill-opacity="1" stroke="#000000" stroke-opacity="1" stroke-width="3.2"/>
<circle clip-path="url(#clip022)" cx="2170.41" cy="757.591" r="14.4" fill="#009af9" fill-rule="evenodd" fill-opacity="1" stroke="#000000" stroke-opacity="1" stroke-width="3.2"/>
<circle clip-path="url(#clip022)" cx="2180.54" cy="811.505" r="14.4" fill="#009af9" fill-rule="evenodd" fill-opacity="1" stroke="#000000" stroke-opacity="1" stroke-width="3.2"/>
<circle clip-path="url(#clip022)" cx="2190.67" cy="673.497" r="14.4" fill="#009af9" fill-rule="evenodd" fill-opacity="1" stroke="#000000" stroke-opacity="1" stroke-width="3.2"/>
<circle clip-path="url(#clip022)" cx="2200.8" cy="598.751" r="14.4" fill="#009af9" fill-rule="evenodd" fill-opacity="1" stroke="#000000" stroke-opacity="1" stroke-width="3.2"/>
<circle clip-path="url(#clip022)" cx="2210.93" cy="669.779" r="14.4" fill="#009af9" fill-rule="evenodd" fill-opacity="1" stroke="#000000" stroke-opacity="1" stroke-width="3.2"/>
<circle clip-path="url(#clip022)" cx="2221.06" cy="646.7" r="14.4" fill="#009af9" fill-rule="evenodd" fill-opacity="1" stroke="#000000" stroke-opacity="1" stroke-width="3.2"/>
<circle clip-path="url(#clip022)" cx="2231.19" cy="664.64" r="14.4" fill="#009af9" fill-rule="evenodd" fill-opacity="1" stroke="#000000" stroke-opacity="1" stroke-width="3.2"/>
<circle clip-path="url(#clip022)" cx="2241.32" cy="637.785" r="14.4" fill="#009af9" fill-rule="evenodd" fill-opacity="1" stroke="#000000" stroke-opacity="1" stroke-width="3.2"/>
<circle clip-path="url(#clip022)" cx="2251.45" cy="739.668" r="14.4" fill="#009af9" fill-rule="evenodd" fill-opacity="1" stroke="#000000" stroke-opacity="1" stroke-width="3.2"/>
<circle clip-path="url(#clip022)" cx="2261.58" cy="722.925" r="14.4" fill="#009af9" fill-rule="evenodd" fill-opacity="1" stroke="#000000" stroke-opacity="1" stroke-width="3.2"/>
<circle clip-path="url(#clip022)" cx="2271.71" cy="741.761" r="14.4" fill="#009af9" fill-rule="evenodd" fill-opacity="1" stroke="#000000" stroke-opacity="1" stroke-width="3.2"/>
<circle clip-path="url(#clip022)" cx="2281.84" cy="716.797" r="14.4" fill="#009af9" fill-rule="evenodd" fill-opacity="1" stroke="#000000" stroke-opacity="1" stroke-width="3.2"/>
<circle clip-path="url(#clip022)" cx="2291.97" cy="703.725" r="14.4" fill="#009af9" fill-rule="evenodd" fill-opacity="1" stroke="#000000" stroke-opacity="1" stroke-width="3.2"/>
<polyline clip-path="url(#clip022)" style="stroke:#e26f46; stroke-linecap:round; stroke-linejoin:round; stroke-width:4; stroke-opacity:1; fill:none" points="265.903,1384.24 276.033,1365.72 286.164,1341.67 296.294,1323.39 306.425,1310.8 316.555,1294 326.685,1270.94 336.816,1249.71 346.946,1236.81 357.076,1243.53 367.207,1246.16 377.337,1245.91 387.467,1236.73 397.598,1210.38 407.728,1199 417.858,1191.55 427.989,1189.09 438.119,1174.08 448.249,1163.21 458.38,1154.46 468.51,1159.25 478.641,1152.06 488.771,1161.37 498.901,1161.47 509.032,1158.23 519.162,1149.08 529.292,1140.77 539.423,1141.71 549.553,1138.39 559.683,1133.47 569.814,1140.75 579.944,1146.68 590.074,1144.16 600.205,1132.9 610.335,1125.76 620.465,1119.47 630.596,1115.21 640.726,1098.74 650.857,1092.46 660.987,1088.66 671.117,1094.12 681.248,1081.49 691.378,1088.3 701.508,1076.78 711.639,1060.68 721.769,1047.7 731.899,1031.39 742.03,1020.55 752.16,1007.77 762.29,1006.44 772.421,1015.73 782.551,1018.08 792.681,1018.03 802.812,1013.54 812.942,1017.42 823.073,1021.79 833.203,1026.31 843.333,1021.96 853.464,1018.48 863.594,1013.59 873.724,1006.21 883.855,988.537 893.985,974.048 904.115,954.361 914.246,926.309 924.376,897.473 934.506,862.504 944.637,827.191 954.767,795.087 964.897,771.544 975.028,744.503 985.158,718.467 995.289,681.901 1005.42,648.21 1015.55,618.549 1025.68,592.367 1035.81,576.643 1045.94,548.637 1056.07,523.227 1066.2,497.054 1076.33,481.677 1086.46,467.287 1096.59,464.167 1106.72,465.418 1116.85,463.356 1126.98,462.027 1137.11,457.923 1147.24,466.531 1157.37,478.003 1167.5,488.525 1177.63,488.723 1187.77,485.518 1197.9,483.908 1208.03,483.215 1218.16,485.364 1228.29,485.708 1238.42,480.514 1248.55,469.32 1258.68,457.641 1268.81,445.922 1278.94,433.005 1289.07,425.824 1299.2,418.323 1309.33,404.613 1319.46,387.35 1329.59,371.324 1339.72,356.84 1349.85,346.072 1359.98,342.07 1370.11,336.103 1380.24,317.686 1390.37,297.152 1400.5,283.279 1410.63,266.384 1420.76,257.855 1430.89,243.234 1441.02,231.808 1451.15,225.215 1461.28,208.126 1471.42,198.877 1481.55,191.956 1491.68,201.531 1501.81,198.484 1511.94,192.186 1522.07,191.23 1532.2,204.214 1542.33,215.46 1552.46,222.566 1562.59,242.819 1572.72,249.497 1582.85,251.929 1592.98,260.67 1603.11,274.668 1613.24,283.271 1623.37,298.323 1633.5,305.902 1643.63,313.714 1653.76,315.446 1663.89,315.928 1674.02,326.628 1684.15,341.74 1694.28,346.93 1704.41,356.557 1714.54,358.681 1724.67,373.414 1734.8,390.099 1744.93,401.615 1755.07,415.295 1765.2,432.331 1775.33,448.327 1785.46,467.052 1795.59,483.805 1805.72,504.192 1815.85,518.434 1825.98,536.47 1836.11,534.306 1846.24,552.93 1856.37,567.838 1866.5,582.048 1876.63,593.376 1886.76,598.621 1896.89,610.323 1907.02,622.711 1917.15,624.414 1927.28,635.386 1937.41,647.664 1947.54,651.575 1957.67,658.585 1967.8,660.894 1977.93,658.801 1988.06,659.8 1998.19,654.807 2008.32,656.429 2018.45,653.4 2028.58,650.144 2038.71,645.749 2048.85,663.136 2058.98,676.653 2069.11,680.894 2079.24,682.984 2089.37,698.967 2099.5,724.326 2109.63,729.85 2119.76,740.082 2129.89,744.969 2140.02,744.448 2150.15,733.802 2160.28,729.351 2170.41,719.113 2180.54,709.272 2190.67,703.857 2200.8,694.819 2210.93,693.81 2221.06,688.985 2231.19,687.099 2241.32,678.522 2251.45,680.086 2261.58,683.534 2271.71,682.715 2281.84,686.099 2291.97,703.725 "/>
<polyline clip-path="url(#clip022)" style="stroke:#3da44d; stroke-linecap:round; stroke-linejoin:round; stroke-width:4; stroke-opacity:1; fill:none" points="265.903,1297.93 276.033,1293.07 286.164,1289.08 296.294,1286.4 306.425,1283.66 316.555,1279.85 326.685,1274.67 336.816,1268.47 346.946,1261.4 357.076,1253.44 367.207,1244.37 377.337,1234.61 387.467,1224.49 397.598,1214.38 407.728,1204.67 417.858,1195.77 427.989,1187.42 438.119,1179.41 448.249,1171.97 458.38,1165.61 468.51,1160.46 478.641,1156.44 488.771,1153.59 498.901,1151.76 509.032,1150.56 519.162,1149.77 529.292,1149.02 539.423,1148.01 549.553,1145.87 559.683,1142.48 569.814,1138.12 579.944,1133.52 590.074,1128.94 600.205,1125.46 610.335,1122.78 620.465,1120.13 630.596,1116.68 640.726,1111.58 650.857,1104.66 660.987,1095.83 671.117,1085.86 681.248,1076.43 691.378,1068.3 701.508,1061.3 711.639,1054.74 721.769,1048.39 731.899,1042.33 742.03,1036.56 752.16,1030.64 762.29,1024.61 772.421,1019.1 782.551,1015.11 792.681,1012.73 802.812,1012.7 812.942,1014.92 823.073,1018.3 833.203,1021.51 843.333,1022.79 853.464,1020.48 863.594,1013.38 873.724,1001.13 883.855,984.328 893.985,963.949 904.115,940.78 914.246,915.2 924.376,887.891 934.506,859.653 944.637,831.319 954.767,803.053 964.897,774.53 975.028,745.414 985.158,715.543 995.289,685.081 1005.42,654.224 1015.55,624.009 1025.68,595.273 1035.81,568.584 1045.94,544.385 1056.07,523.07 1066.2,505.159 1076.33,491.181 1086.46,480.841 1096.59,473.781 1106.72,469.086 1116.85,466.33 1126.98,465.107 1137.11,465.478 1147.24,467.839 1157.37,471.544 1167.5,475.822 1177.63,479.597 1187.77,482.455 1197.9,483.933 1208.03,484.251 1218.16,482.98 1228.29,479.74 1238.42,474.185 1248.55,466.132 1258.68,456.564 1268.81,446.328 1278.94,435.894 1289.07,425.218 1299.2,413.9 1309.33,402.181 1319.46,389.998 1329.59,377.717 1339.72,365.14 1349.85,351.938 1359.98,338.364 1370.11,324.414 1380.24,310.29 1390.37,295.902 1400.5,282.018 1410.63,268.814 1420.76,256.537 1430.89,244.813 1441.02,233.548 1451.15,222.804 1461.28,212.784 1471.42,204.937 1481.55,200.064 1491.68,197.78 1501.81,197.571 1511.94,199.049 1522.07,202.255 1532.2,207.406 1542.33,214.594 1552.46,223.619 1562.59,233.774 1572.72,243.989 1582.85,253.833 1592.98,263.43 1603.11,273.045 1613.24,282.24 1623.37,290.306 1633.5,297.79 1643.63,305.558 1653.76,313.818 1663.89,322.25 1674.02,330.738 1684.15,339.178 1694.28,347.815 1704.41,357.032 1714.54,367.258 1724.67,378.332 1734.8,390.627 1744.93,404.011 1755.07,418.448 1765.2,433.627 1775.33,449.311 1785.46,465.519 1795.59,482.209 1805.72,498.755 1815.85,515.174 1825.98,530.582 1836.11,544.405 1846.24,556.777 1856.37,568.065 1866.5,578.747 1876.63,589.027 1886.76,599.005 1896.89,608.69 1907.02,618.064 1917.15,627.298 1927.28,636.149 1937.41,643.774 1947.54,649.085 1957.67,652.835 1967.8,655.544 1977.93,657.327 1988.06,658.019 1998.19,657.707 2008.32,657.474 2018.45,657.764 2028.58,659.253 2038.71,662.614 2048.85,667.998 2058.98,675.08 2069.11,683.786 2079.24,693.671 2089.37,703.873 2099.5,713.678 2109.63,721.99 2119.76,728.242 2129.89,731.954 2140.02,732.889 2150.15,730.851 2160.28,726.27 2170.41,720.03 2180.54,712.389 2190.67,703.982 2200.8,696.434 2210.93,691.067 2221.06,688.225 2231.19,688.038 2241.32,690.222 2251.45,694.259 2261.58,699.108 2271.71,704.178 2281.84,709.12 2291.97,713.961 "/>
<polyline clip-path="url(#clip022)" style="stroke:#c271d2; stroke-linecap:round; stroke-linejoin:round; stroke-width:4; stroke-opacity:1; fill:none" points="265.903,1295.23 276.033,1293.56 286.164,1291.24 296.294,1288.23 306.425,1284.44 316.555,1279.78 326.685,1274.18 336.816,1267.66 346.946,1260.26 357.076,1252.09 367.207,1243.26 377.337,1233.95 387.467,1224.38 397.598,1214.77 407.728,1205.34 417.858,1196.3 427.989,1187.81 438.119,1180.03 448.249,1173.05 458.38,1166.99 468.51,1161.87 478.641,1157.69 488.771,1154.37 498.901,1151.78 509.032,1149.78 519.162,1148.15 529.292,1146.71 539.423,1145.23 549.553,1143.55 559.683,1141.53 569.814,1139.1 579.944,1136.23 590.074,1132.91 600.205,1129.13 610.335,1124.82 620.465,1119.89 630.596,1114.24 640.726,1107.83 650.857,1100.66 660.987,1092.86 671.117,1084.64 681.248,1076.25 691.378,1067.96 701.508,1059.97 711.639,1052.44 721.769,1045.5 731.899,1039.29 742.03,1033.91 752.16,1029.45 762.29,1025.97 772.421,1023.52 782.551,1022.09 792.681,1021.53 802.812,1021.62 812.942,1021.95 823.073,1021.95 833.203,1021 843.333,1018.38 853.464,1013.47 863.594,1005.75 873.724,994.879 883.855,980.738 893.985,963.373 904.115,942.965 914.246,919.796 924.376,894.22 934.506,866.641 944.637,837.469 954.767,807.091 964.897,775.87 975.028,744.161 985.158,712.338 995.289,680.81 1005.42,650.021 1015.55,620.451 1025.68,592.576 1035.81,566.839 1045.94,543.626 1056.07,523.25 1066.2,505.935 1076.33,491.791 1086.46,480.797 1096.59,472.81 1106.72,467.584 1116.85,464.807 1126.98,464.121 1137.11,465.14 1147.24,467.445 1157.37,470.565 1167.5,474.008 1177.63,477.286 1187.77,479.961 1197.9,481.663 1208.03,482.101 1218.16,481.052 1228.29,478.371 1238.42,474.006 1248.55,467.996 1258.68,460.48 1268.81,451.642 1278.94,441.669 1289.07,430.725 1299.2,418.951 1309.33,406.478 1319.46,393.422 1329.59,379.887 1339.72,365.957 1349.85,351.709 1359.98,337.237 1370.11,322.647 1380.24,308.069 1390.37,293.651 1400.5,279.572 1410.63,266.016 1420.76,253.168 1430.89,241.209 1441.02,230.331 1451.15,220.746 1461.28,212.682 1471.42,206.372 1481.55,201.989 1491.68,199.612 1501.81,199.238 1511.94,200.803 1522.07,204.201 1532.2,209.277 1542.33,215.825 1552.46,223.58 1562.59,232.235 1572.72,241.469 1582.85,250.998 1592.98,260.596 1603.11,270.092 1613.24,279.356 1623.37,288.318 1633.5,296.999 1643.63,305.478 1653.76,313.856 1663.89,322.244 1674.02,330.763 1684.15,339.557 1694.28,348.78 1704.41,358.591 1714.54,369.129 1724.67,380.489 1734.8,392.73 1744.93,405.852 1755.07,419.802 1765.2,434.478 1775.33,449.735 1785.46,465.401 1795.59,481.275 1805.72,497.133 1815.85,512.751 1825.98,527.906 1836.11,542.416 1846.24,556.163 1856.37,569.081 1866.5,581.142 1876.63,592.332 1886.76,602.635 1896.89,612.032 1907.02,620.499 1917.15,628.007 1927.28,634.517 1937.41,639.998 1947.54,644.463 1957.67,648.017 1967.8,650.831 1977.93,653.117 1988.06,655.119 1998.19,657.12 2008.32,659.427 2018.45,662.323 2028.58,666.034 2038.71,670.7 2048.85,676.336 2058.98,682.827 2069.11,689.943 2079.24,697.344 2089.37,704.611 2099.5,711.291 2109.63,716.939 2119.76,721.178 2129.89,723.738 2140.02,724.479 2150.15,723.414 2160.28,720.715 2170.41,716.7 2180.54,711.787 2190.67,706.477 2200.8,701.324 2210.93,696.855 2221.06,693.506 2231.19,691.606 2241.32,691.368 2251.45,692.9 2261.58,696.232 2271.71,701.356 2281.84,708.262 2291.97,716.941 "/>
<path clip-path="url(#clip020)" d="M276.709 352.309 L712.119 352.309 L712.119 93.1086 L276.709 93.1086  Z" fill="#ffffff" fill-rule="evenodd" fill-opacity="1"/>
<polyline clip-path="url(#clip020)" style="stroke:#000000; stroke-linecap:round; stroke-linejoin:round; stroke-width:4; stroke-opacity:1; fill:none" points="276.709,352.309 712.119,352.309 712.119,93.1086 276.709,93.1086 276.709,352.309 "/>
<circle clip-path="url(#clip020)" cx="372.159" cy="144.949" r="20.48" fill="#009af9" fill-rule="evenodd" fill-opacity="1" stroke="#000000" stroke-opacity="1" stroke-width="4.55111"/>
<path clip-path="url(#clip020)" d="M486.036 137.067 L486.036 141.094 Q484.23 140.169 482.286 139.706 Q480.341 139.243 478.258 139.243 Q475.087 139.243 473.489 140.215 Q471.915 141.187 471.915 143.131 Q471.915 144.613 473.049 145.469 Q474.184 146.303 477.61 147.067 L479.068 147.391 Q483.605 148.363 485.503 150.145 Q487.424 151.905 487.424 155.076 Q487.424 158.687 484.554 160.793 Q481.707 162.9 476.707 162.9 Q474.624 162.9 472.355 162.483 Q470.11 162.09 467.61 161.28 L467.61 156.881 Q469.971 158.108 472.262 158.733 Q474.554 159.335 476.799 159.335 Q479.809 159.335 481.429 158.317 Q483.049 157.275 483.049 155.4 Q483.049 153.664 481.869 152.738 Q480.711 151.812 476.753 150.956 L475.272 150.608 Q471.313 149.775 469.554 148.062 Q467.795 146.326 467.795 143.317 Q467.795 139.659 470.387 137.669 Q472.98 135.678 477.749 135.678 Q480.11 135.678 482.193 136.025 Q484.276 136.372 486.036 137.067 Z" fill="#000000" fill-rule="nonzero" fill-opacity="1" /><path clip-path="url(#clip020)" d="M494.207 136.303 L498.466 136.303 L498.466 162.229 L494.207 162.229 L494.207 136.303 M494.207 126.21 L498.466 126.21 L498.466 131.604 L494.207 131.604 L494.207 126.21 Z" fill="#000000" fill-rule="nonzero" fill-opacity="1" /><path clip-path="url(#clip020)" d="M524.438 148.965 Q524.438 144.335 522.517 141.789 Q520.619 139.243 517.17 139.243 Q513.744 139.243 511.822 141.789 Q509.924 144.335 509.924 148.965 Q509.924 153.571 511.822 156.118 Q513.744 158.664 517.17 158.664 Q520.619 158.664 522.517 156.118 Q524.438 153.571 524.438 148.965 M528.697 159.011 Q528.697 165.631 525.758 168.849 Q522.818 172.09 516.753 172.09 Q514.508 172.09 512.517 171.742 Q510.526 171.418 508.651 170.724 L508.651 166.58 Q510.526 167.599 512.355 168.085 Q514.184 168.571 516.082 168.571 Q520.271 168.571 522.355 166.372 Q524.438 164.196 524.438 159.775 L524.438 157.668 Q523.119 159.96 521.058 161.094 Q518.998 162.229 516.128 162.229 Q511.359 162.229 508.443 158.594 Q505.526 154.96 505.526 148.965 Q505.526 142.946 508.443 139.312 Q511.359 135.678 516.128 135.678 Q518.998 135.678 521.058 136.812 Q523.119 137.946 524.438 140.238 L524.438 136.303 L528.697 136.303 L528.697 159.011 Z" fill="#000000" fill-rule="nonzero" fill-opacity="1" /><path clip-path="url(#clip020)" d="M559.021 146.581 L559.021 162.229 L554.762 162.229 L554.762 146.719 Q554.762 143.039 553.327 141.21 Q551.892 139.382 549.021 139.382 Q545.572 139.382 543.582 141.581 Q541.591 143.78 541.591 147.576 L541.591 162.229 L537.308 162.229 L537.308 136.303 L541.591 136.303 L541.591 140.331 Q543.119 137.993 545.179 136.835 Q547.262 135.678 549.97 135.678 Q554.438 135.678 556.73 138.456 Q559.021 141.21 559.021 146.581 Z" fill="#000000" fill-rule="nonzero" fill-opacity="1" /><path clip-path="url(#clip020)" d="M579.299 149.196 Q574.137 149.196 572.146 150.377 Q570.155 151.557 570.155 154.405 Q570.155 156.673 571.637 158.016 Q573.142 159.335 575.711 159.335 Q579.253 159.335 581.382 156.835 Q583.535 154.312 583.535 150.145 L583.535 149.196 L579.299 149.196 M587.794 147.437 L587.794 162.229 L583.535 162.229 L583.535 158.293 Q582.077 160.655 579.901 161.789 Q577.725 162.9 574.577 162.9 Q570.595 162.9 568.234 160.678 Q565.896 158.432 565.896 154.682 Q565.896 150.307 568.813 148.085 Q571.753 145.863 577.563 145.863 L583.535 145.863 L583.535 145.446 Q583.535 142.507 581.591 140.909 Q579.669 139.289 576.174 139.289 Q573.952 139.289 571.845 139.821 Q569.739 140.354 567.794 141.419 L567.794 137.483 Q570.132 136.581 572.331 136.141 Q574.53 135.678 576.614 135.678 Q582.239 135.678 585.016 138.594 Q587.794 141.511 587.794 147.437 Z" fill="#000000" fill-rule="nonzero" fill-opacity="1" /><path clip-path="url(#clip020)" d="M596.567 126.21 L600.827 126.21 L600.827 162.229 L596.567 162.229 L596.567 126.21 Z" fill="#000000" fill-rule="nonzero" fill-opacity="1" /><polyline clip-path="url(#clip020)" style="stroke:#e26f46; stroke-linecap:round; stroke-linejoin:round; stroke-width:4; stroke-opacity:1; fill:none" points="300.571,196.789 443.747,196.789 "/>
<path clip-path="url(#clip020)" d="M486.036 188.907 L486.036 192.934 Q484.23 192.009 482.286 191.546 Q480.341 191.083 478.258 191.083 Q475.087 191.083 473.489 192.055 Q471.915 193.027 471.915 194.971 Q471.915 196.453 473.049 197.309 Q474.184 198.143 477.61 198.907 L479.068 199.231 Q483.605 200.203 485.503 201.985 Q487.424 203.745 487.424 206.916 Q487.424 210.527 484.554 212.633 Q481.707 214.74 476.707 214.74 Q474.624 214.74 472.355 214.323 Q470.11 213.93 467.61 213.12 L467.61 208.721 Q469.971 209.948 472.262 210.573 Q474.554 211.175 476.799 211.175 Q479.809 211.175 481.429 210.157 Q483.049 209.115 483.049 207.24 Q483.049 205.504 481.869 204.578 Q480.711 203.652 476.753 202.796 L475.272 202.448 Q471.313 201.615 469.554 199.902 Q467.795 198.166 467.795 195.157 Q467.795 191.499 470.387 189.509 Q472.98 187.518 477.749 187.518 Q480.11 187.518 482.193 187.865 Q484.276 188.212 486.036 188.907 Z" fill="#000000" fill-rule="nonzero" fill-opacity="1" /><path clip-path="url(#clip020)" d="M505.989 201.036 Q500.827 201.036 498.836 202.217 Q496.846 203.397 496.846 206.245 Q496.846 208.513 498.327 209.856 Q499.832 211.175 502.401 211.175 Q505.943 211.175 508.072 208.675 Q510.225 206.152 510.225 201.985 L510.225 201.036 L505.989 201.036 M514.484 199.277 L514.484 214.069 L510.225 214.069 L510.225 210.133 Q508.767 212.495 506.591 213.629 Q504.415 214.74 501.267 214.74 Q497.285 214.74 494.924 212.518 Q492.586 210.272 492.586 206.522 Q492.586 202.147 495.503 199.925 Q498.443 197.703 504.253 197.703 L510.225 197.703 L510.225 197.286 Q510.225 194.347 508.281 192.749 Q506.359 191.129 502.864 191.129 Q500.642 191.129 498.535 191.661 Q496.429 192.194 494.485 193.259 L494.485 189.323 Q496.822 188.421 499.022 187.981 Q501.221 187.518 503.304 187.518 Q508.929 187.518 511.707 190.434 Q514.484 193.351 514.484 199.277 Z" fill="#000000" fill-rule="nonzero" fill-opacity="1" /><path clip-path="url(#clip020)" d="M520.202 188.143 L524.716 188.143 L532.818 209.902 L540.919 188.143 L545.433 188.143 L535.711 214.069 L529.924 214.069 L520.202 188.143 Z" fill="#000000" fill-rule="nonzero" fill-opacity="1" /><path clip-path="url(#clip020)" d="M568.373 200.805 Q568.373 196.175 566.452 193.629 Q564.554 191.083 561.105 191.083 Q557.679 191.083 555.757 193.629 Q553.859 196.175 553.859 200.805 Q553.859 205.411 555.757 207.958 Q557.679 210.504 561.105 210.504 Q564.554 210.504 566.452 207.958 Q568.373 205.411 568.373 200.805 M572.632 210.851 Q572.632 217.471 569.692 220.689 Q566.753 223.93 560.688 223.93 Q558.443 223.93 556.452 223.582 Q554.461 223.258 552.586 222.564 L552.586 218.42 Q554.461 219.439 556.29 219.925 Q558.118 220.411 560.017 220.411 Q564.206 220.411 566.29 218.212 Q568.373 216.036 568.373 211.615 L568.373 209.508 Q567.054 211.8 564.993 212.934 Q562.933 214.069 560.063 214.069 Q555.294 214.069 552.378 210.434 Q549.461 206.8 549.461 200.805 Q549.461 194.786 552.378 191.152 Q555.294 187.518 560.063 187.518 Q562.933 187.518 564.993 188.652 Q567.054 189.786 568.373 192.078 L568.373 188.143 L572.632 188.143 L572.632 210.851 Z" fill="#000000" fill-rule="nonzero" fill-opacity="1" /><path clip-path="url(#clip020)" d="M591.452 191.129 Q588.026 191.129 586.035 193.814 Q584.044 196.476 584.044 201.129 Q584.044 205.782 586.012 208.467 Q588.003 211.129 591.452 211.129 Q594.854 211.129 596.845 208.444 Q598.836 205.758 598.836 201.129 Q598.836 196.522 596.845 193.837 Q594.854 191.129 591.452 191.129 M591.452 187.518 Q597.007 187.518 600.178 191.129 Q603.35 194.74 603.35 201.129 Q603.35 207.495 600.178 211.129 Q597.007 214.74 591.452 214.74 Q585.873 214.74 582.702 211.129 Q579.554 207.495 579.554 201.129 Q579.554 194.74 582.702 191.129 Q585.873 187.518 591.452 187.518 Z" fill="#000000" fill-rule="nonzero" fill-opacity="1" /><path clip-path="url(#clip020)" d="M610.41 178.05 L614.669 178.05 L614.669 214.069 L610.41 214.069 L610.41 178.05 Z" fill="#000000" fill-rule="nonzero" fill-opacity="1" /><polyline clip-path="url(#clip020)" style="stroke:#3da44d; stroke-linecap:round; stroke-linejoin:round; stroke-width:4; stroke-opacity:1; fill:none" points="300.571,248.629 443.747,248.629 "/>
<path clip-path="url(#clip020)" d="M467.61 239.983 L471.869 239.983 L477.193 260.214 L482.494 239.983 L487.517 239.983 L492.841 260.214 L498.142 239.983 L502.401 239.983 L495.619 265.909 L490.596 265.909 L485.017 244.659 L479.415 265.909 L474.392 265.909 L467.61 239.983 Z" fill="#000000" fill-rule="nonzero" fill-opacity="1" /><path clip-path="url(#clip020)" d="M530.41 250.261 L530.41 265.909 L526.151 265.909 L526.151 250.399 Q526.151 246.719 524.716 244.89 Q523.281 243.062 520.41 243.062 Q516.961 243.062 514.971 245.261 Q512.98 247.46 512.98 251.256 L512.98 265.909 L508.697 265.909 L508.697 229.89 L512.98 229.89 L512.98 244.011 Q514.508 241.673 516.568 240.515 Q518.651 239.358 521.359 239.358 Q525.827 239.358 528.119 242.136 Q530.41 244.89 530.41 250.261 Z" fill="#000000" fill-rule="nonzero" fill-opacity="1" /><path clip-path="url(#clip020)" d="M538.906 239.983 L543.165 239.983 L543.165 265.909 L538.906 265.909 L538.906 239.983 M538.906 229.89 L543.165 229.89 L543.165 235.284 L538.906 235.284 L538.906 229.89 Z" fill="#000000" fill-rule="nonzero" fill-opacity="1" /><path clip-path="url(#clip020)" d="M556.29 232.622 L556.29 239.983 L565.063 239.983 L565.063 243.293 L556.29 243.293 L556.29 257.367 Q556.29 260.538 557.146 261.441 Q558.026 262.344 560.688 262.344 L565.063 262.344 L565.063 265.909 L560.688 265.909 Q555.757 265.909 553.882 264.08 Q552.007 262.228 552.007 257.367 L552.007 243.293 L548.882 243.293 L548.882 239.983 L552.007 239.983 L552.007 232.622 L556.29 232.622 Z" fill="#000000" fill-rule="nonzero" fill-opacity="1" /><path clip-path="url(#clip020)" d="M574.878 232.622 L574.878 239.983 L583.651 239.983 L583.651 243.293 L574.878 243.293 L574.878 257.367 Q574.878 260.538 575.734 261.441 Q576.614 262.344 579.276 262.344 L583.651 262.344 L583.651 265.909 L579.276 265.909 Q574.345 265.909 572.47 264.08 Q570.595 262.228 570.595 257.367 L570.595 243.293 L567.47 243.293 L567.47 239.983 L570.595 239.983 L570.595 232.622 L574.878 232.622 Z" fill="#000000" fill-rule="nonzero" fill-opacity="1" /><path clip-path="url(#clip020)" d="M601.035 252.876 Q595.873 252.876 593.882 254.057 Q591.891 255.237 591.891 258.085 Q591.891 260.353 593.373 261.696 Q594.878 263.015 597.447 263.015 Q600.989 263.015 603.118 260.515 Q605.271 257.992 605.271 253.825 L605.271 252.876 L601.035 252.876 M609.53 251.117 L609.53 265.909 L605.271 265.909 L605.271 261.973 Q603.813 264.335 601.637 265.469 Q599.461 266.58 596.313 266.58 Q592.331 266.58 589.97 264.358 Q587.632 262.112 587.632 258.362 Q587.632 253.987 590.549 251.765 Q593.489 249.543 599.299 249.543 L605.271 249.543 L605.271 249.126 Q605.271 246.187 603.327 244.589 Q601.405 242.969 597.91 242.969 Q595.688 242.969 593.581 243.501 Q591.475 244.034 589.53 245.099 L589.53 241.163 Q591.868 240.261 594.067 239.821 Q596.266 239.358 598.35 239.358 Q603.975 239.358 606.752 242.274 Q609.53 245.191 609.53 251.117 Z" fill="#000000" fill-rule="nonzero" fill-opacity="1" /><path clip-path="url(#clip020)" d="M618.141 229.89 L622.424 229.89 L622.424 251.163 L635.132 239.983 L640.572 239.983 L626.822 252.112 L641.15 265.909 L635.595 265.909 L622.424 253.247 L622.424 265.909 L618.141 265.909 L618.141 229.89 Z" fill="#000000" fill-rule="nonzero" fill-opacity="1" /><path clip-path="url(#clip020)" d="M666.243 251.881 L666.243 253.964 L646.66 253.964 Q646.937 258.362 649.299 260.677 Q651.683 262.969 655.919 262.969 Q658.373 262.969 660.664 262.367 Q662.979 261.765 665.248 260.561 L665.248 264.589 Q662.956 265.561 660.548 266.071 Q658.141 266.58 655.664 266.58 Q649.461 266.58 645.826 262.969 Q642.215 259.358 642.215 253.2 Q642.215 246.835 645.641 243.108 Q649.09 239.358 654.923 239.358 Q660.155 239.358 663.187 242.737 Q666.243 246.094 666.243 251.881 M661.984 250.631 Q661.937 247.136 660.016 245.052 Q658.118 242.969 654.97 242.969 Q651.405 242.969 649.252 244.983 Q647.123 246.997 646.799 250.654 L661.984 250.631 Z" fill="#000000" fill-rule="nonzero" fill-opacity="1" /><path clip-path="url(#clip020)" d="M688.257 243.964 Q687.539 243.548 686.683 243.362 Q685.849 243.154 684.831 243.154 Q681.22 243.154 679.275 245.515 Q677.354 247.853 677.354 252.251 L677.354 265.909 L673.072 265.909 L673.072 239.983 L677.354 239.983 L677.354 244.011 Q678.697 241.649 680.849 240.515 Q683.002 239.358 686.081 239.358 Q686.521 239.358 687.053 239.427 Q687.585 239.474 688.234 239.589 L688.257 243.964 Z" fill="#000000" fill-rule="nonzero" fill-opacity="1" /><polyline clip-path="url(#clip020)" style="stroke:#c271d2; stroke-linecap:round; stroke-linejoin:round; stroke-width:4; stroke-opacity:1; fill:none" points="300.571,300.469 443.747,300.469 "/>
<path clip-path="url(#clip020)" d="M486.522 304.485 Q486.522 299.855 484.6 297.309 Q482.702 294.763 479.253 294.763 Q475.827 294.763 473.906 297.309 Q472.008 299.855 472.008 304.485 Q472.008 309.091 473.906 311.638 Q475.827 314.184 479.253 314.184 Q482.702 314.184 484.6 311.638 Q486.522 309.091 486.522 304.485 M490.781 314.531 Q490.781 321.151 487.841 324.369 Q484.901 327.61 478.836 327.61 Q476.591 327.61 474.6 327.262 Q472.61 326.938 470.735 326.244 L470.735 322.1 Q472.61 323.119 474.438 323.605 Q476.267 324.091 478.165 324.091 Q482.355 324.091 484.438 321.892 Q486.522 319.716 486.522 315.295 L486.522 313.188 Q485.202 315.48 483.142 316.614 Q481.082 317.749 478.211 317.749 Q473.443 317.749 470.526 314.114 Q467.61 310.48 467.61 304.485 Q467.61 298.466 470.526 294.832 Q473.443 291.198 478.211 291.198 Q481.082 291.198 483.142 292.332 Q485.202 293.466 486.522 295.758 L486.522 291.823 L490.781 291.823 L490.781 314.531 Z" fill="#000000" fill-rule="nonzero" fill-opacity="1" /><path clip-path="url(#clip020)" d="M518.211 292.818 L518.211 296.8 Q516.406 295.804 514.577 295.318 Q512.771 294.809 510.92 294.809 Q506.776 294.809 504.484 297.448 Q502.193 300.064 502.193 304.809 Q502.193 309.554 504.484 312.193 Q506.776 314.809 510.92 314.809 Q512.771 314.809 514.577 314.323 Q516.406 313.813 518.211 312.818 L518.211 316.753 Q516.429 317.587 514.508 318.003 Q512.609 318.42 510.457 318.42 Q504.6 318.42 501.151 314.739 Q497.702 311.059 497.702 304.809 Q497.702 298.466 501.174 294.832 Q504.67 291.198 510.734 291.198 Q512.702 291.198 514.577 291.615 Q516.452 292.008 518.211 292.818 Z" fill="#000000" fill-rule="nonzero" fill-opacity="1" /><path clip-path="url(#clip020)" d="M522.563 291.823 L527.077 291.823 L535.179 313.582 L543.281 291.823 L547.794 291.823 L538.072 317.749 L532.285 317.749 L522.563 291.823 Z" fill="#000000" fill-rule="nonzero" fill-opacity="1" /><path clip-path="url(#clip020)" d="M570.202 292.587 L570.202 296.614 Q568.396 295.689 566.452 295.226 Q564.507 294.763 562.424 294.763 Q559.253 294.763 557.656 295.735 Q556.081 296.707 556.081 298.651 Q556.081 300.133 557.216 300.989 Q558.35 301.823 561.776 302.587 L563.234 302.911 Q567.771 303.883 569.669 305.665 Q571.591 307.425 571.591 310.596 Q571.591 314.207 568.72 316.313 Q565.873 318.42 560.873 318.42 Q558.79 318.42 556.521 318.003 Q554.276 317.61 551.776 316.8 L551.776 312.401 Q554.137 313.628 556.429 314.253 Q558.72 314.855 560.966 314.855 Q563.975 314.855 565.595 313.837 Q567.216 312.795 567.216 310.92 Q567.216 309.184 566.035 308.258 Q564.878 307.332 560.919 306.476 L559.438 306.128 Q555.48 305.295 553.72 303.582 Q551.961 301.846 551.961 298.837 Q551.961 295.179 554.554 293.189 Q557.146 291.198 561.915 291.198 Q564.276 291.198 566.359 291.545 Q568.442 291.892 570.202 292.587 Z" fill="#000000" fill-rule="nonzero" fill-opacity="1" /><path clip-path="url(#clip020)" d="M582.493 313.86 L582.493 327.61 L578.211 327.61 L578.211 291.823 L582.493 291.823 L582.493 295.758 Q583.836 293.443 585.873 292.332 Q587.933 291.198 590.78 291.198 Q595.503 291.198 598.442 294.948 Q601.405 298.698 601.405 304.809 Q601.405 310.92 598.442 314.67 Q595.503 318.42 590.78 318.42 Q587.933 318.42 585.873 317.309 Q583.836 316.175 582.493 313.86 M596.984 304.809 Q596.984 300.11 595.04 297.448 Q593.118 294.763 589.739 294.763 Q586.359 294.763 584.415 297.448 Q582.493 300.11 582.493 304.809 Q582.493 309.508 584.415 312.193 Q586.359 314.855 589.739 314.855 Q593.118 314.855 595.04 312.193 Q596.984 309.508 596.984 304.809 Z" fill="#000000" fill-rule="nonzero" fill-opacity="1" /><path clip-path="url(#clip020)" d="M608.465 281.73 L612.725 281.73 L612.725 317.749 L608.465 317.749 L608.465 281.73 Z" fill="#000000" fill-rule="nonzero" fill-opacity="1" /><path clip-path="url(#clip020)" d="M621.637 291.823 L625.896 291.823 L625.896 317.749 L621.637 317.749 L621.637 291.823 M621.637 281.73 L625.896 281.73 L625.896 287.124 L621.637 287.124 L621.637 281.73 Z" fill="#000000" fill-rule="nonzero" fill-opacity="1" /><path clip-path="url(#clip020)" d="M656.359 302.101 L656.359 317.749 L652.099 317.749 L652.099 302.239 Q652.099 298.559 650.664 296.73 Q649.229 294.902 646.359 294.902 Q642.91 294.902 640.919 297.101 Q638.928 299.3 638.928 303.096 L638.928 317.749 L634.646 317.749 L634.646 291.823 L638.928 291.823 L638.928 295.851 Q640.456 293.513 642.516 292.355 Q644.599 291.198 647.308 291.198 Q651.775 291.198 654.067 293.976 Q656.359 296.73 656.359 302.101 Z" fill="#000000" fill-rule="nonzero" fill-opacity="1" /><path clip-path="url(#clip020)" d="M687.03 303.721 L687.03 305.804 L667.447 305.804 Q667.724 310.202 670.085 312.517 Q672.47 314.809 676.706 314.809 Q679.159 314.809 681.451 314.207 Q683.766 313.605 686.034 312.401 L686.034 316.429 Q683.743 317.401 681.335 317.911 Q678.928 318.42 676.451 318.42 Q670.247 318.42 666.613 314.809 Q663.002 311.198 663.002 305.04 Q663.002 298.675 666.428 294.948 Q669.877 291.198 675.71 291.198 Q680.942 291.198 683.974 294.577 Q687.03 297.934 687.03 303.721 M682.771 302.471 Q682.724 298.976 680.803 296.892 Q678.905 294.809 675.757 294.809 Q672.192 294.809 670.039 296.823 Q667.91 298.837 667.585 302.494 L682.771 302.471 Z" fill="#000000" fill-rule="nonzero" fill-opacity="1" /></svg>
