<?xml version="1.0" encoding="utf-8"?>
<svg xmlns="http://www.w3.org/2000/svg" xmlns:xlink="http://www.w3.org/1999/xlink" width="600" height="400" viewBox="0 0 2400 1600">
<defs>
  <clipPath id="clip710">
    <rect x="0" y="0" width="2400" height="1600"/>
  </clipPath>
</defs>
<path clip-path="url(#clip710)" d="M0 1600 L2400 1600 L2400 0 L0 0  Z" fill="#ffffff" fill-rule="evenodd" fill-opacity="1"/>
<defs>
  <clipPath id="clip711">
    <rect x="112" y="47" width="2242" height="1440"/>
  </clipPath>
</defs>
<path clip-path="url(#clip710)" d="M112.177 1486.45 L2352.76 1486.45 L2352.76 47.2441 L112.177 47.2441  Z" fill="#ffffff" fill-rule="evenodd" fill-opacity="1"/>
<polyline clip-path="url(#clip711)" style="stroke:#000000; stroke-linecap:round; stroke-linejoin:round; stroke-width:2; stroke-opacity:0.1; fill:none" points="175.59,1486.45 175.59,47.2441 "/>
<polyline clip-path="url(#clip711)" style="stroke:#000000; stroke-linecap:round; stroke-linejoin:round; stroke-width:2; stroke-opacity:0.1; fill:none" points="704.028,1486.45 704.028,47.2441 "/>
<polyline clip-path="url(#clip711)" style="stroke:#000000; stroke-linecap:round; stroke-linejoin:round; stroke-width:2; stroke-opacity:0.1; fill:none" points="1232.47,1486.45 1232.47,47.2441 "/>
<polyline clip-path="url(#clip711)" style="stroke:#000000; stroke-linecap:round; stroke-linejoin:round; stroke-width:2; stroke-opacity:0.1; fill:none" points="1760.9,1486.45 1760.9,47.2441 "/>
<polyline clip-path="url(#clip711)" style="stroke:#000000; stroke-linecap:round; stroke-linejoin:round; stroke-width:2; stroke-opacity:0.1; fill:none" points="2289.34,1486.45 2289.34,47.2441 "/>
<polyline clip-path="url(#clip711)" style="stroke:#000000; stroke-linecap:round; stroke-linejoin:round; stroke-width:2; stroke-opacity:0.1; fill:none" points="112.177,1272.65 2352.76,1272.65 "/>
<polyline clip-path="url(#clip711)" style="stroke:#000000; stroke-linecap:round; stroke-linejoin:round; stroke-width:2; stroke-opacity:0.1; fill:none" points="112.177,969.196 2352.76,969.196 "/>
<polyline clip-path="url(#clip711)" style="stroke:#000000; stroke-linecap:round; stroke-linejoin:round; stroke-width:2; stroke-opacity:0.1; fill:none" points="112.177,665.742 2352.76,665.742 "/>
<polyline clip-path="url(#clip711)" style="stroke:#000000; stroke-linecap:round; stroke-linejoin:round; stroke-width:2; stroke-opacity:0.1; fill:none" points="112.177,362.289 2352.76,362.289 "/>
<polyline clip-path="url(#clip711)" style="stroke:#000000; stroke-linecap:round; stroke-linejoin:round; stroke-width:2; stroke-opacity:0.1; fill:none" points="112.177,58.835 2352.76,58.835 "/>
<polyline clip-path="url(#clip710)" style="stroke:#000000; stroke-linecap:round; stroke-linejoin:round; stroke-width:4; stroke-opacity:1; fill:none" points="112.177,1486.45 2352.76,1486.45 "/>
<polyline clip-path="url(#clip710)" style="stroke:#000000; stroke-linecap:round; stroke-linejoin:round; stroke-width:4; stroke-opacity:1; fill:none" points="175.59,1486.45 175.59,1467.55 "/>
<polyline clip-path="url(#clip710)" style="stroke:#000000; stroke-linecap:round; stroke-linejoin:round; stroke-width:4; stroke-opacity:1; fill:none" points="704.028,1486.45 704.028,1467.55 "/>
<polyline clip-path="url(#clip710)" style="stroke:#000000; stroke-linecap:round; stroke-linejoin:round; stroke-width:4; stroke-opacity:1; fill:none" points="1232.47,1486.45 1232.47,1467.55 "/>
<polyline clip-path="url(#clip710)" style="stroke:#000000; stroke-linecap:round; stroke-linejoin:round; stroke-width:4; stroke-opacity:1; fill:none" points="1760.9,1486.45 1760.9,1467.55 "/>
<polyline clip-path="url(#clip710)" style="stroke:#000000; stroke-linecap:round; stroke-linejoin:round; stroke-width:4; stroke-opacity:1; fill:none" points="2289.34,1486.45 2289.34,1467.55 "/>
<path clip-path="url(#clip710)" d="M175.59 1517.37 Q171.979 1517.37 170.15 1520.93 Q168.344 1524.47 168.344 1531.6 Q168.344 1538.71 170.15 1542.27 Q171.979 1545.82 175.59 1545.82 Q179.224 1545.82 181.03 1542.27 Q182.858 1538.71 182.858 1531.6 Q182.858 1524.47 181.03 1520.93 Q179.224 1517.37 175.59 1517.37 M175.59 1513.66 Q181.4 1513.66 184.455 1518.27 Q187.534 1522.85 187.534 1531.6 Q187.534 1540.33 184.455 1544.94 Q181.4 1549.52 175.59 1549.52 Q169.78 1549.52 166.701 1544.94 Q163.645 1540.33 163.645 1531.6 Q163.645 1522.85 166.701 1518.27 Q169.78 1513.66 175.59 1513.66 Z" fill="#000000" fill-rule="nonzero" fill-opacity="1" /><path clip-path="url(#clip710)" d="M683.299 1544.91 L699.618 1544.91 L699.618 1548.85 L677.674 1548.85 L677.674 1544.91 Q680.336 1542.16 684.919 1537.53 Q689.526 1532.88 690.706 1531.53 Q692.952 1529.01 693.831 1527.27 Q694.734 1525.51 694.734 1523.82 Q694.734 1521.07 692.79 1519.33 Q690.869 1517.6 687.767 1517.6 Q685.568 1517.6 683.114 1518.36 Q680.683 1519.13 677.906 1520.68 L677.906 1515.95 Q680.73 1514.82 683.183 1514.24 Q685.637 1513.66 687.674 1513.66 Q693.044 1513.66 696.239 1516.35 Q699.433 1519.03 699.433 1523.52 Q699.433 1525.65 698.623 1527.57 Q697.836 1529.47 695.73 1532.07 Q695.151 1532.74 692.049 1535.95 Q688.947 1539.15 683.299 1544.91 Z" fill="#000000" fill-rule="nonzero" fill-opacity="1" /><path clip-path="url(#clip710)" d="M709.48 1514.29 L727.836 1514.29 L727.836 1518.22 L713.762 1518.22 L713.762 1526.7 Q714.78 1526.35 715.799 1526.19 Q716.817 1526 717.836 1526 Q723.623 1526 727.003 1529.17 Q730.382 1532.34 730.382 1537.76 Q730.382 1543.34 726.91 1546.44 Q723.438 1549.52 717.118 1549.52 Q714.942 1549.52 712.674 1549.15 Q710.429 1548.78 708.021 1548.04 L708.021 1543.34 Q710.105 1544.47 712.327 1545.03 Q714.549 1545.58 717.026 1545.58 Q721.03 1545.58 723.368 1543.48 Q725.706 1541.37 725.706 1537.76 Q725.706 1534.15 723.368 1532.04 Q721.03 1529.94 717.026 1529.94 Q715.151 1529.94 713.276 1530.35 Q711.424 1530.77 709.48 1531.65 L709.48 1514.29 Z" fill="#000000" fill-rule="nonzero" fill-opacity="1" /><path clip-path="url(#clip710)" d="M1207.17 1514.29 L1225.52 1514.29 L1225.52 1518.22 L1211.45 1518.22 L1211.45 1526.7 Q1212.47 1526.35 1213.49 1526.19 Q1214.5 1526 1215.52 1526 Q1221.31 1526 1224.69 1529.17 Q1228.07 1532.34 1228.07 1537.76 Q1228.07 1543.34 1224.6 1546.44 Q1221.12 1549.52 1214.8 1549.52 Q1212.63 1549.52 1210.36 1549.15 Q1208.11 1548.78 1205.71 1548.04 L1205.71 1543.34 Q1207.79 1544.47 1210.01 1545.03 Q1212.24 1545.58 1214.71 1545.58 Q1218.72 1545.58 1221.05 1543.48 Q1223.39 1541.37 1223.39 1537.76 Q1223.39 1534.15 1221.05 1532.04 Q1218.72 1529.94 1214.71 1529.94 Q1212.84 1529.94 1210.96 1530.35 Q1209.11 1530.77 1207.17 1531.65 L1207.17 1514.29 Z" fill="#000000" fill-rule="nonzero" fill-opacity="1" /><path clip-path="url(#clip710)" d="M1247.28 1517.37 Q1243.67 1517.37 1241.84 1520.93 Q1240.04 1524.47 1240.04 1531.6 Q1240.04 1538.71 1241.84 1542.27 Q1243.67 1545.82 1247.28 1545.82 Q1250.92 1545.82 1252.72 1542.27 Q1254.55 1538.71 1254.55 1531.6 Q1254.55 1524.47 1252.72 1520.93 Q1250.92 1517.37 1247.28 1517.37 M1247.28 1513.66 Q1253.09 1513.66 1256.15 1518.27 Q1259.23 1522.85 1259.23 1531.6 Q1259.23 1540.33 1256.15 1544.94 Q1253.09 1549.52 1247.28 1549.52 Q1241.47 1549.52 1238.39 1544.94 Q1235.34 1540.33 1235.34 1531.6 Q1235.34 1522.85 1238.39 1518.27 Q1241.47 1513.66 1247.28 1513.66 Z" fill="#000000" fill-rule="nonzero" fill-opacity="1" /><path clip-path="url(#clip710)" d="M1734.76 1514.29 L1756.98 1514.29 L1756.98 1516.28 L1744.44 1548.85 L1739.55 1548.85 L1751.36 1518.22 L1734.76 1518.22 L1734.76 1514.29 Z" fill="#000000" fill-rule="nonzero" fill-opacity="1" /><path clip-path="url(#clip710)" d="M1766.15 1514.29 L1784.5 1514.29 L1784.5 1518.22 L1770.43 1518.22 L1770.43 1526.7 Q1771.45 1526.35 1772.47 1526.19 Q1773.49 1526 1774.5 1526 Q1780.29 1526 1783.67 1529.17 Q1787.05 1532.34 1787.05 1537.76 Q1787.05 1543.34 1783.58 1546.44 Q1780.11 1549.52 1773.79 1549.52 Q1771.61 1549.52 1769.34 1549.15 Q1767.1 1548.78 1764.69 1548.04 L1764.69 1543.34 Q1766.77 1544.47 1769 1545.03 Q1771.22 1545.58 1773.69 1545.58 Q1777.7 1545.58 1780.04 1543.48 Q1782.37 1541.37 1782.37 1537.76 Q1782.37 1534.15 1780.04 1532.04 Q1777.7 1529.94 1773.69 1529.94 Q1771.82 1529.94 1769.94 1530.35 Q1768.09 1530.77 1766.15 1531.65 L1766.15 1514.29 Z" fill="#000000" fill-rule="nonzero" fill-opacity="1" /><path clip-path="url(#clip710)" d="M2248.95 1544.91 L2256.59 1544.91 L2256.59 1518.55 L2248.28 1520.21 L2248.28 1515.95 L2256.54 1514.29 L2261.22 1514.29 L2261.22 1544.91 L2268.86 1544.91 L2268.86 1548.85 L2248.95 1548.85 L2248.95 1544.91 Z" fill="#000000" fill-rule="nonzero" fill-opacity="1" /><path clip-path="url(#clip710)" d="M2288.3 1517.37 Q2284.69 1517.37 2282.86 1520.93 Q2281.06 1524.47 2281.06 1531.6 Q2281.06 1538.71 2282.86 1542.27 Q2284.69 1545.82 2288.3 1545.82 Q2291.94 1545.82 2293.74 1542.27 Q2295.57 1538.71 2295.57 1531.6 Q2295.57 1524.47 2293.74 1520.93 Q2291.94 1517.37 2288.3 1517.37 M2288.3 1513.66 Q2294.11 1513.66 2297.17 1518.27 Q2300.25 1522.85 2300.25 1531.6 Q2300.25 1540.33 2297.17 1544.94 Q2294.11 1549.52 2288.3 1549.52 Q2282.49 1549.52 2279.41 1544.94 Q2276.36 1540.33 2276.36 1531.6 Q2276.36 1522.85 2279.41 1518.27 Q2282.49 1513.66 2288.3 1513.66 Z" fill="#000000" fill-rule="nonzero" fill-opacity="1" /><path clip-path="url(#clip710)" d="M2318.46 1517.37 Q2314.85 1517.37 2313.02 1520.93 Q2311.22 1524.47 2311.22 1531.6 Q2311.22 1538.71 2313.02 1542.27 Q2314.85 1545.82 2318.46 1545.82 Q2322.1 1545.82 2323.9 1542.27 Q2325.73 1538.71 2325.73 1531.6 Q2325.73 1524.47 2323.9 1520.93 Q2322.1 1517.37 2318.46 1517.37 M2318.46 1513.66 Q2324.27 1513.66 2327.33 1518.27 Q2330.41 1522.85 2330.41 1531.6 Q2330.41 1540.33 2327.33 1544.94 Q2324.27 1549.52 2318.46 1549.52 Q2312.65 1549.52 2309.57 1544.94 Q2306.52 1540.33 2306.52 1531.6 Q2306.52 1522.85 2309.57 1518.27 Q2312.65 1513.66 2318.46 1513.66 Z" fill="#000000" fill-rule="nonzero" fill-opacity="1" /><polyline clip-path="url(#clip710)" style="stroke:#000000; stroke-linecap:round; stroke-linejoin:round; stroke-width:4; stroke-opacity:1; fill:none" points="112.177,1486.45 112.177,47.2441 "/>
<polyline clip-path="url(#clip710)" style="stroke:#000000; stroke-linecap:round; stroke-linejoin:round; stroke-width:4; stroke-opacity:1; fill:none" points="112.177,1272.65 131.075,1272.65 "/>
<polyline clip-path="url(#clip710)" style="stroke:#000000; stroke-linecap:round; stroke-linejoin:round; stroke-width:4; stroke-opacity:1; fill:none" points="112.177,969.196 131.075,969.196 "/>
<polyline clip-path="url(#clip710)" style="stroke:#000000; stroke-linecap:round; stroke-linejoin:round; stroke-width:4; stroke-opacity:1; fill:none" points="112.177,665.742 131.075,665.742 "/>
<polyline clip-path="url(#clip710)" style="stroke:#000000; stroke-linecap:round; stroke-linejoin:round; stroke-width:4; stroke-opacity:1; fill:none" points="112.177,362.289 131.075,362.289 "/>
<polyline clip-path="url(#clip710)" style="stroke:#000000; stroke-linecap:round; stroke-linejoin:round; stroke-width:4; stroke-opacity:1; fill:none" points="112.177,58.835 131.075,58.835 "/>
<path clip-path="url(#clip710)" d="M64.2328 1258.45 Q60.6217 1258.45 58.793 1262.01 Q56.9875 1265.55 56.9875 1272.68 Q56.9875 1279.79 58.793 1283.36 Q60.6217 1286.9 64.2328 1286.9 Q67.867 1286.9 69.6726 1283.36 Q71.5013 1279.79 71.5013 1272.68 Q71.5013 1265.55 69.6726 1262.01 Q67.867 1258.45 64.2328 1258.45 M64.2328 1254.74 Q70.0429 1254.74 73.0985 1259.35 Q76.1772 1263.93 76.1772 1272.68 Q76.1772 1281.41 73.0985 1286.02 Q70.0429 1290.6 64.2328 1290.6 Q58.4226 1290.6 55.344 1286.02 Q52.2884 1281.41 52.2884 1272.68 Q52.2884 1263.93 55.344 1259.35 Q58.4226 1254.74 64.2328 1254.74 Z" fill="#000000" fill-rule="nonzero" fill-opacity="1" /><path clip-path="url(#clip710)" d="M56.2699 982.541 L63.9087 982.541 L63.9087 956.175 L55.5986 957.842 L55.5986 953.583 L63.8624 951.916 L68.5383 951.916 L68.5383 982.541 L76.1772 982.541 L76.1772 986.476 L56.2699 986.476 L56.2699 982.541 Z" fill="#000000" fill-rule="nonzero" fill-opacity="1" /><path clip-path="url(#clip710)" d="M59.8578 679.087 L76.1772 679.087 L76.1772 683.022 L54.2328 683.022 L54.2328 679.087 Q56.8949 676.332 61.4782 671.703 Q66.0846 667.05 67.2652 665.708 Q69.5105 663.184 70.3902 661.448 Q71.2929 659.689 71.2929 657.999 Q71.2929 655.245 69.3485 653.508 Q67.4272 651.772 64.3254 651.772 Q62.1263 651.772 59.6726 652.536 Q57.2421 653.3 54.4643 654.851 L54.4643 650.129 Q57.2884 648.995 59.7421 648.416 Q62.1958 647.837 64.2328 647.837 Q69.6031 647.837 72.7976 650.522 Q75.992 653.208 75.992 657.698 Q75.992 659.828 75.1818 661.749 Q74.3948 663.647 72.2883 666.24 Q71.7096 666.911 68.6078 670.129 Q65.5059 673.323 59.8578 679.087 Z" fill="#000000" fill-rule="nonzero" fill-opacity="1" /><path clip-path="url(#clip710)" d="M69.0476 360.934 Q72.404 361.652 74.279 363.921 Q76.1772 366.189 76.1772 369.522 Q76.1772 374.638 72.6587 377.439 Q69.1402 380.24 62.6587 380.24 Q60.4828 380.24 58.168 379.8 Q55.8764 379.383 53.4227 378.527 L53.4227 374.013 Q55.3671 375.147 57.6819 375.726 Q59.9967 376.305 62.5198 376.305 Q66.918 376.305 69.2096 374.569 Q71.5244 372.833 71.5244 369.522 Q71.5244 366.467 69.3717 364.754 Q67.242 363.018 63.4226 363.018 L59.3949 363.018 L59.3949 359.175 L63.6078 359.175 Q67.0569 359.175 68.8855 357.809 Q70.7142 356.421 70.7142 353.828 Q70.7142 351.166 68.8161 349.754 Q66.9411 348.319 63.4226 348.319 Q61.5013 348.319 59.3023 348.735 Q57.1032 349.152 54.4643 350.032 L54.4643 345.865 Q57.1264 345.124 59.4412 344.754 Q61.7791 344.384 63.8393 344.384 Q69.1633 344.384 72.2652 346.814 Q75.367 349.222 75.367 353.342 Q75.367 356.212 73.7235 358.203 Q72.08 360.171 69.0476 360.934 Z" fill="#000000" fill-rule="nonzero" fill-opacity="1" /><path clip-path="url(#clip710)" d="M66.5939 45.629 L54.7884 64.078 L66.5939 64.078 L66.5939 45.629 M65.367 41.555 L71.2466 41.555 L71.2466 64.078 L76.1772 64.078 L76.1772 67.9669 L71.2466 67.9669 L71.2466 76.115 L66.5939 76.115 L66.5939 67.9669 L50.9921 67.9669 L50.9921 63.453 L65.367 41.555 Z" fill="#000000" fill-rule="nonzero" fill-opacity="1" /><polyline clip-path="url(#clip711)" style="stroke:#000000; stroke-linecap:round; stroke-linejoin:round; stroke-width:8; stroke-opacity:1; fill:none" points="175.59,1445.72 186.159,1437.88 196.727,1430.04 207.296,1422.19 217.865,1414.34 228.434,1406.48 239.002,1398.59 249.571,1390.67 260.14,1382.71 270.709,1374.68 281.277,1366.59 291.846,1358.41 302.415,1350.12 312.984,1341.69 323.553,1333.12 334.121,1324.37 344.69,1315.43 355.259,1306.26 365.828,1296.85 376.396,1287.17 386.965,1277.2 397.534,1266.91 408.103,1256.28 418.671,1245.29 429.24,1233.89 439.809,1222.08 450.378,1209.82 460.947,1197.09 471.515,1183.87 482.084,1170.13 492.653,1155.84 503.222,1141 513.79,1125.56 524.359,1109.52 534.928,1092.85 545.497,1075.55 556.065,1057.6 566.634,1038.98 577.203,1019.7 587.772,999.739 598.34,979.105 608.909,957.796 619.478,935.816 630.047,913.168 640.616,889.858 651.184,865.9 661.753,841.307 672.322,816.101 682.891,790.304 693.459,763.942 704.028,737.05 714.597,709.67 725.166,681.848 735.734,653.636 746.303,625.095 756.872,596.29 767.441,567.29 778.01,538.171 788.578,509.017 799.147,479.918 809.716,450.97 820.285,422.275 830.853,393.945 841.422,366.096 851.991,338.847 862.56,312.324 873.128,286.653 883.697,261.966 894.266,238.397 904.835,216.082 915.404,195.157 925.972,175.755 936.541,158.006 947.11,142.032 957.679,127.948 968.247,115.856 978.816,105.848 989.385,98.0019 999.954,92.3806 1010.52,89.0291 1021.09,87.9763 1031.66,89.2321 1042.23,92.7841 1052.8,98.6037 1063.37,106.645 1073.94,116.847 1084.5,129.134 1095.07,143.413 1105.64,159.581 1116.21,177.523 1126.78,197.114 1137.35,218.224 1147.92,240.72 1158.49,264.463 1169.05,289.319 1179.62,315.15 1190.19,341.824 1200.76,369.209 1211.33,397.179 1221.9,425.613 1232.47,454.392 1243.04,483.401 1253.6,512.533 1264.17,541.687 1274.74,570.768 1285.31,599.69 1295.88,628.37 1306.45,656.732 1317.02,684.708 1327.59,712.236 1338.15,739.261 1348.72,765.736 1359.29,791.619 1369.86,816.87 1380.43,841.458 1391,865.355 1401.57,888.54 1412.14,910.993 1422.7,932.7 1433.27,953.649 1443.84,973.831 1454.41,993.246 1464.98,1011.89 1475.55,1029.78 1486.12,1046.92 1496.69,1063.31 1507.25,1078.98 1517.82,1093.93 1528.39,1108.16 1538.96,1121.71 1549.53,1134.57 1560.1,1146.77 1570.67,1158.33 1581.24,1169.26 1591.8,1179.58 1602.37,1189.32 1612.94,1198.51 1623.51,1207.15 1634.08,1215.28 1644.65,1222.91 1655.22,1230.06 1665.79,1236.76 1676.35,1243.02 1686.92,1248.86 1697.49,1254.31 1708.06,1259.38 1718.63,1264.08 1729.2,1268.44 1739.77,1272.47 1750.34,1276.2 1760.9,1279.62 1771.47,1282.77 1782.04,1285.65 1792.61,1288.29 1803.18,1290.69 1813.75,1292.88 1824.32,1294.85 1834.89,1296.62 1845.46,1298.18 1856.02,1299.56 1866.59,1300.75 1877.16,1301.76 1887.73,1302.61 1898.3,1303.3 1908.87,1303.85 1919.44,1304.25 1930.01,1304.52 1940.57,1304.67 1951.14,1304.7 1961.71,1304.62 1972.28,1304.43 1982.85,1304.14 1993.42,1303.75 2003.99,1303.27 2014.56,1302.71 2025.12,1302.06 2035.69,1301.35 2046.26,1300.56 2056.83,1299.7 2067.4,1298.79 2077.97,1297.81 2088.54,1296.78 2099.11,1295.7 2109.67,1294.57 2120.24,1293.39 2130.81,1292.17 2141.38,1290.9 2151.95,1289.6 2162.52,1288.26 2173.09,1286.89 2183.66,1285.49 2194.22,1284.06 2204.79,1282.61 2215.36,1281.15 2225.93,1279.67 2236.5,1278.18 2247.07,1276.68 2257.64,1275.18 2268.21,1273.68 2278.77,1272.17 2289.34,1270.66 "/>
<polyline clip-path="url(#clip711)" style="stroke:#0000ff; stroke-linecap:round; stroke-linejoin:round; stroke-width:4; stroke-opacity:1; fill:none" points="1021.09,1304.7 1021.09,87.9763 "/>
<polyline clip-path="url(#clip711)" style="stroke:#0000ff; stroke-linecap:round; stroke-linejoin:round; stroke-width:4; stroke-opacity:0.5; fill:none" stroke-dasharray="16, 10" points="1021.09,1304.7 1951.14,1304.7 "/>
<polyline clip-path="url(#clip711)" style="stroke:#808080; stroke-linecap:round; stroke-linejoin:round; stroke-width:4; stroke-opacity:1; fill:none" stroke-dasharray="16, 10" points="719.66,696.341 1321.48,696.341 "/>
<circle clip-path="url(#clip711)" cx="719.66" cy="696.341" r="14.4" fill="#808080" fill-rule="evenodd" fill-opacity="1" stroke="#000000" stroke-opacity="1" stroke-width="3.2"/>
<circle clip-path="url(#clip711)" cx="1321.48" cy="696.341" r="14.4" fill="#808080" fill-rule="evenodd" fill-opacity="1" stroke="#000000" stroke-opacity="1" stroke-width="3.2"/>
<circle clip-path="url(#clip711)" cx="1021.09" cy="87.9763" r="14.4" fill="#ff0000" fill-rule="evenodd" fill-opacity="1" stroke="#000000" stroke-opacity="1" stroke-width="3.2"/>
<path clip-path="url(#clip710)" d="M1779.45 354.418 L2278.07 354.418 L2278.07 95.2176 L1779.45 95.2176  Z" fill="#ffffff" fill-rule="evenodd" fill-opacity="1"/>
<polyline clip-path="url(#clip710)" style="stroke:#000000; stroke-linecap:round; stroke-linejoin:round; stroke-width:4; stroke-opacity:1; fill:none" points="1779.45,354.418 2278.07,354.418 2278.07,95.2176 1779.45,95.2176 1779.45,354.418 "/>
<polyline clip-path="url(#clip710)" style="stroke:#000000; stroke-linecap:round; stroke-linejoin:round; stroke-width:8; stroke-opacity:1; fill:none" points="1804.35,147.058 1953.72,147.058 "/>
<path clip-path="url(#clip710)" d="M1997.04 139.176 L1997.04 143.203 Q1995.24 142.277 1993.29 141.815 Q1991.35 141.352 1989.26 141.352 Q1986.09 141.352 1984.5 142.324 Q1982.92 143.296 1982.92 145.24 Q1982.92 146.722 1984.06 147.578 Q1985.19 148.412 1988.62 149.176 L1990.07 149.5 Q1994.61 150.472 1996.51 152.254 Q1998.43 154.014 1998.43 157.185 Q1998.43 160.796 1995.56 162.902 Q1992.71 165.009 1987.71 165.009 Q1985.63 165.009 1983.36 164.592 Q1981.12 164.199 1978.62 163.388 L1978.62 158.99 Q1980.98 160.217 1983.27 160.842 Q1985.56 161.444 1987.81 161.444 Q1990.81 161.444 1992.44 160.426 Q1994.06 159.384 1994.06 157.509 Q1994.06 155.773 1992.88 154.847 Q1991.72 153.921 1987.76 153.064 L1986.28 152.717 Q1982.32 151.884 1980.56 150.171 Q1978.8 148.435 1978.8 145.426 Q1978.8 141.768 1981.39 139.778 Q1983.99 137.787 1988.75 137.787 Q1991.12 137.787 1993.2 138.134 Q1995.28 138.481 1997.04 139.176 Z" fill="#000000" fill-rule="nonzero" fill-opacity="1" /><path clip-path="url(#clip710)" d="M2005.21 138.412 L2009.47 138.412 L2009.47 164.338 L2005.21 164.338 L2005.21 138.412 M2005.21 128.319 L2009.47 128.319 L2009.47 133.713 L2005.21 133.713 L2005.21 128.319 Z" fill="#000000" fill-rule="nonzero" fill-opacity="1" /><path clip-path="url(#clip710)" d="M2035.44 151.074 Q2035.44 146.444 2033.52 143.898 Q2031.62 141.352 2028.18 141.352 Q2024.75 141.352 2022.83 143.898 Q2020.93 146.444 2020.93 151.074 Q2020.93 155.68 2022.83 158.226 Q2024.75 160.773 2028.18 160.773 Q2031.62 160.773 2033.52 158.226 Q2035.44 155.68 2035.44 151.074 M2039.7 161.12 Q2039.7 167.74 2036.76 170.958 Q2033.82 174.199 2027.76 174.199 Q2025.51 174.199 2023.52 173.851 Q2021.53 173.527 2019.66 172.833 L2019.66 168.689 Q2021.53 169.708 2023.36 170.194 Q2025.19 170.68 2027.09 170.68 Q2031.28 170.68 2033.36 168.481 Q2035.44 166.305 2035.44 161.884 L2035.44 159.777 Q2034.12 162.069 2032.06 163.203 Q2030 164.338 2027.13 164.338 Q2022.37 164.338 2019.45 160.703 Q2016.53 157.069 2016.53 151.074 Q2016.53 145.055 2019.45 141.421 Q2022.37 137.787 2027.13 137.787 Q2030 137.787 2032.06 138.921 Q2034.12 140.055 2035.44 142.347 L2035.44 138.412 L2039.7 138.412 L2039.7 161.12 Z" fill="#000000" fill-rule="nonzero" fill-opacity="1" /><path clip-path="url(#clip710)" d="M2070.03 148.689 L2070.03 164.338 L2065.77 164.338 L2065.77 148.828 Q2065.77 145.148 2064.33 143.319 Q2062.9 141.49 2060.03 141.49 Q2056.58 141.49 2054.59 143.69 Q2052.6 145.889 2052.6 149.685 L2052.6 164.338 L2048.31 164.338 L2048.31 138.412 L2052.6 138.412 L2052.6 142.44 Q2054.12 140.102 2056.18 138.944 Q2058.27 137.787 2060.98 137.787 Q2065.44 137.787 2067.74 140.565 Q2070.03 143.319 2070.03 148.689 Z" fill="#000000" fill-rule="nonzero" fill-opacity="1" /><path clip-path="url(#clip710)" d="M2090.31 151.305 Q2085.14 151.305 2083.15 152.486 Q2081.16 153.666 2081.16 156.514 Q2081.16 158.782 2082.64 160.125 Q2084.15 161.444 2086.72 161.444 Q2090.26 161.444 2092.39 158.944 Q2094.54 156.421 2094.54 152.254 L2094.54 151.305 L2090.31 151.305 M2098.8 149.546 L2098.8 164.338 L2094.54 164.338 L2094.54 160.402 Q2093.08 162.763 2090.91 163.898 Q2088.73 165.009 2085.58 165.009 Q2081.6 165.009 2079.24 162.787 Q2076.9 160.541 2076.9 156.791 Q2076.9 152.416 2079.82 150.194 Q2082.76 147.972 2088.57 147.972 L2094.54 147.972 L2094.54 147.555 Q2094.54 144.615 2092.6 143.018 Q2090.68 141.398 2087.18 141.398 Q2084.96 141.398 2082.85 141.93 Q2080.74 142.463 2078.8 143.527 L2078.8 139.592 Q2081.14 138.69 2083.34 138.25 Q2085.54 137.787 2087.62 137.787 Q2093.24 137.787 2096.02 140.703 Q2098.8 143.62 2098.8 149.546 Z" fill="#000000" fill-rule="nonzero" fill-opacity="1" /><path clip-path="url(#clip710)" d="M2107.57 128.319 L2111.83 128.319 L2111.83 164.338 L2107.57 164.338 L2107.57 128.319 Z" fill="#000000" fill-rule="nonzero" fill-opacity="1" /><polyline clip-path="url(#clip710)" style="stroke:#0000ff; stroke-linecap:round; stroke-linejoin:round; stroke-width:4; stroke-opacity:1; fill:none" points="1804.35,198.898 1953.72,198.898 "/>
<path clip-path="url(#clip710)" d="M1982.9 212.289 L1982.9 226.039 L1978.62 226.039 L1978.62 190.252 L1982.9 190.252 L1982.9 194.187 Q1984.24 191.872 1986.28 190.761 Q1988.34 189.627 1991.19 189.627 Q1995.91 189.627 1998.85 193.377 Q2001.81 197.127 2001.81 203.238 Q2001.81 209.349 1998.85 213.099 Q1995.91 216.849 1991.19 216.849 Q1988.34 216.849 1986.28 215.738 Q1984.24 214.603 1982.9 212.289 M1997.39 203.238 Q1997.39 198.539 1995.44 195.877 Q1993.52 193.192 1990.14 193.192 Q1986.76 193.192 1984.82 195.877 Q1982.9 198.539 1982.9 203.238 Q1982.9 207.937 1984.82 210.622 Q1986.76 213.284 1990.14 213.284 Q1993.52 213.284 1995.44 210.622 Q1997.39 207.937 1997.39 203.238 Z" fill="#000000" fill-rule="nonzero" fill-opacity="1" /><path clip-path="url(#clip710)" d="M2023.89 194.233 Q2023.18 193.817 2022.32 193.631 Q2021.49 193.423 2020.47 193.423 Q2016.86 193.423 2014.91 195.784 Q2012.99 198.122 2012.99 202.52 L2012.99 216.178 L2008.71 216.178 L2008.71 190.252 L2012.99 190.252 L2012.99 194.28 Q2014.33 191.918 2016.49 190.784 Q2018.64 189.627 2021.72 189.627 Q2022.16 189.627 2022.69 189.696 Q2023.22 189.743 2023.87 189.858 L2023.89 194.233 Z" fill="#000000" fill-rule="nonzero" fill-opacity="1" /><path clip-path="url(#clip710)" d="M2037.37 193.238 Q2033.94 193.238 2031.95 195.923 Q2029.96 198.585 2029.96 203.238 Q2029.96 207.891 2031.93 210.576 Q2033.92 213.238 2037.37 213.238 Q2040.77 213.238 2042.76 210.553 Q2044.75 207.867 2044.75 203.238 Q2044.75 198.631 2042.76 195.946 Q2040.77 193.238 2037.37 193.238 M2037.37 189.627 Q2042.92 189.627 2046.09 193.238 Q2049.26 196.849 2049.26 203.238 Q2049.26 209.604 2046.09 213.238 Q2042.92 216.849 2037.37 216.849 Q2031.79 216.849 2028.62 213.238 Q2025.47 209.604 2025.47 203.238 Q2025.47 196.849 2028.62 193.238 Q2031.79 189.627 2037.37 189.627 Z" fill="#000000" fill-rule="nonzero" fill-opacity="1" /><path clip-path="url(#clip710)" d="M2076.51 195.229 Q2078.11 192.358 2080.33 190.993 Q2082.55 189.627 2085.56 189.627 Q2089.61 189.627 2091.81 192.474 Q2094.01 195.298 2094.01 200.529 L2094.01 216.178 L2089.73 216.178 L2089.73 200.668 Q2089.73 196.942 2088.41 195.136 Q2087.09 193.33 2084.38 193.33 Q2081.07 193.33 2079.15 195.53 Q2077.23 197.729 2077.23 201.525 L2077.23 216.178 L2072.94 216.178 L2072.94 200.668 Q2072.94 196.918 2071.62 195.136 Q2070.31 193.33 2067.55 193.33 Q2064.29 193.33 2062.37 195.553 Q2060.44 197.752 2060.44 201.525 L2060.44 216.178 L2056.16 216.178 L2056.16 190.252 L2060.44 190.252 L2060.44 194.28 Q2061.9 191.895 2063.94 190.761 Q2065.98 189.627 2068.78 189.627 Q2071.6 189.627 2073.57 191.062 Q2075.56 192.497 2076.51 195.229 Z" fill="#000000" fill-rule="nonzero" fill-opacity="1" /><path clip-path="url(#clip710)" d="M2102.5 190.252 L2106.76 190.252 L2106.76 216.178 L2102.5 216.178 L2102.5 190.252 M2102.5 180.159 L2106.76 180.159 L2106.76 185.553 L2102.5 185.553 L2102.5 180.159 Z" fill="#000000" fill-rule="nonzero" fill-opacity="1" /><path clip-path="url(#clip710)" d="M2137.23 200.529 L2137.23 216.178 L2132.97 216.178 L2132.97 200.668 Q2132.97 196.988 2131.53 195.159 Q2130.1 193.33 2127.23 193.33 Q2123.78 193.33 2121.79 195.53 Q2119.8 197.729 2119.8 201.525 L2119.8 216.178 L2115.51 216.178 L2115.51 190.252 L2119.8 190.252 L2119.8 194.28 Q2121.32 191.942 2123.38 190.784 Q2125.47 189.627 2128.18 189.627 Q2132.64 189.627 2134.93 192.405 Q2137.23 195.159 2137.23 200.529 Z" fill="#000000" fill-rule="nonzero" fill-opacity="1" /><path clip-path="url(#clip710)" d="M2167.9 202.15 L2167.9 204.233 L2148.31 204.233 Q2148.59 208.631 2150.95 210.946 Q2153.34 213.238 2157.57 213.238 Q2160.03 213.238 2162.32 212.636 Q2164.63 212.034 2166.9 210.83 L2166.9 214.858 Q2164.61 215.83 2162.2 216.34 Q2159.8 216.849 2157.32 216.849 Q2151.11 216.849 2147.48 213.238 Q2143.87 209.627 2143.87 203.469 Q2143.87 197.104 2147.3 193.377 Q2150.74 189.627 2156.58 189.627 Q2161.81 189.627 2164.84 193.006 Q2167.9 196.363 2167.9 202.15 M2163.64 200.9 Q2163.59 197.405 2161.67 195.321 Q2159.77 193.238 2156.62 193.238 Q2153.06 193.238 2150.91 195.252 Q2148.78 197.266 2148.45 200.923 L2163.64 200.9 Z" fill="#000000" fill-rule="nonzero" fill-opacity="1" /><path clip-path="url(#clip710)" d="M2196.44 200.529 L2196.44 216.178 L2192.18 216.178 L2192.18 200.668 Q2192.18 196.988 2190.74 195.159 Q2189.31 193.33 2186.44 193.33 Q2182.99 193.33 2181 195.53 Q2179.01 197.729 2179.01 201.525 L2179.01 216.178 L2174.73 216.178 L2174.73 190.252 L2179.01 190.252 L2179.01 194.28 Q2180.54 191.942 2182.6 190.784 Q2184.68 189.627 2187.39 189.627 Q2191.86 189.627 2194.15 192.405 Q2196.44 195.159 2196.44 200.529 Z" fill="#000000" fill-rule="nonzero" fill-opacity="1" /><path clip-path="url(#clip710)" d="M2223.59 191.247 L2223.59 195.229 Q2221.79 194.233 2219.96 193.747 Q2218.15 193.238 2216.3 193.238 Q2212.16 193.238 2209.86 195.877 Q2207.57 198.492 2207.57 203.238 Q2207.57 207.983 2209.86 210.622 Q2212.16 213.238 2216.3 213.238 Q2218.15 213.238 2219.96 212.752 Q2221.79 212.242 2223.59 211.247 L2223.59 215.182 Q2221.81 216.016 2219.89 216.432 Q2217.99 216.849 2215.84 216.849 Q2209.98 216.849 2206.53 213.168 Q2203.08 209.488 2203.08 203.238 Q2203.08 196.895 2206.55 193.261 Q2210.05 189.627 2216.11 189.627 Q2218.08 189.627 2219.96 190.043 Q2221.83 190.437 2223.59 191.247 Z" fill="#000000" fill-rule="nonzero" fill-opacity="1" /><path clip-path="url(#clip710)" d="M2253.17 202.15 L2253.17 204.233 L2233.59 204.233 Q2233.87 208.631 2236.23 210.946 Q2238.61 213.238 2242.85 213.238 Q2245.3 213.238 2247.6 212.636 Q2249.91 212.034 2252.18 210.83 L2252.18 214.858 Q2249.89 215.83 2247.48 216.34 Q2245.07 216.849 2242.6 216.849 Q2236.39 216.849 2232.76 213.238 Q2229.15 209.627 2229.15 203.469 Q2229.15 197.104 2232.57 193.377 Q2236.02 189.627 2241.86 189.627 Q2247.09 189.627 2250.12 193.006 Q2253.17 196.363 2253.17 202.15 M2248.92 200.9 Q2248.87 197.405 2246.95 195.321 Q2245.05 193.238 2241.9 193.238 Q2238.34 193.238 2236.18 195.252 Q2234.05 197.266 2233.73 200.923 L2248.92 200.9 Z" fill="#000000" fill-rule="nonzero" fill-opacity="1" /><polyline clip-path="url(#clip710)" style="stroke:#808080; stroke-linecap:round; stroke-linejoin:round; stroke-width:4; stroke-opacity:1; fill:none" stroke-dasharray="16, 10" points="1804.35,250.738 1953.72,250.738 "/>
<path clip-path="url(#clip710)" d="M1978.62 242.092 L1982.88 242.092 L1988.2 262.323 L1993.5 242.092 L1998.52 242.092 L2003.85 262.323 L2009.15 242.092 L2013.41 242.092 L2006.63 268.018 L2001.6 268.018 L1996.02 246.768 L1990.42 268.018 L1985.4 268.018 L1978.62 242.092 Z" fill="#000000" fill-rule="nonzero" fill-opacity="1" /><path clip-path="url(#clip710)" d="M2019.87 242.092 L2024.12 242.092 L2024.12 268.018 L2019.87 268.018 L2019.87 242.092 M2019.87 231.999 L2024.12 231.999 L2024.12 237.393 L2019.87 237.393 L2019.87 231.999 Z" fill="#000000" fill-rule="nonzero" fill-opacity="1" /><path clip-path="url(#clip710)" d="M2050.1 246.027 L2050.1 231.999 L2054.36 231.999 L2054.36 268.018 L2050.1 268.018 L2050.1 264.129 Q2048.75 266.443 2046.69 267.578 Q2044.66 268.689 2041.79 268.689 Q2037.09 268.689 2034.12 264.939 Q2031.19 261.189 2031.19 255.078 Q2031.19 248.967 2034.12 245.217 Q2037.09 241.467 2041.79 241.467 Q2044.66 241.467 2046.69 242.601 Q2048.75 243.712 2050.1 246.027 M2035.58 255.078 Q2035.58 259.777 2037.5 262.462 Q2039.45 265.124 2042.83 265.124 Q2046.21 265.124 2048.15 262.462 Q2050.1 259.777 2050.1 255.078 Q2050.1 250.379 2048.15 247.717 Q2046.21 245.032 2042.83 245.032 Q2039.45 245.032 2037.5 247.717 Q2035.58 250.379 2035.58 255.078 Z" fill="#000000" fill-rule="nonzero" fill-opacity="1" /><path clip-path="url(#clip710)" d="M2067.34 234.731 L2067.34 242.092 L2076.12 242.092 L2076.12 245.402 L2067.34 245.402 L2067.34 259.476 Q2067.34 262.647 2068.2 263.55 Q2069.08 264.453 2071.74 264.453 L2076.12 264.453 L2076.12 268.018 L2071.74 268.018 Q2066.81 268.018 2064.93 266.189 Q2063.06 264.337 2063.06 259.476 L2063.06 245.402 L2059.93 245.402 L2059.93 242.092 L2063.06 242.092 L2063.06 234.731 L2067.34 234.731 Z" fill="#000000" fill-rule="nonzero" fill-opacity="1" /><path clip-path="url(#clip710)" d="M2103.27 252.369 L2103.27 268.018 L2099.01 268.018 L2099.01 252.508 Q2099.01 248.828 2097.57 246.999 Q2096.14 245.17 2093.27 245.17 Q2089.82 245.17 2087.83 247.37 Q2085.84 249.569 2085.84 253.365 L2085.84 268.018 L2081.56 268.018 L2081.56 231.999 L2085.84 231.999 L2085.84 246.12 Q2087.37 243.782 2089.43 242.624 Q2091.51 241.467 2094.22 241.467 Q2098.68 241.467 2100.98 244.245 Q2103.27 246.999 2103.27 252.369 Z" fill="#000000" fill-rule="nonzero" fill-opacity="1" /><circle clip-path="url(#clip710)" cx="1879.03" cy="302.578" r="20.48" fill="#ff0000" fill-rule="evenodd" fill-opacity="1" stroke="#000000" stroke-opacity="1" stroke-width="4.55111"/>
<path clip-path="url(#clip710)" d="M1998.96 298.909 Q2000.56 296.038 2002.78 294.673 Q2005 293.307 2008.01 293.307 Q2012.06 293.307 2014.26 296.154 Q2016.46 298.978 2016.46 304.209 L2016.46 319.858 L2012.18 319.858 L2012.18 304.348 Q2012.18 300.622 2010.86 298.816 Q2009.54 297.01 2006.83 297.01 Q2003.52 297.01 2001.6 299.21 Q1999.68 301.409 1999.68 305.205 L1999.68 319.858 L1995.4 319.858 L1995.4 304.348 Q1995.4 300.598 1994.08 298.816 Q1992.76 297.01 1990 297.01 Q1986.74 297.01 1984.82 299.233 Q1982.9 301.432 1982.9 305.205 L1982.9 319.858 L1978.62 319.858 L1978.62 293.932 L1982.9 293.932 L1982.9 297.96 Q1984.36 295.575 1986.39 294.441 Q1988.43 293.307 1991.23 293.307 Q1994.06 293.307 1996.02 294.742 Q1998.01 296.177 1998.96 298.909 Z" fill="#000000" fill-rule="nonzero" fill-opacity="1" /><path clip-path="url(#clip710)" d="M2036.74 306.825 Q2031.58 306.825 2029.59 308.006 Q2027.6 309.186 2027.6 312.034 Q2027.6 314.302 2029.08 315.645 Q2030.58 316.964 2033.15 316.964 Q2036.69 316.964 2038.82 314.464 Q2040.98 311.941 2040.98 307.774 L2040.98 306.825 L2036.74 306.825 M2045.24 305.066 L2045.24 319.858 L2040.98 319.858 L2040.98 315.922 Q2039.52 318.283 2037.34 319.418 Q2035.17 320.529 2032.02 320.529 Q2028.04 320.529 2025.68 318.307 Q2023.34 316.061 2023.34 312.311 Q2023.34 307.936 2026.25 305.714 Q2029.19 303.492 2035 303.492 L2040.98 303.492 L2040.98 303.075 Q2040.98 300.135 2039.03 298.538 Q2037.11 296.918 2033.62 296.918 Q2031.39 296.918 2029.29 297.45 Q2027.18 297.983 2025.24 299.047 L2025.24 295.112 Q2027.57 294.21 2029.77 293.77 Q2031.97 293.307 2034.06 293.307 Q2039.68 293.307 2042.46 296.223 Q2045.24 299.14 2045.24 305.066 Z" fill="#000000" fill-rule="nonzero" fill-opacity="1" /><path clip-path="url(#clip710)" d="M2075.56 293.932 L2066.18 306.547 L2076.05 319.858 L2071.02 319.858 L2063.48 309.672 L2055.93 319.858 L2050.91 319.858 L2060.98 306.293 L2051.76 293.932 L2056.79 293.932 L2063.66 303.168 L2070.54 293.932 L2075.56 293.932 Z" fill="#000000" fill-rule="nonzero" fill-opacity="1" /><path clip-path="url(#clip710)" d="M2082.06 293.932 L2086.32 293.932 L2086.32 319.858 L2082.06 319.858 L2082.06 293.932 M2082.06 283.839 L2086.32 283.839 L2086.32 289.233 L2082.06 289.233 L2082.06 283.839 Z" fill="#000000" fill-rule="nonzero" fill-opacity="1" /><path clip-path="url(#clip710)" d="M2115.42 298.909 Q2117.02 296.038 2119.24 294.673 Q2121.46 293.307 2124.47 293.307 Q2128.52 293.307 2130.72 296.154 Q2132.92 298.978 2132.92 304.209 L2132.92 319.858 L2128.64 319.858 L2128.64 304.348 Q2128.64 300.622 2127.32 298.816 Q2126 297.01 2123.29 297.01 Q2119.98 297.01 2118.06 299.21 Q2116.14 301.409 2116.14 305.205 L2116.14 319.858 L2111.86 319.858 L2111.86 304.348 Q2111.86 300.598 2110.54 298.816 Q2109.22 297.01 2106.46 297.01 Q2103.2 297.01 2101.28 299.233 Q2099.36 301.432 2099.36 305.205 L2099.36 319.858 L2095.07 319.858 L2095.07 293.932 L2099.36 293.932 L2099.36 297.96 Q2100.81 295.575 2102.85 294.441 Q2104.89 293.307 2107.69 293.307 Q2110.51 293.307 2112.48 294.742 Q2114.47 296.177 2115.42 298.909 Z" fill="#000000" fill-rule="nonzero" fill-opacity="1" /><path clip-path="url(#clip710)" d="M2153.2 306.825 Q2148.04 306.825 2146.05 308.006 Q2144.05 309.186 2144.05 312.034 Q2144.05 314.302 2145.54 315.645 Q2147.04 316.964 2149.61 316.964 Q2153.15 316.964 2155.28 314.464 Q2157.43 311.941 2157.43 307.774 L2157.43 306.825 L2153.2 306.825 M2161.69 305.066 L2161.69 319.858 L2157.43 319.858 L2157.43 315.922 Q2155.98 318.283 2153.8 319.418 Q2151.62 320.529 2148.48 320.529 Q2144.49 320.529 2142.13 318.307 Q2139.8 316.061 2139.8 312.311 Q2139.8 307.936 2142.71 305.714 Q2145.65 303.492 2151.46 303.492 L2157.43 303.492 L2157.43 303.075 Q2157.43 300.135 2155.49 298.538 Q2153.57 296.918 2150.07 296.918 Q2147.85 296.918 2145.74 297.45 Q2143.64 297.983 2141.69 299.047 L2141.69 295.112 Q2144.03 294.21 2146.23 293.77 Q2148.43 293.307 2150.51 293.307 Q2156.14 293.307 2158.92 296.223 Q2161.69 299.14 2161.69 305.066 Z" fill="#000000" fill-rule="nonzero" fill-opacity="1" /></svg>
