<?xml version="1.0" encoding="utf-8"?>
<svg xmlns="http://www.w3.org/2000/svg" xmlns:xlink="http://www.w3.org/1999/xlink" width="600" height="400" viewBox="0 0 2400 1600">
<defs>
  <clipPath id="clip350">
    <rect x="0" y="0" width="2400" height="1600"/>
  </clipPath>
</defs>
<path clip-path="url(#clip350)" d="M0 1600 L2400 1600 L2400 0 L0 0  Z" fill="#ffffff" fill-rule="evenodd" fill-opacity="1"/>
<defs>
  <clipPath id="clip351">
    <rect x="170" y="47" width="2183" height="1440"/>
  </clipPath>
</defs>
<path clip-path="url(#clip350)" d="M140.696 1486.45 L2352.76 1486.45 L2352.76 47.2441 L140.696 47.2441  Z" fill="#ffffff" fill-rule="evenodd" fill-opacity="1"/>
<defs>
  <clipPath id="clip352">
    <rect x="140" y="47" width="2213" height="1440"/>
  </clipPath>
</defs>
<polyline clip-path="url(#clip352)" style="stroke:#000000; stroke-linecap:round; stroke-linejoin:round; stroke-width:2; stroke-opacity:0.1; fill:none" points="203.301,1486.45 203.301,47.2441 "/>
<polyline clip-path="url(#clip352)" style="stroke:#000000; stroke-linecap:round; stroke-linejoin:round; stroke-width:2; stroke-opacity:0.1; fill:none" points="725.013,1486.45 725.013,47.2441 "/>
<polyline clip-path="url(#clip352)" style="stroke:#000000; stroke-linecap:round; stroke-linejoin:round; stroke-width:2; stroke-opacity:0.1; fill:none" points="1246.73,1486.45 1246.73,47.2441 "/>
<polyline clip-path="url(#clip352)" style="stroke:#000000; stroke-linecap:round; stroke-linejoin:round; stroke-width:2; stroke-opacity:0.1; fill:none" points="1768.44,1486.45 1768.44,47.2441 "/>
<polyline clip-path="url(#clip352)" style="stroke:#000000; stroke-linecap:round; stroke-linejoin:round; stroke-width:2; stroke-opacity:0.1; fill:none" points="2290.15,1486.45 2290.15,47.2441 "/>
<polyline clip-path="url(#clip352)" style="stroke:#000000; stroke-linecap:round; stroke-linejoin:round; stroke-width:2; stroke-opacity:0.1; fill:none" points="140.696,1391.43 2352.76,1391.43 "/>
<polyline clip-path="url(#clip352)" style="stroke:#000000; stroke-linecap:round; stroke-linejoin:round; stroke-width:2; stroke-opacity:0.1; fill:none" points="140.696,1097.44 2352.76,1097.44 "/>
<polyline clip-path="url(#clip352)" style="stroke:#000000; stroke-linecap:round; stroke-linejoin:round; stroke-width:2; stroke-opacity:0.1; fill:none" points="140.696,803.448 2352.76,803.448 "/>
<polyline clip-path="url(#clip352)" style="stroke:#000000; stroke-linecap:round; stroke-linejoin:round; stroke-width:2; stroke-opacity:0.1; fill:none" points="140.696,509.456 2352.76,509.456 "/>
<polyline clip-path="url(#clip352)" style="stroke:#000000; stroke-linecap:round; stroke-linejoin:round; stroke-width:2; stroke-opacity:0.1; fill:none" points="140.696,215.465 2352.76,215.465 "/>
<polyline clip-path="url(#clip350)" style="stroke:#000000; stroke-linecap:round; stroke-linejoin:round; stroke-width:4; stroke-opacity:1; fill:none" points="140.696,1486.45 2352.76,1486.45 "/>
<polyline clip-path="url(#clip350)" style="stroke:#000000; stroke-linecap:round; stroke-linejoin:round; stroke-width:4; stroke-opacity:1; fill:none" points="203.301,1486.45 203.301,1467.55 "/>
<polyline clip-path="url(#clip350)" style="stroke:#000000; stroke-linecap:round; stroke-linejoin:round; stroke-width:4; stroke-opacity:1; fill:none" points="725.013,1486.45 725.013,1467.55 "/>
<polyline clip-path="url(#clip350)" style="stroke:#000000; stroke-linecap:round; stroke-linejoin:round; stroke-width:4; stroke-opacity:1; fill:none" points="1246.73,1486.45 1246.73,1467.55 "/>
<polyline clip-path="url(#clip350)" style="stroke:#000000; stroke-linecap:round; stroke-linejoin:round; stroke-width:4; stroke-opacity:1; fill:none" points="1768.44,1486.45 1768.44,1467.55 "/>
<polyline clip-path="url(#clip350)" style="stroke:#000000; stroke-linecap:round; stroke-linejoin:round; stroke-width:4; stroke-opacity:1; fill:none" points="2290.15,1486.45 2290.15,1467.55 "/>
<path clip-path="url(#clip350)" d="M203.301 1517.37 Q199.69 1517.37 197.861 1520.93 Q196.056 1524.47 196.056 1531.6 Q196.056 1538.71 197.861 1542.27 Q199.69 1545.82 203.301 1545.82 Q206.935 1545.82 208.741 1542.27 Q210.57 1538.71 210.57 1531.6 Q210.57 1524.47 208.741 1520.93 Q206.935 1517.37 203.301 1517.37 M203.301 1513.66 Q209.111 1513.66 212.167 1518.27 Q215.245 1522.85 215.245 1531.6 Q215.245 1540.33 212.167 1544.94 Q209.111 1549.52 203.301 1549.52 Q197.491 1549.52 194.412 1544.94 Q191.357 1540.33 191.357 1531.6 Q191.357 1522.85 194.412 1518.27 Q197.491 1513.66 203.301 1513.66 Z" fill="#000000" fill-rule="nonzero" fill-opacity="1" /><path clip-path="url(#clip350)" d="M704.284 1544.91 L720.604 1544.91 L720.604 1548.85 L698.659 1548.85 L698.659 1544.91 Q701.321 1542.16 705.905 1537.53 Q710.511 1532.88 711.692 1531.53 Q713.937 1529.01 714.817 1527.27 Q715.719 1525.51 715.719 1523.82 Q715.719 1521.07 713.775 1519.33 Q711.854 1517.6 708.752 1517.6 Q706.553 1517.6 704.099 1518.36 Q701.669 1519.13 698.891 1520.68 L698.891 1515.95 Q701.715 1514.82 704.169 1514.24 Q706.622 1513.66 708.659 1513.66 Q714.03 1513.66 717.224 1516.35 Q720.418 1519.03 720.418 1523.52 Q720.418 1525.65 719.608 1527.57 Q718.821 1529.47 716.715 1532.07 Q716.136 1532.74 713.034 1535.95 Q709.932 1539.15 704.284 1544.91 Z" fill="#000000" fill-rule="nonzero" fill-opacity="1" /><path clip-path="url(#clip350)" d="M730.465 1514.29 L748.821 1514.29 L748.821 1518.22 L734.747 1518.22 L734.747 1526.7 Q735.766 1526.35 736.784 1526.19 Q737.803 1526 738.821 1526 Q744.608 1526 747.988 1529.17 Q751.367 1532.34 751.367 1537.76 Q751.367 1543.34 747.895 1546.44 Q744.423 1549.52 738.104 1549.52 Q735.928 1549.52 733.659 1549.15 Q731.414 1548.78 729.006 1548.04 L729.006 1543.34 Q731.09 1544.47 733.312 1545.03 Q735.534 1545.58 738.011 1545.58 Q742.016 1545.58 744.354 1543.48 Q746.691 1541.37 746.691 1537.76 Q746.691 1534.15 744.354 1532.04 Q742.016 1529.94 738.011 1529.94 Q736.136 1529.94 734.261 1530.35 Q732.409 1530.77 730.465 1531.65 L730.465 1514.29 Z" fill="#000000" fill-rule="nonzero" fill-opacity="1" /><path clip-path="url(#clip350)" d="M1221.42 1514.29 L1239.78 1514.29 L1239.78 1518.22 L1225.71 1518.22 L1225.71 1526.7 Q1226.73 1526.35 1227.74 1526.19 Q1228.76 1526 1229.78 1526 Q1235.57 1526 1238.95 1529.17 Q1242.33 1532.34 1242.33 1537.76 Q1242.33 1543.34 1238.86 1546.44 Q1235.38 1549.52 1229.06 1549.52 Q1226.89 1549.52 1224.62 1549.15 Q1222.37 1548.78 1219.97 1548.04 L1219.97 1543.34 Q1222.05 1544.47 1224.27 1545.03 Q1226.49 1545.58 1228.97 1545.58 Q1232.98 1545.58 1235.31 1543.48 Q1237.65 1541.37 1237.65 1537.76 Q1237.65 1534.15 1235.31 1532.04 Q1232.98 1529.94 1228.97 1529.94 Q1227.1 1529.94 1225.22 1530.35 Q1223.37 1530.77 1221.42 1531.65 L1221.42 1514.29 Z" fill="#000000" fill-rule="nonzero" fill-opacity="1" /><path clip-path="url(#clip350)" d="M1261.54 1517.37 Q1257.93 1517.37 1256.1 1520.93 Q1254.3 1524.47 1254.3 1531.6 Q1254.3 1538.71 1256.1 1542.27 Q1257.93 1545.82 1261.54 1545.82 Q1265.17 1545.82 1266.98 1542.27 Q1268.81 1538.71 1268.81 1531.6 Q1268.81 1524.47 1266.98 1520.93 Q1265.17 1517.37 1261.54 1517.37 M1261.54 1513.66 Q1267.35 1513.66 1270.41 1518.27 Q1273.48 1522.85 1273.48 1531.6 Q1273.48 1540.33 1270.41 1544.94 Q1267.35 1549.52 1261.54 1549.52 Q1255.73 1549.52 1252.65 1544.94 Q1249.6 1540.33 1249.6 1531.6 Q1249.6 1522.85 1252.65 1518.27 Q1255.73 1513.66 1261.54 1513.66 Z" fill="#000000" fill-rule="nonzero" fill-opacity="1" /><path clip-path="url(#clip350)" d="M1742.29 1514.29 L1764.51 1514.29 L1764.51 1516.28 L1751.97 1548.85 L1747.08 1548.85 L1758.89 1518.22 L1742.29 1518.22 L1742.29 1514.29 Z" fill="#000000" fill-rule="nonzero" fill-opacity="1" /><path clip-path="url(#clip350)" d="M1773.68 1514.29 L1792.04 1514.29 L1792.04 1518.22 L1777.96 1518.22 L1777.96 1526.7 Q1778.98 1526.35 1780 1526.19 Q1781.02 1526 1782.04 1526 Q1787.82 1526 1791.2 1529.17 Q1794.58 1532.34 1794.58 1537.76 Q1794.58 1543.34 1791.11 1546.44 Q1787.64 1549.52 1781.32 1549.52 Q1779.14 1549.52 1776.88 1549.15 Q1774.63 1548.78 1772.22 1548.04 L1772.22 1543.34 Q1774.31 1544.47 1776.53 1545.03 Q1778.75 1545.58 1781.23 1545.58 Q1785.23 1545.58 1787.57 1543.48 Q1789.91 1541.37 1789.91 1537.76 Q1789.91 1534.15 1787.57 1532.04 Q1785.23 1529.94 1781.23 1529.94 Q1779.35 1529.94 1777.48 1530.35 Q1775.63 1530.77 1773.68 1531.65 L1773.68 1514.29 Z" fill="#000000" fill-rule="nonzero" fill-opacity="1" /><path clip-path="url(#clip350)" d="M2249.76 1544.91 L2257.4 1544.91 L2257.4 1518.55 L2249.09 1520.21 L2249.09 1515.95 L2257.35 1514.29 L2262.03 1514.29 L2262.03 1544.91 L2269.66 1544.91 L2269.66 1548.85 L2249.76 1548.85 L2249.76 1544.91 Z" fill="#000000" fill-rule="nonzero" fill-opacity="1" /><path clip-path="url(#clip350)" d="M2289.11 1517.37 Q2285.5 1517.37 2283.67 1520.93 Q2281.86 1524.47 2281.86 1531.6 Q2281.86 1538.71 2283.67 1542.27 Q2285.5 1545.82 2289.11 1545.82 Q2292.74 1545.82 2294.55 1542.27 Q2296.38 1538.71 2296.38 1531.6 Q2296.38 1524.47 2294.55 1520.93 Q2292.74 1517.37 2289.11 1517.37 M2289.11 1513.66 Q2294.92 1513.66 2297.97 1518.27 Q2301.05 1522.85 2301.05 1531.6 Q2301.05 1540.33 2297.97 1544.94 Q2294.92 1549.52 2289.11 1549.52 Q2283.3 1549.52 2280.22 1544.94 Q2277.16 1540.33 2277.16 1531.6 Q2277.16 1522.85 2280.22 1518.27 Q2283.3 1513.66 2289.11 1513.66 Z" fill="#000000" fill-rule="nonzero" fill-opacity="1" /><path clip-path="url(#clip350)" d="M2319.27 1517.37 Q2315.66 1517.37 2313.83 1520.93 Q2312.03 1524.47 2312.03 1531.6 Q2312.03 1538.71 2313.83 1542.27 Q2315.66 1545.82 2319.27 1545.82 Q2322.9 1545.82 2324.71 1542.27 Q2326.54 1538.71 2326.54 1531.6 Q2326.54 1524.47 2324.71 1520.93 Q2322.9 1517.37 2319.27 1517.37 M2319.27 1513.66 Q2325.08 1513.66 2328.14 1518.27 Q2331.22 1522.85 2331.22 1531.6 Q2331.22 1540.33 2328.14 1544.94 Q2325.08 1549.52 2319.27 1549.52 Q2313.46 1549.52 2310.38 1544.94 Q2307.33 1540.33 2307.33 1531.6 Q2307.33 1522.85 2310.38 1518.27 Q2313.46 1513.66 2319.27 1513.66 Z" fill="#000000" fill-rule="nonzero" fill-opacity="1" /><polyline clip-path="url(#clip350)" style="stroke:#000000; stroke-linecap:round; stroke-linejoin:round; stroke-width:4; stroke-opacity:1; fill:none" points="140.696,1486.45 140.696,47.2441 "/>
<polyline clip-path="url(#clip350)" style="stroke:#000000; stroke-linecap:round; stroke-linejoin:round; stroke-width:4; stroke-opacity:1; fill:none" points="140.696,1391.43 159.593,1391.43 "/>
<polyline clip-path="url(#clip350)" style="stroke:#000000; stroke-linecap:round; stroke-linejoin:round; stroke-width:4; stroke-opacity:1; fill:none" points="140.696,1097.44 159.593,1097.44 "/>
<polyline clip-path="url(#clip350)" style="stroke:#000000; stroke-linecap:round; stroke-linejoin:round; stroke-width:4; stroke-opacity:1; fill:none" points="140.696,803.448 159.593,803.448 "/>
<polyline clip-path="url(#clip350)" style="stroke:#000000; stroke-linecap:round; stroke-linejoin:round; stroke-width:4; stroke-opacity:1; fill:none" points="140.696,509.456 159.593,509.456 "/>
<polyline clip-path="url(#clip350)" style="stroke:#000000; stroke-linecap:round; stroke-linejoin:round; stroke-width:4; stroke-opacity:1; fill:none" points="140.696,215.465 159.593,215.465 "/>
<path clip-path="url(#clip350)" d="M92.7512 1377.23 Q89.1401 1377.23 87.3114 1380.79 Q85.5058 1384.34 85.5058 1391.47 Q85.5058 1398.57 87.3114 1402.14 Q89.1401 1405.68 92.7512 1405.68 Q96.3854 1405.68 98.1909 1402.14 Q100.02 1398.57 100.02 1391.47 Q100.02 1384.34 98.1909 1380.79 Q96.3854 1377.23 92.7512 1377.23 M92.7512 1373.53 Q98.5613 1373.53 101.617 1378.13 Q104.696 1382.72 104.696 1391.47 Q104.696 1400.19 101.617 1404.8 Q98.5613 1409.38 92.7512 1409.38 Q86.941 1409.38 83.8623 1404.8 Q80.8068 1400.19 80.8068 1391.47 Q80.8068 1382.72 83.8623 1378.13 Q86.941 1373.53 92.7512 1373.53 Z" fill="#000000" fill-rule="nonzero" fill-opacity="1" /><path clip-path="url(#clip350)" d="M83.7929 1080.16 L102.149 1080.16 L102.149 1084.09 L88.0753 1084.09 L88.0753 1092.57 Q89.0938 1092.22 90.1123 1092.06 Q91.1308 1091.87 92.1493 1091.87 Q97.9363 1091.87 101.316 1095.04 Q104.696 1098.21 104.696 1103.63 Q104.696 1109.21 101.223 1112.31 Q97.7511 1115.39 91.4317 1115.39 Q89.2558 1115.39 86.9873 1115.02 Q84.7419 1114.65 82.3346 1113.91 L82.3346 1109.21 Q84.4179 1110.34 86.6401 1110.9 Q88.8623 1111.46 91.3391 1111.46 Q95.3437 1111.46 97.6817 1109.35 Q100.02 1107.24 100.02 1103.63 Q100.02 1100.02 97.6817 1097.91 Q95.3437 1095.81 91.3391 1095.81 Q89.4641 1095.81 87.5892 1096.22 Q85.7373 1096.64 83.7929 1097.52 L83.7929 1080.16 Z" fill="#000000" fill-rule="nonzero" fill-opacity="1" /><path clip-path="url(#clip350)" d="M53.3995 816.793 L61.0384 816.793 L61.0384 790.427 L52.7282 792.094 L52.7282 787.834 L60.9921 786.168 L65.668 786.168 L65.668 816.793 L73.3068 816.793 L73.3068 820.728 L53.3995 820.728 L53.3995 816.793 Z" fill="#000000" fill-rule="nonzero" fill-opacity="1" /><path clip-path="url(#clip350)" d="M92.7512 789.247 Q89.1401 789.247 87.3114 792.811 Q85.5058 796.353 85.5058 803.483 Q85.5058 810.589 87.3114 814.154 Q89.1401 817.695 92.7512 817.695 Q96.3854 817.695 98.1909 814.154 Q100.02 810.589 100.02 803.483 Q100.02 796.353 98.1909 792.811 Q96.3854 789.247 92.7512 789.247 M92.7512 785.543 Q98.5613 785.543 101.617 790.149 Q104.696 794.733 104.696 803.483 Q104.696 812.209 101.617 816.816 Q98.5613 821.399 92.7512 821.399 Q86.941 821.399 83.8623 816.816 Q80.8068 812.209 80.8068 803.483 Q80.8068 794.733 83.8623 790.149 Q86.941 785.543 92.7512 785.543 Z" fill="#000000" fill-rule="nonzero" fill-opacity="1" /><path clip-path="url(#clip350)" d="M54.3949 522.801 L62.0337 522.801 L62.0337 496.435 L53.7236 498.102 L53.7236 493.843 L61.9874 492.176 L66.6633 492.176 L66.6633 522.801 L74.3022 522.801 L74.3022 526.736 L54.3949 526.736 L54.3949 522.801 Z" fill="#000000" fill-rule="nonzero" fill-opacity="1" /><path clip-path="url(#clip350)" d="M83.7929 492.176 L102.149 492.176 L102.149 496.111 L88.0753 496.111 L88.0753 504.584 Q89.0938 504.236 90.1123 504.074 Q91.1308 503.889 92.1493 503.889 Q97.9363 503.889 101.316 507.06 Q104.696 510.232 104.696 515.648 Q104.696 521.227 101.223 524.329 Q97.7511 527.408 91.4317 527.408 Q89.2558 527.408 86.9873 527.037 Q84.7419 526.667 82.3346 525.926 L82.3346 521.227 Q84.4179 522.361 86.6401 522.917 Q88.8623 523.472 91.3391 523.472 Q95.3437 523.472 97.6817 521.366 Q100.02 519.259 100.02 515.648 Q100.02 512.037 97.6817 509.931 Q95.3437 507.824 91.3391 507.824 Q89.4641 507.824 87.5892 508.241 Q85.7373 508.658 83.7929 509.537 L83.7929 492.176 Z" fill="#000000" fill-rule="nonzero" fill-opacity="1" /><path clip-path="url(#clip350)" d="M56.6171 228.81 L72.9365 228.81 L72.9365 232.745 L50.9921 232.745 L50.9921 228.81 Q53.6541 226.055 58.2375 221.425 Q62.8439 216.773 64.0245 215.43 Q66.2698 212.907 67.1494 211.171 Q68.0522 209.411 68.0522 207.722 Q68.0522 204.967 66.1078 203.231 Q64.1865 201.495 61.0847 201.495 Q58.8856 201.495 56.4319 202.259 Q54.0014 203.023 51.2236 204.574 L51.2236 199.851 Q54.0477 198.717 56.5014 198.138 Q58.955 197.56 60.9921 197.56 Q66.3624 197.56 69.5568 200.245 Q72.7513 202.93 72.7513 207.421 Q72.7513 209.55 71.9411 211.472 Q71.1541 213.37 69.0476 215.962 Q68.4689 216.634 65.367 219.851 Q62.2652 223.046 56.6171 228.81 Z" fill="#000000" fill-rule="nonzero" fill-opacity="1" /><path clip-path="url(#clip350)" d="M92.7512 201.263 Q89.1401 201.263 87.3114 204.828 Q85.5058 208.37 85.5058 215.499 Q85.5058 222.606 87.3114 226.171 Q89.1401 229.712 92.7512 229.712 Q96.3854 229.712 98.1909 226.171 Q100.02 222.606 100.02 215.499 Q100.02 208.37 98.1909 204.828 Q96.3854 201.263 92.7512 201.263 M92.7512 197.56 Q98.5613 197.56 101.617 202.166 Q104.696 206.749 104.696 215.499 Q104.696 224.226 101.617 228.833 Q98.5613 233.416 92.7512 233.416 Q86.941 233.416 83.8623 228.833 Q80.8068 224.226 80.8068 215.499 Q80.8068 206.749 83.8623 202.166 Q86.941 197.56 92.7512 197.56 Z" fill="#000000" fill-rule="nonzero" fill-opacity="1" /><polyline clip-path="url(#clip352)" style="stroke:#009af9; stroke-linecap:round; stroke-linejoin:round; stroke-width:4; stroke-opacity:1; fill:none" points="203.301,1445.72 213.735,1366.79 224.17,1348.54 234.604,1404.87 245.038,1420.61 255.472,1377.6 265.907,1357 276.341,1345.7 286.775,1385.43 297.209,1388.6 307.643,1319.69 318.078,1337.58 328.512,1375.97 338.946,1350.11 349.38,1325.29 359.815,1412.18 370.249,1360.65 380.683,1341.56 391.117,1316.96 401.552,1352.86 411.986,1351.14 422.42,1337.56 432.854,1374.86 443.289,1372.72 453.723,1367.13 464.157,1386.52 474.591,1332.63 485.026,1291.14 495.46,1331.62 505.894,1316.98 516.328,1263.47 526.763,1309.68 537.197,1343.19 547.631,1343.63 558.065,1311.05 568.5,1325.93 578.934,1312.72 589.368,1300.38 599.802,1328.08 610.237,1304.25 620.671,1317.96 631.105,1293.31 641.539,1306.42 651.974,1317.05 662.408,1275.73 672.842,1309.38 683.276,1286.2 693.711,1243.43 704.145,1264.71 714.579,1278.18 725.013,1296.58 735.448,1256.48 745.882,1275.12 756.316,1265.51 766.75,1250.32 777.185,1275.45 787.619,1252.68 798.053,1255.73 808.487,1245.54 818.922,1223.18 829.356,1193.44 839.79,1209.24 850.224,1144.87 860.659,1150.16 871.093,1165.68 881.527,1125.88 891.961,1054.59 902.396,1030.18 912.83,984.176 923.264,980.159 933.698,977.473 944.133,871.389 954.567,887.703 965.001,816.095 975.435,738.739 985.87,765.237 996.304,690.493 1006.74,672.935 1017.17,633.062 1027.61,659.563 1038.04,626.283 1048.48,602.561 1058.91,595.392 1069.34,638.128 1079.78,697.991 1090.21,698.487 1100.65,741.65 1111.08,755.988 1121.51,810.172 1131.95,888.556 1142.38,919.298 1152.82,883.325 1163.25,988.712 1173.69,933.449 1184.12,1014.77 1194.55,1027.65 1204.99,1072.4 1215.42,1099.59 1225.86,1131.36 1236.29,1092.06 1246.73,1141.7 1257.16,1123.44 1267.59,1144.65 1278.03,1116.68 1288.46,1152.46 1298.9,1110.26 1309.33,1142.98 1319.77,1108.38 1330.2,1096.8 1340.63,1137.78 1351.07,1132.92 1361.5,1136.92 1371.94,1131.74 1382.37,1096.57 1392.81,1133.56 1403.24,1117.39 1413.67,1117.81 1424.11,1144.27 1434.54,1119.97 1444.98,1117.67 1455.41,1150.26 1465.84,1095.7 1476.28,1094.15 1486.71,1082.66 1497.15,1107.97 1507.58,1124.66 1518.02,1098.26 1528.45,1075.34 1538.88,1118.72 1549.32,1082.99 1559.75,1068.95 1570.19,1105.5 1580.62,1087.03 1591.06,1102.31 1601.49,1075.7 1611.92,1098.33 1622.36,1078.5 1632.79,1071.55 1643.23,1047.33 1653.66,1095.86 1664.1,1064.62 1674.53,1040.98 1684.96,1015.48 1695.4,1045.98 1705.83,1073.46 1716.27,1083.68 1726.7,1037.69 1737.14,1035.46 1747.57,1003.12 1758,1012.24 1768.44,1050.62 1778.87,1010.97 1789.31,1054.6 1799.74,1073.86 1810.18,1023.83 1820.61,1013.34 1831.04,994.426 1841.48,1004.09 1851.91,986.381 1862.35,1018.38 1872.78,977.486 1883.21,1010.7 1893.65,1039.55 1904.08,996.347 1914.52,1030.69 1924.95,1006.32 1935.39,1007.12 1945.82,970.136 1956.25,969.933 1966.69,942.587 1977.12,1025.02 1987.56,1004.57 1997.99,959.681 2008.43,1022.91 2018.86,998.983 2029.29,1027.79 2039.73,988.601 2050.16,1001.73 2060.6,1003.47 2071.03,974.395 2081.47,944.365 2091.9,1021.79 2102.33,936.915 2112.77,917.921 2123.2,943.985 2133.64,981.915 2144.07,918.205 2154.51,951.29 2164.94,937.446 2175.37,936.934 2185.81,921.499 2196.24,932.772 2206.68,976.343 2217.11,939.356 2227.54,939.584 2237.98,941.452 2248.41,939.064 2258.85,936.796 2269.28,903.197 2279.72,937.635 2290.15,953.492 "/>
<polyline clip-path="url(#clip352)" style="stroke:#e26f46; stroke-linecap:round; stroke-linejoin:round; stroke-width:4; stroke-opacity:1; fill:none" points="203.301,1376.9 213.735,1405.11 224.17,1417.12 234.604,1404.49 245.038,1389.32 255.472,1387.31 265.907,1407.64 276.341,1396.09 286.775,1387.46 297.209,1379.07 307.643,1379.17 318.078,1354.9 328.512,1370.56 338.946,1390.45 349.38,1367.46 359.815,1379.18 370.249,1407.55 380.683,1352.36 391.117,1379.58 401.552,1383.56 411.986,1392.64 422.42,1374.11 432.854,1375.11 443.289,1354.92 453.723,1375.18 464.157,1362.69 474.591,1393.6 485.026,1358.98 495.46,1372.66 505.894,1392.11 516.328,1353.16 526.763,1368.96 537.197,1371.31 547.631,1357.97 558.065,1346.57 568.5,1354.87 578.934,1372.52 589.368,1351.48 599.802,1365.79 610.237,1350.44 620.671,1346.9 631.105,1339.57 641.539,1333.46 651.974,1355.64 662.408,1372.05 672.842,1353.61 683.276,1354.86 693.711,1364.04 704.145,1341.54 714.579,1320.59 725.013,1374.05 735.448,1333.11 745.882,1333.78 756.316,1341.29 766.75,1337.31 777.185,1335.97 787.619,1351.34 798.053,1348.15 808.487,1364.53 818.922,1336.19 829.356,1352.48 839.79,1343.58 850.224,1343.37 860.659,1328.59 871.093,1361.74 881.527,1352.81 891.961,1332.98 902.396,1311.99 912.83,1345.24 923.264,1332.63 933.698,1341.19 944.133,1348.77 954.567,1317.53 965.001,1325.3 975.435,1301.19 985.87,1306.86 996.304,1304.63 1006.74,1282.12 1017.17,1295.49 1027.61,1285.16 1038.04,1276.3 1048.48,1276.15 1058.91,1267.59 1069.34,1245.37 1079.78,1235.38 1090.21,1229.63 1100.65,1202.44 1111.08,1198.3 1121.51,1186.78 1131.95,1138.24 1142.38,1144.18 1152.82,1116.15 1163.25,1107.35 1173.69,1071.34 1184.12,1027.31 1194.55,988.799 1204.99,969.277 1215.42,928.857 1225.86,888.797 1236.29,842.804 1246.73,809.632 1257.16,749.136 1267.59,697.125 1278.03,646.508 1288.46,629.343 1298.9,591.143 1309.33,503.204 1319.77,475.454 1330.2,438.028 1340.63,381.899 1351.07,351.766 1361.5,332.556 1371.94,267.226 1382.37,250.081 1392.81,205.394 1403.24,173.081 1413.67,120.219 1424.11,134.709 1434.54,87.9763 1444.98,116.69 1455.41,99.7873 1465.84,94.3801 1476.28,117.795 1486.71,125.768 1497.15,146.744 1507.58,166.139 1518.02,186.698 1528.45,209.071 1538.88,266.946 1549.32,282.702 1559.75,321.046 1570.19,373.489 1580.62,418.727 1591.06,423.463 1601.49,478.223 1611.92,554.526 1622.36,594.938 1632.79,636.392 1643.23,660.623 1653.66,730.312 1664.1,789.996 1674.53,780.6 1684.96,817.188 1695.4,876.063 1705.83,916.799 1716.27,958.885 1726.7,979.18 1737.14,1013.49 1747.57,1031.4 1758,1045.11 1768.44,1074.94 1778.87,1071.89 1789.31,1135.06 1799.74,1143.45 1810.18,1130.08 1820.61,1161.19 1831.04,1178.18 1841.48,1186.95 1851.91,1211.89 1862.35,1182.32 1872.78,1223.69 1883.21,1194.76 1893.65,1220.28 1904.08,1241.56 1914.52,1230.5 1924.95,1237.25 1935.39,1232.49 1945.82,1256.84 1956.25,1222.26 1966.69,1247.27 1977.12,1243.54 1987.56,1233.11 1997.99,1198.53 2008.43,1211.56 2018.86,1252.47 2029.29,1256.23 2039.73,1217.02 2050.16,1237.21 2060.6,1222.21 2071.03,1247.77 2081.47,1249.61 2091.9,1220.46 2102.33,1210.31 2112.77,1226.48 2123.2,1232.85 2133.64,1235.09 2144.07,1219.89 2154.51,1211.49 2164.94,1248.32 2175.37,1256.23 2185.81,1223.34 2196.24,1236.15 2206.68,1214.91 2217.11,1235.15 2227.54,1225.91 2237.98,1250.75 2248.41,1252.28 2258.85,1217.45 2269.28,1204.94 2279.72,1216.35 2290.15,1245.89 "/>
<path clip-path="url(#clip350)" d="M2005.38 250.738 L2279.02 250.738 L2279.02 95.2176 L2005.38 95.2176  Z" fill="#ffffff" fill-rule="evenodd" fill-opacity="1"/>
<polyline clip-path="url(#clip350)" style="stroke:#000000; stroke-linecap:round; stroke-linejoin:round; stroke-width:4; stroke-opacity:1; fill:none" points="2005.38,250.738 2279.02,250.738 2279.02,95.2176 2005.38,95.2176 2005.38,250.738 "/>
<polyline clip-path="url(#clip350)" style="stroke:#009af9; stroke-linecap:round; stroke-linejoin:round; stroke-width:4; stroke-opacity:1; fill:none" points="2029.96,147.058 2177.43,147.058 "/>
<path clip-path="url(#clip350)" d="M2215.85 166.745 Q2214.05 171.375 2212.34 172.787 Q2210.62 174.199 2207.75 174.199 L2204.35 174.199 L2204.35 170.634 L2206.85 170.634 Q2208.61 170.634 2209.58 169.8 Q2210.55 168.967 2211.73 165.865 L2212.5 163.921 L2202.01 138.412 L2206.53 138.412 L2214.63 158.689 L2222.73 138.412 L2227.24 138.412 L2215.85 166.745 Z" fill="#000000" fill-rule="nonzero" fill-opacity="1" /><path clip-path="url(#clip350)" d="M2234.53 160.402 L2242.17 160.402 L2242.17 134.037 L2233.86 135.703 L2233.86 131.444 L2242.13 129.778 L2246.8 129.778 L2246.8 160.402 L2254.44 160.402 L2254.44 164.338 L2234.53 164.338 L2234.53 160.402 Z" fill="#000000" fill-rule="nonzero" fill-opacity="1" /><polyline clip-path="url(#clip350)" style="stroke:#e26f46; stroke-linecap:round; stroke-linejoin:round; stroke-width:4; stroke-opacity:1; fill:none" points="2029.96,198.898 2177.43,198.898 "/>
<path clip-path="url(#clip350)" d="M2215.85 218.585 Q2214.05 223.215 2212.34 224.627 Q2210.62 226.039 2207.75 226.039 L2204.35 226.039 L2204.35 222.474 L2206.85 222.474 Q2208.61 222.474 2209.58 221.64 Q2210.55 220.807 2211.73 217.705 L2212.5 215.761 L2202.01 190.252 L2206.53 190.252 L2214.63 210.529 L2222.73 190.252 L2227.24 190.252 L2215.85 218.585 Z" fill="#000000" fill-rule="nonzero" fill-opacity="1" /><path clip-path="url(#clip350)" d="M2237.75 212.242 L2254.07 212.242 L2254.07 216.178 L2232.13 216.178 L2232.13 212.242 Q2234.79 209.488 2239.37 204.858 Q2243.98 200.205 2245.16 198.863 Q2247.41 196.34 2248.28 194.604 Q2249.19 192.844 2249.19 191.155 Q2249.19 188.4 2247.24 186.664 Q2245.32 184.928 2242.22 184.928 Q2240.02 184.928 2237.57 185.692 Q2235.14 186.455 2232.36 188.006 L2232.36 183.284 Q2235.18 182.15 2237.64 181.571 Q2240.09 180.993 2242.13 180.993 Q2247.5 180.993 2250.69 183.678 Q2253.89 186.363 2253.89 190.854 Q2253.89 192.983 2253.08 194.905 Q2252.29 196.803 2250.18 199.395 Q2249.6 200.067 2246.5 203.284 Q2243.4 206.479 2237.75 212.242 Z" fill="#000000" fill-rule="nonzero" fill-opacity="1" /></svg>
