<?xml version="1.0" encoding="utf-8"?>
<svg xmlns="http://www.w3.org/2000/svg" xmlns:xlink="http://www.w3.org/1999/xlink" width="600" height="400" viewBox="0 0 2400 1600">
<defs>
  <clipPath id="clip770">
    <rect x="0" y="0" width="2400" height="1600"/>
  </clipPath>
</defs>
<path clip-path="url(#clip770)" d="M0 1600 L2400 1600 L2400 0 L0 0  Z" fill="#ffffff" fill-rule="evenodd" fill-opacity="1"/>
<defs>
  <clipPath id="clip771">
    <rect x="480" y="0" width="1681" height="1600"/>
  </clipPath>
</defs>
<path clip-path="url(#clip770)" d="M140.696 1486.45 L2352.76 1486.45 L2352.76 47.2441 L140.696 47.2441  Z" fill="#ffffff" fill-rule="evenodd" fill-opacity="1"/>
<defs>
  <clipPath id="clip772">
    <rect x="140" y="47" width="2213" height="1440"/>
  </clipPath>
</defs>
<polyline clip-path="url(#clip772)" style="stroke:#000000; stroke-linecap:round; stroke-linejoin:round; stroke-width:2; stroke-opacity:0.1; fill:none" points="203.301,1486.45 203.301,47.2441 "/>
<polyline clip-path="url(#clip772)" style="stroke:#000000; stroke-linecap:round; stroke-linejoin:round; stroke-width:2; stroke-opacity:0.1; fill:none" points="725.013,1486.45 725.013,47.2441 "/>
<polyline clip-path="url(#clip772)" style="stroke:#000000; stroke-linecap:round; stroke-linejoin:round; stroke-width:2; stroke-opacity:0.1; fill:none" points="1246.73,1486.45 1246.73,47.2441 "/>
<polyline clip-path="url(#clip772)" style="stroke:#000000; stroke-linecap:round; stroke-linejoin:round; stroke-width:2; stroke-opacity:0.1; fill:none" points="1768.44,1486.45 1768.44,47.2441 "/>
<polyline clip-path="url(#clip772)" style="stroke:#000000; stroke-linecap:round; stroke-linejoin:round; stroke-width:2; stroke-opacity:0.1; fill:none" points="2290.15,1486.45 2290.15,47.2441 "/>
<polyline clip-path="url(#clip772)" style="stroke:#000000; stroke-linecap:round; stroke-linejoin:round; stroke-width:2; stroke-opacity:0.1; fill:none" points="140.696,1448.55 2352.76,1448.55 "/>
<polyline clip-path="url(#clip772)" style="stroke:#000000; stroke-linecap:round; stroke-linejoin:round; stroke-width:2; stroke-opacity:0.1; fill:none" points="140.696,1189.28 2352.76,1189.28 "/>
<polyline clip-path="url(#clip772)" style="stroke:#000000; stroke-linecap:round; stroke-linejoin:round; stroke-width:2; stroke-opacity:0.1; fill:none" points="140.696,930.011 2352.76,930.011 "/>
<polyline clip-path="url(#clip772)" style="stroke:#000000; stroke-linecap:round; stroke-linejoin:round; stroke-width:2; stroke-opacity:0.1; fill:none" points="140.696,670.74 2352.76,670.74 "/>
<polyline clip-path="url(#clip772)" style="stroke:#000000; stroke-linecap:round; stroke-linejoin:round; stroke-width:2; stroke-opacity:0.1; fill:none" points="140.696,411.47 2352.76,411.47 "/>
<polyline clip-path="url(#clip772)" style="stroke:#000000; stroke-linecap:round; stroke-linejoin:round; stroke-width:2; stroke-opacity:0.1; fill:none" points="140.696,152.199 2352.76,152.199 "/>
<polyline clip-path="url(#clip770)" style="stroke:#000000; stroke-linecap:round; stroke-linejoin:round; stroke-width:4; stroke-opacity:1; fill:none" points="140.696,1486.45 2352.76,1486.45 "/>
<polyline clip-path="url(#clip770)" style="stroke:#000000; stroke-linecap:round; stroke-linejoin:round; stroke-width:4; stroke-opacity:1; fill:none" points="203.301,1486.45 203.301,1467.55 "/>
<polyline clip-path="url(#clip770)" style="stroke:#000000; stroke-linecap:round; stroke-linejoin:round; stroke-width:4; stroke-opacity:1; fill:none" points="725.013,1486.45 725.013,1467.55 "/>
<polyline clip-path="url(#clip770)" style="stroke:#000000; stroke-linecap:round; stroke-linejoin:round; stroke-width:4; stroke-opacity:1; fill:none" points="1246.73,1486.45 1246.73,1467.55 "/>
<polyline clip-path="url(#clip770)" style="stroke:#000000; stroke-linecap:round; stroke-linejoin:round; stroke-width:4; stroke-opacity:1; fill:none" points="1768.44,1486.45 1768.44,1467.55 "/>
<polyline clip-path="url(#clip770)" style="stroke:#000000; stroke-linecap:round; stroke-linejoin:round; stroke-width:4; stroke-opacity:1; fill:none" points="2290.15,1486.45 2290.15,1467.55 "/>
<path clip-path="url(#clip770)" d="M203.301 1517.37 Q199.69 1517.37 197.861 1520.93 Q196.056 1524.47 196.056 1531.6 Q196.056 1538.71 197.861 1542.27 Q199.69 1545.82 203.301 1545.82 Q206.935 1545.82 208.741 1542.27 Q210.57 1538.71 210.57 1531.6 Q210.57 1524.47 208.741 1520.93 Q206.935 1517.37 203.301 1517.37 M203.301 1513.66 Q209.111 1513.66 212.167 1518.27 Q215.245 1522.85 215.245 1531.6 Q215.245 1540.33 212.167 1544.94 Q209.111 1549.52 203.301 1549.52 Q197.491 1549.52 194.412 1544.94 Q191.357 1540.33 191.357 1531.6 Q191.357 1522.85 194.412 1518.27 Q197.491 1513.66 203.301 1513.66 Z" fill="#000000" fill-rule="nonzero" fill-opacity="1" /><path clip-path="url(#clip770)" d="M704.284 1544.91 L720.604 1544.91 L720.604 1548.85 L698.659 1548.85 L698.659 1544.91 Q701.321 1542.16 705.905 1537.53 Q710.511 1532.88 711.692 1531.53 Q713.937 1529.01 714.817 1527.27 Q715.719 1525.51 715.719 1523.82 Q715.719 1521.07 713.775 1519.33 Q711.854 1517.6 708.752 1517.6 Q706.553 1517.6 704.099 1518.36 Q701.669 1519.13 698.891 1520.68 L698.891 1515.95 Q701.715 1514.82 704.169 1514.24 Q706.622 1513.66 708.659 1513.66 Q714.03 1513.66 717.224 1516.35 Q720.418 1519.03 720.418 1523.52 Q720.418 1525.65 719.608 1527.57 Q718.821 1529.47 716.715 1532.07 Q716.136 1532.74 713.034 1535.95 Q709.932 1539.15 704.284 1544.91 Z" fill="#000000" fill-rule="nonzero" fill-opacity="1" /><path clip-path="url(#clip770)" d="M730.465 1514.29 L748.821 1514.29 L748.821 1518.22 L734.747 1518.22 L734.747 1526.7 Q735.766 1526.35 736.784 1526.19 Q737.803 1526 738.821 1526 Q744.608 1526 747.988 1529.17 Q751.367 1532.34 751.367 1537.76 Q751.367 1543.34 747.895 1546.44 Q744.423 1549.52 738.104 1549.52 Q735.928 1549.52 733.659 1549.15 Q731.414 1548.78 729.006 1548.04 L729.006 1543.34 Q731.09 1544.47 733.312 1545.03 Q735.534 1545.58 738.011 1545.58 Q742.016 1545.58 744.354 1543.48 Q746.691 1541.37 746.691 1537.76 Q746.691 1534.15 744.354 1532.04 Q742.016 1529.94 738.011 1529.94 Q736.136 1529.94 734.261 1530.35 Q732.409 1530.77 730.465 1531.65 L730.465 1514.29 Z" fill="#000000" fill-rule="nonzero" fill-opacity="1" /><path clip-path="url(#clip770)" d="M1221.42 1514.29 L1239.78 1514.29 L1239.78 1518.22 L1225.71 1518.22 L1225.71 1526.7 Q1226.73 1526.35 1227.74 1526.19 Q1228.76 1526 1229.78 1526 Q1235.57 1526 1238.95 1529.17 Q1242.33 1532.34 1242.33 1537.76 Q1242.33 1543.34 1238.86 1546.44 Q1235.38 1549.52 1229.06 1549.52 Q1226.89 1549.52 1224.62 1549.15 Q1222.37 1548.78 1219.97 1548.04 L1219.97 1543.34 Q1222.05 1544.47 1224.27 1545.03 Q1226.49 1545.58 1228.97 1545.58 Q1232.98 1545.58 1235.31 1543.48 Q1237.65 1541.37 1237.65 1537.76 Q1237.65 1534.15 1235.31 1532.04 Q1232.98 1529.94 1228.97 1529.94 Q1227.1 1529.94 1225.22 1530.35 Q1223.37 1530.77 1221.42 1531.65 L1221.42 1514.29 Z" fill="#000000" fill-rule="nonzero" fill-opacity="1" /><path clip-path="url(#clip770)" d="M1261.54 1517.37 Q1257.93 1517.37 1256.1 1520.93 Q1254.3 1524.47 1254.3 1531.6 Q1254.3 1538.71 1256.1 1542.27 Q1257.93 1545.82 1261.54 1545.82 Q1265.17 1545.82 1266.98 1542.27 Q1268.81 1538.71 1268.81 1531.6 Q1268.81 1524.47 1266.98 1520.93 Q1265.17 1517.37 1261.54 1517.37 M1261.54 1513.66 Q1267.35 1513.66 1270.41 1518.27 Q1273.48 1522.85 1273.48 1531.6 Q1273.48 1540.33 1270.41 1544.94 Q1267.35 1549.52 1261.54 1549.52 Q1255.73 1549.52 1252.65 1544.94 Q1249.6 1540.33 1249.6 1531.6 Q1249.6 1522.85 1252.65 1518.27 Q1255.73 1513.66 1261.54 1513.66 Z" fill="#000000" fill-rule="nonzero" fill-opacity="1" /><path clip-path="url(#clip770)" d="M1742.29 1514.29 L1764.51 1514.29 L1764.51 1516.28 L1751.97 1548.85 L1747.08 1548.85 L1758.89 1518.22 L1742.29 1518.22 L1742.29 1514.29 Z" fill="#000000" fill-rule="nonzero" fill-opacity="1" /><path clip-path="url(#clip770)" d="M1773.68 1514.29 L1792.04 1514.29 L1792.04 1518.22 L1777.96 1518.22 L1777.96 1526.7 Q1778.98 1526.35 1780 1526.19 Q1781.02 1526 1782.04 1526 Q1787.82 1526 1791.2 1529.17 Q1794.58 1532.34 1794.58 1537.76 Q1794.58 1543.34 1791.11 1546.44 Q1787.64 1549.52 1781.32 1549.52 Q1779.14 1549.52 1776.88 1549.15 Q1774.63 1548.78 1772.22 1548.04 L1772.22 1543.34 Q1774.31 1544.47 1776.53 1545.03 Q1778.75 1545.58 1781.23 1545.58 Q1785.23 1545.58 1787.57 1543.48 Q1789.91 1541.37 1789.91 1537.76 Q1789.91 1534.15 1787.57 1532.04 Q1785.23 1529.94 1781.23 1529.94 Q1779.35 1529.94 1777.48 1530.35 Q1775.63 1530.77 1773.68 1531.65 L1773.68 1514.29 Z" fill="#000000" fill-rule="nonzero" fill-opacity="1" /><path clip-path="url(#clip770)" d="M2249.76 1544.91 L2257.4 1544.91 L2257.4 1518.55 L2249.09 1520.21 L2249.09 1515.95 L2257.35 1514.29 L2262.03 1514.29 L2262.03 1544.91 L2269.66 1544.91 L2269.66 1548.85 L2249.76 1548.85 L2249.76 1544.91 Z" fill="#000000" fill-rule="nonzero" fill-opacity="1" /><path clip-path="url(#clip770)" d="M2289.11 1517.37 Q2285.5 1517.37 2283.67 1520.93 Q2281.86 1524.47 2281.86 1531.6 Q2281.86 1538.71 2283.67 1542.27 Q2285.5 1545.82 2289.11 1545.82 Q2292.74 1545.82 2294.55 1542.27 Q2296.38 1538.71 2296.38 1531.6 Q2296.38 1524.47 2294.55 1520.93 Q2292.74 1517.37 2289.11 1517.37 M2289.11 1513.66 Q2294.92 1513.66 2297.97 1518.27 Q2301.05 1522.85 2301.05 1531.6 Q2301.05 1540.33 2297.97 1544.94 Q2294.92 1549.52 2289.11 1549.52 Q2283.3 1549.52 2280.22 1544.94 Q2277.16 1540.33 2277.16 1531.6 Q2277.16 1522.85 2280.22 1518.27 Q2283.3 1513.66 2289.11 1513.66 Z" fill="#000000" fill-rule="nonzero" fill-opacity="1" /><path clip-path="url(#clip770)" d="M2319.27 1517.37 Q2315.66 1517.37 2313.83 1520.93 Q2312.03 1524.47 2312.03 1531.6 Q2312.03 1538.71 2313.83 1542.27 Q2315.66 1545.82 2319.27 1545.82 Q2322.9 1545.82 2324.71 1542.27 Q2326.54 1538.71 2326.54 1531.6 Q2326.54 1524.47 2324.71 1520.93 Q2322.9 1517.37 2319.27 1517.37 M2319.27 1513.66 Q2325.08 1513.66 2328.14 1518.27 Q2331.22 1522.85 2331.22 1531.6 Q2331.22 1540.33 2328.14 1544.94 Q2325.08 1549.52 2319.27 1549.52 Q2313.46 1549.52 2310.38 1544.94 Q2307.33 1540.33 2307.33 1531.6 Q2307.33 1522.85 2310.38 1518.27 Q2313.46 1513.66 2319.27 1513.66 Z" fill="#000000" fill-rule="nonzero" fill-opacity="1" /><polyline clip-path="url(#clip770)" style="stroke:#000000; stroke-linecap:round; stroke-linejoin:round; stroke-width:4; stroke-opacity:1; fill:none" points="140.696,1486.45 140.696,47.2441 "/>
<polyline clip-path="url(#clip770)" style="stroke:#000000; stroke-linecap:round; stroke-linejoin:round; stroke-width:4; stroke-opacity:1; fill:none" points="140.696,1448.55 159.593,1448.55 "/>
<polyline clip-path="url(#clip770)" style="stroke:#000000; stroke-linecap:round; stroke-linejoin:round; stroke-width:4; stroke-opacity:1; fill:none" points="140.696,1189.28 159.593,1189.28 "/>
<polyline clip-path="url(#clip770)" style="stroke:#000000; stroke-linecap:round; stroke-linejoin:round; stroke-width:4; stroke-opacity:1; fill:none" points="140.696,930.011 159.593,930.011 "/>
<polyline clip-path="url(#clip770)" style="stroke:#000000; stroke-linecap:round; stroke-linejoin:round; stroke-width:4; stroke-opacity:1; fill:none" points="140.696,670.74 159.593,670.74 "/>
<polyline clip-path="url(#clip770)" style="stroke:#000000; stroke-linecap:round; stroke-linejoin:round; stroke-width:4; stroke-opacity:1; fill:none" points="140.696,411.47 159.593,411.47 "/>
<polyline clip-path="url(#clip770)" style="stroke:#000000; stroke-linecap:round; stroke-linejoin:round; stroke-width:4; stroke-opacity:1; fill:none" points="140.696,152.199 159.593,152.199 "/>
<path clip-path="url(#clip770)" d="M92.7512 1434.35 Q89.1401 1434.35 87.3114 1437.92 Q85.5058 1441.46 85.5058 1448.59 Q85.5058 1455.69 87.3114 1459.26 Q89.1401 1462.8 92.7512 1462.8 Q96.3854 1462.8 98.1909 1459.26 Q100.02 1455.69 100.02 1448.59 Q100.02 1441.46 98.1909 1437.92 Q96.3854 1434.35 92.7512 1434.35 M92.7512 1430.65 Q98.5613 1430.65 101.617 1435.25 Q104.696 1439.84 104.696 1448.59 Q104.696 1457.31 101.617 1461.92 Q98.5613 1466.5 92.7512 1466.5 Q86.941 1466.5 83.8623 1461.92 Q80.8068 1457.31 80.8068 1448.59 Q80.8068 1439.84 83.8623 1435.25 Q86.941 1430.65 92.7512 1430.65 Z" fill="#000000" fill-rule="nonzero" fill-opacity="1" /><path clip-path="url(#clip770)" d="M83.7929 1172 L102.149 1172 L102.149 1175.94 L88.0753 1175.94 L88.0753 1184.41 Q89.0938 1184.06 90.1123 1183.9 Q91.1308 1183.71 92.1493 1183.71 Q97.9363 1183.71 101.316 1186.89 Q104.696 1190.06 104.696 1195.47 Q104.696 1201.05 101.223 1204.15 Q97.7511 1207.23 91.4317 1207.23 Q89.2558 1207.23 86.9873 1206.86 Q84.7419 1206.49 82.3346 1205.75 L82.3346 1201.05 Q84.4179 1202.19 86.6401 1202.74 Q88.8623 1203.3 91.3391 1203.3 Q95.3437 1203.3 97.6817 1201.19 Q100.02 1199.08 100.02 1195.47 Q100.02 1191.86 97.6817 1189.76 Q95.3437 1187.65 91.3391 1187.65 Q89.4641 1187.65 87.5892 1188.07 Q85.7373 1188.48 83.7929 1189.36 L83.7929 1172 Z" fill="#000000" fill-rule="nonzero" fill-opacity="1" /><path clip-path="url(#clip770)" d="M53.3995 943.356 L61.0384 943.356 L61.0384 916.99 L52.7282 918.657 L52.7282 914.397 L60.9921 912.731 L65.668 912.731 L65.668 943.356 L73.3068 943.356 L73.3068 947.291 L53.3995 947.291 L53.3995 943.356 Z" fill="#000000" fill-rule="nonzero" fill-opacity="1" /><path clip-path="url(#clip770)" d="M92.7512 915.81 Q89.1401 915.81 87.3114 919.374 Q85.5058 922.916 85.5058 930.046 Q85.5058 937.152 87.3114 940.717 Q89.1401 944.258 92.7512 944.258 Q96.3854 944.258 98.1909 940.717 Q100.02 937.152 100.02 930.046 Q100.02 922.916 98.1909 919.374 Q96.3854 915.81 92.7512 915.81 M92.7512 912.106 Q98.5613 912.106 101.617 916.712 Q104.696 921.296 104.696 930.046 Q104.696 938.772 101.617 943.379 Q98.5613 947.962 92.7512 947.962 Q86.941 947.962 83.8623 943.379 Q80.8068 938.772 80.8068 930.046 Q80.8068 921.296 83.8623 916.712 Q86.941 912.106 92.7512 912.106 Z" fill="#000000" fill-rule="nonzero" fill-opacity="1" /><path clip-path="url(#clip770)" d="M54.3949 684.085 L62.0337 684.085 L62.0337 657.72 L53.7236 659.386 L53.7236 655.127 L61.9874 653.46 L66.6633 653.46 L66.6633 684.085 L74.3022 684.085 L74.3022 688.02 L54.3949 688.02 L54.3949 684.085 Z" fill="#000000" fill-rule="nonzero" fill-opacity="1" /><path clip-path="url(#clip770)" d="M83.7929 653.46 L102.149 653.46 L102.149 657.395 L88.0753 657.395 L88.0753 665.868 Q89.0938 665.52 90.1123 665.358 Q91.1308 665.173 92.1493 665.173 Q97.9363 665.173 101.316 668.344 Q104.696 671.516 104.696 676.932 Q104.696 682.511 101.223 685.613 Q97.7511 688.692 91.4317 688.692 Q89.2558 688.692 86.9873 688.321 Q84.7419 687.951 82.3346 687.21 L82.3346 682.511 Q84.4179 683.645 86.6401 684.201 Q88.8623 684.756 91.3391 684.756 Q95.3437 684.756 97.6817 682.65 Q100.02 680.543 100.02 676.932 Q100.02 673.321 97.6817 671.215 Q95.3437 669.108 91.3391 669.108 Q89.4641 669.108 87.5892 669.525 Q85.7373 669.942 83.7929 670.821 L83.7929 653.46 Z" fill="#000000" fill-rule="nonzero" fill-opacity="1" /><path clip-path="url(#clip770)" d="M56.6171 424.815 L72.9365 424.815 L72.9365 428.75 L50.9921 428.75 L50.9921 424.815 Q53.6541 422.06 58.2375 417.43 Q62.8439 412.778 64.0245 411.435 Q66.2698 408.912 67.1494 407.176 Q68.0522 405.417 68.0522 403.727 Q68.0522 400.972 66.1078 399.236 Q64.1865 397.5 61.0847 397.5 Q58.8856 397.5 56.4319 398.264 Q54.0014 399.028 51.2236 400.579 L51.2236 395.856 Q54.0477 394.722 56.5014 394.143 Q58.955 393.565 60.9921 393.565 Q66.3624 393.565 69.5568 396.25 Q72.7513 398.935 72.7513 403.426 Q72.7513 405.555 71.9411 407.477 Q71.1541 409.375 69.0476 411.967 Q68.4689 412.639 65.367 415.856 Q62.2652 419.051 56.6171 424.815 Z" fill="#000000" fill-rule="nonzero" fill-opacity="1" /><path clip-path="url(#clip770)" d="M92.7512 397.268 Q89.1401 397.268 87.3114 400.833 Q85.5058 404.375 85.5058 411.504 Q85.5058 418.611 87.3114 422.176 Q89.1401 425.717 92.7512 425.717 Q96.3854 425.717 98.1909 422.176 Q100.02 418.611 100.02 411.504 Q100.02 404.375 98.1909 400.833 Q96.3854 397.268 92.7512 397.268 M92.7512 393.565 Q98.5613 393.565 101.617 398.171 Q104.696 402.755 104.696 411.504 Q104.696 420.231 101.617 424.838 Q98.5613 429.421 92.7512 429.421 Q86.941 429.421 83.8623 424.838 Q80.8068 420.231 80.8068 411.504 Q80.8068 402.755 83.8623 398.171 Q86.941 393.565 92.7512 393.565 Z" fill="#000000" fill-rule="nonzero" fill-opacity="1" /><path clip-path="url(#clip770)" d="M57.6125 165.544 L73.9318 165.544 L73.9318 169.479 L51.9875 169.479 L51.9875 165.544 Q54.6495 162.789 59.2328 158.16 Q63.8393 153.507 65.0198 152.165 Q67.2652 149.641 68.1448 147.905 Q69.0476 146.146 69.0476 144.456 Q69.0476 141.702 67.1032 139.966 Q65.1819 138.229 62.08 138.229 Q59.881 138.229 57.4273 138.993 Q54.9967 139.757 52.219 141.308 L52.219 136.586 Q55.043 135.452 57.4967 134.873 Q59.9504 134.294 61.9874 134.294 Q67.3578 134.294 70.5522 136.979 Q73.7466 139.665 73.7466 144.155 Q73.7466 146.285 72.9365 148.206 Q72.1494 150.104 70.0429 152.697 Q69.4642 153.368 66.3624 156.586 Q63.2606 159.78 57.6125 165.544 Z" fill="#000000" fill-rule="nonzero" fill-opacity="1" /><path clip-path="url(#clip770)" d="M83.7929 134.919 L102.149 134.919 L102.149 138.854 L88.0753 138.854 L88.0753 147.327 Q89.0938 146.979 90.1123 146.817 Q91.1308 146.632 92.1493 146.632 Q97.9363 146.632 101.316 149.803 Q104.696 152.975 104.696 158.391 Q104.696 163.97 101.223 167.072 Q97.7511 170.151 91.4317 170.151 Q89.2558 170.151 86.9873 169.78 Q84.7419 169.41 82.3346 168.669 L82.3346 163.97 Q84.4179 165.104 86.6401 165.66 Q88.8623 166.215 91.3391 166.215 Q95.3437 166.215 97.6817 164.109 Q100.02 162.002 100.02 158.391 Q100.02 154.78 97.6817 152.674 Q95.3437 150.567 91.3391 150.567 Q89.4641 150.567 87.5892 150.984 Q85.7373 151.401 83.7929 152.28 L83.7929 134.919 Z" fill="#000000" fill-rule="nonzero" fill-opacity="1" /><polyline clip-path="url(#clip772)" style="stroke:#009af9; stroke-linecap:round; stroke-linejoin:round; stroke-width:4; stroke-opacity:1; fill:none" points="203.301,1399.71 207.475,1399.52 211.648,1399.32 215.822,1399.13 219.996,1398.92 224.17,1398.72 228.343,1398.51 232.517,1398.3 236.691,1398.09 240.864,1397.87 245.038,1397.65 249.212,1397.43 253.385,1397.2 257.559,1396.96 261.733,1396.73 265.907,1396.48 270.08,1396.24 274.254,1395.98 278.428,1395.73 282.601,1395.46 286.775,1395.19 290.949,1394.92 295.122,1394.63 299.296,1394.34 303.47,1394.04 307.643,1393.74 311.817,1393.42 315.991,1393.1 320.165,1392.77 324.338,1392.42 328.512,1392.07 332.686,1391.7 336.859,1391.33 341.033,1390.94 345.207,1390.53 349.38,1390.12 353.554,1389.68 357.728,1389.24 361.902,1388.77 366.075,1388.29 370.249,1387.79 374.423,1387.27 378.596,1386.73 382.77,1386.17 386.944,1385.59 391.117,1384.98 395.291,1384.35 399.465,1383.69 403.639,1383 407.812,1382.29 411.986,1381.54 416.16,1380.76 420.333,1379.95 424.507,1379.1 428.681,1378.22 432.854,1377.3 437.028,1376.33 441.202,1375.33 445.376,1374.28 449.549,1373.18 453.723,1372.04 457.897,1370.85 462.07,1369.6 466.244,1368.3 470.418,1366.94 474.591,1365.53 478.765,1364.05 482.939,1362.51 487.113,1360.9 491.286,1359.22 495.46,1357.48 499.634,1355.66 503.807,1353.76 507.981,1351.79 512.155,1349.73 516.328,1347.59 520.502,1345.37 524.676,1343.05 528.85,1340.64 533.023,1338.14 537.197,1335.54 541.371,1332.85 545.544,1330.05 549.718,1327.14 553.892,1324.13 558.065,1321.01 562.239,1317.78 566.413,1314.43 570.587,1310.97 574.76,1307.38 578.934,1303.68 583.108,1299.85 587.281,1295.9 591.455,1291.82 595.629,1287.61 599.802,1283.28 603.976,1278.81 608.15,1274.21 612.324,1269.47 616.497,1264.6 620.671,1259.6 624.845,1254.46 629.018,1249.18 633.192,1243.77 637.366,1238.22 641.539,1232.53 645.713,1226.71 649.887,1220.75 654.06,1214.66 658.234,1208.44 662.408,1202.08 666.582,1195.6 670.755,1188.98 674.929,1182.25 679.103,1175.39 683.276,1168.4 687.45,1161.31 691.624,1154.1 695.797,1146.77 699.971,1139.35 704.145,1131.82 708.319,1124.19 712.492,1116.48 716.666,1108.67 720.84,1100.79 725.013,1092.82 729.187,1084.79 733.361,1076.69 737.534,1068.54 741.708,1060.33 745.882,1052.08 750.056,1043.8 754.229,1035.48 758.403,1027.14 762.577,1018.79 766.75,1010.43 770.924,1002.07 775.098,993.717 779.271,985.384 783.445,977.077 787.619,968.805 791.793,960.575 795.966,952.396 800.14,944.276 804.314,936.225 808.487,928.251 812.661,920.361 816.835,912.565 821.008,904.871 825.182,897.286 829.356,889.819 833.53,882.478 837.703,875.27 841.877,868.202 846.051,861.283 850.224,854.517 854.398,847.913 858.572,841.477 862.745,835.213 866.919,829.129 871.093,823.228 875.267,817.516 879.44,811.997 883.614,806.675 887.788,801.552 891.961,796.632 896.135,791.917 900.309,787.408 904.482,783.107 908.656,779.014 912.83,775.128 917.004,771.449 921.177,767.975 925.351,764.704 929.525,761.632 933.698,758.756 937.872,756.07 942.046,753.57 946.219,751.249 950.393,749.099 954.567,747.112 958.741,745.278 962.914,743.588 967.088,742.03 971.262,740.59 975.435,739.256 979.609,738.01 983.783,736.838 987.956,735.719 992.13,734.635 996.304,733.564 1000.48,732.48 1004.65,731.359 1008.82,730.172 1013,728.886 1017.17,727.469 1021.35,725.881 1025.52,724.082 1029.69,722.024 1033.87,719.655 1038.04,716.919 1042.21,713.749 1046.39,710.073 1050.56,705.808 1054.74,700.859 1058.91,695.116 1063.08,688.455 1067.26,680.728 1071.43,671.765 1075.6,661.365 1079.78,649.288 1083.95,635.249 1088.13,618.906 1092.3,599.848 1096.47,577.579 1100.65,551.503 1104.82,520.916 1108.99,485.007 1113.17,442.907 1117.34,393.825 1121.51,337.396 1125.69,274.423 1129.86,208.23 1134.04,146.464 1138.21,101.767 1142.38,87.9763 1146.56,111.426 1150.73,165.751 1154.9,237.084 1159.08,312.754 1163.25,385.081 1167.43,450.711 1171.6,508.808 1175.77,559.704 1179.95,604.156 1184.12,642.999 1188.29,677.007 1192.47,706.847 1196.64,733.075 1200.82,756.145 1204.99,776.425 1209.16,794.211 1213.34,809.739 1217.51,823.196 1221.68,834.73 1225.86,844.45 1230.03,852.442 1234.2,858.763 1238.38,863.45 1242.55,866.519 1246.73,867.973 1250.9,867.795 1255.07,865.959 1259.25,862.424 1263.42,857.139 1267.59,850.048 1271.77,841.088 1275.94,830.194 1280.12,817.307 1284.29,802.378 1288.46,785.377 1292.64,766.304 1296.81,745.207 1300.98,722.192 1305.16,697.449 1309.33,671.27 1313.5,644.072 1317.68,616.414 1321.85,589.005 1326.03,562.704 1330.2,538.492 1334.37,517.431 1338.55,500.588 1342.72,488.946 1346.89,483.306 1351.07,484.192 1355.24,491.793 1359.42,505.935 1363.59,526.108 1367.76,551.526 1371.94,581.222 1376.11,614.142 1380.28,649.242 1384.46,685.555 1388.63,722.24 1392.81,758.603 1396.98,794.103 1401.15,828.343 1405.33,861.048 1409.5,892.05 1413.67,921.262 1417.85,948.66 1422.02,974.268 1426.19,998.142 1430.37,1020.36 1434.54,1041.01 1438.72,1060.19 1442.89,1078 1447.06,1094.55 1451.24,1109.91 1455.41,1124.2 1459.58,1137.48 1463.76,1149.85 1467.93,1161.37 1472.11,1172.12 1476.28,1182.15 1480.45,1191.53 1484.63,1200.31 1488.8,1208.54 1492.97,1216.25 1497.15,1223.5 1501.32,1230.31 1505.5,1236.72 1509.67,1242.76 1513.84,1248.47 1518.02,1253.85 1522.19,1258.94 1526.36,1263.76 1530.54,1268.33 1534.71,1272.66 1538.88,1276.78 1543.06,1280.69 1547.23,1284.41 1551.41,1287.96 1555.58,1291.34 1559.75,1294.56 1563.93,1297.64 1568.1,1300.58 1572.27,1303.4 1576.45,1306.09 1580.62,1308.67 1584.8,1311.15 1588.97,1313.53 1593.14,1315.81 1597.32,1318.01 1601.49,1320.12 1605.66,1322.15 1609.84,1324.1 1614.01,1325.99 1618.18,1327.81 1622.36,1329.57 1626.53,1331.26 1630.71,1332.9 1634.88,1334.48 1639.05,1336.02 1643.23,1337.5 1647.4,1338.94 1651.57,1340.33 1655.75,1341.68 1659.92,1342.99 1664.1,1344.26 1668.27,1345.49 1672.44,1346.69 1676.62,1347.86 1680.79,1348.99 1684.96,1350.09 1689.14,1351.16 1693.31,1352.21 1697.49,1353.23 1701.66,1354.22 1705.83,1355.18 1710.01,1356.12 1714.18,1357.04 1718.35,1357.94 1722.53,1358.81 1726.7,1359.67 1730.87,1360.5 1735.05,1361.32 1739.22,1362.11 1743.4,1362.89 1747.57,1363.65 1751.74,1364.4 1755.92,1365.13 1760.09,1365.84 1764.26,1366.54 1768.44,1367.23 1772.61,1367.9 1776.79,1368.56 1780.96,1369.2 1785.13,1369.83 1789.31,1370.45 1793.48,1371.06 1797.65,1371.65 1801.83,1372.24 1806,1372.81 1810.18,1373.38 1814.35,1373.93 1818.52,1374.47 1822.7,1375.01 1826.87,1375.53 1831.04,1376.05 1835.22,1376.55 1839.39,1377.05 1843.56,1377.54 1847.74,1378.02 1851.91,1378.5 1856.09,1378.96 1860.26,1379.42 1864.43,1379.87 1868.61,1380.32 1872.78,1380.75 1876.95,1381.18 1881.13,1381.61 1885.3,1382.02 1889.48,1382.43 1893.65,1382.84 1897.82,1383.24 1902,1383.63 1906.17,1384.02 1910.34,1384.4 1914.52,1384.78 1918.69,1385.15 1922.86,1385.51 1927.04,1385.87 1931.21,1386.23 1935.39,1386.58 1939.56,1386.92 1943.73,1387.27 1947.91,1387.6 1952.08,1387.93 1956.25,1388.26 1960.43,1388.59 1964.6,1388.91 1968.78,1389.22 1972.95,1389.53 1977.12,1389.84 1981.3,1390.14 1985.47,1390.44 1989.64,1390.74 1993.82,1391.03 1997.99,1391.32 2002.17,1391.61 2006.34,1391.89 2010.51,1392.17 2014.69,1392.44 2018.86,1392.72 2023.03,1392.99 2027.21,1393.25 2031.38,1393.51 2035.55,1393.77 2039.73,1394.03 2043.9,1394.29 2048.08,1394.54 2052.25,1394.79 2056.42,1395.03 2060.6,1395.28 2064.77,1395.52 2068.94,1395.75 2073.12,1395.99 2077.29,1396.22 2081.47,1396.45 2085.64,1396.68 2089.81,1396.91 2093.99,1397.13 2098.16,1397.35 2102.33,1397.57 2106.51,1397.79 2110.68,1398 2114.86,1398.21 2119.03,1398.42 2123.2,1398.63 2127.38,1398.84 2131.55,1399.04 2135.72,1399.25 2139.9,1399.45 2144.07,1399.64 2148.24,1399.84 2152.42,1400.03 2156.59,1400.23 2160.77,1400.42 2164.94,1400.61 2169.11,1400.79 2173.29,1400.98 2177.46,1401.16 2181.63,1401.35 2185.81,1401.53 2189.98,1401.71 2194.16,1401.88 2198.33,1402.06 2202.5,1402.23 2206.68,1402.41 2210.85,1402.58 2215.02,1402.75 2219.2,1402.92 2223.37,1403.08 2227.54,1403.25 2231.72,1403.41 2235.89,1403.57 2240.07,1403.73 2244.24,1403.89 2248.41,1404.05 2252.59,1404.21 2256.76,1404.37 2260.93,1404.52 2265.11,1404.67 2269.28,1404.83 2273.46,1404.98 2277.63,1405.13 2281.8,1405.27 2285.98,1405.42 2290.15,1405.57 "/>
<polyline clip-path="url(#clip772)" style="stroke:#e26f46; stroke-linecap:round; stroke-linejoin:round; stroke-width:4; stroke-opacity:1; fill:none" points="203.301,1379.06 207.475,1409.09 211.648,1408.97 215.822,1390.09 219.996,1395.44 224.17,1390.29 228.343,1414.86 232.517,1402.2 236.691,1383.57 240.864,1395.82 245.038,1403.62 249.212,1410.29 253.385,1391.67 257.559,1390.73 261.733,1410.28 265.907,1406.01 270.08,1387.52 274.254,1433.92 278.428,1397.25 282.601,1376.83 286.775,1411.34 290.949,1415.2 295.122,1399.09 299.296,1404.81 303.47,1409.45 307.643,1418.62 311.817,1377.16 315.991,1357.3 320.165,1381.65 324.338,1391.88 328.512,1364.19 332.686,1383.9 336.859,1397.44 341.033,1422.8 345.207,1353.35 349.38,1410.92 353.554,1406.48 357.728,1397.02 361.902,1390.59 366.075,1400.21 370.249,1382.36 374.423,1399.78 378.596,1387.2 382.77,1386.18 386.944,1396.38 391.117,1380.82 395.291,1386.13 399.465,1377.46 403.639,1382.04 407.812,1364.34 411.986,1360.97 416.16,1371.91 420.333,1355.61 424.507,1356.64 428.681,1373.62 432.854,1378.75 437.028,1384.13 441.202,1366.53 445.376,1355.46 449.549,1372.82 453.723,1378.62 457.897,1367.94 462.07,1364.25 466.244,1384 470.418,1381.98 474.591,1387.09 478.765,1358.43 482.939,1345.3 487.113,1374.75 491.286,1365.86 495.46,1369.51 499.634,1370.97 503.807,1343.26 507.981,1358.9 512.155,1336.26 516.328,1307.57 520.502,1347.88 524.676,1352.91 528.85,1347.31 533.023,1349.89 537.197,1360.12 541.371,1339.72 545.544,1333.17 549.718,1316.94 553.892,1318.78 558.065,1313.6 562.239,1323.32 566.413,1323.28 570.587,1332.64 574.76,1303.09 578.934,1302.36 583.108,1323.06 587.281,1304.73 591.455,1282.48 595.629,1275.97 599.802,1269.6 603.976,1287.63 608.15,1273.5 612.324,1293.96 616.497,1304.02 620.671,1254.03 624.845,1260.47 629.018,1263.85 633.192,1202.19 637.366,1221.33 641.539,1194.77 645.713,1247.05 649.887,1218.12 654.06,1203.49 658.234,1226.08 662.408,1204.15 666.582,1184.29 670.755,1194.28 674.929,1197.13 679.103,1184.13 683.276,1162.11 687.45,1162.74 691.624,1192.67 695.797,1165.65 699.971,1132.57 704.145,1129.05 708.319,1130.49 712.492,1122.49 716.666,1083.37 720.84,1093.5 725.013,1075.81 729.187,1092.16 733.361,1061.58 737.534,1064.8 741.708,1070.19 745.882,1045.68 750.056,1035.75 754.229,1034.29 758.403,1021.31 762.577,1035.41 766.75,1003.88 770.924,1001.28 775.098,981.469 779.271,999.088 783.445,979.881 787.619,985.895 791.793,929.571 795.966,938.42 800.14,957.369 804.314,950.786 808.487,929.666 812.661,919.875 816.835,907.316 821.008,906.341 825.182,903.27 829.356,885.043 833.53,883.085 837.703,884.953 841.877,881.519 846.051,879.931 850.224,846.271 854.398,836.071 858.572,850.877 862.745,839.591 866.919,836.458 871.093,836.374 875.267,820.117 879.44,813.331 883.614,810.259 887.788,799.389 891.961,801.635 896.135,793.599 900.309,792.285 904.482,800.659 908.656,800.705 912.83,778.714 917.004,786.214 921.177,768.683 925.351,771.144 929.525,781.071 933.698,771.877 937.872,751.551 942.046,758.765 946.219,743.422 950.393,713.957 954.567,783.24 958.741,726.497 962.914,764.103 967.088,743.272 971.262,748.21 975.435,733.642 979.609,752.199 983.783,739.176 987.956,739.352 992.13,785.684 996.304,721.107 1000.48,734.34 1004.65,740.761 1008.82,703.335 1013,711.816 1017.17,753.184 1021.35,733.621 1025.52,730.612 1029.69,742.914 1033.87,708.351 1038.04,726.79 1042.21,714.473 1046.39,714.547 1050.56,710.32 1054.74,708.423 1058.91,715.59 1063.08,691.5 1067.26,687.623 1071.43,684.428 1075.6,656.72 1079.78,625.998 1083.95,615.697 1088.13,629.777 1092.3,577.801 1096.47,616.914 1100.65,558.08 1104.82,533.685 1108.99,496.255 1113.17,428.175 1117.34,387.763 1121.51,362.115 1125.69,294.216 1129.86,193.155 1134.04,141.789 1138.21,90.6414 1142.38,121.321 1146.56,136.364 1150.73,164.808 1154.9,217.813 1159.08,299.86 1163.25,373.86 1167.43,435.013 1171.6,507.482 1175.77,569.515 1179.95,625.8 1184.12,638.535 1188.29,685.381 1192.47,689.43 1196.64,735.612 1200.82,731.674 1204.99,758.168 1209.16,825.729 1213.34,802.639 1217.51,846.188 1221.68,825.519 1225.86,819.886 1230.03,870.211 1234.2,875.546 1238.38,850.363 1242.55,858.602 1246.73,853.186 1250.9,859.86 1255.07,878.4 1259.25,854.684 1263.42,850.695 1267.59,848.38 1271.77,845.83 1275.94,823.894 1280.12,822.565 1284.29,799.307 1288.46,769.225 1292.64,764.297 1296.81,734.024 1300.98,713.091 1305.16,690.722 1309.33,673.788 1313.5,658.046 1317.68,609.582 1321.85,598.49 1326.03,554.266 1330.2,525.146 1334.37,515.927 1338.55,517.53 1342.72,506.201 1346.89,456.685 1351.07,479.156 1355.24,501.038 1359.42,500.939 1363.59,537.402 1367.76,525.169 1371.94,604.74 1376.11,606.754 1380.28,654.193 1384.46,699.582 1388.63,754.341 1392.81,737.922 1396.98,796.891 1401.15,798.352 1405.33,848.502 1409.5,875.222 1413.67,927.824 1417.85,940.286 1422.02,993.626 1426.19,1006.38 1430.37,1012.81 1434.54,1036.34 1438.72,1070.54 1442.89,1092.03 1447.06,1099.79 1451.24,1109.77 1455.41,1164.14 1459.58,1135.41 1463.76,1152.28 1467.93,1176.78 1472.11,1160.44 1476.28,1162.89 1480.45,1200.25 1484.63,1227.09 1488.8,1176.29 1492.97,1247.51 1497.15,1244.43 1501.32,1232.53 1505.5,1237.31 1509.67,1232.81 1513.84,1244.63 1518.02,1264.75 1522.19,1234.33 1526.36,1282.52 1530.54,1274.16 1534.71,1251.62 1538.88,1269.8 1543.06,1274.65 1547.23,1303.96 1551.41,1308.63 1555.58,1296.27 1559.75,1308.1 1563.93,1302.87 1568.1,1316.97 1572.27,1291.58 1576.45,1318.13 1580.62,1284.24 1584.8,1315.43 1588.97,1347.89 1593.14,1322.06 1597.32,1296.77 1601.49,1329.85 1605.66,1334.74 1609.84,1324.14 1614.01,1331.18 1618.18,1340.46 1622.36,1333.91 1626.53,1354.11 1630.71,1341.61 1634.88,1335.78 1639.05,1343.58 1643.23,1325.02 1647.4,1310.63 1651.57,1361.43 1655.75,1347.61 1659.92,1317.85 1664.1,1327.77 1668.27,1363.36 1672.44,1355.21 1676.62,1355.37 1680.79,1366.42 1684.96,1337.29 1689.14,1351.49 1693.31,1337.9 1697.49,1375.71 1701.66,1345.03 1705.83,1366.75 1710.01,1355.86 1714.18,1369.07 1718.35,1356.33 1722.53,1349.39 1726.7,1366.74 1730.87,1347.11 1735.05,1371.01 1739.22,1374.07 1743.4,1368.64 1747.57,1386.19 1751.74,1359.74 1755.92,1361.27 1760.09,1362.91 1764.26,1361.24 1768.44,1356.7 1772.61,1369.57 1776.79,1386.54 1780.96,1383.97 1785.13,1395.72 1789.31,1381.14 1793.48,1397.61 1797.65,1399.19 1801.83,1398.49 1806,1390.91 1810.18,1398.54 1814.35,1385.97 1818.52,1377.01 1822.7,1363.63 1826.87,1366.37 1831.04,1377.23 1835.22,1369.35 1839.39,1351.02 1843.56,1398.65 1847.74,1406.49 1851.91,1371.48 1856.09,1395.21 1860.26,1359.84 1864.43,1391.41 1868.61,1375.43 1872.78,1396.93 1876.95,1401.22 1881.13,1396.77 1885.3,1395.39 1889.48,1394.84 1893.65,1397.48 1897.82,1392.42 1902,1384.21 1906.17,1376.92 1910.34,1395.15 1914.52,1382.56 1918.69,1385.47 1922.86,1348.2 1927.04,1378.61 1931.21,1379.69 1935.39,1376.35 1939.56,1373.07 1943.73,1380.34 1947.91,1409.47 1952.08,1389.09 1956.25,1400.65 1960.43,1417.18 1964.6,1356.21 1968.78,1400.74 1972.95,1371.17 1977.12,1377.61 1981.3,1379.28 1985.47,1408.86 1989.64,1407.86 1993.82,1416.44 1997.99,1410.89 2002.17,1397.69 2006.34,1411.98 2010.51,1388.17 2014.69,1397.95 2018.86,1390.49 2023.03,1389.77 2027.21,1390.39 2031.38,1393.28 2035.55,1395.05 2039.73,1376.6 2043.9,1409.93 2048.08,1422.06 2052.25,1394.08 2056.42,1394.63 2060.6,1396.03 2064.77,1445.72 2068.94,1396.36 2073.12,1384.24 2077.29,1367.45 2081.47,1386.35 2085.64,1377.52 2089.81,1387.45 2093.99,1410.85 2098.16,1404.08 2102.33,1412.73 2106.51,1404.89 2110.68,1388.02 2114.86,1404.86 2119.03,1394.54 2123.2,1398.32 2127.38,1377.46 2131.55,1402.77 2135.72,1409.25 2139.9,1388.82 2144.07,1400.88 2148.24,1399.07 2152.42,1418.21 2156.59,1393.79 2160.77,1378.83 2164.94,1375.38 2169.11,1388.51 2173.29,1407.35 2177.46,1382.93 2181.63,1395.68 2185.81,1413.52 2189.98,1397.04 2194.16,1393.45 2198.33,1394.58 2202.5,1404.74 2206.68,1420.26 2210.85,1376.41 2215.02,1390.63 2219.2,1402.26 2223.37,1399.61 2227.54,1435.97 2231.72,1402.38 2235.89,1398.66 2240.07,1408.84 2244.24,1393.28 2248.41,1394.61 2252.59,1427.79 2256.76,1399.77 2260.93,1399.92 2265.11,1413.03 2269.28,1404.53 2273.46,1407.89 2277.63,1402.81 2281.8,1386.33 2285.98,1409.4 2290.15,1398.77 "/>
<path clip-path="url(#clip770)" d="M1706.29 250.738 L2279.02 250.738 L2279.02 95.2176 L1706.29 95.2176  Z" fill="#ffffff" fill-rule="evenodd" fill-opacity="1"/>
<polyline clip-path="url(#clip770)" style="stroke:#000000; stroke-linecap:round; stroke-linejoin:round; stroke-width:4; stroke-opacity:1; fill:none" points="1706.29,250.738 2279.02,250.738 2279.02,95.2176 1706.29,95.2176 1706.29,250.738 "/>
<polyline clip-path="url(#clip770)" style="stroke:#009af9; stroke-linecap:round; stroke-linejoin:round; stroke-width:4; stroke-opacity:1; fill:none" points="1730.87,147.058 1878.34,147.058 "/>
<path clip-path="url(#clip770)" d="M1902.92 129.778 L1932.15 129.778 L1932.15 133.713 L1919.88 133.713 L1919.88 164.338 L1915.18 164.338 L1915.18 133.713 L1902.92 133.713 L1902.92 129.778 Z" fill="#000000" fill-rule="nonzero" fill-opacity="1" /><path clip-path="url(#clip770)" d="M1958.03 148.689 L1958.03 164.338 L1953.77 164.338 L1953.77 148.828 Q1953.77 145.148 1952.34 143.319 Q1950.9 141.49 1948.03 141.49 Q1944.58 141.49 1942.59 143.69 Q1940.6 145.889 1940.6 149.685 L1940.6 164.338 L1936.32 164.338 L1936.32 128.319 L1940.6 128.319 L1940.6 142.44 Q1942.13 140.102 1944.19 138.944 Q1946.27 137.787 1948.98 137.787 Q1953.45 137.787 1955.74 140.565 Q1958.03 143.319 1958.03 148.689 Z" fill="#000000" fill-rule="nonzero" fill-opacity="1" /><path clip-path="url(#clip770)" d="M1988.7 150.31 L1988.7 152.393 L1969.12 152.393 Q1969.4 156.791 1971.76 159.106 Q1974.14 161.398 1978.38 161.398 Q1980.83 161.398 1983.12 160.796 Q1985.44 160.194 1987.71 158.99 L1987.71 163.018 Q1985.42 163.99 1983.01 164.5 Q1980.6 165.009 1978.12 165.009 Q1971.92 165.009 1968.29 161.398 Q1964.68 157.787 1964.68 151.629 Q1964.68 145.264 1968.1 141.537 Q1971.55 137.787 1977.38 137.787 Q1982.61 137.787 1985.65 141.166 Q1988.7 144.523 1988.7 150.31 M1984.44 149.06 Q1984.4 145.565 1982.48 143.481 Q1980.58 141.398 1977.43 141.398 Q1973.86 141.398 1971.71 143.412 Q1969.58 145.426 1969.26 149.083 L1984.44 149.06 Z" fill="#000000" fill-rule="nonzero" fill-opacity="1" /><path clip-path="url(#clip770)" d="M2014.98 131.051 L2014.98 138.412 L2023.75 138.412 L2023.75 141.722 L2014.98 141.722 L2014.98 155.796 Q2014.98 158.967 2015.83 159.87 Q2016.71 160.773 2019.37 160.773 L2023.75 160.773 L2023.75 164.338 L2019.37 164.338 Q2014.44 164.338 2012.57 162.509 Q2010.69 160.657 2010.69 155.796 L2010.69 141.722 L2007.57 141.722 L2007.57 138.412 L2010.69 138.412 L2010.69 131.051 L2014.98 131.051 Z" fill="#000000" fill-rule="nonzero" fill-opacity="1" /><path clip-path="url(#clip770)" d="M2044.37 142.393 Q2043.66 141.977 2042.8 141.791 Q2041.97 141.583 2040.95 141.583 Q2037.34 141.583 2035.39 143.944 Q2033.47 146.282 2033.47 150.68 L2033.47 164.338 L2029.19 164.338 L2029.19 138.412 L2033.47 138.412 L2033.47 142.44 Q2034.81 140.078 2036.97 138.944 Q2039.12 137.787 2042.2 137.787 Q2042.64 137.787 2043.17 137.856 Q2043.7 137.903 2044.35 138.018 L2044.37 142.393 Z" fill="#000000" fill-rule="nonzero" fill-opacity="1" /><path clip-path="url(#clip770)" d="M2048.4 154.106 L2048.4 138.412 L2052.66 138.412 L2052.66 153.944 Q2052.66 157.625 2054.1 159.476 Q2055.53 161.305 2058.4 161.305 Q2061.85 161.305 2063.84 159.106 Q2065.86 156.907 2065.86 153.111 L2065.86 138.412 L2070.11 138.412 L2070.11 164.338 L2065.86 164.338 L2065.86 160.356 Q2064.3 162.717 2062.24 163.875 Q2060.21 165.009 2057.5 165.009 Q2053.03 165.009 2050.72 162.231 Q2048.4 159.453 2048.4 154.106 M2059.12 137.787 L2059.12 137.787 Z" fill="#000000" fill-rule="nonzero" fill-opacity="1" /><path clip-path="url(#clip770)" d="M2101.06 150.31 L2101.06 152.393 L2081.48 152.393 Q2081.76 156.791 2084.12 159.106 Q2086.5 161.398 2090.74 161.398 Q2093.19 161.398 2095.48 160.796 Q2097.8 160.194 2100.07 158.99 L2100.07 163.018 Q2097.78 163.99 2095.37 164.5 Q2092.96 165.009 2090.48 165.009 Q2084.28 165.009 2080.65 161.398 Q2077.04 157.787 2077.04 151.629 Q2077.04 145.264 2080.46 141.537 Q2083.91 137.787 2089.74 137.787 Q2094.98 137.787 2098.01 141.166 Q2101.06 144.523 2101.06 150.31 M2096.8 149.06 Q2096.76 145.565 2094.84 143.481 Q2092.94 141.398 2089.79 141.398 Q2086.23 141.398 2084.07 143.412 Q2081.94 145.426 2081.62 149.083 L2096.8 149.06 Z" fill="#000000" fill-rule="nonzero" fill-opacity="1" /><path clip-path="url(#clip770)" d="M2139.65 139.176 L2139.65 143.203 Q2137.85 142.277 2135.9 141.815 Q2133.96 141.352 2131.87 141.352 Q2128.7 141.352 2127.1 142.324 Q2125.53 143.296 2125.53 145.24 Q2125.53 146.722 2126.67 147.578 Q2127.8 148.412 2131.23 149.176 L2132.68 149.5 Q2137.22 150.472 2139.12 152.254 Q2141.04 154.014 2141.04 157.185 Q2141.04 160.796 2138.17 162.902 Q2135.32 165.009 2130.32 165.009 Q2128.24 165.009 2125.97 164.592 Q2123.73 164.199 2121.23 163.388 L2121.23 158.99 Q2123.59 160.217 2125.88 160.842 Q2128.17 161.444 2130.41 161.444 Q2133.42 161.444 2135.04 160.426 Q2136.66 159.384 2136.66 157.509 Q2136.66 155.773 2135.48 154.847 Q2134.33 153.921 2130.37 153.064 L2128.89 152.717 Q2124.93 151.884 2123.17 150.171 Q2121.41 148.435 2121.41 145.426 Q2121.41 141.768 2124 139.778 Q2126.6 137.787 2131.36 137.787 Q2133.73 137.787 2135.81 138.134 Q2137.89 138.481 2139.65 139.176 Z" fill="#000000" fill-rule="nonzero" fill-opacity="1" /><path clip-path="url(#clip770)" d="M2147.82 138.412 L2152.08 138.412 L2152.08 164.338 L2147.82 164.338 L2147.82 138.412 M2147.82 128.319 L2152.08 128.319 L2152.08 133.713 L2147.82 133.713 L2147.82 128.319 Z" fill="#000000" fill-rule="nonzero" fill-opacity="1" /><path clip-path="url(#clip770)" d="M2178.05 151.074 Q2178.05 146.444 2176.13 143.898 Q2174.23 141.352 2170.79 141.352 Q2167.36 141.352 2165.44 143.898 Q2163.54 146.444 2163.54 151.074 Q2163.54 155.68 2165.44 158.226 Q2167.36 160.773 2170.79 160.773 Q2174.23 160.773 2176.13 158.226 Q2178.05 155.68 2178.05 151.074 M2182.31 161.12 Q2182.31 167.74 2179.37 170.958 Q2176.43 174.199 2170.37 174.199 Q2168.12 174.199 2166.13 173.851 Q2164.14 173.527 2162.27 172.833 L2162.27 168.689 Q2164.14 169.708 2165.97 170.194 Q2167.8 170.68 2169.7 170.68 Q2173.89 170.68 2175.97 168.481 Q2178.05 166.305 2178.05 161.884 L2178.05 159.777 Q2176.73 162.069 2174.67 163.203 Q2172.61 164.338 2169.74 164.338 Q2164.97 164.338 2162.06 160.703 Q2159.14 157.069 2159.14 151.074 Q2159.14 145.055 2162.06 141.421 Q2164.97 137.787 2169.74 137.787 Q2172.61 137.787 2174.67 138.921 Q2176.73 140.055 2178.05 142.347 L2178.05 138.412 L2182.31 138.412 L2182.31 161.12 Z" fill="#000000" fill-rule="nonzero" fill-opacity="1" /><path clip-path="url(#clip770)" d="M2212.64 148.689 L2212.64 164.338 L2208.38 164.338 L2208.38 148.828 Q2208.38 145.148 2206.94 143.319 Q2205.51 141.49 2202.64 141.49 Q2199.19 141.49 2197.2 143.69 Q2195.21 145.889 2195.21 149.685 L2195.21 164.338 L2190.92 164.338 L2190.92 138.412 L2195.21 138.412 L2195.21 142.44 Q2196.73 140.102 2198.79 138.944 Q2200.88 137.787 2203.59 137.787 Q2208.05 137.787 2210.35 140.565 Q2212.64 143.319 2212.64 148.689 Z" fill="#000000" fill-rule="nonzero" fill-opacity="1" /><path clip-path="url(#clip770)" d="M2232.91 151.305 Q2227.75 151.305 2225.76 152.486 Q2223.77 153.666 2223.77 156.514 Q2223.77 158.782 2225.25 160.125 Q2226.76 161.444 2229.33 161.444 Q2232.87 161.444 2235 158.944 Q2237.15 156.421 2237.15 152.254 L2237.15 151.305 L2232.91 151.305 M2241.41 149.546 L2241.41 164.338 L2237.15 164.338 L2237.15 160.402 Q2235.69 162.763 2233.52 163.898 Q2231.34 165.009 2228.19 165.009 Q2224.21 165.009 2221.85 162.787 Q2219.51 160.541 2219.51 156.791 Q2219.51 152.416 2222.43 150.194 Q2225.37 147.972 2231.18 147.972 L2237.15 147.972 L2237.15 147.555 Q2237.15 144.615 2235.21 143.018 Q2233.28 141.398 2229.79 141.398 Q2227.57 141.398 2225.46 141.93 Q2223.35 142.463 2221.41 143.527 L2221.41 139.592 Q2223.75 138.69 2225.95 138.25 Q2228.15 137.787 2230.23 137.787 Q2235.85 137.787 2238.63 140.703 Q2241.41 143.62 2241.41 149.546 Z" fill="#000000" fill-rule="nonzero" fill-opacity="1" /><path clip-path="url(#clip770)" d="M2250.18 128.319 L2254.44 128.319 L2254.44 164.338 L2250.18 164.338 L2250.18 128.319 Z" fill="#000000" fill-rule="nonzero" fill-opacity="1" /><polyline clip-path="url(#clip770)" style="stroke:#e26f46; stroke-linecap:round; stroke-linejoin:round; stroke-width:4; stroke-opacity:1; fill:none" points="1730.87,198.898 1878.34,198.898 "/>
<path clip-path="url(#clip770)" d="M1918.93 184.789 Q1913.84 184.789 1910.83 188.585 Q1907.85 192.381 1907.85 198.932 Q1907.85 205.46 1910.83 209.256 Q1913.84 213.053 1918.93 213.053 Q1924.03 213.053 1926.99 209.256 Q1929.98 205.46 1929.98 198.932 Q1929.98 192.381 1926.99 188.585 Q1924.03 184.789 1918.93 184.789 M1918.93 180.993 Q1926.2 180.993 1930.55 185.877 Q1934.91 190.738 1934.91 198.932 Q1934.91 207.104 1930.55 211.988 Q1926.2 216.849 1918.93 216.849 Q1911.64 216.849 1907.27 211.988 Q1902.92 207.127 1902.92 198.932 Q1902.92 190.738 1907.27 185.877 Q1911.64 180.993 1918.93 180.993 Z" fill="#000000" fill-rule="nonzero" fill-opacity="1" /><path clip-path="url(#clip770)" d="M1960.65 203.238 Q1960.65 198.539 1958.7 195.877 Q1956.78 193.192 1953.4 193.192 Q1950.02 193.192 1948.08 195.877 Q1946.16 198.539 1946.16 203.238 Q1946.16 207.937 1948.08 210.622 Q1950.02 213.284 1953.4 213.284 Q1956.78 213.284 1958.7 210.622 Q1960.65 207.937 1960.65 203.238 M1946.16 194.187 Q1947.5 191.872 1949.54 190.761 Q1951.6 189.627 1954.44 189.627 Q1959.17 189.627 1962.11 193.377 Q1965.07 197.127 1965.07 203.238 Q1965.07 209.349 1962.11 213.099 Q1959.17 216.849 1954.44 216.849 Q1951.6 216.849 1949.54 215.738 Q1947.5 214.603 1946.16 212.289 L1946.16 216.178 L1941.87 216.178 L1941.87 180.159 L1946.16 180.159 L1946.16 194.187 Z" fill="#000000" fill-rule="nonzero" fill-opacity="1" /><path clip-path="url(#clip770)" d="M1988.66 191.016 L1988.66 195.043 Q1986.85 194.117 1984.91 193.655 Q1982.96 193.192 1980.88 193.192 Q1977.71 193.192 1976.11 194.164 Q1974.54 195.136 1974.54 197.08 Q1974.54 198.562 1975.67 199.418 Q1976.8 200.252 1980.23 201.016 L1981.69 201.34 Q1986.23 202.312 1988.12 204.094 Q1990.05 205.854 1990.05 209.025 Q1990.05 212.636 1987.18 214.742 Q1984.33 216.849 1979.33 216.849 Q1977.24 216.849 1974.98 216.432 Q1972.73 216.039 1970.23 215.228 L1970.23 210.83 Q1972.59 212.057 1974.88 212.682 Q1977.18 213.284 1979.42 213.284 Q1982.43 213.284 1984.05 212.266 Q1985.67 211.224 1985.67 209.349 Q1985.67 207.613 1984.49 206.687 Q1983.33 205.761 1979.37 204.904 L1977.89 204.557 Q1973.93 203.724 1972.18 202.011 Q1970.42 200.275 1970.42 197.266 Q1970.42 193.608 1973.01 191.618 Q1975.6 189.627 1980.37 189.627 Q1982.73 189.627 1984.81 189.974 Q1986.9 190.321 1988.66 191.016 Z" fill="#000000" fill-rule="nonzero" fill-opacity="1" /><path clip-path="url(#clip770)" d="M2019 202.15 L2019 204.233 L1999.42 204.233 Q1999.7 208.631 2002.06 210.946 Q2004.44 213.238 2008.68 213.238 Q2011.13 213.238 2013.42 212.636 Q2015.74 212.034 2018.01 210.83 L2018.01 214.858 Q2015.72 215.83 2013.31 216.34 Q2010.9 216.849 2008.42 216.849 Q2002.22 216.849 1998.59 213.238 Q1994.98 209.627 1994.98 203.469 Q1994.98 197.104 1998.4 193.377 Q2001.85 189.627 2007.68 189.627 Q2012.92 189.627 2015.95 193.006 Q2019 196.363 2019 202.15 M2014.74 200.9 Q2014.7 197.405 2012.78 195.321 Q2010.88 193.238 2007.73 193.238 Q2004.17 193.238 2002.01 195.252 Q1999.88 197.266 1999.56 200.923 L2014.74 200.9 Z" fill="#000000" fill-rule="nonzero" fill-opacity="1" /><path clip-path="url(#clip770)" d="M2041.02 194.233 Q2040.3 193.817 2039.44 193.631 Q2038.61 193.423 2037.59 193.423 Q2033.98 193.423 2032.04 195.784 Q2030.11 198.122 2030.11 202.52 L2030.11 216.178 L2025.83 216.178 L2025.83 190.252 L2030.11 190.252 L2030.11 194.28 Q2031.46 191.918 2033.61 190.784 Q2035.76 189.627 2038.84 189.627 Q2039.28 189.627 2039.81 189.696 Q2040.35 189.743 2040.99 189.858 L2041.02 194.233 Z" fill="#000000" fill-rule="nonzero" fill-opacity="1" /><path clip-path="url(#clip770)" d="M2042.43 190.252 L2046.94 190.252 L2055.05 212.011 L2063.15 190.252 L2067.66 190.252 L2057.94 216.178 L2052.15 216.178 L2042.43 190.252 Z" fill="#000000" fill-rule="nonzero" fill-opacity="1" /><path clip-path="url(#clip770)" d="M2085.32 203.145 Q2080.16 203.145 2078.17 204.326 Q2076.18 205.506 2076.18 208.354 Q2076.18 210.622 2077.66 211.965 Q2079.17 213.284 2081.73 213.284 Q2085.28 213.284 2087.41 210.784 Q2089.56 208.261 2089.56 204.094 L2089.56 203.145 L2085.32 203.145 M2093.82 201.386 L2093.82 216.178 L2089.56 216.178 L2089.56 212.242 Q2088.1 214.603 2085.92 215.738 Q2083.75 216.849 2080.6 216.849 Q2076.62 216.849 2074.26 214.627 Q2071.92 212.381 2071.92 208.631 Q2071.92 204.256 2074.84 202.034 Q2077.78 199.812 2083.59 199.812 L2089.56 199.812 L2089.56 199.395 Q2089.56 196.455 2087.61 194.858 Q2085.69 193.238 2082.2 193.238 Q2079.98 193.238 2077.87 193.77 Q2075.76 194.303 2073.82 195.367 L2073.82 191.432 Q2076.16 190.53 2078.36 190.09 Q2080.55 189.627 2082.64 189.627 Q2088.26 189.627 2091.04 192.543 Q2093.82 195.46 2093.82 201.386 Z" fill="#000000" fill-rule="nonzero" fill-opacity="1" /><path clip-path="url(#clip770)" d="M2106.8 182.891 L2106.8 190.252 L2115.58 190.252 L2115.58 193.562 L2106.8 193.562 L2106.8 207.636 Q2106.8 210.807 2107.66 211.71 Q2108.54 212.613 2111.2 212.613 L2115.58 212.613 L2115.58 216.178 L2111.2 216.178 Q2106.27 216.178 2104.4 214.349 Q2102.52 212.497 2102.52 207.636 L2102.52 193.562 L2099.4 193.562 L2099.4 190.252 L2102.52 190.252 L2102.52 182.891 L2106.8 182.891 Z" fill="#000000" fill-rule="nonzero" fill-opacity="1" /><path clip-path="url(#clip770)" d="M2121.18 190.252 L2125.44 190.252 L2125.44 216.178 L2121.18 216.178 L2121.18 190.252 M2121.18 180.159 L2125.44 180.159 L2125.44 185.553 L2121.18 185.553 L2121.18 180.159 Z" fill="#000000" fill-rule="nonzero" fill-opacity="1" /><path clip-path="url(#clip770)" d="M2144.4 193.238 Q2140.97 193.238 2138.98 195.923 Q2136.99 198.585 2136.99 203.238 Q2136.99 207.891 2138.96 210.576 Q2140.95 213.238 2144.4 213.238 Q2147.8 213.238 2149.79 210.553 Q2151.78 207.867 2151.78 203.238 Q2151.78 198.631 2149.79 195.946 Q2147.8 193.238 2144.4 193.238 M2144.4 189.627 Q2149.95 189.627 2153.12 193.238 Q2156.29 196.849 2156.29 203.238 Q2156.29 209.604 2153.12 213.238 Q2149.95 216.849 2144.4 216.849 Q2138.82 216.849 2135.65 213.238 Q2132.5 209.604 2132.5 203.238 Q2132.5 196.849 2135.65 193.238 Q2138.82 189.627 2144.4 189.627 Z" fill="#000000" fill-rule="nonzero" fill-opacity="1" /><path clip-path="url(#clip770)" d="M2184.91 200.529 L2184.91 216.178 L2180.65 216.178 L2180.65 200.668 Q2180.65 196.988 2179.21 195.159 Q2177.78 193.33 2174.91 193.33 Q2171.46 193.33 2169.47 195.53 Q2167.47 197.729 2167.47 201.525 L2167.47 216.178 L2163.19 216.178 L2163.19 190.252 L2167.47 190.252 L2167.47 194.28 Q2169 191.942 2171.06 190.784 Q2173.15 189.627 2175.85 189.627 Q2180.32 189.627 2182.61 192.405 Q2184.91 195.159 2184.91 200.529 Z" fill="#000000" fill-rule="nonzero" fill-opacity="1" /><path clip-path="url(#clip770)" d="M2209.93 191.016 L2209.93 195.043 Q2208.12 194.117 2206.18 193.655 Q2204.23 193.192 2202.15 193.192 Q2198.98 193.192 2197.38 194.164 Q2195.81 195.136 2195.81 197.08 Q2195.81 198.562 2196.94 199.418 Q2198.08 200.252 2201.5 201.016 L2202.96 201.34 Q2207.5 202.312 2209.4 204.094 Q2211.32 205.854 2211.32 209.025 Q2211.32 212.636 2208.45 214.742 Q2205.6 216.849 2200.6 216.849 Q2198.52 216.849 2196.25 216.432 Q2194 216.039 2191.5 215.228 L2191.5 210.83 Q2193.86 212.057 2196.16 212.682 Q2198.45 213.284 2200.69 213.284 Q2203.7 213.284 2205.32 212.266 Q2206.94 211.224 2206.94 209.349 Q2206.94 207.613 2205.76 206.687 Q2204.6 205.761 2200.65 204.904 L2199.16 204.557 Q2195.21 203.724 2193.45 202.011 Q2191.69 200.275 2191.69 197.266 Q2191.69 193.608 2194.28 191.618 Q2196.87 189.627 2201.64 189.627 Q2204 189.627 2206.09 189.974 Q2208.17 190.321 2209.93 191.016 Z" fill="#000000" fill-rule="nonzero" fill-opacity="1" /></svg>
