<?xml version="1.0" encoding="utf-8"?>
<svg xmlns="http://www.w3.org/2000/svg" xmlns:xlink="http://www.w3.org/1999/xlink" width="600" height="400" viewBox="0 0 2400 1600">
<defs>
  <clipPath id="clip920">
    <rect x="0" y="0" width="2400" height="1600"/>
  </clipPath>
</defs>
<path clip-path="url(#clip920)" d="M0 1600 L2400 1600 L2400 0 L0 0  Z" fill="#ffffff" fill-rule="evenodd" fill-opacity="1"/>
<defs>
  <clipPath id="clip921">
    <rect x="480" y="0" width="1681" height="1600"/>
  </clipPath>
</defs>
<path clip-path="url(#clip920)" d="M170.857 1486.45 L2352.76 1486.45 L2352.76 47.2441 L170.857 47.2441  Z" fill="#ffffff" fill-rule="evenodd" fill-opacity="1"/>
<defs>
  <clipPath id="clip922">
    <rect x="170" y="47" width="2183" height="1440"/>
  </clipPath>
</defs>
<polyline clip-path="url(#clip922)" style="stroke:#000000; stroke-linecap:round; stroke-linejoin:round; stroke-width:2; stroke-opacity:0.1; fill:none" points="232.023,1486.45 232.023,47.2441 "/>
<polyline clip-path="url(#clip922)" style="stroke:#000000; stroke-linecap:round; stroke-linejoin:round; stroke-width:2; stroke-opacity:0.1; fill:none" points="747.092,1486.45 747.092,47.2441 "/>
<polyline clip-path="url(#clip922)" style="stroke:#000000; stroke-linecap:round; stroke-linejoin:round; stroke-width:2; stroke-opacity:0.1; fill:none" points="1262.16,1486.45 1262.16,47.2441 "/>
<polyline clip-path="url(#clip922)" style="stroke:#000000; stroke-linecap:round; stroke-linejoin:round; stroke-width:2; stroke-opacity:0.1; fill:none" points="1777.23,1486.45 1777.23,47.2441 "/>
<polyline clip-path="url(#clip922)" style="stroke:#000000; stroke-linecap:round; stroke-linejoin:round; stroke-width:2; stroke-opacity:0.1; fill:none" points="2292.3,1486.45 2292.3,47.2441 "/>
<polyline clip-path="url(#clip922)" style="stroke:#000000; stroke-linecap:round; stroke-linejoin:round; stroke-width:2; stroke-opacity:0.1; fill:none" points="170.857,1442.13 2352.76,1442.13 "/>
<polyline clip-path="url(#clip922)" style="stroke:#000000; stroke-linecap:round; stroke-linejoin:round; stroke-width:2; stroke-opacity:0.1; fill:none" points="170.857,1171.3 2352.76,1171.3 "/>
<polyline clip-path="url(#clip922)" style="stroke:#000000; stroke-linecap:round; stroke-linejoin:round; stroke-width:2; stroke-opacity:0.1; fill:none" points="170.857,900.467 2352.76,900.467 "/>
<polyline clip-path="url(#clip922)" style="stroke:#000000; stroke-linecap:round; stroke-linejoin:round; stroke-width:2; stroke-opacity:0.1; fill:none" points="170.857,629.637 2352.76,629.637 "/>
<polyline clip-path="url(#clip922)" style="stroke:#000000; stroke-linecap:round; stroke-linejoin:round; stroke-width:2; stroke-opacity:0.1; fill:none" points="170.857,358.807 2352.76,358.807 "/>
<polyline clip-path="url(#clip922)" style="stroke:#000000; stroke-linecap:round; stroke-linejoin:round; stroke-width:2; stroke-opacity:0.1; fill:none" points="170.857,87.9763 2352.76,87.9763 "/>
<polyline clip-path="url(#clip920)" style="stroke:#000000; stroke-linecap:round; stroke-linejoin:round; stroke-width:4; stroke-opacity:1; fill:none" points="170.857,1486.45 2352.76,1486.45 "/>
<polyline clip-path="url(#clip920)" style="stroke:#000000; stroke-linecap:round; stroke-linejoin:round; stroke-width:4; stroke-opacity:1; fill:none" points="232.023,1486.45 232.023,1467.55 "/>
<polyline clip-path="url(#clip920)" style="stroke:#000000; stroke-linecap:round; stroke-linejoin:round; stroke-width:4; stroke-opacity:1; fill:none" points="747.092,1486.45 747.092,1467.55 "/>
<polyline clip-path="url(#clip920)" style="stroke:#000000; stroke-linecap:round; stroke-linejoin:round; stroke-width:4; stroke-opacity:1; fill:none" points="1262.16,1486.45 1262.16,1467.55 "/>
<polyline clip-path="url(#clip920)" style="stroke:#000000; stroke-linecap:round; stroke-linejoin:round; stroke-width:4; stroke-opacity:1; fill:none" points="1777.23,1486.45 1777.23,1467.55 "/>
<polyline clip-path="url(#clip920)" style="stroke:#000000; stroke-linecap:round; stroke-linejoin:round; stroke-width:4; stroke-opacity:1; fill:none" points="2292.3,1486.45 2292.3,1467.55 "/>
<path clip-path="url(#clip920)" d="M232.023 1517.37 Q228.412 1517.37 226.583 1520.93 Q224.778 1524.47 224.778 1531.6 Q224.778 1538.71 226.583 1542.27 Q228.412 1545.82 232.023 1545.82 Q235.657 1545.82 237.463 1542.27 Q239.292 1538.71 239.292 1531.6 Q239.292 1524.47 237.463 1520.93 Q235.657 1517.37 232.023 1517.37 M232.023 1513.66 Q237.833 1513.66 240.889 1518.27 Q243.967 1522.85 243.967 1531.6 Q243.967 1540.33 240.889 1544.94 Q237.833 1549.52 232.023 1549.52 Q226.213 1549.52 223.134 1544.94 Q220.079 1540.33 220.079 1531.6 Q220.079 1522.85 223.134 1518.27 Q226.213 1513.66 232.023 1513.66 Z" fill="#000000" fill-rule="nonzero" fill-opacity="1" /><path clip-path="url(#clip920)" d="M726.363 1544.91 L742.682 1544.91 L742.682 1548.85 L720.738 1548.85 L720.738 1544.91 Q723.4 1542.16 727.983 1537.53 Q732.59 1532.88 733.77 1531.53 Q736.015 1529.01 736.895 1527.27 Q737.798 1525.51 737.798 1523.82 Q737.798 1521.07 735.853 1519.33 Q733.932 1517.6 730.83 1517.6 Q728.631 1517.6 726.178 1518.36 Q723.747 1519.13 720.969 1520.68 L720.969 1515.95 Q723.793 1514.82 726.247 1514.24 Q728.701 1513.66 730.738 1513.66 Q736.108 1513.66 739.302 1516.35 Q742.497 1519.03 742.497 1523.52 Q742.497 1525.65 741.687 1527.57 Q740.9 1529.47 738.793 1532.07 Q738.215 1532.74 735.113 1535.95 Q732.011 1539.15 726.363 1544.91 Z" fill="#000000" fill-rule="nonzero" fill-opacity="1" /><path clip-path="url(#clip920)" d="M752.543 1514.29 L770.9 1514.29 L770.9 1518.22 L756.826 1518.22 L756.826 1526.7 Q757.844 1526.35 758.863 1526.19 Q759.881 1526 760.9 1526 Q766.687 1526 770.066 1529.17 Q773.446 1532.34 773.446 1537.76 Q773.446 1543.34 769.974 1546.44 Q766.501 1549.52 760.182 1549.52 Q758.006 1549.52 755.738 1549.15 Q753.492 1548.78 751.085 1548.04 L751.085 1543.34 Q753.168 1544.47 755.39 1545.03 Q757.613 1545.58 760.089 1545.58 Q764.094 1545.58 766.432 1543.48 Q768.77 1541.37 768.77 1537.76 Q768.77 1534.15 766.432 1532.04 Q764.094 1529.94 760.089 1529.94 Q758.214 1529.94 756.339 1530.35 Q754.488 1530.77 752.543 1531.65 L752.543 1514.29 Z" fill="#000000" fill-rule="nonzero" fill-opacity="1" /><path clip-path="url(#clip920)" d="M1236.86 1514.29 L1255.22 1514.29 L1255.22 1518.22 L1241.14 1518.22 L1241.14 1526.7 Q1242.16 1526.35 1243.18 1526.19 Q1244.2 1526 1245.22 1526 Q1251 1526 1254.38 1529.17 Q1257.76 1532.34 1257.76 1537.76 Q1257.76 1543.34 1254.29 1546.44 Q1250.82 1549.52 1244.5 1549.52 Q1242.32 1549.52 1240.05 1549.15 Q1237.81 1548.78 1235.4 1548.04 L1235.4 1543.34 Q1237.48 1544.47 1239.71 1545.03 Q1241.93 1545.58 1244.41 1545.58 Q1248.41 1545.58 1250.75 1543.48 Q1253.09 1541.37 1253.09 1537.76 Q1253.09 1534.15 1250.75 1532.04 Q1248.41 1529.94 1244.41 1529.94 Q1242.53 1529.94 1240.66 1530.35 Q1238.8 1530.77 1236.86 1531.65 L1236.86 1514.29 Z" fill="#000000" fill-rule="nonzero" fill-opacity="1" /><path clip-path="url(#clip920)" d="M1276.98 1517.37 Q1273.36 1517.37 1271.54 1520.93 Q1269.73 1524.47 1269.73 1531.6 Q1269.73 1538.71 1271.54 1542.27 Q1273.36 1545.82 1276.98 1545.82 Q1280.61 1545.82 1282.42 1542.27 Q1284.24 1538.71 1284.24 1531.6 Q1284.24 1524.47 1282.42 1520.93 Q1280.61 1517.37 1276.98 1517.37 M1276.98 1513.66 Q1282.79 1513.66 1285.84 1518.27 Q1288.92 1522.85 1288.92 1531.6 Q1288.92 1540.33 1285.84 1544.94 Q1282.79 1549.52 1276.98 1549.52 Q1271.17 1549.52 1268.09 1544.94 Q1265.03 1540.33 1265.03 1531.6 Q1265.03 1522.85 1268.09 1518.27 Q1271.17 1513.66 1276.98 1513.66 Z" fill="#000000" fill-rule="nonzero" fill-opacity="1" /><path clip-path="url(#clip920)" d="M1751.08 1514.29 L1773.31 1514.29 L1773.31 1516.28 L1760.76 1548.85 L1755.88 1548.85 L1767.68 1518.22 L1751.08 1518.22 L1751.08 1514.29 Z" fill="#000000" fill-rule="nonzero" fill-opacity="1" /><path clip-path="url(#clip920)" d="M1782.47 1514.29 L1800.83 1514.29 L1800.83 1518.22 L1786.75 1518.22 L1786.75 1526.7 Q1787.77 1526.35 1788.79 1526.19 Q1789.81 1526 1790.83 1526 Q1796.62 1526 1800 1529.17 Q1803.37 1532.34 1803.37 1537.76 Q1803.37 1543.34 1799.9 1546.44 Q1796.43 1549.52 1790.11 1549.52 Q1787.94 1549.52 1785.67 1549.15 Q1783.42 1548.78 1781.01 1548.04 L1781.01 1543.34 Q1783.1 1544.47 1785.32 1545.03 Q1787.54 1545.58 1790.02 1545.58 Q1794.02 1545.58 1796.36 1543.48 Q1798.7 1541.37 1798.7 1537.76 Q1798.7 1534.15 1796.36 1532.04 Q1794.02 1529.94 1790.02 1529.94 Q1788.14 1529.94 1786.27 1530.35 Q1784.42 1530.77 1782.47 1531.65 L1782.47 1514.29 Z" fill="#000000" fill-rule="nonzero" fill-opacity="1" /><path clip-path="url(#clip920)" d="M2251.9 1544.91 L2259.54 1544.91 L2259.54 1518.55 L2251.23 1520.21 L2251.23 1515.95 L2259.5 1514.29 L2264.17 1514.29 L2264.17 1544.91 L2271.81 1544.91 L2271.81 1548.85 L2251.9 1548.85 L2251.9 1544.91 Z" fill="#000000" fill-rule="nonzero" fill-opacity="1" /><path clip-path="url(#clip920)" d="M2291.26 1517.37 Q2287.65 1517.37 2285.82 1520.93 Q2284.01 1524.47 2284.01 1531.6 Q2284.01 1538.71 2285.82 1542.27 Q2287.65 1545.82 2291.26 1545.82 Q2294.89 1545.82 2296.7 1542.27 Q2298.52 1538.71 2298.52 1531.6 Q2298.52 1524.47 2296.7 1520.93 Q2294.89 1517.37 2291.26 1517.37 M2291.26 1513.66 Q2297.07 1513.66 2300.12 1518.27 Q2303.2 1522.85 2303.2 1531.6 Q2303.2 1540.33 2300.12 1544.94 Q2297.07 1549.52 2291.26 1549.52 Q2285.45 1549.52 2282.37 1544.94 Q2279.31 1540.33 2279.31 1531.6 Q2279.31 1522.85 2282.37 1518.27 Q2285.45 1513.66 2291.26 1513.66 Z" fill="#000000" fill-rule="nonzero" fill-opacity="1" /><path clip-path="url(#clip920)" d="M2321.42 1517.37 Q2317.81 1517.37 2315.98 1520.93 Q2314.17 1524.47 2314.17 1531.6 Q2314.17 1538.71 2315.98 1542.27 Q2317.81 1545.82 2321.42 1545.82 Q2325.05 1545.82 2326.86 1542.27 Q2328.69 1538.71 2328.69 1531.6 Q2328.69 1524.47 2326.86 1520.93 Q2325.05 1517.37 2321.42 1517.37 M2321.42 1513.66 Q2327.23 1513.66 2330.28 1518.27 Q2333.36 1522.85 2333.36 1531.6 Q2333.36 1540.33 2330.28 1544.94 Q2327.23 1549.52 2321.42 1549.52 Q2315.61 1549.52 2312.53 1544.94 Q2309.47 1540.33 2309.47 1531.6 Q2309.47 1522.85 2312.53 1518.27 Q2315.61 1513.66 2321.42 1513.66 Z" fill="#000000" fill-rule="nonzero" fill-opacity="1" /><polyline clip-path="url(#clip920)" style="stroke:#000000; stroke-linecap:round; stroke-linejoin:round; stroke-width:4; stroke-opacity:1; fill:none" points="170.857,1486.45 170.857,47.2441 "/>
<polyline clip-path="url(#clip920)" style="stroke:#000000; stroke-linecap:round; stroke-linejoin:round; stroke-width:4; stroke-opacity:1; fill:none" points="170.857,1442.13 189.755,1442.13 "/>
<polyline clip-path="url(#clip920)" style="stroke:#000000; stroke-linecap:round; stroke-linejoin:round; stroke-width:4; stroke-opacity:1; fill:none" points="170.857,1171.3 189.755,1171.3 "/>
<polyline clip-path="url(#clip920)" style="stroke:#000000; stroke-linecap:round; stroke-linejoin:round; stroke-width:4; stroke-opacity:1; fill:none" points="170.857,900.467 189.755,900.467 "/>
<polyline clip-path="url(#clip920)" style="stroke:#000000; stroke-linecap:round; stroke-linejoin:round; stroke-width:4; stroke-opacity:1; fill:none" points="170.857,629.637 189.755,629.637 "/>
<polyline clip-path="url(#clip920)" style="stroke:#000000; stroke-linecap:round; stroke-linejoin:round; stroke-width:4; stroke-opacity:1; fill:none" points="170.857,358.807 189.755,358.807 "/>
<polyline clip-path="url(#clip920)" style="stroke:#000000; stroke-linecap:round; stroke-linejoin:round; stroke-width:4; stroke-opacity:1; fill:none" points="170.857,87.9763 189.755,87.9763 "/>
<path clip-path="url(#clip920)" d="M122.913 1427.93 Q119.302 1427.93 117.473 1431.49 Q115.668 1435.03 115.668 1442.16 Q115.668 1449.27 117.473 1452.83 Q119.302 1456.38 122.913 1456.38 Q126.547 1456.38 128.353 1452.83 Q130.182 1449.27 130.182 1442.16 Q130.182 1435.03 128.353 1431.49 Q126.547 1427.93 122.913 1427.93 M122.913 1424.22 Q128.723 1424.22 131.779 1428.83 Q134.857 1433.41 134.857 1442.16 Q134.857 1450.89 131.779 1455.5 Q128.723 1460.08 122.913 1460.08 Q117.103 1460.08 114.024 1455.5 Q110.969 1450.89 110.969 1442.16 Q110.969 1433.41 114.024 1428.83 Q117.103 1424.22 122.913 1424.22 Z" fill="#000000" fill-rule="nonzero" fill-opacity="1" /><path clip-path="url(#clip920)" d="M82.7975 1154.02 L101.154 1154.02 L101.154 1157.95 L87.0799 1157.95 L87.0799 1166.42 Q88.0984 1166.08 89.1169 1165.92 Q90.1354 1165.73 91.1539 1165.73 Q96.941 1165.73 100.321 1168.9 Q103.7 1172.07 103.7 1177.49 Q103.7 1183.07 100.228 1186.17 Q96.7558 1189.25 90.4364 1189.25 Q88.2604 1189.25 85.9919 1188.88 Q83.7466 1188.51 81.3392 1187.77 L81.3392 1183.07 Q83.4225 1184.2 85.6447 1184.76 Q87.8669 1185.31 90.3438 1185.31 Q94.3484 1185.31 96.6863 1183.21 Q99.0243 1181.1 99.0243 1177.49 Q99.0243 1173.88 96.6863 1171.77 Q94.3484 1169.67 90.3438 1169.67 Q88.4688 1169.67 86.5938 1170.08 Q84.7419 1170.5 82.7975 1171.38 L82.7975 1154.02 Z" fill="#000000" fill-rule="nonzero" fill-opacity="1" /><path clip-path="url(#clip920)" d="M122.913 1157.1 Q119.302 1157.1 117.473 1160.66 Q115.668 1164.2 115.668 1171.33 Q115.668 1178.44 117.473 1182 Q119.302 1185.55 122.913 1185.55 Q126.547 1185.55 128.353 1182 Q130.182 1178.44 130.182 1171.33 Q130.182 1164.2 128.353 1160.66 Q126.547 1157.1 122.913 1157.1 M122.913 1153.39 Q128.723 1153.39 131.779 1158 Q134.857 1162.58 134.857 1171.33 Q134.857 1180.06 131.779 1184.67 Q128.723 1189.25 122.913 1189.25 Q117.103 1189.25 114.024 1184.67 Q110.969 1180.06 110.969 1171.33 Q110.969 1162.58 114.024 1158 Q117.103 1153.39 122.913 1153.39 Z" fill="#000000" fill-rule="nonzero" fill-opacity="1" /><path clip-path="url(#clip920)" d="M53.3995 913.812 L61.0384 913.812 L61.0384 887.447 L52.7282 889.113 L52.7282 884.854 L60.9921 883.187 L65.668 883.187 L65.668 913.812 L73.3068 913.812 L73.3068 917.747 L53.3995 917.747 L53.3995 913.812 Z" fill="#000000" fill-rule="nonzero" fill-opacity="1" /><path clip-path="url(#clip920)" d="M92.7512 886.266 Q89.1401 886.266 87.3114 889.831 Q85.5058 893.372 85.5058 900.502 Q85.5058 907.608 87.3114 911.173 Q89.1401 914.715 92.7512 914.715 Q96.3854 914.715 98.1909 911.173 Q100.02 907.608 100.02 900.502 Q100.02 893.372 98.1909 889.831 Q96.3854 886.266 92.7512 886.266 M92.7512 882.562 Q98.5613 882.562 101.617 887.169 Q104.696 891.752 104.696 900.502 Q104.696 909.229 101.617 913.835 Q98.5613 918.419 92.7512 918.419 Q86.941 918.419 83.8623 913.835 Q80.8068 909.229 80.8068 900.502 Q80.8068 891.752 83.8623 887.169 Q86.941 882.562 92.7512 882.562 Z" fill="#000000" fill-rule="nonzero" fill-opacity="1" /><path clip-path="url(#clip920)" d="M122.913 886.266 Q119.302 886.266 117.473 889.831 Q115.668 893.372 115.668 900.502 Q115.668 907.608 117.473 911.173 Q119.302 914.715 122.913 914.715 Q126.547 914.715 128.353 911.173 Q130.182 907.608 130.182 900.502 Q130.182 893.372 128.353 889.831 Q126.547 886.266 122.913 886.266 M122.913 882.562 Q128.723 882.562 131.779 887.169 Q134.857 891.752 134.857 900.502 Q134.857 909.229 131.779 913.835 Q128.723 918.419 122.913 918.419 Q117.103 918.419 114.024 913.835 Q110.969 909.229 110.969 900.502 Q110.969 891.752 114.024 887.169 Q117.103 882.562 122.913 882.562 Z" fill="#000000" fill-rule="nonzero" fill-opacity="1" /><path clip-path="url(#clip920)" d="M53.3995 642.982 L61.0384 642.982 L61.0384 616.616 L52.7282 618.283 L52.7282 614.024 L60.9921 612.357 L65.668 612.357 L65.668 642.982 L73.3068 642.982 L73.3068 646.917 L53.3995 646.917 L53.3995 642.982 Z" fill="#000000" fill-rule="nonzero" fill-opacity="1" /><path clip-path="url(#clip920)" d="M82.7975 612.357 L101.154 612.357 L101.154 616.292 L87.0799 616.292 L87.0799 624.764 Q88.0984 624.417 89.1169 624.255 Q90.1354 624.07 91.1539 624.07 Q96.941 624.07 100.321 627.241 Q103.7 630.412 103.7 635.829 Q103.7 641.408 100.228 644.51 Q96.7558 647.588 90.4364 647.588 Q88.2604 647.588 85.9919 647.218 Q83.7466 646.847 81.3392 646.107 L81.3392 641.408 Q83.4225 642.542 85.6447 643.098 Q87.8669 643.653 90.3438 643.653 Q94.3484 643.653 96.6863 641.547 Q99.0243 639.44 99.0243 635.829 Q99.0243 632.218 96.6863 630.111 Q94.3484 628.005 90.3438 628.005 Q88.4688 628.005 86.5938 628.422 Q84.7419 628.838 82.7975 629.718 L82.7975 612.357 Z" fill="#000000" fill-rule="nonzero" fill-opacity="1" /><path clip-path="url(#clip920)" d="M122.913 615.436 Q119.302 615.436 117.473 619 Q115.668 622.542 115.668 629.672 Q115.668 636.778 117.473 640.343 Q119.302 643.885 122.913 643.885 Q126.547 643.885 128.353 640.343 Q130.182 636.778 130.182 629.672 Q130.182 622.542 128.353 619 Q126.547 615.436 122.913 615.436 M122.913 611.732 Q128.723 611.732 131.779 616.338 Q134.857 620.922 134.857 629.672 Q134.857 638.398 131.779 643.005 Q128.723 647.588 122.913 647.588 Q117.103 647.588 114.024 643.005 Q110.969 638.398 110.969 629.672 Q110.969 620.922 114.024 616.338 Q117.103 611.732 122.913 611.732 Z" fill="#000000" fill-rule="nonzero" fill-opacity="1" /><path clip-path="url(#clip920)" d="M56.6171 372.151 L72.9365 372.151 L72.9365 376.087 L50.9921 376.087 L50.9921 372.151 Q53.6541 369.397 58.2375 364.767 Q62.8439 360.114 64.0245 358.772 Q66.2698 356.249 67.1494 354.513 Q68.0522 352.753 68.0522 351.064 Q68.0522 348.309 66.1078 346.573 Q64.1865 344.837 61.0847 344.837 Q58.8856 344.837 56.4319 345.601 Q54.0014 346.365 51.2236 347.915 L51.2236 343.193 Q54.0477 342.059 56.5014 341.48 Q58.955 340.902 60.9921 340.902 Q66.3624 340.902 69.5568 343.587 Q72.7513 346.272 72.7513 350.763 Q72.7513 352.892 71.9411 354.814 Q71.1541 356.712 69.0476 359.304 Q68.4689 359.976 65.367 363.193 Q62.2652 366.388 56.6171 372.151 Z" fill="#000000" fill-rule="nonzero" fill-opacity="1" /><path clip-path="url(#clip920)" d="M92.7512 344.605 Q89.1401 344.605 87.3114 348.17 Q85.5058 351.712 85.5058 358.841 Q85.5058 365.948 87.3114 369.513 Q89.1401 373.054 92.7512 373.054 Q96.3854 373.054 98.1909 369.513 Q100.02 365.948 100.02 358.841 Q100.02 351.712 98.1909 348.17 Q96.3854 344.605 92.7512 344.605 M92.7512 340.902 Q98.5613 340.902 101.617 345.508 Q104.696 350.091 104.696 358.841 Q104.696 367.568 101.617 372.175 Q98.5613 376.758 92.7512 376.758 Q86.941 376.758 83.8623 372.175 Q80.8068 367.568 80.8068 358.841 Q80.8068 350.091 83.8623 345.508 Q86.941 340.902 92.7512 340.902 Z" fill="#000000" fill-rule="nonzero" fill-opacity="1" /><path clip-path="url(#clip920)" d="M122.913 344.605 Q119.302 344.605 117.473 348.17 Q115.668 351.712 115.668 358.841 Q115.668 365.948 117.473 369.513 Q119.302 373.054 122.913 373.054 Q126.547 373.054 128.353 369.513 Q130.182 365.948 130.182 358.841 Q130.182 351.712 128.353 348.17 Q126.547 344.605 122.913 344.605 M122.913 340.902 Q128.723 340.902 131.779 345.508 Q134.857 350.091 134.857 358.841 Q134.857 367.568 131.779 372.175 Q128.723 376.758 122.913 376.758 Q117.103 376.758 114.024 372.175 Q110.969 367.568 110.969 358.841 Q110.969 350.091 114.024 345.508 Q117.103 340.902 122.913 340.902 Z" fill="#000000" fill-rule="nonzero" fill-opacity="1" /><path clip-path="url(#clip920)" d="M56.6171 101.321 L72.9365 101.321 L72.9365 105.256 L50.9921 105.256 L50.9921 101.321 Q53.6541 98.5665 58.2375 93.9369 Q62.8439 89.2841 64.0245 87.9416 Q66.2698 85.4184 67.1494 83.6823 Q68.0522 81.9231 68.0522 80.2333 Q68.0522 77.4786 66.1078 75.7425 Q64.1865 74.0064 61.0847 74.0064 Q58.8856 74.0064 56.4319 74.7703 Q54.0014 75.5342 51.2236 77.0851 L51.2236 72.3629 Q54.0477 71.2287 56.5014 70.65 Q58.955 70.0713 60.9921 70.0713 Q66.3624 70.0713 69.5568 72.7565 Q72.7513 75.4416 72.7513 79.9323 Q72.7513 82.062 71.9411 83.9832 Q71.1541 85.8814 69.0476 88.474 Q68.4689 89.1453 65.367 92.3628 Q62.2652 95.5573 56.6171 101.321 Z" fill="#000000" fill-rule="nonzero" fill-opacity="1" /><path clip-path="url(#clip920)" d="M82.7975 70.6963 L101.154 70.6963 L101.154 74.6314 L87.0799 74.6314 L87.0799 83.1036 Q88.0984 82.7564 89.1169 82.5944 Q90.1354 82.4092 91.1539 82.4092 Q96.941 82.4092 100.321 85.5805 Q103.7 88.7517 103.7 94.1684 Q103.7 99.747 100.228 102.849 Q96.7558 105.928 90.4364 105.928 Q88.2604 105.928 85.9919 105.557 Q83.7466 105.187 81.3392 104.446 L81.3392 99.747 Q83.4225 100.881 85.6447 101.437 Q87.8669 101.992 90.3438 101.992 Q94.3484 101.992 96.6863 99.8859 Q99.0243 97.7795 99.0243 94.1684 Q99.0243 90.5573 96.6863 88.4508 Q94.3484 86.3443 90.3438 86.3443 Q88.4688 86.3443 86.5938 86.761 Q84.7419 87.1777 82.7975 88.0573 L82.7975 70.6963 Z" fill="#000000" fill-rule="nonzero" fill-opacity="1" /><path clip-path="url(#clip920)" d="M122.913 73.775 Q119.302 73.775 117.473 77.3398 Q115.668 80.8814 115.668 88.011 Q115.668 95.1174 117.473 98.6822 Q119.302 102.224 122.913 102.224 Q126.547 102.224 128.353 98.6822 Q130.182 95.1174 130.182 88.011 Q130.182 80.8814 128.353 77.3398 Q126.547 73.775 122.913 73.775 M122.913 70.0713 Q128.723 70.0713 131.779 74.6777 Q134.857 79.261 134.857 88.011 Q134.857 96.7378 131.779 101.344 Q128.723 105.928 122.913 105.928 Q117.103 105.928 114.024 101.344 Q110.969 96.7378 110.969 88.011 Q110.969 79.261 114.024 74.6777 Q117.103 70.0713 122.913 70.0713 Z" fill="#000000" fill-rule="nonzero" fill-opacity="1" /><polyline clip-path="url(#clip922)" style="stroke:#009af9; stroke-linecap:round; stroke-linejoin:round; stroke-width:4; stroke-opacity:1; fill:none" points="232.609,1440.22 234.869,1437.17 235.338,1445.51 236.701,1441.98 236.983,1444.3 241.168,1445.59 242.873,1437.5 244.839,1440.03 247.265,1436.42 249.272,1440.75 252.677,1440.52 252.93,1444.38 253.133,1440.58 255.141,1438.43 258.459,1441.7 258.804,1440.88 260.576,1444.63 266.122,1439.55 268.224,1439.12 275.32,1440.53 277.726,1437.39 278.735,1440.17 281.943,1438.19 282.129,1440.69 289.281,1443.52 292.289,1441.66 293.24,1436.7 294.213,1440.17 298.65,1439.35 302.688,1441.71 303.074,1442.24 303.299,1440.4 305.092,1442.35 306.506,1443.67 312.078,1443.03 312.658,1436.83 317.627,1441.94 318.97,1442.81 324.029,1439.17 325.234,1445.72 327.819,1442.62 328.383,1438.15 329.126,1437.51 330.825,1440.29 335.57,1439.29 344.025,1440.39 344.863,1442.99 347.043,1440.54 348.444,1441.73 353.217,1443.16 356.072,1435.8 357.483,1439.95 361.845,1440.22 362.193,1440.3 366.975,1442.25 367.812,1437.88 370.843,1443.38 370.991,1439.39 371.13,1440.75 373.093,1440.13 377.058,1434.2 381.147,1438.7 381.661,1438.48 384.83,1441.57 386.033,1434.69 389.656,1438.81 390.35,1442.37 390.909,1436.05 391.548,1434.27 393.31,1436.23 394.359,1439.14 396.285,1442.6 396.866,1440.62 398.88,1443.12 402.745,1436.49 405.208,1433.65 405.989,1432.9 407.677,1436.76 408.348,1439.06 408.578,1443.02 409.103,1438.09 410.838,1437.39 411.913,1439.92 414.778,1442.54 417.954,1436.37 422.667,1439.43 423.538,1439.94 424.53,1438.29 430.035,1437.59 434.064,1434.08 435.264,1440.27 435.747,1437.92 440.034,1439.16 445.774,1432.1 449.118,1438.61 452.591,1437.46 454.025,1439.45 458.121,1430.7 463.195,1436.74 465.072,1437.04 467.067,1438.33 468.017,1437.27 469.12,1433.54 471.854,1433.69 472.685,1435.38 473.275,1437.89 473.312,1433.9 477.638,1439.56 478.138,1436.03 479.321,1438.36 479.732,1439.09 482.625,1432.56 491.592,1436.75 492.637,1436.4 492.81,1432.8 493.462,1435.85 495.484,1440.62 496.816,1436.32 497.421,1439.37 497.955,1435.5 501.531,1439.29 502.416,1436.69 503.188,1435.68 503.38,1436.72 505.353,1433.79 507.641,1438.27 509.824,1436.86 511.497,1435.36 512.898,1436.54 514.592,1430.72 515.287,1433.55 516.62,1438.02 517.926,1437.18 524.424,1435.72 525.047,1439.66 525.409,1437.1 529.505,1435 530.814,1436.15 530.96,1441.06 532.456,1437.23 536.281,1438.21 538.642,1434.32 538.922,1440.82 541.081,1431.22 542.169,1433.46 542.433,1436.84 552.339,1433.39 554.819,1433.85 555.034,1435.92 555.982,1429.15 560.614,1437.01 561.847,1438.01 562.43,1431 562.57,1435.83 565.35,1438.38 565.627,1436.41 566.434,1435.26 571.232,1436.16 573.378,1433.9 573.979,1434.41 578.369,1434.86 588.166,1431.76 593.217,1436.69 594.143,1432.12 597.064,1433.44 599.659,1438.18 599.81,1433.59 607.742,1431.68 613.37,1433.92 613.647,1436.2 614.632,1434.7 617.758,1437.78 618.512,1439.62 619.075,1435.18 622.521,1433.13 622.73,1426.02 627.579,1436.52 630.055,1437.99 630.133,1434.3 631.404,1436 632.271,1433.64 634.875,1431.32 635.263,1434.47 639.107,1427.32 640.427,1428.99 643.253,1436.81 653.019,1432.8 654.923,1434.89 657.506,1431.61 659.388,1436.43 663.852,1436.83 664.274,1434.83 666.469,1432.19 668.539,1439.36 672.284,1437.14 676.99,1427.61 677.087,1435.82 679.584,1435.13 682.268,1436.41 682.79,1434.97 685.381,1431.78 686.129,1431.27 686.357,1431.87 687.714,1428.99 688.108,1436.95 688.258,1431.38 698.423,1432.78 699.41,1430.71 701.609,1430.75 702.895,1432.43 703.884,1430.37 706.791,1434.54 706.955,1431.46 712.864,1427.75 714.358,1429.64 715.989,1432.14 717.206,1430.44 718.668,1438.33 718.902,1430.39 720.202,1432.41 720.481,1434.59 721.795,1434.79 723.523,1435.21 723.97,1427.78 723.973,1434.02 730.043,1430.08 730.356,1434.84 731.837,1431.72 738.833,1430.76 739.199,1432.34 739.709,1436.35 740.012,1431.79 743.696,1434.99 744.246,1431.04 746.092,1429.24 746.141,1429.77 746.218,1428.42 746.241,1434.09 748.089,1427.1 749.12,1431.47 753.576,1432.15 761.091,1427.46 762.409,1431.7 765.964,1429.79 766.419,1427.7 766.854,1426.1 771.057,1433.39 772.052,1434.97 772.488,1428.83 774.166,1433.82 777.826,1433.64 778.624,1432.93 783.841,1429.6 786.215,1427.75 786.455,1431.52 795.449,1427.63 796.019,1430.18 801.074,1430.59 801.387,1432.54 801.986,1431.62 803.685,1427.9 809.563,1432.04 810.109,1423.84 810.567,1427.24 815.311,1425.43 816.906,1428.8 817.973,1426.89 819.853,1432.12 820.861,1427.08 824.925,1429.56 825.185,1425.57 827.294,1429.82 828.03,1430.84 828.055,1428.6 829.107,1425.18 829.734,1429.64 831.658,1427.27 832.062,1421.42 833.147,1431.53 833.669,1431.05 836.285,1432.27 837.459,1428.9 837.885,1423.77 843.143,1423.07 844.798,1426.85 848.93,1425.34 856.431,1425.09 856.871,1426.74 858.256,1425.68 858.852,1422.35 859.132,1425.99 859.472,1423.21 861.397,1427.14 862.043,1423.27 867.27,1423.24 867.399,1426.91 868.7,1425.25 871.441,1417.34 871.57,1422.99 875.882,1422.83 877.367,1420.83 878.899,1423.31 879.21,1419.71 879.233,1415.93 888.931,1423.46 892.918,1418.5 893.48,1412.73 893.649,1418.41 897.137,1422.78 903.88,1417.95 909.296,1414.69 909.538,1417.47 910.537,1414.71 913.111,1416.27 913.457,1416.71 914.133,1411.96 917.332,1407.48 918.25,1416.97 920.333,1406.57 922.213,1414.28 923.358,1413.4 924.723,1406.91 925.599,1413.34 926.288,1409.38 928.304,1411.5 929.875,1407.41 930.273,1407.91 930.939,1406.79 934.82,1411.67 936.347,1406.6 938.09,1405 938.972,1409.65 940.065,1410.8 942.22,1405.29 945.956,1396.62 946.879,1399.46 947.861,1404.21 948.306,1399.16 950.018,1402.19 951.537,1399.55 953.009,1393.59 955.415,1399.17 957.409,1402.34 968.842,1393.69 969.528,1395.94 971.942,1394.44 972.303,1394.09 972.504,1391.04 974.435,1393.61 975.513,1388.24 980.544,1388.05 981.225,1388.59 982.556,1386.88 983.778,1385.32 988.224,1383.81 990.562,1389.21 990.939,1389.09 994.502,1385.91 996.632,1381.53 999.17,1382.12 999.365,1383.37 1000.22,1378.47 1001.03,1375.27 1004.22,1385.6 1005.37,1381.33 1009.72,1377.81 1010.13,1374.06 1010.28,1380.22 1012.36,1376.24 1013.62,1377.54 1019.36,1377.99 1019.9,1374 1023.18,1375.14 1024.22,1370.84 1024.66,1375.95 1026.73,1374.51 1027.25,1379.27 1033.21,1372.57 1034.86,1372.72 1036.31,1370.58 1036.63,1373.34 1037.97,1371.52 1039.37,1370.73 1042.26,1371.58 1043.29,1375.74 1043.87,1368.89 1046.51,1369.67 1049.32,1370.59 1050.41,1368.31 1053.1,1372.99 1056.4,1367.61 1056.44,1370.89 1062.85,1368.9 1071.07,1371.47 1071.32,1370.99 1072.91,1371.45 1074.03,1364.08 1074.27,1373.47 1074.44,1371.23 1082.18,1369.89 1082.66,1375.23 1083.43,1370.55 1093.47,1375.6 1098.5,1374.84 1098.97,1375 1099.89,1374.63 1104.94,1377.32 1106.73,1373.35 1109.8,1375.68 1112.09,1381.88 1112.13,1380.1 1112.17,1380.93 1112.81,1375.26 1115.74,1380.18 1116.37,1379.24 1117.48,1376.83 1118.64,1381.15 1121.12,1384.79 1127.77,1385.89 1129.12,1387.63 1131.41,1387.38 1135.08,1392.18 1136.56,1387.12 1138.02,1384.47 1138.2,1387.66 1139.01,1386.57 1139.02,1381.48 1143.5,1385.99 1143.85,1387.95 1143.87,1391.35 1145.99,1390.83 1147.18,1390.76 1151.46,1394.02 1152.63,1397.25 1153.72,1394.98 1153.93,1392.55 1158.61,1394.39 1160.56,1394.56 1162.12,1395.89 1164.73,1397.03 1166.77,1399.41 1168.81,1399.51 1169.31,1400.09 1171.35,1397.24 1174.66,1400.03 1174.92,1404.06 1178.13,1402.15 1179.66,1398.22 1180.59,1402.4 1181.85,1399.98 1184.05,1406.48 1186.41,1401.46 1188.69,1407.71 1195,1408.24 1195.13,1404.71 1195.99,1400.84 1196.28,1406.44 1202.93,1405.93 1206.81,1412.85 1209.58,1408.05 1211,1412.49 1213.84,1420.18 1214.89,1408.88 1217.55,1415.2 1218.24,1407.31 1218.47,1411.86 1219.1,1414.93 1220.65,1408.98 1220.66,1414.62 1221.76,1410.03 1222.44,1413.24 1223.17,1412.84 1223.64,1413.03 1229.14,1415.68 1229.4,1413.06 1232.43,1417.09 1233.86,1413.31 1237.06,1414.98 1237.35,1412.65 1240.18,1414.31 1240.81,1419.23 1242.54,1414.91 1242.58,1413.82 1243.53,1413.26 1251.13,1416.19 1253.22,1411.66 1253.52,1410.53 1254.35,1414.25 1255.96,1417.25 1259.49,1421.6 1263.03,1417.12 1263.25,1417.55 1265.21,1415.9 1266.44,1416.08 1267.03,1417.55 1272.81,1415.35 1275.82,1419.77 1276.74,1419.96 1276.91,1422.58 1277.94,1417.75 1278.04,1414.75 1283.25,1414.61 1284.01,1411.86 1294.77,1413.72 1296.76,1414.45 1297.05,1420.39 1298,1420.96 1311.09,1417.63 1312.77,1422.98 1313.41,1418.55 1315.76,1418.94 1321.3,1422.44 1322.98,1418.53 1323.55,1417.77 1324.49,1419.33 1326.06,1418.95 1331.71,1419.6 1333.09,1415.67 1336.4,1421.05 1337.23,1421.49 1341.35,1419.15 1343.8,1413.67 1344.85,1418.84 1347.55,1416.07 1349.87,1423.77 1351.76,1414.47 1352.6,1420.02 1353.66,1414.84 1354.48,1416.04 1355.85,1416.61 1357.49,1418.72 1359.08,1421.09 1359.83,1420.5 1360.88,1417.8 1362.52,1420.33 1363.61,1417.69 1368.99,1414.05 1369.62,1419.43 1371.47,1417.73 1372.05,1417.89 1372.77,1417.7 1377.51,1417.55 1377.89,1417.97 1378.36,1420.93 1380.39,1414.84 1386.19,1414.87 1387.02,1418.2 1388.07,1422.18 1390.56,1422.87 1391.99,1419.37 1396.55,1415.44 1400.13,1419.22 1402.56,1418.62 1403.07,1419.34 1406.75,1412.45 1408.35,1421.76 1410.84,1414.83 1411.27,1419.91 1414.54,1414.61 1418.69,1418.7 1422.07,1416.78 1424.36,1414.63 1429.71,1418.18 1430.32,1418.03 1435.33,1417.93 1437.2,1419.07 1437.95,1419.59 1442.4,1422.66 1442.63,1411.51 1446.54,1411.97 1450.8,1417.43 1453.16,1417.13 1454.78,1417.32 1457.65,1420.24 1459.85,1414.03 1460.29,1415.24 1461.73,1421.18 1461.95,1417.44 1465.52,1421.16 1470.11,1419.18 1470.82,1418.37 1471.11,1414.86 1475.77,1413.46 1482.72,1413.89 1482.81,1416.96 1483.5,1419.71 1483.84,1415.91 1484.71,1416.08 1484.99,1418.06 1487.32,1418.78 1489.16,1416.51 1491.04,1413.49 1494.42,1417.11 1496.59,1416.97 1498.91,1412.49 1501.48,1419.19 1501.93,1418.83 1502.19,1417.22 1503.74,1413.45 1505.08,1416.62 1507.03,1419.24 1507.78,1411.98 1507.98,1416.07 1509.16,1411.84 1511.89,1415.15 1520.08,1415.11 1520.49,1417.02 1523.9,1416.33 1524.98,1418.44 1526.98,1412.39 1529.84,1415.38 1533.46,1415.33 1534.15,1418.86 1536.21,1412.33 1536.86,1411.42 1537.62,1416.04 1540.86,1420.85 1541.55,1415.1 1548.86,1416.01 1550.23,1414 1550.71,1416.37 1552.89,1412.04 1555.11,1404.64 1555.5,1418.69 1559.53,1415.95 1559.84,1413.17 1560.14,1409 1563.71,1415.73 1563.9,1416.81 1565.15,1415.12 1567.83,1410.73 1568.3,1416.9 1569.58,1414.04 1569.76,1417.55 1572.76,1419.9 1575.09,1413.26 1580.28,1409.33 1582,1413.98 1583.34,1414.83 1589.09,1412.44 1589.58,1407.48 1591.43,1410.28 1591.45,1414.26 1594.53,1411.52 1596.85,1412.52 1599.09,1411.57 1602.64,1414.65 1602.76,1409.79 1604.4,1410.72 1606.9,1417.57 1610.78,1415.16 1612.02,1412.16 1612.05,1415.39 1614.7,1413.51 1615.05,1415.41 1618.1,1413.94 1621.96,1412.54 1623.51,1411.17 1626.41,1410.78 1626.43,1412.54 1638.56,1416.95 1641.23,1411.88 1642.34,1413.17 1646.96,1409.51 1647.59,1411.42 1649.66,1412.89 1652.72,1411.85 1652.78,1415.97 1655.51,1410.29 1657.15,1414.31 1663.7,1410.87 1664.28,1414.83 1664.99,1408.19 1665.3,1416.18 1667.9,1412.54 1668.46,1410.68 1668.7,1408.32 1673.17,1413 1676.13,1410.02 1677.09,1414.26 1677.32,1409.74 1678.03,1412.32 1678.15,1410.79 1678.36,1413.09 1685.96,1416.64 1692.86,1411.21 1693.63,1414.99 1696.97,1408.08 1698.81,1410.01 1701.36,1412.1 1702.58,1414.8 1703.61,1411.41 1707.32,1411.18 1708.53,1413.34 1713.98,1410.17 1720.9,1417.75 1721.92,1414.22 1722.41,1411.27 1723.06,1410.56 1727.13,1416.81 1727.32,1413.18 1727.57,1413.23 1727.58,1410.25 1734.16,1411.37 1735.35,1405.35 1736.81,1413.54 1737.39,1412.24 1740.33,1410.8 1746.35,1405.6 1748.93,1412.43 1751.02,1406.82 1753.81,1406.5 1755.98,1405 1761.06,1416.69 1767.83,1411.57 1768.66,1409.12 1776.66,1409.79 1777.87,1408.71 1779.76,1410.29 1779.99,1409.36 1781.12,1414.54 1784.92,1408.85 1785.82,1408.78 1787.56,1406.87 1788.04,1408.15 1789.85,1409.53 1790.63,1409.15 1791.07,1408.64 1791.62,1407.14 1792.81,1407.87 1796.64,1405.2 1797.01,1409.3 1798.17,1407.19 1799.07,1408.04 1799.22,1406.02 1799.75,1408.13 1800.92,1406.35 1801.81,1409.72 1802.33,1408.37 1805.6,1413.37 1806.55,1411.19 1807.07,1403.78 1807.22,1413.72 1807.52,1410.45 1808.49,1412.52 1809.52,1410.95 1810.58,1413.5 1815.91,1409.16 1816.87,87.9763 1824.1,1412.82 1826.09,1410.12 1831.15,1407.37 1833.57,1407.53 1835.94,1410.18 1836.19,1411.17 1837.06,1409 1838.61,1406.41 1839.65,1409.34 1842.05,1411.78 1842.06,1405.5 1842.54,1407.71 1843.69,1402.32 1843.85,1411.82 1844.77,1410.66 1845.15,1409.72 1845.68,1407.73 1847.7,1405.72 1850.27,1409.62 1853.76,1403.8 1857.46,1410.9 1858.36,1414.35 1858.63,1404.01 1859.05,1404.19 1859.14,1401.19 1860.15,1403.18 1862.7,1403.38 1865.2,1403.16 1867.41,1409.04 1868.47,1407.85 1876.51,1411.22 1877.15,1407.75 1879.23,1410.31 1880.05,1408.03 1880.52,1410.06 1884.9,1409.72 1888.39,1408.5 1891.9,1408.89 1893.7,1410.15 1894.34,1409.77 1894.35,1400.92 1897.8,1409.29 1900.02,1404.74 1904.04,1403.88 1906.38,1409.34 1906.91,1403.57 1907.36,1410.45 1910.28,1405.68 1912.65,1406.38 1916.34,1402.93 1918.34,1408.6 1921.57,1404.27 1922.14,1404.63 1922.36,1407.2 1924.02,1413.61 1928.61,1406.35 1930.79,1412.6 1932.77,1404.91 1932.79,1411.28 1934.03,1403.84 1934.07,1405.28 1935.58,1411.38 1937.36,1407 1938.12,1409.26 1941.39,1405.25 1942.29,1407.18 1942.47,1408.72 1945.87,1406.75 1947.27,1407.31 1947.28,1405.75 1947.96,1410.52 1948.31,1404.93 1948.67,1402.01 1948.97,1407.71 1950.29,1405.5 1952.64,1405.6 1953.68,1408.02 1955.46,1405.63 1955.71,1407.72 1958.05,1411.86 1959.25,1411.48 1959.55,1408.42 1959.77,1409.05 1961.19,1402.5 1961.44,1404.93 1962.8,1405.87 1965.5,1408.85 1966.66,1404.32 1969.09,1408.27 1970.82,1404.4 1974.19,1404.35 1974.47,1400.61 1974.9,1403.45 1977.9,1410.4 1980.87,1406.03 1981.08,1401.1 1981.72,1403.38 1985.25,1409.38 1989.61,1407.04 1995.62,1405.81 1997.38,1407.96 1998.16,1401.88 1998.58,1404.17 1999.74,1404.15 2000.63,1400.51 2001.58,1408.4 2001.62,1403.77 2003,1403.83 2005.09,1407.3 2007.14,1401.25 2007.75,1406.54 2021.28,1400.17 2021.8,1403.54 2022,1403.13 2024.56,1403.07 2031.06,1405.01 2035.4,1404.63 2041.08,1401.31 2042.18,1405.32 2042.95,1404.52 2043.03,1403.42 2043.8,1401.94 2044.63,1402.68 2046.09,1404.92 2046.56,1400.37 2052.78,1404.3 2052.92,1402.23 2055.6,1406.5 2057.27,1401.13 2058.33,1408.69 2061.26,1402.18 2061.95,1405.43 2063.46,1406.69 2063.81,1400.69 2064.16,1409.12 2065.09,1404.15 2065.81,1405.52 2070.12,1405.32 2070.16,1399.54 2071.73,1403.15 2074.42,1402.44 2081.65,1408.45 2082.37,1405.76 2083.47,1402.83 2084.81,1403.34 2088.16,1404.66 2092.52,1403.62 2095.87,1399.97 2095.92,1403.37 2096.53,1403.76 2099.22,1401.71 2099.9,1401.55 2107.46,1401.98 2107.98,1403.17 2109.55,1401.79 2111.5,1399.62 2111.6,1400.04 2112.94,1405.78 2114,1402.6 2117.24,1400.08 2117.5,1406.41 2118.16,1404.16 2122.57,1399.6 2123.46,1404.86 2124.48,1399.35 2125.68,1401.02 2126.26,1398.31 2127,1402.75 2127.01,1398.21 2127.35,1404.6 2127.35,1402.54 2131.2,1406.07 2131.63,1402.28 2132.5,1397.99 2132.82,1403.53 2133.62,1401.9 2133.64,1402.63 2139.61,1402.38 2141.07,1398.53 2141.68,1400.67 2142.4,1400.37 2143.03,1404.56 2145.01,1405.51 2147.99,1401.22 2148.79,1398.99 2152.28,1400.6 2152.3,1401.58 2152.4,1401.34 2157.62,1401.43 2159.31,1404.13 2160.51,1402.28 2162.43,1400.37 2162.53,1402.29 2163.37,1400.71 2165.16,1404.04 2166.09,1401.34 2168.4,1404.16 2172.26,1401.78 2176.38,1400.99 2176.82,1400.95 2177.04,1403.65 2177.4,1404.82 2178.42,1399.75 2178.92,1398.2 2179.54,1402.49 2181.39,1400.31 2183.17,1401.32 2183.63,1399.51 2185.97,1400.62 2188.74,1402.97 2192.17,1403.68 2192.77,1398.33 2193.02,1404.13 2193.31,1401.77 2200.77,1402.19 2201.41,1402.33 2208.7,1395.48 2210.21,1399.1 2210.79,1400.01 2215.66,1403.83 2217.5,1398.51 2218.77,1396.08 2221.71,1398.25 2221.89,1396.27 2223.14,1395.96 2223.28,1397.25 2224.86,1403.05 2229.36,1396.91 2236.18,1399.75 2239.24,1396.68 2245.59,1402.06 2246.16,1404.87 2249.53,1393.12 2250.82,1397.84 2251.63,1405.98 2254.19,1399.38 2254.88,1397.51 2256.16,1397.07 2256.69,1403.01 2258.12,1397.01 2264.72,1402.06 2266.59,1398.88 2268.76,1398.12 2273.82,1398.73 2274.75,1394.21 2277.33,1400.1 2279.76,1398.1 2282.78,1398.17 2283.33,1403.49 2290.43,1407.22 2291,1397.72 "/>
<polyline clip-path="url(#clip922)" style="stroke:#e26f46; stroke-linecap:round; stroke-linejoin:round; stroke-width:4; stroke-opacity:1; fill:none" points="234.16,1443.07 234.232,1441.59 236.427,1441.92 239.529,1438.6 241.733,1443.61 243.166,1444.1 243.838,1444.03 243.937,1444.07 244.806,1442.75 246.49,1442.26 247.488,1437.98 252.66,1441.11 254.442,1442.82 256,1443.79 258.703,1443.07 263.318,1442.93 264.938,1443.5 268.264,1442.55 269.345,1441.72 269.976,1441.91 270.502,1443.68 272.339,1441.45 272.623,1441.42 273.667,1444.73 279.332,1444.3 281.293,1441.01 281.572,1442.02 283.767,1442.7 284.029,1441.51 284.893,1443.22 289.006,1442.39 289.92,1442.69 291.307,1441.76 292.378,1443.71 294.668,1443.59 295.881,1441.16 296.228,1442.32 297.087,1440.58 302.604,1442.38 302.772,1442.59 310.103,1444.83 312.953,1442.33 313.516,1441.68 315.183,1443.3 315.56,1441.47 316.212,1442.94 317.064,1440.06 320.726,1440.83 321.094,1443.01 321.521,1440.66 323.088,1440.57 323.656,1443.54 326.736,1443.96 328.59,1439.4 328.849,1440.82 330.598,1444.21 334.548,1440.98 335.207,1442.27 335.777,1442.67 340.432,1440.91 343.431,1442.86 345.452,1439.78 351.063,1440.58 352.385,1442.73 354.854,1440.52 355.383,1442.15 365.132,1441.04 371.728,1442.05 374.501,1442.92 377.773,1438.98 379.953,1443.86 380.459,1440.84 383.839,1441.73 394.905,1440.61 395.256,1440.22 397.357,1441.66 398.779,1440.05 404.509,1442.92 405.112,1444.09 407.619,1440.88 410.634,1438.04 411.588,1443.53 412.363,1442.71 414.867,1444.51 418.83,1440.88 419.182,1445.12 419.186,1439.48 421.192,1441.77 422.05,1441.6 434.245,1439.53 434.312,1440.53 436.733,1440.62 438.558,1438.84 440.347,1442.21 441.278,1442.3 447.606,1439.86 449.588,1440.81 450.134,1441.54 450.533,1439 450.873,1443.59 451.535,1439.23 452.023,1438.55 453.103,1441.21 453.681,1441.49 453.775,1442.16 455.749,1440.01 461.497,1441.17 462.084,1440.39 464.628,1441.39 471.811,1441.21 471.952,1438.08 473.132,1440.27 473.558,1440.08 474.502,1436.41 475.524,1442.01 475.744,1441.53 482.862,1442.24 483.893,1441.31 485.929,1440.35 486.64,1438.26 494.305,1441.32 494.672,1441.07 496.771,1440.64 497.394,1439.13 506.506,1442.07 506.754,1440.78 511.384,1441.89 512.57,1439.37 512.904,1440.24 514.411,1441.39 520.309,1436.39 521.288,1438.76 521.81,1440.06 523.63,1441.45 524.565,1439.17 526.353,1441.39 528.852,1440.04 529.964,1437.52 539.435,1440.38 541.632,1439.63 541.767,1438.47 542.755,1443.74 544.415,1438.95 544.994,1438.1 547.412,1439.04 547.937,1440.75 548.425,1438.28 551.2,1438.46 552.689,1439.61 554.381,1443.05 558.079,1438.7 558.126,1439.55 564.054,1442.23 566.653,1440.17 568.398,1439.74 569.127,1440.07 570.474,1438.25 579.009,1439 579.116,1439.5 582.402,1438.63 585.159,1438.78 586.298,1438.31 587.796,1439.46 591.621,1436.77 591.889,1438.87 593.657,1439.85 597.064,1439.03 599.472,1441.6 600.144,1438.74 605.343,1439.83 607.003,1436.38 608.21,1438.26 609.092,1443.82 613.635,1439.58 614.804,1441.28 619.262,1439.67 619.355,1439.37 619.786,1439.37 620.023,1436.91 622.338,1439.12 622.82,1439.45 626.839,1439.34 627.56,1437.21 631.555,1437.12 635.58,1440.37 635.87,1437.46 641.683,1443.02 642.05,1441.33 648.781,1442.76 650.114,1436.15 652.647,1440.91 659.529,1435.45 660.653,1438.84 662.794,1440.98 671.699,1436.65 671.776,1440.25 673.973,1439.86 676.304,1436.88 676.957,1436.2 679.659,1436.21 679.87,1438.32 683.259,1441.84 683.393,1436.41 684.881,1436.88 685.922,1440.43 687.651,1435.92 688.079,1436.58 689.279,1439.35 691.065,1436.65 693.235,1437.25 695.879,1437.97 697.175,1438.24 698.524,1439.56 700.822,1438.03 700.925,1439.75 700.971,1436.52 701.218,1436.5 702.399,1438.56 702.781,1438.25 703.081,1438.47 703.1,1438.08 707.297,1438.43 707.338,1438.58 712.461,1438.75 712.725,1437.44 713.179,1436.68 715.096,1436.74 716.653,1436.85 718.514,1435.94 720.525,1437.07 720.877,1439.05 722.344,1436.73 722.948,1437.38 724.983,1437.36 725.169,1436.52 726.647,1436.08 730.545,1439.52 730.686,1438.15 732.297,1434.8 734.268,1439.78 737.801,1438.38 741.376,1435.12 749.657,1437.45 754.351,1439.2 754.991,1439.82 755.556,1436.88 759.87,1440.38 759.997,1435.34 760.994,1436.57 761.815,1435.94 762.525,1438.83 763.826,1435.25 768.463,1436.86 770.693,1439.53 771.241,1435.98 773.319,1435.73 773.824,1437.23 774.762,1440.07 775.822,1437.41 776.168,1436.99 779.569,1436.86 779.612,1438.89 780.69,1436.88 784.164,1438.5 789.136,1438.3 789.585,1434.32 789.737,1438.22 790.396,1439.49 791.01,1437.86 799.25,1436.2 800.806,1437.04 803.924,1437.77 809.536,1431.63 809.591,1434.69 810.759,1440.62 810.91,1435.68 810.976,1437.29 813.05,1436.72 820.416,1437.69 821.51,1438.56 824.528,1438.17 824.848,1436.47 826.471,1437.25 827.356,1438.52 827.612,1437.38 830.995,1436.2 833.511,1437.65 835.315,1436.84 839.391,1438.72 841.582,1437.52 842.011,1437.55 843.139,1435.41 843.912,1435.86 845.931,1437.22 846.444,1437.7 848.155,1436.57 848.212,1437.71 848.946,1437.71 850.614,1441.67 850.721,1434.49 850.919,1436.69 852.721,1440.71 853.038,1437.35 853.237,1438.24 853.658,1436.69 858.552,1434.78 858.916,1436.61 860.613,1438 861.029,1438.2 861.889,1437.15 862.244,1437.64 863.416,1438.34 869.991,1438.02 871.356,1439.54 872.34,1438.51 873.498,1438.14 878.783,1438.4 881.25,1437.48 881.771,1438.45 881.803,1438.36 889.072,1436.16 896.93,1437.32 897.872,1437.76 898.934,1435.98 899.208,1435.83 901.416,1439.79 904.918,1435.06 904.919,1438.8 905.26,1435.9 910.658,1437.65 911.721,1435.33 913.282,1440.26 922.076,1432.85 923.73,1438.13 927.038,1433.61 930.22,1437.05 930.936,1435.54 932.996,1437.63 939.567,1436.06 939.576,1436.92 940.736,1436.73 942.918,1435.86 944.518,1436.25 948.441,1437.64 950.291,1436.32 955.166,1437.51 956.944,1435.32 961.317,1438.54 964.501,1437.48 967.261,1433.42 968.819,1437.48 971.446,1434.07 978.809,1436.83 980.263,1436.79 981.367,1438.63 984.878,1434.93 985.502,1433.93 986.254,1432.8 990.029,1437.18 990.038,1432.92 992.562,1435.03 993.449,1434.71 993.691,1436.02 993.98,1435.7 995.42,1435.07 999.047,1434.4 999.217,1436.19 999.588,1436.41 1002.21,1434.37 1003.88,1432.59 1004.84,1433.81 1005.86,1436.36 1007.79,1433.68 1010.44,1435.59 1011.09,1434.6 1013.36,1435.44 1014.02,1434.73 1014.95,1431.67 1018.29,1433.72 1024.91,1433.65 1027.36,1433.14 1029.33,1431.02 1029.79,1436.38 1031.22,1433.97 1031.37,1432.65 1033.04,1431.76 1042.17,1434.68 1051.45,1431.46 1052.04,1430.67 1055.17,1429.05 1057.12,1430.67 1064.15,1429.84 1067.11,1430.93 1067.43,1430.18 1067.65,1429.82 1068.63,1433.27 1070.21,1431.72 1071.58,1432.96 1073.72,1428.41 1076.7,1431.96 1077.63,1432.68 1078.04,1429.65 1078.78,1429.39 1081.87,1429.63 1084.13,1432.42 1085.72,1430 1090.72,1426.14 1092.45,1429.06 1093.34,1429.59 1096.84,1428.37 1099.81,1427.4 1101.11,1430.37 1105,1427.79 1109.17,1430.8 1116.52,1426.2 1119.98,1427.75 1121.93,1426.19 1125.41,1427.26 1125.41,1422.78 1125.8,1425.63 1126.48,1424.96 1127.85,1424.66 1131.49,1422.76 1132.24,1421.5 1135.1,1424.35 1138.56,1421.26 1138.79,1426.84 1139.89,1426.22 1143.82,1420.68 1146.3,1425.16 1146.45,1423.66 1152,1422.75 1158.38,1418.55 1165.08,1421.71 1165.9,1414.86 1167.81,1417.84 1168.02,1419.63 1171.14,1419.8 1172.35,1415.2 1173.22,1416.44 1179.13,1414.79 1180.45,1412.97 1181.77,1413.39 1182.26,1410.4 1182.97,1414.39 1183.52,1414.6 1183.73,1414.61 1184.51,1413.8 1184.91,1411.64 1186.37,1413.02 1187.03,1410.87 1187.68,1413.65 1188.11,1414.03 1190.8,1410.52 1192.44,1411.64 1192.6,1414.79 1193.39,1412.49 1195.44,1409.79 1196.07,1408.14 1202.73,1407.05 1203.61,1411.38 1210.76,1406.71 1214.36,1408.27 1217.94,1401.86 1218.7,1402.31 1219.62,1403.6 1226.08,1398.91 1226.53,1397.67 1231.82,1401.38 1233.85,1397.84 1234.6,1398.22 1243.74,1393.56 1245.1,1393.85 1247.87,1398.24 1252.87,1389.4 1253.89,1391.35 1258.07,1391.67 1260.26,1386.54 1264.35,1384.79 1267.17,1385.16 1271,1383.55 1271.27,1383.84 1273.61,1385.13 1273.89,1384.31 1275.86,1382.04 1276.09,1384.61 1285.01,1377.58 1285.38,1376.93 1285.73,1381.52 1289.74,1374.85 1297.83,1372.56 1297.87,1373.79 1299.99,1373.16 1302.02,1370.45 1307.69,1368.04 1307.87,1368.09 1308.43,1368.54 1309.14,1366.12 1309.16,1368.19 1309.75,1369.88 1311.92,1367.21 1314.9,1367.52 1322.76,1359.89 1324.32,1361.67 1325.03,1365.56 1328.31,1357.42 1328.55,1362.6 1332.96,1357.34 1334.17,1355.84 1336.85,1356.29 1337.35,1357.37 1337.82,1356.89 1338.4,1354.32 1338.85,1355.11 1339.95,1353.02 1341.49,1355.29 1341.52,1353.7 1342.11,1355.52 1342.46,1354.87 1343.34,1355.31 1343.88,1357.04 1344.02,1355.71 1345.84,1347.55 1349.13,1355.31 1350.08,1352.01 1352.81,1352.33 1354.74,1351.27 1356.72,1351.25 1356.78,1348.08 1358.66,1348.46 1360.04,1347.6 1363.99,1343.64 1364.98,1343.98 1366.19,1345.71 1371.23,1343.25 1371.52,1345.24 1372.35,1343.73 1372.89,1341.01 1373.28,1340.05 1377.04,1338.49 1379.63,1342.34 1381.95,1335.37 1381.97,1340.34 1383.4,1339.13 1383.78,1340.15 1386.23,1340.84 1389.4,1339.04 1394.39,1335.39 1399.76,1334.17 1402.29,1333.31 1403.67,1333.77 1407.47,1332.22 1409.1,1330.96 1409.91,1328.47 1410.5,1330.9 1411.6,1332.54 1414.17,1332.26 1416.17,1327.91 1417.38,1328.54 1419.03,1328.18 1424.97,1330.16 1425.01,1330.11 1427.57,1329.13 1431.41,1327.51 1434.89,1327.7 1440.18,1327.5 1440.62,1327.19 1441.06,1325.43 1441.18,1326.46 1441.73,1326.54 1442.26,1325.39 1446.53,1323.44 1447.19,1323.28 1447.33,1323.97 1455.67,1321.59 1457.43,1325.74 1458.87,1321.03 1461.22,1322.82 1461.45,1324.67 1462.51,1323.11 1463.66,1324.79 1464.81,1322.75 1469.97,1323.92 1474.45,1324.72 1476.73,1322.69 1479.57,1321.42 1484.96,1325.98 1485.88,1325.23 1486.57,1324.44 1487.52,1325.25 1487.91,1324.37 1488.12,1325.79 1490.31,1324.32 1491.59,1320.16 1492.98,1324.54 1493.06,1328.17 1494.51,1325.24 1497.53,1327.48 1500.47,1329.45 1508.26,1329.67 1515.15,1328.91 1515.21,1326.95 1515.71,1325.51 1516.03,1329.59 1516.08,1326.73 1517.3,1328.78 1519.45,1328.64 1522.22,1328.87 1522.4,1326.27 1525.82,1331.2 1526.31,1331.54 1530.13,1330.34 1532.65,1333.04 1535.31,1334.5 1540.34,1331.98 1540.75,1334.54 1540.85,1334.15 1541.8,1333.52 1543.06,1337.35 1545.55,1336.69 1547.46,1339.43 1548.03,1338.05 1549.77,1337.36 1549.79,1336.76 1552.39,1337.95 1554.14,1340.1 1554.42,1340.03 1559.57,1340.65 1561.23,1339.36 1561.79,1338.67 1564.03,1342.15 1565.66,1346.63 1570.64,1344.48 1574.22,1343.78 1575.84,1346.48 1577.67,1347.53 1578.26,1345.43 1579.67,1345 1580.09,1348.64 1580.97,1348.53 1582.15,1345.64 1589.9,1348.63 1590.66,1352.79 1596.51,1353.83 1600.53,1355.7 1601.31,1355.4 1603.21,1356.24 1604.67,1353.93 1605,1358.82 1606.19,1355.91 1607.41,1356.04 1609.49,1359.06 1611.25,1360.25 1611.65,1362.09 1612.19,1362.28 1613.99,1358.47 1618.33,1362.19 1622.22,1363.12 1622.39,1362.95 1626.41,1365.22 1631.45,1367.54 1631.55,1367.23 1632.69,1367.73 1633.06,1371.3 1635.94,1369.37 1641.5,1372.11 1641.71,1372 1641.97,1368.09 1642.11,1373.37 1643.99,1374.56 1648.88,1375.45 1649.23,1373.42 1655.89,1376.62 1656.28,1376.87 1659.48,1378.17 1662.31,1379.95 1663.05,1381.06 1663.27,1379.85 1669.42,1379.68 1669.86,1382.61 1673.51,1385.57 1674.12,1384.03 1674.72,1383.14 1674.85,1388.25 1679.76,1388.36 1681.29,1387.06 1681.5,1385.38 1681.97,1387.46 1683.6,1389.32 1683.92,1386.82 1684.44,1386.84 1684.84,1388.93 1685.54,1390.18 1689.31,1388.69 1690.41,1388.37 1690.76,1390.97 1692.81,1389.09 1693.93,1391.87 1697.69,1396.39 1699.3,1393.56 1702.34,1395.56 1702.66,1397.5 1702.92,1395.72 1704.07,1394.39 1704.4,1397.22 1709.71,1396.32 1710.82,1399.89 1716.71,1398.09 1719.2,1399.22 1725.25,1399.75 1726.86,1399.13 1728.72,1402.68 1729.15,1402.73 1729.95,1402.43 1731.81,1404 1733.05,1406.06 1734.58,1402.72 1735.22,1406.49 1737.71,1403.9 1738,1409.9 1738.33,1406.95 1739.23,1404.75 1741.6,1406.88 1745.43,1407.23 1747.9,1406.3 1748.01,1410.49 1748.07,1409.45 1752.32,1408.49 1753.18,1408.91 1757.78,1411.14 1759.55,1407.22 1761.79,1409.58 1766.92,1410.37 1770.97,1413.19 1770.99,1414.32 1772.69,1412.2 1775.37,1412.57 1776.44,1414.05 1777.32,1413.99 1780.31,1414.73 1783.12,1413.31 1784.69,1415.1 1785.59,1414.05 1785.66,1417.49 1789.26,1415.97 1789.84,1415.09 1791.84,1415.54 1792.88,1416.14 1794.32,1419.02 1795.83,1415.57 1795.89,1417.7 1799.66,1414.79 1801.15,1418.42 1803.87,1420.1 1804.27,1417.92 1805.14,1417.87 1806.65,1419.82 1807.61,1417.76 1810.43,1420.22 1813.77,1417.63 1814.82,1420.56 1819.24,1419.96 1820.22,1419.81 1823.03,1419.85 1823.24,1421.05 1824.82,1420.61 1828.88,1426.22 1830.1,1421.93 1831.34,1421.02 1833.33,1423.22 1837.23,1422.98 1838.29,1421.48 1838.59,1424.59 1840.98,1422.18 1843.65,1422.75 1846.57,1424.2 1848.19,1425.31 1851.21,1421.85 1853.52,1424.68 1854.37,1423.69 1855.1,1423.52 1857.99,1421.96 1861.12,1421.34 1861.66,1426.32 1862.45,1423.88 1863.1,1423.2 1865.89,1425.17 1870.97,1425.38 1873.31,1423.35 1873.88,1424.31 1877.01,1426.17 1878.45,1426.13 1882.12,1425.58 1883.48,1426.51 1884.54,1426.3 1888.58,1425.95 1892.56,1425.81 1894.71,1427.61 1894.72,1426.07 1895.26,1427.55 1903.11,1428.65 1904.16,1425.77 1905,1423.7 1905.04,1426.37 1906.37,1427.01 1910.21,1424.76 1910.56,1428.83 1912.79,1424.02 1913.05,1426.2 1916.1,1428.55 1916.16,1424.5 1918.82,1426.63 1919.37,1427.66 1920.16,1426.15 1922.14,1428.4 1922.76,1429.44 1923.55,1430.51 1924.19,1426.5 1928.58,1430.92 1929.79,1430.08 1929.8,1427.21 1930.12,1428.03 1933.62,1424.98 1935.08,1427.86 1936.72,1426.78 1938.23,1429.18 1939.23,1428.8 1940.32,1424.68 1940.47,1427.81 1943.03,1428.94 1944.08,1426.21 1946.08,1422.94 1954.84,1428.28 1958.29,1430.56 1958.86,1428.84 1960.41,1426.76 1960.99,1424.16 1961.47,1424.92 1968.68,1428.85 1969.35,1427.89 1969.74,1427.42 1970.58,1429.9 1973.08,1427.97 1973.38,1424.01 1978.17,1431.33 1980.38,1426.17 1981.02,1425.8 1983.55,1426.94 1987.66,1430.23 1988.1,1430.55 1988.53,1425.61 1989.38,1428.16 1990.5,1426.46 1990.9,1425.79 1992.67,1422.5 1996.14,1427.4 1997.32,1427.18 1997.46,1429.37 1997.9,1428.3 2000.34,1427.15 2000.5,1429.16 2006.48,1429.19 2007.68,1427.82 2009.6,1429.75 2010.22,1429.04 2014.02,1427.14 2014.38,1427.51 2015.56,1428.63 2021.68,1429.65 2022.15,1429.11 2026.92,1430.44 2032.28,1426.46 2032.87,1430.21 2035.18,1427.41 2035.9,1427.51 2048.81,1426.26 2050.25,1428.5 2050.86,1430.74 2053.17,1426.92 2054.8,1428 2055.17,1424.14 2059.43,1427.24 2061.55,1429.88 2062.24,1428.35 2062.36,1429.53 2068.58,1424.95 2068.83,1424.67 2075.41,1425.16 2075.77,1427.33 2075.84,1427.25 2076.73,1425.58 2079.63,1428.31 2087.4,1423.1 2093,1427.97 2097.4,1427.05 2101.1,1429.96 2103.83,1427.17 2106.36,1428.55 2109.75,1428.16 2110.1,1427.24 2110.88,1426.04 2112.88,1427.13 2112.91,1427.06 2113.68,1424.44 2117.56,1427.07 2117.6,1428.32 2123.59,1428.62 2125.44,1430.1 2127.45,1425.98 2128.2,1428.74 2130.51,1427.1 2133.17,1428.79 2136.24,1426.88 2137.6,1429.76 2139.55,1428.63 2141.03,1428.51 2143.48,1428.44 2144.94,1426.17 2149.63,1427.09 2151.96,1424.85 2153.06,1428.27 2154.18,1428.83 2156.05,1422.89 2160.12,1424.74 2161.49,1426.41 2163.67,1428.03 2164.76,1422.51 2168.81,1428.64 2169.22,1427.44 2169.74,1425.64 2171.74,1429.71 2174.14,1429.04 2176.65,1426.7 2182.17,1430.54 2183.14,1423.89 2184.3,1426.91 2184.4,1429.2 2185.55,1428.57 2188.9,1424.98 2191.46,1425.01 2193.18,1425.18 2194.85,1428.43 2196.94,1427.47 2197.69,1427.67 2200.82,1429.11 2202.6,1429.25 2207.16,1425.48 2208.1,1424.65 2208.99,1426.68 2216.74,1422.95 2216.75,1428.19 2217.99,1426.07 2218.23,1425.38 2219.1,1425.6 2219.25,1426.59 2220.44,1425.07 2224.03,1426.13 2224.3,1426.89 2225.29,1429.04 2225.87,1425.19 2227.42,1429.06 2229.47,1423.59 2230.41,1424.14 2230.89,1424.33 2231.67,1426.98 2233.9,1427.13 2234.85,1424.6 2237.07,1426.43 2238.24,1426.36 2238.43,1427.41 2238.69,1426.74 2242.77,1426.96 2244.56,1424.16 2247.02,1426.03 2247.83,1425 2248.98,1427.12 2254.31,1427.29 2256.74,1426.43 2257.99,1423.55 2260.62,1424.05 2261.41,1426.02 2262.25,1423.1 2263.41,1425.7 2263.58,1425.92 2263.96,1425.39 2264.21,1426.92 2266.6,1424.75 2266.86,1428.68 2269.55,1424.84 2274.88,1423.85 2278.5,1424.57 2279.33,1427 2279.96,1426.19 2280.23,1427.27 2280.96,1423.83 2281.44,1429.44 2282.63,1425.84 2283.79,1425.44 2285.01,1423.67 2285.29,1426.06 "/>
<path clip-path="url(#clip920)" d="M243.587 250.738 L514.207 250.738 L514.207 95.2176 L243.587 95.2176  Z" fill="#ffffff" fill-rule="evenodd" fill-opacity="1"/>
<polyline clip-path="url(#clip920)" style="stroke:#000000; stroke-linecap:round; stroke-linejoin:round; stroke-width:4; stroke-opacity:1; fill:none" points="243.587,250.738 514.207,250.738 514.207,95.2176 243.587,95.2176 243.587,250.738 "/>
<polyline clip-path="url(#clip920)" style="stroke:#009af9; stroke-linecap:round; stroke-linejoin:round; stroke-width:4; stroke-opacity:1; fill:none" points="267.831,147.058 413.291,147.058 "/>
<path clip-path="url(#clip920)" d="M451.376 166.745 Q449.571 171.375 447.858 172.787 Q446.145 174.199 443.275 174.199 L439.872 174.199 L439.872 170.634 L442.372 170.634 Q444.131 170.634 445.103 169.8 Q446.076 168.967 447.256 165.865 L448.02 163.921 L437.534 138.412 L442.048 138.412 L450.15 158.689 L458.251 138.412 L462.765 138.412 L451.376 166.745 Z" fill="#000000" fill-rule="nonzero" fill-opacity="1" /><path clip-path="url(#clip920)" d="M470.057 160.402 L477.696 160.402 L477.696 134.037 L469.386 135.703 L469.386 131.444 L477.649 129.778 L482.325 129.778 L482.325 160.402 L489.964 160.402 L489.964 164.338 L470.057 164.338 L470.057 160.402 Z" fill="#000000" fill-rule="nonzero" fill-opacity="1" /><polyline clip-path="url(#clip920)" style="stroke:#e26f46; stroke-linecap:round; stroke-linejoin:round; stroke-width:4; stroke-opacity:1; fill:none" points="267.831,198.898 413.291,198.898 "/>
<path clip-path="url(#clip920)" d="M451.376 218.585 Q449.571 223.215 447.858 224.627 Q446.145 226.039 443.275 226.039 L439.872 226.039 L439.872 222.474 L442.372 222.474 Q444.131 222.474 445.103 221.64 Q446.076 220.807 447.256 217.705 L448.02 215.761 L437.534 190.252 L442.048 190.252 L450.15 210.529 L458.251 190.252 L462.765 190.252 L451.376 218.585 Z" fill="#000000" fill-rule="nonzero" fill-opacity="1" /><path clip-path="url(#clip920)" d="M473.274 212.242 L489.594 212.242 L489.594 216.178 L467.649 216.178 L467.649 212.242 Q470.312 209.488 474.895 204.858 Q479.501 200.205 480.682 198.863 Q482.927 196.34 483.807 194.604 Q484.71 192.844 484.71 191.155 Q484.71 188.4 482.765 186.664 Q480.844 184.928 477.742 184.928 Q475.543 184.928 473.089 185.692 Q470.659 186.455 467.881 188.006 L467.881 183.284 Q470.705 182.15 473.159 181.571 Q475.612 180.993 477.649 180.993 Q483.02 180.993 486.214 183.678 Q489.409 186.363 489.409 190.854 Q489.409 192.983 488.598 194.905 Q487.811 196.803 485.705 199.395 Q485.126 200.067 482.024 203.284 Q478.923 206.479 473.274 212.242 Z" fill="#000000" fill-rule="nonzero" fill-opacity="1" /></svg>
