<?xml version="1.0" encoding="utf-8"?>
<svg xmlns="http://www.w3.org/2000/svg" xmlns:xlink="http://www.w3.org/1999/xlink" width="600" height="400" viewBox="0 0 2400 1600">
<defs>
  <clipPath id="clip950">
    <rect x="0" y="0" width="2400" height="1600"/>
  </clipPath>
</defs>
<path clip-path="url(#clip950)" d="M0 1600 L2400 1600 L2400 0 L0 0  Z" fill="#ffffff" fill-rule="evenodd" fill-opacity="1"/>
<defs>
  <clipPath id="clip951">
    <rect x="480" y="0" width="1681" height="1600"/>
  </clipPath>
</defs>
<path clip-path="url(#clip950)" d="M140.696 1486.45 L2352.76 1486.45 L2352.76 47.2441 L140.696 47.2441  Z" fill="#ffffff" fill-rule="evenodd" fill-opacity="1"/>
<defs>
  <clipPath id="clip952">
    <rect x="140" y="47" width="2213" height="1440"/>
  </clipPath>
</defs>
<polyline clip-path="url(#clip952)" style="stroke:#000000; stroke-linecap:round; stroke-linejoin:round; stroke-width:2; stroke-opacity:0.1; fill:none" points="203.301,1486.45 203.301,47.2441 "/>
<polyline clip-path="url(#clip952)" style="stroke:#000000; stroke-linecap:round; stroke-linejoin:round; stroke-width:2; stroke-opacity:0.1; fill:none" points="725.013,1486.45 725.013,47.2441 "/>
<polyline clip-path="url(#clip952)" style="stroke:#000000; stroke-linecap:round; stroke-linejoin:round; stroke-width:2; stroke-opacity:0.1; fill:none" points="1246.73,1486.45 1246.73,47.2441 "/>
<polyline clip-path="url(#clip952)" style="stroke:#000000; stroke-linecap:round; stroke-linejoin:round; stroke-width:2; stroke-opacity:0.1; fill:none" points="1768.44,1486.45 1768.44,47.2441 "/>
<polyline clip-path="url(#clip952)" style="stroke:#000000; stroke-linecap:round; stroke-linejoin:round; stroke-width:2; stroke-opacity:0.1; fill:none" points="2290.15,1486.45 2290.15,47.2441 "/>
<polyline clip-path="url(#clip952)" style="stroke:#000000; stroke-linecap:round; stroke-linejoin:round; stroke-width:2; stroke-opacity:0.1; fill:none" points="140.696,1426.91 2352.76,1426.91 "/>
<polyline clip-path="url(#clip952)" style="stroke:#000000; stroke-linecap:round; stroke-linejoin:round; stroke-width:2; stroke-opacity:0.1; fill:none" points="140.696,1125.28 2352.76,1125.28 "/>
<polyline clip-path="url(#clip952)" style="stroke:#000000; stroke-linecap:round; stroke-linejoin:round; stroke-width:2; stroke-opacity:0.1; fill:none" points="140.696,823.658 2352.76,823.658 "/>
<polyline clip-path="url(#clip952)" style="stroke:#000000; stroke-linecap:round; stroke-linejoin:round; stroke-width:2; stroke-opacity:0.1; fill:none" points="140.696,522.033 2352.76,522.033 "/>
<polyline clip-path="url(#clip952)" style="stroke:#000000; stroke-linecap:round; stroke-linejoin:round; stroke-width:2; stroke-opacity:0.1; fill:none" points="140.696,220.408 2352.76,220.408 "/>
<polyline clip-path="url(#clip950)" style="stroke:#000000; stroke-linecap:round; stroke-linejoin:round; stroke-width:4; stroke-opacity:1; fill:none" points="140.696,1486.45 2352.76,1486.45 "/>
<polyline clip-path="url(#clip950)" style="stroke:#000000; stroke-linecap:round; stroke-linejoin:round; stroke-width:4; stroke-opacity:1; fill:none" points="203.301,1486.45 203.301,1467.55 "/>
<polyline clip-path="url(#clip950)" style="stroke:#000000; stroke-linecap:round; stroke-linejoin:round; stroke-width:4; stroke-opacity:1; fill:none" points="725.013,1486.45 725.013,1467.55 "/>
<polyline clip-path="url(#clip950)" style="stroke:#000000; stroke-linecap:round; stroke-linejoin:round; stroke-width:4; stroke-opacity:1; fill:none" points="1246.73,1486.45 1246.73,1467.55 "/>
<polyline clip-path="url(#clip950)" style="stroke:#000000; stroke-linecap:round; stroke-linejoin:round; stroke-width:4; stroke-opacity:1; fill:none" points="1768.44,1486.45 1768.44,1467.55 "/>
<polyline clip-path="url(#clip950)" style="stroke:#000000; stroke-linecap:round; stroke-linejoin:round; stroke-width:4; stroke-opacity:1; fill:none" points="2290.15,1486.45 2290.15,1467.55 "/>
<path clip-path="url(#clip950)" d="M203.301 1517.37 Q199.69 1517.37 197.861 1520.93 Q196.056 1524.47 196.056 1531.6 Q196.056 1538.71 197.861 1542.27 Q199.69 1545.82 203.301 1545.82 Q206.935 1545.82 208.741 1542.27 Q210.57 1538.71 210.57 1531.6 Q210.57 1524.47 208.741 1520.93 Q206.935 1517.37 203.301 1517.37 M203.301 1513.66 Q209.111 1513.66 212.167 1518.27 Q215.245 1522.85 215.245 1531.6 Q215.245 1540.33 212.167 1544.94 Q209.111 1549.52 203.301 1549.52 Q197.491 1549.52 194.412 1544.94 Q191.357 1540.33 191.357 1531.6 Q191.357 1522.85 194.412 1518.27 Q197.491 1513.66 203.301 1513.66 Z" fill="#000000" fill-rule="nonzero" fill-opacity="1" /><path clip-path="url(#clip950)" d="M704.284 1544.91 L720.604 1544.91 L720.604 1548.85 L698.659 1548.85 L698.659 1544.91 Q701.321 1542.16 705.905 1537.53 Q710.511 1532.88 711.692 1531.53 Q713.937 1529.01 714.817 1527.27 Q715.719 1525.51 715.719 1523.82 Q715.719 1521.07 713.775 1519.33 Q711.854 1517.6 708.752 1517.6 Q706.553 1517.6 704.099 1518.36 Q701.669 1519.13 698.891 1520.68 L698.891 1515.95 Q701.715 1514.82 704.169 1514.24 Q706.622 1513.66 708.659 1513.66 Q714.03 1513.66 717.224 1516.35 Q720.418 1519.03 720.418 1523.52 Q720.418 1525.65 719.608 1527.57 Q718.821 1529.47 716.715 1532.07 Q716.136 1532.74 713.034 1535.95 Q709.932 1539.15 704.284 1544.91 Z" fill="#000000" fill-rule="nonzero" fill-opacity="1" /><path clip-path="url(#clip950)" d="M730.465 1514.29 L748.821 1514.29 L748.821 1518.22 L734.747 1518.22 L734.747 1526.7 Q735.766 1526.35 736.784 1526.19 Q737.803 1526 738.821 1526 Q744.608 1526 747.988 1529.17 Q751.367 1532.34 751.367 1537.76 Q751.367 1543.34 747.895 1546.44 Q744.423 1549.52 738.104 1549.52 Q735.928 1549.52 733.659 1549.15 Q731.414 1548.78 729.006 1548.04 L729.006 1543.34 Q731.09 1544.47 733.312 1545.03 Q735.534 1545.58 738.011 1545.58 Q742.016 1545.58 744.354 1543.48 Q746.691 1541.37 746.691 1537.76 Q746.691 1534.15 744.354 1532.04 Q742.016 1529.94 738.011 1529.94 Q736.136 1529.94 734.261 1530.35 Q732.409 1530.77 730.465 1531.65 L730.465 1514.29 Z" fill="#000000" fill-rule="nonzero" fill-opacity="1" /><path clip-path="url(#clip950)" d="M1221.42 1514.29 L1239.78 1514.29 L1239.78 1518.22 L1225.71 1518.22 L1225.71 1526.7 Q1226.73 1526.35 1227.74 1526.19 Q1228.76 1526 1229.78 1526 Q1235.57 1526 1238.95 1529.17 Q1242.33 1532.34 1242.33 1537.76 Q1242.33 1543.34 1238.86 1546.44 Q1235.38 1549.52 1229.06 1549.52 Q1226.89 1549.52 1224.62 1549.15 Q1222.37 1548.78 1219.97 1548.04 L1219.97 1543.34 Q1222.05 1544.47 1224.27 1545.03 Q1226.49 1545.58 1228.97 1545.58 Q1232.98 1545.58 1235.31 1543.48 Q1237.65 1541.37 1237.65 1537.76 Q1237.65 1534.15 1235.31 1532.04 Q1232.98 1529.94 1228.97 1529.94 Q1227.1 1529.94 1225.22 1530.35 Q1223.37 1530.77 1221.42 1531.65 L1221.42 1514.29 Z" fill="#000000" fill-rule="nonzero" fill-opacity="1" /><path clip-path="url(#clip950)" d="M1261.54 1517.37 Q1257.93 1517.37 1256.1 1520.93 Q1254.3 1524.47 1254.3 1531.6 Q1254.3 1538.71 1256.1 1542.27 Q1257.93 1545.82 1261.54 1545.82 Q1265.17 1545.82 1266.98 1542.27 Q1268.81 1538.71 1268.81 1531.6 Q1268.81 1524.47 1266.98 1520.93 Q1265.17 1517.37 1261.54 1517.37 M1261.54 1513.66 Q1267.35 1513.66 1270.41 1518.27 Q1273.48 1522.85 1273.48 1531.6 Q1273.48 1540.33 1270.41 1544.94 Q1267.35 1549.52 1261.54 1549.52 Q1255.73 1549.52 1252.65 1544.94 Q1249.6 1540.33 1249.6 1531.6 Q1249.6 1522.85 1252.65 1518.27 Q1255.73 1513.66 1261.54 1513.66 Z" fill="#000000" fill-rule="nonzero" fill-opacity="1" /><path clip-path="url(#clip950)" d="M1742.29 1514.29 L1764.51 1514.29 L1764.51 1516.28 L1751.97 1548.85 L1747.08 1548.85 L1758.89 1518.22 L1742.29 1518.22 L1742.29 1514.29 Z" fill="#000000" fill-rule="nonzero" fill-opacity="1" /><path clip-path="url(#clip950)" d="M1773.68 1514.29 L1792.04 1514.29 L1792.04 1518.22 L1777.96 1518.22 L1777.96 1526.7 Q1778.98 1526.35 1780 1526.19 Q1781.02 1526 1782.04 1526 Q1787.82 1526 1791.2 1529.17 Q1794.58 1532.34 1794.58 1537.76 Q1794.58 1543.34 1791.11 1546.44 Q1787.64 1549.52 1781.32 1549.52 Q1779.14 1549.52 1776.88 1549.15 Q1774.63 1548.78 1772.22 1548.04 L1772.22 1543.34 Q1774.31 1544.47 1776.53 1545.03 Q1778.75 1545.58 1781.23 1545.58 Q1785.23 1545.58 1787.57 1543.48 Q1789.91 1541.37 1789.91 1537.76 Q1789.91 1534.15 1787.57 1532.04 Q1785.23 1529.94 1781.23 1529.94 Q1779.35 1529.94 1777.48 1530.35 Q1775.63 1530.77 1773.68 1531.65 L1773.68 1514.29 Z" fill="#000000" fill-rule="nonzero" fill-opacity="1" /><path clip-path="url(#clip950)" d="M2249.76 1544.91 L2257.4 1544.91 L2257.4 1518.55 L2249.09 1520.21 L2249.09 1515.95 L2257.35 1514.29 L2262.03 1514.29 L2262.03 1544.91 L2269.66 1544.91 L2269.66 1548.85 L2249.76 1548.85 L2249.76 1544.91 Z" fill="#000000" fill-rule="nonzero" fill-opacity="1" /><path clip-path="url(#clip950)" d="M2289.11 1517.37 Q2285.5 1517.37 2283.67 1520.93 Q2281.86 1524.47 2281.86 1531.6 Q2281.86 1538.71 2283.67 1542.27 Q2285.5 1545.82 2289.11 1545.82 Q2292.74 1545.82 2294.55 1542.27 Q2296.38 1538.71 2296.38 1531.6 Q2296.38 1524.47 2294.55 1520.93 Q2292.74 1517.37 2289.11 1517.37 M2289.11 1513.66 Q2294.92 1513.66 2297.97 1518.27 Q2301.05 1522.85 2301.05 1531.6 Q2301.05 1540.33 2297.97 1544.94 Q2294.92 1549.52 2289.11 1549.52 Q2283.3 1549.52 2280.22 1544.94 Q2277.16 1540.33 2277.16 1531.6 Q2277.16 1522.85 2280.22 1518.27 Q2283.3 1513.66 2289.11 1513.66 Z" fill="#000000" fill-rule="nonzero" fill-opacity="1" /><path clip-path="url(#clip950)" d="M2319.27 1517.37 Q2315.66 1517.37 2313.83 1520.93 Q2312.03 1524.47 2312.03 1531.6 Q2312.03 1538.71 2313.83 1542.27 Q2315.66 1545.82 2319.27 1545.82 Q2322.9 1545.82 2324.71 1542.27 Q2326.54 1538.71 2326.54 1531.6 Q2326.54 1524.47 2324.71 1520.93 Q2322.9 1517.37 2319.27 1517.37 M2319.27 1513.66 Q2325.08 1513.66 2328.14 1518.27 Q2331.22 1522.85 2331.22 1531.6 Q2331.22 1540.33 2328.14 1544.94 Q2325.08 1549.52 2319.27 1549.52 Q2313.46 1549.52 2310.38 1544.94 Q2307.33 1540.33 2307.33 1531.6 Q2307.33 1522.85 2310.38 1518.27 Q2313.46 1513.66 2319.27 1513.66 Z" fill="#000000" fill-rule="nonzero" fill-opacity="1" /><polyline clip-path="url(#clip950)" style="stroke:#000000; stroke-linecap:round; stroke-linejoin:round; stroke-width:4; stroke-opacity:1; fill:none" points="140.696,1486.45 140.696,47.2441 "/>
<polyline clip-path="url(#clip950)" style="stroke:#000000; stroke-linecap:round; stroke-linejoin:round; stroke-width:4; stroke-opacity:1; fill:none" points="140.696,1426.91 159.593,1426.91 "/>
<polyline clip-path="url(#clip950)" style="stroke:#000000; stroke-linecap:round; stroke-linejoin:round; stroke-width:4; stroke-opacity:1; fill:none" points="140.696,1125.28 159.593,1125.28 "/>
<polyline clip-path="url(#clip950)" style="stroke:#000000; stroke-linecap:round; stroke-linejoin:round; stroke-width:4; stroke-opacity:1; fill:none" points="140.696,823.658 159.593,823.658 "/>
<polyline clip-path="url(#clip950)" style="stroke:#000000; stroke-linecap:round; stroke-linejoin:round; stroke-width:4; stroke-opacity:1; fill:none" points="140.696,522.033 159.593,522.033 "/>
<polyline clip-path="url(#clip950)" style="stroke:#000000; stroke-linecap:round; stroke-linejoin:round; stroke-width:4; stroke-opacity:1; fill:none" points="140.696,220.408 159.593,220.408 "/>
<path clip-path="url(#clip950)" d="M92.7512 1412.71 Q89.1401 1412.71 87.3114 1416.27 Q85.5058 1419.81 85.5058 1426.94 Q85.5058 1434.05 87.3114 1437.61 Q89.1401 1441.16 92.7512 1441.16 Q96.3854 1441.16 98.1909 1437.61 Q100.02 1434.05 100.02 1426.94 Q100.02 1419.81 98.1909 1416.27 Q96.3854 1412.71 92.7512 1412.71 M92.7512 1409 Q98.5613 1409 101.617 1413.61 Q104.696 1418.19 104.696 1426.94 Q104.696 1435.67 101.617 1440.28 Q98.5613 1444.86 92.7512 1444.86 Q86.941 1444.86 83.8623 1440.28 Q80.8068 1435.67 80.8068 1426.94 Q80.8068 1418.19 83.8623 1413.61 Q86.941 1409 92.7512 1409 Z" fill="#000000" fill-rule="nonzero" fill-opacity="1" /><path clip-path="url(#clip950)" d="M83.7929 1108 L102.149 1108 L102.149 1111.94 L88.0753 1111.94 L88.0753 1120.41 Q89.0938 1120.06 90.1123 1119.9 Q91.1308 1119.72 92.1493 1119.72 Q97.9363 1119.72 101.316 1122.89 Q104.696 1126.06 104.696 1131.48 Q104.696 1137.05 101.223 1140.16 Q97.7511 1143.23 91.4317 1143.23 Q89.2558 1143.23 86.9873 1142.86 Q84.7419 1142.49 82.3346 1141.75 L82.3346 1137.05 Q84.4179 1138.19 86.6401 1138.74 Q88.8623 1139.3 91.3391 1139.3 Q95.3437 1139.3 97.6817 1137.19 Q100.02 1135.09 100.02 1131.48 Q100.02 1127.86 97.6817 1125.76 Q95.3437 1123.65 91.3391 1123.65 Q89.4641 1123.65 87.5892 1124.07 Q85.7373 1124.48 83.7929 1125.36 L83.7929 1108 Z" fill="#000000" fill-rule="nonzero" fill-opacity="1" /><path clip-path="url(#clip950)" d="M53.3995 837.003 L61.0384 837.003 L61.0384 810.637 L52.7282 812.304 L52.7282 808.045 L60.9921 806.378 L65.668 806.378 L65.668 837.003 L73.3068 837.003 L73.3068 840.938 L53.3995 840.938 L53.3995 837.003 Z" fill="#000000" fill-rule="nonzero" fill-opacity="1" /><path clip-path="url(#clip950)" d="M92.7512 809.457 Q89.1401 809.457 87.3114 813.022 Q85.5058 816.563 85.5058 823.693 Q85.5058 830.799 87.3114 834.364 Q89.1401 837.906 92.7512 837.906 Q96.3854 837.906 98.1909 834.364 Q100.02 830.799 100.02 823.693 Q100.02 816.563 98.1909 813.022 Q96.3854 809.457 92.7512 809.457 M92.7512 805.753 Q98.5613 805.753 101.617 810.36 Q104.696 814.943 104.696 823.693 Q104.696 832.42 101.617 837.026 Q98.5613 841.61 92.7512 841.61 Q86.941 841.61 83.8623 837.026 Q80.8068 832.42 80.8068 823.693 Q80.8068 814.943 83.8623 810.36 Q86.941 805.753 92.7512 805.753 Z" fill="#000000" fill-rule="nonzero" fill-opacity="1" /><path clip-path="url(#clip950)" d="M54.3949 535.378 L62.0337 535.378 L62.0337 509.012 L53.7236 510.679 L53.7236 506.42 L61.9874 504.753 L66.6633 504.753 L66.6633 535.378 L74.3022 535.378 L74.3022 539.313 L54.3949 539.313 L54.3949 535.378 Z" fill="#000000" fill-rule="nonzero" fill-opacity="1" /><path clip-path="url(#clip950)" d="M83.7929 504.753 L102.149 504.753 L102.149 508.688 L88.0753 508.688 L88.0753 517.16 Q89.0938 516.813 90.1123 516.651 Q91.1308 516.466 92.1493 516.466 Q97.9363 516.466 101.316 519.637 Q104.696 522.808 104.696 528.225 Q104.696 533.804 101.223 536.906 Q97.7511 539.984 91.4317 539.984 Q89.2558 539.984 86.9873 539.614 Q84.7419 539.244 82.3346 538.503 L82.3346 533.804 Q84.4179 534.938 86.6401 535.494 Q88.8623 536.049 91.3391 536.049 Q95.3437 536.049 97.6817 533.943 Q100.02 531.836 100.02 528.225 Q100.02 524.614 97.6817 522.508 Q95.3437 520.401 91.3391 520.401 Q89.4641 520.401 87.5892 520.818 Q85.7373 521.234 83.7929 522.114 L83.7929 504.753 Z" fill="#000000" fill-rule="nonzero" fill-opacity="1" /><path clip-path="url(#clip950)" d="M56.6171 233.753 L72.9365 233.753 L72.9365 237.688 L50.9921 237.688 L50.9921 233.753 Q53.6541 230.998 58.2375 226.368 Q62.8439 221.716 64.0245 220.373 Q66.2698 217.85 67.1494 216.114 Q68.0522 214.355 68.0522 212.665 Q68.0522 209.91 66.1078 208.174 Q64.1865 206.438 61.0847 206.438 Q58.8856 206.438 56.4319 207.202 Q54.0014 207.966 51.2236 209.517 L51.2236 204.794 Q54.0477 203.66 56.5014 203.082 Q58.955 202.503 60.9921 202.503 Q66.3624 202.503 69.5568 205.188 Q72.7513 207.873 72.7513 212.364 Q72.7513 214.493 71.9411 216.415 Q71.1541 218.313 69.0476 220.905 Q68.4689 221.577 65.367 224.794 Q62.2652 227.989 56.6171 233.753 Z" fill="#000000" fill-rule="nonzero" fill-opacity="1" /><path clip-path="url(#clip950)" d="M92.7512 206.206 Q89.1401 206.206 87.3114 209.771 Q85.5058 213.313 85.5058 220.443 Q85.5058 227.549 87.3114 231.114 Q89.1401 234.655 92.7512 234.655 Q96.3854 234.655 98.1909 231.114 Q100.02 227.549 100.02 220.443 Q100.02 213.313 98.1909 209.771 Q96.3854 206.206 92.7512 206.206 M92.7512 202.503 Q98.5613 202.503 101.617 207.109 Q104.696 211.693 104.696 220.443 Q104.696 229.169 101.617 233.776 Q98.5613 238.359 92.7512 238.359 Q86.941 238.359 83.8623 233.776 Q80.8068 229.169 80.8068 220.443 Q80.8068 211.693 83.8623 207.109 Q86.941 202.503 92.7512 202.503 Z" fill="#000000" fill-rule="nonzero" fill-opacity="1" /><polyline clip-path="url(#clip952)" style="stroke:#009af9; stroke-linecap:round; stroke-linejoin:round; stroke-width:4; stroke-opacity:1; fill:none" points="203.301,1405.62 213.735,1404.36 224.17,1409.01 234.604,1430.78 245.038,1404.52 255.472,1417.11 265.907,1389.95 276.341,1417.74 286.775,1388.29 297.209,1436.7 307.643,1396.58 318.078,1430.61 328.512,1368.84 338.946,1423.58 349.38,1352.15 359.815,1350.56 370.249,1410.96 380.683,1353.62 391.117,1373.71 401.552,1379.61 411.986,1387.45 422.42,1371.13 432.854,1306.72 443.289,1337.51 453.723,1383.57 464.157,1356.38 474.591,1375.57 485.026,1364.87 495.46,1365.44 505.894,1359.87 516.328,1306.2 526.763,1333.4 537.197,1379.46 547.631,1351.79 558.065,1332.21 568.5,1359.3 578.934,1323.59 589.368,1334.59 599.802,1265.48 610.237,1317.43 620.671,1363.94 631.105,1339.66 641.539,1340.2 651.974,1310.53 662.408,1313 672.842,1318.44 683.276,1327.93 693.711,1312.55 704.145,1318.41 714.579,1303.4 725.013,1301.54 735.448,1289.25 745.882,1264.65 756.316,1330.69 766.75,1299.87 777.185,1296.22 787.619,1309.38 798.053,1295.28 808.487,1269.48 818.922,1219.6 829.356,1239.54 839.79,1237.46 850.224,1174.45 860.659,1150.49 871.093,1186.02 881.527,1175.7 891.961,1130.84 902.396,1116.75 912.83,1055.46 923.264,1001.22 933.698,889.202 944.133,933.144 954.567,876 965.001,793.355 975.435,802.555 985.87,780.531 996.304,708.728 1006.74,685.473 1017.17,642.883 1027.61,617.724 1038.04,601.822 1048.48,623.826 1058.91,632.896 1069.34,649.944 1079.78,679.425 1090.21,668.682 1100.65,718.835 1111.08,807.431 1121.51,815.109 1131.95,868.932 1142.38,895.749 1152.82,956.664 1163.25,1111.23 1173.69,1044.85 1184.12,1026.01 1194.55,1084.85 1204.99,1106.92 1215.42,1130.68 1225.86,1151.12 1236.29,1120.4 1246.73,1160.65 1257.16,1130.19 1267.59,1120.59 1278.03,1107.28 1288.46,1175.95 1298.9,1164.82 1309.33,1163.25 1319.77,1153.59 1330.2,1152.44 1340.63,1138.18 1351.07,1142.94 1361.5,1153.91 1371.94,1123.26 1382.37,1134.18 1392.81,1104.13 1403.24,1143.94 1413.67,1139.99 1424.11,1170.7 1434.54,1091.63 1444.98,1175.71 1455.41,1180.57 1465.84,1109.52 1476.28,1146.63 1486.71,1102.13 1497.15,1092.77 1507.58,1126.05 1518.02,1129.02 1528.45,1180.62 1538.88,1134.02 1549.32,1073.91 1559.75,1140.25 1570.19,1098.43 1580.62,1113 1591.06,1115.75 1601.49,1126.33 1611.92,1090.02 1622.36,1123.99 1632.79,1095.84 1643.23,1116.33 1653.66,1095.04 1664.1,1090.79 1674.53,1135.55 1684.96,1097.27 1695.4,1083.76 1705.83,1088.5 1716.27,1120.82 1726.7,1059.44 1737.14,1020.39 1747.57,1030.08 1758,1094.21 1768.44,1061.06 1778.87,1034.56 1789.31,1044.64 1799.74,1088.76 1810.18,1106.47 1820.61,1054.38 1831.04,1042.51 1841.48,1049.08 1851.91,981.933 1862.35,1051.97 1872.78,1056.45 1883.21,1055.07 1893.65,1008.53 1904.08,1023.88 1914.52,1007.05 1924.95,1056.47 1935.39,1031.94 1945.82,1019.99 1956.25,1021.91 1966.69,1006.35 1977.12,1024.47 1987.56,1027.13 1997.99,1016.21 2008.43,996.98 2018.86,991.893 2029.29,1009.87 2039.73,995.077 2050.16,1026.03 2060.6,1016.18 2071.03,999.195 2081.47,1001.35 2091.9,999.229 2102.33,979.454 2112.77,959.2 2123.2,987.324 2133.64,985.067 2144.07,968.476 2154.51,987.231 2164.94,1002.15 2175.37,942.843 2185.81,992.059 2196.24,981.364 2206.68,939.15 2217.11,925.741 2227.54,928.547 2237.98,935.44 2248.41,964.23 2258.85,952.295 2269.28,940.724 2279.72,937.112 2290.15,932.38 "/>
<polyline clip-path="url(#clip952)" style="stroke:#e26f46; stroke-linecap:round; stroke-linejoin:round; stroke-width:4; stroke-opacity:1; fill:none" points="203.301,1437.39 213.735,1445.72 224.17,1415.36 234.604,1436.01 245.038,1440.38 255.472,1432.46 265.907,1443.66 276.341,1436.7 286.775,1431.86 297.209,1444.29 307.643,1424.73 318.078,1402.65 328.512,1426.88 338.946,1416.2 349.38,1412.39 359.815,1419.4 370.249,1417.79 380.683,1419.79 391.117,1427.09 401.552,1410.25 411.986,1395.79 422.42,1405.6 432.854,1409.87 443.289,1417.46 453.723,1424.16 464.157,1396.78 474.591,1402.33 485.026,1420.99 495.46,1367.07 505.894,1378.25 516.328,1401.27 526.763,1387.52 537.197,1416.04 547.631,1385.18 558.065,1388.36 568.5,1394.85 578.934,1395.56 589.368,1403.33 599.802,1396.87 610.237,1391.09 620.671,1422.82 631.105,1397.99 641.539,1403.95 651.974,1387.33 662.408,1383.77 672.842,1379.69 683.276,1384.43 693.711,1367.74 704.145,1360.04 714.579,1389.66 725.013,1366.76 735.448,1385.02 745.882,1365.22 756.316,1368.94 766.75,1384.6 777.185,1362.4 787.619,1317.78 798.053,1375.67 808.487,1366.67 818.922,1386.42 829.356,1408.38 839.79,1379.07 850.224,1390.07 860.659,1376.15 871.093,1364.13 881.527,1397.89 891.961,1357.93 902.396,1328.57 912.83,1371.36 923.264,1357.55 933.698,1369.92 944.133,1379.18 954.567,1346.63 965.001,1356.77 975.435,1353.68 985.87,1331.27 996.304,1311.25 1006.74,1331.74 1017.17,1320.28 1027.61,1329.81 1038.04,1290.12 1048.48,1299.46 1058.91,1314 1069.34,1280.51 1079.78,1271.89 1090.21,1288.45 1100.65,1256.63 1111.08,1230.07 1121.51,1194.64 1131.95,1216.86 1142.38,1168.38 1152.82,1177.25 1163.25,1112.92 1173.69,1085.8 1184.12,1040.54 1194.55,1033.26 1204.99,987.038 1215.42,968.641 1225.86,898.357 1236.29,859.478 1246.73,798.726 1257.16,785.069 1267.59,727.79 1278.03,667.172 1288.46,622.284 1298.9,594.554 1309.33,526.367 1319.77,466.096 1330.2,437.099 1340.63,414.984 1351.07,336.957 1361.5,279.948 1371.94,297.441 1382.37,233.857 1392.81,207.837 1403.24,157.851 1413.67,170.957 1424.11,151.502 1434.54,110.197 1444.98,114.109 1455.41,105.868 1465.84,87.9763 1476.28,126.183 1486.71,161.738 1497.15,173.085 1507.58,163.245 1518.02,182.417 1528.45,200.375 1538.88,257.574 1549.32,285.232 1559.75,338.19 1570.19,369.965 1580.62,434.202 1591.06,464.938 1601.49,532.544 1611.92,547.099 1622.36,632.805 1632.79,669.567 1643.23,685.151 1653.66,733.162 1664.1,778.307 1674.53,815.582 1684.96,879.112 1695.4,925.435 1705.83,940.818 1716.27,952.938 1726.7,1020.7 1737.14,1034.51 1747.57,1075.54 1758,1073.26 1768.44,1113.56 1778.87,1143.73 1789.31,1138.14 1799.74,1160.57 1810.18,1181.22 1820.61,1247.5 1831.04,1226.6 1841.48,1224.99 1851.91,1198.62 1862.35,1239.95 1872.78,1245.72 1883.21,1245.98 1893.65,1273.26 1904.08,1264.77 1914.52,1265.29 1924.95,1254.12 1935.39,1275.23 1945.82,1255.81 1956.25,1242.44 1966.69,1270.34 1977.12,1256.28 1987.56,1222.28 1997.99,1282.7 2008.43,1261.56 2018.86,1289.1 2029.29,1268.6 2039.73,1254.25 2050.16,1228.16 2060.6,1259.52 2071.03,1258.44 2081.47,1223.46 2091.9,1260.92 2102.33,1275.05 2112.77,1256.29 2123.2,1248.07 2133.64,1288.04 2144.07,1256.01 2154.51,1224.46 2164.94,1274.5 2175.37,1273.19 2185.81,1235.98 2196.24,1275.61 2206.68,1250.12 2217.11,1240.47 2227.54,1226.95 2237.98,1256.83 2248.41,1260.57 2258.85,1247.02 2269.28,1229.97 2279.72,1266.92 2290.15,1247.91 "/>
<path clip-path="url(#clip950)" d="M2005.38 250.738 L2279.02 250.738 L2279.02 95.2176 L2005.38 95.2176  Z" fill="#ffffff" fill-rule="evenodd" fill-opacity="1"/>
<polyline clip-path="url(#clip950)" style="stroke:#000000; stroke-linecap:round; stroke-linejoin:round; stroke-width:4; stroke-opacity:1; fill:none" points="2005.38,250.738 2279.02,250.738 2279.02,95.2176 2005.38,95.2176 2005.38,250.738 "/>
<polyline clip-path="url(#clip950)" style="stroke:#009af9; stroke-linecap:round; stroke-linejoin:round; stroke-width:4; stroke-opacity:1; fill:none" points="2029.96,147.058 2177.43,147.058 "/>
<path clip-path="url(#clip950)" d="M2215.85 166.745 Q2214.05 171.375 2212.34 172.787 Q2210.62 174.199 2207.75 174.199 L2204.35 174.199 L2204.35 170.634 L2206.85 170.634 Q2208.61 170.634 2209.58 169.8 Q2210.55 168.967 2211.73 165.865 L2212.5 163.921 L2202.01 138.412 L2206.53 138.412 L2214.63 158.689 L2222.73 138.412 L2227.24 138.412 L2215.85 166.745 Z" fill="#000000" fill-rule="nonzero" fill-opacity="1" /><path clip-path="url(#clip950)" d="M2234.53 160.402 L2242.17 160.402 L2242.17 134.037 L2233.86 135.703 L2233.86 131.444 L2242.13 129.778 L2246.8 129.778 L2246.8 160.402 L2254.44 160.402 L2254.44 164.338 L2234.53 164.338 L2234.53 160.402 Z" fill="#000000" fill-rule="nonzero" fill-opacity="1" /><polyline clip-path="url(#clip950)" style="stroke:#e26f46; stroke-linecap:round; stroke-linejoin:round; stroke-width:4; stroke-opacity:1; fill:none" points="2029.96,198.898 2177.43,198.898 "/>
<path clip-path="url(#clip950)" d="M2215.85 218.585 Q2214.05 223.215 2212.34 224.627 Q2210.62 226.039 2207.75 226.039 L2204.35 226.039 L2204.35 222.474 L2206.85 222.474 Q2208.61 222.474 2209.58 221.64 Q2210.55 220.807 2211.73 217.705 L2212.5 215.761 L2202.01 190.252 L2206.53 190.252 L2214.63 210.529 L2222.73 190.252 L2227.24 190.252 L2215.85 218.585 Z" fill="#000000" fill-rule="nonzero" fill-opacity="1" /><path clip-path="url(#clip950)" d="M2237.75 212.242 L2254.07 212.242 L2254.07 216.178 L2232.13 216.178 L2232.13 212.242 Q2234.79 209.488 2239.37 204.858 Q2243.98 200.205 2245.16 198.863 Q2247.41 196.34 2248.28 194.604 Q2249.19 192.844 2249.19 191.155 Q2249.19 188.4 2247.24 186.664 Q2245.32 184.928 2242.22 184.928 Q2240.02 184.928 2237.57 185.692 Q2235.14 186.455 2232.36 188.006 L2232.36 183.284 Q2235.18 182.15 2237.64 181.571 Q2240.09 180.993 2242.13 180.993 Q2247.5 180.993 2250.69 183.678 Q2253.89 186.363 2253.89 190.854 Q2253.89 192.983 2253.08 194.905 Q2252.29 196.803 2250.18 199.395 Q2249.6 200.067 2246.5 203.284 Q2243.4 206.479 2237.75 212.242 Z" fill="#000000" fill-rule="nonzero" fill-opacity="1" /></svg>
