<?xml version="1.0" encoding="utf-8"?>
<svg xmlns="http://www.w3.org/2000/svg" xmlns:xlink="http://www.w3.org/1999/xlink" width="600" height="400" viewBox="0 0 2400 1600">
<defs>
  <clipPath id="clip980">
    <rect x="0" y="0" width="2400" height="1600"/>
  </clipPath>
</defs>
<path clip-path="url(#clip980)" d="M0 1600 L2400 1600 L2400 0 L0 0  Z" fill="#ffffff" fill-rule="evenodd" fill-opacity="1"/>
<defs>
  <clipPath id="clip981">
    <rect x="480" y="0" width="1681" height="1600"/>
  </clipPath>
</defs>
<path clip-path="url(#clip980)" d="M140.696 1486.45 L2352.76 1486.45 L2352.76 47.2441 L140.696 47.2441  Z" fill="#ffffff" fill-rule="evenodd" fill-opacity="1"/>
<defs>
  <clipPath id="clip982">
    <rect x="140" y="47" width="2213" height="1440"/>
  </clipPath>
</defs>
<polyline clip-path="url(#clip982)" style="stroke:#000000; stroke-linecap:round; stroke-linejoin:round; stroke-width:2; stroke-opacity:0.1; fill:none" points="203.301,1486.45 203.301,47.2441 "/>
<polyline clip-path="url(#clip982)" style="stroke:#000000; stroke-linecap:round; stroke-linejoin:round; stroke-width:2; stroke-opacity:0.1; fill:none" points="725.013,1486.45 725.013,47.2441 "/>
<polyline clip-path="url(#clip982)" style="stroke:#000000; stroke-linecap:round; stroke-linejoin:round; stroke-width:2; stroke-opacity:0.1; fill:none" points="1246.73,1486.45 1246.73,47.2441 "/>
<polyline clip-path="url(#clip982)" style="stroke:#000000; stroke-linecap:round; stroke-linejoin:round; stroke-width:2; stroke-opacity:0.1; fill:none" points="1768.44,1486.45 1768.44,47.2441 "/>
<polyline clip-path="url(#clip982)" style="stroke:#000000; stroke-linecap:round; stroke-linejoin:round; stroke-width:2; stroke-opacity:0.1; fill:none" points="2290.15,1486.45 2290.15,47.2441 "/>
<polyline clip-path="url(#clip982)" style="stroke:#000000; stroke-linecap:round; stroke-linejoin:round; stroke-width:2; stroke-opacity:0.1; fill:none" points="140.696,1426.91 2352.76,1426.91 "/>
<polyline clip-path="url(#clip982)" style="stroke:#000000; stroke-linecap:round; stroke-linejoin:round; stroke-width:2; stroke-opacity:0.1; fill:none" points="140.696,1125.28 2352.76,1125.28 "/>
<polyline clip-path="url(#clip982)" style="stroke:#000000; stroke-linecap:round; stroke-linejoin:round; stroke-width:2; stroke-opacity:0.1; fill:none" points="140.696,823.658 2352.76,823.658 "/>
<polyline clip-path="url(#clip982)" style="stroke:#000000; stroke-linecap:round; stroke-linejoin:round; stroke-width:2; stroke-opacity:0.1; fill:none" points="140.696,522.033 2352.76,522.033 "/>
<polyline clip-path="url(#clip982)" style="stroke:#000000; stroke-linecap:round; stroke-linejoin:round; stroke-width:2; stroke-opacity:0.1; fill:none" points="140.696,220.408 2352.76,220.408 "/>
<polyline clip-path="url(#clip980)" style="stroke:#000000; stroke-linecap:round; stroke-linejoin:round; stroke-width:4; stroke-opacity:1; fill:none" points="140.696,1486.45 2352.76,1486.45 "/>
<polyline clip-path="url(#clip980)" style="stroke:#000000; stroke-linecap:round; stroke-linejoin:round; stroke-width:4; stroke-opacity:1; fill:none" points="203.301,1486.45 203.301,1467.55 "/>
<polyline clip-path="url(#clip980)" style="stroke:#000000; stroke-linecap:round; stroke-linejoin:round; stroke-width:4; stroke-opacity:1; fill:none" points="725.013,1486.45 725.013,1467.55 "/>
<polyline clip-path="url(#clip980)" style="stroke:#000000; stroke-linecap:round; stroke-linejoin:round; stroke-width:4; stroke-opacity:1; fill:none" points="1246.73,1486.45 1246.73,1467.55 "/>
<polyline clip-path="url(#clip980)" style="stroke:#000000; stroke-linecap:round; stroke-linejoin:round; stroke-width:4; stroke-opacity:1; fill:none" points="1768.44,1486.45 1768.44,1467.55 "/>
<polyline clip-path="url(#clip980)" style="stroke:#000000; stroke-linecap:round; stroke-linejoin:round; stroke-width:4; stroke-opacity:1; fill:none" points="2290.15,1486.45 2290.15,1467.55 "/>
<path clip-path="url(#clip980)" d="M203.301 1517.37 Q199.69 1517.37 197.861 1520.93 Q196.056 1524.47 196.056 1531.6 Q196.056 1538.71 197.861 1542.27 Q199.69 1545.82 203.301 1545.82 Q206.935 1545.82 208.741 1542.27 Q210.57 1538.71 210.57 1531.6 Q210.57 1524.47 208.741 1520.93 Q206.935 1517.37 203.301 1517.37 M203.301 1513.66 Q209.111 1513.66 212.167 1518.27 Q215.245 1522.85 215.245 1531.6 Q215.245 1540.33 212.167 1544.94 Q209.111 1549.52 203.301 1549.52 Q197.491 1549.52 194.412 1544.94 Q191.357 1540.33 191.357 1531.6 Q191.357 1522.85 194.412 1518.27 Q197.491 1513.66 203.301 1513.66 Z" fill="#000000" fill-rule="nonzero" fill-opacity="1" /><path clip-path="url(#clip980)" d="M704.284 1544.91 L720.604 1544.91 L720.604 1548.85 L698.659 1548.85 L698.659 1544.91 Q701.321 1542.16 705.905 1537.53 Q710.511 1532.88 711.692 1531.53 Q713.937 1529.01 714.817 1527.27 Q715.719 1525.51 715.719 1523.82 Q715.719 1521.07 713.775 1519.33 Q711.854 1517.6 708.752 1517.6 Q706.553 1517.6 704.099 1518.36 Q701.669 1519.13 698.891 1520.68 L698.891 1515.95 Q701.715 1514.82 704.169 1514.24 Q706.622 1513.66 708.659 1513.66 Q714.03 1513.66 717.224 1516.35 Q720.418 1519.03 720.418 1523.52 Q720.418 1525.65 719.608 1527.57 Q718.821 1529.47 716.715 1532.07 Q716.136 1532.74 713.034 1535.95 Q709.932 1539.15 704.284 1544.91 Z" fill="#000000" fill-rule="nonzero" fill-opacity="1" /><path clip-path="url(#clip980)" d="M730.465 1514.29 L748.821 1514.29 L748.821 1518.22 L734.747 1518.22 L734.747 1526.7 Q735.766 1526.35 736.784 1526.19 Q737.803 1526 738.821 1526 Q744.608 1526 747.988 1529.17 Q751.367 1532.34 751.367 1537.76 Q751.367 1543.34 747.895 1546.44 Q744.423 1549.52 738.104 1549.52 Q735.928 1549.52 733.659 1549.15 Q731.414 1548.78 729.006 1548.04 L729.006 1543.34 Q731.09 1544.47 733.312 1545.03 Q735.534 1545.58 738.011 1545.58 Q742.016 1545.58 744.354 1543.48 Q746.691 1541.37 746.691 1537.76 Q746.691 1534.15 744.354 1532.04 Q742.016 1529.94 738.011 1529.94 Q736.136 1529.94 734.261 1530.35 Q732.409 1530.77 730.465 1531.65 L730.465 1514.29 Z" fill="#000000" fill-rule="nonzero" fill-opacity="1" /><path clip-path="url(#clip980)" d="M1221.42 1514.29 L1239.78 1514.29 L1239.78 1518.22 L1225.71 1518.22 L1225.71 1526.7 Q1226.73 1526.35 1227.74 1526.19 Q1228.76 1526 1229.78 1526 Q1235.57 1526 1238.95 1529.17 Q1242.33 1532.34 1242.33 1537.76 Q1242.33 1543.34 1238.86 1546.44 Q1235.38 1549.52 1229.06 1549.52 Q1226.89 1549.52 1224.62 1549.15 Q1222.37 1548.78 1219.97 1548.04 L1219.97 1543.34 Q1222.05 1544.47 1224.27 1545.03 Q1226.49 1545.58 1228.97 1545.58 Q1232.98 1545.58 1235.31 1543.48 Q1237.65 1541.37 1237.65 1537.76 Q1237.65 1534.15 1235.31 1532.04 Q1232.98 1529.94 1228.97 1529.94 Q1227.1 1529.94 1225.22 1530.35 Q1223.37 1530.77 1221.42 1531.65 L1221.42 1514.29 Z" fill="#000000" fill-rule="nonzero" fill-opacity="1" /><path clip-path="url(#clip980)" d="M1261.54 1517.37 Q1257.93 1517.37 1256.1 1520.93 Q1254.3 1524.47 1254.3 1531.6 Q1254.3 1538.71 1256.1 1542.27 Q1257.93 1545.82 1261.54 1545.82 Q1265.17 1545.82 1266.98 1542.27 Q1268.81 1538.71 1268.81 1531.6 Q1268.81 1524.47 1266.98 1520.93 Q1265.17 1517.37 1261.54 1517.37 M1261.54 1513.66 Q1267.35 1513.66 1270.41 1518.27 Q1273.48 1522.85 1273.48 1531.6 Q1273.48 1540.33 1270.41 1544.94 Q1267.35 1549.52 1261.54 1549.52 Q1255.73 1549.52 1252.65 1544.94 Q1249.6 1540.33 1249.6 1531.6 Q1249.6 1522.85 1252.65 1518.27 Q1255.73 1513.66 1261.54 1513.66 Z" fill="#000000" fill-rule="nonzero" fill-opacity="1" /><path clip-path="url(#clip980)" d="M1742.29 1514.29 L1764.51 1514.29 L1764.51 1516.28 L1751.97 1548.85 L1747.08 1548.85 L1758.89 1518.22 L1742.29 1518.22 L1742.29 1514.29 Z" fill="#000000" fill-rule="nonzero" fill-opacity="1" /><path clip-path="url(#clip980)" d="M1773.68 1514.29 L1792.04 1514.29 L1792.04 1518.22 L1777.96 1518.22 L1777.96 1526.7 Q1778.98 1526.35 1780 1526.19 Q1781.02 1526 1782.04 1526 Q1787.82 1526 1791.2 1529.17 Q1794.58 1532.34 1794.58 1537.76 Q1794.58 1543.34 1791.11 1546.44 Q1787.64 1549.52 1781.32 1549.52 Q1779.14 1549.52 1776.88 1549.15 Q1774.63 1548.78 1772.22 1548.04 L1772.22 1543.34 Q1774.31 1544.47 1776.53 1545.03 Q1778.75 1545.58 1781.23 1545.58 Q1785.23 1545.58 1787.57 1543.48 Q1789.91 1541.37 1789.91 1537.76 Q1789.91 1534.15 1787.57 1532.04 Q1785.23 1529.94 1781.23 1529.94 Q1779.35 1529.94 1777.48 1530.35 Q1775.63 1530.77 1773.68 1531.65 L1773.68 1514.29 Z" fill="#000000" fill-rule="nonzero" fill-opacity="1" /><path clip-path="url(#clip980)" d="M2249.76 1544.91 L2257.4 1544.91 L2257.4 1518.55 L2249.09 1520.21 L2249.09 1515.95 L2257.35 1514.29 L2262.03 1514.29 L2262.03 1544.91 L2269.66 1544.91 L2269.66 1548.85 L2249.76 1548.85 L2249.76 1544.91 Z" fill="#000000" fill-rule="nonzero" fill-opacity="1" /><path clip-path="url(#clip980)" d="M2289.11 1517.37 Q2285.5 1517.37 2283.67 1520.93 Q2281.86 1524.47 2281.86 1531.6 Q2281.86 1538.71 2283.67 1542.27 Q2285.5 1545.82 2289.11 1545.82 Q2292.74 1545.82 2294.55 1542.27 Q2296.38 1538.71 2296.38 1531.6 Q2296.38 1524.47 2294.55 1520.93 Q2292.74 1517.37 2289.11 1517.37 M2289.11 1513.66 Q2294.92 1513.66 2297.97 1518.27 Q2301.05 1522.85 2301.05 1531.6 Q2301.05 1540.33 2297.97 1544.94 Q2294.92 1549.52 2289.11 1549.52 Q2283.3 1549.52 2280.22 1544.94 Q2277.16 1540.33 2277.16 1531.6 Q2277.16 1522.85 2280.22 1518.27 Q2283.3 1513.66 2289.11 1513.66 Z" fill="#000000" fill-rule="nonzero" fill-opacity="1" /><path clip-path="url(#clip980)" d="M2319.27 1517.37 Q2315.66 1517.37 2313.83 1520.93 Q2312.03 1524.47 2312.03 1531.6 Q2312.03 1538.71 2313.83 1542.27 Q2315.66 1545.82 2319.27 1545.82 Q2322.9 1545.82 2324.71 1542.27 Q2326.54 1538.71 2326.54 1531.6 Q2326.54 1524.47 2324.71 1520.93 Q2322.9 1517.37 2319.27 1517.37 M2319.27 1513.66 Q2325.08 1513.66 2328.14 1518.27 Q2331.22 1522.85 2331.22 1531.6 Q2331.22 1540.33 2328.14 1544.94 Q2325.08 1549.52 2319.27 1549.52 Q2313.46 1549.52 2310.38 1544.94 Q2307.33 1540.33 2307.33 1531.6 Q2307.33 1522.85 2310.38 1518.27 Q2313.46 1513.66 2319.27 1513.66 Z" fill="#000000" fill-rule="nonzero" fill-opacity="1" /><polyline clip-path="url(#clip980)" style="stroke:#000000; stroke-linecap:round; stroke-linejoin:round; stroke-width:4; stroke-opacity:1; fill:none" points="140.696,1486.45 140.696,47.2441 "/>
<polyline clip-path="url(#clip980)" style="stroke:#000000; stroke-linecap:round; stroke-linejoin:round; stroke-width:4; stroke-opacity:1; fill:none" points="140.696,1426.91 159.593,1426.91 "/>
<polyline clip-path="url(#clip980)" style="stroke:#000000; stroke-linecap:round; stroke-linejoin:round; stroke-width:4; stroke-opacity:1; fill:none" points="140.696,1125.28 159.593,1125.28 "/>
<polyline clip-path="url(#clip980)" style="stroke:#000000; stroke-linecap:round; stroke-linejoin:round; stroke-width:4; stroke-opacity:1; fill:none" points="140.696,823.658 159.593,823.658 "/>
<polyline clip-path="url(#clip980)" style="stroke:#000000; stroke-linecap:round; stroke-linejoin:round; stroke-width:4; stroke-opacity:1; fill:none" points="140.696,522.033 159.593,522.033 "/>
<polyline clip-path="url(#clip980)" style="stroke:#000000; stroke-linecap:round; stroke-linejoin:round; stroke-width:4; stroke-opacity:1; fill:none" points="140.696,220.408 159.593,220.408 "/>
<path clip-path="url(#clip980)" d="M92.7512 1412.71 Q89.1401 1412.71 87.3114 1416.27 Q85.5058 1419.81 85.5058 1426.94 Q85.5058 1434.05 87.3114 1437.61 Q89.1401 1441.16 92.7512 1441.16 Q96.3854 1441.16 98.1909 1437.61 Q100.02 1434.05 100.02 1426.94 Q100.02 1419.81 98.1909 1416.27 Q96.3854 1412.71 92.7512 1412.71 M92.7512 1409 Q98.5613 1409 101.617 1413.61 Q104.696 1418.19 104.696 1426.94 Q104.696 1435.67 101.617 1440.28 Q98.5613 1444.86 92.7512 1444.86 Q86.941 1444.86 83.8623 1440.28 Q80.8068 1435.67 80.8068 1426.94 Q80.8068 1418.19 83.8623 1413.61 Q86.941 1409 92.7512 1409 Z" fill="#000000" fill-rule="nonzero" fill-opacity="1" /><path clip-path="url(#clip980)" d="M83.7929 1108 L102.149 1108 L102.149 1111.94 L88.0753 1111.94 L88.0753 1120.41 Q89.0938 1120.06 90.1123 1119.9 Q91.1308 1119.72 92.1493 1119.72 Q97.9363 1119.72 101.316 1122.89 Q104.696 1126.06 104.696 1131.48 Q104.696 1137.05 101.223 1140.16 Q97.7511 1143.23 91.4317 1143.23 Q89.2558 1143.23 86.9873 1142.86 Q84.7419 1142.49 82.3346 1141.75 L82.3346 1137.05 Q84.4179 1138.19 86.6401 1138.74 Q88.8623 1139.3 91.3391 1139.3 Q95.3437 1139.3 97.6817 1137.19 Q100.02 1135.09 100.02 1131.48 Q100.02 1127.86 97.6817 1125.76 Q95.3437 1123.65 91.3391 1123.65 Q89.4641 1123.65 87.5892 1124.07 Q85.7373 1124.48 83.7929 1125.36 L83.7929 1108 Z" fill="#000000" fill-rule="nonzero" fill-opacity="1" /><path clip-path="url(#clip980)" d="M53.3995 837.003 L61.0384 837.003 L61.0384 810.637 L52.7282 812.304 L52.7282 808.045 L60.9921 806.378 L65.668 806.378 L65.668 837.003 L73.3068 837.003 L73.3068 840.938 L53.3995 840.938 L53.3995 837.003 Z" fill="#000000" fill-rule="nonzero" fill-opacity="1" /><path clip-path="url(#clip980)" d="M92.7512 809.457 Q89.1401 809.457 87.3114 813.022 Q85.5058 816.563 85.5058 823.693 Q85.5058 830.799 87.3114 834.364 Q89.1401 837.906 92.7512 837.906 Q96.3854 837.906 98.1909 834.364 Q100.02 830.799 100.02 823.693 Q100.02 816.563 98.1909 813.022 Q96.3854 809.457 92.7512 809.457 M92.7512 805.753 Q98.5613 805.753 101.617 810.36 Q104.696 814.943 104.696 823.693 Q104.696 832.42 101.617 837.026 Q98.5613 841.61 92.7512 841.61 Q86.941 841.61 83.8623 837.026 Q80.8068 832.42 80.8068 823.693 Q80.8068 814.943 83.8623 810.36 Q86.941 805.753 92.7512 805.753 Z" fill="#000000" fill-rule="nonzero" fill-opacity="1" /><path clip-path="url(#clip980)" d="M54.3949 535.378 L62.0337 535.378 L62.0337 509.012 L53.7236 510.679 L53.7236 506.42 L61.9874 504.753 L66.6633 504.753 L66.6633 535.378 L74.3022 535.378 L74.3022 539.313 L54.3949 539.313 L54.3949 535.378 Z" fill="#000000" fill-rule="nonzero" fill-opacity="1" /><path clip-path="url(#clip980)" d="M83.7929 504.753 L102.149 504.753 L102.149 508.688 L88.0753 508.688 L88.0753 517.16 Q89.0938 516.813 90.1123 516.651 Q91.1308 516.466 92.1493 516.466 Q97.9363 516.466 101.316 519.637 Q104.696 522.808 104.696 528.225 Q104.696 533.804 101.223 536.906 Q97.7511 539.984 91.4317 539.984 Q89.2558 539.984 86.9873 539.614 Q84.7419 539.244 82.3346 538.503 L82.3346 533.804 Q84.4179 534.938 86.6401 535.494 Q88.8623 536.049 91.3391 536.049 Q95.3437 536.049 97.6817 533.943 Q100.02 531.836 100.02 528.225 Q100.02 524.614 97.6817 522.508 Q95.3437 520.401 91.3391 520.401 Q89.4641 520.401 87.5892 520.818 Q85.7373 521.234 83.7929 522.114 L83.7929 504.753 Z" fill="#000000" fill-rule="nonzero" fill-opacity="1" /><path clip-path="url(#clip980)" d="M56.6171 233.753 L72.9365 233.753 L72.9365 237.688 L50.9921 237.688 L50.9921 233.753 Q53.6541 230.998 58.2375 226.368 Q62.8439 221.716 64.0245 220.373 Q66.2698 217.85 67.1494 216.114 Q68.0522 214.355 68.0522 212.665 Q68.0522 209.91 66.1078 208.174 Q64.1865 206.438 61.0847 206.438 Q58.8856 206.438 56.4319 207.202 Q54.0014 207.966 51.2236 209.517 L51.2236 204.794 Q54.0477 203.66 56.5014 203.082 Q58.955 202.503 60.9921 202.503 Q66.3624 202.503 69.5568 205.188 Q72.7513 207.873 72.7513 212.364 Q72.7513 214.493 71.9411 216.415 Q71.1541 218.313 69.0476 220.905 Q68.4689 221.577 65.367 224.794 Q62.2652 227.989 56.6171 233.753 Z" fill="#000000" fill-rule="nonzero" fill-opacity="1" /><path clip-path="url(#clip980)" d="M92.7512 206.206 Q89.1401 206.206 87.3114 209.771 Q85.5058 213.313 85.5058 220.443 Q85.5058 227.549 87.3114 231.114 Q89.1401 234.655 92.7512 234.655 Q96.3854 234.655 98.1909 231.114 Q100.02 227.549 100.02 220.443 Q100.02 213.313 98.1909 209.771 Q96.3854 206.206 92.7512 206.206 M92.7512 202.503 Q98.5613 202.503 101.617 207.109 Q104.696 211.693 104.696 220.443 Q104.696 229.169 101.617 233.776 Q98.5613 238.359 92.7512 238.359 Q86.941 238.359 83.8623 233.776 Q80.8068 229.169 80.8068 220.443 Q80.8068 211.693 83.8623 207.109 Q86.941 202.503 92.7512 202.503 Z" fill="#000000" fill-rule="nonzero" fill-opacity="1" /><polyline clip-path="url(#clip982)" style="stroke:#009af9; stroke-linecap:round; stroke-linejoin:round; stroke-width:4; stroke-opacity:1; fill:none" points="203.301,1405.62 213.735,1404.36 224.17,1409.01 234.604,1430.78 245.038,1404.52 255.472,1417.11 265.907,1389.95 276.341,1417.74 286.775,1388.29 297.209,1436.7 307.643,1396.58 318.078,1430.61 328.512,1368.84 338.946,1423.58 349.38,1352.15 359.815,1350.56 370.249,1410.96 380.683,1353.62 391.117,1373.71 401.552,1379.61 411.986,1387.45 422.42,1371.13 432.854,1306.72 443.289,1337.51 453.723,1383.57 464.157,1356.38 474.591,1375.57 485.026,1364.87 495.46,1365.44 505.894,1359.87 516.328,1306.2 526.763,1333.4 537.197,1379.46 547.631,1351.79 558.065,1332.21 568.5,1359.3 578.934,1323.59 589.368,1334.59 599.802,1265.48 610.237,1317.43 620.671,1363.94 631.105,1339.66 641.539,1340.2 651.974,1310.53 662.408,1313 672.842,1318.44 683.276,1327.93 693.711,1312.55 704.145,1318.41 714.579,1303.4 725.013,1301.54 735.448,1289.25 745.882,1264.65 756.316,1330.69 766.75,1299.87 777.185,1296.22 787.619,1309.38 798.053,1295.28 808.487,1269.48 818.922,1219.6 829.356,1239.54 839.79,1237.46 850.224,1174.45 860.659,1150.49 871.093,1186.02 881.527,1175.7 891.961,1130.84 902.396,1116.75 912.83,1055.46 923.264,1001.22 933.698,889.202 944.133,933.144 954.567,876 965.001,793.355 975.435,802.555 985.87,780.531 996.304,708.728 1006.74,685.473 1017.17,642.883 1027.61,617.724 1038.04,601.822 1048.48,623.826 1058.91,632.896 1069.34,649.944 1079.78,679.425 1090.21,668.682 1100.65,718.835 1111.08,807.431 1121.51,815.109 1131.95,868.932 1142.38,895.749 1152.82,956.664 1163.25,1111.23 1173.69,1044.85 1184.12,1026.01 1194.55,1084.85 1204.99,1106.92 1215.42,1130.68 1225.86,1151.12 1236.29,1120.4 1246.73,1160.65 1257.16,1130.19 1267.59,1120.59 1278.03,1107.28 1288.46,1175.95 1298.9,1164.82 1309.33,1163.25 1319.77,1153.59 1330.2,1152.44 1340.63,1138.18 1351.07,1142.94 1361.5,1153.91 1371.94,1123.26 1382.37,1134.18 1392.81,1104.13 1403.24,1143.94 1413.67,1139.99 1424.11,1170.7 1434.54,1091.63 1444.98,1175.71 1455.41,1180.57 1465.84,1109.52 1476.28,1146.63 1486.71,1102.13 1497.15,1092.77 1507.58,1126.05 1518.02,1129.02 1528.45,1180.62 1538.88,1134.02 1549.32,1073.91 1559.75,1140.25 1570.19,1098.43 1580.62,1113 1591.06,1115.75 1601.49,1126.33 1611.92,1090.02 1622.36,1123.99 1632.79,1095.84 1643.23,1116.33 1653.66,1095.04 1664.1,1090.79 1674.53,1135.55 1684.96,1097.27 1695.4,1083.76 1705.83,1088.5 1716.27,1120.82 1726.7,1059.44 1737.14,1020.39 1747.57,1030.08 1758,1094.21 1768.44,1061.06 1778.87,1034.56 1789.31,1044.64 1799.74,1088.76 1810.18,1106.47 1820.61,1054.38 1831.04,1042.51 1841.48,1049.08 1851.91,981.933 1862.35,1051.97 1872.78,1056.45 1883.21,1055.07 1893.65,1008.53 1904.08,1023.88 1914.52,1007.05 1924.95,1056.47 1935.39,1031.94 1945.82,1019.99 1956.25,1021.91 1966.69,1006.35 1977.12,1024.47 1987.56,1027.13 1997.99,1016.21 2008.43,996.98 2018.86,991.893 2029.29,1009.87 2039.73,995.077 2050.16,1026.03 2060.6,1016.18 2071.03,999.195 2081.47,1001.35 2091.9,999.229 2102.33,979.454 2112.77,959.2 2123.2,987.324 2133.64,985.067 2144.07,968.476 2154.51,987.231 2164.94,1002.15 2175.37,942.843 2185.81,992.059 2196.24,981.364 2206.68,939.15 2217.11,925.741 2227.54,928.547 2237.98,935.44 2248.41,964.23 2258.85,952.295 2269.28,940.724 2279.72,937.112 2290.15,932.38 "/>
<polyline clip-path="url(#clip982)" style="stroke:#e26f46; stroke-linecap:round; stroke-linejoin:round; stroke-width:4; stroke-opacity:1; fill:none" points="203.301,1437.39 213.735,1445.72 224.17,1415.36 234.604,1436.01 245.038,1440.38 255.472,1432.46 265.907,1443.66 276.341,1436.7 286.775,1431.86 297.209,1444.29 307.643,1424.73 318.078,1402.65 328.512,1426.88 338.946,1416.2 349.38,1412.39 359.815,1419.4 370.249,1417.79 380.683,1419.79 391.117,1427.09 401.552,1410.25 411.986,1395.79 422.42,1405.6 432.854,1409.87 443.289,1417.46 453.723,1424.16 464.157,1396.78 474.591,1402.33 485.026,1420.99 495.46,1367.07 505.894,1378.25 516.328,1401.27 526.763,1387.52 537.197,1416.04 547.631,1385.18 558.065,1388.36 568.5,1394.85 578.934,1395.56 589.368,1403.33 599.802,1396.87 610.237,1391.09 620.671,1422.82 631.105,1397.99 641.539,1403.95 651.974,1387.33 662.408,1383.77 672.842,1379.69 683.276,1384.43 693.711,1367.74 704.145,1360.04 714.579,1389.66 725.013,1366.76 735.448,1385.02 745.882,1365.22 756.316,1368.94 766.75,1384.6 777.185,1362.4 787.619,1317.78 798.053,1375.67 808.487,1366.67 818.922,1386.42 829.356,1408.38 839.79,1379.07 850.224,1390.07 860.659,1376.15 871.093,1364.13 881.527,1397.89 891.961,1357.93 902.396,1328.57 912.83,1371.36 923.264,1357.55 933.698,1369.92 944.133,1379.18 954.567,1346.63 965.001,1356.77 975.435,1353.68 985.87,1331.27 996.304,1311.25 1006.74,1331.74 1017.17,1320.28 1027.61,1329.81 1038.04,1290.12 1048.48,1299.46 1058.91,1314 1069.34,1280.51 1079.78,1271.89 1090.21,1288.45 1100.65,1256.63 1111.08,1230.07 1121.51,1194.64 1131.95,1216.86 1142.38,1168.38 1152.82,1177.25 1163.25,1112.92 1173.69,1085.8 1184.12,1040.54 1194.55,1033.26 1204.99,987.038 1215.42,968.641 1225.86,898.357 1236.29,859.478 1246.73,798.726 1257.16,785.069 1267.59,727.79 1278.03,667.172 1288.46,622.284 1298.9,594.554 1309.33,526.367 1319.77,466.096 1330.2,437.099 1340.63,414.984 1351.07,336.957 1361.5,279.948 1371.94,297.441 1382.37,233.857 1392.81,207.837 1403.24,157.851 1413.67,170.957 1424.11,151.502 1434.54,110.197 1444.98,114.109 1455.41,105.868 1465.84,87.9763 1476.28,126.183 1486.71,161.738 1497.15,173.085 1507.58,163.245 1518.02,182.417 1528.45,200.375 1538.88,257.574 1549.32,285.232 1559.75,338.19 1570.19,369.965 1580.62,434.202 1591.06,464.938 1601.49,532.544 1611.92,547.099 1622.36,632.805 1632.79,669.567 1643.23,685.151 1653.66,733.162 1664.1,778.307 1674.53,815.582 1684.96,879.112 1695.4,925.435 1705.83,940.818 1716.27,952.938 1726.7,1020.7 1737.14,1034.51 1747.57,1075.54 1758,1073.26 1768.44,1113.56 1778.87,1143.73 1789.31,1138.14 1799.74,1160.57 1810.18,1181.22 1820.61,1247.5 1831.04,1226.6 1841.48,1224.99 1851.91,1198.62 1862.35,1239.95 1872.78,1245.72 1883.21,1245.98 1893.65,1273.26 1904.08,1264.77 1914.52,1265.29 1924.95,1254.12 1935.39,1275.23 1945.82,1255.81 1956.25,1242.44 1966.69,1270.34 1977.12,1256.28 1987.56,1222.28 1997.99,1282.7 2008.43,1261.56 2018.86,1289.1 2029.29,1268.6 2039.73,1254.25 2050.16,1228.16 2060.6,1259.52 2071.03,1258.44 2081.47,1223.46 2091.9,1260.92 2102.33,1275.05 2112.77,1256.29 2123.2,1248.07 2133.64,1288.04 2144.07,1256.01 2154.51,1224.46 2164.94,1274.5 2175.37,1273.19 2185.81,1235.98 2196.24,1275.61 2206.68,1250.12 2217.11,1240.47 2227.54,1226.95 2237.98,1256.83 2248.41,1260.57 2258.85,1247.02 2269.28,1229.97 2279.72,1266.92 2290.15,1247.91 "/>
<polyline clip-path="url(#clip982)" style="stroke:#3da44d; stroke-linecap:round; stroke-linejoin:round; stroke-width:4; stroke-opacity:1; fill:none" points="203.301,1422.43 213.735,1420.13 224.17,1417.82 234.604,1415.52 245.038,1413.21 255.472,1410.91 265.907,1408.6 276.341,1406.29 286.775,1403.98 297.209,1401.66 307.643,1399.34 318.078,1397.02 328.512,1394.7 338.946,1392.37 349.38,1390.04 359.815,1387.7 370.249,1385.37 380.683,1383.03 391.117,1380.68 401.552,1378.33 411.986,1375.98 422.42,1373.63 432.854,1371.26 443.289,1368.9 453.723,1366.53 464.157,1364.15 474.591,1361.77 485.026,1359.38 495.46,1356.98 505.894,1354.57 516.328,1352.16 526.763,1349.74 537.197,1347.32 547.631,1344.88 558.065,1342.44 568.5,1339.99 578.934,1337.53 589.368,1335.06 599.802,1332.58 610.237,1330.1 620.671,1327.6 631.105,1325.1 641.539,1322.58 651.974,1320.06 662.408,1317.53 672.842,1314.99 683.276,1312.44 693.711,1309.89 704.145,1307.33 714.579,1304.76 725.013,1302.19 735.448,1299.61 745.882,1297.03 756.316,1294.44 766.75,1291.85 777.185,1289.25 787.619,1286.65 798.053,1284.05 808.487,1281.45 818.922,1278.85 829.356,1276.25 839.79,1273.66 850.224,1271.06 860.659,1268.47 871.093,1265.88 881.527,1263.29 891.961,1260.71 902.396,1258.14 912.83,1255.56 923.264,1253 933.698,1250.44 944.133,1247.88 954.567,1245.33 965.001,1242.79 975.435,1240.25 985.87,1237.72 996.304,1235.2 1006.74,1232.69 1017.17,1230.19 1027.61,1227.69 1038.04,1225.21 1048.48,1222.73 1058.91,1220.26 1069.34,1217.81 1079.78,1215.36 1090.21,1212.93 1100.65,1210.5 1111.08,1208.09 1121.51,1205.69 1131.95,1203.31 1142.38,1200.93 1152.82,1198.57 1163.25,1196.23 1173.69,1193.89 1184.12,1191.58 1194.55,1189.27 1204.99,1186.98 1215.42,1184.71 1225.86,1182.45 1236.29,1180.21 1246.73,1177.99 1257.16,1175.78 1267.59,1173.58 1278.03,1171.41 1288.46,1169.24 1298.9,1167.09 1309.33,1164.96 1319.77,1162.84 1330.2,1160.73 1340.63,1158.64 1351.07,1156.55 1361.5,1154.48 1371.94,1152.42 1382.37,1150.37 1392.81,1148.32 1403.24,1146.28 1413.67,1144.24 1424.11,1142.21 1434.54,1140.18 1444.98,1138.15 1455.41,1136.12 1465.84,1134.08 1476.28,1132.04 1486.71,1130 1497.15,1127.95 1507.58,1125.9 1518.02,1123.83 1528.45,1121.76 1538.88,1119.68 1549.32,1117.59 1559.75,1115.48 1570.19,1113.36 1580.62,1111.23 1591.06,1109.09 1601.49,1106.93 1611.92,1104.75 1622.36,1102.57 1632.79,1100.36 1643.23,1098.14 1653.66,1095.9 1664.1,1093.65 1674.53,1091.38 1684.96,1089.09 1695.4,1086.79 1705.83,1084.46 1716.27,1082.13 1726.7,1079.77 1737.14,1077.4 1747.57,1075.02 1758,1072.62 1768.44,1070.21 1778.87,1067.79 1789.31,1065.35 1799.74,1062.89 1810.18,1060.43 1820.61,1057.95 1831.04,1055.46 1841.48,1052.96 1851.91,1050.45 1862.35,1047.92 1872.78,1045.39 1883.21,1042.84 1893.65,1040.29 1904.08,1037.73 1914.52,1035.16 1924.95,1032.58 1935.39,1029.99 1945.82,1027.39 1956.25,1024.79 1966.69,1022.18 1977.12,1019.57 1987.56,1016.94 1997.99,1014.31 2008.43,1011.68 2018.86,1009.03 2029.29,1006.38 2039.73,1003.73 2050.16,1001.06 2060.6,998.394 2071.03,995.718 2081.47,993.035 2091.9,990.346 2102.33,987.651 2112.77,984.95 2123.2,982.245 2133.64,979.536 2144.07,976.821 2154.51,974.103 2164.94,971.38 2175.37,968.653 2185.81,965.924 2196.24,963.191 2206.68,960.456 2217.11,957.72 2227.54,954.983 2237.98,952.246 2248.41,949.509 2258.85,946.771 2269.28,944.032 2279.72,941.294 2290.15,938.555 "/>
<polyline clip-path="url(#clip982)" style="stroke:#c271d2; stroke-linecap:round; stroke-linejoin:round; stroke-width:4; stroke-opacity:1; fill:none" points="203.301,1437.83 213.735,1436.66 224.17,1435.49 234.604,1434.33 245.038,1433.16 255.472,1431.99 265.907,1430.83 276.341,1429.66 286.775,1428.49 297.209,1427.33 307.643,1426.16 318.078,1424.99 328.512,1423.83 338.946,1422.67 349.38,1421.51 359.815,1420.35 370.249,1419.19 380.683,1418.03 391.117,1416.88 401.552,1415.73 411.986,1414.58 422.42,1413.44 432.854,1412.29 443.289,1411.15 453.723,1410.01 464.157,1408.87 474.591,1407.74 485.026,1406.6 495.46,1405.47 505.894,1404.34 516.328,1403.21 526.763,1402.08 537.197,1400.96 547.631,1399.83 558.065,1398.71 568.5,1397.58 578.934,1396.46 589.368,1395.33 599.802,1394.21 610.237,1393.08 620.671,1391.95 631.105,1390.82 641.539,1389.68 651.974,1388.54 662.408,1387.4 672.842,1386.26 683.276,1385.11 693.711,1383.96 704.145,1382.81 714.579,1381.66 725.013,1380.5 735.448,1379.34 745.882,1378.18 756.316,1377.01 766.75,1375.84 777.185,1374.66 787.619,1373.47 798.053,1372.28 808.487,1371.08 818.922,1369.88 829.356,1368.66 839.79,1367.44 850.224,1366.21 860.659,1364.97 871.093,1363.72 881.527,1362.46 891.961,1361.2 902.396,1359.93 912.83,1358.65 923.264,1357.37 933.698,1356.08 944.133,1354.79 954.567,1353.49 965.001,1352.2 975.435,1350.9 985.87,1349.6 996.304,1348.3 1006.74,1347 1017.17,1345.71 1027.61,1344.42 1038.04,1343.14 1048.48,1341.85 1058.91,1340.58 1069.34,1339.31 1079.78,1338.04 1090.21,1336.78 1100.65,1335.52 1111.08,1334.27 1121.51,1333.03 1131.95,1331.79 1142.38,1330.56 1152.82,1329.33 1163.25,1328.11 1173.69,1326.89 1184.12,1325.68 1194.55,1324.48 1204.99,1323.29 1215.42,1322.1 1225.86,1320.92 1236.29,1319.74 1246.73,1318.58 1257.16,1317.42 1267.59,1316.26 1278.03,1315.12 1288.46,1313.98 1298.9,1312.85 1309.33,1311.73 1319.77,1310.61 1330.2,1309.51 1340.63,1308.41 1351.07,1307.32 1361.5,1306.23 1371.94,1305.16 1382.37,1304.1 1392.81,1303.04 1403.24,1301.99 1413.67,1300.96 1424.11,1299.93 1434.54,1298.91 1444.98,1297.9 1455.41,1296.9 1465.84,1295.91 1476.28,1294.92 1486.71,1293.95 1497.15,1292.99 1507.58,1292.04 1518.02,1291.1 1528.45,1290.17 1538.88,1289.25 1549.32,1288.34 1559.75,1287.44 1570.19,1286.55 1580.62,1285.67 1591.06,1284.8 1601.49,1283.95 1611.92,1283.1 1622.36,1282.27 1632.79,1281.45 1643.23,1280.64 1653.66,1279.84 1664.1,1279.05 1674.53,1278.28 1684.96,1277.52 1695.4,1276.77 1705.83,1276.03 1716.27,1275.31 1726.7,1274.59 1737.14,1273.89 1747.57,1273.21 1758,1272.53 1768.44,1271.87 1778.87,1271.22 1789.31,1270.59 1799.74,1269.97 1810.18,1269.36 1820.61,1268.76 1831.04,1268.18 1841.48,1267.62 1851.91,1267.07 1862.35,1266.53 1872.78,1266 1883.21,1265.49 1893.65,1264.99 1904.08,1264.5 1914.52,1264.02 1924.95,1263.55 1935.39,1263.09 1945.82,1262.64 1956.25,1262.21 1966.69,1261.77 1977.12,1261.35 1987.56,1260.93 1997.99,1260.52 2008.43,1260.11 2018.86,1259.71 2029.29,1259.31 2039.73,1258.91 2050.16,1258.52 2060.6,1258.13 2071.03,1257.74 2081.47,1257.36 2091.9,1256.97 2102.33,1256.59 2112.77,1256.21 2123.2,1255.82 2133.64,1255.44 2144.07,1255.06 2154.51,1254.68 2164.94,1254.29 2175.37,1253.91 2185.81,1253.52 2196.24,1253.14 2206.68,1252.75 2217.11,1252.37 2227.54,1251.98 2237.98,1251.59 2248.41,1251.21 2258.85,1250.82 2269.28,1250.43 2279.72,1250.05 2290.15,1249.66 "/>
<path clip-path="url(#clip980)" d="M1740.87 354.418 L2279.02 354.418 L2279.02 95.2176 L1740.87 95.2176  Z" fill="#ffffff" fill-rule="evenodd" fill-opacity="1"/>
<polyline clip-path="url(#clip980)" style="stroke:#000000; stroke-linecap:round; stroke-linejoin:round; stroke-width:4; stroke-opacity:1; fill:none" points="1740.87,354.418 2279.02,354.418 2279.02,95.2176 1740.87,95.2176 1740.87,354.418 "/>
<polyline clip-path="url(#clip980)" style="stroke:#009af9; stroke-linecap:round; stroke-linejoin:round; stroke-width:4; stroke-opacity:1; fill:none" points="1765.45,147.058 1912.92,147.058 "/>
<path clip-path="url(#clip980)" d="M1951.34 166.745 Q1949.54 171.375 1947.82 172.787 Q1946.11 174.199 1943.24 174.199 L1939.84 174.199 L1939.84 170.634 L1942.34 170.634 Q1944.1 170.634 1945.07 169.8 Q1946.04 168.967 1947.22 165.865 L1947.99 163.921 L1937.5 138.412 L1942.01 138.412 L1950.12 158.689 L1958.22 138.412 L1962.73 138.412 L1951.34 166.745 Z" fill="#000000" fill-rule="nonzero" fill-opacity="1" /><path clip-path="url(#clip980)" d="M1970.02 160.402 L1977.66 160.402 L1977.66 134.037 L1969.35 135.703 L1969.35 131.444 L1977.61 129.778 L1982.29 129.778 L1982.29 160.402 L1989.93 160.402 L1989.93 164.338 L1970.02 164.338 L1970.02 160.402 Z" fill="#000000" fill-rule="nonzero" fill-opacity="1" /><polyline clip-path="url(#clip980)" style="stroke:#e26f46; stroke-linecap:round; stroke-linejoin:round; stroke-width:4; stroke-opacity:1; fill:none" points="1765.45,198.898 1912.92,198.898 "/>
<path clip-path="url(#clip980)" d="M1951.34 218.585 Q1949.54 223.215 1947.82 224.627 Q1946.11 226.039 1943.24 226.039 L1939.84 226.039 L1939.84 222.474 L1942.34 222.474 Q1944.1 222.474 1945.07 221.64 Q1946.04 220.807 1947.22 217.705 L1947.99 215.761 L1937.5 190.252 L1942.01 190.252 L1950.12 210.529 L1958.22 190.252 L1962.73 190.252 L1951.34 218.585 Z" fill="#000000" fill-rule="nonzero" fill-opacity="1" /><path clip-path="url(#clip980)" d="M1973.24 212.242 L1989.56 212.242 L1989.56 216.178 L1967.61 216.178 L1967.61 212.242 Q1970.28 209.488 1974.86 204.858 Q1979.47 200.205 1980.65 198.863 Q1982.89 196.34 1983.77 194.604 Q1984.68 192.844 1984.68 191.155 Q1984.68 188.4 1982.73 186.664 Q1980.81 184.928 1977.71 184.928 Q1975.51 184.928 1973.05 185.692 Q1970.62 186.455 1967.85 188.006 L1967.85 183.284 Q1970.67 182.15 1973.12 181.571 Q1975.58 180.993 1977.61 180.993 Q1982.99 180.993 1986.18 183.678 Q1989.37 186.363 1989.37 190.854 Q1989.37 192.983 1988.56 194.905 Q1987.78 196.803 1985.67 199.395 Q1985.09 200.067 1981.99 203.284 Q1978.89 206.479 1973.24 212.242 Z" fill="#000000" fill-rule="nonzero" fill-opacity="1" /><polyline clip-path="url(#clip980)" style="stroke:#3da44d; stroke-linecap:round; stroke-linejoin:round; stroke-width:4; stroke-opacity:1; fill:none" points="1765.45,250.738 1912.92,250.738 "/>
<path clip-path="url(#clip980)" d="M1956.27 255.078 Q1956.27 250.379 1954.33 247.717 Q1952.41 245.032 1949.03 245.032 Q1945.65 245.032 1943.7 247.717 Q1941.78 250.379 1941.78 255.078 Q1941.78 259.777 1943.7 262.462 Q1945.65 265.124 1949.03 265.124 Q1952.41 265.124 1954.33 262.462 Q1956.27 259.777 1956.27 255.078 M1941.78 246.027 Q1943.12 243.712 1945.16 242.601 Q1947.22 241.467 1950.07 241.467 Q1954.79 241.467 1957.73 245.217 Q1960.69 248.967 1960.69 255.078 Q1960.69 261.189 1957.73 264.939 Q1954.79 268.689 1950.07 268.689 Q1947.22 268.689 1945.16 267.578 Q1943.12 266.443 1941.78 264.129 L1941.78 268.018 L1937.5 268.018 L1937.5 231.999 L1941.78 231.999 L1941.78 246.027 Z" fill="#000000" fill-rule="nonzero" fill-opacity="1" /><path clip-path="url(#clip980)" d="M1979.54 254.985 Q1974.37 254.985 1972.38 256.166 Q1970.39 257.346 1970.39 260.194 Q1970.39 262.462 1971.87 263.805 Q1973.38 265.124 1975.95 265.124 Q1979.49 265.124 1981.62 262.624 Q1983.77 260.101 1983.77 255.934 L1983.77 254.985 L1979.54 254.985 M1988.03 253.226 L1988.03 268.018 L1983.77 268.018 L1983.77 264.082 Q1982.31 266.443 1980.14 267.578 Q1977.96 268.689 1974.81 268.689 Q1970.83 268.689 1968.47 266.467 Q1966.13 264.221 1966.13 260.471 Q1966.13 256.096 1969.05 253.874 Q1971.99 251.652 1977.8 251.652 L1983.77 251.652 L1983.77 251.235 Q1983.77 248.295 1981.83 246.698 Q1979.91 245.078 1976.41 245.078 Q1974.19 245.078 1972.08 245.61 Q1969.98 246.143 1968.03 247.207 L1968.03 243.272 Q1970.37 242.37 1972.57 241.93 Q1974.77 241.467 1976.85 241.467 Q1982.48 241.467 1985.25 244.383 Q1988.03 247.3 1988.03 253.226 Z" fill="#000000" fill-rule="nonzero" fill-opacity="1" /><path clip-path="url(#clip980)" d="M2015.46 243.087 L2015.46 247.069 Q2013.66 246.073 2011.83 245.587 Q2010.02 245.078 2008.17 245.078 Q2004.03 245.078 2001.74 247.717 Q1999.44 250.332 1999.44 255.078 Q1999.44 259.823 2001.74 262.462 Q2004.03 265.078 2008.17 265.078 Q2010.02 265.078 2011.83 264.592 Q2013.66 264.082 2015.46 263.087 L2015.46 267.022 Q2013.68 267.856 2011.76 268.272 Q2009.86 268.689 2007.71 268.689 Q2001.85 268.689 1998.4 265.008 Q1994.95 261.328 1994.95 255.078 Q1994.95 248.735 1998.42 245.101 Q2001.92 241.467 2007.99 241.467 Q2009.95 241.467 2011.83 241.883 Q2013.7 242.277 2015.46 243.087 Z" fill="#000000" fill-rule="nonzero" fill-opacity="1" /><path clip-path="url(#clip980)" d="M2022.71 231.999 L2026.99 231.999 L2026.99 253.272 L2039.7 242.092 L2045.14 242.092 L2031.39 254.221 L2045.72 268.018 L2040.16 268.018 L2026.99 255.356 L2026.99 268.018 L2022.71 268.018 L2022.71 231.999 Z" fill="#000000" fill-rule="nonzero" fill-opacity="1" /><path clip-path="url(#clip980)" d="M2067.38 254.754 Q2067.38 250.124 2065.46 247.578 Q2063.56 245.032 2060.11 245.032 Q2056.69 245.032 2054.77 247.578 Q2052.87 250.124 2052.87 254.754 Q2052.87 259.36 2054.77 261.906 Q2056.69 264.453 2060.11 264.453 Q2063.56 264.453 2065.46 261.906 Q2067.38 259.36 2067.38 254.754 M2071.64 264.8 Q2071.64 271.42 2068.7 274.638 Q2065.76 277.879 2059.7 277.879 Q2057.45 277.879 2055.46 277.531 Q2053.47 277.207 2051.6 276.513 L2051.6 272.369 Q2053.47 273.388 2055.3 273.874 Q2057.13 274.36 2059.03 274.36 Q2063.22 274.36 2065.3 272.161 Q2067.38 269.985 2067.38 265.564 L2067.38 263.457 Q2066.06 265.749 2064 266.883 Q2061.94 268.018 2059.07 268.018 Q2054.3 268.018 2051.39 264.383 Q2048.47 260.749 2048.47 254.754 Q2048.47 248.735 2051.39 245.101 Q2054.3 241.467 2059.07 241.467 Q2061.94 241.467 2064 242.601 Q2066.06 243.735 2067.38 246.027 L2067.38 242.092 L2071.64 242.092 L2071.64 264.8 Z" fill="#000000" fill-rule="nonzero" fill-opacity="1" /><path clip-path="url(#clip980)" d="M2095.44 246.073 Q2094.72 245.657 2093.86 245.471 Q2093.03 245.263 2092.01 245.263 Q2088.4 245.263 2086.46 247.624 Q2084.54 249.962 2084.54 254.36 L2084.54 268.018 L2080.25 268.018 L2080.25 242.092 L2084.54 242.092 L2084.54 246.12 Q2085.88 243.758 2088.03 242.624 Q2090.18 241.467 2093.26 241.467 Q2093.7 241.467 2094.23 241.536 Q2094.77 241.583 2095.42 241.698 L2095.44 246.073 Z" fill="#000000" fill-rule="nonzero" fill-opacity="1" /><path clip-path="url(#clip980)" d="M2108.91 245.078 Q2105.48 245.078 2103.49 247.763 Q2101.5 250.425 2101.5 255.078 Q2101.5 259.731 2103.47 262.416 Q2105.46 265.078 2108.91 265.078 Q2112.31 265.078 2114.3 262.393 Q2116.29 259.707 2116.29 255.078 Q2116.29 250.471 2114.3 247.786 Q2112.31 245.078 2108.91 245.078 M2108.91 241.467 Q2114.47 241.467 2117.64 245.078 Q2120.81 248.689 2120.81 255.078 Q2120.81 261.444 2117.64 265.078 Q2114.47 268.689 2108.91 268.689 Q2103.33 268.689 2100.16 265.078 Q2097.01 261.444 2097.01 255.078 Q2097.01 248.689 2100.16 245.078 Q2103.33 241.467 2108.91 241.467 Z" fill="#000000" fill-rule="nonzero" fill-opacity="1" /><path clip-path="url(#clip980)" d="M2127.43 257.786 L2127.43 242.092 L2131.69 242.092 L2131.69 257.624 Q2131.69 261.305 2133.12 263.156 Q2134.56 264.985 2137.43 264.985 Q2140.88 264.985 2142.87 262.786 Q2144.88 260.587 2144.88 256.791 L2144.88 242.092 L2149.14 242.092 L2149.14 268.018 L2144.88 268.018 L2144.88 264.036 Q2143.33 266.397 2141.27 267.555 Q2139.23 268.689 2136.53 268.689 Q2132.06 268.689 2129.74 265.911 Q2127.43 263.133 2127.43 257.786 M2138.15 241.467 L2138.15 241.467 Z" fill="#000000" fill-rule="nonzero" fill-opacity="1" /><path clip-path="url(#clip980)" d="M2179.47 252.369 L2179.47 268.018 L2175.21 268.018 L2175.21 252.508 Q2175.21 248.828 2173.77 246.999 Q2172.34 245.17 2169.47 245.17 Q2166.02 245.17 2164.03 247.37 Q2162.04 249.569 2162.04 253.365 L2162.04 268.018 L2157.75 268.018 L2157.75 242.092 L2162.04 242.092 L2162.04 246.12 Q2163.56 243.782 2165.62 242.624 Q2167.71 241.467 2170.41 241.467 Q2174.88 241.467 2177.17 244.245 Q2179.47 246.999 2179.47 252.369 Z" fill="#000000" fill-rule="nonzero" fill-opacity="1" /><path clip-path="url(#clip980)" d="M2205.02 246.027 L2205.02 231.999 L2209.28 231.999 L2209.28 268.018 L2205.02 268.018 L2205.02 264.129 Q2203.68 266.443 2201.62 267.578 Q2199.58 268.689 2196.71 268.689 Q2192.01 268.689 2189.05 264.939 Q2186.11 261.189 2186.11 255.078 Q2186.11 248.967 2189.05 245.217 Q2192.01 241.467 2196.71 241.467 Q2199.58 241.467 2201.62 242.601 Q2203.68 243.712 2205.02 246.027 M2190.51 255.078 Q2190.51 259.777 2192.43 262.462 Q2194.37 265.124 2197.75 265.124 Q2201.13 265.124 2203.08 262.462 Q2205.02 259.777 2205.02 255.078 Q2205.02 250.379 2203.08 247.717 Q2201.13 245.032 2197.75 245.032 Q2194.37 245.032 2192.43 247.717 Q2190.51 250.379 2190.51 255.078 Z" fill="#000000" fill-rule="nonzero" fill-opacity="1" /><path clip-path="url(#clip980)" d="M2234.53 264.082 L2242.17 264.082 L2242.17 237.717 L2233.86 239.383 L2233.86 235.124 L2242.13 233.458 L2246.8 233.458 L2246.8 264.082 L2254.44 264.082 L2254.44 268.018 L2234.53 268.018 L2234.53 264.082 Z" fill="#000000" fill-rule="nonzero" fill-opacity="1" /><polyline clip-path="url(#clip980)" style="stroke:#c271d2; stroke-linecap:round; stroke-linejoin:round; stroke-width:4; stroke-opacity:1; fill:none" points="1765.45,302.578 1912.92,302.578 "/>
<path clip-path="url(#clip980)" d="M1956.27 306.918 Q1956.27 302.219 1954.33 299.557 Q1952.41 296.872 1949.03 296.872 Q1945.65 296.872 1943.7 299.557 Q1941.78 302.219 1941.78 306.918 Q1941.78 311.617 1943.7 314.302 Q1945.65 316.964 1949.03 316.964 Q1952.41 316.964 1954.33 314.302 Q1956.27 311.617 1956.27 306.918 M1941.78 297.867 Q1943.12 295.552 1945.16 294.441 Q1947.22 293.307 1950.07 293.307 Q1954.79 293.307 1957.73 297.057 Q1960.69 300.807 1960.69 306.918 Q1960.69 313.029 1957.73 316.779 Q1954.79 320.529 1950.07 320.529 Q1947.22 320.529 1945.16 319.418 Q1943.12 318.283 1941.78 315.969 L1941.78 319.858 L1937.5 319.858 L1937.5 283.839 L1941.78 283.839 L1941.78 297.867 Z" fill="#000000" fill-rule="nonzero" fill-opacity="1" /><path clip-path="url(#clip980)" d="M1979.54 306.825 Q1974.37 306.825 1972.38 308.006 Q1970.39 309.186 1970.39 312.034 Q1970.39 314.302 1971.87 315.645 Q1973.38 316.964 1975.95 316.964 Q1979.49 316.964 1981.62 314.464 Q1983.77 311.941 1983.77 307.774 L1983.77 306.825 L1979.54 306.825 M1988.03 305.066 L1988.03 319.858 L1983.77 319.858 L1983.77 315.922 Q1982.31 318.283 1980.14 319.418 Q1977.96 320.529 1974.81 320.529 Q1970.83 320.529 1968.47 318.307 Q1966.13 316.061 1966.13 312.311 Q1966.13 307.936 1969.05 305.714 Q1971.99 303.492 1977.8 303.492 L1983.77 303.492 L1983.77 303.075 Q1983.77 300.135 1981.83 298.538 Q1979.91 296.918 1976.41 296.918 Q1974.19 296.918 1972.08 297.45 Q1969.98 297.983 1968.03 299.047 L1968.03 295.112 Q1970.37 294.21 1972.57 293.77 Q1974.77 293.307 1976.85 293.307 Q1982.48 293.307 1985.25 296.223 Q1988.03 299.14 1988.03 305.066 Z" fill="#000000" fill-rule="nonzero" fill-opacity="1" /><path clip-path="url(#clip980)" d="M2015.46 294.927 L2015.46 298.909 Q2013.66 297.913 2011.83 297.427 Q2010.02 296.918 2008.17 296.918 Q2004.03 296.918 2001.74 299.557 Q1999.44 302.172 1999.44 306.918 Q1999.44 311.663 2001.74 314.302 Q2004.03 316.918 2008.17 316.918 Q2010.02 316.918 2011.83 316.432 Q2013.66 315.922 2015.46 314.927 L2015.46 318.862 Q2013.68 319.696 2011.76 320.112 Q2009.86 320.529 2007.71 320.529 Q2001.85 320.529 1998.4 316.848 Q1994.95 313.168 1994.95 306.918 Q1994.95 300.575 1998.42 296.941 Q2001.92 293.307 2007.99 293.307 Q2009.95 293.307 2011.83 293.723 Q2013.7 294.117 2015.46 294.927 Z" fill="#000000" fill-rule="nonzero" fill-opacity="1" /><path clip-path="url(#clip980)" d="M2022.71 283.839 L2026.99 283.839 L2026.99 305.112 L2039.7 293.932 L2045.14 293.932 L2031.39 306.061 L2045.72 319.858 L2040.16 319.858 L2026.99 307.196 L2026.99 319.858 L2022.71 319.858 L2022.71 283.839 Z" fill="#000000" fill-rule="nonzero" fill-opacity="1" /><path clip-path="url(#clip980)" d="M2067.38 306.594 Q2067.38 301.964 2065.46 299.418 Q2063.56 296.872 2060.11 296.872 Q2056.69 296.872 2054.77 299.418 Q2052.87 301.964 2052.87 306.594 Q2052.87 311.2 2054.77 313.746 Q2056.69 316.293 2060.11 316.293 Q2063.56 316.293 2065.46 313.746 Q2067.38 311.2 2067.38 306.594 M2071.64 316.64 Q2071.64 323.26 2068.7 326.478 Q2065.76 329.719 2059.7 329.719 Q2057.45 329.719 2055.46 329.371 Q2053.47 329.047 2051.6 328.353 L2051.6 324.209 Q2053.47 325.228 2055.3 325.714 Q2057.13 326.2 2059.03 326.2 Q2063.22 326.2 2065.3 324.001 Q2067.38 321.825 2067.38 317.404 L2067.38 315.297 Q2066.06 317.589 2064 318.723 Q2061.94 319.858 2059.07 319.858 Q2054.3 319.858 2051.39 316.223 Q2048.47 312.589 2048.47 306.594 Q2048.47 300.575 2051.39 296.941 Q2054.3 293.307 2059.07 293.307 Q2061.94 293.307 2064 294.441 Q2066.06 295.575 2067.38 297.867 L2067.38 293.932 L2071.64 293.932 L2071.64 316.64 Z" fill="#000000" fill-rule="nonzero" fill-opacity="1" /><path clip-path="url(#clip980)" d="M2095.44 297.913 Q2094.72 297.497 2093.86 297.311 Q2093.03 297.103 2092.01 297.103 Q2088.4 297.103 2086.46 299.464 Q2084.54 301.802 2084.54 306.2 L2084.54 319.858 L2080.25 319.858 L2080.25 293.932 L2084.54 293.932 L2084.54 297.96 Q2085.88 295.598 2088.03 294.464 Q2090.18 293.307 2093.26 293.307 Q2093.7 293.307 2094.23 293.376 Q2094.77 293.423 2095.42 293.538 L2095.44 297.913 Z" fill="#000000" fill-rule="nonzero" fill-opacity="1" /><path clip-path="url(#clip980)" d="M2108.91 296.918 Q2105.48 296.918 2103.49 299.603 Q2101.5 302.265 2101.5 306.918 Q2101.5 311.571 2103.47 314.256 Q2105.46 316.918 2108.91 316.918 Q2112.31 316.918 2114.3 314.233 Q2116.29 311.547 2116.29 306.918 Q2116.29 302.311 2114.3 299.626 Q2112.31 296.918 2108.91 296.918 M2108.91 293.307 Q2114.47 293.307 2117.64 296.918 Q2120.81 300.529 2120.81 306.918 Q2120.81 313.284 2117.64 316.918 Q2114.47 320.529 2108.91 320.529 Q2103.33 320.529 2100.16 316.918 Q2097.01 313.284 2097.01 306.918 Q2097.01 300.529 2100.16 296.918 Q2103.33 293.307 2108.91 293.307 Z" fill="#000000" fill-rule="nonzero" fill-opacity="1" /><path clip-path="url(#clip980)" d="M2127.43 309.626 L2127.43 293.932 L2131.69 293.932 L2131.69 309.464 Q2131.69 313.145 2133.12 314.996 Q2134.56 316.825 2137.43 316.825 Q2140.88 316.825 2142.87 314.626 Q2144.88 312.427 2144.88 308.631 L2144.88 293.932 L2149.14 293.932 L2149.14 319.858 L2144.88 319.858 L2144.88 315.876 Q2143.33 318.237 2141.27 319.395 Q2139.23 320.529 2136.53 320.529 Q2132.06 320.529 2129.74 317.751 Q2127.43 314.973 2127.43 309.626 M2138.15 293.307 L2138.15 293.307 Z" fill="#000000" fill-rule="nonzero" fill-opacity="1" /><path clip-path="url(#clip980)" d="M2179.47 304.209 L2179.47 319.858 L2175.21 319.858 L2175.21 304.348 Q2175.21 300.668 2173.77 298.839 Q2172.34 297.01 2169.47 297.01 Q2166.02 297.01 2164.03 299.21 Q2162.04 301.409 2162.04 305.205 L2162.04 319.858 L2157.75 319.858 L2157.75 293.932 L2162.04 293.932 L2162.04 297.96 Q2163.56 295.622 2165.62 294.464 Q2167.71 293.307 2170.41 293.307 Q2174.88 293.307 2177.17 296.085 Q2179.47 298.839 2179.47 304.209 Z" fill="#000000" fill-rule="nonzero" fill-opacity="1" /><path clip-path="url(#clip980)" d="M2205.02 297.867 L2205.02 283.839 L2209.28 283.839 L2209.28 319.858 L2205.02 319.858 L2205.02 315.969 Q2203.68 318.283 2201.62 319.418 Q2199.58 320.529 2196.71 320.529 Q2192.01 320.529 2189.05 316.779 Q2186.11 313.029 2186.11 306.918 Q2186.11 300.807 2189.05 297.057 Q2192.01 293.307 2196.71 293.307 Q2199.58 293.307 2201.62 294.441 Q2203.68 295.552 2205.02 297.867 M2190.51 306.918 Q2190.51 311.617 2192.43 314.302 Q2194.37 316.964 2197.75 316.964 Q2201.13 316.964 2203.08 314.302 Q2205.02 311.617 2205.02 306.918 Q2205.02 302.219 2203.08 299.557 Q2201.13 296.872 2197.75 296.872 Q2194.37 296.872 2192.43 299.557 Q2190.51 302.219 2190.51 306.918 Z" fill="#000000" fill-rule="nonzero" fill-opacity="1" /><path clip-path="url(#clip980)" d="M2237.75 315.922 L2254.07 315.922 L2254.07 319.858 L2232.13 319.858 L2232.13 315.922 Q2234.79 313.168 2239.37 308.538 Q2243.98 303.885 2245.16 302.543 Q2247.41 300.02 2248.28 298.284 Q2249.19 296.524 2249.19 294.835 Q2249.19 292.08 2247.24 290.344 Q2245.32 288.608 2242.22 288.608 Q2240.02 288.608 2237.57 289.372 Q2235.14 290.135 2232.36 291.686 L2232.36 286.964 Q2235.18 285.83 2237.64 285.251 Q2240.09 284.673 2242.13 284.673 Q2247.5 284.673 2250.69 287.358 Q2253.89 290.043 2253.89 294.534 Q2253.89 296.663 2253.08 298.585 Q2252.29 300.483 2250.18 303.075 Q2249.6 303.747 2246.5 306.964 Q2243.4 310.159 2237.75 315.922 Z" fill="#000000" fill-rule="nonzero" fill-opacity="1" /></svg>
