<?xml version="1.0" encoding="utf-8"?>
<svg xmlns="http://www.w3.org/2000/svg" xmlns:xlink="http://www.w3.org/1999/xlink" width="600" height="400" viewBox="0 0 2400 1600">
<defs>
  <clipPath id="clip010">
    <rect x="0" y="0" width="2400" height="1600"/>
  </clipPath>
</defs>
<path clip-path="url(#clip010)" d="M0 1600 L2400 1600 L2400 0 L0 0  Z" fill="#ffffff" fill-rule="evenodd" fill-opacity="1"/>
<defs>
  <clipPath id="clip011">
    <rect x="480" y="0" width="1681" height="1600"/>
  </clipPath>
</defs>
<path clip-path="url(#clip010)" d="M140.696 1486.45 L2352.76 1486.45 L2352.76 47.2441 L140.696 47.2441  Z" fill="#ffffff" fill-rule="evenodd" fill-opacity="1"/>
<defs>
  <clipPath id="clip012">
    <rect x="140" y="47" width="2213" height="1440"/>
  </clipPath>
</defs>
<polyline clip-path="url(#clip012)" style="stroke:#000000; stroke-linecap:round; stroke-linejoin:round; stroke-width:2; stroke-opacity:0.1; fill:none" points="203.301,1486.45 203.301,47.2441 "/>
<polyline clip-path="url(#clip012)" style="stroke:#000000; stroke-linecap:round; stroke-linejoin:round; stroke-width:2; stroke-opacity:0.1; fill:none" points="725.013,1486.45 725.013,47.2441 "/>
<polyline clip-path="url(#clip012)" style="stroke:#000000; stroke-linecap:round; stroke-linejoin:round; stroke-width:2; stroke-opacity:0.1; fill:none" points="1246.73,1486.45 1246.73,47.2441 "/>
<polyline clip-path="url(#clip012)" style="stroke:#000000; stroke-linecap:round; stroke-linejoin:round; stroke-width:2; stroke-opacity:0.1; fill:none" points="1768.44,1486.45 1768.44,47.2441 "/>
<polyline clip-path="url(#clip012)" style="stroke:#000000; stroke-linecap:round; stroke-linejoin:round; stroke-width:2; stroke-opacity:0.1; fill:none" points="2290.15,1486.45 2290.15,47.2441 "/>
<polyline clip-path="url(#clip012)" style="stroke:#000000; stroke-linecap:round; stroke-linejoin:round; stroke-width:2; stroke-opacity:0.1; fill:none" points="140.696,1426.91 2352.76,1426.91 "/>
<polyline clip-path="url(#clip012)" style="stroke:#000000; stroke-linecap:round; stroke-linejoin:round; stroke-width:2; stroke-opacity:0.1; fill:none" points="140.696,1125.28 2352.76,1125.28 "/>
<polyline clip-path="url(#clip012)" style="stroke:#000000; stroke-linecap:round; stroke-linejoin:round; stroke-width:2; stroke-opacity:0.1; fill:none" points="140.696,823.658 2352.76,823.658 "/>
<polyline clip-path="url(#clip012)" style="stroke:#000000; stroke-linecap:round; stroke-linejoin:round; stroke-width:2; stroke-opacity:0.1; fill:none" points="140.696,522.033 2352.76,522.033 "/>
<polyline clip-path="url(#clip012)" style="stroke:#000000; stroke-linecap:round; stroke-linejoin:round; stroke-width:2; stroke-opacity:0.1; fill:none" points="140.696,220.408 2352.76,220.408 "/>
<polyline clip-path="url(#clip010)" style="stroke:#000000; stroke-linecap:round; stroke-linejoin:round; stroke-width:4; stroke-opacity:1; fill:none" points="140.696,1486.45 2352.76,1486.45 "/>
<polyline clip-path="url(#clip010)" style="stroke:#000000; stroke-linecap:round; stroke-linejoin:round; stroke-width:4; stroke-opacity:1; fill:none" points="203.301,1486.45 203.301,1467.55 "/>
<polyline clip-path="url(#clip010)" style="stroke:#000000; stroke-linecap:round; stroke-linejoin:round; stroke-width:4; stroke-opacity:1; fill:none" points="725.013,1486.45 725.013,1467.55 "/>
<polyline clip-path="url(#clip010)" style="stroke:#000000; stroke-linecap:round; stroke-linejoin:round; stroke-width:4; stroke-opacity:1; fill:none" points="1246.73,1486.45 1246.73,1467.55 "/>
<polyline clip-path="url(#clip010)" style="stroke:#000000; stroke-linecap:round; stroke-linejoin:round; stroke-width:4; stroke-opacity:1; fill:none" points="1768.44,1486.45 1768.44,1467.55 "/>
<polyline clip-path="url(#clip010)" style="stroke:#000000; stroke-linecap:round; stroke-linejoin:round; stroke-width:4; stroke-opacity:1; fill:none" points="2290.15,1486.45 2290.15,1467.55 "/>
<path clip-path="url(#clip010)" d="M203.301 1517.37 Q199.69 1517.37 197.861 1520.93 Q196.056 1524.47 196.056 1531.6 Q196.056 1538.71 197.861 1542.27 Q199.69 1545.82 203.301 1545.82 Q206.935 1545.82 208.741 1542.27 Q210.57 1538.71 210.57 1531.6 Q210.57 1524.47 208.741 1520.93 Q206.935 1517.37 203.301 1517.37 M203.301 1513.66 Q209.111 1513.66 212.167 1518.27 Q215.245 1522.85 215.245 1531.6 Q215.245 1540.33 212.167 1544.94 Q209.111 1549.52 203.301 1549.52 Q197.491 1549.52 194.412 1544.94 Q191.357 1540.33 191.357 1531.6 Q191.357 1522.85 194.412 1518.27 Q197.491 1513.66 203.301 1513.66 Z" fill="#000000" fill-rule="nonzero" fill-opacity="1" /><path clip-path="url(#clip010)" d="M704.284 1544.91 L720.604 1544.91 L720.604 1548.85 L698.659 1548.85 L698.659 1544.91 Q701.321 1542.16 705.905 1537.53 Q710.511 1532.88 711.692 1531.53 Q713.937 1529.01 714.817 1527.27 Q715.719 1525.51 715.719 1523.82 Q715.719 1521.07 713.775 1519.33 Q711.854 1517.6 708.752 1517.6 Q706.553 1517.6 704.099 1518.36 Q701.669 1519.13 698.891 1520.68 L698.891 1515.95 Q701.715 1514.82 704.169 1514.24 Q706.622 1513.66 708.659 1513.66 Q714.03 1513.66 717.224 1516.35 Q720.418 1519.03 720.418 1523.52 Q720.418 1525.65 719.608 1527.57 Q718.821 1529.47 716.715 1532.07 Q716.136 1532.74 713.034 1535.95 Q709.932 1539.15 704.284 1544.91 Z" fill="#000000" fill-rule="nonzero" fill-opacity="1" /><path clip-path="url(#clip010)" d="M730.465 1514.29 L748.821 1514.29 L748.821 1518.22 L734.747 1518.22 L734.747 1526.7 Q735.766 1526.35 736.784 1526.19 Q737.803 1526 738.821 1526 Q744.608 1526 747.988 1529.17 Q751.367 1532.34 751.367 1537.76 Q751.367 1543.34 747.895 1546.44 Q744.423 1549.52 738.104 1549.52 Q735.928 1549.52 733.659 1549.15 Q731.414 1548.78 729.006 1548.04 L729.006 1543.34 Q731.09 1544.47 733.312 1545.03 Q735.534 1545.58 738.011 1545.58 Q742.016 1545.58 744.354 1543.48 Q746.691 1541.37 746.691 1537.76 Q746.691 1534.15 744.354 1532.04 Q742.016 1529.94 738.011 1529.94 Q736.136 1529.94 734.261 1530.35 Q732.409 1530.77 730.465 1531.65 L730.465 1514.29 Z" fill="#000000" fill-rule="nonzero" fill-opacity="1" /><path clip-path="url(#clip010)" d="M1221.42 1514.29 L1239.78 1514.29 L1239.78 1518.22 L1225.71 1518.22 L1225.71 1526.7 Q1226.73 1526.35 1227.74 1526.19 Q1228.76 1526 1229.78 1526 Q1235.57 1526 1238.95 1529.17 Q1242.33 1532.34 1242.33 1537.76 Q1242.33 1543.34 1238.86 1546.44 Q1235.38 1549.52 1229.06 1549.52 Q1226.89 1549.52 1224.62 1549.15 Q1222.37 1548.78 1219.97 1548.04 L1219.97 1543.34 Q1222.05 1544.47 1224.27 1545.03 Q1226.49 1545.58 1228.97 1545.58 Q1232.98 1545.58 1235.31 1543.48 Q1237.65 1541.37 1237.65 1537.76 Q1237.65 1534.15 1235.31 1532.04 Q1232.98 1529.94 1228.97 1529.94 Q1227.1 1529.94 1225.22 1530.35 Q1223.37 1530.77 1221.42 1531.65 L1221.42 1514.29 Z" fill="#000000" fill-rule="nonzero" fill-opacity="1" /><path clip-path="url(#clip010)" d="M1261.54 1517.37 Q1257.93 1517.37 1256.1 1520.93 Q1254.3 1524.47 1254.3 1531.6 Q1254.3 1538.71 1256.1 1542.27 Q1257.93 1545.82 1261.54 1545.82 Q1265.17 1545.82 1266.98 1542.27 Q1268.81 1538.71 1268.81 1531.6 Q1268.81 1524.47 1266.98 1520.93 Q1265.17 1517.37 1261.54 1517.37 M1261.54 1513.66 Q1267.35 1513.66 1270.41 1518.27 Q1273.48 1522.85 1273.48 1531.6 Q1273.48 1540.33 1270.41 1544.94 Q1267.35 1549.52 1261.54 1549.52 Q1255.73 1549.52 1252.65 1544.94 Q1249.6 1540.33 1249.6 1531.6 Q1249.6 1522.85 1252.65 1518.27 Q1255.73 1513.66 1261.54 1513.66 Z" fill="#000000" fill-rule="nonzero" fill-opacity="1" /><path clip-path="url(#clip010)" d="M1742.29 1514.29 L1764.51 1514.29 L1764.51 1516.28 L1751.97 1548.85 L1747.08 1548.85 L1758.89 1518.22 L1742.29 1518.22 L1742.29 1514.29 Z" fill="#000000" fill-rule="nonzero" fill-opacity="1" /><path clip-path="url(#clip010)" d="M1773.68 1514.29 L1792.04 1514.29 L1792.04 1518.22 L1777.96 1518.22 L1777.96 1526.7 Q1778.98 1526.35 1780 1526.19 Q1781.02 1526 1782.04 1526 Q1787.82 1526 1791.2 1529.17 Q1794.58 1532.34 1794.58 1537.76 Q1794.58 1543.34 1791.11 1546.44 Q1787.64 1549.52 1781.32 1549.52 Q1779.14 1549.52 1776.88 1549.15 Q1774.63 1548.78 1772.22 1548.04 L1772.22 1543.34 Q1774.31 1544.47 1776.53 1545.03 Q1778.75 1545.58 1781.23 1545.58 Q1785.23 1545.58 1787.57 1543.48 Q1789.91 1541.37 1789.91 1537.76 Q1789.91 1534.15 1787.57 1532.04 Q1785.23 1529.94 1781.23 1529.94 Q1779.35 1529.94 1777.48 1530.35 Q1775.63 1530.77 1773.68 1531.65 L1773.68 1514.29 Z" fill="#000000" fill-rule="nonzero" fill-opacity="1" /><path clip-path="url(#clip010)" d="M2249.76 1544.91 L2257.4 1544.91 L2257.4 1518.55 L2249.09 1520.21 L2249.09 1515.95 L2257.35 1514.29 L2262.03 1514.29 L2262.03 1544.91 L2269.66 1544.91 L2269.66 1548.85 L2249.76 1548.85 L2249.76 1544.91 Z" fill="#000000" fill-rule="nonzero" fill-opacity="1" /><path clip-path="url(#clip010)" d="M2289.11 1517.37 Q2285.5 1517.37 2283.67 1520.93 Q2281.86 1524.47 2281.86 1531.6 Q2281.86 1538.71 2283.67 1542.27 Q2285.5 1545.82 2289.11 1545.82 Q2292.74 1545.82 2294.55 1542.27 Q2296.38 1538.71 2296.38 1531.6 Q2296.38 1524.47 2294.55 1520.93 Q2292.74 1517.37 2289.11 1517.37 M2289.11 1513.66 Q2294.92 1513.66 2297.97 1518.27 Q2301.05 1522.85 2301.05 1531.6 Q2301.05 1540.33 2297.97 1544.94 Q2294.92 1549.52 2289.11 1549.52 Q2283.3 1549.52 2280.22 1544.94 Q2277.16 1540.33 2277.16 1531.6 Q2277.16 1522.85 2280.22 1518.27 Q2283.3 1513.66 2289.11 1513.66 Z" fill="#000000" fill-rule="nonzero" fill-opacity="1" /><path clip-path="url(#clip010)" d="M2319.27 1517.37 Q2315.66 1517.37 2313.83 1520.93 Q2312.03 1524.47 2312.03 1531.6 Q2312.03 1538.71 2313.83 1542.27 Q2315.66 1545.82 2319.27 1545.82 Q2322.9 1545.82 2324.71 1542.27 Q2326.54 1538.71 2326.54 1531.6 Q2326.54 1524.47 2324.71 1520.93 Q2322.9 1517.37 2319.27 1517.37 M2319.27 1513.66 Q2325.08 1513.66 2328.14 1518.27 Q2331.22 1522.85 2331.22 1531.6 Q2331.22 1540.33 2328.14 1544.94 Q2325.08 1549.52 2319.27 1549.52 Q2313.46 1549.52 2310.38 1544.94 Q2307.33 1540.33 2307.33 1531.6 Q2307.33 1522.85 2310.38 1518.27 Q2313.46 1513.66 2319.27 1513.66 Z" fill="#000000" fill-rule="nonzero" fill-opacity="1" /><polyline clip-path="url(#clip010)" style="stroke:#000000; stroke-linecap:round; stroke-linejoin:round; stroke-width:4; stroke-opacity:1; fill:none" points="140.696,1486.45 140.696,47.2441 "/>
<polyline clip-path="url(#clip010)" style="stroke:#000000; stroke-linecap:round; stroke-linejoin:round; stroke-width:4; stroke-opacity:1; fill:none" points="140.696,1426.91 159.593,1426.91 "/>
<polyline clip-path="url(#clip010)" style="stroke:#000000; stroke-linecap:round; stroke-linejoin:round; stroke-width:4; stroke-opacity:1; fill:none" points="140.696,1125.28 159.593,1125.28 "/>
<polyline clip-path="url(#clip010)" style="stroke:#000000; stroke-linecap:round; stroke-linejoin:round; stroke-width:4; stroke-opacity:1; fill:none" points="140.696,823.658 159.593,823.658 "/>
<polyline clip-path="url(#clip010)" style="stroke:#000000; stroke-linecap:round; stroke-linejoin:round; stroke-width:4; stroke-opacity:1; fill:none" points="140.696,522.033 159.593,522.033 "/>
<polyline clip-path="url(#clip010)" style="stroke:#000000; stroke-linecap:round; stroke-linejoin:round; stroke-width:4; stroke-opacity:1; fill:none" points="140.696,220.408 159.593,220.408 "/>
<path clip-path="url(#clip010)" d="M92.7512 1412.71 Q89.1401 1412.71 87.3114 1416.27 Q85.5058 1419.81 85.5058 1426.94 Q85.5058 1434.05 87.3114 1437.61 Q89.1401 1441.16 92.7512 1441.16 Q96.3854 1441.16 98.1909 1437.61 Q100.02 1434.05 100.02 1426.94 Q100.02 1419.81 98.1909 1416.27 Q96.3854 1412.71 92.7512 1412.71 M92.7512 1409 Q98.5613 1409 101.617 1413.61 Q104.696 1418.19 104.696 1426.94 Q104.696 1435.67 101.617 1440.28 Q98.5613 1444.86 92.7512 1444.86 Q86.941 1444.86 83.8623 1440.28 Q80.8068 1435.67 80.8068 1426.94 Q80.8068 1418.19 83.8623 1413.61 Q86.941 1409 92.7512 1409 Z" fill="#000000" fill-rule="nonzero" fill-opacity="1" /><path clip-path="url(#clip010)" d="M83.7929 1108 L102.149 1108 L102.149 1111.94 L88.0753 1111.94 L88.0753 1120.41 Q89.0938 1120.06 90.1123 1119.9 Q91.1308 1119.72 92.1493 1119.72 Q97.9363 1119.72 101.316 1122.89 Q104.696 1126.06 104.696 1131.48 Q104.696 1137.05 101.223 1140.16 Q97.7511 1143.23 91.4317 1143.23 Q89.2558 1143.23 86.9873 1142.86 Q84.7419 1142.49 82.3346 1141.75 L82.3346 1137.05 Q84.4179 1138.19 86.6401 1138.74 Q88.8623 1139.3 91.3391 1139.3 Q95.3437 1139.3 97.6817 1137.19 Q100.02 1135.09 100.02 1131.48 Q100.02 1127.86 97.6817 1125.76 Q95.3437 1123.65 91.3391 1123.65 Q89.4641 1123.65 87.5892 1124.07 Q85.7373 1124.48 83.7929 1125.36 L83.7929 1108 Z" fill="#000000" fill-rule="nonzero" fill-opacity="1" /><path clip-path="url(#clip010)" d="M53.3995 837.003 L61.0384 837.003 L61.0384 810.637 L52.7282 812.304 L52.7282 808.045 L60.9921 806.378 L65.668 806.378 L65.668 837.003 L73.3068 837.003 L73.3068 840.938 L53.3995 840.938 L53.3995 837.003 Z" fill="#000000" fill-rule="nonzero" fill-opacity="1" /><path clip-path="url(#clip010)" d="M92.7512 809.457 Q89.1401 809.457 87.3114 813.022 Q85.5058 816.563 85.5058 823.693 Q85.5058 830.799 87.3114 834.364 Q89.1401 837.906 92.7512 837.906 Q96.3854 837.906 98.1909 834.364 Q100.02 830.799 100.02 823.693 Q100.02 816.563 98.1909 813.022 Q96.3854 809.457 92.7512 809.457 M92.7512 805.753 Q98.5613 805.753 101.617 810.36 Q104.696 814.943 104.696 823.693 Q104.696 832.42 101.617 837.026 Q98.5613 841.61 92.7512 841.61 Q86.941 841.61 83.8623 837.026 Q80.8068 832.42 80.8068 823.693 Q80.8068 814.943 83.8623 810.36 Q86.941 805.753 92.7512 805.753 Z" fill="#000000" fill-rule="nonzero" fill-opacity="1" /><path clip-path="url(#clip010)" d="M54.3949 535.378 L62.0337 535.378 L62.0337 509.012 L53.7236 510.679 L53.7236 506.42 L61.9874 504.753 L66.6633 504.753 L66.6633 535.378 L74.3022 535.378 L74.3022 539.313 L54.3949 539.313 L54.3949 535.378 Z" fill="#000000" fill-rule="nonzero" fill-opacity="1" /><path clip-path="url(#clip010)" d="M83.7929 504.753 L102.149 504.753 L102.149 508.688 L88.0753 508.688 L88.0753 517.16 Q89.0938 516.813 90.1123 516.651 Q91.1308 516.466 92.1493 516.466 Q97.9363 516.466 101.316 519.637 Q104.696 522.808 104.696 528.225 Q104.696 533.804 101.223 536.906 Q97.7511 539.984 91.4317 539.984 Q89.2558 539.984 86.9873 539.614 Q84.7419 539.244 82.3346 538.503 L82.3346 533.804 Q84.4179 534.938 86.6401 535.494 Q88.8623 536.049 91.3391 536.049 Q95.3437 536.049 97.6817 533.943 Q100.02 531.836 100.02 528.225 Q100.02 524.614 97.6817 522.508 Q95.3437 520.401 91.3391 520.401 Q89.4641 520.401 87.5892 520.818 Q85.7373 521.234 83.7929 522.114 L83.7929 504.753 Z" fill="#000000" fill-rule="nonzero" fill-opacity="1" /><path clip-path="url(#clip010)" d="M56.6171 233.753 L72.9365 233.753 L72.9365 237.688 L50.9921 237.688 L50.9921 233.753 Q53.6541 230.998 58.2375 226.368 Q62.8439 221.716 64.0245 220.373 Q66.2698 217.85 67.1494 216.114 Q68.0522 214.355 68.0522 212.665 Q68.0522 209.91 66.1078 208.174 Q64.1865 206.438 61.0847 206.438 Q58.8856 206.438 56.4319 207.202 Q54.0014 207.966 51.2236 209.517 L51.2236 204.794 Q54.0477 203.66 56.5014 203.082 Q58.955 202.503 60.9921 202.503 Q66.3624 202.503 69.5568 205.188 Q72.7513 207.873 72.7513 212.364 Q72.7513 214.493 71.9411 216.415 Q71.1541 218.313 69.0476 220.905 Q68.4689 221.577 65.367 224.794 Q62.2652 227.989 56.6171 233.753 Z" fill="#000000" fill-rule="nonzero" fill-opacity="1" /><path clip-path="url(#clip010)" d="M92.7512 206.206 Q89.1401 206.206 87.3114 209.771 Q85.5058 213.313 85.5058 220.443 Q85.5058 227.549 87.3114 231.114 Q89.1401 234.655 92.7512 234.655 Q96.3854 234.655 98.1909 231.114 Q100.02 227.549 100.02 220.443 Q100.02 213.313 98.1909 209.771 Q96.3854 206.206 92.7512 206.206 M92.7512 202.503 Q98.5613 202.503 101.617 207.109 Q104.696 211.693 104.696 220.443 Q104.696 229.169 101.617 233.776 Q98.5613 238.359 92.7512 238.359 Q86.941 238.359 83.8623 233.776 Q80.8068 229.169 80.8068 220.443 Q80.8068 211.693 83.8623 207.109 Q86.941 202.503 92.7512 202.503 Z" fill="#000000" fill-rule="nonzero" fill-opacity="1" /><polyline clip-path="url(#clip012)" style="stroke:#009af9; stroke-linecap:round; stroke-linejoin:round; stroke-width:4; stroke-opacity:1; fill:none" points="203.301,1405.62 213.735,1404.36 224.17,1409.01 234.604,1430.78 245.038,1404.52 255.472,1417.11 265.907,1389.95 276.341,1417.74 286.775,1388.29 297.209,1436.7 307.643,1396.58 318.078,1430.61 328.512,1368.84 338.946,1423.58 349.38,1352.15 359.815,1350.56 370.249,1410.96 380.683,1353.62 391.117,1373.71 401.552,1379.61 411.986,1387.45 422.42,1371.13 432.854,1306.72 443.289,1337.51 453.723,1383.57 464.157,1356.38 474.591,1375.57 485.026,1364.87 495.46,1365.44 505.894,1359.87 516.328,1306.2 526.763,1333.4 537.197,1379.46 547.631,1351.79 558.065,1332.21 568.5,1359.3 578.934,1323.59 589.368,1334.59 599.802,1265.48 610.237,1317.43 620.671,1363.94 631.105,1339.66 641.539,1340.2 651.974,1310.53 662.408,1313 672.842,1318.44 683.276,1327.93 693.711,1312.55 704.145,1318.41 714.579,1303.4 725.013,1301.54 735.448,1289.25 745.882,1264.65 756.316,1330.69 766.75,1299.87 777.185,1296.22 787.619,1309.38 798.053,1295.28 808.487,1269.48 818.922,1219.6 829.356,1239.54 839.79,1237.46 850.224,1174.45 860.659,1150.49 871.093,1186.02 881.527,1175.7 891.961,1130.84 902.396,1116.75 912.83,1055.46 923.264,1001.22 933.698,889.202 944.133,933.144 954.567,876 965.001,793.355 975.435,802.555 985.87,780.531 996.304,708.728 1006.74,685.473 1017.17,642.883 1027.61,617.724 1038.04,601.822 1048.48,623.826 1058.91,632.896 1069.34,649.944 1079.78,679.425 1090.21,668.682 1100.65,718.835 1111.08,807.431 1121.51,815.109 1131.95,868.932 1142.38,895.749 1152.82,956.664 1163.25,1111.23 1173.69,1044.85 1184.12,1026.01 1194.55,1084.85 1204.99,1106.92 1215.42,1130.68 1225.86,1151.12 1236.29,1120.4 1246.73,1160.65 1257.16,1130.19 1267.59,1120.59 1278.03,1107.28 1288.46,1175.95 1298.9,1164.82 1309.33,1163.25 1319.77,1153.59 1330.2,1152.44 1340.63,1138.18 1351.07,1142.94 1361.5,1153.91 1371.94,1123.26 1382.37,1134.18 1392.81,1104.13 1403.24,1143.94 1413.67,1139.99 1424.11,1170.7 1434.54,1091.63 1444.98,1175.71 1455.41,1180.57 1465.84,1109.52 1476.28,1146.63 1486.71,1102.13 1497.15,1092.77 1507.58,1126.05 1518.02,1129.02 1528.45,1180.62 1538.88,1134.02 1549.32,1073.91 1559.75,1140.25 1570.19,1098.43 1580.62,1113 1591.06,1115.75 1601.49,1126.33 1611.92,1090.02 1622.36,1123.99 1632.79,1095.84 1643.23,1116.33 1653.66,1095.04 1664.1,1090.79 1674.53,1135.55 1684.96,1097.27 1695.4,1083.76 1705.83,1088.5 1716.27,1120.82 1726.7,1059.44 1737.14,1020.39 1747.57,1030.08 1758,1094.21 1768.44,1061.06 1778.87,1034.56 1789.31,1044.64 1799.74,1088.76 1810.18,1106.47 1820.61,1054.38 1831.04,1042.51 1841.48,1049.08 1851.91,981.933 1862.35,1051.97 1872.78,1056.45 1883.21,1055.07 1893.65,1008.53 1904.08,1023.88 1914.52,1007.05 1924.95,1056.47 1935.39,1031.94 1945.82,1019.99 1956.25,1021.91 1966.69,1006.35 1977.12,1024.47 1987.56,1027.13 1997.99,1016.21 2008.43,996.98 2018.86,991.893 2029.29,1009.87 2039.73,995.077 2050.16,1026.03 2060.6,1016.18 2071.03,999.195 2081.47,1001.35 2091.9,999.229 2102.33,979.454 2112.77,959.2 2123.2,987.324 2133.64,985.067 2144.07,968.476 2154.51,987.231 2164.94,1002.15 2175.37,942.843 2185.81,992.059 2196.24,981.364 2206.68,939.15 2217.11,925.741 2227.54,928.547 2237.98,935.44 2248.41,964.23 2258.85,952.295 2269.28,940.724 2279.72,937.112 2290.15,932.38 "/>
<polyline clip-path="url(#clip012)" style="stroke:#e26f46; stroke-linecap:round; stroke-linejoin:round; stroke-width:4; stroke-opacity:1; fill:none" points="203.301,1437.39 213.735,1445.72 224.17,1415.36 234.604,1436.01 245.038,1440.38 255.472,1432.46 265.907,1443.66 276.341,1436.7 286.775,1431.86 297.209,1444.29 307.643,1424.73 318.078,1402.65 328.512,1426.88 338.946,1416.2 349.38,1412.39 359.815,1419.4 370.249,1417.79 380.683,1419.79 391.117,1427.09 401.552,1410.25 411.986,1395.79 422.42,1405.6 432.854,1409.87 443.289,1417.46 453.723,1424.16 464.157,1396.78 474.591,1402.33 485.026,1420.99 495.46,1367.07 505.894,1378.25 516.328,1401.27 526.763,1387.52 537.197,1416.04 547.631,1385.18 558.065,1388.36 568.5,1394.85 578.934,1395.56 589.368,1403.33 599.802,1396.87 610.237,1391.09 620.671,1422.82 631.105,1397.99 641.539,1403.95 651.974,1387.33 662.408,1383.77 672.842,1379.69 683.276,1384.43 693.711,1367.74 704.145,1360.04 714.579,1389.66 725.013,1366.76 735.448,1385.02 745.882,1365.22 756.316,1368.94 766.75,1384.6 777.185,1362.4 787.619,1317.78 798.053,1375.67 808.487,1366.67 818.922,1386.42 829.356,1408.38 839.79,1379.07 850.224,1390.07 860.659,1376.15 871.093,1364.13 881.527,1397.89 891.961,1357.93 902.396,1328.57 912.83,1371.36 923.264,1357.55 933.698,1369.92 944.133,1379.18 954.567,1346.63 965.001,1356.77 975.435,1353.68 985.87,1331.27 996.304,1311.25 1006.74,1331.74 1017.17,1320.28 1027.61,1329.81 1038.04,1290.12 1048.48,1299.46 1058.91,1314 1069.34,1280.51 1079.78,1271.89 1090.21,1288.45 1100.65,1256.63 1111.08,1230.07 1121.51,1194.64 1131.95,1216.86 1142.38,1168.38 1152.82,1177.25 1163.25,1112.92 1173.69,1085.8 1184.12,1040.54 1194.55,1033.26 1204.99,987.038 1215.42,968.641 1225.86,898.357 1236.29,859.478 1246.73,798.726 1257.16,785.069 1267.59,727.79 1278.03,667.172 1288.46,622.284 1298.9,594.554 1309.33,526.367 1319.77,466.096 1330.2,437.099 1340.63,414.984 1351.07,336.957 1361.5,279.948 1371.94,297.441 1382.37,233.857 1392.81,207.837 1403.24,157.851 1413.67,170.957 1424.11,151.502 1434.54,110.197 1444.98,114.109 1455.41,105.868 1465.84,87.9763 1476.28,126.183 1486.71,161.738 1497.15,173.085 1507.58,163.245 1518.02,182.417 1528.45,200.375 1538.88,257.574 1549.32,285.232 1559.75,338.19 1570.19,369.965 1580.62,434.202 1591.06,464.938 1601.49,532.544 1611.92,547.099 1622.36,632.805 1632.79,669.567 1643.23,685.151 1653.66,733.162 1664.1,778.307 1674.53,815.582 1684.96,879.112 1695.4,925.435 1705.83,940.818 1716.27,952.938 1726.7,1020.7 1737.14,1034.51 1747.57,1075.54 1758,1073.26 1768.44,1113.56 1778.87,1143.73 1789.31,1138.14 1799.74,1160.57 1810.18,1181.22 1820.61,1247.5 1831.04,1226.6 1841.48,1224.99 1851.91,1198.62 1862.35,1239.95 1872.78,1245.72 1883.21,1245.98 1893.65,1273.26 1904.08,1264.77 1914.52,1265.29 1924.95,1254.12 1935.39,1275.23 1945.82,1255.81 1956.25,1242.44 1966.69,1270.34 1977.12,1256.28 1987.56,1222.28 1997.99,1282.7 2008.43,1261.56 2018.86,1289.1 2029.29,1268.6 2039.73,1254.25 2050.16,1228.16 2060.6,1259.52 2071.03,1258.44 2081.47,1223.46 2091.9,1260.92 2102.33,1275.05 2112.77,1256.29 2123.2,1248.07 2133.64,1288.04 2144.07,1256.01 2154.51,1224.46 2164.94,1274.5 2175.37,1273.19 2185.81,1235.98 2196.24,1275.61 2206.68,1250.12 2217.11,1240.47 2227.54,1226.95 2237.98,1256.83 2248.41,1260.57 2258.85,1247.02 2269.28,1229.97 2279.72,1266.92 2290.15,1247.91 "/>
<polyline clip-path="url(#clip012)" style="stroke:#3da44d; stroke-linecap:round; stroke-linejoin:round; stroke-width:4; stroke-opacity:1; fill:none" points="203.301,1405.85 213.735,1408.67 224.17,1410.76 234.604,1412.13 245.038,1412.78 255.472,1412.74 265.907,1412.06 276.341,1410.73 286.775,1408.77 297.209,1406.15 307.643,1402.87 318.078,1399.02 328.512,1394.72 338.946,1390.17 349.38,1385.57 359.815,1381.15 370.249,1377.02 380.683,1373.27 391.117,1369.92 401.552,1366.99 411.986,1364.48 422.42,1362.4 432.854,1360.78 443.289,1359.6 453.723,1358.72 464.157,1357.93 474.591,1357.02 485.026,1355.84 495.46,1354.3 505.894,1352.4 516.328,1350.18 526.763,1347.73 537.197,1345.07 547.631,1342.23 558.065,1339.29 568.5,1336.37 578.934,1333.61 589.368,1331.17 599.802,1329.13 610.237,1327.5 620.671,1326.13 631.105,1324.83 641.539,1323.43 651.974,1321.86 662.408,1320.11 672.842,1318.17 683.276,1316.09 693.711,1313.9 704.145,1311.67 714.579,1309.44 725.013,1307.22 735.448,1304.96 745.882,1302.52 756.316,1299.64 766.75,1295.98 777.185,1291.23 787.619,1285.1 798.053,1277.39 808.487,1267.98 818.922,1256.79 829.356,1243.75 839.79,1228.69 850.224,1211.34 860.659,1191.37 871.093,1168.36 881.527,1141.89 891.961,1111.65 902.396,1077.6 912.83,1039.99 923.264,999.393 933.698,956.592 944.133,912.515 954.567,868.11 965.001,824.38 975.435,782.37 985.87,743.137 996.304,707.79 1006.74,677.479 1017.17,653.314 1027.61,636.285 1038.04,627.157 1048.48,626.393 1058.91,634.117 1069.34,650.117 1079.78,673.865 1090.21,704.534 1100.65,741.017 1111.08,781.931 1121.51,825.701 1131.95,870.681 1142.38,915.229 1152.82,957.799 1163.25,997.043 1173.69,1031.95 1184.12,1061.96 1194.55,1086.93 1204.99,1106.95 1215.42,1122.35 1225.86,1133.61 1236.29,1141.38 1246.73,1146.36 1257.16,1149.25 1267.59,1150.69 1278.03,1151.15 1288.46,1150.95 1298.9,1150.22 1309.33,1149.05 1319.77,1147.51 1330.2,1145.71 1340.63,1143.81 1351.07,1141.97 1361.5,1140.34 1371.94,1139.04 1382.37,1138.19 1392.81,1137.78 1403.24,1137.73 1413.67,1137.87 1424.11,1137.96 1434.54,1137.81 1444.98,1137.28 1455.41,1136.28 1465.84,1134.83 1476.28,1133.09 1486.71,1131.21 1497.15,1129.35 1507.58,1127.57 1518.02,1125.82 1528.45,1124.05 1538.88,1122.21 1549.32,1120.35 1559.75,1118.58 1570.19,1116.95 1580.62,1115.49 1591.06,1114.19 1601.49,1112.98 1611.92,1111.78 1622.36,1110.49 1632.79,1108.99 1643.23,1107.13 1653.66,1104.79 1664.1,1101.86 1674.53,1098.27 1684.96,1094.01 1695.4,1089.21 1705.83,1084.07 1716.27,1078.85 1726.7,1073.87 1737.14,1069.45 1747.57,1065.82 1758,1063.01 1768.44,1060.9 1778.87,1059.28 1789.31,1057.87 1799.74,1056.37 1810.18,1054.53 1820.61,1052.21 1831.04,1049.48 1841.48,1046.48 1851.91,1043.4 1862.35,1040.42 1872.78,1037.58 1883.21,1034.93 1893.65,1032.48 1904.08,1030.26 1914.52,1028.24 1924.95,1026.36 1935.39,1024.53 1945.82,1022.69 1956.25,1020.82 1966.69,1018.92 1977.12,1017 1987.56,1015.08 1997.99,1013.17 2008.43,1011.31 2018.86,1009.51 2029.29,1007.75 2039.73,1005.94 2050.16,1003.99 2060.6,1001.79 2071.03,999.329 2081.47,996.628 2091.9,993.768 2102.33,990.843 2112.77,987.932 2123.2,985.059 2133.64,982.164 2144.07,979.148 2154.51,975.903 2164.94,972.337 2175.37,968.426 2185.81,964.237 2196.24,959.892 2206.68,955.591 2217.11,951.565 2227.54,947.999 2237.98,944.978 2248.41,942.492 2258.85,940.479 2269.28,938.886 2279.72,937.682 2290.15,936.86 "/>
<polyline clip-path="url(#clip012)" style="stroke:#c271d2; stroke-linecap:round; stroke-linejoin:round; stroke-width:4; stroke-opacity:1; fill:none" points="203.301,1437.06 213.735,1436.87 224.17,1436.51 234.604,1435.96 245.038,1435.22 255.472,1434.3 265.907,1433.19 276.341,1431.91 286.775,1430.47 297.209,1428.9 307.643,1427.23 318.078,1425.5 328.512,1423.76 338.946,1422.01 349.38,1420.29 359.815,1418.59 370.249,1416.91 380.683,1415.25 391.117,1413.61 401.552,1411.97 411.986,1410.33 422.42,1408.72 432.854,1407.11 443.289,1405.54 453.723,1404.01 464.157,1402.55 474.591,1401.2 485.026,1399.99 495.46,1398.97 505.894,1398.17 516.328,1397.59 526.763,1397.21 537.197,1397.01 547.631,1396.93 558.065,1396.91 568.5,1396.89 578.934,1396.77 589.368,1396.5 599.802,1395.99 610.237,1395.2 620.671,1394.07 631.105,1392.62 641.539,1390.85 651.974,1388.81 662.408,1386.57 672.842,1384.23 683.276,1381.87 693.711,1379.58 704.145,1377.46 714.579,1375.57 725.013,1373.98 735.448,1372.71 745.882,1371.79 756.316,1371.25 766.75,1371.05 777.185,1371.18 787.619,1371.59 798.053,1372.19 808.487,1372.87 818.922,1373.53 829.356,1374.03 839.79,1374.28 850.224,1374.19 860.659,1373.72 871.093,1372.85 881.527,1371.58 891.961,1369.92 902.396,1367.91 912.83,1365.57 923.264,1362.92 933.698,1359.96 944.133,1356.72 954.567,1353.19 965.001,1349.38 975.435,1345.31 985.87,1340.98 996.304,1336.35 1006.74,1331.4 1017.17,1326.04 1027.61,1320.17 1038.04,1313.66 1048.48,1306.36 1058.91,1298.08 1069.34,1288.63 1079.78,1277.81 1090.21,1265.43 1100.65,1251.28 1111.08,1235.19 1121.51,1217 1131.95,1196.58 1142.38,1173.82 1152.82,1148.62 1163.25,1120.94 1173.69,1090.76 1184.12,1058.12 1194.55,1023.06 1204.99,985.661 1215.42,946.06 1225.86,904.411 1236.29,860.918 1246.73,815.816 1257.16,769.371 1267.59,721.877 1278.03,673.657 1288.46,625.06 1298.9,576.458 1309.33,528.241 1319.77,480.815 1330.2,434.597 1340.63,390.006 1351.07,347.462 1361.5,307.38 1371.94,270.162 1382.37,236.189 1392.81,205.82 1403.24,179.385 1413.67,157.181 1424.11,139.46 1434.54,126.43 1444.98,118.252 1455.41,115.027 1465.84,116.795 1476.28,123.534 1486.71,135.156 1497.15,151.52 1507.58,172.441 1518.02,197.687 1528.45,226.977 1538.88,259.974 1549.32,296.289 1559.75,335.487 1570.19,377.102 1580.62,420.647 1591.06,465.631 1601.49,511.572 1611.92,558.008 1622.36,604.511 1632.79,650.687 1643.23,696.191 1653.66,740.719 1664.1,784.006 1674.53,825.82 1684.96,865.963 1695.4,904.27 1705.83,940.615 1716.27,974.909 1726.7,1007.09 1737.14,1037.14 1747.57,1065.03 1758,1090.78 1768.44,1114.41 1778.87,1135.98 1789.31,1155.51 1799.74,1173.07 1810.18,1188.71 1820.61,1202.5 1831.04,1214.51 1841.48,1224.86 1851.91,1233.65 1862.35,1241 1872.78,1247.04 1883.21,1251.87 1893.65,1255.62 1904.08,1258.4 1914.52,1260.34 1924.95,1261.56 1935.39,1262.2 1945.82,1262.37 1956.25,1262.2 1966.69,1261.78 1977.12,1261.21 1987.56,1260.56 1997.99,1259.87 2008.43,1259.18 2018.86,1258.5 2029.29,1257.88 2039.73,1257.33 2050.16,1256.89 2060.6,1256.58 2071.03,1256.4 2081.47,1256.34 2091.9,1256.36 2102.33,1256.43 2112.77,1256.5 2123.2,1256.51 2133.64,1256.43 2144.07,1256.24 2154.51,1255.91 2164.94,1255.45 2175.37,1254.86 2185.81,1254.16 2196.24,1253.39 2206.68,1252.57 2217.11,1251.75 2227.54,1250.97 2237.98,1250.27 2248.41,1249.66 2258.85,1249.17 2269.28,1248.79 2279.72,1248.54 2290.15,1248.42 "/>
<path clip-path="url(#clip010)" d="M1782.75 354.418 L2279.02 354.418 L2279.02 95.2176 L1782.75 95.2176  Z" fill="#ffffff" fill-rule="evenodd" fill-opacity="1"/>
<polyline clip-path="url(#clip010)" style="stroke:#000000; stroke-linecap:round; stroke-linejoin:round; stroke-width:4; stroke-opacity:1; fill:none" points="1782.75,354.418 2279.02,354.418 2279.02,95.2176 1782.75,95.2176 1782.75,354.418 "/>
<polyline clip-path="url(#clip010)" style="stroke:#009af9; stroke-linecap:round; stroke-linejoin:round; stroke-width:4; stroke-opacity:1; fill:none" points="1807.33,147.058 1954.8,147.058 "/>
<path clip-path="url(#clip010)" d="M1993.22 166.745 Q1991.41 171.375 1989.7 172.787 Q1987.99 174.199 1985.11 174.199 L1981.71 174.199 L1981.71 170.634 L1984.21 170.634 Q1985.97 170.634 1986.94 169.8 Q1987.92 168.967 1989.1 165.865 L1989.86 163.921 L1979.37 138.412 L1983.89 138.412 L1991.99 158.689 L2000.09 138.412 L2004.61 138.412 L1993.22 166.745 Z" fill="#000000" fill-rule="nonzero" fill-opacity="1" /><path clip-path="url(#clip010)" d="M2011.9 160.402 L2019.54 160.402 L2019.54 134.037 L2011.23 135.703 L2011.23 131.444 L2019.49 129.778 L2024.17 129.778 L2024.17 160.402 L2031.8 160.402 L2031.8 164.338 L2011.9 164.338 L2011.9 160.402 Z" fill="#000000" fill-rule="nonzero" fill-opacity="1" /><polyline clip-path="url(#clip010)" style="stroke:#e26f46; stroke-linecap:round; stroke-linejoin:round; stroke-width:4; stroke-opacity:1; fill:none" points="1807.33,198.898 1954.8,198.898 "/>
<path clip-path="url(#clip010)" d="M1993.22 218.585 Q1991.41 223.215 1989.7 224.627 Q1987.99 226.039 1985.11 226.039 L1981.71 226.039 L1981.71 222.474 L1984.21 222.474 Q1985.97 222.474 1986.94 221.64 Q1987.92 220.807 1989.1 217.705 L1989.86 215.761 L1979.37 190.252 L1983.89 190.252 L1991.99 210.529 L2000.09 190.252 L2004.61 190.252 L1993.22 218.585 Z" fill="#000000" fill-rule="nonzero" fill-opacity="1" /><path clip-path="url(#clip010)" d="M2015.11 212.242 L2031.43 212.242 L2031.43 216.178 L2009.49 216.178 L2009.49 212.242 Q2012.15 209.488 2016.74 204.858 Q2021.34 200.205 2022.52 198.863 Q2024.77 196.34 2025.65 194.604 Q2026.55 192.844 2026.55 191.155 Q2026.55 188.4 2024.61 186.664 Q2022.68 184.928 2019.58 184.928 Q2017.38 184.928 2014.93 185.692 Q2012.5 186.455 2009.72 188.006 L2009.72 183.284 Q2012.55 182.15 2015 181.571 Q2017.45 180.993 2019.49 180.993 Q2024.86 180.993 2028.05 183.678 Q2031.25 186.363 2031.25 190.854 Q2031.25 192.983 2030.44 194.905 Q2029.65 196.803 2027.55 199.395 Q2026.97 200.067 2023.86 203.284 Q2020.76 206.479 2015.11 212.242 Z" fill="#000000" fill-rule="nonzero" fill-opacity="1" /><polyline clip-path="url(#clip010)" style="stroke:#3da44d; stroke-linecap:round; stroke-linejoin:round; stroke-width:4; stroke-opacity:1; fill:none" points="1807.33,250.738 1954.8,250.738 "/>
<path clip-path="url(#clip010)" d="M1997.8 242.856 L1997.8 246.883 Q1995.99 245.957 1994.05 245.495 Q1992.11 245.032 1990.02 245.032 Q1986.85 245.032 1985.25 246.004 Q1983.68 246.976 1983.68 248.92 Q1983.68 250.402 1984.81 251.258 Q1985.95 252.092 1989.37 252.856 L1990.83 253.18 Q1995.37 254.152 1997.27 255.934 Q1999.19 257.694 1999.19 260.865 Q1999.19 264.476 1996.32 266.582 Q1993.47 268.689 1988.47 268.689 Q1986.39 268.689 1984.12 268.272 Q1981.87 267.879 1979.37 267.068 L1979.37 262.67 Q1981.74 263.897 1984.03 264.522 Q1986.32 265.124 1988.56 265.124 Q1991.57 265.124 1993.19 264.106 Q1994.81 263.064 1994.81 261.189 Q1994.81 259.453 1993.63 258.527 Q1992.48 257.601 1988.52 256.744 L1987.04 256.397 Q1983.08 255.564 1981.32 253.851 Q1979.56 252.115 1979.56 249.106 Q1979.56 245.448 1982.15 243.458 Q1984.74 241.467 1989.51 241.467 Q1991.87 241.467 1993.96 241.814 Q1996.04 242.161 1997.8 242.856 Z" fill="#000000" fill-rule="nonzero" fill-opacity="1" /><path clip-path="url(#clip010)" d="M2026.16 247.069 Q2027.75 244.198 2029.98 242.833 Q2032.2 241.467 2035.21 241.467 Q2039.26 241.467 2041.46 244.314 Q2043.66 247.138 2043.66 252.369 L2043.66 268.018 L2039.37 268.018 L2039.37 252.508 Q2039.37 248.782 2038.05 246.976 Q2036.73 245.17 2034.03 245.17 Q2030.72 245.17 2028.8 247.37 Q2026.87 249.569 2026.87 253.365 L2026.87 268.018 L2022.59 268.018 L2022.59 252.508 Q2022.59 248.758 2021.27 246.976 Q2019.95 245.17 2017.2 245.17 Q2013.93 245.17 2012.01 247.393 Q2010.09 249.592 2010.09 253.365 L2010.09 268.018 L2005.81 268.018 L2005.81 242.092 L2010.09 242.092 L2010.09 246.12 Q2011.55 243.735 2013.59 242.601 Q2015.62 241.467 2018.42 241.467 Q2021.25 241.467 2023.22 242.902 Q2025.21 244.337 2026.16 247.069 Z" fill="#000000" fill-rule="nonzero" fill-opacity="1" /><path clip-path="url(#clip010)" d="M2062.2 245.078 Q2058.77 245.078 2056.78 247.763 Q2054.79 250.425 2054.79 255.078 Q2054.79 259.731 2056.76 262.416 Q2058.75 265.078 2062.2 265.078 Q2065.6 265.078 2067.59 262.393 Q2069.58 259.707 2069.58 255.078 Q2069.58 250.471 2067.59 247.786 Q2065.6 245.078 2062.2 245.078 M2062.2 241.467 Q2067.75 241.467 2070.92 245.078 Q2074.1 248.689 2074.1 255.078 Q2074.1 261.444 2070.92 265.078 Q2067.75 268.689 2062.2 268.689 Q2056.62 268.689 2053.45 265.078 Q2050.3 261.444 2050.3 255.078 Q2050.3 248.689 2053.45 245.078 Q2056.62 241.467 2062.2 241.467 Z" fill="#000000" fill-rule="nonzero" fill-opacity="1" /><path clip-path="url(#clip010)" d="M2091.2 245.078 Q2087.78 245.078 2085.79 247.763 Q2083.79 250.425 2083.79 255.078 Q2083.79 259.731 2085.76 262.416 Q2087.75 265.078 2091.2 265.078 Q2094.61 265.078 2096.6 262.393 Q2098.59 259.707 2098.59 255.078 Q2098.59 250.471 2096.6 247.786 Q2094.61 245.078 2091.2 245.078 M2091.2 241.467 Q2096.76 241.467 2099.93 245.078 Q2103.1 248.689 2103.1 255.078 Q2103.1 261.444 2099.93 265.078 Q2096.76 268.689 2091.2 268.689 Q2085.62 268.689 2082.45 265.078 Q2079.3 261.444 2079.3 255.078 Q2079.3 248.689 2082.45 245.078 Q2085.62 241.467 2091.2 241.467 Z" fill="#000000" fill-rule="nonzero" fill-opacity="1" /><path clip-path="url(#clip010)" d="M2114.37 234.731 L2114.37 242.092 L2123.15 242.092 L2123.15 245.402 L2114.37 245.402 L2114.37 259.476 Q2114.37 262.647 2115.23 263.55 Q2116.11 264.453 2118.77 264.453 L2123.15 264.453 L2123.15 268.018 L2118.77 268.018 Q2113.84 268.018 2111.97 266.189 Q2110.09 264.337 2110.09 259.476 L2110.09 245.402 L2106.97 245.402 L2106.97 242.092 L2110.09 242.092 L2110.09 234.731 L2114.37 234.731 Z" fill="#000000" fill-rule="nonzero" fill-opacity="1" /><path clip-path="url(#clip010)" d="M2150.3 252.369 L2150.3 268.018 L2146.04 268.018 L2146.04 252.508 Q2146.04 248.828 2144.6 246.999 Q2143.17 245.17 2140.3 245.17 Q2136.85 245.17 2134.86 247.37 Q2132.87 249.569 2132.87 253.365 L2132.87 268.018 L2128.59 268.018 L2128.59 231.999 L2132.87 231.999 L2132.87 246.12 Q2134.4 243.782 2136.46 242.624 Q2138.54 241.467 2141.25 241.467 Q2145.72 241.467 2148.01 244.245 Q2150.3 246.999 2150.3 252.369 Z" fill="#000000" fill-rule="nonzero" fill-opacity="1" /><path clip-path="url(#clip010)" d="M2180.97 253.99 L2180.97 256.073 L2161.39 256.073 Q2161.66 260.471 2164.03 262.786 Q2166.41 265.078 2170.65 265.078 Q2173.1 265.078 2175.39 264.476 Q2177.71 263.874 2179.97 262.67 L2179.97 266.698 Q2177.68 267.67 2175.28 268.18 Q2172.87 268.689 2170.39 268.689 Q2164.19 268.689 2160.55 265.078 Q2156.94 261.467 2156.94 255.309 Q2156.94 248.944 2160.37 245.217 Q2163.82 241.467 2169.65 241.467 Q2174.88 241.467 2177.91 244.846 Q2180.97 248.203 2180.97 253.99 M2176.71 252.74 Q2176.66 249.245 2174.74 247.161 Q2172.85 245.078 2169.7 245.078 Q2166.13 245.078 2163.98 247.092 Q2161.85 249.106 2161.53 252.763 L2176.71 252.74 Z" fill="#000000" fill-rule="nonzero" fill-opacity="1" /><path clip-path="url(#clip010)" d="M2205.02 246.027 L2205.02 231.999 L2209.28 231.999 L2209.28 268.018 L2205.02 268.018 L2205.02 264.129 Q2203.68 266.443 2201.62 267.578 Q2199.58 268.689 2196.71 268.689 Q2192.01 268.689 2189.05 264.939 Q2186.11 261.189 2186.11 255.078 Q2186.11 248.967 2189.05 245.217 Q2192.01 241.467 2196.71 241.467 Q2199.58 241.467 2201.62 242.601 Q2203.68 243.712 2205.02 246.027 M2190.51 255.078 Q2190.51 259.777 2192.43 262.462 Q2194.37 265.124 2197.75 265.124 Q2201.13 265.124 2203.08 262.462 Q2205.02 259.777 2205.02 255.078 Q2205.02 250.379 2203.08 247.717 Q2201.13 245.032 2197.75 245.032 Q2194.37 245.032 2192.43 247.717 Q2190.51 250.379 2190.51 255.078 Z" fill="#000000" fill-rule="nonzero" fill-opacity="1" /><path clip-path="url(#clip010)" d="M2234.53 264.082 L2242.17 264.082 L2242.17 237.717 L2233.86 239.383 L2233.86 235.124 L2242.13 233.458 L2246.8 233.458 L2246.8 264.082 L2254.44 264.082 L2254.44 268.018 L2234.53 268.018 L2234.53 264.082 Z" fill="#000000" fill-rule="nonzero" fill-opacity="1" /><polyline clip-path="url(#clip010)" style="stroke:#c271d2; stroke-linecap:round; stroke-linejoin:round; stroke-width:4; stroke-opacity:1; fill:none" points="1807.33,302.578 1954.8,302.578 "/>
<path clip-path="url(#clip010)" d="M1997.8 294.696 L1997.8 298.723 Q1995.99 297.797 1994.05 297.335 Q1992.11 296.872 1990.02 296.872 Q1986.85 296.872 1985.25 297.844 Q1983.68 298.816 1983.68 300.76 Q1983.68 302.242 1984.81 303.098 Q1985.95 303.932 1989.37 304.696 L1990.83 305.02 Q1995.37 305.992 1997.27 307.774 Q1999.19 309.534 1999.19 312.705 Q1999.19 316.316 1996.32 318.422 Q1993.47 320.529 1988.47 320.529 Q1986.39 320.529 1984.12 320.112 Q1981.87 319.719 1979.37 318.908 L1979.37 314.51 Q1981.74 315.737 1984.03 316.362 Q1986.32 316.964 1988.56 316.964 Q1991.57 316.964 1993.19 315.946 Q1994.81 314.904 1994.81 313.029 Q1994.81 311.293 1993.63 310.367 Q1992.48 309.441 1988.52 308.584 L1987.04 308.237 Q1983.08 307.404 1981.32 305.691 Q1979.56 303.955 1979.56 300.946 Q1979.56 297.288 1982.15 295.298 Q1984.74 293.307 1989.51 293.307 Q1991.87 293.307 1993.96 293.654 Q1996.04 294.001 1997.8 294.696 Z" fill="#000000" fill-rule="nonzero" fill-opacity="1" /><path clip-path="url(#clip010)" d="M2026.16 298.909 Q2027.75 296.038 2029.98 294.673 Q2032.2 293.307 2035.21 293.307 Q2039.26 293.307 2041.46 296.154 Q2043.66 298.978 2043.66 304.209 L2043.66 319.858 L2039.37 319.858 L2039.37 304.348 Q2039.37 300.622 2038.05 298.816 Q2036.73 297.01 2034.03 297.01 Q2030.72 297.01 2028.8 299.21 Q2026.87 301.409 2026.87 305.205 L2026.87 319.858 L2022.59 319.858 L2022.59 304.348 Q2022.59 300.598 2021.27 298.816 Q2019.95 297.01 2017.2 297.01 Q2013.93 297.01 2012.01 299.233 Q2010.09 301.432 2010.09 305.205 L2010.09 319.858 L2005.81 319.858 L2005.81 293.932 L2010.09 293.932 L2010.09 297.96 Q2011.55 295.575 2013.59 294.441 Q2015.62 293.307 2018.42 293.307 Q2021.25 293.307 2023.22 294.742 Q2025.21 296.177 2026.16 298.909 Z" fill="#000000" fill-rule="nonzero" fill-opacity="1" /><path clip-path="url(#clip010)" d="M2062.2 296.918 Q2058.77 296.918 2056.78 299.603 Q2054.79 302.265 2054.79 306.918 Q2054.79 311.571 2056.76 314.256 Q2058.75 316.918 2062.2 316.918 Q2065.6 316.918 2067.59 314.233 Q2069.58 311.547 2069.58 306.918 Q2069.58 302.311 2067.59 299.626 Q2065.6 296.918 2062.2 296.918 M2062.2 293.307 Q2067.75 293.307 2070.92 296.918 Q2074.1 300.529 2074.1 306.918 Q2074.1 313.284 2070.92 316.918 Q2067.75 320.529 2062.2 320.529 Q2056.62 320.529 2053.45 316.918 Q2050.3 313.284 2050.3 306.918 Q2050.3 300.529 2053.45 296.918 Q2056.62 293.307 2062.2 293.307 Z" fill="#000000" fill-rule="nonzero" fill-opacity="1" /><path clip-path="url(#clip010)" d="M2091.2 296.918 Q2087.78 296.918 2085.79 299.603 Q2083.79 302.265 2083.79 306.918 Q2083.79 311.571 2085.76 314.256 Q2087.75 316.918 2091.2 316.918 Q2094.61 316.918 2096.6 314.233 Q2098.59 311.547 2098.59 306.918 Q2098.59 302.311 2096.6 299.626 Q2094.61 296.918 2091.2 296.918 M2091.2 293.307 Q2096.76 293.307 2099.93 296.918 Q2103.1 300.529 2103.1 306.918 Q2103.1 313.284 2099.93 316.918 Q2096.76 320.529 2091.2 320.529 Q2085.62 320.529 2082.45 316.918 Q2079.3 313.284 2079.3 306.918 Q2079.3 300.529 2082.45 296.918 Q2085.62 293.307 2091.2 293.307 Z" fill="#000000" fill-rule="nonzero" fill-opacity="1" /><path clip-path="url(#clip010)" d="M2114.37 286.571 L2114.37 293.932 L2123.15 293.932 L2123.15 297.242 L2114.37 297.242 L2114.37 311.316 Q2114.37 314.487 2115.23 315.39 Q2116.11 316.293 2118.77 316.293 L2123.15 316.293 L2123.15 319.858 L2118.77 319.858 Q2113.84 319.858 2111.97 318.029 Q2110.09 316.177 2110.09 311.316 L2110.09 297.242 L2106.97 297.242 L2106.97 293.932 L2110.09 293.932 L2110.09 286.571 L2114.37 286.571 Z" fill="#000000" fill-rule="nonzero" fill-opacity="1" /><path clip-path="url(#clip010)" d="M2150.3 304.209 L2150.3 319.858 L2146.04 319.858 L2146.04 304.348 Q2146.04 300.668 2144.6 298.839 Q2143.17 297.01 2140.3 297.01 Q2136.85 297.01 2134.86 299.21 Q2132.87 301.409 2132.87 305.205 L2132.87 319.858 L2128.59 319.858 L2128.59 283.839 L2132.87 283.839 L2132.87 297.96 Q2134.4 295.622 2136.46 294.464 Q2138.54 293.307 2141.25 293.307 Q2145.72 293.307 2148.01 296.085 Q2150.3 298.839 2150.3 304.209 Z" fill="#000000" fill-rule="nonzero" fill-opacity="1" /><path clip-path="url(#clip010)" d="M2180.97 305.83 L2180.97 307.913 L2161.39 307.913 Q2161.66 312.311 2164.03 314.626 Q2166.41 316.918 2170.65 316.918 Q2173.1 316.918 2175.39 316.316 Q2177.71 315.714 2179.97 314.51 L2179.97 318.538 Q2177.68 319.51 2175.28 320.02 Q2172.87 320.529 2170.39 320.529 Q2164.19 320.529 2160.55 316.918 Q2156.94 313.307 2156.94 307.149 Q2156.94 300.784 2160.37 297.057 Q2163.82 293.307 2169.65 293.307 Q2174.88 293.307 2177.91 296.686 Q2180.97 300.043 2180.97 305.83 M2176.71 304.58 Q2176.66 301.085 2174.74 299.001 Q2172.85 296.918 2169.7 296.918 Q2166.13 296.918 2163.98 298.932 Q2161.85 300.946 2161.53 304.603 L2176.71 304.58 Z" fill="#000000" fill-rule="nonzero" fill-opacity="1" /><path clip-path="url(#clip010)" d="M2205.02 297.867 L2205.02 283.839 L2209.28 283.839 L2209.28 319.858 L2205.02 319.858 L2205.02 315.969 Q2203.68 318.283 2201.62 319.418 Q2199.58 320.529 2196.71 320.529 Q2192.01 320.529 2189.05 316.779 Q2186.11 313.029 2186.11 306.918 Q2186.11 300.807 2189.05 297.057 Q2192.01 293.307 2196.71 293.307 Q2199.58 293.307 2201.62 294.441 Q2203.68 295.552 2205.02 297.867 M2190.51 306.918 Q2190.51 311.617 2192.43 314.302 Q2194.37 316.964 2197.75 316.964 Q2201.13 316.964 2203.08 314.302 Q2205.02 311.617 2205.02 306.918 Q2205.02 302.219 2203.08 299.557 Q2201.13 296.872 2197.75 296.872 Q2194.37 296.872 2192.43 299.557 Q2190.51 302.219 2190.51 306.918 Z" fill="#000000" fill-rule="nonzero" fill-opacity="1" /><path clip-path="url(#clip010)" d="M2237.75 315.922 L2254.07 315.922 L2254.07 319.858 L2232.13 319.858 L2232.13 315.922 Q2234.79 313.168 2239.37 308.538 Q2243.98 303.885 2245.16 302.543 Q2247.41 300.02 2248.28 298.284 Q2249.19 296.524 2249.19 294.835 Q2249.19 292.08 2247.24 290.344 Q2245.32 288.608 2242.22 288.608 Q2240.02 288.608 2237.57 289.372 Q2235.14 290.135 2232.36 291.686 L2232.36 286.964 Q2235.18 285.83 2237.64 285.251 Q2240.09 284.673 2242.13 284.673 Q2247.5 284.673 2250.69 287.358 Q2253.89 290.043 2253.89 294.534 Q2253.89 296.663 2253.08 298.585 Q2252.29 300.483 2250.18 303.075 Q2249.6 303.747 2246.5 306.964 Q2243.4 310.159 2237.75 315.922 Z" fill="#000000" fill-rule="nonzero" fill-opacity="1" /></svg>
