<?xml version="1.0" encoding="utf-8"?>
<svg xmlns="http://www.w3.org/2000/svg" xmlns:xlink="http://www.w3.org/1999/xlink" width="600" height="400" viewBox="0 0 2400 1600">
<defs>
  <clipPath id="clip040">
    <rect x="0" y="0" width="2400" height="1600"/>
  </clipPath>
</defs>
<path clip-path="url(#clip040)" d="M0 1600 L2400 1600 L2400 0 L0 0  Z" fill="#ffffff" fill-rule="evenodd" fill-opacity="1"/>
<defs>
  <clipPath id="clip041">
    <rect x="480" y="0" width="1681" height="1600"/>
  </clipPath>
</defs>
<path clip-path="url(#clip040)" d="M186.274 1486.45 L2352.76 1486.45 L2352.76 47.2441 L186.274 47.2441  Z" fill="#ffffff" fill-rule="evenodd" fill-opacity="1"/>
<defs>
  <clipPath id="clip042">
    <rect x="186" y="47" width="2167" height="1440"/>
  </clipPath>
</defs>
<polyline clip-path="url(#clip042)" style="stroke:#000000; stroke-linecap:round; stroke-linejoin:round; stroke-width:2; stroke-opacity:0.1; fill:none" points="247.59,1486.45 247.59,47.2441 "/>
<polyline clip-path="url(#clip042)" style="stroke:#000000; stroke-linecap:round; stroke-linejoin:round; stroke-width:2; stroke-opacity:0.1; fill:none" points="758.552,1486.45 758.552,47.2441 "/>
<polyline clip-path="url(#clip042)" style="stroke:#000000; stroke-linecap:round; stroke-linejoin:round; stroke-width:2; stroke-opacity:0.1; fill:none" points="1269.51,1486.45 1269.51,47.2441 "/>
<polyline clip-path="url(#clip042)" style="stroke:#000000; stroke-linecap:round; stroke-linejoin:round; stroke-width:2; stroke-opacity:0.1; fill:none" points="1780.48,1486.45 1780.48,47.2441 "/>
<polyline clip-path="url(#clip042)" style="stroke:#000000; stroke-linecap:round; stroke-linejoin:round; stroke-width:2; stroke-opacity:0.1; fill:none" points="2291.44,1486.45 2291.44,47.2441 "/>
<polyline clip-path="url(#clip042)" style="stroke:#000000; stroke-linecap:round; stroke-linejoin:round; stroke-width:2; stroke-opacity:0.1; fill:none" points="186.274,1426.91 2352.76,1426.91 "/>
<polyline clip-path="url(#clip042)" style="stroke:#000000; stroke-linecap:round; stroke-linejoin:round; stroke-width:2; stroke-opacity:0.1; fill:none" points="186.274,1092.18 2352.76,1092.18 "/>
<polyline clip-path="url(#clip042)" style="stroke:#000000; stroke-linecap:round; stroke-linejoin:round; stroke-width:2; stroke-opacity:0.1; fill:none" points="186.274,757.442 2352.76,757.442 "/>
<polyline clip-path="url(#clip042)" style="stroke:#000000; stroke-linecap:round; stroke-linejoin:round; stroke-width:2; stroke-opacity:0.1; fill:none" points="186.274,422.709 2352.76,422.709 "/>
<polyline clip-path="url(#clip042)" style="stroke:#000000; stroke-linecap:round; stroke-linejoin:round; stroke-width:2; stroke-opacity:0.1; fill:none" points="186.274,87.9763 2352.76,87.9763 "/>
<polyline clip-path="url(#clip040)" style="stroke:#000000; stroke-linecap:round; stroke-linejoin:round; stroke-width:4; stroke-opacity:1; fill:none" points="186.274,1486.45 2352.76,1486.45 "/>
<polyline clip-path="url(#clip040)" style="stroke:#000000; stroke-linecap:round; stroke-linejoin:round; stroke-width:4; stroke-opacity:1; fill:none" points="247.59,1486.45 247.59,1467.55 "/>
<polyline clip-path="url(#clip040)" style="stroke:#000000; stroke-linecap:round; stroke-linejoin:round; stroke-width:4; stroke-opacity:1; fill:none" points="758.552,1486.45 758.552,1467.55 "/>
<polyline clip-path="url(#clip040)" style="stroke:#000000; stroke-linecap:round; stroke-linejoin:round; stroke-width:4; stroke-opacity:1; fill:none" points="1269.51,1486.45 1269.51,1467.55 "/>
<polyline clip-path="url(#clip040)" style="stroke:#000000; stroke-linecap:round; stroke-linejoin:round; stroke-width:4; stroke-opacity:1; fill:none" points="1780.48,1486.45 1780.48,1467.55 "/>
<polyline clip-path="url(#clip040)" style="stroke:#000000; stroke-linecap:round; stroke-linejoin:round; stroke-width:4; stroke-opacity:1; fill:none" points="2291.44,1486.45 2291.44,1467.55 "/>
<path clip-path="url(#clip040)" d="M247.59 1517.37 Q243.978 1517.37 242.15 1520.93 Q240.344 1524.47 240.344 1531.6 Q240.344 1538.71 242.15 1542.27 Q243.978 1545.82 247.59 1545.82 Q251.224 1545.82 253.029 1542.27 Q254.858 1538.71 254.858 1531.6 Q254.858 1524.47 253.029 1520.93 Q251.224 1517.37 247.59 1517.37 M247.59 1513.66 Q253.4 1513.66 256.455 1518.27 Q259.534 1522.85 259.534 1531.6 Q259.534 1540.33 256.455 1544.94 Q253.4 1549.52 247.59 1549.52 Q241.779 1549.52 238.701 1544.94 Q235.645 1540.33 235.645 1531.6 Q235.645 1522.85 238.701 1518.27 Q241.779 1513.66 247.59 1513.66 Z" fill="#000000" fill-rule="nonzero" fill-opacity="1" /><path clip-path="url(#clip040)" d="M737.823 1544.91 L754.143 1544.91 L754.143 1548.85 L732.198 1548.85 L732.198 1544.91 Q734.86 1542.16 739.444 1537.53 Q744.05 1532.88 745.231 1531.53 Q747.476 1529.01 748.356 1527.27 Q749.258 1525.51 749.258 1523.82 Q749.258 1521.07 747.314 1519.33 Q745.393 1517.6 742.291 1517.6 Q740.092 1517.6 737.638 1518.36 Q735.207 1519.13 732.43 1520.68 L732.43 1515.95 Q735.254 1514.82 737.707 1514.24 Q740.161 1513.66 742.198 1513.66 Q747.569 1513.66 750.763 1516.35 Q753.957 1519.03 753.957 1523.52 Q753.957 1525.65 753.147 1527.57 Q752.36 1529.47 750.254 1532.07 Q749.675 1532.74 746.573 1535.95 Q743.471 1539.15 737.823 1544.91 Z" fill="#000000" fill-rule="nonzero" fill-opacity="1" /><path clip-path="url(#clip040)" d="M764.004 1514.29 L782.36 1514.29 L782.36 1518.22 L768.286 1518.22 L768.286 1526.7 Q769.304 1526.35 770.323 1526.19 Q771.342 1526 772.36 1526 Q778.147 1526 781.527 1529.17 Q784.906 1532.34 784.906 1537.76 Q784.906 1543.34 781.434 1546.44 Q777.962 1549.52 771.642 1549.52 Q769.467 1549.52 767.198 1549.15 Q764.953 1548.78 762.545 1548.04 L762.545 1543.34 Q764.629 1544.47 766.851 1545.03 Q769.073 1545.58 771.55 1545.58 Q775.554 1545.58 777.892 1543.48 Q780.23 1541.37 780.23 1537.76 Q780.23 1534.15 777.892 1532.04 Q775.554 1529.94 771.55 1529.94 Q769.675 1529.94 767.8 1530.35 Q765.948 1530.77 764.004 1531.65 L764.004 1514.29 Z" fill="#000000" fill-rule="nonzero" fill-opacity="1" /><path clip-path="url(#clip040)" d="M1244.21 1514.29 L1262.57 1514.29 L1262.57 1518.22 L1248.5 1518.22 L1248.5 1526.7 Q1249.52 1526.35 1250.53 1526.19 Q1251.55 1526 1252.57 1526 Q1258.36 1526 1261.74 1529.17 Q1265.12 1532.34 1265.12 1537.76 Q1265.12 1543.34 1261.64 1546.44 Q1258.17 1549.52 1251.85 1549.52 Q1249.68 1549.52 1247.41 1549.15 Q1245.16 1548.78 1242.76 1548.04 L1242.76 1543.34 Q1244.84 1544.47 1247.06 1545.03 Q1249.28 1545.58 1251.76 1545.58 Q1255.77 1545.58 1258.1 1543.48 Q1260.44 1541.37 1260.44 1537.76 Q1260.44 1534.15 1258.1 1532.04 Q1255.77 1529.94 1251.76 1529.94 Q1249.89 1529.94 1248.01 1530.35 Q1246.16 1530.77 1244.21 1531.65 L1244.21 1514.29 Z" fill="#000000" fill-rule="nonzero" fill-opacity="1" /><path clip-path="url(#clip040)" d="M1284.33 1517.37 Q1280.72 1517.37 1278.89 1520.93 Q1277.08 1524.47 1277.08 1531.6 Q1277.08 1538.71 1278.89 1542.27 Q1280.72 1545.82 1284.33 1545.82 Q1287.96 1545.82 1289.77 1542.27 Q1291.6 1538.71 1291.6 1531.6 Q1291.6 1524.47 1289.77 1520.93 Q1287.96 1517.37 1284.33 1517.37 M1284.33 1513.66 Q1290.14 1513.66 1293.2 1518.27 Q1296.27 1522.85 1296.27 1531.6 Q1296.27 1540.33 1293.2 1544.94 Q1290.14 1549.52 1284.33 1549.52 Q1278.52 1549.52 1275.44 1544.94 Q1272.39 1540.33 1272.39 1531.6 Q1272.39 1522.85 1275.44 1518.27 Q1278.52 1513.66 1284.33 1513.66 Z" fill="#000000" fill-rule="nonzero" fill-opacity="1" /><path clip-path="url(#clip040)" d="M1754.33 1514.29 L1776.55 1514.29 L1776.55 1516.28 L1764.01 1548.85 L1759.12 1548.85 L1770.93 1518.22 L1754.33 1518.22 L1754.33 1514.29 Z" fill="#000000" fill-rule="nonzero" fill-opacity="1" /><path clip-path="url(#clip040)" d="M1785.72 1514.29 L1804.08 1514.29 L1804.08 1518.22 L1790 1518.22 L1790 1526.7 Q1791.02 1526.35 1792.04 1526.19 Q1793.06 1526 1794.08 1526 Q1799.86 1526 1803.24 1529.17 Q1806.62 1532.34 1806.62 1537.76 Q1806.62 1543.34 1803.15 1546.44 Q1799.68 1549.52 1793.36 1549.52 Q1791.18 1549.52 1788.92 1549.15 Q1786.67 1548.78 1784.26 1548.04 L1784.26 1543.34 Q1786.35 1544.47 1788.57 1545.03 Q1790.79 1545.58 1793.27 1545.58 Q1797.27 1545.58 1799.61 1543.48 Q1801.95 1541.37 1801.95 1537.76 Q1801.95 1534.15 1799.61 1532.04 Q1797.27 1529.94 1793.27 1529.94 Q1791.39 1529.94 1789.52 1530.35 Q1787.67 1530.77 1785.72 1531.65 L1785.72 1514.29 Z" fill="#000000" fill-rule="nonzero" fill-opacity="1" /><path clip-path="url(#clip040)" d="M2251.05 1544.91 L2258.69 1544.91 L2258.69 1518.55 L2250.38 1520.21 L2250.38 1515.95 L2258.64 1514.29 L2263.32 1514.29 L2263.32 1544.91 L2270.95 1544.91 L2270.95 1548.85 L2251.05 1548.85 L2251.05 1544.91 Z" fill="#000000" fill-rule="nonzero" fill-opacity="1" /><path clip-path="url(#clip040)" d="M2290.4 1517.37 Q2286.79 1517.37 2284.96 1520.93 Q2283.15 1524.47 2283.15 1531.6 Q2283.15 1538.71 2284.96 1542.27 Q2286.79 1545.82 2290.4 1545.82 Q2294.03 1545.82 2295.84 1542.27 Q2297.67 1538.71 2297.67 1531.6 Q2297.67 1524.47 2295.84 1520.93 Q2294.03 1517.37 2290.4 1517.37 M2290.4 1513.66 Q2296.21 1513.66 2299.26 1518.27 Q2302.34 1522.85 2302.34 1531.6 Q2302.34 1540.33 2299.26 1544.94 Q2296.21 1549.52 2290.4 1549.52 Q2284.59 1549.52 2281.51 1544.94 Q2278.45 1540.33 2278.45 1531.6 Q2278.45 1522.85 2281.51 1518.27 Q2284.59 1513.66 2290.4 1513.66 Z" fill="#000000" fill-rule="nonzero" fill-opacity="1" /><path clip-path="url(#clip040)" d="M2320.56 1517.37 Q2316.95 1517.37 2315.12 1520.93 Q2313.32 1524.47 2313.32 1531.6 Q2313.32 1538.71 2315.12 1542.27 Q2316.95 1545.82 2320.56 1545.82 Q2324.19 1545.82 2326 1542.27 Q2327.83 1538.71 2327.83 1531.6 Q2327.83 1524.47 2326 1520.93 Q2324.19 1517.37 2320.56 1517.37 M2320.56 1513.66 Q2326.37 1513.66 2329.43 1518.27 Q2332.5 1522.85 2332.5 1531.6 Q2332.5 1540.33 2329.43 1544.94 Q2326.37 1549.52 2320.56 1549.52 Q2314.75 1549.52 2311.67 1544.94 Q2308.62 1540.33 2308.62 1531.6 Q2308.62 1522.85 2311.67 1518.27 Q2314.75 1513.66 2320.56 1513.66 Z" fill="#000000" fill-rule="nonzero" fill-opacity="1" /><polyline clip-path="url(#clip040)" style="stroke:#000000; stroke-linecap:round; stroke-linejoin:round; stroke-width:4; stroke-opacity:1; fill:none" points="186.274,1486.45 186.274,47.2441 "/>
<polyline clip-path="url(#clip040)" style="stroke:#000000; stroke-linecap:round; stroke-linejoin:round; stroke-width:4; stroke-opacity:1; fill:none" points="186.274,1426.91 205.172,1426.91 "/>
<polyline clip-path="url(#clip040)" style="stroke:#000000; stroke-linecap:round; stroke-linejoin:round; stroke-width:4; stroke-opacity:1; fill:none" points="186.274,1092.18 205.172,1092.18 "/>
<polyline clip-path="url(#clip040)" style="stroke:#000000; stroke-linecap:round; stroke-linejoin:round; stroke-width:4; stroke-opacity:1; fill:none" points="186.274,757.442 205.172,757.442 "/>
<polyline clip-path="url(#clip040)" style="stroke:#000000; stroke-linecap:round; stroke-linejoin:round; stroke-width:4; stroke-opacity:1; fill:none" points="186.274,422.709 205.172,422.709 "/>
<polyline clip-path="url(#clip040)" style="stroke:#000000; stroke-linecap:round; stroke-linejoin:round; stroke-width:4; stroke-opacity:1; fill:none" points="186.274,87.9763 205.172,87.9763 "/>
<path clip-path="url(#clip040)" d="M62.9365 1412.71 Q59.3254 1412.71 57.4967 1416.27 Q55.6912 1419.81 55.6912 1426.94 Q55.6912 1434.05 57.4967 1437.61 Q59.3254 1441.16 62.9365 1441.16 Q66.5707 1441.16 68.3763 1437.61 Q70.205 1434.05 70.205 1426.94 Q70.205 1419.81 68.3763 1416.27 Q66.5707 1412.71 62.9365 1412.71 M62.9365 1409 Q68.7467 1409 71.8022 1413.61 Q74.8809 1418.19 74.8809 1426.94 Q74.8809 1435.67 71.8022 1440.28 Q68.7467 1444.86 62.9365 1444.86 Q57.1264 1444.86 54.0477 1440.28 Q50.9921 1435.67 50.9921 1426.94 Q50.9921 1418.19 54.0477 1413.61 Q57.1264 1409 62.9365 1409 Z" fill="#000000" fill-rule="nonzero" fill-opacity="1" /><path clip-path="url(#clip040)" d="M83.0984 1438.31 L87.9827 1438.31 L87.9827 1444.19 L83.0984 1444.19 L83.0984 1438.31 Z" fill="#000000" fill-rule="nonzero" fill-opacity="1" /><path clip-path="url(#clip040)" d="M108.168 1412.71 Q104.557 1412.71 102.728 1416.27 Q100.922 1419.81 100.922 1426.94 Q100.922 1434.05 102.728 1437.61 Q104.557 1441.16 108.168 1441.16 Q111.802 1441.16 113.608 1437.61 Q115.436 1434.05 115.436 1426.94 Q115.436 1419.81 113.608 1416.27 Q111.802 1412.71 108.168 1412.71 M108.168 1409 Q113.978 1409 117.033 1413.61 Q120.112 1418.19 120.112 1426.94 Q120.112 1435.67 117.033 1440.28 Q113.978 1444.86 108.168 1444.86 Q102.358 1444.86 99.2789 1440.28 Q96.2234 1435.67 96.2234 1426.94 Q96.2234 1418.19 99.2789 1413.61 Q102.358 1409 108.168 1409 Z" fill="#000000" fill-rule="nonzero" fill-opacity="1" /><path clip-path="url(#clip040)" d="M138.33 1412.71 Q134.719 1412.71 132.89 1416.27 Q131.084 1419.81 131.084 1426.94 Q131.084 1434.05 132.89 1437.61 Q134.719 1441.16 138.33 1441.16 Q141.964 1441.16 143.769 1437.61 Q145.598 1434.05 145.598 1426.94 Q145.598 1419.81 143.769 1416.27 Q141.964 1412.71 138.33 1412.71 M138.33 1409 Q144.14 1409 147.195 1413.61 Q150.274 1418.19 150.274 1426.94 Q150.274 1435.67 147.195 1440.28 Q144.14 1444.86 138.33 1444.86 Q132.519 1444.86 129.441 1440.28 Q126.385 1435.67 126.385 1426.94 Q126.385 1418.19 129.441 1413.61 Q132.519 1409 138.33 1409 Z" fill="#000000" fill-rule="nonzero" fill-opacity="1" /><path clip-path="url(#clip040)" d="M63.9319 1077.97 Q60.3208 1077.97 58.4921 1081.54 Q56.6865 1085.08 56.6865 1092.21 Q56.6865 1099.32 58.4921 1102.88 Q60.3208 1106.42 63.9319 1106.42 Q67.5661 1106.42 69.3717 1102.88 Q71.2004 1099.32 71.2004 1092.21 Q71.2004 1085.08 69.3717 1081.54 Q67.5661 1077.97 63.9319 1077.97 M63.9319 1074.27 Q69.742 1074.27 72.7976 1078.88 Q75.8763 1083.46 75.8763 1092.21 Q75.8763 1100.94 72.7976 1105.54 Q69.742 1110.13 63.9319 1110.13 Q58.1217 1110.13 55.043 1105.54 Q51.9875 1100.94 51.9875 1092.21 Q51.9875 1083.46 55.043 1078.88 Q58.1217 1074.27 63.9319 1074.27 Z" fill="#000000" fill-rule="nonzero" fill-opacity="1" /><path clip-path="url(#clip040)" d="M84.0938 1103.58 L88.978 1103.58 L88.978 1109.46 L84.0938 1109.46 L84.0938 1103.58 Z" fill="#000000" fill-rule="nonzero" fill-opacity="1" /><path clip-path="url(#clip040)" d="M103.191 1105.52 L119.51 1105.52 L119.51 1109.46 L97.566 1109.46 L97.566 1105.52 Q100.228 1102.77 104.811 1098.14 Q109.418 1093.48 110.598 1092.14 Q112.844 1089.62 113.723 1087.88 Q114.626 1086.12 114.626 1084.43 Q114.626 1081.68 112.682 1079.94 Q110.76 1078.21 107.658 1078.21 Q105.459 1078.21 103.006 1078.97 Q100.575 1079.73 97.7974 1081.28 L97.7974 1076.56 Q100.621 1075.43 103.075 1074.85 Q105.529 1074.27 107.566 1074.27 Q112.936 1074.27 116.131 1076.96 Q119.325 1079.64 119.325 1084.13 Q119.325 1086.26 118.515 1088.18 Q117.728 1090.08 115.621 1092.67 Q115.043 1093.34 111.941 1096.56 Q108.839 1099.76 103.191 1105.52 Z" fill="#000000" fill-rule="nonzero" fill-opacity="1" /><path clip-path="url(#clip040)" d="M129.371 1074.9 L147.728 1074.9 L147.728 1078.83 L133.654 1078.83 L133.654 1087.3 Q134.672 1086.96 135.691 1086.79 Q136.709 1086.61 137.728 1086.61 Q143.515 1086.61 146.894 1089.78 Q150.274 1092.95 150.274 1098.37 Q150.274 1103.95 146.802 1107.05 Q143.33 1110.13 137.01 1110.13 Q134.834 1110.13 132.566 1109.76 Q130.32 1109.39 127.913 1108.65 L127.913 1103.95 Q129.996 1105.08 132.219 1105.64 Q134.441 1106.19 136.918 1106.19 Q140.922 1106.19 143.26 1104.09 Q145.598 1101.98 145.598 1098.37 Q145.598 1094.76 143.26 1092.65 Q140.922 1090.54 136.918 1090.54 Q135.043 1090.54 133.168 1090.96 Q131.316 1091.38 129.371 1092.26 L129.371 1074.9 Z" fill="#000000" fill-rule="nonzero" fill-opacity="1" /><path clip-path="url(#clip040)" d="M62.9365 743.241 Q59.3254 743.241 57.4967 746.806 Q55.6912 750.348 55.6912 757.477 Q55.6912 764.584 57.4967 768.148 Q59.3254 771.69 62.9365 771.69 Q66.5707 771.69 68.3763 768.148 Q70.205 764.584 70.205 757.477 Q70.205 750.348 68.3763 746.806 Q66.5707 743.241 62.9365 743.241 M62.9365 739.537 Q68.7467 739.537 71.8022 744.144 Q74.8809 748.727 74.8809 757.477 Q74.8809 766.204 71.8022 770.81 Q68.7467 775.394 62.9365 775.394 Q57.1264 775.394 54.0477 770.81 Q50.9921 766.204 50.9921 757.477 Q50.9921 748.727 54.0477 744.144 Q57.1264 739.537 62.9365 739.537 Z" fill="#000000" fill-rule="nonzero" fill-opacity="1" /><path clip-path="url(#clip040)" d="M83.0984 768.843 L87.9827 768.843 L87.9827 774.722 L83.0984 774.722 L83.0984 768.843 Z" fill="#000000" fill-rule="nonzero" fill-opacity="1" /><path clip-path="url(#clip040)" d="M98.2141 740.162 L116.57 740.162 L116.57 744.098 L102.496 744.098 L102.496 752.57 Q103.515 752.223 104.534 752.061 Q105.552 751.875 106.571 751.875 Q112.358 751.875 115.737 755.047 Q119.117 758.218 119.117 763.635 Q119.117 769.213 115.645 772.315 Q112.172 775.394 105.853 775.394 Q103.677 775.394 101.409 775.023 Q99.1632 774.653 96.7558 773.912 L96.7558 769.213 Q98.8391 770.347 101.061 770.903 Q103.284 771.459 105.76 771.459 Q109.765 771.459 112.103 769.352 Q114.441 767.246 114.441 763.635 Q114.441 760.023 112.103 757.917 Q109.765 755.811 105.76 755.811 Q103.885 755.811 102.01 756.227 Q100.159 756.644 98.2141 757.523 L98.2141 740.162 Z" fill="#000000" fill-rule="nonzero" fill-opacity="1" /><path clip-path="url(#clip040)" d="M138.33 743.241 Q134.719 743.241 132.89 746.806 Q131.084 750.348 131.084 757.477 Q131.084 764.584 132.89 768.148 Q134.719 771.69 138.33 771.69 Q141.964 771.69 143.769 768.148 Q145.598 764.584 145.598 757.477 Q145.598 750.348 143.769 746.806 Q141.964 743.241 138.33 743.241 M138.33 739.537 Q144.14 739.537 147.195 744.144 Q150.274 748.727 150.274 757.477 Q150.274 766.204 147.195 770.81 Q144.14 775.394 138.33 775.394 Q132.519 775.394 129.441 770.81 Q126.385 766.204 126.385 757.477 Q126.385 748.727 129.441 744.144 Q132.519 739.537 138.33 739.537 Z" fill="#000000" fill-rule="nonzero" fill-opacity="1" /><path clip-path="url(#clip040)" d="M63.9319 408.508 Q60.3208 408.508 58.4921 412.073 Q56.6865 415.614 56.6865 422.744 Q56.6865 429.851 58.4921 433.415 Q60.3208 436.957 63.9319 436.957 Q67.5661 436.957 69.3717 433.415 Q71.2004 429.851 71.2004 422.744 Q71.2004 415.614 69.3717 412.073 Q67.5661 408.508 63.9319 408.508 M63.9319 404.804 Q69.742 404.804 72.7976 409.411 Q75.8763 413.994 75.8763 422.744 Q75.8763 431.471 72.7976 436.077 Q69.742 440.661 63.9319 440.661 Q58.1217 440.661 55.043 436.077 Q51.9875 431.471 51.9875 422.744 Q51.9875 413.994 55.043 409.411 Q58.1217 404.804 63.9319 404.804 Z" fill="#000000" fill-rule="nonzero" fill-opacity="1" /><path clip-path="url(#clip040)" d="M84.0938 434.11 L88.978 434.11 L88.978 439.989 L84.0938 439.989 L84.0938 434.11 Z" fill="#000000" fill-rule="nonzero" fill-opacity="1" /><path clip-path="url(#clip040)" d="M97.9826 405.429 L120.205 405.429 L120.205 407.42 L107.658 439.989 L102.774 439.989 L114.58 409.365 L97.9826 409.365 L97.9826 405.429 Z" fill="#000000" fill-rule="nonzero" fill-opacity="1" /><path clip-path="url(#clip040)" d="M129.371 405.429 L147.728 405.429 L147.728 409.365 L133.654 409.365 L133.654 417.837 Q134.672 417.489 135.691 417.327 Q136.709 417.142 137.728 417.142 Q143.515 417.142 146.894 420.314 Q150.274 423.485 150.274 428.901 Q150.274 434.48 146.802 437.582 Q143.33 440.661 137.01 440.661 Q134.834 440.661 132.566 440.29 Q130.32 439.92 127.913 439.179 L127.913 434.48 Q129.996 435.614 132.219 436.17 Q134.441 436.725 136.918 436.725 Q140.922 436.725 143.26 434.619 Q145.598 432.513 145.598 428.901 Q145.598 425.29 143.26 423.184 Q140.922 421.077 136.918 421.077 Q135.043 421.077 133.168 421.494 Q131.316 421.911 129.371 422.79 L129.371 405.429 Z" fill="#000000" fill-rule="nonzero" fill-opacity="1" /><path clip-path="url(#clip040)" d="M53.7467 101.321 L61.3856 101.321 L61.3856 74.9555 L53.0754 76.6222 L53.0754 72.3629 L61.3393 70.6963 L66.0152 70.6963 L66.0152 101.321 L73.654 101.321 L73.654 105.256 L53.7467 105.256 L53.7467 101.321 Z" fill="#000000" fill-rule="nonzero" fill-opacity="1" /><path clip-path="url(#clip040)" d="M83.0984 99.3767 L87.9827 99.3767 L87.9827 105.256 L83.0984 105.256 L83.0984 99.3767 Z" fill="#000000" fill-rule="nonzero" fill-opacity="1" /><path clip-path="url(#clip040)" d="M108.168 73.775 Q104.557 73.775 102.728 77.3398 Q100.922 80.8814 100.922 88.011 Q100.922 95.1174 102.728 98.6822 Q104.557 102.224 108.168 102.224 Q111.802 102.224 113.608 98.6822 Q115.436 95.1174 115.436 88.011 Q115.436 80.8814 113.608 77.3398 Q111.802 73.775 108.168 73.775 M108.168 70.0713 Q113.978 70.0713 117.033 74.6777 Q120.112 79.261 120.112 88.011 Q120.112 96.7378 117.033 101.344 Q113.978 105.928 108.168 105.928 Q102.358 105.928 99.2789 101.344 Q96.2234 96.7378 96.2234 88.011 Q96.2234 79.261 99.2789 74.6777 Q102.358 70.0713 108.168 70.0713 Z" fill="#000000" fill-rule="nonzero" fill-opacity="1" /><path clip-path="url(#clip040)" d="M138.33 73.775 Q134.719 73.775 132.89 77.3398 Q131.084 80.8814 131.084 88.011 Q131.084 95.1174 132.89 98.6822 Q134.719 102.224 138.33 102.224 Q141.964 102.224 143.769 98.6822 Q145.598 95.1174 145.598 88.011 Q145.598 80.8814 143.769 77.3398 Q141.964 73.775 138.33 73.775 M138.33 70.0713 Q144.14 70.0713 147.195 74.6777 Q150.274 79.261 150.274 88.011 Q150.274 96.7378 147.195 101.344 Q144.14 105.928 138.33 105.928 Q132.519 105.928 129.441 101.344 Q126.385 96.7378 126.385 88.011 Q126.385 79.261 129.441 74.6777 Q132.519 70.0713 138.33 70.0713 Z" fill="#000000" fill-rule="nonzero" fill-opacity="1" /><polyline clip-path="url(#clip042)" style="stroke:#009af9; stroke-linecap:round; stroke-linejoin:round; stroke-width:4; stroke-opacity:1; fill:none" points="247.59,1392.36 257.809,1390.31 268.028,1397.87 278.247,1433.18 288.467,1390.57 298.686,1411 308.905,1366.94 319.124,1412.03 329.344,1364.24 339.563,1442.8 349.782,1377.7 360.001,1432.91 370.221,1332.68 380.44,1421.5 390.659,1305.59 400.878,1303.02 411.098,1401.02 421.317,1307.97 431.536,1340.57 441.755,1350.15 451.975,1362.88 462.194,1336.4 472.413,1231.88 482.632,1281.84 492.852,1356.58 503.071,1312.46 513.29,1343.6 523.509,1326.23 533.729,1327.16 543.948,1318.11 554.167,1231.03 564.386,1275.16 574.606,1349.91 584.825,1305.01 595.044,1273.24 605.263,1317.2 615.483,1259.24 625.702,1277.1 635.921,1164.94 646.14,1249.24 656.36,1324.72 666.579,1285.32 676.798,1286.2 687.017,1238.06 697.237,1242.06 707.456,1250.89 717.675,1266.29 727.894,1241.32 738.114,1250.84 748.333,1226.48 758.552,1223.47 768.771,1203.52 778.991,1163.6 789.21,1270.76 799.429,1220.76 809.649,1214.83 819.868,1236.18 830.087,1213.3 840.306,1171.44 850.526,1090.49 860.745,1122.85 870.964,1119.47 881.183,1017.22 891.403,978.347 901.622,1036 911.841,1019.26 922.06,946.456 932.28,923.587 942.499,824.124 952.718,736.115 962.937,554.33 973.157,625.638 983.376,532.906 993.595,398.791 1003.81,413.721 1014.03,377.982 1024.25,261.462 1034.47,223.723 1044.69,154.61 1054.91,113.781 1065.13,87.9763 1075.35,123.684 1085.57,138.402 1095.79,166.068 1106.01,213.908 1116.23,196.475 1126.45,277.862 1136.66,421.634 1146.88,434.094 1157.1,521.437 1167.32,564.955 1177.54,663.806 1187.76,914.628 1197.98,806.916 1208.2,776.34 1218.42,871.822 1228.64,907.643 1238.86,946.203 1249.08,979.37 1259.3,929.517 1269.51,994.824 1279.73,945.404 1289.95,929.827 1300.17,908.226 1310.39,1019.65 1320.61,1001.6 1330.83,999.052 1341.05,983.367 1351.27,981.515 1361.49,958.372 1371.71,966.096 1381.93,983.893 1392.15,934.161 1402.37,951.88 1412.58,903.112 1422.8,967.713 1433.02,961.298 1443.24,1011.14 1453.46,882.821 1463.68,1019.26 1473.9,1027.16 1484.12,911.858 1494.34,972.079 1504.56,899.865 1514.78,884.68 1525,938.675 1535.22,943.5 1545.43,1027.24 1555.65,951.611 1565.87,854.074 1576.09,961.722 1586.31,893.864 1596.53,917.503 1606.75,921.964 1616.97,939.141 1627.19,880.219 1637.41,935.332 1647.63,889.657 1657.85,922.914 1668.07,888.351 1678.29,881.456 1688.5,954.094 1698.72,891.981 1708.94,870.048 1719.16,877.748 1729.38,930.193 1739.6,830.585 1749.82,767.224 1760.04,782.94 1770.26,887.018 1780.48,833.217 1790.7,790.222 1800.92,806.568 1811.14,878.166 1821.35,906.909 1831.57,822.384 1841.79,803.108 1852.01,813.779 1862.23,704.813 1872.45,818.464 1882.67,825.739 1892.89,823.497 1903.11,747.971 1913.33,772.883 1923.55,745.576 1933.77,825.776 1943.99,785.966 1954.2,766.571 1964.42,769.683 1974.64,744.429 1984.86,773.847 1995.08,778.152 2005.3,760.44 2015.52,729.231 2025.74,720.974 2035.96,750.148 2046.18,726.142 2056.4,776.368 2066.62,760.384 2076.84,732.825 2087.06,736.318 2097.27,732.88 2107.49,700.789 2117.71,667.921 2127.93,713.56 2138.15,709.897 2148.37,682.974 2158.59,713.409 2168.81,737.615 2179.03,641.378 2189.25,721.244 2199.47,703.888 2209.69,635.385 2219.91,613.624 2230.12,618.179 2240.34,629.364 2250.56,676.083 2260.78,656.717 2271,637.939 2281.22,632.078 2291.44,624.399 "/>
<polyline clip-path="url(#clip042)" style="stroke:#e26f46; stroke-linecap:round; stroke-linejoin:round; stroke-width:4; stroke-opacity:1; fill:none" points="247.59,1437.39 257.809,1445.72 268.028,1415.36 278.247,1436.01 288.467,1440.38 298.686,1432.46 308.905,1443.66 319.124,1436.7 329.344,1431.86 339.563,1444.29 349.782,1424.73 360.001,1402.65 370.221,1426.88 380.44,1416.2 390.659,1412.39 400.878,1419.4 411.098,1417.79 421.317,1419.79 431.536,1427.09 441.755,1410.25 451.975,1395.79 462.194,1405.6 472.413,1409.87 482.632,1417.46 492.852,1424.16 503.071,1396.78 513.29,1402.33 523.509,1420.99 533.729,1367.07 543.948,1378.25 554.167,1401.27 564.386,1387.52 574.606,1416.04 584.825,1385.18 595.044,1388.36 605.263,1394.85 615.483,1395.56 625.702,1403.33 635.921,1396.87 646.14,1391.09 656.36,1422.82 666.579,1397.99 676.798,1403.95 687.017,1387.33 697.237,1383.77 707.456,1379.69 717.675,1384.43 727.894,1367.74 738.114,1360.04 748.333,1389.66 758.552,1366.76 768.771,1385.02 778.991,1365.22 789.21,1368.94 799.429,1384.6 809.649,1362.4 819.868,1317.78 830.087,1375.67 840.306,1366.67 850.526,1386.42 860.745,1408.38 870.964,1379.07 881.183,1390.07 891.403,1376.15 901.622,1364.13 911.841,1397.89 922.06,1357.93 932.28,1328.57 942.499,1371.36 952.718,1357.55 962.937,1369.92 973.157,1379.18 983.376,1346.63 993.595,1356.77 1003.81,1353.68 1014.03,1331.27 1024.25,1311.25 1034.47,1331.74 1044.69,1320.28 1054.91,1329.81 1065.13,1290.12 1075.35,1299.46 1085.57,1314 1095.79,1280.51 1106.01,1271.89 1116.23,1288.45 1126.45,1256.63 1136.66,1230.07 1146.88,1194.64 1157.1,1216.86 1167.32,1168.38 1177.54,1177.25 1187.76,1112.92 1197.98,1085.8 1208.2,1040.54 1218.42,1033.26 1228.64,987.038 1238.86,968.641 1249.08,898.357 1259.3,859.478 1269.51,798.726 1279.73,785.069 1289.95,727.79 1300.17,667.172 1310.39,622.284 1320.61,594.554 1330.83,526.367 1341.05,466.096 1351.27,437.099 1361.49,414.984 1371.71,336.957 1381.93,279.948 1392.15,297.441 1402.37,233.857 1412.58,207.837 1422.8,157.851 1433.02,170.957 1443.24,151.502 1453.46,110.197 1463.68,114.109 1473.9,105.868 1484.12,87.9763 1494.34,126.183 1504.56,161.738 1514.78,173.085 1525,163.245 1535.22,182.417 1545.43,200.375 1555.65,257.574 1565.87,285.232 1576.09,338.19 1586.31,369.965 1596.53,434.202 1606.75,464.938 1616.97,532.544 1627.19,547.099 1637.41,632.805 1647.63,669.567 1657.85,685.151 1668.07,733.162 1678.29,778.307 1688.5,815.582 1698.72,879.112 1708.94,925.435 1719.16,940.818 1729.38,952.938 1739.6,1020.7 1749.82,1034.51 1760.04,1075.54 1770.26,1073.26 1780.48,1113.56 1790.7,1143.73 1800.92,1138.14 1811.14,1160.57 1821.35,1181.22 1831.57,1247.5 1841.79,1226.6 1852.01,1224.99 1862.23,1198.62 1872.45,1239.95 1882.67,1245.72 1892.89,1245.98 1903.11,1273.26 1913.33,1264.77 1923.55,1265.29 1933.77,1254.12 1943.99,1275.23 1954.2,1255.81 1964.42,1242.44 1974.64,1270.34 1984.86,1256.28 1995.08,1222.28 2005.3,1282.7 2015.52,1261.56 2025.74,1289.1 2035.96,1268.6 2046.18,1254.25 2056.4,1228.16 2066.62,1259.52 2076.84,1258.44 2087.06,1223.46 2097.27,1260.92 2107.49,1275.05 2117.71,1256.29 2127.93,1248.07 2138.15,1288.04 2148.37,1256.01 2158.59,1224.46 2168.81,1274.5 2179.03,1273.19 2189.25,1235.98 2199.47,1275.61 2209.69,1250.12 2219.91,1240.47 2230.12,1226.95 2240.34,1256.83 2250.56,1260.57 2260.78,1247.02 2271,1229.97 2281.22,1266.92 2291.44,1247.91 "/>
<path clip-path="url(#clip040)" d="M2011.46 250.738 L2280.54 250.738 L2280.54 95.2176 L2011.46 95.2176  Z" fill="#ffffff" fill-rule="evenodd" fill-opacity="1"/>
<polyline clip-path="url(#clip040)" style="stroke:#000000; stroke-linecap:round; stroke-linejoin:round; stroke-width:4; stroke-opacity:1; fill:none" points="2011.46,250.738 2280.54,250.738 2280.54,95.2176 2011.46,95.2176 2011.46,250.738 "/>
<polyline clip-path="url(#clip040)" style="stroke:#009af9; stroke-linecap:round; stroke-linejoin:round; stroke-width:4; stroke-opacity:1; fill:none" points="2035.53,147.058 2179.97,147.058 "/>
<path clip-path="url(#clip040)" d="M2217.88 166.745 Q2216.07 171.375 2214.36 172.787 Q2212.65 174.199 2209.78 174.199 L2206.38 174.199 L2206.38 170.634 L2208.88 170.634 Q2210.63 170.634 2211.61 169.8 Q2212.58 168.967 2213.76 165.865 L2214.52 163.921 L2204.04 138.412 L2208.55 138.412 L2216.65 158.689 L2224.76 138.412 L2229.27 138.412 L2217.88 166.745 Z" fill="#000000" fill-rule="nonzero" fill-opacity="1" /><path clip-path="url(#clip040)" d="M2236.56 160.402 L2244.2 160.402 L2244.2 134.037 L2235.89 135.703 L2235.89 131.444 L2244.15 129.778 L2248.83 129.778 L2248.83 160.402 L2256.47 160.402 L2256.47 164.338 L2236.56 164.338 L2236.56 160.402 Z" fill="#000000" fill-rule="nonzero" fill-opacity="1" /><polyline clip-path="url(#clip040)" style="stroke:#e26f46; stroke-linecap:round; stroke-linejoin:round; stroke-width:4; stroke-opacity:1; fill:none" points="2035.53,198.898 2179.97,198.898 "/>
<path clip-path="url(#clip040)" d="M2217.88 218.585 Q2216.07 223.215 2214.36 224.627 Q2212.65 226.039 2209.78 226.039 L2206.38 226.039 L2206.38 222.474 L2208.88 222.474 Q2210.63 222.474 2211.61 221.64 Q2212.58 220.807 2213.76 217.705 L2214.52 215.761 L2204.04 190.252 L2208.55 190.252 L2216.65 210.529 L2224.76 190.252 L2229.27 190.252 L2217.88 218.585 Z" fill="#000000" fill-rule="nonzero" fill-opacity="1" /><path clip-path="url(#clip040)" d="M2239.78 212.242 L2256.1 212.242 L2256.1 216.178 L2234.15 216.178 L2234.15 212.242 Q2236.82 209.488 2241.4 204.858 Q2246 200.205 2247.19 198.863 Q2249.43 196.34 2250.31 194.604 Q2251.21 192.844 2251.21 191.155 Q2251.21 188.4 2249.27 186.664 Q2247.35 184.928 2244.25 184.928 Q2242.05 184.928 2239.59 185.692 Q2237.16 186.455 2234.38 188.006 L2234.38 183.284 Q2237.21 182.15 2239.66 181.571 Q2242.12 180.993 2244.15 180.993 Q2249.52 180.993 2252.72 183.678 Q2255.91 186.363 2255.91 190.854 Q2255.91 192.983 2255.1 194.905 Q2254.32 196.803 2252.21 199.395 Q2251.63 200.067 2248.53 203.284 Q2245.43 206.479 2239.78 212.242 Z" fill="#000000" fill-rule="nonzero" fill-opacity="1" /></svg>
