<?xml version="1.0" encoding="utf-8"?>
<svg xmlns="http://www.w3.org/2000/svg" xmlns:xlink="http://www.w3.org/1999/xlink" width="600" height="400" viewBox="0 0 2400 1600">
<defs>
  <clipPath id="clip710">
    <rect x="0" y="0" width="2400" height="1600"/>
  </clipPath>
</defs>
<path clip-path="url(#clip710)" d="M0 1600 L2400 1600 L2400 0 L0 0  Z" fill="#ffffff" fill-rule="evenodd" fill-opacity="1"/>
<defs>
  <clipPath id="clip711">
    <rect x="480" y="0" width="1681" height="1600"/>
  </clipPath>
</defs>
<path clip-path="url(#clip710)" d="M186.274 1486.45 L2352.76 1486.45 L2352.76 47.2441 L186.274 47.2441  Z" fill="#ffffff" fill-rule="evenodd" fill-opacity="1"/>
<defs>
  <clipPath id="clip712">
    <rect x="186" y="47" width="2167" height="1440"/>
  </clipPath>
</defs>
<polyline clip-path="url(#clip712)" style="stroke:#000000; stroke-linecap:round; stroke-linejoin:round; stroke-width:2; stroke-opacity:0.1; fill:none" points="247.59,1486.45 247.59,47.2441 "/>
<polyline clip-path="url(#clip712)" style="stroke:#000000; stroke-linecap:round; stroke-linejoin:round; stroke-width:2; stroke-opacity:0.1; fill:none" points="758.552,1486.45 758.552,47.2441 "/>
<polyline clip-path="url(#clip712)" style="stroke:#000000; stroke-linecap:round; stroke-linejoin:round; stroke-width:2; stroke-opacity:0.1; fill:none" points="1269.51,1486.45 1269.51,47.2441 "/>
<polyline clip-path="url(#clip712)" style="stroke:#000000; stroke-linecap:round; stroke-linejoin:round; stroke-width:2; stroke-opacity:0.1; fill:none" points="1780.48,1486.45 1780.48,47.2441 "/>
<polyline clip-path="url(#clip712)" style="stroke:#000000; stroke-linecap:round; stroke-linejoin:round; stroke-width:2; stroke-opacity:0.1; fill:none" points="2291.44,1486.45 2291.44,47.2441 "/>
<polyline clip-path="url(#clip712)" style="stroke:#000000; stroke-linecap:round; stroke-linejoin:round; stroke-width:2; stroke-opacity:0.1; fill:none" points="186.274,1269.16 2352.76,1269.16 "/>
<polyline clip-path="url(#clip712)" style="stroke:#000000; stroke-linecap:round; stroke-linejoin:round; stroke-width:2; stroke-opacity:0.1; fill:none" points="186.274,997.551 2352.76,997.551 "/>
<polyline clip-path="url(#clip712)" style="stroke:#000000; stroke-linecap:round; stroke-linejoin:round; stroke-width:2; stroke-opacity:0.1; fill:none" points="186.274,725.944 2352.76,725.944 "/>
<polyline clip-path="url(#clip712)" style="stroke:#000000; stroke-linecap:round; stroke-linejoin:round; stroke-width:2; stroke-opacity:0.1; fill:none" points="186.274,454.336 2352.76,454.336 "/>
<polyline clip-path="url(#clip712)" style="stroke:#000000; stroke-linecap:round; stroke-linejoin:round; stroke-width:2; stroke-opacity:0.1; fill:none" points="186.274,182.728 2352.76,182.728 "/>
<polyline clip-path="url(#clip710)" style="stroke:#000000; stroke-linecap:round; stroke-linejoin:round; stroke-width:4; stroke-opacity:1; fill:none" points="186.274,1486.45 2352.76,1486.45 "/>
<polyline clip-path="url(#clip710)" style="stroke:#000000; stroke-linecap:round; stroke-linejoin:round; stroke-width:4; stroke-opacity:1; fill:none" points="247.59,1486.45 247.59,1467.55 "/>
<polyline clip-path="url(#clip710)" style="stroke:#000000; stroke-linecap:round; stroke-linejoin:round; stroke-width:4; stroke-opacity:1; fill:none" points="758.552,1486.45 758.552,1467.55 "/>
<polyline clip-path="url(#clip710)" style="stroke:#000000; stroke-linecap:round; stroke-linejoin:round; stroke-width:4; stroke-opacity:1; fill:none" points="1269.51,1486.45 1269.51,1467.55 "/>
<polyline clip-path="url(#clip710)" style="stroke:#000000; stroke-linecap:round; stroke-linejoin:round; stroke-width:4; stroke-opacity:1; fill:none" points="1780.48,1486.45 1780.48,1467.55 "/>
<polyline clip-path="url(#clip710)" style="stroke:#000000; stroke-linecap:round; stroke-linejoin:round; stroke-width:4; stroke-opacity:1; fill:none" points="2291.44,1486.45 2291.44,1467.55 "/>
<path clip-path="url(#clip710)" d="M247.59 1517.37 Q243.978 1517.37 242.15 1520.93 Q240.344 1524.47 240.344 1531.6 Q240.344 1538.71 242.15 1542.27 Q243.978 1545.82 247.59 1545.82 Q251.224 1545.82 253.029 1542.27 Q254.858 1538.71 254.858 1531.6 Q254.858 1524.47 253.029 1520.93 Q251.224 1517.37 247.59 1517.37 M247.59 1513.66 Q253.4 1513.66 256.455 1518.27 Q259.534 1522.85 259.534 1531.6 Q259.534 1540.33 256.455 1544.94 Q253.4 1549.52 247.59 1549.52 Q241.779 1549.52 238.701 1544.94 Q235.645 1540.33 235.645 1531.6 Q235.645 1522.85 238.701 1518.27 Q241.779 1513.66 247.59 1513.66 Z" fill="#000000" fill-rule="nonzero" fill-opacity="1" /><path clip-path="url(#clip710)" d="M737.823 1544.91 L754.143 1544.91 L754.143 1548.85 L732.198 1548.85 L732.198 1544.91 Q734.86 1542.16 739.444 1537.53 Q744.05 1532.88 745.231 1531.53 Q747.476 1529.01 748.356 1527.27 Q749.258 1525.51 749.258 1523.82 Q749.258 1521.07 747.314 1519.33 Q745.393 1517.6 742.291 1517.6 Q740.092 1517.6 737.638 1518.36 Q735.207 1519.13 732.43 1520.68 L732.43 1515.95 Q735.254 1514.82 737.707 1514.24 Q740.161 1513.66 742.198 1513.66 Q747.569 1513.66 750.763 1516.35 Q753.957 1519.03 753.957 1523.52 Q753.957 1525.65 753.147 1527.57 Q752.36 1529.47 750.254 1532.07 Q749.675 1532.74 746.573 1535.95 Q743.471 1539.15 737.823 1544.91 Z" fill="#000000" fill-rule="nonzero" fill-opacity="1" /><path clip-path="url(#clip710)" d="M764.004 1514.29 L782.36 1514.29 L782.36 1518.22 L768.286 1518.22 L768.286 1526.7 Q769.304 1526.35 770.323 1526.19 Q771.342 1526 772.36 1526 Q778.147 1526 781.527 1529.17 Q784.906 1532.34 784.906 1537.76 Q784.906 1543.34 781.434 1546.44 Q777.962 1549.52 771.642 1549.52 Q769.467 1549.52 767.198 1549.15 Q764.953 1548.78 762.545 1548.04 L762.545 1543.34 Q764.629 1544.47 766.851 1545.03 Q769.073 1545.58 771.55 1545.58 Q775.554 1545.58 777.892 1543.48 Q780.23 1541.37 780.23 1537.76 Q780.23 1534.15 777.892 1532.04 Q775.554 1529.94 771.55 1529.94 Q769.675 1529.94 767.8 1530.35 Q765.948 1530.77 764.004 1531.65 L764.004 1514.29 Z" fill="#000000" fill-rule="nonzero" fill-opacity="1" /><path clip-path="url(#clip710)" d="M1244.21 1514.29 L1262.57 1514.29 L1262.57 1518.22 L1248.5 1518.22 L1248.5 1526.7 Q1249.52 1526.35 1250.53 1526.19 Q1251.55 1526 1252.57 1526 Q1258.36 1526 1261.74 1529.17 Q1265.12 1532.34 1265.12 1537.76 Q1265.12 1543.34 1261.64 1546.44 Q1258.17 1549.52 1251.85 1549.52 Q1249.68 1549.52 1247.41 1549.15 Q1245.16 1548.78 1242.76 1548.04 L1242.76 1543.34 Q1244.84 1544.47 1247.06 1545.03 Q1249.28 1545.58 1251.76 1545.58 Q1255.77 1545.58 1258.1 1543.48 Q1260.44 1541.37 1260.44 1537.76 Q1260.44 1534.15 1258.1 1532.04 Q1255.77 1529.94 1251.76 1529.94 Q1249.89 1529.94 1248.01 1530.35 Q1246.16 1530.77 1244.21 1531.65 L1244.21 1514.29 Z" fill="#000000" fill-rule="nonzero" fill-opacity="1" /><path clip-path="url(#clip710)" d="M1284.33 1517.37 Q1280.72 1517.37 1278.89 1520.93 Q1277.08 1524.47 1277.08 1531.6 Q1277.08 1538.71 1278.89 1542.27 Q1280.72 1545.82 1284.33 1545.82 Q1287.96 1545.82 1289.77 1542.27 Q1291.6 1538.71 1291.6 1531.6 Q1291.6 1524.47 1289.77 1520.93 Q1287.96 1517.37 1284.33 1517.37 M1284.33 1513.66 Q1290.14 1513.66 1293.2 1518.27 Q1296.27 1522.85 1296.27 1531.6 Q1296.27 1540.33 1293.2 1544.94 Q1290.14 1549.52 1284.33 1549.52 Q1278.52 1549.52 1275.44 1544.94 Q1272.39 1540.33 1272.39 1531.6 Q1272.39 1522.85 1275.44 1518.27 Q1278.52 1513.66 1284.33 1513.66 Z" fill="#000000" fill-rule="nonzero" fill-opacity="1" /><path clip-path="url(#clip710)" d="M1754.33 1514.29 L1776.55 1514.29 L1776.55 1516.28 L1764.01 1548.85 L1759.12 1548.85 L1770.93 1518.22 L1754.33 1518.22 L1754.33 1514.29 Z" fill="#000000" fill-rule="nonzero" fill-opacity="1" /><path clip-path="url(#clip710)" d="M1785.72 1514.29 L1804.08 1514.29 L1804.08 1518.22 L1790 1518.22 L1790 1526.7 Q1791.02 1526.35 1792.04 1526.19 Q1793.06 1526 1794.08 1526 Q1799.86 1526 1803.24 1529.17 Q1806.62 1532.34 1806.62 1537.76 Q1806.62 1543.34 1803.15 1546.44 Q1799.68 1549.52 1793.36 1549.52 Q1791.18 1549.52 1788.92 1549.15 Q1786.67 1548.78 1784.26 1548.04 L1784.26 1543.34 Q1786.35 1544.47 1788.57 1545.03 Q1790.79 1545.58 1793.27 1545.58 Q1797.27 1545.58 1799.61 1543.48 Q1801.95 1541.37 1801.95 1537.76 Q1801.95 1534.15 1799.61 1532.04 Q1797.27 1529.94 1793.27 1529.94 Q1791.39 1529.94 1789.52 1530.35 Q1787.67 1530.77 1785.72 1531.65 L1785.72 1514.29 Z" fill="#000000" fill-rule="nonzero" fill-opacity="1" /><path clip-path="url(#clip710)" d="M2251.05 1544.91 L2258.69 1544.91 L2258.69 1518.55 L2250.38 1520.21 L2250.38 1515.95 L2258.64 1514.29 L2263.32 1514.29 L2263.32 1544.91 L2270.95 1544.91 L2270.95 1548.85 L2251.05 1548.85 L2251.05 1544.91 Z" fill="#000000" fill-rule="nonzero" fill-opacity="1" /><path clip-path="url(#clip710)" d="M2290.4 1517.37 Q2286.79 1517.37 2284.96 1520.93 Q2283.15 1524.47 2283.15 1531.6 Q2283.15 1538.71 2284.96 1542.27 Q2286.79 1545.82 2290.4 1545.82 Q2294.03 1545.82 2295.84 1542.27 Q2297.67 1538.71 2297.67 1531.6 Q2297.67 1524.47 2295.84 1520.93 Q2294.03 1517.37 2290.4 1517.37 M2290.4 1513.66 Q2296.21 1513.66 2299.26 1518.27 Q2302.34 1522.85 2302.34 1531.6 Q2302.34 1540.33 2299.26 1544.94 Q2296.21 1549.52 2290.4 1549.52 Q2284.59 1549.52 2281.51 1544.94 Q2278.45 1540.33 2278.45 1531.6 Q2278.45 1522.85 2281.51 1518.27 Q2284.59 1513.66 2290.4 1513.66 Z" fill="#000000" fill-rule="nonzero" fill-opacity="1" /><path clip-path="url(#clip710)" d="M2320.56 1517.37 Q2316.95 1517.37 2315.12 1520.93 Q2313.32 1524.47 2313.32 1531.6 Q2313.32 1538.71 2315.12 1542.27 Q2316.95 1545.82 2320.56 1545.82 Q2324.19 1545.82 2326 1542.27 Q2327.83 1538.71 2327.83 1531.6 Q2327.83 1524.47 2326 1520.93 Q2324.19 1517.37 2320.56 1517.37 M2320.56 1513.66 Q2326.37 1513.66 2329.43 1518.27 Q2332.5 1522.85 2332.5 1531.6 Q2332.5 1540.33 2329.43 1544.94 Q2326.37 1549.52 2320.56 1549.52 Q2314.75 1549.52 2311.67 1544.94 Q2308.62 1540.33 2308.62 1531.6 Q2308.62 1522.85 2311.67 1518.27 Q2314.75 1513.66 2320.56 1513.66 Z" fill="#000000" fill-rule="nonzero" fill-opacity="1" /><polyline clip-path="url(#clip710)" style="stroke:#000000; stroke-linecap:round; stroke-linejoin:round; stroke-width:4; stroke-opacity:1; fill:none" points="186.274,1486.45 186.274,47.2441 "/>
<polyline clip-path="url(#clip710)" style="stroke:#000000; stroke-linecap:round; stroke-linejoin:round; stroke-width:4; stroke-opacity:1; fill:none" points="186.274,1269.16 205.172,1269.16 "/>
<polyline clip-path="url(#clip710)" style="stroke:#000000; stroke-linecap:round; stroke-linejoin:round; stroke-width:4; stroke-opacity:1; fill:none" points="186.274,997.551 205.172,997.551 "/>
<polyline clip-path="url(#clip710)" style="stroke:#000000; stroke-linecap:round; stroke-linejoin:round; stroke-width:4; stroke-opacity:1; fill:none" points="186.274,725.944 205.172,725.944 "/>
<polyline clip-path="url(#clip710)" style="stroke:#000000; stroke-linecap:round; stroke-linejoin:round; stroke-width:4; stroke-opacity:1; fill:none" points="186.274,454.336 205.172,454.336 "/>
<polyline clip-path="url(#clip710)" style="stroke:#000000; stroke-linecap:round; stroke-linejoin:round; stroke-width:4; stroke-opacity:1; fill:none" points="186.274,182.728 205.172,182.728 "/>
<path clip-path="url(#clip710)" d="M62.9365 1254.96 Q59.3254 1254.96 57.4967 1258.52 Q55.6912 1262.06 55.6912 1269.19 Q55.6912 1276.3 57.4967 1279.86 Q59.3254 1283.41 62.9365 1283.41 Q66.5707 1283.41 68.3763 1279.86 Q70.205 1276.3 70.205 1269.19 Q70.205 1262.06 68.3763 1258.52 Q66.5707 1254.96 62.9365 1254.96 M62.9365 1251.25 Q68.7467 1251.25 71.8022 1255.86 Q74.8809 1260.44 74.8809 1269.19 Q74.8809 1277.92 71.8022 1282.53 Q68.7467 1287.11 62.9365 1287.11 Q57.1264 1287.11 54.0477 1282.53 Q50.9921 1277.92 50.9921 1269.19 Q50.9921 1260.44 54.0477 1255.86 Q57.1264 1251.25 62.9365 1251.25 Z" fill="#000000" fill-rule="nonzero" fill-opacity="1" /><path clip-path="url(#clip710)" d="M83.0984 1280.56 L87.9827 1280.56 L87.9827 1286.44 L83.0984 1286.44 L83.0984 1280.56 Z" fill="#000000" fill-rule="nonzero" fill-opacity="1" /><path clip-path="url(#clip710)" d="M108.168 1254.96 Q104.557 1254.96 102.728 1258.52 Q100.922 1262.06 100.922 1269.19 Q100.922 1276.3 102.728 1279.86 Q104.557 1283.41 108.168 1283.41 Q111.802 1283.41 113.608 1279.86 Q115.436 1276.3 115.436 1269.19 Q115.436 1262.06 113.608 1258.52 Q111.802 1254.96 108.168 1254.96 M108.168 1251.25 Q113.978 1251.25 117.033 1255.86 Q120.112 1260.44 120.112 1269.19 Q120.112 1277.92 117.033 1282.53 Q113.978 1287.11 108.168 1287.11 Q102.358 1287.11 99.2789 1282.53 Q96.2234 1277.92 96.2234 1269.19 Q96.2234 1260.44 99.2789 1255.86 Q102.358 1251.25 108.168 1251.25 Z" fill="#000000" fill-rule="nonzero" fill-opacity="1" /><path clip-path="url(#clip710)" d="M138.33 1254.96 Q134.719 1254.96 132.89 1258.52 Q131.084 1262.06 131.084 1269.19 Q131.084 1276.3 132.89 1279.86 Q134.719 1283.41 138.33 1283.41 Q141.964 1283.41 143.769 1279.86 Q145.598 1276.3 145.598 1269.19 Q145.598 1262.06 143.769 1258.52 Q141.964 1254.96 138.33 1254.96 M138.33 1251.25 Q144.14 1251.25 147.195 1255.86 Q150.274 1260.44 150.274 1269.19 Q150.274 1277.92 147.195 1282.53 Q144.14 1287.11 138.33 1287.11 Q132.519 1287.11 129.441 1282.53 Q126.385 1277.92 126.385 1269.19 Q126.385 1260.44 129.441 1255.86 Q132.519 1251.25 138.33 1251.25 Z" fill="#000000" fill-rule="nonzero" fill-opacity="1" /><path clip-path="url(#clip710)" d="M63.9319 983.35 Q60.3208 983.35 58.4921 986.915 Q56.6865 990.456 56.6865 997.586 Q56.6865 1004.69 58.4921 1008.26 Q60.3208 1011.8 63.9319 1011.8 Q67.5661 1011.8 69.3717 1008.26 Q71.2004 1004.69 71.2004 997.586 Q71.2004 990.456 69.3717 986.915 Q67.5661 983.35 63.9319 983.35 M63.9319 979.646 Q69.742 979.646 72.7976 984.253 Q75.8763 988.836 75.8763 997.586 Q75.8763 1006.31 72.7976 1010.92 Q69.742 1015.5 63.9319 1015.5 Q58.1217 1015.5 55.043 1010.92 Q51.9875 1006.31 51.9875 997.586 Q51.9875 988.836 55.043 984.253 Q58.1217 979.646 63.9319 979.646 Z" fill="#000000" fill-rule="nonzero" fill-opacity="1" /><path clip-path="url(#clip710)" d="M84.0938 1008.95 L88.978 1008.95 L88.978 1014.83 L84.0938 1014.83 L84.0938 1008.95 Z" fill="#000000" fill-rule="nonzero" fill-opacity="1" /><path clip-path="url(#clip710)" d="M103.191 1010.9 L119.51 1010.9 L119.51 1014.83 L97.566 1014.83 L97.566 1010.9 Q100.228 1008.14 104.811 1003.51 Q109.418 998.859 110.598 997.516 Q112.844 994.993 113.723 993.257 Q114.626 991.498 114.626 989.808 Q114.626 987.054 112.682 985.317 Q110.76 983.581 107.658 983.581 Q105.459 983.581 103.006 984.345 Q100.575 985.109 97.7974 986.66 L97.7974 981.938 Q100.621 980.804 103.075 980.225 Q105.529 979.646 107.566 979.646 Q112.936 979.646 116.131 982.331 Q119.325 985.016 119.325 989.507 Q119.325 991.637 118.515 993.558 Q117.728 995.456 115.621 998.049 Q115.043 998.72 111.941 1001.94 Q108.839 1005.13 103.191 1010.9 Z" fill="#000000" fill-rule="nonzero" fill-opacity="1" /><path clip-path="url(#clip710)" d="M129.371 980.271 L147.728 980.271 L147.728 984.206 L133.654 984.206 L133.654 992.678 Q134.672 992.331 135.691 992.169 Q136.709 991.984 137.728 991.984 Q143.515 991.984 146.894 995.155 Q150.274 998.327 150.274 1003.74 Q150.274 1009.32 146.802 1012.42 Q143.33 1015.5 137.01 1015.5 Q134.834 1015.5 132.566 1015.13 Q130.32 1014.76 127.913 1014.02 L127.913 1009.32 Q129.996 1010.46 132.219 1011.01 Q134.441 1011.57 136.918 1011.57 Q140.922 1011.57 143.26 1009.46 Q145.598 1007.35 145.598 1003.74 Q145.598 1000.13 143.26 998.026 Q140.922 995.919 136.918 995.919 Q135.043 995.919 133.168 996.336 Q131.316 996.753 129.371 997.632 L129.371 980.271 Z" fill="#000000" fill-rule="nonzero" fill-opacity="1" /><path clip-path="url(#clip710)" d="M62.9365 711.742 Q59.3254 711.742 57.4967 715.307 Q55.6912 718.849 55.6912 725.978 Q55.6912 733.085 57.4967 736.65 Q59.3254 740.191 62.9365 740.191 Q66.5707 740.191 68.3763 736.65 Q70.205 733.085 70.205 725.978 Q70.205 718.849 68.3763 715.307 Q66.5707 711.742 62.9365 711.742 M62.9365 708.039 Q68.7467 708.039 71.8022 712.645 Q74.8809 717.228 74.8809 725.978 Q74.8809 734.705 71.8022 739.312 Q68.7467 743.895 62.9365 743.895 Q57.1264 743.895 54.0477 739.312 Q50.9921 734.705 50.9921 725.978 Q50.9921 717.228 54.0477 712.645 Q57.1264 708.039 62.9365 708.039 Z" fill="#000000" fill-rule="nonzero" fill-opacity="1" /><path clip-path="url(#clip710)" d="M83.0984 737.344 L87.9827 737.344 L87.9827 743.224 L83.0984 743.224 L83.0984 737.344 Z" fill="#000000" fill-rule="nonzero" fill-opacity="1" /><path clip-path="url(#clip710)" d="M98.2141 708.664 L116.57 708.664 L116.57 712.599 L102.496 712.599 L102.496 721.071 Q103.515 720.724 104.534 720.562 Q105.552 720.376 106.571 720.376 Q112.358 720.376 115.737 723.548 Q119.117 726.719 119.117 732.136 Q119.117 737.714 115.645 740.816 Q112.172 743.895 105.853 743.895 Q103.677 743.895 101.409 743.524 Q99.1632 743.154 96.7558 742.413 L96.7558 737.714 Q98.8391 738.849 101.061 739.404 Q103.284 739.96 105.76 739.96 Q109.765 739.96 112.103 737.853 Q114.441 735.747 114.441 732.136 Q114.441 728.525 112.103 726.418 Q109.765 724.312 105.76 724.312 Q103.885 724.312 102.01 724.728 Q100.159 725.145 98.2141 726.025 L98.2141 708.664 Z" fill="#000000" fill-rule="nonzero" fill-opacity="1" /><path clip-path="url(#clip710)" d="M138.33 711.742 Q134.719 711.742 132.89 715.307 Q131.084 718.849 131.084 725.978 Q131.084 733.085 132.89 736.65 Q134.719 740.191 138.33 740.191 Q141.964 740.191 143.769 736.65 Q145.598 733.085 145.598 725.978 Q145.598 718.849 143.769 715.307 Q141.964 711.742 138.33 711.742 M138.33 708.039 Q144.14 708.039 147.195 712.645 Q150.274 717.228 150.274 725.978 Q150.274 734.705 147.195 739.312 Q144.14 743.895 138.33 743.895 Q132.519 743.895 129.441 739.312 Q126.385 734.705 126.385 725.978 Q126.385 717.228 129.441 712.645 Q132.519 708.039 138.33 708.039 Z" fill="#000000" fill-rule="nonzero" fill-opacity="1" /><path clip-path="url(#clip710)" d="M63.9319 440.135 Q60.3208 440.135 58.4921 443.699 Q56.6865 447.241 56.6865 454.371 Q56.6865 461.477 58.4921 465.042 Q60.3208 468.584 63.9319 468.584 Q67.5661 468.584 69.3717 465.042 Q71.2004 461.477 71.2004 454.371 Q71.2004 447.241 69.3717 443.699 Q67.5661 440.135 63.9319 440.135 M63.9319 436.431 Q69.742 436.431 72.7976 441.037 Q75.8763 445.621 75.8763 454.371 Q75.8763 463.098 72.7976 467.704 Q69.742 472.287 63.9319 472.287 Q58.1217 472.287 55.043 467.704 Q51.9875 463.098 51.9875 454.371 Q51.9875 445.621 55.043 441.037 Q58.1217 436.431 63.9319 436.431 Z" fill="#000000" fill-rule="nonzero" fill-opacity="1" /><path clip-path="url(#clip710)" d="M84.0938 465.736 L88.978 465.736 L88.978 471.616 L84.0938 471.616 L84.0938 465.736 Z" fill="#000000" fill-rule="nonzero" fill-opacity="1" /><path clip-path="url(#clip710)" d="M97.9826 437.056 L120.205 437.056 L120.205 439.047 L107.658 471.616 L102.774 471.616 L114.58 440.991 L97.9826 440.991 L97.9826 437.056 Z" fill="#000000" fill-rule="nonzero" fill-opacity="1" /><path clip-path="url(#clip710)" d="M129.371 437.056 L147.728 437.056 L147.728 440.991 L133.654 440.991 L133.654 449.463 Q134.672 449.116 135.691 448.954 Q136.709 448.769 137.728 448.769 Q143.515 448.769 146.894 451.94 Q150.274 455.111 150.274 460.528 Q150.274 466.107 146.802 469.209 Q143.33 472.287 137.01 472.287 Q134.834 472.287 132.566 471.917 Q130.32 471.547 127.913 470.806 L127.913 466.107 Q129.996 467.241 132.219 467.797 Q134.441 468.352 136.918 468.352 Q140.922 468.352 143.26 466.246 Q145.598 464.139 145.598 460.528 Q145.598 456.917 143.26 454.811 Q140.922 452.704 136.918 452.704 Q135.043 452.704 133.168 453.121 Q131.316 453.537 129.371 454.417 L129.371 437.056 Z" fill="#000000" fill-rule="nonzero" fill-opacity="1" /><path clip-path="url(#clip710)" d="M53.7467 196.073 L61.3856 196.073 L61.3856 169.708 L53.0754 171.374 L53.0754 167.115 L61.3393 165.448 L66.0152 165.448 L66.0152 196.073 L73.654 196.073 L73.654 200.008 L53.7467 200.008 L53.7467 196.073 Z" fill="#000000" fill-rule="nonzero" fill-opacity="1" /><path clip-path="url(#clip710)" d="M83.0984 194.129 L87.9827 194.129 L87.9827 200.008 L83.0984 200.008 L83.0984 194.129 Z" fill="#000000" fill-rule="nonzero" fill-opacity="1" /><path clip-path="url(#clip710)" d="M108.168 168.527 Q104.557 168.527 102.728 172.092 Q100.922 175.634 100.922 182.763 Q100.922 189.87 102.728 193.434 Q104.557 196.976 108.168 196.976 Q111.802 196.976 113.608 193.434 Q115.436 189.87 115.436 182.763 Q115.436 175.634 113.608 172.092 Q111.802 168.527 108.168 168.527 M108.168 164.823 Q113.978 164.823 117.033 169.43 Q120.112 174.013 120.112 182.763 Q120.112 191.49 117.033 196.096 Q113.978 200.68 108.168 200.68 Q102.358 200.68 99.2789 196.096 Q96.2234 191.49 96.2234 182.763 Q96.2234 174.013 99.2789 169.43 Q102.358 164.823 108.168 164.823 Z" fill="#000000" fill-rule="nonzero" fill-opacity="1" /><path clip-path="url(#clip710)" d="M138.33 168.527 Q134.719 168.527 132.89 172.092 Q131.084 175.634 131.084 182.763 Q131.084 189.87 132.89 193.434 Q134.719 196.976 138.33 196.976 Q141.964 196.976 143.769 193.434 Q145.598 189.87 145.598 182.763 Q145.598 175.634 143.769 172.092 Q141.964 168.527 138.33 168.527 M138.33 164.823 Q144.14 164.823 147.195 169.43 Q150.274 174.013 150.274 182.763 Q150.274 191.49 147.195 196.096 Q144.14 200.68 138.33 200.68 Q132.519 200.68 129.441 196.096 Q126.385 191.49 126.385 182.763 Q126.385 174.013 129.441 169.43 Q132.519 164.823 138.33 164.823 Z" fill="#000000" fill-rule="nonzero" fill-opacity="1" /><polyline clip-path="url(#clip712)" style="stroke:#000000; stroke-linecap:round; stroke-linejoin:round; stroke-width:8; stroke-opacity:1; fill:none" points="247.59,1204.66 249.633,1197.09 251.677,1224.34 253.721,1349.55 255.765,1254.59 257.809,1264.32 259.853,1252.67 261.896,1348.56 263.94,1285.49 265.984,1302.19 268.028,1198.02 270.072,1353.9 272.116,1187.9 274.16,1282.73 276.203,1315.36 278.247,1378.93 280.291,1194.58 282.335,1319.94 284.379,1295.79 286.423,1315.16 288.467,1381.36 290.51,1275.19 292.554,1258.16 294.598,1280.64 296.642,1343.13 298.686,1167.89 300.73,1112.68 302.774,1250.05 304.817,1217.77 306.861,1413.61 308.905,1298.46 310.949,1321.1 312.993,1293.49 315.037,1272.99 317.08,1331.99 319.124,1266.11 321.168,1324.44 323.212,1303.14 325.256,1331.69 327.3,1354.02 329.344,1283.71 331.387,1237.26 333.431,1310.35 335.475,1264.73 337.519,1374.38 339.563,1402.19 341.607,1223.37 343.651,1292.36 345.694,1271.41 347.738,1213.04 349.782,1253.74 351.826,1323.99 353.87,1232.15 355.914,1255.15 357.957,1219.16 360.001,1148.15 362.045,1183.81 364.089,1156.07 366.133,1292.55 368.177,1207.09 370.221,1314.36 372.264,1270.01 374.308,1308.68 376.352,1302.22 378.396,1328 380.44,1242.21 382.484,1309.8 384.528,1319.87 386.571,1257.6 388.615,1225.5 390.659,1288.2 392.703,1285.17 394.747,1273.02 396.791,1375.9 398.834,1278.53 400.878,1214.57 402.922,1210.32 404.966,1302.21 407.01,1271.24 409.054,1229.92 411.098,1289.1 413.141,1345.19 415.185,1271.49 417.229,1175.87 419.273,1230.33 421.317,1158.45 423.361,1333.31 425.405,1213.55 427.448,1284.51 429.492,1324.2 431.536,1236.49 433.58,1355.86 435.624,1232.71 437.668,1325.5 439.712,1236.32 441.755,1249.76 443.799,1235.14 445.843,1183.03 447.887,1308.86 449.931,1255.69 451.975,1345.22 454.018,1233.66 456.062,1345.55 458.106,1202.12 460.15,1288.81 462.194,1291.35 464.238,1261.58 466.282,1323.78 468.325,1200.85 470.369,1298.68 472.413,1233.51 474.457,1348.07 476.501,1270.89 478.545,1300.95 480.589,1316.9 482.632,1276.6 484.676,1319.45 486.72,1178.31 488.764,1232.04 490.808,1339.5 492.852,1309.25 494.895,1445.72 496.939,1274.83 498.983,1192.15 501.027,1319.88 503.071,1228.3 505.115,1187.53 507.159,1276.5 509.202,1302.5 511.246,1237.59 513.29,1226.79 515.334,1253.24 517.378,1351.64 519.422,1306.43 521.466,1239.6 523.509,1191.74 525.553,1202.38 527.597,1328.96 529.641,1412.15 531.685,1361 533.729,1264.98 535.772,1243.5 537.816,1264.2 539.86,1344.08 541.904,1204.05 543.948,1291.26 545.992,1282.57 548.036,1309.12 550.079,1161.41 552.123,1285.34 554.167,1239.23 556.211,1211.3 558.255,1250.86 560.299,1264.99 562.343,1307.55 564.386,1343.33 566.43,1324.47 568.474,1261.97 570.518,1244.49 572.562,1237.87 574.606,1222.12 576.65,1165.41 578.693,1291.01 580.737,1204.37 582.781,1213.16 584.825,1307.74 586.869,1256.35 588.913,1304.7 590.956,1260.05 593,1286.19 595.044,1272.68 597.088,1290.39 599.132,1307.2 601.176,1341.62 603.22,1219.37 605.263,1315.79 607.307,1319.11 609.351,1224.82 611.395,1211.29 613.439,1312.98 615.483,1284.85 617.527,1295.97 619.57,1213.74 621.614,1378.78 623.658,1220.21 625.702,1308.54 627.746,1148.39 629.79,1365.16 631.833,1259.07 633.877,1170.42 635.921,1204.32 637.965,1236.25 640.009,1237.56 642.053,1325.59 644.097,1269.11 646.14,1227.53 648.184,1385.86 650.228,1308.81 652.272,1310.36 654.316,1389.68 656.36,1182.81 658.404,1326.69 660.447,1186.11 662.491,1306.11 664.535,1271.96 666.579,1331.06 668.623,1185.7 670.667,1198.92 672.711,1309.33 674.754,1357.31 676.798,1288.28 678.842,1224.59 680.886,1187.05 682.93,1317.38 684.974,1254.68 687.017,1267.85 689.061,1283.01 691.105,1355.56 693.149,1246.89 695.193,1219.97 697.237,1228.94 699.281,1234.45 701.324,1257.3 703.368,1268.64 705.412,1133.62 707.456,1297.46 709.5,1206.2 711.544,1328.68 713.588,1263.99 715.631,1233.41 717.675,1341.07 719.719,1209.48 721.763,1132.35 723.807,1280.89 725.851,1074.6 727.894,1368.82 729.938,1279.62 731.982,1302.59 734.026,1199.64 736.07,1302.12 738.114,1308.75 740.158,1368.71 742.201,1270.05 744.245,1158.3 746.289,1236.24 748.333,1309.49 750.377,1222.49 752.421,1321.84 754.465,1255.36 756.508,1187.16 758.552,1326.39 760.596,1280.96 762.64,1335.17 764.684,1307.57 766.728,1296.25 768.771,1410.59 770.815,1210.75 772.859,1259.89 774.903,1197.42 776.947,1327.61 778.991,1239.42 781.035,1207.98 783.078,1241.8 785.122,1259.85 787.166,1203.87 789.21,1295.51 791.254,1250.35 793.298,1206.19 795.342,1242.74 797.385,1249.6 799.429,1306.17 801.473,1221.59 803.517,1303.46 805.561,1307.75 807.605,1321.4 809.649,1317.78 811.692,1272.04 813.736,1264.64 815.78,1346.22 817.824,1258.44 819.868,1308.82 821.912,1282.77 823.955,1345.74 825.999,1253.52 828.043,1209.72 830.087,1247.07 832.131,1205.57 834.175,1246.23 836.219,1323.11 838.262,1195.88 840.306,1228.21 842.35,1266.94 844.394,1154.82 846.438,1217.5 848.482,1257.7 850.526,1297.15 852.569,1256.51 854.613,1360.4 856.657,1262.32 858.701,1256.58 860.745,1239.51 862.789,1205.98 864.832,1281.24 866.876,1237 868.92,1268.12 870.964,1225.81 873.008,1273.45 875.052,1171.05 877.096,1249.28 879.139,1225.02 881.183,1288.55 883.227,1350.03 885.271,1179.12 887.315,1246.22 889.359,1288.22 891.403,1351.98 893.446,1331.4 895.49,1287.85 897.534,1298.89 899.578,1399.77 901.622,1242.03 903.666,1337.57 905.71,1251.97 907.753,1226.65 909.797,1255.72 911.841,1272.66 913.885,1271.36 915.929,1355.03 917.973,1242.94 920.016,1262.28 922.06,1277.18 924.104,1303.33 926.148,1112.92 928.192,1287.15 930.236,1257.75 932.28,1202.89 934.323,1245.45 936.367,1403.93 938.411,1209.46 940.455,1310.67 942.499,1301.46 944.543,1237.4 946.587,1279.11 948.63,1179.14 950.674,1340.75 952.718,1214.56 954.762,1315.34 956.806,1205.1 958.85,1306.74 960.893,1183.11 962.937,1198.45 964.981,1255.44 967.025,1297.51 969.069,1229.83 971.113,1273.62 973.157,1312.36 975.2,1343.11 977.244,1179.57 979.288,1201.98 981.332,1185.62 983.376,1293.09 985.42,1208.66 987.464,1265.43 989.507,1232.77 991.551,1248.98 993.595,1213.31 995.639,1288.71 997.683,1234 999.727,1294.08 1001.77,1237.72 1003.81,1170.99 1005.86,1244.15 1007.9,1274.63 1009.95,1223.84 1011.99,1209.62 1014.03,1139.29 1016.08,1236.97 1018.12,1299.03 1020.17,1226.27 1022.21,1255.09 1024.25,1218.74 1026.3,1343.9 1028.34,1297.15 1030.38,1254.93 1032.43,1177.74 1034.47,1203.76 1036.52,1308.61 1038.56,1103.93 1040.6,1189.95 1042.65,1162.37 1044.69,1126.81 1046.74,1138.58 1048.78,1139.5 1050.82,1010.35 1052.87,1090.15 1054.91,1009.09 1056.95,1137.29 1059,1137.36 1061.04,1057.94 1063.09,1051.9 1065.13,1095.72 1067.17,1110.85 1069.22,1017.4 1071.26,958.275 1073.31,1089.9 1075.35,1098.67 1077.39,975.845 1079.44,1022.18 1081.48,1144.69 1083.52,1083.2 1085.57,1038.9 1087.61,937.785 1089.66,1052.53 1091.7,1066.7 1093.74,1028.69 1095.79,1074.01 1097.83,1049.97 1099.88,994.378 1101.92,1034.76 1103.96,893.99 1106.01,950.436 1108.05,908.58 1110.09,953.064 1112.14,739.59 1114.18,987.876 1116.23,832.96 1118.27,898.495 1120.31,932.658 1122.36,882.477 1124.4,854.392 1126.45,885.279 1128.49,795.968 1130.53,787.754 1132.58,829.324 1134.62,802.229 1136.66,731.876 1138.71,826.503 1140.75,782.945 1142.8,773.487 1144.84,749.384 1146.88,746.074 1148.93,735.374 1150.97,759.2 1153.02,606.368 1155.06,726.996 1157.1,671.445 1159.15,645.804 1161.19,702.146 1163.23,621.876 1165.28,548.225 1167.32,605.616 1169.37,585.103 1171.41,642.101 1173.45,525.274 1175.5,536.82 1177.54,575.735 1179.59,595.538 1181.63,576.692 1183.67,485.905 1185.72,489.363 1187.76,509.271 1189.8,472.02 1191.85,477.184 1193.89,412.627 1195.94,400.562 1197.98,443.941 1200.02,389.586 1202.07,396.902 1204.11,461.353 1206.16,306.603 1208.2,318.42 1210.24,295.105 1212.29,275.767 1214.33,312.685 1216.37,316.686 1218.42,428.537 1220.46,327.959 1222.51,278.112 1224.55,286.06 1226.59,264.04 1228.64,273.647 1230.68,263.13 1232.73,247.744 1234.77,262.929 1236.81,301.32 1238.86,212.928 1240.9,171.974 1242.94,226.508 1244.99,273.923 1247.03,195.923 1249.08,290.849 1251.12,196.961 1253.16,212.195 1255.21,183.093 1257.25,235.35 1259.3,87.9763 1261.34,138.681 1263.38,218.675 1265.43,204.464 1267.47,225.512 1269.51,156.003 1271.56,119.74 1273.6,102.015 1275.65,195.839 1277.69,190.438 1279.73,165.255 1281.78,213.354 1283.82,222.456 1285.87,229.619 1287.91,263.854 1289.95,211.235 1292,161.637 1294.04,154.743 1296.09,201.493 1298.13,240.528 1300.17,237.781 1302.22,270.128 1304.26,131.912 1306.3,273.067 1308.35,253.443 1310.39,159.412 1312.44,201.333 1314.48,283.925 1316.52,303.776 1318.57,267.395 1320.61,328.602 1322.66,282.694 1324.7,200.902 1326.74,415.848 1328.79,338.233 1330.83,343.047 1332.87,414.134 1334.92,395.243 1336.96,383.059 1339.01,389.843 1341.05,354.292 1343.09,437.137 1345.14,375.427 1347.18,440.852 1349.23,367.978 1351.27,539.397 1353.31,454.427 1355.36,495.315 1357.4,591.102 1359.44,504.862 1361.49,516.228 1363.53,554.85 1365.58,587.564 1367.62,634.02 1369.66,572.369 1371.71,508.201 1373.75,636.339 1375.8,699.792 1377.84,617.397 1379.88,503.829 1381.93,680.344 1383.97,741.297 1386.01,719.844 1388.06,744.344 1390.1,830.944 1392.15,780.762 1394.19,753.876 1396.23,809.914 1398.28,732.055 1400.32,805.545 1402.37,841.135 1404.41,911.79 1406.45,819.639 1408.5,847.157 1410.54,878.414 1412.58,772.919 1414.63,836.015 1416.67,919.015 1418.72,848.046 1420.76,841.965 1422.8,913.637 1424.85,877.572 1426.89,942.175 1428.94,886.999 1430.98,875.315 1433.02,969.632 1435.07,801.012 1437.11,982.583 1439.15,936.608 1441.2,1052.51 1443.24,945.489 1445.29,1051.69 1447.33,994.734 1449.37,925.891 1451.42,996.389 1453.46,1023.74 1455.51,1057.99 1457.55,1048.47 1459.59,1059.94 1461.64,1078.18 1463.68,1021.59 1465.72,1122.32 1467.77,1164.19 1469.81,1063.15 1471.86,1079.98 1473.9,1127.41 1475.94,1147.8 1477.99,1093.8 1480.03,1202.33 1482.08,1221.54 1484.12,1150.99 1486.16,1109.74 1488.21,1142.07 1490.25,1093.77 1492.29,1136.65 1494.34,1137.9 1496.38,1121.59 1498.43,1145.06 1500.47,1097.44 1502.51,1203.03 1504.56,1102.36 1506.6,1231.88 1508.65,1203.75 1510.69,1237.62 1512.73,1279.01 1514.78,1313.87 1516.82,1257.31 1518.86,1272.33 1520.91,1270.39 1522.95,1181.73 1525,1134.65 1527.04,1179.22 1529.08,1257.89 1531.13,1186.44 1533.17,1323.28 1535.22,1207.69 1537.26,1238.07 1539.3,1260.06 1541.35,1343.53 1543.39,1314.47 1545.43,1183.92 1547.48,1277.86 1549.52,1333.63 1551.57,1314.55 1553.61,1258.95 1555.65,1107.71 1557.7,1284.03 1559.74,1258.33 1561.79,1202.3 1563.83,1230.67 1565.87,1288.83 1567.92,1189.19 1569.96,1393.42 1572,1245.62 1574.05,1261 1576.09,1261.41 1578.14,1261.77 1580.18,1252.3 1582.22,1237.44 1584.27,1265.95 1586.31,1244 1588.36,1304.78 1590.4,1347.65 1592.44,1229.98 1594.49,1231.41 1596.53,1191.02 1598.57,1279.42 1600.62,1190.11 1602.66,1242.34 1604.71,1324.41 1606.75,1235.58 1608.79,1221.43 1610.84,1266.56 1612.88,1270.36 1614.93,1282.87 1616.97,1320.11 1619.01,1307.21 1621.06,1255.76 1623.1,1374.03 1625.15,1221.38 1627.19,1264.21 1629.23,1275.56 1631.28,1204.26 1633.32,1238.32 1635.36,1196.93 1637.41,1238.81 1639.45,1288.6 1641.5,1147.92 1643.54,1266.34 1645.58,1268.97 1647.63,1357.85 1649.67,1318.86 1651.72,1234.82 1653.76,1222.15 1655.8,1324.12 1657.85,1265.54 1659.89,1226.69 1661.93,1250.32 1663.98,1316.02 1666.02,1344.96 1668.07,1265.07 1670.11,1242.88 1672.15,1409.91 1674.2,1347.36 1676.24,1323.36 1678.29,1303.58 1680.33,1268.15 1682.37,1206.48 1684.42,1169.7 1686.46,1316.08 1688.5,1203.98 1690.55,1250.5 1692.59,1319.19 1694.64,1281.17 1696.68,1285.32 1698.72,1227.45 1700.77,1281.34 1702.81,1223.96 1704.86,1346.1 1706.9,1241.85 1708.94,1243.24 1710.99,1282.25 1713.03,1305.21 1715.07,1168.51 1717.12,1252.51 1719.16,1294.96 1721.21,1302.38 1723.25,1210.94 1725.29,1325.84 1727.34,1290.71 1729.38,1296.42 1731.43,1301.3 1733.47,1353.14 1735.51,1272.93 1737.56,1212.87 1739.6,1241.08 1741.64,1308.55 1743.69,1223.72 1745.73,1173.44 1747.78,1347.16 1749.82,1301.65 1751.86,1288.82 1753.91,1193.61 1755.95,1270.34 1758,1264.44 1760.04,1237.28 1762.08,1312.42 1764.13,1297.02 1766.17,1224.17 1768.21,1246.27 1770.26,1338.84 1772.3,1284.17 1774.35,1237.88 1776.39,1235.82 1778.43,1324.61 1780.48,1405.78 1782.52,1247.17 1784.57,1292.5 1786.61,1265.33 1788.65,1313.23 1790.7,1290.43 1792.74,1206.85 1794.78,1234.37 1796.83,1205.76 1798.87,1329.45 1800.92,1221.89 1802.96,1258.53 1805,1121.77 1807.05,1284.89 1809.09,1283.15 1811.14,1298.84 1813.18,1260.1 1815.22,1289.71 1817.27,1364.48 1819.31,1424.85 1821.35,1272.92 1823.4,1254.96 1825.44,1222.98 1827.49,1145.62 1829.53,1344.22 1831.57,1234.22 1833.62,1241.12 1835.66,1182.5 1837.71,1260.53 1839.75,1316.05 1841.79,1228.32 1843.84,1342.63 1845.88,1238.27 1847.92,1216.25 1849.97,1253.03 1852.01,1345.15 1854.06,1176.39 1856.1,1202.51 1858.14,1326.75 1860.19,1284.46 1862.23,1335.92 1864.28,1300.58 1866.32,1271.55 1868.36,1266.04 1870.41,1369.42 1872.45,1200.41 1874.49,1222.59 1876.54,1161.63 1878.58,1227.58 1880.63,1292.42 1882.67,1305.83 1884.71,1256.69 1886.76,1254.08 1888.8,1203.96 1890.85,1294.82 1892.89,1298.22 1894.93,1291.77 1896.98,1256.37 1899.02,1322.44 1901.06,1322.78 1903.11,1224.32 1905.15,1218.16 1907.2,1292.32 1909.24,1266.49 1911.28,1323.87 1913.33,1352.73 1915.37,1258.32 1917.42,1210.08 1919.46,1263.21 1921.5,1254.41 1923.55,1378.48 1925.59,1303.42 1927.63,1195.78 1929.68,1304.5 1931.72,1253.03 1933.77,1209.72 1935.81,1289.35 1937.85,1237.68 1939.9,1285.61 1941.94,1267.4 1943.99,1250.91 1946.03,1270.55 1948.07,1240.59 1950.12,1251.77 1952.16,1255.33 1954.2,1282.57 1956.25,1284.85 1958.29,1319.06 1960.34,1127.99 1962.38,1274.79 1964.42,1339.12 1966.47,1305.83 1968.51,1229.52 1970.56,1187.91 1972.6,1333.86 1974.64,1182.9 1976.69,1217.03 1978.73,1254.98 1980.78,1298.33 1982.82,1290.24 1984.86,1276.64 1986.91,1197.44 1988.95,1365.77 1990.99,1244.74 1993.04,1351.65 1995.08,1203.65 1997.13,1318.8 1999.17,1267.47 2001.21,1226.09 2003.26,1254.58 2005.3,1260.69 2007.35,1173.86 2009.39,1237.27 2011.43,1243.93 2013.48,1187.95 2015.52,1282.23 2017.56,1296.69 2019.61,1279.9 2021.65,1235.77 2023.7,1206.17 2025.74,1345.41 2027.78,1239.58 2029.83,1205.38 2031.87,1298.66 2033.92,1305.37 2035.96,1350.02 2038,1239.84 2040.05,1319.63 2042.09,1214.53 2044.13,1226.29 2046.18,1297.78 2048.22,1268.49 2050.27,1203.6 2052.31,1273.2 2054.35,1346.85 2056.4,1239.72 2058.44,1327.93 2060.49,1217.7 2062.53,1227.45 2064.57,1244.07 2066.62,1169.6 2068.66,1245.67 2070.7,1231.3 2072.75,1303.52 2074.79,1347.1 2076.84,1301.52 2078.88,1332.43 2080.92,1276.1 2082.97,1228.24 2085.01,1327.8 2087.06,1363.11 2089.1,1218.07 2091.14,1261.89 2093.19,1221.46 2095.23,1176.03 2097.27,1200.28 2099.32,1207.68 2101.36,1337.13 2103.41,1337.16 2105.45,1281.81 2107.49,1243.84 2109.54,1279.9 2111.58,1168.38 2113.63,1218.43 2115.67,1379.72 2117.71,1201.56 2119.76,1303.54 2121.8,1352.47 2123.84,1338.76 2125.89,1358.63 2127.93,1226.29 2129.98,1243.89 2132.02,1348.37 2134.06,1249.49 2136.11,1276.35 2138.15,1288.22 2140.2,1250.33 2142.24,1314.76 2144.28,1250.75 2146.33,1284.56 2148.37,1249.1 2150.41,1207.97 2152.46,1216.18 2154.5,1298.66 2156.55,1343.59 2158.59,1342.71 2160.63,1196.86 2162.68,1257.33 2164.72,1246.47 2166.77,1196.99 2168.81,1250.01 2170.85,1214.62 2172.9,1346.02 2174.94,1305.28 2176.98,1225.47 2179.03,1239.41 2181.07,1153.02 2183.12,1303.76 2185.16,1238.38 2187.2,1340.11 2189.25,1241.95 2191.29,1319.76 2193.34,1171.19 2195.38,1247.1 2197.42,1336.61 2199.47,1209.48 2201.51,1340.85 2203.55,1243.38 2205.6,1248.32 2207.64,1234.58 2209.69,1317.66 2211.73,1277.52 2213.77,1310.52 2215.82,1221.05 2217.86,1196.61 2219.91,1282.05 2221.95,1261.01 2223.99,1271.09 2226.04,1199.16 2228.08,1089.68 2230.12,1245.41 2232.17,1252.95 2234.21,1228.93 2236.26,1269.78 2238.3,1203.11 2240.34,1343.86 2242.39,1309.04 2244.43,1312.34 2246.48,1307.51 2248.52,1296.94 2250.56,1170.25 2252.61,1160.83 2254.65,1237.28 2256.69,1334.69 2258.74,1267.14 2260.78,1251.64 2262.83,1322.34 2264.87,1234.99 2266.91,1325.77 2268.96,1247.96 2271,1253.94 2273.05,1162.35 2275.09,1234.87 2277.13,1271.42 2279.18,1179.47 2281.22,1341.87 2283.26,1195.64 2285.31,1299.59 2287.35,1221.69 2289.4,1284.65 2291.44,1309.87 "/>
<polyline clip-path="url(#clip712)" style="stroke:#0000ff; stroke-linecap:round; stroke-linejoin:round; stroke-width:4; stroke-opacity:1; fill:none" points="300.73,1381.36 300.73,1112.68 "/>
<polyline clip-path="url(#clip712)" style="stroke:#0000ff; stroke-linecap:round; stroke-linejoin:round; stroke-width:4; stroke-opacity:1; fill:none" points="360.001,1413.61 360.001,1148.15 "/>
<polyline clip-path="url(#clip712)" style="stroke:#0000ff; stroke-linecap:round; stroke-linejoin:round; stroke-width:4; stroke-opacity:1; fill:none" points="421.317,1375.9 421.317,1158.45 "/>
<polyline clip-path="url(#clip712)" style="stroke:#0000ff; stroke-linecap:round; stroke-linejoin:round; stroke-width:4; stroke-opacity:1; fill:none" points="486.72,1355.86 486.72,1178.31 "/>
<polyline clip-path="url(#clip712)" style="stroke:#0000ff; stroke-linecap:round; stroke-linejoin:round; stroke-width:4; stroke-opacity:1; fill:none" points="550.079,1378.78 550.079,1161.41 "/>
<polyline clip-path="url(#clip712)" style="stroke:#0000ff; stroke-linecap:round; stroke-linejoin:round; stroke-width:4; stroke-opacity:1; fill:none" points="627.746,1389.68 627.746,1148.39 "/>
<polyline clip-path="url(#clip712)" style="stroke:#0000ff; stroke-linecap:round; stroke-linejoin:round; stroke-width:4; stroke-opacity:1; fill:none" points="725.851,1410.59 725.851,1074.6 "/>
<polyline clip-path="url(#clip712)" style="stroke:#0000ff; stroke-linecap:round; stroke-linejoin:round; stroke-width:4; stroke-opacity:1; fill:none" points="844.394,1399.77 844.394,1154.82 "/>
<polyline clip-path="url(#clip712)" style="stroke:#0000ff; stroke-linecap:round; stroke-linejoin:round; stroke-width:4; stroke-opacity:1; fill:none" points="926.148,1403.93 926.148,1112.92 "/>
<polyline clip-path="url(#clip712)" style="stroke:#0000ff; stroke-linecap:round; stroke-linejoin:round; stroke-width:4; stroke-opacity:1; fill:none" points="1259.3,1424.85 1259.3,87.9763 "/>
<polyline clip-path="url(#clip712)" style="stroke:#0000ff; stroke-linecap:round; stroke-linejoin:round; stroke-width:4; stroke-opacity:1; fill:none" points="1555.65,1343.53 1555.65,1107.71 "/>
<polyline clip-path="url(#clip712)" style="stroke:#0000ff; stroke-linecap:round; stroke-linejoin:round; stroke-width:4; stroke-opacity:1; fill:none" points="1641.5,1393.42 1641.5,1147.92 "/>
<polyline clip-path="url(#clip712)" style="stroke:#0000ff; stroke-linecap:round; stroke-linejoin:round; stroke-width:4; stroke-opacity:1; fill:none" points="1715.07,1405.78 1715.07,1168.51 "/>
<polyline clip-path="url(#clip712)" style="stroke:#0000ff; stroke-linecap:round; stroke-linejoin:round; stroke-width:4; stroke-opacity:1; fill:none" points="1805,1409.91 1805,1121.77 "/>
<polyline clip-path="url(#clip712)" style="stroke:#0000ff; stroke-linecap:round; stroke-linejoin:round; stroke-width:4; stroke-opacity:1; fill:none" points="1876.54,1369.42 1876.54,1161.63 "/>
<polyline clip-path="url(#clip712)" style="stroke:#0000ff; stroke-linecap:round; stroke-linejoin:round; stroke-width:4; stroke-opacity:1; fill:none" points="1960.34,1379.72 1960.34,1127.99 "/>
<polyline clip-path="url(#clip712)" style="stroke:#0000ff; stroke-linecap:round; stroke-linejoin:round; stroke-width:4; stroke-opacity:1; fill:none" points="2007.35,1350.02 2007.35,1173.86 "/>
<polyline clip-path="url(#clip712)" style="stroke:#0000ff; stroke-linecap:round; stroke-linejoin:round; stroke-width:4; stroke-opacity:1; fill:none" points="2066.62,1363.11 2066.62,1169.6 "/>
<polyline clip-path="url(#clip712)" style="stroke:#0000ff; stroke-linecap:round; stroke-linejoin:round; stroke-width:4; stroke-opacity:1; fill:none" points="2111.58,1365.77 2111.58,1168.38 "/>
<polyline clip-path="url(#clip712)" style="stroke:#0000ff; stroke-linecap:round; stroke-linejoin:round; stroke-width:4; stroke-opacity:1; fill:none" points="2181.07,1340.85 2181.07,1153.02 "/>
<polyline clip-path="url(#clip712)" style="stroke:#0000ff; stroke-linecap:round; stroke-linejoin:round; stroke-width:4; stroke-opacity:1; fill:none" points="2228.08,1343.86 2228.08,1089.68 "/>
<polyline clip-path="url(#clip712)" style="stroke:#0000ff; stroke-linecap:round; stroke-linejoin:round; stroke-width:4; stroke-opacity:0.5; fill:none" stroke-dasharray="16, 10" points="288.467,1381.36 306.525,1381.36 "/>
<polyline clip-path="url(#clip712)" style="stroke:#0000ff; stroke-linecap:round; stroke-linejoin:round; stroke-width:4; stroke-opacity:0.5; fill:none" stroke-dasharray="16, 10" points="306.861,1413.61 494.415,1413.61 "/>
<polyline clip-path="url(#clip712)" style="stroke:#0000ff; stroke-linecap:round; stroke-linejoin:round; stroke-width:4; stroke-opacity:0.5; fill:none" stroke-dasharray="16, 10" points="396.791,1375.9 421.317,1375.9 "/>
<polyline clip-path="url(#clip712)" style="stroke:#0000ff; stroke-linecap:round; stroke-linejoin:round; stroke-width:4; stroke-opacity:0.5; fill:none" stroke-dasharray="16, 10" points="433.58,1355.86 486.72,1355.86 "/>
<polyline clip-path="url(#clip712)" style="stroke:#0000ff; stroke-linecap:round; stroke-linejoin:round; stroke-width:4; stroke-opacity:0.5; fill:none" stroke-dasharray="16, 10" points="550.079,1378.78 621.614,1378.78 "/>
<polyline clip-path="url(#clip712)" style="stroke:#0000ff; stroke-linecap:round; stroke-linejoin:round; stroke-width:4; stroke-opacity:0.5; fill:none" stroke-dasharray="16, 10" points="530.539,1389.68 654.316,1389.68 "/>
<polyline clip-path="url(#clip712)" style="stroke:#0000ff; stroke-linecap:round; stroke-linejoin:round; stroke-width:4; stroke-opacity:0.5; fill:none" stroke-dasharray="16, 10" points="529.703,1410.59 768.771,1410.59 "/>
<polyline clip-path="url(#clip712)" style="stroke:#0000ff; stroke-linecap:round; stroke-linejoin:round; stroke-width:4; stroke-opacity:0.5; fill:none" stroke-dasharray="16, 10" points="768.882,1399.77 899.578,1399.77 "/>
<polyline clip-path="url(#clip712)" style="stroke:#0000ff; stroke-linecap:round; stroke-linejoin:round; stroke-width:4; stroke-opacity:0.5; fill:none" stroke-dasharray="16, 10" points="768.84,1403.93 936.367,1403.93 "/>
<polyline clip-path="url(#clip712)" style="stroke:#0000ff; stroke-linecap:round; stroke-linejoin:round; stroke-width:4; stroke-opacity:0.5; fill:none" stroke-dasharray="16, 10" points="495.145,1424.85 1819.31,1424.85 "/>
<polyline clip-path="url(#clip712)" style="stroke:#0000ff; stroke-linecap:round; stroke-linejoin:round; stroke-width:4; stroke-opacity:0.5; fill:none" stroke-dasharray="16, 10" points="1541.35,1343.53 1569.46,1343.53 "/>
<polyline clip-path="url(#clip712)" style="stroke:#0000ff; stroke-linecap:round; stroke-linejoin:round; stroke-width:4; stroke-opacity:0.5; fill:none" stroke-dasharray="16, 10" points="1569.96,1393.42 1671.95,1393.42 "/>
<polyline clip-path="url(#clip712)" style="stroke:#0000ff; stroke-linecap:round; stroke-linejoin:round; stroke-width:4; stroke-opacity:0.5; fill:none" stroke-dasharray="16, 10" points="1672.29,1405.78 1780.48,1405.78 "/>
<polyline clip-path="url(#clip712)" style="stroke:#0000ff; stroke-linecap:round; stroke-linejoin:round; stroke-width:4; stroke-opacity:0.5; fill:none" stroke-dasharray="16, 10" points="1672.15,1409.91 1818.8,1409.91 "/>
<polyline clip-path="url(#clip712)" style="stroke:#0000ff; stroke-linecap:round; stroke-linejoin:round; stroke-width:4; stroke-opacity:0.5; fill:none" stroke-dasharray="16, 10" points="1870.41,1369.42 1923.4,1369.42 "/>
<polyline clip-path="url(#clip712)" style="stroke:#0000ff; stroke-linecap:round; stroke-linejoin:round; stroke-width:4; stroke-opacity:0.5; fill:none" stroke-dasharray="16, 10" points="1819.92,1379.72 2115.67,1379.72 "/>
<polyline clip-path="url(#clip712)" style="stroke:#0000ff; stroke-linecap:round; stroke-linejoin:round; stroke-width:4; stroke-opacity:0.5; fill:none" stroke-dasharray="16, 10" points="1993.06,1350.02 2035.96,1350.02 "/>
<polyline clip-path="url(#clip712)" style="stroke:#0000ff; stroke-linecap:round; stroke-linejoin:round; stroke-width:4; stroke-opacity:0.5; fill:none" stroke-dasharray="16, 10" points="1989,1363.11 2087.06,1363.11 "/>
<polyline clip-path="url(#clip712)" style="stroke:#0000ff; stroke-linecap:round; stroke-linejoin:round; stroke-width:4; stroke-opacity:0.5; fill:none" stroke-dasharray="16, 10" points="1988.95,1365.77 2115.49,1365.77 "/>
<polyline clip-path="url(#clip712)" style="stroke:#0000ff; stroke-linecap:round; stroke-linejoin:round; stroke-width:4; stroke-opacity:0.5; fill:none" stroke-dasharray="16, 10" points="2173.16,1340.85 2201.51,1340.85 "/>
<polyline clip-path="url(#clip712)" style="stroke:#0000ff; stroke-linecap:round; stroke-linejoin:round; stroke-width:4; stroke-opacity:0.5; fill:none" stroke-dasharray="16, 10" points="2173.01,1343.86 2240.34,1343.86 "/>
<polyline clip-path="url(#clip712)" style="stroke:#808080; stroke-linecap:round; stroke-linejoin:round; stroke-width:4; stroke-opacity:1; fill:none" stroke-dasharray="16, 10" points="297.763,1247.02 302.728,1247.02 "/>
<polyline clip-path="url(#clip712)" style="stroke:#808080; stroke-linecap:round; stroke-linejoin:round; stroke-width:4; stroke-opacity:1; fill:none" stroke-dasharray="16, 10" points="352.785,1280.88 365.958,1280.88 "/>
<polyline clip-path="url(#clip712)" style="stroke:#808080; stroke-linecap:round; stroke-linejoin:round; stroke-width:4; stroke-opacity:1; fill:none" stroke-dasharray="16, 10" points="415.278,1267.17 422.588,1267.17 "/>
<polyline clip-path="url(#clip712)" style="stroke:#808080; stroke-linecap:round; stroke-linejoin:round; stroke-width:4; stroke-opacity:1; fill:none" stroke-dasharray="16, 10" points="485.434,1267.08 489.43,1267.08 "/>
<polyline clip-path="url(#clip712)" style="stroke:#808080; stroke-linecap:round; stroke-linejoin:round; stroke-width:4; stroke-opacity:1; fill:none" stroke-dasharray="16, 10" points="548.576,1270.1 551.872,1270.1 "/>
<polyline clip-path="url(#clip712)" style="stroke:#808080; stroke-linecap:round; stroke-linejoin:round; stroke-width:4; stroke-opacity:1; fill:none" stroke-dasharray="16, 10" points="626.206,1269.03 628.883,1269.03 "/>
<polyline clip-path="url(#clip712)" style="stroke:#808080; stroke-linecap:round; stroke-linejoin:round; stroke-width:4; stroke-opacity:1; fill:none" stroke-dasharray="16, 10" points="724.186,1242.59 727.018,1242.59 "/>
<polyline clip-path="url(#clip712)" style="stroke:#808080; stroke-linecap:round; stroke-linejoin:round; stroke-width:4; stroke-opacity:1; fill:none" stroke-dasharray="16, 10" points="836.955,1277.29 849.497,1277.29 "/>
<polyline clip-path="url(#clip712)" style="stroke:#808080; stroke-linecap:round; stroke-linejoin:round; stroke-width:4; stroke-opacity:1; fill:none" stroke-dasharray="16, 10" points="924.586,1258.43 927.855,1258.43 "/>
<polyline clip-path="url(#clip712)" style="stroke:#808080; stroke-linecap:round; stroke-linejoin:round; stroke-width:4; stroke-opacity:1; fill:none" stroke-dasharray="16, 10" points="1151.01,756.414 1388.34,756.414 "/>
<polyline clip-path="url(#clip712)" style="stroke:#808080; stroke-linecap:round; stroke-linejoin:round; stroke-width:4; stroke-opacity:1; fill:none" stroke-dasharray="16, 10" points="1554.06,1225.62 1557.02,1225.62 "/>
<polyline clip-path="url(#clip712)" style="stroke:#808080; stroke-linecap:round; stroke-linejoin:round; stroke-width:4; stroke-opacity:1; fill:none" stroke-dasharray="16, 10" points="1639.71,1270.67 1645.62,1270.67 "/>
<polyline clip-path="url(#clip712)" style="stroke:#808080; stroke-linecap:round; stroke-linejoin:round; stroke-width:4; stroke-opacity:1; fill:none" stroke-dasharray="16, 10" points="1713.3,1287.14 1718.79,1287.14 "/>
<polyline clip-path="url(#clip712)" style="stroke:#808080; stroke-linecap:round; stroke-linejoin:round; stroke-width:4; stroke-opacity:1; fill:none" stroke-dasharray="16, 10" points="1800.08,1265.84 1806.81,1265.84 "/>
<polyline clip-path="url(#clip712)" style="stroke:#808080; stroke-linecap:round; stroke-linejoin:round; stroke-width:4; stroke-opacity:1; fill:none" stroke-dasharray="16, 10" points="1871.66,1265.52 1879.78,1265.52 "/>
<polyline clip-path="url(#clip712)" style="stroke:#808080; stroke-linecap:round; stroke-linejoin:round; stroke-width:4; stroke-opacity:1; fill:none" stroke-dasharray="16, 10" points="1958.99,1253.86 1962.09,1253.86 "/>
<polyline clip-path="url(#clip712)" style="stroke:#808080; stroke-linecap:round; stroke-linejoin:round; stroke-width:4; stroke-opacity:1; fill:none" stroke-dasharray="16, 10" points="1999.44,1261.94 2015.08,1261.94 "/>
<polyline clip-path="url(#clip712)" style="stroke:#808080; stroke-linecap:round; stroke-linejoin:round; stroke-width:4; stroke-opacity:1; fill:none" stroke-dasharray="16, 10" points="2059.58,1266.36 2071.7,1266.36 "/>
<polyline clip-path="url(#clip712)" style="stroke:#808080; stroke-linecap:round; stroke-linejoin:round; stroke-width:4; stroke-opacity:1; fill:none" stroke-dasharray="16, 10" points="2109.77,1267.08 2114.24,1267.08 "/>
<polyline clip-path="url(#clip712)" style="stroke:#808080; stroke-linecap:round; stroke-linejoin:round; stroke-width:4; stroke-opacity:1; fill:none" stroke-dasharray="16, 10" points="2176.44,1246.94 2182.35,1246.94 "/>
<polyline clip-path="url(#clip712)" style="stroke:#808080; stroke-linecap:round; stroke-linejoin:round; stroke-width:4; stroke-opacity:1; fill:none" stroke-dasharray="16, 10" points="2225.54,1216.77 2229.75,1216.77 "/>
<circle clip-path="url(#clip712)" cx="297.763" cy="1247.02" r="14.4" fill="#808080" fill-rule="evenodd" fill-opacity="1" stroke="#000000" stroke-opacity="1" stroke-width="3.2"/>
<circle clip-path="url(#clip712)" cx="302.728" cy="1247.02" r="14.4" fill="#808080" fill-rule="evenodd" fill-opacity="1" stroke="#000000" stroke-opacity="1" stroke-width="3.2"/>
<circle clip-path="url(#clip712)" cx="352.785" cy="1280.88" r="14.4" fill="#808080" fill-rule="evenodd" fill-opacity="1" stroke="#000000" stroke-opacity="1" stroke-width="3.2"/>
<circle clip-path="url(#clip712)" cx="365.958" cy="1280.88" r="14.4" fill="#808080" fill-rule="evenodd" fill-opacity="1" stroke="#000000" stroke-opacity="1" stroke-width="3.2"/>
<circle clip-path="url(#clip712)" cx="415.278" cy="1267.17" r="14.4" fill="#808080" fill-rule="evenodd" fill-opacity="1" stroke="#000000" stroke-opacity="1" stroke-width="3.2"/>
<circle clip-path="url(#clip712)" cx="422.588" cy="1267.17" r="14.4" fill="#808080" fill-rule="evenodd" fill-opacity="1" stroke="#000000" stroke-opacity="1" stroke-width="3.2"/>
<circle clip-path="url(#clip712)" cx="485.434" cy="1267.08" r="14.4" fill="#808080" fill-rule="evenodd" fill-opacity="1" stroke="#000000" stroke-opacity="1" stroke-width="3.2"/>
<circle clip-path="url(#clip712)" cx="489.43" cy="1267.08" r="14.4" fill="#808080" fill-rule="evenodd" fill-opacity="1" stroke="#000000" stroke-opacity="1" stroke-width="3.2"/>
<circle clip-path="url(#clip712)" cx="548.576" cy="1270.1" r="14.4" fill="#808080" fill-rule="evenodd" fill-opacity="1" stroke="#000000" stroke-opacity="1" stroke-width="3.2"/>
<circle clip-path="url(#clip712)" cx="551.872" cy="1270.1" r="14.4" fill="#808080" fill-rule="evenodd" fill-opacity="1" stroke="#000000" stroke-opacity="1" stroke-width="3.2"/>
<circle clip-path="url(#clip712)" cx="626.206" cy="1269.03" r="14.4" fill="#808080" fill-rule="evenodd" fill-opacity="1" stroke="#000000" stroke-opacity="1" stroke-width="3.2"/>
<circle clip-path="url(#clip712)" cx="628.883" cy="1269.03" r="14.4" fill="#808080" fill-rule="evenodd" fill-opacity="1" stroke="#000000" stroke-opacity="1" stroke-width="3.2"/>
<circle clip-path="url(#clip712)" cx="724.186" cy="1242.59" r="14.4" fill="#808080" fill-rule="evenodd" fill-opacity="1" stroke="#000000" stroke-opacity="1" stroke-width="3.2"/>
<circle clip-path="url(#clip712)" cx="727.018" cy="1242.59" r="14.4" fill="#808080" fill-rule="evenodd" fill-opacity="1" stroke="#000000" stroke-opacity="1" stroke-width="3.2"/>
<circle clip-path="url(#clip712)" cx="836.955" cy="1277.29" r="14.4" fill="#808080" fill-rule="evenodd" fill-opacity="1" stroke="#000000" stroke-opacity="1" stroke-width="3.2"/>
<circle clip-path="url(#clip712)" cx="849.497" cy="1277.29" r="14.4" fill="#808080" fill-rule="evenodd" fill-opacity="1" stroke="#000000" stroke-opacity="1" stroke-width="3.2"/>
<circle clip-path="url(#clip712)" cx="924.586" cy="1258.43" r="14.4" fill="#808080" fill-rule="evenodd" fill-opacity="1" stroke="#000000" stroke-opacity="1" stroke-width="3.2"/>
<circle clip-path="url(#clip712)" cx="927.855" cy="1258.43" r="14.4" fill="#808080" fill-rule="evenodd" fill-opacity="1" stroke="#000000" stroke-opacity="1" stroke-width="3.2"/>
<circle clip-path="url(#clip712)" cx="1151.01" cy="756.414" r="14.4" fill="#808080" fill-rule="evenodd" fill-opacity="1" stroke="#000000" stroke-opacity="1" stroke-width="3.2"/>
<circle clip-path="url(#clip712)" cx="1388.34" cy="756.414" r="14.4" fill="#808080" fill-rule="evenodd" fill-opacity="1" stroke="#000000" stroke-opacity="1" stroke-width="3.2"/>
<circle clip-path="url(#clip712)" cx="1554.06" cy="1225.62" r="14.4" fill="#808080" fill-rule="evenodd" fill-opacity="1" stroke="#000000" stroke-opacity="1" stroke-width="3.2"/>
<circle clip-path="url(#clip712)" cx="1557.02" cy="1225.62" r="14.4" fill="#808080" fill-rule="evenodd" fill-opacity="1" stroke="#000000" stroke-opacity="1" stroke-width="3.2"/>
<circle clip-path="url(#clip712)" cx="1639.71" cy="1270.67" r="14.4" fill="#808080" fill-rule="evenodd" fill-opacity="1" stroke="#000000" stroke-opacity="1" stroke-width="3.2"/>
<circle clip-path="url(#clip712)" cx="1645.62" cy="1270.67" r="14.4" fill="#808080" fill-rule="evenodd" fill-opacity="1" stroke="#000000" stroke-opacity="1" stroke-width="3.2"/>
<circle clip-path="url(#clip712)" cx="1713.3" cy="1287.14" r="14.4" fill="#808080" fill-rule="evenodd" fill-opacity="1" stroke="#000000" stroke-opacity="1" stroke-width="3.2"/>
<circle clip-path="url(#clip712)" cx="1718.79" cy="1287.14" r="14.4" fill="#808080" fill-rule="evenodd" fill-opacity="1" stroke="#000000" stroke-opacity="1" stroke-width="3.2"/>
<circle clip-path="url(#clip712)" cx="1800.08" cy="1265.84" r="14.4" fill="#808080" fill-rule="evenodd" fill-opacity="1" stroke="#000000" stroke-opacity="1" stroke-width="3.2"/>
<circle clip-path="url(#clip712)" cx="1806.81" cy="1265.84" r="14.4" fill="#808080" fill-rule="evenodd" fill-opacity="1" stroke="#000000" stroke-opacity="1" stroke-width="3.2"/>
<circle clip-path="url(#clip712)" cx="1871.66" cy="1265.52" r="14.4" fill="#808080" fill-rule="evenodd" fill-opacity="1" stroke="#000000" stroke-opacity="1" stroke-width="3.2"/>
<circle clip-path="url(#clip712)" cx="1879.78" cy="1265.52" r="14.4" fill="#808080" fill-rule="evenodd" fill-opacity="1" stroke="#000000" stroke-opacity="1" stroke-width="3.2"/>
<circle clip-path="url(#clip712)" cx="1958.99" cy="1253.86" r="14.4" fill="#808080" fill-rule="evenodd" fill-opacity="1" stroke="#000000" stroke-opacity="1" stroke-width="3.2"/>
<circle clip-path="url(#clip712)" cx="1962.09" cy="1253.86" r="14.4" fill="#808080" fill-rule="evenodd" fill-opacity="1" stroke="#000000" stroke-opacity="1" stroke-width="3.2"/>
<circle clip-path="url(#clip712)" cx="1999.44" cy="1261.94" r="14.4" fill="#808080" fill-rule="evenodd" fill-opacity="1" stroke="#000000" stroke-opacity="1" stroke-width="3.2"/>
<circle clip-path="url(#clip712)" cx="2015.08" cy="1261.94" r="14.4" fill="#808080" fill-rule="evenodd" fill-opacity="1" stroke="#000000" stroke-opacity="1" stroke-width="3.2"/>
<circle clip-path="url(#clip712)" cx="2059.58" cy="1266.36" r="14.4" fill="#808080" fill-rule="evenodd" fill-opacity="1" stroke="#000000" stroke-opacity="1" stroke-width="3.2"/>
<circle clip-path="url(#clip712)" cx="2071.7" cy="1266.36" r="14.4" fill="#808080" fill-rule="evenodd" fill-opacity="1" stroke="#000000" stroke-opacity="1" stroke-width="3.2"/>
<circle clip-path="url(#clip712)" cx="2109.77" cy="1267.08" r="14.4" fill="#808080" fill-rule="evenodd" fill-opacity="1" stroke="#000000" stroke-opacity="1" stroke-width="3.2"/>
<circle clip-path="url(#clip712)" cx="2114.24" cy="1267.08" r="14.4" fill="#808080" fill-rule="evenodd" fill-opacity="1" stroke="#000000" stroke-opacity="1" stroke-width="3.2"/>
<circle clip-path="url(#clip712)" cx="2176.44" cy="1246.94" r="14.4" fill="#808080" fill-rule="evenodd" fill-opacity="1" stroke="#000000" stroke-opacity="1" stroke-width="3.2"/>
<circle clip-path="url(#clip712)" cx="2182.35" cy="1246.94" r="14.4" fill="#808080" fill-rule="evenodd" fill-opacity="1" stroke="#000000" stroke-opacity="1" stroke-width="3.2"/>
<circle clip-path="url(#clip712)" cx="2225.54" cy="1216.77" r="14.4" fill="#808080" fill-rule="evenodd" fill-opacity="1" stroke="#000000" stroke-opacity="1" stroke-width="3.2"/>
<circle clip-path="url(#clip712)" cx="2229.75" cy="1216.77" r="14.4" fill="#808080" fill-rule="evenodd" fill-opacity="1" stroke="#000000" stroke-opacity="1" stroke-width="3.2"/>
<circle clip-path="url(#clip712)" cx="300.73" cy="1112.68" r="14.4" fill="#ff0000" fill-rule="evenodd" fill-opacity="1" stroke="#000000" stroke-opacity="1" stroke-width="3.2"/>
<circle clip-path="url(#clip712)" cx="360.001" cy="1148.15" r="14.4" fill="#ff0000" fill-rule="evenodd" fill-opacity="1" stroke="#000000" stroke-opacity="1" stroke-width="3.2"/>
<circle clip-path="url(#clip712)" cx="421.317" cy="1158.45" r="14.4" fill="#ff0000" fill-rule="evenodd" fill-opacity="1" stroke="#000000" stroke-opacity="1" stroke-width="3.2"/>
<circle clip-path="url(#clip712)" cx="486.72" cy="1178.31" r="14.4" fill="#ff0000" fill-rule="evenodd" fill-opacity="1" stroke="#000000" stroke-opacity="1" stroke-width="3.2"/>
<circle clip-path="url(#clip712)" cx="550.079" cy="1161.41" r="14.4" fill="#ff0000" fill-rule="evenodd" fill-opacity="1" stroke="#000000" stroke-opacity="1" stroke-width="3.2"/>
<circle clip-path="url(#clip712)" cx="627.746" cy="1148.39" r="14.4" fill="#ff0000" fill-rule="evenodd" fill-opacity="1" stroke="#000000" stroke-opacity="1" stroke-width="3.2"/>
<circle clip-path="url(#clip712)" cx="725.851" cy="1074.6" r="14.4" fill="#ff0000" fill-rule="evenodd" fill-opacity="1" stroke="#000000" stroke-opacity="1" stroke-width="3.2"/>
<circle clip-path="url(#clip712)" cx="844.394" cy="1154.82" r="14.4" fill="#ff0000" fill-rule="evenodd" fill-opacity="1" stroke="#000000" stroke-opacity="1" stroke-width="3.2"/>
<circle clip-path="url(#clip712)" cx="926.148" cy="1112.92" r="14.4" fill="#ff0000" fill-rule="evenodd" fill-opacity="1" stroke="#000000" stroke-opacity="1" stroke-width="3.2"/>
<circle clip-path="url(#clip712)" cx="1259.3" cy="87.9763" r="14.4" fill="#ff0000" fill-rule="evenodd" fill-opacity="1" stroke="#000000" stroke-opacity="1" stroke-width="3.2"/>
<circle clip-path="url(#clip712)" cx="1555.65" cy="1107.71" r="14.4" fill="#ff0000" fill-rule="evenodd" fill-opacity="1" stroke="#000000" stroke-opacity="1" stroke-width="3.2"/>
<circle clip-path="url(#clip712)" cx="1641.5" cy="1147.92" r="14.4" fill="#ff0000" fill-rule="evenodd" fill-opacity="1" stroke="#000000" stroke-opacity="1" stroke-width="3.2"/>
<circle clip-path="url(#clip712)" cx="1715.07" cy="1168.51" r="14.4" fill="#ff0000" fill-rule="evenodd" fill-opacity="1" stroke="#000000" stroke-opacity="1" stroke-width="3.2"/>
<circle clip-path="url(#clip712)" cx="1805" cy="1121.77" r="14.4" fill="#ff0000" fill-rule="evenodd" fill-opacity="1" stroke="#000000" stroke-opacity="1" stroke-width="3.2"/>
<circle clip-path="url(#clip712)" cx="1876.54" cy="1161.63" r="14.4" fill="#ff0000" fill-rule="evenodd" fill-opacity="1" stroke="#000000" stroke-opacity="1" stroke-width="3.2"/>
<circle clip-path="url(#clip712)" cx="1960.34" cy="1127.99" r="14.4" fill="#ff0000" fill-rule="evenodd" fill-opacity="1" stroke="#000000" stroke-opacity="1" stroke-width="3.2"/>
<circle clip-path="url(#clip712)" cx="2007.35" cy="1173.86" r="14.4" fill="#ff0000" fill-rule="evenodd" fill-opacity="1" stroke="#000000" stroke-opacity="1" stroke-width="3.2"/>
<circle clip-path="url(#clip712)" cx="2066.62" cy="1169.6" r="14.4" fill="#ff0000" fill-rule="evenodd" fill-opacity="1" stroke="#000000" stroke-opacity="1" stroke-width="3.2"/>
<circle clip-path="url(#clip712)" cx="2111.58" cy="1168.38" r="14.4" fill="#ff0000" fill-rule="evenodd" fill-opacity="1" stroke="#000000" stroke-opacity="1" stroke-width="3.2"/>
<circle clip-path="url(#clip712)" cx="2181.07" cy="1153.02" r="14.4" fill="#ff0000" fill-rule="evenodd" fill-opacity="1" stroke="#000000" stroke-opacity="1" stroke-width="3.2"/>
<circle clip-path="url(#clip712)" cx="2228.08" cy="1089.68" r="14.4" fill="#ff0000" fill-rule="evenodd" fill-opacity="1" stroke="#000000" stroke-opacity="1" stroke-width="3.2"/>
<path clip-path="url(#clip710)" d="M1789.33 354.418 L2280.54 354.418 L2280.54 95.2176 L1789.33 95.2176  Z" fill="#ffffff" fill-rule="evenodd" fill-opacity="1"/>
<polyline clip-path="url(#clip710)" style="stroke:#000000; stroke-linecap:round; stroke-linejoin:round; stroke-width:4; stroke-opacity:1; fill:none" points="1789.33,354.418 2280.54,354.418 2280.54,95.2176 1789.33,95.2176 1789.33,354.418 "/>
<polyline clip-path="url(#clip710)" style="stroke:#000000; stroke-linecap:round; stroke-linejoin:round; stroke-width:8; stroke-opacity:1; fill:none" points="1813.4,147.058 1957.84,147.058 "/>
<path clip-path="url(#clip710)" d="M2000.33 139.176 L2000.33 143.203 Q1998.53 142.277 1996.58 141.815 Q1994.64 141.352 1992.56 141.352 Q1989.39 141.352 1987.79 142.324 Q1986.21 143.296 1986.21 145.24 Q1986.21 146.722 1987.35 147.578 Q1988.48 148.412 1991.91 149.176 L1993.37 149.5 Q1997.9 150.472 1999.8 152.254 Q2001.72 154.014 2001.72 157.185 Q2001.72 160.796 1998.85 162.902 Q1996.01 165.009 1991.01 165.009 Q1988.92 165.009 1986.65 164.592 Q1984.41 164.199 1981.91 163.388 L1981.91 158.99 Q1984.27 160.217 1986.56 160.842 Q1988.85 161.444 1991.1 161.444 Q1994.11 161.444 1995.73 160.426 Q1997.35 159.384 1997.35 157.509 Q1997.35 155.773 1996.17 154.847 Q1995.01 153.921 1991.05 153.064 L1989.57 152.717 Q1985.61 151.884 1983.85 150.171 Q1982.09 148.435 1982.09 145.426 Q1982.09 141.768 1984.69 139.778 Q1987.28 137.787 1992.05 137.787 Q1994.41 137.787 1996.49 138.134 Q1998.58 138.481 2000.33 139.176 Z" fill="#000000" fill-rule="nonzero" fill-opacity="1" /><path clip-path="url(#clip710)" d="M2008.51 138.412 L2012.77 138.412 L2012.77 164.338 L2008.51 164.338 L2008.51 138.412 M2008.51 128.319 L2012.77 128.319 L2012.77 133.713 L2008.51 133.713 L2008.51 128.319 Z" fill="#000000" fill-rule="nonzero" fill-opacity="1" /><path clip-path="url(#clip710)" d="M2038.74 151.074 Q2038.74 146.444 2036.82 143.898 Q2034.92 141.352 2031.47 141.352 Q2028.04 141.352 2026.12 143.898 Q2024.22 146.444 2024.22 151.074 Q2024.22 155.68 2026.12 158.226 Q2028.04 160.773 2031.47 160.773 Q2034.92 160.773 2036.82 158.226 Q2038.74 155.68 2038.74 151.074 M2043 161.12 Q2043 167.74 2040.06 170.958 Q2037.12 174.199 2031.05 174.199 Q2028.81 174.199 2026.82 173.851 Q2024.83 173.527 2022.95 172.833 L2022.95 168.689 Q2024.83 169.708 2026.65 170.194 Q2028.48 170.68 2030.38 170.68 Q2034.57 170.68 2036.65 168.481 Q2038.74 166.305 2038.74 161.884 L2038.74 159.777 Q2037.42 162.069 2035.36 163.203 Q2033.3 164.338 2030.43 164.338 Q2025.66 164.338 2022.74 160.703 Q2019.83 157.069 2019.83 151.074 Q2019.83 145.055 2022.74 141.421 Q2025.66 137.787 2030.43 137.787 Q2033.3 137.787 2035.36 138.921 Q2037.42 140.055 2038.74 142.347 L2038.74 138.412 L2043 138.412 L2043 161.12 Z" fill="#000000" fill-rule="nonzero" fill-opacity="1" /><path clip-path="url(#clip710)" d="M2073.32 148.689 L2073.32 164.338 L2069.06 164.338 L2069.06 148.828 Q2069.06 145.148 2067.63 143.319 Q2066.19 141.49 2063.32 141.49 Q2059.87 141.49 2057.88 143.69 Q2055.89 145.889 2055.89 149.685 L2055.89 164.338 L2051.61 164.338 L2051.61 138.412 L2055.89 138.412 L2055.89 142.44 Q2057.42 140.102 2059.48 138.944 Q2061.56 137.787 2064.27 137.787 Q2068.74 137.787 2071.03 140.565 Q2073.32 143.319 2073.32 148.689 Z" fill="#000000" fill-rule="nonzero" fill-opacity="1" /><path clip-path="url(#clip710)" d="M2093.6 151.305 Q2088.44 151.305 2086.45 152.486 Q2084.45 153.666 2084.45 156.514 Q2084.45 158.782 2085.94 160.125 Q2087.44 161.444 2090.01 161.444 Q2093.55 161.444 2095.68 158.944 Q2097.83 156.421 2097.83 152.254 L2097.83 151.305 L2093.6 151.305 M2102.09 149.546 L2102.09 164.338 L2097.83 164.338 L2097.83 160.402 Q2096.38 162.763 2094.2 163.898 Q2092.02 165.009 2088.88 165.009 Q2084.89 165.009 2082.53 162.787 Q2080.2 160.541 2080.2 156.791 Q2080.2 152.416 2083.11 150.194 Q2086.05 147.972 2091.86 147.972 L2097.83 147.972 L2097.83 147.555 Q2097.83 144.615 2095.89 143.018 Q2093.97 141.398 2090.47 141.398 Q2088.25 141.398 2086.14 141.93 Q2084.04 142.463 2082.09 143.527 L2082.09 139.592 Q2084.43 138.69 2086.63 138.25 Q2088.83 137.787 2090.91 137.787 Q2096.54 137.787 2099.32 140.703 Q2102.09 143.62 2102.09 149.546 Z" fill="#000000" fill-rule="nonzero" fill-opacity="1" /><path clip-path="url(#clip710)" d="M2110.87 128.319 L2115.13 128.319 L2115.13 164.338 L2110.87 164.338 L2110.87 128.319 Z" fill="#000000" fill-rule="nonzero" fill-opacity="1" /><polyline clip-path="url(#clip710)" style="stroke:#0000ff; stroke-linecap:round; stroke-linejoin:round; stroke-width:4; stroke-opacity:1; fill:none" points="1813.4,198.898 1957.84,198.898 "/>
<path clip-path="url(#clip710)" d="M1986.19 212.289 L1986.19 226.039 L1981.91 226.039 L1981.91 190.252 L1986.19 190.252 L1986.19 194.187 Q1987.53 191.872 1989.57 190.761 Q1991.63 189.627 1994.48 189.627 Q1999.2 189.627 2002.14 193.377 Q2005.1 197.127 2005.1 203.238 Q2005.1 209.349 2002.14 213.099 Q1999.2 216.849 1994.48 216.849 Q1991.63 216.849 1989.57 215.738 Q1987.53 214.603 1986.19 212.289 M2000.68 203.238 Q2000.68 198.539 1998.74 195.877 Q1996.82 193.192 1993.44 193.192 Q1990.06 193.192 1988.11 195.877 Q1986.19 198.539 1986.19 203.238 Q1986.19 207.937 1988.11 210.622 Q1990.06 213.284 1993.44 213.284 Q1996.82 213.284 1998.74 210.622 Q2000.68 207.937 2000.68 203.238 Z" fill="#000000" fill-rule="nonzero" fill-opacity="1" /><path clip-path="url(#clip710)" d="M2027.19 194.233 Q2026.47 193.817 2025.61 193.631 Q2024.78 193.423 2023.76 193.423 Q2020.15 193.423 2018.21 195.784 Q2016.28 198.122 2016.28 202.52 L2016.28 216.178 L2012 216.178 L2012 190.252 L2016.28 190.252 L2016.28 194.28 Q2017.63 191.918 2019.78 190.784 Q2021.93 189.627 2025.01 189.627 Q2025.45 189.627 2025.98 189.696 Q2026.52 189.743 2027.16 189.858 L2027.19 194.233 Z" fill="#000000" fill-rule="nonzero" fill-opacity="1" /><path clip-path="url(#clip710)" d="M2040.66 193.238 Q2037.23 193.238 2035.24 195.923 Q2033.25 198.585 2033.25 203.238 Q2033.25 207.891 2035.22 210.576 Q2037.21 213.238 2040.66 213.238 Q2044.06 213.238 2046.05 210.553 Q2048.04 207.867 2048.04 203.238 Q2048.04 198.631 2046.05 195.946 Q2044.06 193.238 2040.66 193.238 M2040.66 189.627 Q2046.21 189.627 2049.39 193.238 Q2052.56 196.849 2052.56 203.238 Q2052.56 209.604 2049.39 213.238 Q2046.21 216.849 2040.66 216.849 Q2035.08 216.849 2031.91 213.238 Q2028.76 209.604 2028.76 203.238 Q2028.76 196.849 2031.91 193.238 Q2035.08 189.627 2040.66 189.627 Z" fill="#000000" fill-rule="nonzero" fill-opacity="1" /><path clip-path="url(#clip710)" d="M2079.8 195.229 Q2081.4 192.358 2083.62 190.993 Q2085.84 189.627 2088.85 189.627 Q2092.9 189.627 2095.1 192.474 Q2097.3 195.298 2097.3 200.529 L2097.3 216.178 L2093.02 216.178 L2093.02 200.668 Q2093.02 196.942 2091.7 195.136 Q2090.38 193.33 2087.67 193.33 Q2084.36 193.33 2082.44 195.53 Q2080.52 197.729 2080.52 201.525 L2080.52 216.178 L2076.24 216.178 L2076.24 200.668 Q2076.24 196.918 2074.92 195.136 Q2073.6 193.33 2070.84 193.33 Q2067.58 193.33 2065.66 195.553 Q2063.74 197.752 2063.74 201.525 L2063.74 216.178 L2059.45 216.178 L2059.45 190.252 L2063.74 190.252 L2063.74 194.28 Q2065.2 191.895 2067.23 190.761 Q2069.27 189.627 2072.07 189.627 Q2074.89 189.627 2076.86 191.062 Q2078.85 192.497 2079.8 195.229 Z" fill="#000000" fill-rule="nonzero" fill-opacity="1" /><path clip-path="url(#clip710)" d="M2105.8 190.252 L2110.06 190.252 L2110.06 216.178 L2105.8 216.178 L2105.8 190.252 M2105.8 180.159 L2110.06 180.159 L2110.06 185.553 L2105.8 185.553 L2105.8 180.159 Z" fill="#000000" fill-rule="nonzero" fill-opacity="1" /><path clip-path="url(#clip710)" d="M2140.52 200.529 L2140.52 216.178 L2136.26 216.178 L2136.26 200.668 Q2136.26 196.988 2134.82 195.159 Q2133.39 193.33 2130.52 193.33 Q2127.07 193.33 2125.08 195.53 Q2123.09 197.729 2123.09 201.525 L2123.09 216.178 L2118.81 216.178 L2118.81 190.252 L2123.09 190.252 L2123.09 194.28 Q2124.62 191.942 2126.68 190.784 Q2128.76 189.627 2131.47 189.627 Q2135.94 189.627 2138.23 192.405 Q2140.52 195.159 2140.52 200.529 Z" fill="#000000" fill-rule="nonzero" fill-opacity="1" /><path clip-path="url(#clip710)" d="M2171.19 202.15 L2171.19 204.233 L2151.61 204.233 Q2151.89 208.631 2154.25 210.946 Q2156.63 213.238 2160.87 213.238 Q2163.32 213.238 2165.61 212.636 Q2167.93 212.034 2170.2 210.83 L2170.2 214.858 Q2167.9 215.83 2165.5 216.34 Q2163.09 216.849 2160.61 216.849 Q2154.41 216.849 2150.77 213.238 Q2147.16 209.627 2147.16 203.469 Q2147.16 197.104 2150.59 193.377 Q2154.04 189.627 2159.87 189.627 Q2165.1 189.627 2168.13 193.006 Q2171.19 196.363 2171.19 202.15 M2166.93 200.9 Q2166.88 197.405 2164.96 195.321 Q2163.07 193.238 2159.92 193.238 Q2156.35 193.238 2154.2 195.252 Q2152.07 197.266 2151.75 200.923 L2166.93 200.9 Z" fill="#000000" fill-rule="nonzero" fill-opacity="1" /><path clip-path="url(#clip710)" d="M2199.73 200.529 L2199.73 216.178 L2195.47 216.178 L2195.47 200.668 Q2195.47 196.988 2194.04 195.159 Q2192.6 193.33 2189.73 193.33 Q2186.28 193.33 2184.29 195.53 Q2182.3 197.729 2182.3 201.525 L2182.3 216.178 L2178.02 216.178 L2178.02 190.252 L2182.3 190.252 L2182.3 194.28 Q2183.83 191.942 2185.89 190.784 Q2187.97 189.627 2190.68 189.627 Q2195.15 189.627 2197.44 192.405 Q2199.73 195.159 2199.73 200.529 Z" fill="#000000" fill-rule="nonzero" fill-opacity="1" /><path clip-path="url(#clip710)" d="M2226.88 191.247 L2226.88 195.229 Q2225.08 194.233 2223.25 193.747 Q2221.44 193.238 2219.59 193.238 Q2215.45 193.238 2213.16 195.877 Q2210.87 198.492 2210.87 203.238 Q2210.87 207.983 2213.16 210.622 Q2215.45 213.238 2219.59 213.238 Q2221.44 213.238 2223.25 212.752 Q2225.08 212.242 2226.88 211.247 L2226.88 215.182 Q2225.1 216.016 2223.18 216.432 Q2221.28 216.849 2219.13 216.849 Q2213.27 216.849 2209.82 213.168 Q2206.38 209.488 2206.38 203.238 Q2206.38 196.895 2209.85 193.261 Q2213.34 189.627 2219.41 189.627 Q2221.38 189.627 2223.25 190.043 Q2225.13 190.437 2226.88 191.247 Z" fill="#000000" fill-rule="nonzero" fill-opacity="1" /><path clip-path="url(#clip710)" d="M2256.47 202.15 L2256.47 204.233 L2236.88 204.233 Q2237.16 208.631 2239.52 210.946 Q2241.91 213.238 2246.14 213.238 Q2248.6 213.238 2250.89 212.636 Q2253.2 212.034 2255.47 210.83 L2255.47 214.858 Q2253.18 215.83 2250.77 216.34 Q2248.37 216.849 2245.89 216.849 Q2239.69 216.849 2236.05 213.238 Q2232.44 209.627 2232.44 203.469 Q2232.44 197.104 2235.87 193.377 Q2239.32 189.627 2245.15 189.627 Q2250.38 189.627 2253.41 193.006 Q2256.47 196.363 2256.47 202.15 M2252.21 200.9 Q2252.16 197.405 2250.24 195.321 Q2248.34 193.238 2245.19 193.238 Q2241.63 193.238 2239.48 195.252 Q2237.35 197.266 2237.02 200.923 L2252.21 200.9 Z" fill="#000000" fill-rule="nonzero" fill-opacity="1" /><polyline clip-path="url(#clip710)" style="stroke:#808080; stroke-linecap:round; stroke-linejoin:round; stroke-width:4; stroke-opacity:1; fill:none" stroke-dasharray="16, 10" points="1813.4,250.738 1957.84,250.738 "/>
<path clip-path="url(#clip710)" d="M1981.91 242.092 L1986.17 242.092 L1991.49 262.323 L1996.79 242.092 L2001.82 242.092 L2007.14 262.323 L2012.44 242.092 L2016.7 242.092 L2009.92 268.018 L2004.9 268.018 L1999.32 246.768 L1993.71 268.018 L1988.69 268.018 L1981.91 242.092 Z" fill="#000000" fill-rule="nonzero" fill-opacity="1" /><path clip-path="url(#clip710)" d="M2023.16 242.092 L2027.42 242.092 L2027.42 268.018 L2023.16 268.018 L2023.16 242.092 M2023.16 231.999 L2027.42 231.999 L2027.42 237.393 L2023.16 237.393 L2023.16 231.999 Z" fill="#000000" fill-rule="nonzero" fill-opacity="1" /><path clip-path="url(#clip710)" d="M2053.39 246.027 L2053.39 231.999 L2057.65 231.999 L2057.65 268.018 L2053.39 268.018 L2053.39 264.129 Q2052.05 266.443 2049.99 267.578 Q2047.95 268.689 2045.08 268.689 Q2040.38 268.689 2037.42 264.939 Q2034.48 261.189 2034.48 255.078 Q2034.48 248.967 2037.42 245.217 Q2040.38 241.467 2045.08 241.467 Q2047.95 241.467 2049.99 242.601 Q2052.05 243.712 2053.39 246.027 M2038.88 255.078 Q2038.88 259.777 2040.8 262.462 Q2042.74 265.124 2046.12 265.124 Q2049.5 265.124 2051.45 262.462 Q2053.39 259.777 2053.39 255.078 Q2053.39 250.379 2051.45 247.717 Q2049.5 245.032 2046.12 245.032 Q2042.74 245.032 2040.8 247.717 Q2038.88 250.379 2038.88 255.078 Z" fill="#000000" fill-rule="nonzero" fill-opacity="1" /><path clip-path="url(#clip710)" d="M2070.64 234.731 L2070.64 242.092 L2079.41 242.092 L2079.41 245.402 L2070.64 245.402 L2070.64 259.476 Q2070.64 262.647 2071.49 263.55 Q2072.37 264.453 2075.03 264.453 L2079.41 264.453 L2079.41 268.018 L2075.03 268.018 Q2070.1 268.018 2068.23 266.189 Q2066.35 264.337 2066.35 259.476 L2066.35 245.402 L2063.23 245.402 L2063.23 242.092 L2066.35 242.092 L2066.35 234.731 L2070.64 234.731 Z" fill="#000000" fill-rule="nonzero" fill-opacity="1" /><path clip-path="url(#clip710)" d="M2106.56 252.369 L2106.56 268.018 L2102.3 268.018 L2102.3 252.508 Q2102.3 248.828 2100.87 246.999 Q2099.43 245.17 2096.56 245.17 Q2093.11 245.17 2091.12 247.37 Q2089.13 249.569 2089.13 253.365 L2089.13 268.018 L2084.85 268.018 L2084.85 231.999 L2089.13 231.999 L2089.13 246.12 Q2090.66 243.782 2092.72 242.624 Q2094.8 241.467 2097.51 241.467 Q2101.98 241.467 2104.27 244.245 Q2106.56 246.999 2106.56 252.369 Z" fill="#000000" fill-rule="nonzero" fill-opacity="1" /><circle clip-path="url(#clip710)" cx="1885.62" cy="302.578" r="20.48" fill="#ff0000" fill-rule="evenodd" fill-opacity="1" stroke="#000000" stroke-opacity="1" stroke-width="4.55111"/>
<path clip-path="url(#clip710)" d="M2002.26 298.909 Q2003.85 296.038 2006.08 294.673 Q2008.3 293.307 2011.31 293.307 Q2015.36 293.307 2017.56 296.154 Q2019.76 298.978 2019.76 304.209 L2019.76 319.858 L2015.47 319.858 L2015.47 304.348 Q2015.47 300.622 2014.15 298.816 Q2012.83 297.01 2010.13 297.01 Q2006.82 297.01 2004.9 299.21 Q2002.97 301.409 2002.97 305.205 L2002.97 319.858 L1998.69 319.858 L1998.69 304.348 Q1998.69 300.598 1997.37 298.816 Q1996.05 297.01 1993.3 297.01 Q1990.03 297.01 1988.11 299.233 Q1986.19 301.432 1986.19 305.205 L1986.19 319.858 L1981.91 319.858 L1981.91 293.932 L1986.19 293.932 L1986.19 297.96 Q1987.65 295.575 1989.69 294.441 Q1991.72 293.307 1994.52 293.307 Q1997.35 293.307 1999.32 294.742 Q2001.31 296.177 2002.26 298.909 Z" fill="#000000" fill-rule="nonzero" fill-opacity="1" /><path clip-path="url(#clip710)" d="M2040.03 306.825 Q2034.87 306.825 2032.88 308.006 Q2030.89 309.186 2030.89 312.034 Q2030.89 314.302 2032.37 315.645 Q2033.88 316.964 2036.45 316.964 Q2039.99 316.964 2042.12 314.464 Q2044.27 311.941 2044.27 307.774 L2044.27 306.825 L2040.03 306.825 M2048.53 305.066 L2048.53 319.858 L2044.27 319.858 L2044.27 315.922 Q2042.81 318.283 2040.64 319.418 Q2038.46 320.529 2035.31 320.529 Q2031.33 320.529 2028.97 318.307 Q2026.63 316.061 2026.63 312.311 Q2026.63 307.936 2029.55 305.714 Q2032.49 303.492 2038.3 303.492 L2044.27 303.492 L2044.27 303.075 Q2044.27 300.135 2042.33 298.538 Q2040.4 296.918 2036.91 296.918 Q2034.69 296.918 2032.58 297.45 Q2030.47 297.983 2028.53 299.047 L2028.53 295.112 Q2030.87 294.21 2033.07 293.77 Q2035.27 293.307 2037.35 293.307 Q2042.97 293.307 2045.75 296.223 Q2048.53 299.14 2048.53 305.066 Z" fill="#000000" fill-rule="nonzero" fill-opacity="1" /><path clip-path="url(#clip710)" d="M2078.85 293.932 L2069.48 306.547 L2079.34 319.858 L2074.32 319.858 L2066.77 309.672 L2059.22 319.858 L2054.2 319.858 L2064.27 306.293 L2055.06 293.932 L2060.08 293.932 L2066.95 303.168 L2073.83 293.932 L2078.85 293.932 Z" fill="#000000" fill-rule="nonzero" fill-opacity="1" /><path clip-path="url(#clip710)" d="M2085.36 293.932 L2089.62 293.932 L2089.62 319.858 L2085.36 319.858 L2085.36 293.932 M2085.36 283.839 L2089.62 283.839 L2089.62 289.233 L2085.36 289.233 L2085.36 283.839 Z" fill="#000000" fill-rule="nonzero" fill-opacity="1" /><path clip-path="url(#clip710)" d="M2118.71 298.909 Q2120.31 296.038 2122.53 294.673 Q2124.76 293.307 2127.76 293.307 Q2131.82 293.307 2134.01 296.154 Q2136.21 298.978 2136.21 304.209 L2136.21 319.858 L2131.93 319.858 L2131.93 304.348 Q2131.93 300.622 2130.61 298.816 Q2129.29 297.01 2126.58 297.01 Q2123.27 297.01 2121.35 299.21 Q2119.43 301.409 2119.43 305.205 L2119.43 319.858 L2115.15 319.858 L2115.15 304.348 Q2115.15 300.598 2113.83 298.816 Q2112.51 297.01 2109.76 297.01 Q2106.49 297.01 2104.57 299.233 Q2102.65 301.432 2102.65 305.205 L2102.65 319.858 L2098.37 319.858 L2098.37 293.932 L2102.65 293.932 L2102.65 297.96 Q2104.11 295.575 2106.14 294.441 Q2108.18 293.307 2110.98 293.307 Q2113.81 293.307 2115.77 294.742 Q2117.76 296.177 2118.71 298.909 Z" fill="#000000" fill-rule="nonzero" fill-opacity="1" /><path clip-path="url(#clip710)" d="M2156.49 306.825 Q2151.33 306.825 2149.34 308.006 Q2147.35 309.186 2147.35 312.034 Q2147.35 314.302 2148.83 315.645 Q2150.33 316.964 2152.9 316.964 Q2156.45 316.964 2158.57 314.464 Q2160.73 311.941 2160.73 307.774 L2160.73 306.825 L2156.49 306.825 M2164.99 305.066 L2164.99 319.858 L2160.73 319.858 L2160.73 315.922 Q2159.27 318.283 2157.09 319.418 Q2154.92 320.529 2151.77 320.529 Q2147.79 320.529 2145.43 318.307 Q2143.09 316.061 2143.09 312.311 Q2143.09 307.936 2146.01 305.714 Q2148.95 303.492 2154.76 303.492 L2160.73 303.492 L2160.73 303.075 Q2160.73 300.135 2158.78 298.538 Q2156.86 296.918 2153.37 296.918 Q2151.14 296.918 2149.04 297.45 Q2146.93 297.983 2144.99 299.047 L2144.99 295.112 Q2147.32 294.21 2149.52 293.77 Q2151.72 293.307 2153.81 293.307 Q2159.43 293.307 2162.21 296.223 Q2164.99 299.14 2164.99 305.066 Z" fill="#000000" fill-rule="nonzero" fill-opacity="1" /></svg>
