<?xml version="1.0" encoding="utf-8"?>
<svg xmlns="http://www.w3.org/2000/svg" xmlns:xlink="http://www.w3.org/1999/xlink" width="600" height="400" viewBox="0 0 2400 1600">
<defs>
  <clipPath id="clip740">
    <rect x="0" y="0" width="2400" height="1600"/>
  </clipPath>
</defs>
<path clip-path="url(#clip740)" d="M0 1600 L2400 1600 L2400 0 L0 0  Z" fill="#ffffff" fill-rule="evenodd" fill-opacity="1"/>
<defs>
  <clipPath id="clip741">
    <rect x="480" y="0" width="1681" height="1600"/>
  </clipPath>
</defs>
<path clip-path="url(#clip740)" d="M186.274 1486.45 L2352.76 1486.45 L2352.76 47.2441 L186.274 47.2441  Z" fill="#ffffff" fill-rule="evenodd" fill-opacity="1"/>
<defs>
  <clipPath id="clip742">
    <rect x="186" y="47" width="2167" height="1440"/>
  </clipPath>
</defs>
<polyline clip-path="url(#clip742)" style="stroke:#000000; stroke-linecap:round; stroke-linejoin:round; stroke-width:2; stroke-opacity:0.1; fill:none" points="247.59,1486.45 247.59,47.2441 "/>
<polyline clip-path="url(#clip742)" style="stroke:#000000; stroke-linecap:round; stroke-linejoin:round; stroke-width:2; stroke-opacity:0.1; fill:none" points="758.552,1486.45 758.552,47.2441 "/>
<polyline clip-path="url(#clip742)" style="stroke:#000000; stroke-linecap:round; stroke-linejoin:round; stroke-width:2; stroke-opacity:0.1; fill:none" points="1269.51,1486.45 1269.51,47.2441 "/>
<polyline clip-path="url(#clip742)" style="stroke:#000000; stroke-linecap:round; stroke-linejoin:round; stroke-width:2; stroke-opacity:0.1; fill:none" points="1780.48,1486.45 1780.48,47.2441 "/>
<polyline clip-path="url(#clip742)" style="stroke:#000000; stroke-linecap:round; stroke-linejoin:round; stroke-width:2; stroke-opacity:0.1; fill:none" points="2291.44,1486.45 2291.44,47.2441 "/>
<polyline clip-path="url(#clip742)" style="stroke:#000000; stroke-linecap:round; stroke-linejoin:round; stroke-width:2; stroke-opacity:0.1; fill:none" points="186.274,1425.02 2352.76,1425.02 "/>
<polyline clip-path="url(#clip742)" style="stroke:#000000; stroke-linecap:round; stroke-linejoin:round; stroke-width:2; stroke-opacity:0.1; fill:none" points="186.274,1089.59 2352.76,1089.59 "/>
<polyline clip-path="url(#clip742)" style="stroke:#000000; stroke-linecap:round; stroke-linejoin:round; stroke-width:2; stroke-opacity:0.1; fill:none" points="186.274,754.167 2352.76,754.167 "/>
<polyline clip-path="url(#clip742)" style="stroke:#000000; stroke-linecap:round; stroke-linejoin:round; stroke-width:2; stroke-opacity:0.1; fill:none" points="186.274,418.739 2352.76,418.739 "/>
<polyline clip-path="url(#clip742)" style="stroke:#000000; stroke-linecap:round; stroke-linejoin:round; stroke-width:2; stroke-opacity:0.1; fill:none" points="186.274,83.3112 2352.76,83.3112 "/>
<polyline clip-path="url(#clip740)" style="stroke:#000000; stroke-linecap:round; stroke-linejoin:round; stroke-width:4; stroke-opacity:1; fill:none" points="186.274,1486.45 2352.76,1486.45 "/>
<polyline clip-path="url(#clip740)" style="stroke:#000000; stroke-linecap:round; stroke-linejoin:round; stroke-width:4; stroke-opacity:1; fill:none" points="247.59,1486.45 247.59,1467.55 "/>
<polyline clip-path="url(#clip740)" style="stroke:#000000; stroke-linecap:round; stroke-linejoin:round; stroke-width:4; stroke-opacity:1; fill:none" points="758.552,1486.45 758.552,1467.55 "/>
<polyline clip-path="url(#clip740)" style="stroke:#000000; stroke-linecap:round; stroke-linejoin:round; stroke-width:4; stroke-opacity:1; fill:none" points="1269.51,1486.45 1269.51,1467.55 "/>
<polyline clip-path="url(#clip740)" style="stroke:#000000; stroke-linecap:round; stroke-linejoin:round; stroke-width:4; stroke-opacity:1; fill:none" points="1780.48,1486.45 1780.48,1467.55 "/>
<polyline clip-path="url(#clip740)" style="stroke:#000000; stroke-linecap:round; stroke-linejoin:round; stroke-width:4; stroke-opacity:1; fill:none" points="2291.44,1486.45 2291.44,1467.55 "/>
<path clip-path="url(#clip740)" d="M247.59 1517.37 Q243.978 1517.37 242.15 1520.93 Q240.344 1524.47 240.344 1531.6 Q240.344 1538.71 242.15 1542.27 Q243.978 1545.82 247.59 1545.82 Q251.224 1545.82 253.029 1542.27 Q254.858 1538.71 254.858 1531.6 Q254.858 1524.47 253.029 1520.93 Q251.224 1517.37 247.59 1517.37 M247.59 1513.66 Q253.4 1513.66 256.455 1518.27 Q259.534 1522.85 259.534 1531.6 Q259.534 1540.33 256.455 1544.94 Q253.4 1549.52 247.59 1549.52 Q241.779 1549.52 238.701 1544.94 Q235.645 1540.33 235.645 1531.6 Q235.645 1522.85 238.701 1518.27 Q241.779 1513.66 247.59 1513.66 Z" fill="#000000" fill-rule="nonzero" fill-opacity="1" /><path clip-path="url(#clip740)" d="M737.823 1544.91 L754.143 1544.91 L754.143 1548.85 L732.198 1548.85 L732.198 1544.91 Q734.86 1542.16 739.444 1537.53 Q744.05 1532.88 745.231 1531.53 Q747.476 1529.01 748.356 1527.27 Q749.258 1525.51 749.258 1523.82 Q749.258 1521.07 747.314 1519.33 Q745.393 1517.6 742.291 1517.6 Q740.092 1517.6 737.638 1518.36 Q735.207 1519.13 732.43 1520.68 L732.43 1515.95 Q735.254 1514.82 737.707 1514.24 Q740.161 1513.66 742.198 1513.66 Q747.569 1513.66 750.763 1516.35 Q753.957 1519.03 753.957 1523.52 Q753.957 1525.65 753.147 1527.57 Q752.36 1529.47 750.254 1532.07 Q749.675 1532.74 746.573 1535.95 Q743.471 1539.15 737.823 1544.91 Z" fill="#000000" fill-rule="nonzero" fill-opacity="1" /><path clip-path="url(#clip740)" d="M764.004 1514.29 L782.36 1514.29 L782.36 1518.22 L768.286 1518.22 L768.286 1526.7 Q769.304 1526.35 770.323 1526.19 Q771.342 1526 772.36 1526 Q778.147 1526 781.527 1529.17 Q784.906 1532.34 784.906 1537.76 Q784.906 1543.34 781.434 1546.44 Q777.962 1549.52 771.642 1549.52 Q769.467 1549.52 767.198 1549.15 Q764.953 1548.78 762.545 1548.04 L762.545 1543.34 Q764.629 1544.47 766.851 1545.03 Q769.073 1545.58 771.55 1545.58 Q775.554 1545.58 777.892 1543.48 Q780.23 1541.37 780.23 1537.76 Q780.23 1534.15 777.892 1532.04 Q775.554 1529.94 771.55 1529.94 Q769.675 1529.94 767.8 1530.35 Q765.948 1530.77 764.004 1531.65 L764.004 1514.29 Z" fill="#000000" fill-rule="nonzero" fill-opacity="1" /><path clip-path="url(#clip740)" d="M1244.21 1514.29 L1262.57 1514.29 L1262.57 1518.22 L1248.5 1518.22 L1248.5 1526.7 Q1249.52 1526.35 1250.53 1526.19 Q1251.55 1526 1252.57 1526 Q1258.36 1526 1261.74 1529.17 Q1265.12 1532.34 1265.12 1537.76 Q1265.12 1543.34 1261.64 1546.44 Q1258.17 1549.52 1251.85 1549.52 Q1249.68 1549.52 1247.41 1549.15 Q1245.16 1548.78 1242.76 1548.04 L1242.76 1543.34 Q1244.84 1544.47 1247.06 1545.03 Q1249.28 1545.58 1251.76 1545.58 Q1255.77 1545.58 1258.1 1543.48 Q1260.44 1541.37 1260.44 1537.76 Q1260.44 1534.15 1258.1 1532.04 Q1255.77 1529.94 1251.76 1529.94 Q1249.89 1529.94 1248.01 1530.35 Q1246.16 1530.77 1244.21 1531.65 L1244.21 1514.29 Z" fill="#000000" fill-rule="nonzero" fill-opacity="1" /><path clip-path="url(#clip740)" d="M1284.33 1517.37 Q1280.72 1517.37 1278.89 1520.93 Q1277.08 1524.47 1277.08 1531.6 Q1277.08 1538.71 1278.89 1542.27 Q1280.72 1545.82 1284.33 1545.82 Q1287.96 1545.82 1289.77 1542.27 Q1291.6 1538.71 1291.6 1531.6 Q1291.6 1524.47 1289.77 1520.93 Q1287.96 1517.37 1284.33 1517.37 M1284.33 1513.66 Q1290.14 1513.66 1293.2 1518.27 Q1296.27 1522.85 1296.27 1531.6 Q1296.27 1540.33 1293.2 1544.94 Q1290.14 1549.52 1284.33 1549.52 Q1278.52 1549.52 1275.44 1544.94 Q1272.39 1540.33 1272.39 1531.6 Q1272.39 1522.85 1275.44 1518.27 Q1278.52 1513.66 1284.33 1513.66 Z" fill="#000000" fill-rule="nonzero" fill-opacity="1" /><path clip-path="url(#clip740)" d="M1754.33 1514.29 L1776.55 1514.29 L1776.55 1516.28 L1764.01 1548.85 L1759.12 1548.85 L1770.93 1518.22 L1754.33 1518.22 L1754.33 1514.29 Z" fill="#000000" fill-rule="nonzero" fill-opacity="1" /><path clip-path="url(#clip740)" d="M1785.72 1514.29 L1804.08 1514.29 L1804.08 1518.22 L1790 1518.22 L1790 1526.7 Q1791.02 1526.35 1792.04 1526.19 Q1793.06 1526 1794.08 1526 Q1799.86 1526 1803.24 1529.17 Q1806.62 1532.34 1806.62 1537.76 Q1806.62 1543.34 1803.15 1546.44 Q1799.68 1549.52 1793.36 1549.52 Q1791.18 1549.52 1788.92 1549.15 Q1786.67 1548.78 1784.26 1548.04 L1784.26 1543.34 Q1786.35 1544.47 1788.57 1545.03 Q1790.79 1545.58 1793.27 1545.58 Q1797.27 1545.58 1799.61 1543.48 Q1801.95 1541.37 1801.95 1537.76 Q1801.95 1534.15 1799.61 1532.04 Q1797.27 1529.94 1793.27 1529.94 Q1791.39 1529.94 1789.52 1530.35 Q1787.67 1530.77 1785.72 1531.65 L1785.72 1514.29 Z" fill="#000000" fill-rule="nonzero" fill-opacity="1" /><path clip-path="url(#clip740)" d="M2251.05 1544.91 L2258.69 1544.91 L2258.69 1518.55 L2250.38 1520.21 L2250.38 1515.95 L2258.64 1514.29 L2263.32 1514.29 L2263.32 1544.91 L2270.95 1544.91 L2270.95 1548.85 L2251.05 1548.85 L2251.05 1544.91 Z" fill="#000000" fill-rule="nonzero" fill-opacity="1" /><path clip-path="url(#clip740)" d="M2290.4 1517.37 Q2286.79 1517.37 2284.96 1520.93 Q2283.15 1524.47 2283.15 1531.6 Q2283.15 1538.71 2284.96 1542.27 Q2286.79 1545.82 2290.4 1545.82 Q2294.03 1545.82 2295.84 1542.27 Q2297.67 1538.71 2297.67 1531.6 Q2297.67 1524.47 2295.84 1520.93 Q2294.03 1517.37 2290.4 1517.37 M2290.4 1513.66 Q2296.21 1513.66 2299.26 1518.27 Q2302.34 1522.85 2302.34 1531.6 Q2302.34 1540.33 2299.26 1544.94 Q2296.21 1549.52 2290.4 1549.52 Q2284.59 1549.52 2281.51 1544.94 Q2278.45 1540.33 2278.45 1531.6 Q2278.45 1522.85 2281.51 1518.27 Q2284.59 1513.66 2290.4 1513.66 Z" fill="#000000" fill-rule="nonzero" fill-opacity="1" /><path clip-path="url(#clip740)" d="M2320.56 1517.37 Q2316.95 1517.37 2315.12 1520.93 Q2313.32 1524.47 2313.32 1531.6 Q2313.32 1538.71 2315.12 1542.27 Q2316.95 1545.82 2320.56 1545.82 Q2324.19 1545.82 2326 1542.27 Q2327.83 1538.71 2327.83 1531.6 Q2327.83 1524.47 2326 1520.93 Q2324.19 1517.37 2320.56 1517.37 M2320.56 1513.66 Q2326.37 1513.66 2329.43 1518.27 Q2332.5 1522.85 2332.5 1531.6 Q2332.5 1540.33 2329.43 1544.94 Q2326.37 1549.52 2320.56 1549.52 Q2314.75 1549.52 2311.67 1544.94 Q2308.62 1540.33 2308.62 1531.6 Q2308.62 1522.85 2311.67 1518.27 Q2314.75 1513.66 2320.56 1513.66 Z" fill="#000000" fill-rule="nonzero" fill-opacity="1" /><polyline clip-path="url(#clip740)" style="stroke:#000000; stroke-linecap:round; stroke-linejoin:round; stroke-width:4; stroke-opacity:1; fill:none" points="186.274,1486.45 186.274,47.2441 "/>
<polyline clip-path="url(#clip740)" style="stroke:#000000; stroke-linecap:round; stroke-linejoin:round; stroke-width:4; stroke-opacity:1; fill:none" points="186.274,1425.02 205.172,1425.02 "/>
<polyline clip-path="url(#clip740)" style="stroke:#000000; stroke-linecap:round; stroke-linejoin:round; stroke-width:4; stroke-opacity:1; fill:none" points="186.274,1089.59 205.172,1089.59 "/>
<polyline clip-path="url(#clip740)" style="stroke:#000000; stroke-linecap:round; stroke-linejoin:round; stroke-width:4; stroke-opacity:1; fill:none" points="186.274,754.167 205.172,754.167 "/>
<polyline clip-path="url(#clip740)" style="stroke:#000000; stroke-linecap:round; stroke-linejoin:round; stroke-width:4; stroke-opacity:1; fill:none" points="186.274,418.739 205.172,418.739 "/>
<polyline clip-path="url(#clip740)" style="stroke:#000000; stroke-linecap:round; stroke-linejoin:round; stroke-width:4; stroke-opacity:1; fill:none" points="186.274,83.3112 205.172,83.3112 "/>
<path clip-path="url(#clip740)" d="M62.9365 1410.82 Q59.3254 1410.82 57.4967 1414.39 Q55.6912 1417.93 55.6912 1425.06 Q55.6912 1432.16 57.4967 1435.73 Q59.3254 1439.27 62.9365 1439.27 Q66.5707 1439.27 68.3763 1435.73 Q70.205 1432.16 70.205 1425.06 Q70.205 1417.93 68.3763 1414.39 Q66.5707 1410.82 62.9365 1410.82 M62.9365 1407.12 Q68.7467 1407.12 71.8022 1411.72 Q74.8809 1416.31 74.8809 1425.06 Q74.8809 1433.78 71.8022 1438.39 Q68.7467 1442.97 62.9365 1442.97 Q57.1264 1442.97 54.0477 1438.39 Q50.9921 1433.78 50.9921 1425.06 Q50.9921 1416.31 54.0477 1411.72 Q57.1264 1407.12 62.9365 1407.12 Z" fill="#000000" fill-rule="nonzero" fill-opacity="1" /><path clip-path="url(#clip740)" d="M83.0984 1436.42 L87.9827 1436.42 L87.9827 1442.3 L83.0984 1442.3 L83.0984 1436.42 Z" fill="#000000" fill-rule="nonzero" fill-opacity="1" /><path clip-path="url(#clip740)" d="M108.168 1410.82 Q104.557 1410.82 102.728 1414.39 Q100.922 1417.93 100.922 1425.06 Q100.922 1432.16 102.728 1435.73 Q104.557 1439.27 108.168 1439.27 Q111.802 1439.27 113.608 1435.73 Q115.436 1432.16 115.436 1425.06 Q115.436 1417.93 113.608 1414.39 Q111.802 1410.82 108.168 1410.82 M108.168 1407.12 Q113.978 1407.12 117.033 1411.72 Q120.112 1416.31 120.112 1425.06 Q120.112 1433.78 117.033 1438.39 Q113.978 1442.97 108.168 1442.97 Q102.358 1442.97 99.2789 1438.39 Q96.2234 1433.78 96.2234 1425.06 Q96.2234 1416.31 99.2789 1411.72 Q102.358 1407.12 108.168 1407.12 Z" fill="#000000" fill-rule="nonzero" fill-opacity="1" /><path clip-path="url(#clip740)" d="M138.33 1410.82 Q134.719 1410.82 132.89 1414.39 Q131.084 1417.93 131.084 1425.06 Q131.084 1432.16 132.89 1435.73 Q134.719 1439.27 138.33 1439.27 Q141.964 1439.27 143.769 1435.73 Q145.598 1432.16 145.598 1425.06 Q145.598 1417.93 143.769 1414.39 Q141.964 1410.82 138.33 1410.82 M138.33 1407.12 Q144.14 1407.12 147.195 1411.72 Q150.274 1416.31 150.274 1425.06 Q150.274 1433.78 147.195 1438.39 Q144.14 1442.97 138.33 1442.97 Q132.519 1442.97 129.441 1438.39 Q126.385 1433.78 126.385 1425.06 Q126.385 1416.31 129.441 1411.72 Q132.519 1407.12 138.33 1407.12 Z" fill="#000000" fill-rule="nonzero" fill-opacity="1" /><path clip-path="url(#clip740)" d="M63.9319 1075.39 Q60.3208 1075.39 58.4921 1078.96 Q56.6865 1082.5 56.6865 1089.63 Q56.6865 1096.74 58.4921 1100.3 Q60.3208 1103.84 63.9319 1103.84 Q67.5661 1103.84 69.3717 1100.3 Q71.2004 1096.74 71.2004 1089.63 Q71.2004 1082.5 69.3717 1078.96 Q67.5661 1075.39 63.9319 1075.39 M63.9319 1071.69 Q69.742 1071.69 72.7976 1076.3 Q75.8763 1080.88 75.8763 1089.63 Q75.8763 1098.36 72.7976 1102.96 Q69.742 1107.55 63.9319 1107.55 Q58.1217 1107.55 55.043 1102.96 Q51.9875 1098.36 51.9875 1089.63 Q51.9875 1080.88 55.043 1076.3 Q58.1217 1071.69 63.9319 1071.69 Z" fill="#000000" fill-rule="nonzero" fill-opacity="1" /><path clip-path="url(#clip740)" d="M84.0938 1100.99 L88.978 1100.99 L88.978 1106.87 L84.0938 1106.87 L84.0938 1100.99 Z" fill="#000000" fill-rule="nonzero" fill-opacity="1" /><path clip-path="url(#clip740)" d="M103.191 1102.94 L119.51 1102.94 L119.51 1106.87 L97.566 1106.87 L97.566 1102.94 Q100.228 1100.18 104.811 1095.55 Q109.418 1090.9 110.598 1089.56 Q112.844 1087.04 113.723 1085.3 Q114.626 1083.54 114.626 1081.85 Q114.626 1079.1 112.682 1077.36 Q110.76 1075.62 107.658 1075.62 Q105.459 1075.62 103.006 1076.39 Q100.575 1077.15 97.7974 1078.7 L97.7974 1073.98 Q100.621 1072.85 103.075 1072.27 Q105.529 1071.69 107.566 1071.69 Q112.936 1071.69 116.131 1074.37 Q119.325 1077.06 119.325 1081.55 Q119.325 1083.68 118.515 1085.6 Q117.728 1087.5 115.621 1090.09 Q115.043 1090.76 111.941 1093.98 Q108.839 1097.18 103.191 1102.94 Z" fill="#000000" fill-rule="nonzero" fill-opacity="1" /><path clip-path="url(#clip740)" d="M129.371 1072.31 L147.728 1072.31 L147.728 1076.25 L133.654 1076.25 L133.654 1084.72 Q134.672 1084.37 135.691 1084.21 Q136.709 1084.03 137.728 1084.03 Q143.515 1084.03 146.894 1087.2 Q150.274 1090.37 150.274 1095.79 Q150.274 1101.37 146.802 1104.47 Q143.33 1107.55 137.01 1107.55 Q134.834 1107.55 132.566 1107.18 Q130.32 1106.8 127.913 1106.06 L127.913 1101.37 Q129.996 1102.5 132.219 1103.05 Q134.441 1103.61 136.918 1103.61 Q140.922 1103.61 143.26 1101.5 Q145.598 1099.4 145.598 1095.79 Q145.598 1092.18 143.26 1090.07 Q140.922 1087.96 136.918 1087.96 Q135.043 1087.96 133.168 1088.38 Q131.316 1088.8 129.371 1089.68 L129.371 1072.31 Z" fill="#000000" fill-rule="nonzero" fill-opacity="1" /><path clip-path="url(#clip740)" d="M62.9365 739.965 Q59.3254 739.965 57.4967 743.53 Q55.6912 747.072 55.6912 754.201 Q55.6912 761.308 57.4967 764.873 Q59.3254 768.414 62.9365 768.414 Q66.5707 768.414 68.3763 764.873 Q70.205 761.308 70.205 754.201 Q70.205 747.072 68.3763 743.53 Q66.5707 739.965 62.9365 739.965 M62.9365 736.262 Q68.7467 736.262 71.8022 740.868 Q74.8809 745.451 74.8809 754.201 Q74.8809 762.928 71.8022 767.535 Q68.7467 772.118 62.9365 772.118 Q57.1264 772.118 54.0477 767.535 Q50.9921 762.928 50.9921 754.201 Q50.9921 745.451 54.0477 740.868 Q57.1264 736.262 62.9365 736.262 Z" fill="#000000" fill-rule="nonzero" fill-opacity="1" /><path clip-path="url(#clip740)" d="M83.0984 765.567 L87.9827 765.567 L87.9827 771.447 L83.0984 771.447 L83.0984 765.567 Z" fill="#000000" fill-rule="nonzero" fill-opacity="1" /><path clip-path="url(#clip740)" d="M98.2141 736.887 L116.57 736.887 L116.57 740.822 L102.496 740.822 L102.496 749.294 Q103.515 748.947 104.534 748.785 Q105.552 748.6 106.571 748.6 Q112.358 748.6 115.737 751.771 Q119.117 754.942 119.117 760.359 Q119.117 765.937 115.645 769.039 Q112.172 772.118 105.853 772.118 Q103.677 772.118 101.409 771.748 Q99.1632 771.377 96.7558 770.636 L96.7558 765.937 Q98.8391 767.072 101.061 767.627 Q103.284 768.183 105.76 768.183 Q109.765 768.183 112.103 766.076 Q114.441 763.97 114.441 760.359 Q114.441 756.748 112.103 754.641 Q109.765 752.535 105.76 752.535 Q103.885 752.535 102.01 752.951 Q100.159 753.368 98.2141 754.248 L98.2141 736.887 Z" fill="#000000" fill-rule="nonzero" fill-opacity="1" /><path clip-path="url(#clip740)" d="M138.33 739.965 Q134.719 739.965 132.89 743.53 Q131.084 747.072 131.084 754.201 Q131.084 761.308 132.89 764.873 Q134.719 768.414 138.33 768.414 Q141.964 768.414 143.769 764.873 Q145.598 761.308 145.598 754.201 Q145.598 747.072 143.769 743.53 Q141.964 739.965 138.33 739.965 M138.33 736.262 Q144.14 736.262 147.195 740.868 Q150.274 745.451 150.274 754.201 Q150.274 762.928 147.195 767.535 Q144.14 772.118 138.33 772.118 Q132.519 772.118 129.441 767.535 Q126.385 762.928 126.385 754.201 Q126.385 745.451 129.441 740.868 Q132.519 736.262 138.33 736.262 Z" fill="#000000" fill-rule="nonzero" fill-opacity="1" /><path clip-path="url(#clip740)" d="M63.9319 404.538 Q60.3208 404.538 58.4921 408.102 Q56.6865 411.644 56.6865 418.774 Q56.6865 425.88 58.4921 429.445 Q60.3208 432.987 63.9319 432.987 Q67.5661 432.987 69.3717 429.445 Q71.2004 425.88 71.2004 418.774 Q71.2004 411.644 69.3717 408.102 Q67.5661 404.538 63.9319 404.538 M63.9319 400.834 Q69.742 400.834 72.7976 405.44 Q75.8763 410.024 75.8763 418.774 Q75.8763 427.5 72.7976 432.107 Q69.742 436.69 63.9319 436.69 Q58.1217 436.69 55.043 432.107 Q51.9875 427.5 51.9875 418.774 Q51.9875 410.024 55.043 405.44 Q58.1217 400.834 63.9319 400.834 Z" fill="#000000" fill-rule="nonzero" fill-opacity="1" /><path clip-path="url(#clip740)" d="M84.0938 430.139 L88.978 430.139 L88.978 436.019 L84.0938 436.019 L84.0938 430.139 Z" fill="#000000" fill-rule="nonzero" fill-opacity="1" /><path clip-path="url(#clip740)" d="M97.9826 401.459 L120.205 401.459 L120.205 403.45 L107.658 436.019 L102.774 436.019 L114.58 405.394 L97.9826 405.394 L97.9826 401.459 Z" fill="#000000" fill-rule="nonzero" fill-opacity="1" /><path clip-path="url(#clip740)" d="M129.371 401.459 L147.728 401.459 L147.728 405.394 L133.654 405.394 L133.654 413.866 Q134.672 413.519 135.691 413.357 Q136.709 413.172 137.728 413.172 Q143.515 413.172 146.894 416.343 Q150.274 419.514 150.274 424.931 Q150.274 430.51 146.802 433.612 Q143.33 436.69 137.01 436.69 Q134.834 436.69 132.566 436.32 Q130.32 435.949 127.913 435.209 L127.913 430.51 Q129.996 431.644 132.219 432.199 Q134.441 432.755 136.918 432.755 Q140.922 432.755 143.26 430.649 Q145.598 428.542 145.598 424.931 Q145.598 421.32 143.26 419.213 Q140.922 417.107 136.918 417.107 Q135.043 417.107 133.168 417.524 Q131.316 417.94 129.371 418.82 L129.371 401.459 Z" fill="#000000" fill-rule="nonzero" fill-opacity="1" /><path clip-path="url(#clip740)" d="M53.7467 96.656 L61.3856 96.656 L61.3856 70.2904 L53.0754 71.9571 L53.0754 67.6979 L61.3393 66.0312 L66.0152 66.0312 L66.0152 96.656 L73.654 96.656 L73.654 100.591 L53.7467 100.591 L53.7467 96.656 Z" fill="#000000" fill-rule="nonzero" fill-opacity="1" /><path clip-path="url(#clip740)" d="M83.0984 94.7116 L87.9827 94.7116 L87.9827 100.591 L83.0984 100.591 L83.0984 94.7116 Z" fill="#000000" fill-rule="nonzero" fill-opacity="1" /><path clip-path="url(#clip740)" d="M108.168 69.1099 Q104.557 69.1099 102.728 72.6747 Q100.922 76.2163 100.922 83.3459 Q100.922 90.4524 102.728 94.0172 Q104.557 97.5588 108.168 97.5588 Q111.802 97.5588 113.608 94.0172 Q115.436 90.4524 115.436 83.3459 Q115.436 76.2163 113.608 72.6747 Q111.802 69.1099 108.168 69.1099 M108.168 65.4062 Q113.978 65.4062 117.033 70.0127 Q120.112 74.596 120.112 83.3459 Q120.112 92.0727 117.033 96.6792 Q113.978 101.262 108.168 101.262 Q102.358 101.262 99.2789 96.6792 Q96.2234 92.0727 96.2234 83.3459 Q96.2234 74.596 99.2789 70.0127 Q102.358 65.4062 108.168 65.4062 Z" fill="#000000" fill-rule="nonzero" fill-opacity="1" /><path clip-path="url(#clip740)" d="M138.33 69.1099 Q134.719 69.1099 132.89 72.6747 Q131.084 76.2163 131.084 83.3459 Q131.084 90.4524 132.89 94.0172 Q134.719 97.5588 138.33 97.5588 Q141.964 97.5588 143.769 94.0172 Q145.598 90.4524 145.598 83.3459 Q145.598 76.2163 143.769 72.6747 Q141.964 69.1099 138.33 69.1099 M138.33 65.4062 Q144.14 65.4062 147.195 70.0127 Q150.274 74.596 150.274 83.3459 Q150.274 92.0727 147.195 96.6792 Q144.14 101.262 138.33 101.262 Q132.519 101.262 129.441 96.6792 Q126.385 92.0727 126.385 83.3459 Q126.385 74.596 129.441 70.0127 Q132.519 65.4062 138.33 65.4062 Z" fill="#000000" fill-rule="nonzero" fill-opacity="1" /><polyline clip-path="url(#clip742)" style="stroke:#000000; stroke-linecap:round; stroke-linejoin:round; stroke-width:8; stroke-opacity:1; fill:none" points="247.59,1413.24 249.633,1415.65 251.677,1417.97 253.721,1420.19 255.765,1422.31 257.809,1424.34 259.853,1426.27 261.896,1428.1 263.94,1429.84 265.984,1431.48 268.028,1433.03 270.072,1434.48 272.116,1435.84 274.16,1437.1 276.203,1438.27 278.247,1439.35 280.291,1440.35 282.335,1441.25 284.379,1442.06 286.423,1442.78 288.467,1443.43 290.51,1443.98 292.554,1444.46 294.598,1444.86 296.642,1445.18 298.686,1445.42 300.73,1445.59 302.774,1445.69 304.817,1445.72 306.861,1445.68 308.905,1445.57 310.949,1445.41 312.993,1445.18 315.037,1444.9 317.08,1444.56 319.124,1444.17 321.168,1443.73 323.212,1443.24 325.256,1442.71 327.3,1442.14 329.344,1441.53 331.387,1440.9 333.431,1440.23 335.475,1439.53 337.519,1438.82 339.563,1438.09 341.607,1437.34 343.651,1436.58 345.694,1435.82 347.738,1435.06 349.782,1434.3 351.826,1433.54 353.87,1432.79 355.914,1432.06 357.957,1431.33 360.001,1430.63 362.045,1429.95 364.089,1429.29 366.133,1428.65 368.177,1428.04 370.221,1427.46 372.264,1426.91 374.308,1426.39 376.352,1425.89 378.396,1425.43 380.44,1425 382.484,1424.6 384.528,1424.24 386.571,1423.9 388.615,1423.6 390.659,1423.34 392.703,1423.1 394.747,1422.9 396.791,1422.73 398.834,1422.59 400.878,1422.49 402.922,1422.42 404.966,1422.37 407.01,1422.36 409.054,1422.39 411.098,1422.44 413.141,1422.52 415.185,1422.62 417.229,1422.76 419.273,1422.92 421.317,1423.11 423.361,1423.32 425.405,1423.55 427.448,1423.81 429.492,1424.08 431.536,1424.38 433.58,1424.69 435.624,1425.01 437.668,1425.35 439.712,1425.7 441.755,1426.05 443.799,1426.42 445.843,1426.79 447.887,1427.16 449.931,1427.54 451.975,1427.91 454.018,1428.28 456.062,1428.65 458.106,1429.02 460.15,1429.37 462.194,1429.72 464.238,1430.05 466.282,1430.37 468.325,1430.68 470.369,1430.97 472.413,1431.24 474.457,1431.5 476.501,1431.73 478.545,1431.95 480.589,1432.14 482.632,1432.31 484.676,1432.46 486.72,1432.59 488.764,1432.7 490.808,1432.78 492.852,1432.84 494.895,1432.87 496.939,1432.88 498.983,1432.88 501.027,1432.85 503.071,1432.8 505.115,1432.72 507.159,1432.63 509.202,1432.53 511.246,1432.4 513.29,1432.26 515.334,1432.1 517.378,1431.93 519.422,1431.74 521.466,1431.55 523.509,1431.34 525.553,1431.12 527.597,1430.89 529.641,1430.65 531.685,1430.41 533.729,1430.16 535.772,1429.91 537.816,1429.66 539.86,1429.4 541.904,1429.15 543.948,1428.89 545.992,1428.64 548.036,1428.39 550.079,1428.15 552.123,1427.92 554.167,1427.69 556.211,1427.47 558.255,1427.27 560.299,1427.07 562.343,1426.88 564.386,1426.71 566.43,1426.55 568.474,1426.4 570.518,1426.26 572.562,1426.13 574.606,1426.02 576.65,1425.92 578.693,1425.84 580.737,1425.76 582.781,1425.7 584.825,1425.64 586.869,1425.6 588.913,1425.56 590.956,1425.53 593,1425.51 595.044,1425.49 597.088,1425.48 599.132,1425.46 601.176,1425.45 603.22,1425.44 605.263,1425.43 607.307,1425.42 609.351,1425.4 611.395,1425.38 613.439,1425.36 615.483,1425.33 617.527,1425.29 619.57,1425.25 621.614,1425.2 623.658,1425.14 625.702,1425.07 627.746,1424.99 629.79,1424.91 631.833,1424.81 633.877,1424.7 635.921,1424.58 637.965,1424.45 640.009,1424.31 642.053,1424.16 644.097,1424 646.14,1423.82 648.184,1423.63 650.228,1423.43 652.272,1423.21 654.316,1422.99 656.36,1422.75 658.404,1422.51 660.447,1422.26 662.491,1421.99 664.535,1421.72 666.579,1421.45 668.623,1421.17 670.667,1420.89 672.711,1420.6 674.754,1420.32 676.798,1420.03 678.842,1419.75 680.886,1419.48 682.93,1419.21 684.974,1418.95 687.017,1418.69 689.061,1418.45 691.105,1418.22 693.149,1418.01 695.193,1417.81 697.237,1417.63 699.281,1417.46 701.324,1417.31 703.368,1417.19 705.412,1417.08 707.456,1416.99 709.5,1416.93 711.544,1416.89 713.588,1416.86 715.631,1416.86 717.675,1416.88 719.719,1416.92 721.763,1416.98 723.807,1417.06 725.851,1417.15 727.894,1417.26 729.938,1417.39 731.982,1417.53 734.026,1417.68 736.07,1417.84 738.114,1418 740.158,1418.18 742.201,1418.36 744.245,1418.54 746.289,1418.73 748.333,1418.91 750.377,1419.1 752.421,1419.28 754.465,1419.45 756.508,1419.62 758.552,1419.78 760.596,1419.94 762.64,1420.08 764.684,1420.21 766.728,1420.34 768.771,1420.45 770.815,1420.54 772.859,1420.63 774.903,1420.7 776.947,1420.76 778.991,1420.81 781.035,1420.84 783.078,1420.86 785.122,1420.87 787.166,1420.87 789.21,1420.85 791.254,1420.82 793.298,1420.78 795.342,1420.73 797.385,1420.67 799.429,1420.59 801.473,1420.51 803.517,1420.42 805.561,1420.31 807.605,1420.21 809.649,1420.09 811.692,1419.97 813.736,1419.84 815.78,1419.71 817.824,1419.58 819.868,1419.45 821.912,1419.32 823.955,1419.19 825.999,1419.06 828.043,1418.95 830.087,1418.84 832.131,1418.74 834.175,1418.65 836.219,1418.58 838.262,1418.52 840.306,1418.48 842.35,1418.45 844.394,1418.44 846.438,1418.45 848.482,1418.48 850.526,1418.53 852.569,1418.6 854.613,1418.69 856.657,1418.8 858.701,1418.93 860.745,1419.08 862.789,1419.25 864.832,1419.43 866.876,1419.63 868.92,1419.85 870.964,1420.08 873.008,1420.33 875.052,1420.58 877.096,1420.85 879.139,1421.12 881.183,1421.4 883.227,1421.68 885.271,1421.96 887.315,1422.25 889.359,1422.53 891.403,1422.8 893.446,1423.07 895.49,1423.33 897.534,1423.58 899.578,1423.82 901.622,1424.04 903.666,1424.25 905.71,1424.44 907.753,1424.61 909.797,1424.77 911.841,1424.9 913.885,1425.01 915.929,1425.1 917.973,1425.16 920.016,1425.2 922.06,1425.22 924.104,1425.21 926.148,1425.17 928.192,1425.1 930.236,1425 932.28,1424.87 934.323,1424.7 936.367,1424.51 938.411,1424.27 940.455,1424 942.499,1423.69 944.543,1423.34 946.587,1422.94 948.63,1422.5 950.674,1422.01 952.718,1421.47 954.762,1420.88 956.806,1420.24 958.85,1419.54 960.893,1418.77 962.937,1417.95 964.981,1417.05 967.025,1416.09 969.069,1415.06 971.113,1413.94 973.157,1412.75 975.2,1411.47 977.244,1410.11 979.288,1408.65 981.332,1407.09 983.376,1405.44 985.42,1403.68 987.464,1401.82 989.507,1399.84 991.551,1397.74 993.595,1395.53 995.639,1393.19 997.683,1390.72 999.727,1388.12 1001.77,1385.38 1003.81,1382.5 1005.86,1379.47 1007.9,1376.3 1009.95,1372.97 1011.99,1369.49 1014.03,1365.86 1016.08,1362.06 1018.12,1358.1 1020.17,1353.98 1022.21,1349.68 1024.25,1345.22 1026.3,1340.59 1028.34,1335.79 1030.38,1330.81 1032.43,1325.66 1034.47,1320.34 1036.52,1314.84 1038.56,1309.17 1040.6,1303.33 1042.65,1297.32 1044.69,1291.13 1046.74,1284.77 1048.78,1278.24 1050.82,1271.54 1052.87,1264.67 1054.91,1257.62 1056.95,1250.41 1059,1243.03 1061.04,1235.47 1063.09,1227.75 1065.13,1219.85 1067.17,1211.78 1069.22,1203.53 1071.26,1195.11 1073.31,1186.51 1075.35,1177.73 1077.39,1168.77 1079.44,1159.63 1081.48,1150.31 1083.52,1140.8 1085.57,1131.1 1087.61,1121.22 1089.66,1111.14 1091.7,1100.88 1093.74,1090.42 1095.79,1079.77 1097.83,1068.93 1099.88,1057.89 1101.92,1046.67 1103.96,1035.25 1106.01,1023.64 1108.05,1011.83 1110.09,999.841 1112.14,987.662 1114.18,975.296 1116.23,962.747 1118.27,950.017 1120.31,937.108 1122.36,924.023 1124.4,910.767 1126.45,897.342 1128.49,883.753 1130.53,870.004 1132.58,856.1 1134.62,842.047 1136.66,827.849 1138.71,813.513 1140.75,799.045 1142.8,784.452 1144.84,769.741 1146.88,754.918 1148.93,739.993 1150.97,724.973 1153.02,709.867 1155.06,694.685 1157.1,679.434 1159.15,664.125 1161.19,648.769 1163.23,633.375 1165.28,617.955 1167.32,602.518 1169.37,587.078 1171.41,571.645 1173.45,556.231 1175.5,540.848 1177.54,525.509 1179.59,510.226 1181.63,495.013 1183.67,479.882 1185.72,464.847 1187.76,449.921 1189.8,435.117 1191.85,420.45 1193.89,405.933 1195.94,391.58 1197.98,377.404 1200.02,363.42 1202.07,349.641 1204.11,336.082 1206.16,322.754 1208.2,309.673 1210.24,296.851 1212.29,284.301 1214.33,272.036 1216.37,260.07 1218.42,248.413 1220.46,237.079 1222.51,226.079 1224.55,215.425 1226.59,205.129 1228.64,195.201 1230.68,185.653 1232.73,176.495 1234.77,167.738 1236.81,159.39 1238.86,151.462 1240.9,143.964 1242.94,136.903 1244.99,130.288 1247.03,124.128 1249.08,118.43 1251.12,113.201 1253.16,108.448 1255.21,104.178 1257.25,100.396 1259.3,97.1071 1261.34,94.3171 1263.38,92.03 1265.43,90.2494 1267.47,88.9786 1269.51,88.2202 1271.56,87.9763 1273.6,88.2482 1275.65,89.0368 1277.69,90.3423 1279.73,92.1643 1281.78,94.5018 1283.82,97.3533 1285.87,100.716 1287.91,104.589 1289.95,108.967 1292,113.846 1294.04,119.223 1296.09,125.092 1298.13,131.447 1300.17,138.283 1302.22,145.592 1304.26,153.367 1306.3,161.599 1308.35,170.28 1310.39,179.401 1312.44,188.952 1314.48,198.922 1316.52,209.301 1318.57,220.077 1320.61,231.237 1322.66,242.77 1324.7,254.663 1326.74,266.901 1328.79,279.472 1330.83,292.361 1332.87,305.554 1334.92,319.036 1336.96,332.792 1339.01,346.807 1341.05,361.065 1343.09,375.551 1345.14,390.249 1347.18,405.142 1349.23,420.217 1351.27,435.455 1353.31,450.841 1355.36,466.359 1357.4,481.994 1359.44,497.728 1361.49,513.548 1363.53,529.436 1365.58,545.378 1367.62,561.36 1369.66,577.365 1371.71,593.381 1373.75,609.392 1375.8,625.386 1377.84,641.348 1379.88,657.267 1381.93,673.129 1383.97,688.923 1386.01,704.638 1388.06,720.262 1390.1,735.786 1392.15,751.2 1394.19,766.495 1396.23,781.662 1398.28,796.695 1400.32,811.585 1402.37,826.326 1404.41,840.914 1406.45,855.341 1408.5,869.604 1410.54,883.699 1412.58,897.622 1414.63,911.37 1416.67,924.94 1418.72,938.33 1420.76,951.537 1422.8,964.561 1424.85,977.4 1426.89,990.052 1428.94,1002.52 1430.98,1014.79 1433.02,1026.88 1435.07,1038.78 1437.11,1050.49 1439.15,1062 1441.2,1073.33 1443.24,1084.47 1445.29,1095.41 1447.33,1106.16 1449.37,1116.72 1451.42,1127.09 1453.46,1137.27 1455.51,1147.25 1457.55,1157.04 1459.59,1166.63 1461.64,1176.04 1463.68,1185.25 1465.72,1194.26 1467.77,1203.08 1469.81,1211.71 1471.86,1220.15 1473.9,1228.39 1475.94,1236.44 1477.99,1244.29 1480.03,1251.96 1482.08,1259.43 1484.12,1266.71 1486.16,1273.79 1488.21,1280.69 1490.25,1287.4 1492.29,1293.92 1494.34,1300.25 1496.38,1306.4 1498.43,1312.35 1500.47,1318.13 1502.51,1323.71 1504.56,1329.12 1506.6,1334.33 1508.65,1339.37 1510.69,1344.23 1512.73,1348.9 1514.78,1353.4 1516.82,1357.71 1518.86,1361.85 1520.91,1365.82 1522.95,1369.62 1525,1373.24 1527.04,1376.7 1529.08,1380 1531.13,1383.13 1533.17,1386.1 1535.22,1388.92 1537.26,1391.59 1539.3,1394.1 1541.35,1396.47 1543.39,1398.7 1545.43,1400.8 1547.48,1402.76 1549.52,1404.59 1551.57,1406.29 1553.61,1407.88 1555.65,1409.35 1557.7,1410.72 1559.74,1411.97 1561.79,1413.13 1563.83,1414.19 1565.87,1415.16 1567.92,1416.05 1569.96,1416.85 1572,1417.58 1574.05,1418.24 1576.09,1418.84 1578.14,1419.37 1580.18,1419.84 1582.22,1420.26 1584.27,1420.64 1586.31,1420.97 1588.36,1421.26 1590.4,1421.52 1592.44,1421.74 1594.49,1421.94 1596.53,1422.11 1598.57,1422.26 1600.62,1422.4 1602.66,1422.52 1604.71,1422.62 1606.75,1422.72 1608.79,1422.81 1610.84,1422.89 1612.88,1422.98 1614.93,1423.06 1616.97,1423.14 1619.01,1423.22 1621.06,1423.31 1623.1,1423.4 1625.15,1423.49 1627.19,1423.59 1629.23,1423.7 1631.28,1423.81 1633.32,1423.94 1635.36,1424.07 1637.41,1424.2 1639.45,1424.35 1641.5,1424.5 1643.54,1424.66 1645.58,1424.82 1647.63,1424.99 1649.67,1425.17 1651.72,1425.34 1653.76,1425.52 1655.8,1425.7 1657.85,1425.88 1659.89,1426.06 1661.93,1426.24 1663.98,1426.42 1666.02,1426.59 1668.07,1426.76 1670.11,1426.92 1672.15,1427.07 1674.2,1427.22 1676.24,1427.37 1678.29,1427.5 1680.33,1427.63 1682.37,1427.75 1684.42,1427.87 1686.46,1427.97 1688.5,1428.08 1690.55,1428.17 1692.59,1428.26 1694.64,1428.34 1696.68,1428.41 1698.72,1428.48 1700.77,1428.54 1702.81,1428.6 1704.86,1428.65 1706.9,1428.69 1708.94,1428.73 1710.99,1428.76 1713.03,1428.79 1715.07,1428.81 1717.12,1428.83 1719.16,1428.83 1721.21,1428.84 1723.25,1428.83 1725.29,1428.83 1727.34,1428.81 1729.38,1428.79 1731.43,1428.76 1733.47,1428.73 1735.51,1428.69 1737.56,1428.64 1739.6,1428.59 1741.64,1428.54 1743.69,1428.47 1745.73,1428.4 1747.78,1428.33 1749.82,1428.25 1751.86,1428.17 1753.91,1428.08 1755.95,1427.98 1758,1427.88 1760.04,1427.77 1762.08,1427.66 1764.13,1427.55 1766.17,1427.43 1768.21,1427.3 1770.26,1427.17 1772.3,1427.03 1774.35,1426.89 1776.39,1426.74 1778.43,1426.59 1780.48,1426.44 1782.52,1426.28 1784.57,1426.13 1786.61,1425.96 1788.65,1425.8 1790.7,1425.64 1792.74,1425.48 1794.78,1425.31 1796.83,1425.15 1798.87,1425 1800.92,1424.84 1802.96,1424.69 1805,1424.54 1807.05,1424.39 1809.09,1424.26 1811.14,1424.12 1813.18,1423.99 1815.22,1423.87 1817.27,1423.76 1819.31,1423.65 1821.35,1423.54 1823.4,1423.45 1825.44,1423.37 1827.49,1423.29 1829.53,1423.22 1831.57,1423.16 1833.62,1423.11 1835.66,1423.07 1837.71,1423.05 1839.75,1423.03 1841.79,1423.02 1843.84,1423.01 1845.88,1423.02 1847.92,1423.04 1849.97,1423.07 1852.01,1423.1 1854.06,1423.14 1856.1,1423.19 1858.14,1423.24 1860.19,1423.3 1862.23,1423.36 1864.28,1423.42 1866.32,1423.49 1868.36,1423.56 1870.41,1423.63 1872.45,1423.71 1874.49,1423.78 1876.54,1423.85 1878.58,1423.91 1880.63,1423.98 1882.67,1424.03 1884.71,1424.09 1886.76,1424.13 1888.8,1424.17 1890.85,1424.2 1892.89,1424.22 1894.93,1424.23 1896.98,1424.23 1899.02,1424.22 1901.06,1424.19 1903.11,1424.15 1905.15,1424.09 1907.2,1424.02 1909.24,1423.94 1911.28,1423.83 1913.33,1423.72 1915.37,1423.59 1917.42,1423.44 1919.46,1423.28 1921.5,1423.1 1923.55,1422.91 1925.59,1422.71 1927.63,1422.5 1929.68,1422.27 1931.72,1422.03 1933.77,1421.78 1935.81,1421.53 1937.85,1421.26 1939.9,1420.99 1941.94,1420.71 1943.99,1420.43 1946.03,1420.15 1948.07,1419.86 1950.12,1419.57 1952.16,1419.28 1954.2,1418.99 1956.25,1418.71 1958.29,1418.43 1960.34,1418.15 1962.38,1417.88 1964.42,1417.61 1966.47,1417.35 1968.51,1417.1 1970.56,1416.86 1972.6,1416.63 1974.64,1416.41 1976.69,1416.2 1978.73,1416 1980.78,1415.82 1982.82,1415.65 1984.86,1415.5 1986.91,1415.36 1988.95,1415.24 1990.99,1415.13 1993.04,1415.04 1995.08,1414.97 1997.13,1414.92 1999.17,1414.88 2001.21,1414.87 2003.26,1414.87 2005.3,1414.89 2007.35,1414.94 2009.39,1415 2011.43,1415.08 2013.48,1415.18 2015.52,1415.3 2017.56,1415.44 2019.61,1415.6 2021.65,1415.77 2023.7,1415.96 2025.74,1416.17 2027.78,1416.4 2029.83,1416.64 2031.87,1416.89 2033.92,1417.16 2035.96,1417.44 2038,1417.73 2040.05,1418.03 2042.09,1418.34 2044.13,1418.67 2046.18,1419 2048.22,1419.34 2050.27,1419.68 2052.31,1420.03 2054.35,1420.39 2056.4,1420.74 2058.44,1421.11 2060.49,1421.47 2062.53,1421.83 2064.57,1422.2 2066.62,1422.56 2068.66,1422.92 2070.7,1423.28 2072.75,1423.64 2074.79,1423.98 2076.84,1424.32 2078.88,1424.65 2080.92,1424.98 2082.97,1425.29 2085.01,1425.59 2087.06,1425.88 2089.1,1426.15 2091.14,1426.41 2093.19,1426.66 2095.23,1426.88 2097.27,1427.1 2099.32,1427.29 2101.36,1427.46 2103.41,1427.61 2105.45,1427.74 2107.49,1427.85 2109.54,1427.93 2111.58,1427.99 2113.63,1428.03 2115.67,1428.03 2117.71,1428.01 2119.76,1427.97 2121.8,1427.89 2123.84,1427.79 2125.89,1427.66 2127.93,1427.49 2129.98,1427.3 2132.02,1427.09 2134.06,1426.84 2136.11,1426.57 2138.15,1426.27 2140.2,1425.94 2142.24,1425.59 2144.28,1425.22 2146.33,1424.82 2148.37,1424.4 2150.41,1423.97 2152.46,1423.51 2154.5,1423.04 2156.55,1422.55 2158.59,1422.05 2160.63,1421.54 2162.68,1421.01 2164.72,1420.48 2166.77,1419.94 2168.81,1419.39 2170.85,1418.84 2172.9,1418.29 2174.94,1417.73 2176.98,1417.17 2179.03,1416.62 2181.07,1416.07 2183.12,1415.52 2185.16,1414.97 2187.2,1414.44 2189.25,1413.91 2191.29,1413.39 2193.34,1412.88 2195.38,1412.38 2197.42,1411.89 2199.47,1411.42 2201.51,1410.96 2203.55,1410.52 2205.6,1410.09 2207.64,1409.68 2209.69,1409.3 2211.73,1408.93 2213.77,1408.58 2215.82,1408.26 2217.86,1407.96 2219.91,1407.69 2221.95,1407.44 2223.99,1407.21 2226.04,1407.02 2228.08,1406.85 2230.12,1406.72 2232.17,1406.61 2234.21,1406.53 2236.26,1406.48 2238.3,1406.46 2240.34,1406.47 2242.39,1406.52 2244.43,1406.59 2246.48,1406.69 2248.52,1406.83 2250.56,1407 2252.61,1407.2 2254.65,1407.43 2256.69,1407.69 2258.74,1407.99 2260.78,1408.32 2262.83,1408.68 2264.87,1409.08 2266.91,1409.5 2268.96,1409.97 2271,1410.46 2273.05,1411 2275.09,1411.56 2277.13,1412.16 2279.18,1412.8 2281.22,1413.47 2283.26,1414.18 2285.31,1414.92 2287.35,1415.7 2289.4,1416.51 2291.44,1417.36 "/>
<polyline clip-path="url(#clip742)" style="stroke:#0000ff; stroke-linecap:round; stroke-linejoin:round; stroke-width:4; stroke-opacity:1; fill:none" points="1271.56,1428.84 1271.56,87.9763 "/>
<polyline clip-path="url(#clip742)" style="stroke:#0000ff; stroke-linecap:round; stroke-linejoin:round; stroke-width:4; stroke-opacity:0.5; fill:none" stroke-dasharray="16, 10" points="1271.56,1428.84 1721.21,1428.84 "/>
<polyline clip-path="url(#clip742)" style="stroke:#808080; stroke-linecap:round; stroke-linejoin:round; stroke-width:4; stroke-opacity:1; fill:none" stroke-dasharray="16, 10" points="1146.4,758.407 1393.11,758.407 "/>
<circle clip-path="url(#clip742)" cx="1146.4" cy="758.407" r="14.4" fill="#808080" fill-rule="evenodd" fill-opacity="1" stroke="#000000" stroke-opacity="1" stroke-width="3.2"/>
<circle clip-path="url(#clip742)" cx="1393.11" cy="758.407" r="14.4" fill="#808080" fill-rule="evenodd" fill-opacity="1" stroke="#000000" stroke-opacity="1" stroke-width="3.2"/>
<circle clip-path="url(#clip742)" cx="1271.56" cy="87.9763" r="14.4" fill="#ff0000" fill-rule="evenodd" fill-opacity="1" stroke="#000000" stroke-opacity="1" stroke-width="3.2"/>
<path clip-path="url(#clip740)" d="M1789.33 354.418 L2280.54 354.418 L2280.54 95.2176 L1789.33 95.2176  Z" fill="#ffffff" fill-rule="evenodd" fill-opacity="1"/>
<polyline clip-path="url(#clip740)" style="stroke:#000000; stroke-linecap:round; stroke-linejoin:round; stroke-width:4; stroke-opacity:1; fill:none" points="1789.33,354.418 2280.54,354.418 2280.54,95.2176 1789.33,95.2176 1789.33,354.418 "/>
<polyline clip-path="url(#clip740)" style="stroke:#000000; stroke-linecap:round; stroke-linejoin:round; stroke-width:8; stroke-opacity:1; fill:none" points="1813.4,147.058 1957.84,147.058 "/>
<path clip-path="url(#clip740)" d="M2000.33 139.176 L2000.33 143.203 Q1998.53 142.277 1996.58 141.815 Q1994.64 141.352 1992.56 141.352 Q1989.39 141.352 1987.79 142.324 Q1986.21 143.296 1986.21 145.24 Q1986.21 146.722 1987.35 147.578 Q1988.48 148.412 1991.91 149.176 L1993.37 149.5 Q1997.9 150.472 1999.8 152.254 Q2001.72 154.014 2001.72 157.185 Q2001.72 160.796 1998.85 162.902 Q1996.01 165.009 1991.01 165.009 Q1988.92 165.009 1986.65 164.592 Q1984.41 164.199 1981.91 163.388 L1981.91 158.99 Q1984.27 160.217 1986.56 160.842 Q1988.85 161.444 1991.1 161.444 Q1994.11 161.444 1995.73 160.426 Q1997.35 159.384 1997.35 157.509 Q1997.35 155.773 1996.17 154.847 Q1995.01 153.921 1991.05 153.064 L1989.57 152.717 Q1985.61 151.884 1983.85 150.171 Q1982.09 148.435 1982.09 145.426 Q1982.09 141.768 1984.69 139.778 Q1987.28 137.787 1992.05 137.787 Q1994.41 137.787 1996.49 138.134 Q1998.58 138.481 2000.33 139.176 Z" fill="#000000" fill-rule="nonzero" fill-opacity="1" /><path clip-path="url(#clip740)" d="M2008.51 138.412 L2012.77 138.412 L2012.77 164.338 L2008.51 164.338 L2008.51 138.412 M2008.51 128.319 L2012.77 128.319 L2012.77 133.713 L2008.51 133.713 L2008.51 128.319 Z" fill="#000000" fill-rule="nonzero" fill-opacity="1" /><path clip-path="url(#clip740)" d="M2038.74 151.074 Q2038.74 146.444 2036.82 143.898 Q2034.92 141.352 2031.47 141.352 Q2028.04 141.352 2026.12 143.898 Q2024.22 146.444 2024.22 151.074 Q2024.22 155.68 2026.12 158.226 Q2028.04 160.773 2031.47 160.773 Q2034.92 160.773 2036.82 158.226 Q2038.74 155.68 2038.74 151.074 M2043 161.12 Q2043 167.74 2040.06 170.958 Q2037.12 174.199 2031.05 174.199 Q2028.81 174.199 2026.82 173.851 Q2024.83 173.527 2022.95 172.833 L2022.95 168.689 Q2024.83 169.708 2026.65 170.194 Q2028.48 170.68 2030.38 170.68 Q2034.57 170.68 2036.65 168.481 Q2038.74 166.305 2038.74 161.884 L2038.74 159.777 Q2037.42 162.069 2035.36 163.203 Q2033.3 164.338 2030.43 164.338 Q2025.66 164.338 2022.74 160.703 Q2019.83 157.069 2019.83 151.074 Q2019.83 145.055 2022.74 141.421 Q2025.66 137.787 2030.43 137.787 Q2033.3 137.787 2035.36 138.921 Q2037.42 140.055 2038.74 142.347 L2038.74 138.412 L2043 138.412 L2043 161.12 Z" fill="#000000" fill-rule="nonzero" fill-opacity="1" /><path clip-path="url(#clip740)" d="M2073.32 148.689 L2073.32 164.338 L2069.06 164.338 L2069.06 148.828 Q2069.06 145.148 2067.63 143.319 Q2066.19 141.49 2063.32 141.49 Q2059.87 141.49 2057.88 143.69 Q2055.89 145.889 2055.89 149.685 L2055.89 164.338 L2051.61 164.338 L2051.61 138.412 L2055.89 138.412 L2055.89 142.44 Q2057.42 140.102 2059.48 138.944 Q2061.56 137.787 2064.27 137.787 Q2068.74 137.787 2071.03 140.565 Q2073.32 143.319 2073.32 148.689 Z" fill="#000000" fill-rule="nonzero" fill-opacity="1" /><path clip-path="url(#clip740)" d="M2093.6 151.305 Q2088.44 151.305 2086.45 152.486 Q2084.45 153.666 2084.45 156.514 Q2084.45 158.782 2085.94 160.125 Q2087.44 161.444 2090.01 161.444 Q2093.55 161.444 2095.68 158.944 Q2097.83 156.421 2097.83 152.254 L2097.83 151.305 L2093.6 151.305 M2102.09 149.546 L2102.09 164.338 L2097.83 164.338 L2097.83 160.402 Q2096.38 162.763 2094.2 163.898 Q2092.02 165.009 2088.88 165.009 Q2084.89 165.009 2082.53 162.787 Q2080.2 160.541 2080.2 156.791 Q2080.2 152.416 2083.11 150.194 Q2086.05 147.972 2091.86 147.972 L2097.83 147.972 L2097.83 147.555 Q2097.83 144.615 2095.89 143.018 Q2093.97 141.398 2090.47 141.398 Q2088.25 141.398 2086.14 141.93 Q2084.04 142.463 2082.09 143.527 L2082.09 139.592 Q2084.43 138.69 2086.63 138.25 Q2088.83 137.787 2090.91 137.787 Q2096.54 137.787 2099.32 140.703 Q2102.09 143.62 2102.09 149.546 Z" fill="#000000" fill-rule="nonzero" fill-opacity="1" /><path clip-path="url(#clip740)" d="M2110.87 128.319 L2115.13 128.319 L2115.13 164.338 L2110.87 164.338 L2110.87 128.319 Z" fill="#000000" fill-rule="nonzero" fill-opacity="1" /><polyline clip-path="url(#clip740)" style="stroke:#0000ff; stroke-linecap:round; stroke-linejoin:round; stroke-width:4; stroke-opacity:1; fill:none" points="1813.4,198.898 1957.84,198.898 "/>
<path clip-path="url(#clip740)" d="M1986.19 212.289 L1986.19 226.039 L1981.91 226.039 L1981.91 190.252 L1986.19 190.252 L1986.19 194.187 Q1987.53 191.872 1989.57 190.761 Q1991.63 189.627 1994.48 189.627 Q1999.2 189.627 2002.14 193.377 Q2005.1 197.127 2005.1 203.238 Q2005.1 209.349 2002.14 213.099 Q1999.2 216.849 1994.48 216.849 Q1991.63 216.849 1989.57 215.738 Q1987.53 214.603 1986.19 212.289 M2000.68 203.238 Q2000.68 198.539 1998.74 195.877 Q1996.82 193.192 1993.44 193.192 Q1990.06 193.192 1988.11 195.877 Q1986.19 198.539 1986.19 203.238 Q1986.19 207.937 1988.11 210.622 Q1990.06 213.284 1993.44 213.284 Q1996.82 213.284 1998.74 210.622 Q2000.68 207.937 2000.68 203.238 Z" fill="#000000" fill-rule="nonzero" fill-opacity="1" /><path clip-path="url(#clip740)" d="M2027.19 194.233 Q2026.47 193.817 2025.61 193.631 Q2024.78 193.423 2023.76 193.423 Q2020.15 193.423 2018.21 195.784 Q2016.28 198.122 2016.28 202.52 L2016.28 216.178 L2012 216.178 L2012 190.252 L2016.28 190.252 L2016.28 194.28 Q2017.63 191.918 2019.78 190.784 Q2021.93 189.627 2025.01 189.627 Q2025.45 189.627 2025.98 189.696 Q2026.52 189.743 2027.16 189.858 L2027.19 194.233 Z" fill="#000000" fill-rule="nonzero" fill-opacity="1" /><path clip-path="url(#clip740)" d="M2040.66 193.238 Q2037.23 193.238 2035.24 195.923 Q2033.25 198.585 2033.25 203.238 Q2033.25 207.891 2035.22 210.576 Q2037.21 213.238 2040.66 213.238 Q2044.06 213.238 2046.05 210.553 Q2048.04 207.867 2048.04 203.238 Q2048.04 198.631 2046.05 195.946 Q2044.06 193.238 2040.66 193.238 M2040.66 189.627 Q2046.21 189.627 2049.39 193.238 Q2052.56 196.849 2052.56 203.238 Q2052.56 209.604 2049.39 213.238 Q2046.21 216.849 2040.66 216.849 Q2035.08 216.849 2031.91 213.238 Q2028.76 209.604 2028.76 203.238 Q2028.76 196.849 2031.91 193.238 Q2035.08 189.627 2040.66 189.627 Z" fill="#000000" fill-rule="nonzero" fill-opacity="1" /><path clip-path="url(#clip740)" d="M2079.8 195.229 Q2081.4 192.358 2083.62 190.993 Q2085.84 189.627 2088.85 189.627 Q2092.9 189.627 2095.1 192.474 Q2097.3 195.298 2097.3 200.529 L2097.3 216.178 L2093.02 216.178 L2093.02 200.668 Q2093.02 196.942 2091.7 195.136 Q2090.38 193.33 2087.67 193.33 Q2084.36 193.33 2082.44 195.53 Q2080.52 197.729 2080.52 201.525 L2080.52 216.178 L2076.24 216.178 L2076.24 200.668 Q2076.24 196.918 2074.92 195.136 Q2073.6 193.33 2070.84 193.33 Q2067.58 193.33 2065.66 195.553 Q2063.74 197.752 2063.74 201.525 L2063.74 216.178 L2059.45 216.178 L2059.45 190.252 L2063.74 190.252 L2063.74 194.28 Q2065.2 191.895 2067.23 190.761 Q2069.27 189.627 2072.07 189.627 Q2074.89 189.627 2076.86 191.062 Q2078.85 192.497 2079.8 195.229 Z" fill="#000000" fill-rule="nonzero" fill-opacity="1" /><path clip-path="url(#clip740)" d="M2105.8 190.252 L2110.06 190.252 L2110.06 216.178 L2105.8 216.178 L2105.8 190.252 M2105.8 180.159 L2110.06 180.159 L2110.06 185.553 L2105.8 185.553 L2105.8 180.159 Z" fill="#000000" fill-rule="nonzero" fill-opacity="1" /><path clip-path="url(#clip740)" d="M2140.52 200.529 L2140.52 216.178 L2136.26 216.178 L2136.26 200.668 Q2136.26 196.988 2134.82 195.159 Q2133.39 193.33 2130.52 193.33 Q2127.07 193.33 2125.08 195.53 Q2123.09 197.729 2123.09 201.525 L2123.09 216.178 L2118.81 216.178 L2118.81 190.252 L2123.09 190.252 L2123.09 194.28 Q2124.62 191.942 2126.68 190.784 Q2128.76 189.627 2131.47 189.627 Q2135.94 189.627 2138.23 192.405 Q2140.52 195.159 2140.52 200.529 Z" fill="#000000" fill-rule="nonzero" fill-opacity="1" /><path clip-path="url(#clip740)" d="M2171.19 202.15 L2171.19 204.233 L2151.61 204.233 Q2151.89 208.631 2154.25 210.946 Q2156.63 213.238 2160.87 213.238 Q2163.32 213.238 2165.61 212.636 Q2167.93 212.034 2170.2 210.83 L2170.2 214.858 Q2167.9 215.83 2165.5 216.34 Q2163.09 216.849 2160.61 216.849 Q2154.41 216.849 2150.77 213.238 Q2147.16 209.627 2147.16 203.469 Q2147.16 197.104 2150.59 193.377 Q2154.04 189.627 2159.87 189.627 Q2165.1 189.627 2168.13 193.006 Q2171.19 196.363 2171.19 202.15 M2166.93 200.9 Q2166.88 197.405 2164.96 195.321 Q2163.07 193.238 2159.92 193.238 Q2156.35 193.238 2154.2 195.252 Q2152.07 197.266 2151.75 200.923 L2166.93 200.9 Z" fill="#000000" fill-rule="nonzero" fill-opacity="1" /><path clip-path="url(#clip740)" d="M2199.73 200.529 L2199.73 216.178 L2195.47 216.178 L2195.47 200.668 Q2195.47 196.988 2194.04 195.159 Q2192.6 193.33 2189.73 193.33 Q2186.28 193.33 2184.29 195.53 Q2182.3 197.729 2182.3 201.525 L2182.3 216.178 L2178.02 216.178 L2178.02 190.252 L2182.3 190.252 L2182.3 194.28 Q2183.83 191.942 2185.89 190.784 Q2187.97 189.627 2190.68 189.627 Q2195.15 189.627 2197.44 192.405 Q2199.73 195.159 2199.73 200.529 Z" fill="#000000" fill-rule="nonzero" fill-opacity="1" /><path clip-path="url(#clip740)" d="M2226.88 191.247 L2226.88 195.229 Q2225.08 194.233 2223.25 193.747 Q2221.44 193.238 2219.59 193.238 Q2215.45 193.238 2213.16 195.877 Q2210.87 198.492 2210.87 203.238 Q2210.87 207.983 2213.16 210.622 Q2215.45 213.238 2219.59 213.238 Q2221.44 213.238 2223.25 212.752 Q2225.08 212.242 2226.88 211.247 L2226.88 215.182 Q2225.1 216.016 2223.18 216.432 Q2221.28 216.849 2219.13 216.849 Q2213.27 216.849 2209.82 213.168 Q2206.38 209.488 2206.38 203.238 Q2206.38 196.895 2209.85 193.261 Q2213.34 189.627 2219.41 189.627 Q2221.38 189.627 2223.25 190.043 Q2225.13 190.437 2226.88 191.247 Z" fill="#000000" fill-rule="nonzero" fill-opacity="1" /><path clip-path="url(#clip740)" d="M2256.47 202.15 L2256.47 204.233 L2236.88 204.233 Q2237.16 208.631 2239.52 210.946 Q2241.91 213.238 2246.14 213.238 Q2248.6 213.238 2250.89 212.636 Q2253.2 212.034 2255.47 210.83 L2255.47 214.858 Q2253.18 215.83 2250.77 216.34 Q2248.37 216.849 2245.89 216.849 Q2239.69 216.849 2236.05 213.238 Q2232.44 209.627 2232.44 203.469 Q2232.44 197.104 2235.87 193.377 Q2239.32 189.627 2245.15 189.627 Q2250.38 189.627 2253.41 193.006 Q2256.47 196.363 2256.47 202.15 M2252.21 200.9 Q2252.16 197.405 2250.24 195.321 Q2248.34 193.238 2245.19 193.238 Q2241.63 193.238 2239.48 195.252 Q2237.35 197.266 2237.02 200.923 L2252.21 200.9 Z" fill="#000000" fill-rule="nonzero" fill-opacity="1" /><polyline clip-path="url(#clip740)" style="stroke:#808080; stroke-linecap:round; stroke-linejoin:round; stroke-width:4; stroke-opacity:1; fill:none" stroke-dasharray="16, 10" points="1813.4,250.738 1957.84,250.738 "/>
<path clip-path="url(#clip740)" d="M1981.91 242.092 L1986.17 242.092 L1991.49 262.323 L1996.79 242.092 L2001.82 242.092 L2007.14 262.323 L2012.44 242.092 L2016.7 242.092 L2009.92 268.018 L2004.9 268.018 L1999.32 246.768 L1993.71 268.018 L1988.69 268.018 L1981.91 242.092 Z" fill="#000000" fill-rule="nonzero" fill-opacity="1" /><path clip-path="url(#clip740)" d="M2023.16 242.092 L2027.42 242.092 L2027.42 268.018 L2023.16 268.018 L2023.16 242.092 M2023.16 231.999 L2027.42 231.999 L2027.42 237.393 L2023.16 237.393 L2023.16 231.999 Z" fill="#000000" fill-rule="nonzero" fill-opacity="1" /><path clip-path="url(#clip740)" d="M2053.39 246.027 L2053.39 231.999 L2057.65 231.999 L2057.65 268.018 L2053.39 268.018 L2053.39 264.129 Q2052.05 266.443 2049.99 267.578 Q2047.95 268.689 2045.08 268.689 Q2040.38 268.689 2037.42 264.939 Q2034.48 261.189 2034.48 255.078 Q2034.48 248.967 2037.42 245.217 Q2040.38 241.467 2045.08 241.467 Q2047.95 241.467 2049.99 242.601 Q2052.05 243.712 2053.39 246.027 M2038.88 255.078 Q2038.88 259.777 2040.8 262.462 Q2042.74 265.124 2046.12 265.124 Q2049.5 265.124 2051.45 262.462 Q2053.39 259.777 2053.39 255.078 Q2053.39 250.379 2051.45 247.717 Q2049.5 245.032 2046.12 245.032 Q2042.74 245.032 2040.8 247.717 Q2038.88 250.379 2038.88 255.078 Z" fill="#000000" fill-rule="nonzero" fill-opacity="1" /><path clip-path="url(#clip740)" d="M2070.64 234.731 L2070.64 242.092 L2079.41 242.092 L2079.41 245.402 L2070.64 245.402 L2070.64 259.476 Q2070.64 262.647 2071.49 263.55 Q2072.37 264.453 2075.03 264.453 L2079.41 264.453 L2079.41 268.018 L2075.03 268.018 Q2070.1 268.018 2068.23 266.189 Q2066.35 264.337 2066.35 259.476 L2066.35 245.402 L2063.23 245.402 L2063.23 242.092 L2066.35 242.092 L2066.35 234.731 L2070.64 234.731 Z" fill="#000000" fill-rule="nonzero" fill-opacity="1" /><path clip-path="url(#clip740)" d="M2106.56 252.369 L2106.56 268.018 L2102.3 268.018 L2102.3 252.508 Q2102.3 248.828 2100.87 246.999 Q2099.43 245.17 2096.56 245.17 Q2093.11 245.17 2091.12 247.37 Q2089.13 249.569 2089.13 253.365 L2089.13 268.018 L2084.85 268.018 L2084.85 231.999 L2089.13 231.999 L2089.13 246.12 Q2090.66 243.782 2092.72 242.624 Q2094.8 241.467 2097.51 241.467 Q2101.98 241.467 2104.27 244.245 Q2106.56 246.999 2106.56 252.369 Z" fill="#000000" fill-rule="nonzero" fill-opacity="1" /><circle clip-path="url(#clip740)" cx="1885.62" cy="302.578" r="20.48" fill="#ff0000" fill-rule="evenodd" fill-opacity="1" stroke="#000000" stroke-opacity="1" stroke-width="4.55111"/>
<path clip-path="url(#clip740)" d="M2002.26 298.909 Q2003.85 296.038 2006.08 294.673 Q2008.3 293.307 2011.31 293.307 Q2015.36 293.307 2017.56 296.154 Q2019.76 298.978 2019.76 304.209 L2019.76 319.858 L2015.47 319.858 L2015.47 304.348 Q2015.47 300.622 2014.15 298.816 Q2012.83 297.01 2010.13 297.01 Q2006.82 297.01 2004.9 299.21 Q2002.97 301.409 2002.97 305.205 L2002.97 319.858 L1998.69 319.858 L1998.69 304.348 Q1998.69 300.598 1997.37 298.816 Q1996.05 297.01 1993.3 297.01 Q1990.03 297.01 1988.11 299.233 Q1986.19 301.432 1986.19 305.205 L1986.19 319.858 L1981.91 319.858 L1981.91 293.932 L1986.19 293.932 L1986.19 297.96 Q1987.65 295.575 1989.69 294.441 Q1991.72 293.307 1994.52 293.307 Q1997.35 293.307 1999.32 294.742 Q2001.31 296.177 2002.26 298.909 Z" fill="#000000" fill-rule="nonzero" fill-opacity="1" /><path clip-path="url(#clip740)" d="M2040.03 306.825 Q2034.87 306.825 2032.88 308.006 Q2030.89 309.186 2030.89 312.034 Q2030.89 314.302 2032.37 315.645 Q2033.88 316.964 2036.45 316.964 Q2039.99 316.964 2042.12 314.464 Q2044.27 311.941 2044.27 307.774 L2044.27 306.825 L2040.03 306.825 M2048.53 305.066 L2048.53 319.858 L2044.27 319.858 L2044.27 315.922 Q2042.81 318.283 2040.64 319.418 Q2038.46 320.529 2035.31 320.529 Q2031.33 320.529 2028.97 318.307 Q2026.63 316.061 2026.63 312.311 Q2026.63 307.936 2029.55 305.714 Q2032.49 303.492 2038.3 303.492 L2044.27 303.492 L2044.27 303.075 Q2044.27 300.135 2042.33 298.538 Q2040.4 296.918 2036.91 296.918 Q2034.69 296.918 2032.58 297.45 Q2030.47 297.983 2028.53 299.047 L2028.53 295.112 Q2030.87 294.21 2033.07 293.77 Q2035.27 293.307 2037.35 293.307 Q2042.97 293.307 2045.75 296.223 Q2048.53 299.14 2048.53 305.066 Z" fill="#000000" fill-rule="nonzero" fill-opacity="1" /><path clip-path="url(#clip740)" d="M2078.85 293.932 L2069.48 306.547 L2079.34 319.858 L2074.32 319.858 L2066.77 309.672 L2059.22 319.858 L2054.2 319.858 L2064.27 306.293 L2055.06 293.932 L2060.08 293.932 L2066.95 303.168 L2073.83 293.932 L2078.85 293.932 Z" fill="#000000" fill-rule="nonzero" fill-opacity="1" /><path clip-path="url(#clip740)" d="M2085.36 293.932 L2089.62 293.932 L2089.62 319.858 L2085.36 319.858 L2085.36 293.932 M2085.36 283.839 L2089.62 283.839 L2089.62 289.233 L2085.36 289.233 L2085.36 283.839 Z" fill="#000000" fill-rule="nonzero" fill-opacity="1" /><path clip-path="url(#clip740)" d="M2118.71 298.909 Q2120.31 296.038 2122.53 294.673 Q2124.76 293.307 2127.76 293.307 Q2131.82 293.307 2134.01 296.154 Q2136.21 298.978 2136.21 304.209 L2136.21 319.858 L2131.93 319.858 L2131.93 304.348 Q2131.93 300.622 2130.61 298.816 Q2129.29 297.01 2126.58 297.01 Q2123.27 297.01 2121.35 299.21 Q2119.43 301.409 2119.43 305.205 L2119.43 319.858 L2115.15 319.858 L2115.15 304.348 Q2115.15 300.598 2113.83 298.816 Q2112.51 297.01 2109.76 297.01 Q2106.49 297.01 2104.57 299.233 Q2102.65 301.432 2102.65 305.205 L2102.65 319.858 L2098.37 319.858 L2098.37 293.932 L2102.65 293.932 L2102.65 297.96 Q2104.11 295.575 2106.14 294.441 Q2108.18 293.307 2110.98 293.307 Q2113.81 293.307 2115.77 294.742 Q2117.76 296.177 2118.71 298.909 Z" fill="#000000" fill-rule="nonzero" fill-opacity="1" /><path clip-path="url(#clip740)" d="M2156.49 306.825 Q2151.33 306.825 2149.34 308.006 Q2147.35 309.186 2147.35 312.034 Q2147.35 314.302 2148.83 315.645 Q2150.33 316.964 2152.9 316.964 Q2156.45 316.964 2158.57 314.464 Q2160.73 311.941 2160.73 307.774 L2160.73 306.825 L2156.49 306.825 M2164.99 305.066 L2164.99 319.858 L2160.73 319.858 L2160.73 315.922 Q2159.27 318.283 2157.09 319.418 Q2154.92 320.529 2151.77 320.529 Q2147.79 320.529 2145.43 318.307 Q2143.09 316.061 2143.09 312.311 Q2143.09 307.936 2146.01 305.714 Q2148.95 303.492 2154.76 303.492 L2160.73 303.492 L2160.73 303.075 Q2160.73 300.135 2158.78 298.538 Q2156.86 296.918 2153.37 296.918 Q2151.14 296.918 2149.04 297.45 Q2146.93 297.983 2144.99 299.047 L2144.99 295.112 Q2147.32 294.21 2149.52 293.77 Q2151.72 293.307 2153.81 293.307 Q2159.43 293.307 2162.21 296.223 Q2164.99 299.14 2164.99 305.066 Z" fill="#000000" fill-rule="nonzero" fill-opacity="1" /></svg>
