<?xml version="1.0" encoding="utf-8"?>
<svg xmlns="http://www.w3.org/2000/svg" xmlns:xlink="http://www.w3.org/1999/xlink" width="600" height="400" viewBox="0 0 2400 1600">
<defs>
  <clipPath id="clip680">
    <rect x="0" y="0" width="2400" height="1600"/>
  </clipPath>
</defs>
<path clip-path="url(#clip680)" d="M0 1600 L2400 1600 L2400 0 L0 0  Z" fill="#ffffff" fill-rule="evenodd" fill-opacity="1"/>
<defs>
  <clipPath id="clip681">
    <rect x="480" y="0" width="1681" height="1600"/>
  </clipPath>
</defs>
<path clip-path="url(#clip680)" d="M249.542 1423.18 L2352.76 1423.18 L2352.76 47.2441 L249.542 47.2441  Z" fill="#ffffff" fill-rule="evenodd" fill-opacity="1"/>
<defs>
  <clipPath id="clip682">
    <rect x="249" y="47" width="2104" height="1377"/>
  </clipPath>
</defs>
<polyline clip-path="url(#clip682)" style="stroke:#000000; stroke-linecap:round; stroke-linejoin:round; stroke-width:2; stroke-opacity:0.1; fill:none" points="309.067,1423.18 309.067,47.2441 "/>
<polyline clip-path="url(#clip682)" style="stroke:#000000; stroke-linecap:round; stroke-linejoin:round; stroke-width:2; stroke-opacity:0.1; fill:none" points="805.108,1423.18 805.108,47.2441 "/>
<polyline clip-path="url(#clip682)" style="stroke:#000000; stroke-linecap:round; stroke-linejoin:round; stroke-width:2; stroke-opacity:0.1; fill:none" points="1301.15,1423.18 1301.15,47.2441 "/>
<polyline clip-path="url(#clip682)" style="stroke:#000000; stroke-linecap:round; stroke-linejoin:round; stroke-width:2; stroke-opacity:0.1; fill:none" points="1797.19,1423.18 1797.19,47.2441 "/>
<polyline clip-path="url(#clip682)" style="stroke:#000000; stroke-linecap:round; stroke-linejoin:round; stroke-width:2; stroke-opacity:0.1; fill:none" points="2293.23,1423.18 2293.23,47.2441 "/>
<polyline clip-path="url(#clip682)" style="stroke:#000000; stroke-linecap:round; stroke-linejoin:round; stroke-width:2; stroke-opacity:0.1; fill:none" points="249.542,1215.44 2352.76,1215.44 "/>
<polyline clip-path="url(#clip682)" style="stroke:#000000; stroke-linecap:round; stroke-linejoin:round; stroke-width:2; stroke-opacity:0.1; fill:none" points="249.542,955.775 2352.76,955.775 "/>
<polyline clip-path="url(#clip682)" style="stroke:#000000; stroke-linecap:round; stroke-linejoin:round; stroke-width:2; stroke-opacity:0.1; fill:none" points="249.542,696.108 2352.76,696.108 "/>
<polyline clip-path="url(#clip682)" style="stroke:#000000; stroke-linecap:round; stroke-linejoin:round; stroke-width:2; stroke-opacity:0.1; fill:none" points="249.542,436.44 2352.76,436.44 "/>
<polyline clip-path="url(#clip682)" style="stroke:#000000; stroke-linecap:round; stroke-linejoin:round; stroke-width:2; stroke-opacity:0.1; fill:none" points="249.542,176.772 2352.76,176.772 "/>
<polyline clip-path="url(#clip680)" style="stroke:#000000; stroke-linecap:round; stroke-linejoin:round; stroke-width:4; stroke-opacity:1; fill:none" points="249.542,1423.18 2352.76,1423.18 "/>
<polyline clip-path="url(#clip680)" style="stroke:#000000; stroke-linecap:round; stroke-linejoin:round; stroke-width:4; stroke-opacity:1; fill:none" points="309.067,1423.18 309.067,1404.28 "/>
<polyline clip-path="url(#clip680)" style="stroke:#000000; stroke-linecap:round; stroke-linejoin:round; stroke-width:4; stroke-opacity:1; fill:none" points="805.108,1423.18 805.108,1404.28 "/>
<polyline clip-path="url(#clip680)" style="stroke:#000000; stroke-linecap:round; stroke-linejoin:round; stroke-width:4; stroke-opacity:1; fill:none" points="1301.15,1423.18 1301.15,1404.28 "/>
<polyline clip-path="url(#clip680)" style="stroke:#000000; stroke-linecap:round; stroke-linejoin:round; stroke-width:4; stroke-opacity:1; fill:none" points="1797.19,1423.18 1797.19,1404.28 "/>
<polyline clip-path="url(#clip680)" style="stroke:#000000; stroke-linecap:round; stroke-linejoin:round; stroke-width:4; stroke-opacity:1; fill:none" points="2293.23,1423.18 2293.23,1404.28 "/>
<path clip-path="url(#clip680)" d="M309.067 1454.1 Q305.456 1454.1 303.627 1457.66 Q301.822 1461.2 301.822 1468.33 Q301.822 1475.44 303.627 1479.01 Q305.456 1482.55 309.067 1482.55 Q312.701 1482.55 314.507 1479.01 Q316.335 1475.44 316.335 1468.33 Q316.335 1461.2 314.507 1457.66 Q312.701 1454.1 309.067 1454.1 M309.067 1450.39 Q314.877 1450.39 317.933 1455 Q321.011 1459.58 321.011 1468.33 Q321.011 1477.06 317.933 1481.67 Q314.877 1486.25 309.067 1486.25 Q303.257 1486.25 300.178 1481.67 Q297.123 1477.06 297.123 1468.33 Q297.123 1459.58 300.178 1455 Q303.257 1450.39 309.067 1450.39 Z" fill="#000000" fill-rule="nonzero" fill-opacity="1" /><path clip-path="url(#clip680)" d="M784.379 1481.64 L800.698 1481.64 L800.698 1485.58 L778.754 1485.58 L778.754 1481.64 Q781.416 1478.89 785.999 1474.26 Q790.606 1469.61 791.786 1468.27 Q794.032 1465.74 794.911 1464.01 Q795.814 1462.25 795.814 1460.56 Q795.814 1457.8 793.87 1456.07 Q791.948 1454.33 788.846 1454.33 Q786.647 1454.33 784.194 1455.09 Q781.763 1455.86 778.985 1457.41 L778.985 1452.69 Q781.809 1451.55 784.263 1450.97 Q786.717 1450.39 788.754 1450.39 Q794.124 1450.39 797.319 1453.08 Q800.513 1455.77 800.513 1460.26 Q800.513 1462.39 799.703 1464.31 Q798.916 1466.2 796.809 1468.8 Q796.231 1469.47 793.129 1472.69 Q790.027 1475.88 784.379 1481.64 Z" fill="#000000" fill-rule="nonzero" fill-opacity="1" /><path clip-path="url(#clip680)" d="M810.559 1451.02 L828.916 1451.02 L828.916 1454.96 L814.842 1454.96 L814.842 1463.43 Q815.86 1463.08 816.879 1462.92 Q817.897 1462.73 818.916 1462.73 Q824.703 1462.73 828.082 1465.9 Q831.462 1469.08 831.462 1474.49 Q831.462 1480.07 827.99 1483.17 Q824.518 1486.25 818.198 1486.25 Q816.022 1486.25 813.754 1485.88 Q811.508 1485.51 809.101 1484.77 L809.101 1480.07 Q811.184 1481.2 813.407 1481.76 Q815.629 1482.32 818.106 1482.32 Q822.11 1482.32 824.448 1480.21 Q826.786 1478.1 826.786 1474.49 Q826.786 1470.88 824.448 1468.77 Q822.11 1466.67 818.106 1466.67 Q816.231 1466.67 814.356 1467.08 Q812.504 1467.5 810.559 1468.38 L810.559 1451.02 Z" fill="#000000" fill-rule="nonzero" fill-opacity="1" /><path clip-path="url(#clip680)" d="M1275.85 1451.02 L1294.2 1451.02 L1294.2 1454.96 L1280.13 1454.96 L1280.13 1463.43 Q1281.15 1463.08 1282.17 1462.92 Q1283.19 1462.73 1284.2 1462.73 Q1289.99 1462.73 1293.37 1465.9 Q1296.75 1469.08 1296.75 1474.49 Q1296.75 1480.07 1293.28 1483.17 Q1289.81 1486.25 1283.49 1486.25 Q1281.31 1486.25 1279.04 1485.88 Q1276.8 1485.51 1274.39 1484.77 L1274.39 1480.07 Q1276.47 1481.2 1278.7 1481.76 Q1280.92 1482.32 1283.39 1482.32 Q1287.4 1482.32 1289.74 1480.21 Q1292.07 1478.1 1292.07 1474.49 Q1292.07 1470.88 1289.74 1468.77 Q1287.4 1466.67 1283.39 1466.67 Q1281.52 1466.67 1279.64 1467.08 Q1277.79 1467.5 1275.85 1468.38 L1275.85 1451.02 Z" fill="#000000" fill-rule="nonzero" fill-opacity="1" /><path clip-path="url(#clip680)" d="M1315.96 1454.1 Q1312.35 1454.1 1310.52 1457.66 Q1308.72 1461.2 1308.72 1468.33 Q1308.72 1475.44 1310.52 1479.01 Q1312.35 1482.55 1315.96 1482.55 Q1319.6 1482.55 1321.4 1479.01 Q1323.23 1475.44 1323.23 1468.33 Q1323.23 1461.2 1321.4 1457.66 Q1319.6 1454.1 1315.96 1454.1 M1315.96 1450.39 Q1321.77 1450.39 1324.83 1455 Q1327.91 1459.58 1327.91 1468.33 Q1327.91 1477.06 1324.83 1481.67 Q1321.77 1486.25 1315.96 1486.25 Q1310.15 1486.25 1307.07 1481.67 Q1304.02 1477.06 1304.02 1468.33 Q1304.02 1459.58 1307.07 1455 Q1310.15 1450.39 1315.96 1450.39 Z" fill="#000000" fill-rule="nonzero" fill-opacity="1" /><path clip-path="url(#clip680)" d="M1771.04 1451.02 L1793.27 1451.02 L1793.27 1453.01 L1780.72 1485.58 L1775.84 1485.58 L1787.64 1454.96 L1771.04 1454.96 L1771.04 1451.02 Z" fill="#000000" fill-rule="nonzero" fill-opacity="1" /><path clip-path="url(#clip680)" d="M1802.43 1451.02 L1820.79 1451.02 L1820.79 1454.96 L1806.72 1454.96 L1806.72 1463.43 Q1807.73 1463.08 1808.75 1462.92 Q1809.77 1462.73 1810.79 1462.73 Q1816.58 1462.73 1819.96 1465.9 Q1823.34 1469.08 1823.34 1474.49 Q1823.34 1480.07 1819.86 1483.17 Q1816.39 1486.25 1810.07 1486.25 Q1807.9 1486.25 1805.63 1485.88 Q1803.38 1485.51 1800.97 1484.77 L1800.97 1480.07 Q1803.06 1481.2 1805.28 1481.76 Q1807.5 1482.32 1809.98 1482.32 Q1813.98 1482.32 1816.32 1480.21 Q1818.66 1478.1 1818.66 1474.49 Q1818.66 1470.88 1816.32 1468.77 Q1813.98 1466.67 1809.98 1466.67 Q1808.1 1466.67 1806.23 1467.08 Q1804.38 1467.5 1802.43 1468.38 L1802.43 1451.02 Z" fill="#000000" fill-rule="nonzero" fill-opacity="1" /><path clip-path="url(#clip680)" d="M2252.84 1481.64 L2260.48 1481.64 L2260.48 1455.28 L2252.17 1456.95 L2252.17 1452.69 L2260.43 1451.02 L2265.11 1451.02 L2265.11 1481.64 L2272.74 1481.64 L2272.74 1485.58 L2252.84 1485.58 L2252.84 1481.64 Z" fill="#000000" fill-rule="nonzero" fill-opacity="1" /><path clip-path="url(#clip680)" d="M2292.19 1454.1 Q2288.58 1454.1 2286.75 1457.66 Q2284.94 1461.2 2284.94 1468.33 Q2284.94 1475.44 2286.75 1479.01 Q2288.58 1482.55 2292.19 1482.55 Q2295.82 1482.55 2297.63 1479.01 Q2299.46 1475.44 2299.46 1468.33 Q2299.46 1461.2 2297.63 1457.66 Q2295.82 1454.1 2292.19 1454.1 M2292.19 1450.39 Q2298 1450.39 2301.06 1455 Q2304.13 1459.58 2304.13 1468.33 Q2304.13 1477.06 2301.06 1481.67 Q2298 1486.25 2292.19 1486.25 Q2286.38 1486.25 2283.3 1481.67 Q2280.24 1477.06 2280.24 1468.33 Q2280.24 1459.58 2283.3 1455 Q2286.38 1450.39 2292.19 1450.39 Z" fill="#000000" fill-rule="nonzero" fill-opacity="1" /><path clip-path="url(#clip680)" d="M2322.35 1454.1 Q2318.74 1454.1 2316.91 1457.66 Q2315.11 1461.2 2315.11 1468.33 Q2315.11 1475.44 2316.91 1479.01 Q2318.74 1482.55 2322.35 1482.55 Q2325.99 1482.55 2327.79 1479.01 Q2329.62 1475.44 2329.62 1468.33 Q2329.62 1461.2 2327.79 1457.66 Q2325.99 1454.1 2322.35 1454.1 M2322.35 1450.39 Q2328.16 1450.39 2331.22 1455 Q2334.3 1459.58 2334.3 1468.33 Q2334.3 1477.06 2331.22 1481.67 Q2328.16 1486.25 2322.35 1486.25 Q2316.54 1486.25 2313.46 1481.67 Q2310.41 1477.06 2310.41 1468.33 Q2310.41 1459.58 2313.46 1455 Q2316.54 1450.39 2322.35 1450.39 Z" fill="#000000" fill-rule="nonzero" fill-opacity="1" /><path clip-path="url(#clip680)" d="M1282.97 1520.52 L1289.88 1520.52 L1301.69 1538.19 L1313.56 1520.52 L1320.47 1520.52 L1305.19 1543.34 L1321.49 1568.04 L1314.58 1568.04 L1301.21 1547.83 L1287.75 1568.04 L1280.81 1568.04 L1297.78 1542.68 L1282.97 1520.52 Z" fill="#000000" fill-rule="nonzero" fill-opacity="1" /><polyline clip-path="url(#clip680)" style="stroke:#000000; stroke-linecap:round; stroke-linejoin:round; stroke-width:4; stroke-opacity:1; fill:none" points="249.542,1423.18 249.542,47.2441 "/>
<polyline clip-path="url(#clip680)" style="stroke:#000000; stroke-linecap:round; stroke-linejoin:round; stroke-width:4; stroke-opacity:1; fill:none" points="249.542,1215.44 268.44,1215.44 "/>
<polyline clip-path="url(#clip680)" style="stroke:#000000; stroke-linecap:round; stroke-linejoin:round; stroke-width:4; stroke-opacity:1; fill:none" points="249.542,955.775 268.44,955.775 "/>
<polyline clip-path="url(#clip680)" style="stroke:#000000; stroke-linecap:round; stroke-linejoin:round; stroke-width:4; stroke-opacity:1; fill:none" points="249.542,696.108 268.44,696.108 "/>
<polyline clip-path="url(#clip680)" style="stroke:#000000; stroke-linecap:round; stroke-linejoin:round; stroke-width:4; stroke-opacity:1; fill:none" points="249.542,436.44 268.44,436.44 "/>
<polyline clip-path="url(#clip680)" style="stroke:#000000; stroke-linecap:round; stroke-linejoin:round; stroke-width:4; stroke-opacity:1; fill:none" points="249.542,176.772 268.44,176.772 "/>
<path clip-path="url(#clip680)" d="M126.205 1201.24 Q122.593 1201.24 120.765 1204.81 Q118.959 1208.35 118.959 1215.48 Q118.959 1222.58 120.765 1226.15 Q122.593 1229.69 126.205 1229.69 Q129.839 1229.69 131.644 1226.15 Q133.473 1222.58 133.473 1215.48 Q133.473 1208.35 131.644 1204.81 Q129.839 1201.24 126.205 1201.24 M126.205 1197.54 Q132.015 1197.54 135.07 1202.14 Q138.149 1206.73 138.149 1215.48 Q138.149 1224.2 135.07 1228.81 Q132.015 1233.39 126.205 1233.39 Q120.394 1233.39 117.316 1228.81 Q114.26 1224.2 114.26 1215.48 Q114.26 1206.73 117.316 1202.14 Q120.394 1197.54 126.205 1197.54 Z" fill="#000000" fill-rule="nonzero" fill-opacity="1" /><path clip-path="url(#clip680)" d="M146.366 1226.84 L151.251 1226.84 L151.251 1232.72 L146.366 1232.72 L146.366 1226.84 Z" fill="#000000" fill-rule="nonzero" fill-opacity="1" /><path clip-path="url(#clip680)" d="M171.436 1201.24 Q167.825 1201.24 165.996 1204.81 Q164.19 1208.35 164.19 1215.48 Q164.19 1222.58 165.996 1226.15 Q167.825 1229.69 171.436 1229.69 Q175.07 1229.69 176.876 1226.15 Q178.704 1222.58 178.704 1215.48 Q178.704 1208.35 176.876 1204.81 Q175.07 1201.24 171.436 1201.24 M171.436 1197.54 Q177.246 1197.54 180.301 1202.14 Q183.38 1206.73 183.38 1215.48 Q183.38 1224.2 180.301 1228.81 Q177.246 1233.39 171.436 1233.39 Q165.626 1233.39 162.547 1228.81 Q159.491 1224.2 159.491 1215.48 Q159.491 1206.73 162.547 1202.14 Q165.626 1197.54 171.436 1197.54 Z" fill="#000000" fill-rule="nonzero" fill-opacity="1" /><path clip-path="url(#clip680)" d="M201.598 1201.24 Q197.987 1201.24 196.158 1204.81 Q194.352 1208.35 194.352 1215.48 Q194.352 1222.58 196.158 1226.15 Q197.987 1229.69 201.598 1229.69 Q205.232 1229.69 207.037 1226.15 Q208.866 1222.58 208.866 1215.48 Q208.866 1208.35 207.037 1204.81 Q205.232 1201.24 201.598 1201.24 M201.598 1197.54 Q207.408 1197.54 210.463 1202.14 Q213.542 1206.73 213.542 1215.48 Q213.542 1224.2 210.463 1228.81 Q207.408 1233.39 201.598 1233.39 Q195.787 1233.39 192.709 1228.81 Q189.653 1224.2 189.653 1215.48 Q189.653 1206.73 192.709 1202.14 Q195.787 1197.54 201.598 1197.54 Z" fill="#000000" fill-rule="nonzero" fill-opacity="1" /><path clip-path="url(#clip680)" d="M127.2 941.574 Q123.589 941.574 121.76 945.139 Q119.955 948.68 119.955 955.81 Q119.955 962.916 121.76 966.481 Q123.589 970.023 127.2 970.023 Q130.834 970.023 132.64 966.481 Q134.468 962.916 134.468 955.81 Q134.468 948.68 132.64 945.139 Q130.834 941.574 127.2 941.574 M127.2 937.87 Q133.01 937.87 136.066 942.477 Q139.144 947.06 139.144 955.81 Q139.144 964.537 136.066 969.143 Q133.01 973.727 127.2 973.727 Q121.39 973.727 118.311 969.143 Q115.256 964.537 115.256 955.81 Q115.256 947.06 118.311 942.477 Q121.39 937.87 127.2 937.87 Z" fill="#000000" fill-rule="nonzero" fill-opacity="1" /><path clip-path="url(#clip680)" d="M147.362 967.176 L152.246 967.176 L152.246 973.055 L147.362 973.055 L147.362 967.176 Z" fill="#000000" fill-rule="nonzero" fill-opacity="1" /><path clip-path="url(#clip680)" d="M166.459 969.12 L182.778 969.12 L182.778 973.055 L160.834 973.055 L160.834 969.12 Q163.496 966.365 168.079 961.736 Q172.686 957.083 173.866 955.74 Q176.112 953.217 176.991 951.481 Q177.894 949.722 177.894 948.032 Q177.894 945.278 175.95 943.541 Q174.028 941.805 170.927 941.805 Q168.727 941.805 166.274 942.569 Q163.843 943.333 161.065 944.884 L161.065 940.162 Q163.89 939.028 166.343 938.449 Q168.797 937.87 170.834 937.87 Q176.204 937.87 179.399 940.555 Q182.593 943.241 182.593 947.731 Q182.593 949.861 181.783 951.782 Q180.996 953.68 178.889 956.273 Q178.311 956.944 175.209 960.162 Q172.107 963.356 166.459 969.12 Z" fill="#000000" fill-rule="nonzero" fill-opacity="1" /><path clip-path="url(#clip680)" d="M192.639 938.495 L210.996 938.495 L210.996 942.43 L196.922 942.43 L196.922 950.903 Q197.94 950.555 198.959 950.393 Q199.977 950.208 200.996 950.208 Q206.783 950.208 210.162 953.379 Q213.542 956.551 213.542 961.967 Q213.542 967.546 210.07 970.648 Q206.598 973.727 200.278 973.727 Q198.102 973.727 195.834 973.356 Q193.588 972.986 191.181 972.245 L191.181 967.546 Q193.264 968.68 195.487 969.236 Q197.709 969.791 200.186 969.791 Q204.19 969.791 206.528 967.685 Q208.866 965.578 208.866 961.967 Q208.866 958.356 206.528 956.25 Q204.19 954.143 200.186 954.143 Q198.311 954.143 196.436 954.56 Q194.584 954.977 192.639 955.856 L192.639 938.495 Z" fill="#000000" fill-rule="nonzero" fill-opacity="1" /><path clip-path="url(#clip680)" d="M126.205 681.906 Q122.593 681.906 120.765 685.471 Q118.959 689.013 118.959 696.142 Q118.959 703.249 120.765 706.814 Q122.593 710.355 126.205 710.355 Q129.839 710.355 131.644 706.814 Q133.473 703.249 133.473 696.142 Q133.473 689.013 131.644 685.471 Q129.839 681.906 126.205 681.906 M126.205 678.203 Q132.015 678.203 135.07 682.809 Q138.149 687.392 138.149 696.142 Q138.149 704.869 135.07 709.476 Q132.015 714.059 126.205 714.059 Q120.394 714.059 117.316 709.476 Q114.26 704.869 114.26 696.142 Q114.26 687.392 117.316 682.809 Q120.394 678.203 126.205 678.203 Z" fill="#000000" fill-rule="nonzero" fill-opacity="1" /><path clip-path="url(#clip680)" d="M146.366 707.508 L151.251 707.508 L151.251 713.388 L146.366 713.388 L146.366 707.508 Z" fill="#000000" fill-rule="nonzero" fill-opacity="1" /><path clip-path="url(#clip680)" d="M161.482 678.828 L179.839 678.828 L179.839 682.763 L165.765 682.763 L165.765 691.235 Q166.783 690.888 167.802 690.726 Q168.82 690.541 169.839 690.541 Q175.626 690.541 179.005 693.712 Q182.385 696.883 182.385 702.3 Q182.385 707.878 178.913 710.98 Q175.44 714.059 169.121 714.059 Q166.945 714.059 164.677 713.689 Q162.431 713.318 160.024 712.577 L160.024 707.878 Q162.107 709.013 164.329 709.568 Q166.552 710.124 169.028 710.124 Q173.033 710.124 175.371 708.017 Q177.709 705.911 177.709 702.3 Q177.709 698.689 175.371 696.582 Q173.033 694.476 169.028 694.476 Q167.153 694.476 165.278 694.892 Q163.427 695.309 161.482 696.189 L161.482 678.828 Z" fill="#000000" fill-rule="nonzero" fill-opacity="1" /><path clip-path="url(#clip680)" d="M201.598 681.906 Q197.987 681.906 196.158 685.471 Q194.352 689.013 194.352 696.142 Q194.352 703.249 196.158 706.814 Q197.987 710.355 201.598 710.355 Q205.232 710.355 207.037 706.814 Q208.866 703.249 208.866 696.142 Q208.866 689.013 207.037 685.471 Q205.232 681.906 201.598 681.906 M201.598 678.203 Q207.408 678.203 210.463 682.809 Q213.542 687.392 213.542 696.142 Q213.542 704.869 210.463 709.476 Q207.408 714.059 201.598 714.059 Q195.787 714.059 192.709 709.476 Q189.653 704.869 189.653 696.142 Q189.653 687.392 192.709 682.809 Q195.787 678.203 201.598 678.203 Z" fill="#000000" fill-rule="nonzero" fill-opacity="1" /><path clip-path="url(#clip680)" d="M127.2 422.239 Q123.589 422.239 121.76 425.804 Q119.955 429.345 119.955 436.475 Q119.955 443.581 121.76 447.146 Q123.589 450.688 127.2 450.688 Q130.834 450.688 132.64 447.146 Q134.468 443.581 134.468 436.475 Q134.468 429.345 132.64 425.804 Q130.834 422.239 127.2 422.239 M127.2 418.535 Q133.01 418.535 136.066 423.142 Q139.144 427.725 139.144 436.475 Q139.144 445.202 136.066 449.808 Q133.01 454.391 127.2 454.391 Q121.39 454.391 118.311 449.808 Q115.256 445.202 115.256 436.475 Q115.256 427.725 118.311 423.142 Q121.39 418.535 127.2 418.535 Z" fill="#000000" fill-rule="nonzero" fill-opacity="1" /><path clip-path="url(#clip680)" d="M147.362 447.84 L152.246 447.84 L152.246 453.72 L147.362 453.72 L147.362 447.84 Z" fill="#000000" fill-rule="nonzero" fill-opacity="1" /><path clip-path="url(#clip680)" d="M161.251 419.16 L183.473 419.16 L183.473 421.151 L170.927 453.72 L166.042 453.72 L177.848 423.095 L161.251 423.095 L161.251 419.16 Z" fill="#000000" fill-rule="nonzero" fill-opacity="1" /><path clip-path="url(#clip680)" d="M192.639 419.16 L210.996 419.16 L210.996 423.095 L196.922 423.095 L196.922 431.567 Q197.94 431.22 198.959 431.058 Q199.977 430.873 200.996 430.873 Q206.783 430.873 210.162 434.044 Q213.542 437.216 213.542 442.632 Q213.542 448.211 210.07 451.313 Q206.598 454.391 200.278 454.391 Q198.102 454.391 195.834 454.021 Q193.588 453.651 191.181 452.91 L191.181 448.211 Q193.264 449.345 195.487 449.901 Q197.709 450.456 200.186 450.456 Q204.19 450.456 206.528 448.35 Q208.866 446.243 208.866 442.632 Q208.866 439.021 206.528 436.915 Q204.19 434.808 200.186 434.808 Q198.311 434.808 196.436 435.225 Q194.584 435.641 192.639 436.521 L192.639 419.16 Z" fill="#000000" fill-rule="nonzero" fill-opacity="1" /><path clip-path="url(#clip680)" d="M117.015 190.117 L124.654 190.117 L124.654 163.752 L116.343 165.418 L116.343 161.159 L124.607 159.492 L129.283 159.492 L129.283 190.117 L136.922 190.117 L136.922 194.052 L117.015 194.052 L117.015 190.117 Z" fill="#000000" fill-rule="nonzero" fill-opacity="1" /><path clip-path="url(#clip680)" d="M146.366 188.173 L151.251 188.173 L151.251 194.052 L146.366 194.052 L146.366 188.173 Z" fill="#000000" fill-rule="nonzero" fill-opacity="1" /><path clip-path="url(#clip680)" d="M171.436 162.571 Q167.825 162.571 165.996 166.136 Q164.19 169.678 164.19 176.807 Q164.19 183.914 165.996 187.478 Q167.825 191.02 171.436 191.02 Q175.07 191.02 176.876 187.478 Q178.704 183.914 178.704 176.807 Q178.704 169.678 176.876 166.136 Q175.07 162.571 171.436 162.571 M171.436 158.867 Q177.246 158.867 180.301 163.474 Q183.38 168.057 183.38 176.807 Q183.38 185.534 180.301 190.14 Q177.246 194.724 171.436 194.724 Q165.626 194.724 162.547 190.14 Q159.491 185.534 159.491 176.807 Q159.491 168.057 162.547 163.474 Q165.626 158.867 171.436 158.867 Z" fill="#000000" fill-rule="nonzero" fill-opacity="1" /><path clip-path="url(#clip680)" d="M201.598 162.571 Q197.987 162.571 196.158 166.136 Q194.352 169.678 194.352 176.807 Q194.352 183.914 196.158 187.478 Q197.987 191.02 201.598 191.02 Q205.232 191.02 207.037 187.478 Q208.866 183.914 208.866 176.807 Q208.866 169.678 207.037 166.136 Q205.232 162.571 201.598 162.571 M201.598 158.867 Q207.408 158.867 210.463 163.474 Q213.542 168.057 213.542 176.807 Q213.542 185.534 210.463 190.14 Q207.408 194.724 201.598 194.724 Q195.787 194.724 192.709 190.14 Q189.653 185.534 189.653 176.807 Q189.653 168.057 192.709 163.474 Q195.787 158.867 201.598 158.867 Z" fill="#000000" fill-rule="nonzero" fill-opacity="1" /><path clip-path="url(#clip680)" d="M16.4842 755.248 L16.4842 748.341 L36.0269 735.164 L16.4842 722.083 L16.4842 715.176 L41.3741 731.981 L64.0042 731.981 L64.0042 738.443 L41.3741 738.443 L16.4842 755.248 Z" fill="#000000" fill-rule="nonzero" fill-opacity="1" /><polyline clip-path="url(#clip682)" style="stroke:#009af9; stroke-linecap:round; stroke-linejoin:round; stroke-width:4; stroke-opacity:1; fill:none" points="309.067,1153.78 311.051,1146.54 313.035,1172.6 315.019,1292.3 317.004,1201.51 318.988,1210.82 320.972,1199.68 322.956,1291.35 324.94,1231.06 326.924,1247.02 328.909,1147.43 330.893,1296.45 332.877,1137.76 334.861,1228.42 336.845,1259.61 338.829,1320.39 340.814,1144.14 342.798,1263.99 344.782,1240.9 346.766,1259.42 348.75,1322.71 350.734,1221.21 352.719,1204.93 354.703,1226.42 356.687,1286.16 358.671,1118.63 360.655,1065.85 362.639,1197.17 364.624,1166.32 366.608,1353.55 368.592,1243.46 370.576,1265.1 372.56,1238.7 374.544,1219.11 376.529,1275.52 378.513,1212.53 380.497,1268.3 382.481,1247.93 384.465,1275.22 386.449,1296.57 388.434,1229.36 390.418,1184.94 392.402,1254.83 394.386,1211.21 396.37,1316.04 398.354,1342.62 400.338,1171.66 402.323,1237.62 404.307,1217.6 406.291,1161.79 408.275,1200.71 410.259,1267.86 412.243,1180.06 414.228,1202.05 416.212,1167.64 418.196,1099.76 420.18,1133.85 422.164,1107.32 424.148,1237.81 426.133,1156.1 428.117,1258.66 430.101,1216.25 432.085,1253.23 434.069,1247.05 436.053,1271.69 438.038,1189.68 440.022,1254.3 442.006,1263.92 443.99,1204.39 445.974,1173.7 447.958,1233.65 449.943,1230.75 451.927,1219.14 453.911,1317.49 455.895,1224.41 457.879,1163.25 459.863,1159.19 461.848,1247.04 463.832,1217.44 465.816,1177.93 467.8,1234.51 469.784,1288.13 471.768,1217.67 473.753,1126.25 475.737,1178.32 477.721,1109.6 479.705,1276.77 481.689,1162.28 483.673,1230.12 485.658,1268.07 487.642,1184.21 489.626,1298.33 491.61,1180.6 493.594,1269.31 495.578,1184.05 497.563,1196.9 499.547,1182.92 501.531,1133.1 503.515,1253.4 505.499,1202.57 507.483,1288.16 509.468,1181.5 511.452,1288.48 513.436,1151.35 515.42,1234.23 517.404,1236.66 519.388,1208.2 521.373,1267.66 523.357,1150.14 525.341,1243.67 527.325,1181.36 529.309,1290.88 531.293,1217.1 533.277,1245.84 535.262,1261.09 537.246,1222.55 539.23,1263.52 541.214,1128.59 543.198,1179.96 545.182,1282.69 547.167,1253.77 549.151,1384.24 551.135,1220.86 553.119,1141.82 555.103,1263.94 557.087,1176.38 559.072,1137.41 561.056,1222.46 563.04,1247.32 565.024,1185.26 567.008,1174.93 568.992,1200.22 570.977,1294.3 572.961,1251.07 574.945,1187.19 576.929,1141.43 578.913,1151.6 580.897,1272.62 582.882,1352.15 584.866,1303.25 586.85,1211.45 588.834,1190.91 590.818,1210.7 592.802,1287.07 594.787,1153.2 596.771,1236.57 598.755,1228.26 600.739,1253.65 602.723,1112.44 604.707,1230.91 606.692,1186.83 608.676,1160.13 610.66,1197.95 612.644,1211.46 614.628,1252.14 616.612,1286.36 618.597,1268.32 620.581,1208.57 622.565,1191.86 624.549,1185.53 626.533,1170.47 628.517,1116.26 630.502,1236.34 632.486,1153.5 634.47,1161.9 636.454,1252.32 638.438,1203.19 640.422,1249.42 642.407,1206.74 644.391,1231.72 646.375,1218.81 648.359,1235.74 650.343,1251.82 652.327,1284.72 654.311,1167.85 656.296,1260.02 658.28,1263.19 660.264,1173.06 662.248,1160.12 664.232,1257.34 666.216,1230.44 668.201,1241.07 670.185,1162.46 672.169,1320.25 674.153,1168.64 676.137,1253.09 678.121,1099.98 680.106,1307.22 682.09,1205.8 684.074,1121.05 686.058,1153.46 688.042,1183.98 690.026,1185.23 692.011,1269.4 693.995,1215.4 695.979,1175.65 697.963,1327.02 699.947,1253.35 701.931,1254.83 703.916,1330.67 705.9,1132.89 707.884,1270.44 709.868,1136.04 711.852,1250.77 713.836,1218.12 715.821,1274.62 717.805,1135.65 719.789,1148.29 721.773,1253.84 723.757,1299.72 725.741,1233.72 727.726,1172.84 729.71,1136.94 731.694,1261.54 733.678,1201.6 735.662,1214.19 737.646,1228.68 739.631,1298.05 741.615,1194.15 743.599,1168.41 745.583,1176.99 747.567,1182.26 749.551,1204.1 751.536,1214.95 753.52,1085.86 755.504,1242.5 757.488,1155.25 759.472,1272.35 761.456,1210.5 763.441,1181.27 765.425,1284.2 767.409,1158.39 769.393,1084.65 771.377,1226.66 773.361,1029.43 775.346,1310.73 777.33,1225.45 779.314,1247.41 781.298,1148.98 783.282,1246.95 785.266,1253.3 787.25,1310.61 789.235,1216.3 791.219,1109.45 793.203,1183.97 795.187,1254 797.171,1170.83 799.155,1265.81 801.14,1202.25 803.124,1137.05 805.108,1270.16 807.092,1226.73 809.076,1278.55 811.06,1252.16 813.045,1241.35 815.029,1350.66 817.013,1159.6 818.997,1206.58 820.981,1146.86 822.965,1271.32 824.95,1187.02 826.934,1156.95 828.918,1189.29 830.902,1206.54 832.886,1153.02 834.87,1240.63 836.855,1197.46 838.839,1155.25 840.823,1190.18 842.807,1196.75 844.791,1250.82 846.775,1169.97 848.76,1248.24 850.744,1252.34 852.728,1265.39 854.712,1261.93 856.696,1218.2 858.68,1211.13 860.665,1289.12 862.649,1205.19 864.633,1253.36 866.617,1228.46 868.601,1288.66 870.585,1200.49 872.57,1158.62 874.554,1194.33 876.538,1154.65 878.522,1193.52 880.506,1267.02 882.49,1145.39 884.475,1176.3 886.459,1213.32 888.443,1106.13 890.427,1166.05 892.411,1204.49 894.395,1242.21 896.38,1203.35 898.364,1302.68 900.348,1208.91 902.332,1203.42 904.316,1187.1 906.3,1155.04 908.284,1226.99 910.269,1184.7 912.253,1214.45 914.237,1174 916.221,1219.55 918.205,1121.64 920.189,1196.44 922.174,1173.25 924.158,1233.98 926.142,1292.76 928.126,1129.36 930.11,1193.51 932.094,1233.67 934.079,1294.63 936.063,1274.94 938.047,1233.32 940.031,1243.86 942.015,1340.31 943.999,1189.51 945.984,1280.85 947.968,1199.01 949.952,1174.8 951.936,1202.6 953.92,1218.79 955.904,1217.55 957.889,1297.54 959.873,1190.38 961.857,1208.87 963.841,1223.11 965.825,1248.11 967.809,1066.07 969.794,1232.64 971.778,1204.54 973.762,1152.08 975.746,1192.77 977.73,1344.29 979.714,1158.37 981.699,1255.13 983.683,1246.32 985.667,1185.08 987.651,1224.95 989.635,1129.38 991.619,1283.89 993.604,1163.24 995.588,1259.59 997.572,1154.2 999.556,1251.37 1001.54,1133.18 1003.52,1147.85 1005.51,1202.32 1007.49,1242.55 1009.48,1177.84 1011.46,1219.7 1013.45,1256.75 1015.43,1286.14 1017.41,1129.79 1019.4,1151.22 1021.38,1135.57 1023.37,1238.32 1025.35,1157.6 1027.33,1211.88 1029.32,1180.65 1031.3,1196.15 1033.29,1162.05 1035.27,1234.13 1037.26,1181.83 1039.24,1239.27 1041.22,1185.38 1043.21,1121.59 1045.19,1191.54 1047.18,1220.67 1049.16,1172.12 1051.14,1158.53 1053.13,1091.28 1055.11,1184.67 1057.1,1244 1059.08,1174.44 1061.07,1202 1063.05,1167.24 1065.03,1286.89 1067.02,1242.21 1069,1201.84 1070.99,1128.04 1072.97,1152.92 1074.95,1253.16 1076.94,1057.48 1078.92,1139.72 1080.91,1113.35 1082.89,1079.35 1084.88,1090.6 1086.86,1091.49 1088.84,968.01 1090.83,1044.31 1092.81,966.81 1094.8,1089.37 1096.78,1089.44 1098.76,1013.51 1100.75,1007.74 1102.73,1049.63 1104.72,1064.09 1106.7,974.756 1108.69,918.226 1110.67,1044.06 1112.65,1052.45 1114.64,935.023 1116.62,979.321 1118.61,1096.44 1120.59,1037.66 1122.57,995.305 1124.56,898.637 1126.54,1008.34 1128.53,1021.88 1130.51,985.55 1132.5,1028.87 1134.48,1005.89 1136.46,952.741 1138.45,991.348 1140.43,856.766 1142.42,910.731 1144.4,870.715 1146.38,913.244 1148.37,709.154 1150.35,946.526 1152.34,798.419 1154.32,861.074 1156.3,893.735 1158.29,845.76 1160.27,818.909 1162.26,848.439 1164.24,763.054 1166.23,755.201 1168.21,794.943 1170.19,769.039 1172.18,701.779 1174.16,792.246 1176.15,750.603 1178.13,741.561 1180.11,718.517 1182.1,715.353 1184.08,705.123 1186.07,727.902 1188.05,581.789 1190.04,697.114 1192.02,644.005 1194,619.491 1195.99,673.356 1197.97,596.615 1199.96,526.202 1201.94,581.07 1203.92,561.459 1205.91,615.951 1207.89,504.26 1209.88,515.298 1211.86,552.503 1213.85,571.435 1215.83,553.417 1217.81,466.622 1219.8,469.927 1221.78,488.96 1223.77,453.347 1225.75,458.283 1227.73,396.565 1229.72,385.03 1231.7,426.502 1233.69,374.536 1235.67,381.531 1237.66,443.148 1239.64,295.201 1241.62,306.499 1243.61,284.209 1245.59,265.721 1247.58,301.016 1249.56,304.841 1251.54,411.775 1253.53,315.619 1255.51,267.963 1257.5,275.561 1259.48,254.51 1261.47,263.694 1263.45,253.639 1265.43,238.93 1267.42,253.447 1269.4,290.151 1271.39,205.645 1273.37,166.491 1275.35,218.628 1277.34,263.958 1279.32,189.387 1281.31,280.14 1283.29,190.379 1285.28,204.944 1287.26,177.121 1289.24,227.081 1291.23,86.1857 1293.21,134.662 1295.2,211.139 1297.18,197.552 1299.16,217.676 1301.15,151.222 1303.13,116.553 1305.12,99.607 1307.1,189.307 1309.09,184.143 1311.07,160.067 1313.05,206.052 1315.04,214.754 1317.02,221.602 1319.01,254.332 1320.99,204.026 1322.97,156.609 1324.96,150.017 1326.94,194.712 1328.93,232.031 1330.91,229.405 1332.9,260.33 1334.88,128.19 1336.86,263.14 1338.85,244.378 1340.83,154.481 1342.82,194.559 1344.8,273.52 1346.78,292.499 1348.77,257.717 1350.75,316.233 1352.74,272.343 1354.72,194.147 1356.71,399.644 1358.69,325.441 1360.67,330.043 1362.66,398.005 1364.64,379.945 1366.63,368.296 1368.61,374.782 1370.59,340.794 1372.58,419.997 1374.56,361 1376.55,423.549 1378.53,353.878 1380.52,517.762 1382.5,436.527 1384.48,475.617 1386.47,567.193 1388.45,484.745 1390.44,495.611 1392.42,532.535 1394.4,563.812 1396.39,608.225 1398.37,549.284 1400.36,487.937 1402.34,610.442 1404.33,671.106 1406.31,592.333 1408.29,483.757 1410.28,652.513 1412.26,710.786 1414.25,690.276 1416.23,713.699 1418.21,796.493 1420.2,748.516 1422.18,722.812 1424.17,776.387 1426.15,701.951 1428.14,772.21 1430.12,806.236 1432.1,873.784 1434.09,785.684 1436.07,811.992 1438.06,841.875 1440.04,741.018 1442.02,801.34 1444.01,880.691 1445.99,812.843 1447.98,807.029 1449.96,875.55 1451.95,841.07 1453.93,902.834 1455.91,850.083 1457.9,838.913 1459.88,929.083 1461.87,767.876 1463.85,941.465 1465.83,897.512 1467.82,1008.32 1469.8,906.002 1471.79,1007.53 1473.77,953.082 1475.76,887.266 1477.74,954.664 1479.72,980.815 1481.71,1013.56 1483.69,1004.46 1485.68,1015.42 1487.66,1032.86 1489.64,978.756 1491.63,1075.06 1493.61,1115.09 1495.6,1018.49 1497.58,1034.58 1499.57,1079.93 1501.55,1099.42 1503.53,1047.79 1505.52,1151.55 1507.5,1169.92 1509.49,1102.46 1511.47,1063.03 1513.45,1093.94 1515.44,1047.77 1517.42,1088.76 1519.41,1089.95 1521.39,1074.37 1523.38,1096.8 1525.36,1051.27 1527.34,1152.22 1529.33,1055.98 1531.31,1179.8 1533.3,1152.91 1535.28,1185.29 1537.26,1224.86 1539.25,1258.19 1541.23,1204.12 1543.22,1218.48 1545.2,1216.62 1547.19,1131.85 1549.17,1086.84 1551.15,1129.46 1553.14,1204.67 1555.12,1136.36 1557.11,1267.18 1559.09,1156.68 1561.07,1185.72 1563.06,1206.74 1565.04,1286.55 1567.03,1258.76 1569.01,1133.95 1571,1223.76 1572.98,1277.08 1574.96,1258.83 1576.95,1205.68 1578.93,1061.09 1580.92,1229.66 1582.9,1205.09 1584.88,1151.53 1586.87,1178.65 1588.85,1234.25 1590.84,1138.99 1592.82,1334.25 1594.81,1192.94 1596.79,1207.64 1598.77,1208.03 1600.76,1208.38 1602.74,1199.33 1604.73,1185.12 1606.71,1212.38 1608.69,1191.39 1610.68,1249.5 1612.66,1290.48 1614.65,1177.98 1616.63,1179.35 1618.62,1140.74 1620.6,1225.25 1622.58,1139.86 1624.57,1189.8 1626.55,1268.27 1628.54,1183.34 1630.52,1169.81 1632.5,1212.96 1634.49,1216.59 1636.47,1228.55 1638.46,1264.15 1640.44,1251.82 1642.43,1202.63 1644.41,1315.71 1646.39,1169.77 1648.38,1210.71 1650.36,1221.56 1652.35,1153.4 1654.33,1185.96 1656.31,1146.39 1658.3,1186.43 1660.28,1234.03 1662.27,1099.53 1664.25,1212.75 1666.24,1215.26 1668.22,1300.24 1670.2,1262.96 1672.19,1182.61 1674.17,1170.5 1676.16,1267.99 1678.14,1211.98 1680.12,1174.84 1682.11,1197.43 1684.09,1260.25 1686.08,1287.91 1688.06,1211.54 1690.05,1190.32 1692.03,1350.01 1694.01,1290.2 1696,1267.26 1697.98,1248.35 1699.97,1214.48 1701.95,1155.52 1703.93,1120.36 1705.92,1260.3 1707.9,1153.13 1709.89,1197.61 1711.87,1263.28 1713.86,1226.93 1715.84,1230.9 1717.82,1175.56 1719.81,1227.09 1721.79,1172.23 1723.78,1289 1725.76,1189.34 1727.74,1190.66 1729.73,1227.96 1731.71,1249.91 1733.7,1119.21 1735.68,1199.53 1737.67,1240.11 1739.65,1247.21 1741.63,1159.79 1743.62,1269.63 1745.6,1236.04 1747.59,1241.5 1749.57,1246.17 1751.55,1295.73 1753.54,1219.05 1755.52,1161.63 1757.51,1188.6 1759.49,1253.1 1761.48,1172 1763.46,1123.94 1765.44,1290.01 1767.43,1246.51 1769.41,1234.24 1771.4,1143.21 1773.38,1216.57 1775.36,1210.93 1777.35,1184.96 1779.33,1256.81 1781.32,1242.08 1783.3,1172.43 1785.28,1193.56 1787.27,1282.06 1789.25,1229.79 1791.24,1185.54 1793.22,1183.57 1795.21,1268.46 1797.19,1346.05 1799.17,1194.42 1801.16,1237.76 1803.14,1211.79 1805.13,1257.57 1807.11,1235.78 1809.09,1155.87 1811.08,1182.18 1813.06,1154.84 1815.05,1273.08 1817.03,1170.25 1819.02,1205.28 1821,1074.54 1822.98,1230.48 1824.97,1228.81 1826.95,1243.82 1828.94,1206.78 1830.92,1235.09 1832.9,1306.57 1834.89,1364.29 1836.87,1219.04 1838.86,1201.87 1840.84,1171.3 1842.83,1097.33 1844.81,1287.2 1846.79,1182.04 1848.78,1188.64 1850.76,1132.59 1852.75,1207.19 1854.73,1260.27 1856.71,1176.4 1858.7,1285.68 1860.68,1185.91 1862.67,1164.86 1864.65,1200.03 1866.64,1288.1 1868.62,1126.75 1870.6,1151.73 1872.59,1270.51 1874.57,1230.07 1876.56,1279.27 1878.54,1245.48 1880.52,1217.73 1882.51,1212.46 1884.49,1311.3 1886.48,1149.72 1888.46,1170.92 1890.45,1112.64 1892.43,1175.69 1894.41,1237.68 1896.4,1250.5 1898.38,1203.52 1900.37,1201.02 1902.35,1153.11 1904.33,1239.97 1906.32,1243.22 1908.3,1237.06 1910.29,1203.21 1912.27,1266.38 1914.26,1266.71 1916.24,1172.58 1918.22,1166.69 1920.21,1237.58 1922.19,1212.89 1924.18,1267.75 1926.16,1295.34 1928.14,1205.08 1930.13,1158.96 1932.11,1209.75 1934.1,1201.34 1936.08,1319.95 1938.07,1248.2 1940.05,1145.29 1942.03,1249.23 1944.02,1200.02 1946,1158.61 1947.99,1234.75 1949.97,1185.35 1951.95,1231.17 1953.94,1213.77 1955.92,1198 1957.91,1216.77 1959.89,1188.13 1961.88,1198.82 1963.86,1202.22 1965.84,1228.26 1967.83,1230.44 1969.81,1263.15 1971.8,1080.48 1973.78,1220.83 1975.76,1282.33 1977.75,1250.5 1979.73,1177.55 1981.72,1137.76 1983.7,1277.3 1985.69,1132.97 1987.67,1165.6 1989.65,1201.89 1991.64,1243.33 1993.62,1235.6 1995.61,1222.59 1997.59,1146.87 1999.57,1307.81 2001.56,1192.09 2003.54,1294.31 2005.53,1152.82 2007.51,1262.9 2009.5,1213.82 2011.48,1174.27 2013.46,1201.51 2015.45,1207.35 2017.43,1124.33 2019.42,1184.95 2021.4,1191.32 2023.38,1137.8 2025.37,1227.93 2027.35,1241.77 2029.34,1225.71 2031.32,1183.52 2033.31,1155.22 2035.29,1288.34 2037.27,1187.16 2039.26,1154.47 2041.24,1243.65 2043.23,1250.06 2045.21,1292.75 2047.19,1187.41 2049.18,1263.7 2051.16,1163.22 2053.15,1174.45 2055.13,1242.81 2057.12,1214.81 2059.1,1152.77 2061.08,1219.31 2063.07,1289.72 2065.05,1187.3 2067.04,1271.63 2069.02,1166.24 2071,1175.57 2072.99,1191.45 2074.97,1120.26 2076.96,1192.99 2078.94,1179.25 2080.93,1248.3 2082.91,1289.96 2084.89,1246.38 2086.88,1275.93 2088.86,1222.08 2090.85,1176.32 2092.83,1271.5 2094.81,1305.26 2096.8,1166.6 2098.78,1208.49 2100.77,1169.84 2102.75,1126.4 2104.74,1149.59 2106.72,1156.67 2108.7,1280.43 2110.69,1280.45 2112.67,1227.54 2114.66,1191.24 2116.64,1225.71 2118.62,1119.1 2120.61,1166.94 2122.59,1321.15 2124.58,1150.82 2126.56,1248.31 2128.55,1295.09 2130.53,1281.98 2132.51,1300.98 2134.5,1174.45 2136.48,1191.29 2138.47,1291.17 2140.45,1196.64 2142.43,1222.32 2144.42,1233.67 2146.4,1197.45 2148.39,1259.04 2150.37,1197.85 2152.36,1230.17 2154.34,1196.27 2156.32,1156.94 2158.31,1164.79 2160.29,1243.64 2162.28,1286.6 2164.26,1285.76 2166.24,1146.33 2168.23,1204.14 2170.21,1193.75 2172.2,1146.45 2174.18,1197.14 2176.17,1163.3 2178.15,1288.92 2180.13,1249.98 2182.12,1173.68 2184.1,1187 2186.09,1104.41 2188.07,1248.52 2190.05,1186.01 2192.04,1283.28 2194.02,1189.43 2196.01,1263.82 2197.99,1121.78 2199.98,1194.35 2201.96,1279.93 2203.94,1158.39 2205.93,1283.99 2207.91,1190.79 2209.9,1195.52 2211.88,1182.38 2213.86,1261.81 2215.85,1223.44 2217.83,1254.99 2219.82,1169.45 2221.8,1146.09 2223.79,1227.76 2225.77,1207.65 2227.75,1217.29 2229.74,1148.53 2231.72,1043.85 2233.71,1192.74 2235.69,1199.94 2237.67,1176.98 2239.66,1216.04 2241.64,1152.29 2243.63,1286.86 2245.61,1253.57 2247.6,1256.72 2249.58,1252.11 2251.56,1242.01 2253.55,1120.88 2255.53,1111.87 2257.52,1184.97 2259.5,1278.1 2261.48,1213.52 2263.47,1198.69 2265.45,1266.29 2267.44,1182.78 2269.42,1269.57 2271.41,1195.17 2273.39,1200.9 2275.37,1113.33 2277.36,1182.66 2279.34,1217.61 2281.33,1129.7 2283.31,1284.95 2285.29,1145.15 2287.28,1244.54 2289.26,1170.06 2291.25,1230.25 2293.23,1254.36 "/>
<path clip-path="url(#clip680)" d="M1560.89 196.789 L2282.65 196.789 L2282.65 93.1086 L1560.89 93.1086  Z" fill="#ffffff" fill-rule="evenodd" fill-opacity="1"/>
<polyline clip-path="url(#clip680)" style="stroke:#000000; stroke-linecap:round; stroke-linejoin:round; stroke-width:4; stroke-opacity:1; fill:none" points="1560.89,196.789 2282.65,196.789 2282.65,93.1086 1560.89,93.1086 1560.89,196.789 "/>
<polyline clip-path="url(#clip680)" style="stroke:#009af9; stroke-linecap:round; stroke-linejoin:round; stroke-width:4; stroke-opacity:1; fill:none" points="1584.26,144.949 1724.48,144.949 "/>
<path clip-path="url(#clip680)" d="M1747.85 127.669 L1754.14 127.669 L1769.47 156.581 L1769.47 127.669 L1774 127.669 L1774 162.229 L1767.71 162.229 L1752.38 133.317 L1752.38 162.229 L1747.85 162.229 L1747.85 127.669 Z" fill="#000000" fill-rule="nonzero" fill-opacity="1" /><path clip-path="url(#clip680)" d="M1793.17 139.289 Q1789.75 139.289 1787.75 141.974 Q1785.76 144.636 1785.76 149.289 Q1785.76 153.942 1787.73 156.627 Q1789.72 159.289 1793.17 159.289 Q1796.57 159.289 1798.56 156.604 Q1800.56 153.918 1800.56 149.289 Q1800.56 144.682 1798.56 141.997 Q1796.57 139.289 1793.17 139.289 M1793.17 135.678 Q1798.73 135.678 1801.9 139.289 Q1805.07 142.9 1805.07 149.289 Q1805.07 155.655 1801.9 159.289 Q1798.73 162.9 1793.17 162.9 Q1787.59 162.9 1784.42 159.289 Q1781.27 155.655 1781.27 149.289 Q1781.27 142.9 1784.42 139.289 Q1787.59 135.678 1793.17 135.678 Z" fill="#000000" fill-rule="nonzero" fill-opacity="1" /><path clip-path="url(#clip680)" d="M1812.13 136.303 L1816.39 136.303 L1816.39 162.229 L1812.13 162.229 L1812.13 136.303 M1812.13 126.21 L1816.39 126.21 L1816.39 131.604 L1812.13 131.604 L1812.13 126.21 Z" fill="#000000" fill-rule="nonzero" fill-opacity="1" /><path clip-path="url(#clip680)" d="M1841.83 137.067 L1841.83 141.094 Q1840.02 140.169 1838.08 139.706 Q1836.13 139.243 1834.05 139.243 Q1830.88 139.243 1829.28 140.215 Q1827.71 141.187 1827.71 143.131 Q1827.71 144.613 1828.84 145.469 Q1829.98 146.303 1833.4 147.067 L1834.86 147.391 Q1839.4 148.363 1841.3 150.145 Q1843.22 151.905 1843.22 155.076 Q1843.22 158.687 1840.35 160.793 Q1837.5 162.9 1832.5 162.9 Q1830.42 162.9 1828.15 162.483 Q1825.9 162.09 1823.4 161.28 L1823.4 156.881 Q1825.76 158.108 1828.06 158.733 Q1830.35 159.335 1832.59 159.335 Q1835.6 159.335 1837.22 158.317 Q1838.84 157.275 1838.84 155.4 Q1838.84 153.664 1837.66 152.738 Q1836.5 151.812 1832.55 150.956 L1831.06 150.608 Q1827.11 149.775 1825.35 148.062 Q1823.59 146.326 1823.59 143.317 Q1823.59 139.659 1826.18 137.669 Q1828.77 135.678 1833.54 135.678 Q1835.9 135.678 1837.99 136.025 Q1840.07 136.372 1841.83 137.067 Z" fill="#000000" fill-rule="nonzero" fill-opacity="1" /><path clip-path="url(#clip680)" d="M1860.79 164.636 Q1858.98 169.266 1857.27 170.678 Q1855.56 172.09 1852.68 172.09 L1849.28 172.09 L1849.28 168.525 L1851.78 168.525 Q1853.54 168.525 1854.51 167.692 Q1855.49 166.858 1856.67 163.756 L1857.43 161.812 L1846.94 136.303 L1851.46 136.303 L1859.56 156.581 L1867.66 136.303 L1872.18 136.303 L1860.79 164.636 Z" fill="#000000" fill-rule="nonzero" fill-opacity="1" /><path clip-path="url(#clip680)" d="M1903.17 139.289 Q1899.74 139.289 1897.75 141.974 Q1895.76 144.636 1895.76 149.289 Q1895.76 153.942 1897.73 156.627 Q1899.72 159.289 1903.17 159.289 Q1906.57 159.289 1908.56 156.604 Q1910.55 153.918 1910.55 149.289 Q1910.55 144.682 1908.56 141.997 Q1906.57 139.289 1903.17 139.289 M1903.17 135.678 Q1908.73 135.678 1911.9 139.289 Q1915.07 142.9 1915.07 149.289 Q1915.07 155.655 1911.9 159.289 Q1908.73 162.9 1903.17 162.9 Q1897.59 162.9 1894.42 159.289 Q1891.27 155.655 1891.27 149.289 Q1891.27 142.9 1894.42 139.289 Q1897.59 135.678 1903.17 135.678 Z" fill="#000000" fill-rule="nonzero" fill-opacity="1" /><path clip-path="url(#clip680)" d="M1940.74 149.289 Q1940.74 144.59 1938.8 141.928 Q1936.87 139.243 1933.49 139.243 Q1930.11 139.243 1928.17 141.928 Q1926.25 144.59 1926.25 149.289 Q1926.25 153.988 1928.17 156.673 Q1930.11 159.335 1933.49 159.335 Q1936.87 159.335 1938.8 156.673 Q1940.74 153.988 1940.74 149.289 M1926.25 140.238 Q1927.59 137.923 1929.63 136.812 Q1931.69 135.678 1934.54 135.678 Q1939.26 135.678 1942.2 139.428 Q1945.16 143.178 1945.16 149.289 Q1945.16 155.4 1942.2 159.15 Q1939.26 162.9 1934.54 162.9 Q1931.69 162.9 1929.63 161.789 Q1927.59 160.655 1926.25 158.34 L1926.25 162.229 L1921.97 162.229 L1921.97 126.21 L1926.25 126.21 L1926.25 140.238 Z" fill="#000000" fill-rule="nonzero" fill-opacity="1" /><path clip-path="url(#clip680)" d="M1968.75 137.067 L1968.75 141.094 Q1966.94 140.169 1965 139.706 Q1963.05 139.243 1960.97 139.243 Q1957.8 139.243 1956.2 140.215 Q1954.63 141.187 1954.63 143.131 Q1954.63 144.613 1955.76 145.469 Q1956.9 146.303 1960.32 147.067 L1961.78 147.391 Q1966.32 148.363 1968.22 150.145 Q1970.14 151.905 1970.14 155.076 Q1970.14 158.687 1967.27 160.793 Q1964.42 162.9 1959.42 162.9 Q1957.34 162.9 1955.07 162.483 Q1952.82 162.09 1950.32 161.28 L1950.32 156.881 Q1952.68 158.108 1954.98 158.733 Q1957.27 159.335 1959.51 159.335 Q1962.52 159.335 1964.14 158.317 Q1965.76 157.275 1965.76 155.4 Q1965.76 153.664 1964.58 152.738 Q1963.42 151.812 1959.47 150.956 L1957.99 150.608 Q1954.03 149.775 1952.27 148.062 Q1950.51 146.326 1950.51 143.317 Q1950.51 139.659 1953.1 137.669 Q1955.69 135.678 1960.46 135.678 Q1962.82 135.678 1964.91 136.025 Q1966.99 136.372 1968.75 137.067 Z" fill="#000000" fill-rule="nonzero" fill-opacity="1" /><path clip-path="url(#clip680)" d="M1999.1 148.201 L1999.1 150.284 L1979.51 150.284 Q1979.79 154.682 1982.15 156.997 Q1984.54 159.289 1988.77 159.289 Q1991.23 159.289 1993.52 158.687 Q1995.83 158.085 1998.1 156.881 L1998.1 160.909 Q1995.81 161.881 1993.4 162.391 Q1990.99 162.9 1988.52 162.9 Q1982.31 162.9 1978.68 159.289 Q1975.07 155.678 1975.07 149.52 Q1975.07 143.155 1978.49 139.428 Q1981.94 135.678 1987.78 135.678 Q1993.01 135.678 1996.04 139.057 Q1999.1 142.414 1999.1 148.201 M1994.84 146.951 Q1994.79 143.456 1992.87 141.372 Q1990.97 139.289 1987.82 139.289 Q1984.26 139.289 1982.11 141.303 Q1979.98 143.317 1979.65 146.974 L1994.84 146.951 Z" fill="#000000" fill-rule="nonzero" fill-opacity="1" /><path clip-path="url(#clip680)" d="M2021.11 140.284 Q2020.39 139.868 2019.54 139.682 Q2018.7 139.474 2017.68 139.474 Q2014.07 139.474 2012.13 141.835 Q2010.21 144.173 2010.21 148.571 L2010.21 162.229 L2005.92 162.229 L2005.92 136.303 L2010.21 136.303 L2010.21 140.331 Q2011.55 137.969 2013.7 136.835 Q2015.86 135.678 2018.93 135.678 Q2019.37 135.678 2019.91 135.747 Q2020.44 135.794 2021.09 135.909 L2021.11 140.284 Z" fill="#000000" fill-rule="nonzero" fill-opacity="1" /><path clip-path="url(#clip680)" d="M2022.52 136.303 L2027.04 136.303 L2035.14 158.062 L2043.24 136.303 L2047.75 136.303 L2038.03 162.229 L2032.24 162.229 L2022.52 136.303 Z" fill="#000000" fill-rule="nonzero" fill-opacity="1" /><path clip-path="url(#clip680)" d="M2075.81 148.201 L2075.81 150.284 L2056.23 150.284 Q2056.5 154.682 2058.86 156.997 Q2061.25 159.289 2065.48 159.289 Q2067.94 159.289 2070.23 158.687 Q2072.54 158.085 2074.81 156.881 L2074.81 160.909 Q2072.52 161.881 2070.11 162.391 Q2067.71 162.9 2065.23 162.9 Q2059.03 162.9 2055.39 159.289 Q2051.78 155.678 2051.78 149.52 Q2051.78 143.155 2055.21 139.428 Q2058.66 135.678 2064.49 135.678 Q2069.72 135.678 2072.75 139.057 Q2075.81 142.414 2075.81 148.201 M2071.55 146.951 Q2071.5 143.456 2069.58 141.372 Q2067.68 139.289 2064.54 139.289 Q2060.97 139.289 2058.82 141.303 Q2056.69 143.317 2056.36 146.974 L2071.55 146.951 Z" fill="#000000" fill-rule="nonzero" fill-opacity="1" /><path clip-path="url(#clip680)" d="M2099.86 140.238 L2099.86 126.21 L2104.12 126.21 L2104.12 162.229 L2099.86 162.229 L2099.86 158.34 Q2098.52 160.655 2096.46 161.789 Q2094.42 162.9 2091.55 162.9 Q2086.85 162.9 2083.89 159.15 Q2080.95 155.4 2080.95 149.289 Q2080.95 143.178 2083.89 139.428 Q2086.85 135.678 2091.55 135.678 Q2094.42 135.678 2096.46 136.812 Q2098.52 137.923 2099.86 140.238 M2085.35 149.289 Q2085.35 153.988 2087.27 156.673 Q2089.21 159.335 2092.59 159.335 Q2095.97 159.335 2097.91 156.673 Q2099.86 153.988 2099.86 149.289 Q2099.86 144.59 2097.91 141.928 Q2095.97 139.243 2092.59 139.243 Q2089.21 139.243 2087.27 141.928 Q2085.35 144.59 2085.35 149.289 Z" fill="#000000" fill-rule="nonzero" fill-opacity="1" /><path clip-path="url(#clip680)" d="M2144.49 137.067 L2144.49 141.094 Q2142.68 140.169 2140.74 139.706 Q2138.79 139.243 2136.71 139.243 Q2133.54 139.243 2131.94 140.215 Q2130.37 141.187 2130.37 143.131 Q2130.37 144.613 2131.5 145.469 Q2132.64 146.303 2136.06 147.067 L2137.52 147.391 Q2142.06 148.363 2143.96 150.145 Q2145.88 151.905 2145.88 155.076 Q2145.88 158.687 2143.01 160.793 Q2140.16 162.9 2135.16 162.9 Q2133.08 162.9 2130.81 162.483 Q2128.56 162.09 2126.06 161.28 L2126.06 156.881 Q2128.42 158.108 2130.72 158.733 Q2133.01 159.335 2135.25 159.335 Q2138.26 159.335 2139.88 158.317 Q2141.5 157.275 2141.5 155.4 Q2141.5 153.664 2140.32 152.738 Q2139.16 151.812 2135.21 150.956 L2133.72 150.608 Q2129.77 149.775 2128.01 148.062 Q2126.25 146.326 2126.25 143.317 Q2126.25 139.659 2128.84 137.669 Q2131.43 135.678 2136.2 135.678 Q2138.56 135.678 2140.65 136.025 Q2142.73 136.372 2144.49 137.067 Z" fill="#000000" fill-rule="nonzero" fill-opacity="1" /><path clip-path="url(#clip680)" d="M2152.66 136.303 L2156.92 136.303 L2156.92 162.229 L2152.66 162.229 L2152.66 136.303 M2152.66 126.21 L2156.92 126.21 L2156.92 131.604 L2152.66 131.604 L2152.66 126.21 Z" fill="#000000" fill-rule="nonzero" fill-opacity="1" /><path clip-path="url(#clip680)" d="M2182.89 148.965 Q2182.89 144.335 2180.97 141.789 Q2179.07 139.243 2175.62 139.243 Q2172.2 139.243 2170.28 141.789 Q2168.38 144.335 2168.38 148.965 Q2168.38 153.571 2170.28 156.118 Q2172.2 158.664 2175.62 158.664 Q2179.07 158.664 2180.97 156.118 Q2182.89 153.571 2182.89 148.965 M2187.15 159.011 Q2187.15 165.631 2184.21 168.849 Q2181.27 172.09 2175.21 172.09 Q2172.96 172.09 2170.97 171.742 Q2168.98 171.418 2167.1 170.724 L2167.1 166.58 Q2168.98 167.599 2170.81 168.085 Q2172.64 168.571 2174.53 168.571 Q2178.72 168.571 2180.81 166.372 Q2182.89 164.196 2182.89 159.775 L2182.89 157.668 Q2181.57 159.96 2179.51 161.094 Q2177.45 162.229 2174.58 162.229 Q2169.81 162.229 2166.9 158.594 Q2163.98 154.96 2163.98 148.965 Q2163.98 142.946 2166.9 139.312 Q2169.81 135.678 2174.58 135.678 Q2177.45 135.678 2179.51 136.812 Q2181.57 137.946 2182.89 140.238 L2182.89 136.303 L2187.15 136.303 L2187.15 159.011 Z" fill="#000000" fill-rule="nonzero" fill-opacity="1" /><path clip-path="url(#clip680)" d="M2217.47 146.581 L2217.47 162.229 L2213.22 162.229 L2213.22 146.719 Q2213.22 143.039 2211.78 141.21 Q2210.34 139.382 2207.47 139.382 Q2204.03 139.382 2202.03 141.581 Q2200.04 143.78 2200.04 147.576 L2200.04 162.229 L2195.76 162.229 L2195.76 136.303 L2200.04 136.303 L2200.04 140.331 Q2201.57 137.993 2203.63 136.835 Q2205.72 135.678 2208.42 135.678 Q2212.89 135.678 2215.18 138.456 Q2217.47 141.21 2217.47 146.581 Z" fill="#000000" fill-rule="nonzero" fill-opacity="1" /><path clip-path="url(#clip680)" d="M2237.75 149.196 Q2232.59 149.196 2230.6 150.377 Q2228.61 151.557 2228.61 154.405 Q2228.61 156.673 2230.09 158.016 Q2231.59 159.335 2234.16 159.335 Q2237.71 159.335 2239.84 156.835 Q2241.99 154.312 2241.99 150.145 L2241.99 149.196 L2237.75 149.196 M2246.25 147.437 L2246.25 162.229 L2241.99 162.229 L2241.99 158.293 Q2240.53 160.655 2238.35 161.789 Q2236.18 162.9 2233.03 162.9 Q2229.05 162.9 2226.69 160.678 Q2224.35 158.432 2224.35 154.682 Q2224.35 150.307 2227.27 148.085 Q2230.21 145.863 2236.02 145.863 L2241.99 145.863 L2241.99 145.446 Q2241.99 142.507 2240.04 140.909 Q2238.12 139.289 2234.63 139.289 Q2232.4 139.289 2230.3 139.821 Q2228.19 140.354 2226.25 141.419 L2226.25 137.483 Q2228.59 136.581 2230.78 136.141 Q2232.98 135.678 2235.07 135.678 Q2240.69 135.678 2243.47 138.594 Q2246.25 141.511 2246.25 147.437 Z" fill="#000000" fill-rule="nonzero" fill-opacity="1" /><path clip-path="url(#clip680)" d="M2255.02 126.21 L2259.28 126.21 L2259.28 162.229 L2255.02 162.229 L2255.02 126.21 Z" fill="#000000" fill-rule="nonzero" fill-opacity="1" /></svg>
