<?xml version="1.0" encoding="utf-8"?>
<svg xmlns="http://www.w3.org/2000/svg" xmlns:xlink="http://www.w3.org/1999/xlink" width="600" height="400" viewBox="0 0 2400 1600">
<defs>
  <clipPath id="clip090">
    <rect x="0" y="0" width="2400" height="1600"/>
  </clipPath>
</defs>
<path clip-path="url(#clip090)" d="M0 1600 L2400 1600 L2400 0 L0 0  Z" fill="#ffffff" fill-rule="evenodd" fill-opacity="1"/>
<defs>
  <clipPath id="clip091">
    <rect x="480" y="0" width="1681" height="1600"/>
  </clipPath>
</defs>
<path clip-path="url(#clip090)" d="M140.696 1486.45 L2352.76 1486.45 L2352.76 47.2441 L140.696 47.2441  Z" fill="#ffffff" fill-rule="evenodd" fill-opacity="1"/>
<defs>
  <clipPath id="clip092">
    <rect x="140" y="47" width="2213" height="1440"/>
  </clipPath>
</defs>
<polyline clip-path="url(#clip092)" style="stroke:#000000; stroke-linecap:round; stroke-linejoin:round; stroke-width:2; stroke-opacity:0.1; fill:none" points="203.301,1486.45 203.301,47.2441 "/>
<polyline clip-path="url(#clip092)" style="stroke:#000000; stroke-linecap:round; stroke-linejoin:round; stroke-width:2; stroke-opacity:0.1; fill:none" points="725.013,1486.45 725.013,47.2441 "/>
<polyline clip-path="url(#clip092)" style="stroke:#000000; stroke-linecap:round; stroke-linejoin:round; stroke-width:2; stroke-opacity:0.1; fill:none" points="1246.73,1486.45 1246.73,47.2441 "/>
<polyline clip-path="url(#clip092)" style="stroke:#000000; stroke-linecap:round; stroke-linejoin:round; stroke-width:2; stroke-opacity:0.1; fill:none" points="1768.44,1486.45 1768.44,47.2441 "/>
<polyline clip-path="url(#clip092)" style="stroke:#000000; stroke-linecap:round; stroke-linejoin:round; stroke-width:2; stroke-opacity:0.1; fill:none" points="2290.15,1486.45 2290.15,47.2441 "/>
<polyline clip-path="url(#clip092)" style="stroke:#000000; stroke-linecap:round; stroke-linejoin:round; stroke-width:2; stroke-opacity:0.1; fill:none" points="140.696,1445.03 2352.76,1445.03 "/>
<polyline clip-path="url(#clip092)" style="stroke:#000000; stroke-linecap:round; stroke-linejoin:round; stroke-width:2; stroke-opacity:0.1; fill:none" points="140.696,1186.43 2352.76,1186.43 "/>
<polyline clip-path="url(#clip092)" style="stroke:#000000; stroke-linecap:round; stroke-linejoin:round; stroke-width:2; stroke-opacity:0.1; fill:none" points="140.696,927.833 2352.76,927.833 "/>
<polyline clip-path="url(#clip092)" style="stroke:#000000; stroke-linecap:round; stroke-linejoin:round; stroke-width:2; stroke-opacity:0.1; fill:none" points="140.696,669.233 2352.76,669.233 "/>
<polyline clip-path="url(#clip092)" style="stroke:#000000; stroke-linecap:round; stroke-linejoin:round; stroke-width:2; stroke-opacity:0.1; fill:none" points="140.696,410.633 2352.76,410.633 "/>
<polyline clip-path="url(#clip092)" style="stroke:#000000; stroke-linecap:round; stroke-linejoin:round; stroke-width:2; stroke-opacity:0.1; fill:none" points="140.696,152.033 2352.76,152.033 "/>
<polyline clip-path="url(#clip090)" style="stroke:#000000; stroke-linecap:round; stroke-linejoin:round; stroke-width:4; stroke-opacity:1; fill:none" points="140.696,1486.45 2352.76,1486.45 "/>
<polyline clip-path="url(#clip090)" style="stroke:#000000; stroke-linecap:round; stroke-linejoin:round; stroke-width:4; stroke-opacity:1; fill:none" points="203.301,1486.45 203.301,1467.55 "/>
<polyline clip-path="url(#clip090)" style="stroke:#000000; stroke-linecap:round; stroke-linejoin:round; stroke-width:4; stroke-opacity:1; fill:none" points="725.013,1486.45 725.013,1467.55 "/>
<polyline clip-path="url(#clip090)" style="stroke:#000000; stroke-linecap:round; stroke-linejoin:round; stroke-width:4; stroke-opacity:1; fill:none" points="1246.73,1486.45 1246.73,1467.55 "/>
<polyline clip-path="url(#clip090)" style="stroke:#000000; stroke-linecap:round; stroke-linejoin:round; stroke-width:4; stroke-opacity:1; fill:none" points="1768.44,1486.45 1768.44,1467.55 "/>
<polyline clip-path="url(#clip090)" style="stroke:#000000; stroke-linecap:round; stroke-linejoin:round; stroke-width:4; stroke-opacity:1; fill:none" points="2290.15,1486.45 2290.15,1467.55 "/>
<path clip-path="url(#clip090)" d="M203.301 1517.37 Q199.69 1517.37 197.861 1520.93 Q196.056 1524.47 196.056 1531.6 Q196.056 1538.71 197.861 1542.27 Q199.69 1545.82 203.301 1545.82 Q206.935 1545.82 208.741 1542.27 Q210.57 1538.71 210.57 1531.6 Q210.57 1524.47 208.741 1520.93 Q206.935 1517.37 203.301 1517.37 M203.301 1513.66 Q209.111 1513.66 212.167 1518.27 Q215.245 1522.85 215.245 1531.6 Q215.245 1540.33 212.167 1544.94 Q209.111 1549.52 203.301 1549.52 Q197.491 1549.52 194.412 1544.94 Q191.357 1540.33 191.357 1531.6 Q191.357 1522.85 194.412 1518.27 Q197.491 1513.66 203.301 1513.66 Z" fill="#000000" fill-rule="nonzero" fill-opacity="1" /><path clip-path="url(#clip090)" d="M704.284 1544.91 L720.604 1544.91 L720.604 1548.85 L698.659 1548.85 L698.659 1544.91 Q701.321 1542.16 705.905 1537.53 Q710.511 1532.88 711.692 1531.53 Q713.937 1529.01 714.817 1527.27 Q715.719 1525.51 715.719 1523.82 Q715.719 1521.07 713.775 1519.33 Q711.854 1517.6 708.752 1517.6 Q706.553 1517.6 704.099 1518.36 Q701.669 1519.13 698.891 1520.68 L698.891 1515.95 Q701.715 1514.82 704.169 1514.24 Q706.622 1513.66 708.659 1513.66 Q714.03 1513.66 717.224 1516.35 Q720.418 1519.03 720.418 1523.52 Q720.418 1525.65 719.608 1527.57 Q718.821 1529.47 716.715 1532.07 Q716.136 1532.74 713.034 1535.95 Q709.932 1539.15 704.284 1544.91 Z" fill="#000000" fill-rule="nonzero" fill-opacity="1" /><path clip-path="url(#clip090)" d="M730.465 1514.29 L748.821 1514.29 L748.821 1518.22 L734.747 1518.22 L734.747 1526.7 Q735.766 1526.35 736.784 1526.19 Q737.803 1526 738.821 1526 Q744.608 1526 747.988 1529.17 Q751.367 1532.34 751.367 1537.76 Q751.367 1543.34 747.895 1546.44 Q744.423 1549.52 738.104 1549.52 Q735.928 1549.52 733.659 1549.15 Q731.414 1548.78 729.006 1548.04 L729.006 1543.34 Q731.09 1544.47 733.312 1545.03 Q735.534 1545.58 738.011 1545.58 Q742.016 1545.58 744.354 1543.48 Q746.691 1541.37 746.691 1537.76 Q746.691 1534.15 744.354 1532.04 Q742.016 1529.94 738.011 1529.94 Q736.136 1529.94 734.261 1530.35 Q732.409 1530.77 730.465 1531.65 L730.465 1514.29 Z" fill="#000000" fill-rule="nonzero" fill-opacity="1" /><path clip-path="url(#clip090)" d="M1221.42 1514.29 L1239.78 1514.29 L1239.78 1518.22 L1225.71 1518.22 L1225.71 1526.7 Q1226.73 1526.35 1227.74 1526.19 Q1228.76 1526 1229.78 1526 Q1235.57 1526 1238.95 1529.17 Q1242.33 1532.34 1242.33 1537.76 Q1242.33 1543.34 1238.86 1546.44 Q1235.38 1549.52 1229.06 1549.52 Q1226.89 1549.52 1224.62 1549.15 Q1222.37 1548.78 1219.97 1548.04 L1219.97 1543.34 Q1222.05 1544.47 1224.27 1545.03 Q1226.49 1545.58 1228.97 1545.58 Q1232.98 1545.58 1235.31 1543.48 Q1237.65 1541.37 1237.65 1537.76 Q1237.65 1534.15 1235.31 1532.04 Q1232.98 1529.94 1228.97 1529.94 Q1227.1 1529.94 1225.22 1530.35 Q1223.37 1530.77 1221.42 1531.65 L1221.42 1514.29 Z" fill="#000000" fill-rule="nonzero" fill-opacity="1" /><path clip-path="url(#clip090)" d="M1261.54 1517.37 Q1257.93 1517.37 1256.1 1520.93 Q1254.3 1524.47 1254.3 1531.6 Q1254.3 1538.71 1256.1 1542.27 Q1257.93 1545.82 1261.54 1545.82 Q1265.17 1545.82 1266.98 1542.27 Q1268.81 1538.71 1268.81 1531.6 Q1268.81 1524.47 1266.98 1520.93 Q1265.17 1517.37 1261.54 1517.37 M1261.54 1513.66 Q1267.35 1513.66 1270.41 1518.27 Q1273.48 1522.85 1273.48 1531.6 Q1273.48 1540.33 1270.41 1544.94 Q1267.35 1549.52 1261.54 1549.52 Q1255.73 1549.52 1252.65 1544.94 Q1249.6 1540.33 1249.6 1531.6 Q1249.6 1522.85 1252.65 1518.27 Q1255.73 1513.66 1261.54 1513.66 Z" fill="#000000" fill-rule="nonzero" fill-opacity="1" /><path clip-path="url(#clip090)" d="M1742.29 1514.29 L1764.51 1514.29 L1764.51 1516.28 L1751.97 1548.85 L1747.08 1548.85 L1758.89 1518.22 L1742.29 1518.22 L1742.29 1514.29 Z" fill="#000000" fill-rule="nonzero" fill-opacity="1" /><path clip-path="url(#clip090)" d="M1773.68 1514.29 L1792.04 1514.29 L1792.04 1518.22 L1777.96 1518.22 L1777.96 1526.7 Q1778.98 1526.35 1780 1526.19 Q1781.02 1526 1782.04 1526 Q1787.82 1526 1791.2 1529.17 Q1794.58 1532.34 1794.58 1537.76 Q1794.58 1543.34 1791.11 1546.44 Q1787.64 1549.52 1781.32 1549.52 Q1779.14 1549.52 1776.88 1549.15 Q1774.63 1548.78 1772.22 1548.04 L1772.22 1543.34 Q1774.31 1544.47 1776.53 1545.03 Q1778.75 1545.58 1781.23 1545.58 Q1785.23 1545.58 1787.57 1543.48 Q1789.91 1541.37 1789.91 1537.76 Q1789.91 1534.15 1787.57 1532.04 Q1785.23 1529.94 1781.23 1529.94 Q1779.35 1529.94 1777.48 1530.35 Q1775.63 1530.77 1773.68 1531.65 L1773.68 1514.29 Z" fill="#000000" fill-rule="nonzero" fill-opacity="1" /><path clip-path="url(#clip090)" d="M2249.76 1544.91 L2257.4 1544.91 L2257.4 1518.55 L2249.09 1520.21 L2249.09 1515.95 L2257.35 1514.29 L2262.03 1514.29 L2262.03 1544.91 L2269.66 1544.91 L2269.66 1548.85 L2249.76 1548.85 L2249.76 1544.91 Z" fill="#000000" fill-rule="nonzero" fill-opacity="1" /><path clip-path="url(#clip090)" d="M2289.11 1517.37 Q2285.5 1517.37 2283.67 1520.93 Q2281.86 1524.47 2281.86 1531.6 Q2281.86 1538.71 2283.67 1542.27 Q2285.5 1545.82 2289.11 1545.82 Q2292.74 1545.82 2294.55 1542.27 Q2296.38 1538.71 2296.38 1531.6 Q2296.38 1524.47 2294.55 1520.93 Q2292.74 1517.37 2289.11 1517.37 M2289.11 1513.66 Q2294.92 1513.66 2297.97 1518.27 Q2301.05 1522.85 2301.05 1531.6 Q2301.05 1540.33 2297.97 1544.94 Q2294.92 1549.52 2289.11 1549.52 Q2283.3 1549.52 2280.22 1544.94 Q2277.16 1540.33 2277.16 1531.6 Q2277.16 1522.85 2280.22 1518.27 Q2283.3 1513.66 2289.11 1513.66 Z" fill="#000000" fill-rule="nonzero" fill-opacity="1" /><path clip-path="url(#clip090)" d="M2319.27 1517.37 Q2315.66 1517.37 2313.83 1520.93 Q2312.03 1524.47 2312.03 1531.6 Q2312.03 1538.71 2313.83 1542.27 Q2315.66 1545.82 2319.27 1545.82 Q2322.9 1545.82 2324.71 1542.27 Q2326.54 1538.71 2326.54 1531.6 Q2326.54 1524.47 2324.71 1520.93 Q2322.9 1517.37 2319.27 1517.37 M2319.27 1513.66 Q2325.08 1513.66 2328.14 1518.27 Q2331.22 1522.85 2331.22 1531.6 Q2331.22 1540.33 2328.14 1544.94 Q2325.08 1549.52 2319.27 1549.52 Q2313.46 1549.52 2310.38 1544.94 Q2307.33 1540.33 2307.33 1531.6 Q2307.33 1522.85 2310.38 1518.27 Q2313.46 1513.66 2319.27 1513.66 Z" fill="#000000" fill-rule="nonzero" fill-opacity="1" /><polyline clip-path="url(#clip090)" style="stroke:#000000; stroke-linecap:round; stroke-linejoin:round; stroke-width:4; stroke-opacity:1; fill:none" points="140.696,1486.45 140.696,47.2441 "/>
<polyline clip-path="url(#clip090)" style="stroke:#000000; stroke-linecap:round; stroke-linejoin:round; stroke-width:4; stroke-opacity:1; fill:none" points="140.696,1445.03 159.593,1445.03 "/>
<polyline clip-path="url(#clip090)" style="stroke:#000000; stroke-linecap:round; stroke-linejoin:round; stroke-width:4; stroke-opacity:1; fill:none" points="140.696,1186.43 159.593,1186.43 "/>
<polyline clip-path="url(#clip090)" style="stroke:#000000; stroke-linecap:round; stroke-linejoin:round; stroke-width:4; stroke-opacity:1; fill:none" points="140.696,927.833 159.593,927.833 "/>
<polyline clip-path="url(#clip090)" style="stroke:#000000; stroke-linecap:round; stroke-linejoin:round; stroke-width:4; stroke-opacity:1; fill:none" points="140.696,669.233 159.593,669.233 "/>
<polyline clip-path="url(#clip090)" style="stroke:#000000; stroke-linecap:round; stroke-linejoin:round; stroke-width:4; stroke-opacity:1; fill:none" points="140.696,410.633 159.593,410.633 "/>
<polyline clip-path="url(#clip090)" style="stroke:#000000; stroke-linecap:round; stroke-linejoin:round; stroke-width:4; stroke-opacity:1; fill:none" points="140.696,152.033 159.593,152.033 "/>
<path clip-path="url(#clip090)" d="M92.7512 1430.83 Q89.1401 1430.83 87.3114 1434.4 Q85.5058 1437.94 85.5058 1445.07 Q85.5058 1452.17 87.3114 1455.74 Q89.1401 1459.28 92.7512 1459.28 Q96.3854 1459.28 98.1909 1455.74 Q100.02 1452.17 100.02 1445.07 Q100.02 1437.94 98.1909 1434.4 Q96.3854 1430.83 92.7512 1430.83 M92.7512 1427.13 Q98.5613 1427.13 101.617 1431.73 Q104.696 1436.32 104.696 1445.07 Q104.696 1453.79 101.617 1458.4 Q98.5613 1462.98 92.7512 1462.98 Q86.941 1462.98 83.8623 1458.4 Q80.8068 1453.79 80.8068 1445.07 Q80.8068 1436.32 83.8623 1431.73 Q86.941 1427.13 92.7512 1427.13 Z" fill="#000000" fill-rule="nonzero" fill-opacity="1" /><path clip-path="url(#clip090)" d="M83.7929 1169.15 L102.149 1169.15 L102.149 1173.09 L88.0753 1173.09 L88.0753 1181.56 Q89.0938 1181.21 90.1123 1181.05 Q91.1308 1180.87 92.1493 1180.87 Q97.9363 1180.87 101.316 1184.04 Q104.696 1187.21 104.696 1192.63 Q104.696 1198.2 101.223 1201.31 Q97.7511 1204.38 91.4317 1204.38 Q89.2558 1204.38 86.9873 1204.01 Q84.7419 1203.64 82.3346 1202.9 L82.3346 1198.2 Q84.4179 1199.34 86.6401 1199.89 Q88.8623 1200.45 91.3391 1200.45 Q95.3437 1200.45 97.6817 1198.34 Q100.02 1196.24 100.02 1192.63 Q100.02 1189.01 97.6817 1186.91 Q95.3437 1184.8 91.3391 1184.8 Q89.4641 1184.8 87.5892 1185.22 Q85.7373 1185.63 83.7929 1186.51 L83.7929 1169.15 Z" fill="#000000" fill-rule="nonzero" fill-opacity="1" /><path clip-path="url(#clip090)" d="M53.3995 941.178 L61.0384 941.178 L61.0384 914.813 L52.7282 916.479 L52.7282 912.22 L60.9921 910.553 L65.668 910.553 L65.668 941.178 L73.3068 941.178 L73.3068 945.113 L53.3995 945.113 L53.3995 941.178 Z" fill="#000000" fill-rule="nonzero" fill-opacity="1" /><path clip-path="url(#clip090)" d="M92.7512 913.632 Q89.1401 913.632 87.3114 917.197 Q85.5058 920.738 85.5058 927.868 Q85.5058 934.975 87.3114 938.539 Q89.1401 942.081 92.7512 942.081 Q96.3854 942.081 98.1909 938.539 Q100.02 934.975 100.02 927.868 Q100.02 920.738 98.1909 917.197 Q96.3854 913.632 92.7512 913.632 M92.7512 909.928 Q98.5613 909.928 101.617 914.535 Q104.696 919.118 104.696 927.868 Q104.696 936.595 101.617 941.201 Q98.5613 945.785 92.7512 945.785 Q86.941 945.785 83.8623 941.201 Q80.8068 936.595 80.8068 927.868 Q80.8068 919.118 83.8623 914.535 Q86.941 909.928 92.7512 909.928 Z" fill="#000000" fill-rule="nonzero" fill-opacity="1" /><path clip-path="url(#clip090)" d="M54.3949 682.578 L62.0337 682.578 L62.0337 656.213 L53.7236 657.879 L53.7236 653.62 L61.9874 651.953 L66.6633 651.953 L66.6633 682.578 L74.3022 682.578 L74.3022 686.513 L54.3949 686.513 L54.3949 682.578 Z" fill="#000000" fill-rule="nonzero" fill-opacity="1" /><path clip-path="url(#clip090)" d="M83.7929 651.953 L102.149 651.953 L102.149 655.888 L88.0753 655.888 L88.0753 664.361 Q89.0938 664.013 90.1123 663.851 Q91.1308 663.666 92.1493 663.666 Q97.9363 663.666 101.316 666.837 Q104.696 670.009 104.696 675.425 Q104.696 681.004 101.223 684.106 Q97.7511 687.185 91.4317 687.185 Q89.2558 687.185 86.9873 686.814 Q84.7419 686.444 82.3346 685.703 L82.3346 681.004 Q84.4179 682.138 86.6401 682.694 Q88.8623 683.249 91.3391 683.249 Q95.3437 683.249 97.6817 681.143 Q100.02 679.036 100.02 675.425 Q100.02 671.814 97.6817 669.708 Q95.3437 667.601 91.3391 667.601 Q89.4641 667.601 87.5892 668.018 Q85.7373 668.435 83.7929 669.314 L83.7929 651.953 Z" fill="#000000" fill-rule="nonzero" fill-opacity="1" /><path clip-path="url(#clip090)" d="M56.6171 423.978 L72.9365 423.978 L72.9365 427.913 L50.9921 427.913 L50.9921 423.978 Q53.6541 421.223 58.2375 416.594 Q62.8439 411.941 64.0245 410.599 Q66.2698 408.075 67.1494 406.339 Q68.0522 404.58 68.0522 402.89 Q68.0522 400.136 66.1078 398.399 Q64.1865 396.663 61.0847 396.663 Q58.8856 396.663 56.4319 397.427 Q54.0014 398.191 51.2236 399.742 L51.2236 395.02 Q54.0477 393.886 56.5014 393.307 Q58.955 392.728 60.9921 392.728 Q66.3624 392.728 69.5568 395.413 Q72.7513 398.099 72.7513 402.589 Q72.7513 404.719 71.9411 406.64 Q71.1541 408.538 69.0476 411.131 Q68.4689 411.802 65.367 415.02 Q62.2652 418.214 56.6171 423.978 Z" fill="#000000" fill-rule="nonzero" fill-opacity="1" /><path clip-path="url(#clip090)" d="M92.7512 396.432 Q89.1401 396.432 87.3114 399.997 Q85.5058 403.538 85.5058 410.668 Q85.5058 417.774 87.3114 421.339 Q89.1401 424.881 92.7512 424.881 Q96.3854 424.881 98.1909 421.339 Q100.02 417.774 100.02 410.668 Q100.02 403.538 98.1909 399.997 Q96.3854 396.432 92.7512 396.432 M92.7512 392.728 Q98.5613 392.728 101.617 397.335 Q104.696 401.918 104.696 410.668 Q104.696 419.395 101.617 424.001 Q98.5613 428.585 92.7512 428.585 Q86.941 428.585 83.8623 424.001 Q80.8068 419.395 80.8068 410.668 Q80.8068 401.918 83.8623 397.335 Q86.941 392.728 92.7512 392.728 Z" fill="#000000" fill-rule="nonzero" fill-opacity="1" /><path clip-path="url(#clip090)" d="M57.6125 165.378 L73.9318 165.378 L73.9318 169.313 L51.9875 169.313 L51.9875 165.378 Q54.6495 162.623 59.2328 157.994 Q63.8393 153.341 65.0198 151.998 Q67.2652 149.475 68.1448 147.739 Q69.0476 145.98 69.0476 144.29 Q69.0476 141.536 67.1032 139.799 Q65.1819 138.063 62.08 138.063 Q59.881 138.063 57.4273 138.827 Q54.9967 139.591 52.219 141.142 L52.219 136.42 Q55.043 135.286 57.4967 134.707 Q59.9504 134.128 61.9874 134.128 Q67.3578 134.128 70.5522 136.813 Q73.7466 139.499 73.7466 143.989 Q73.7466 146.119 72.9365 148.04 Q72.1494 149.938 70.0429 152.531 Q69.4642 153.202 66.3624 156.42 Q63.2606 159.614 57.6125 165.378 Z" fill="#000000" fill-rule="nonzero" fill-opacity="1" /><path clip-path="url(#clip090)" d="M83.7929 134.753 L102.149 134.753 L102.149 138.688 L88.0753 138.688 L88.0753 147.161 Q89.0938 146.813 90.1123 146.651 Q91.1308 146.466 92.1493 146.466 Q97.9363 146.466 101.316 149.637 Q104.696 152.809 104.696 158.225 Q104.696 163.804 101.223 166.906 Q97.7511 169.984 91.4317 169.984 Q89.2558 169.984 86.9873 169.614 Q84.7419 169.244 82.3346 168.503 L82.3346 163.804 Q84.4179 164.938 86.6401 165.494 Q88.8623 166.049 91.3391 166.049 Q95.3437 166.049 97.6817 163.943 Q100.02 161.836 100.02 158.225 Q100.02 154.614 97.6817 152.508 Q95.3437 150.401 91.3391 150.401 Q89.4641 150.401 87.5892 150.818 Q85.7373 151.235 83.7929 152.114 L83.7929 134.753 Z" fill="#000000" fill-rule="nonzero" fill-opacity="1" /><polyline clip-path="url(#clip092)" style="stroke:#009af9; stroke-linecap:round; stroke-linejoin:round; stroke-width:4; stroke-opacity:1; fill:none" points="203.301,1396.32 207.475,1396.13 211.648,1395.93 215.822,1395.73 219.996,1395.53 224.17,1395.33 228.343,1395.12 232.517,1394.91 236.691,1394.7 240.864,1394.48 245.038,1394.26 249.212,1394.04 253.385,1393.81 257.559,1393.58 261.733,1393.34 265.907,1393.1 270.08,1392.85 274.254,1392.6 278.428,1392.34 282.601,1392.08 286.775,1391.81 290.949,1391.54 295.122,1391.25 299.296,1390.96 303.47,1390.67 307.643,1390.36 311.817,1390.05 315.991,1389.73 320.165,1389.39 324.338,1389.05 328.512,1388.7 332.686,1388.33 336.859,1387.96 341.033,1387.57 345.207,1387.17 349.38,1386.75 353.554,1386.32 357.728,1385.87 361.902,1385.41 366.075,1384.93 370.249,1384.43 374.423,1383.91 378.596,1383.37 382.77,1382.81 386.944,1382.23 391.117,1381.63 395.291,1380.99 399.465,1380.34 403.639,1379.65 407.812,1378.94 411.986,1378.19 416.16,1377.42 420.333,1376.61 424.507,1375.76 428.681,1374.88 432.854,1373.96 437.028,1373 441.202,1372 445.376,1370.95 449.549,1369.86 453.723,1368.72 457.897,1367.53 462.07,1366.29 466.244,1364.99 470.418,1363.63 474.591,1362.22 478.765,1360.75 482.939,1359.21 487.113,1357.61 491.286,1355.94 495.46,1354.2 499.634,1352.38 503.807,1350.49 507.981,1348.52 512.155,1346.47 516.328,1344.33 520.502,1342.11 524.676,1339.81 528.85,1337.4 533.023,1334.91 537.197,1332.32 541.371,1329.63 545.544,1326.84 549.718,1323.94 553.892,1320.93 558.065,1317.82 562.239,1314.6 566.413,1311.26 570.587,1307.8 574.76,1304.23 578.934,1300.53 583.108,1296.72 587.281,1292.78 591.455,1288.71 595.629,1284.51 599.802,1280.19 603.976,1275.73 608.15,1271.14 612.324,1266.42 616.497,1261.56 620.671,1256.57 624.845,1251.44 629.018,1246.18 633.192,1240.78 637.366,1235.24 641.539,1229.57 645.713,1223.77 649.887,1217.82 654.06,1211.75 658.234,1205.54 662.408,1199.2 666.582,1192.73 670.755,1186.14 674.929,1179.42 679.103,1172.57 683.276,1165.61 687.45,1158.53 691.624,1151.34 695.797,1144.04 699.971,1136.63 704.145,1129.12 708.319,1121.51 712.492,1113.82 716.666,1106.03 720.84,1098.17 725.013,1090.22 729.187,1082.21 733.361,1074.14 737.534,1066 741.708,1057.82 745.882,1049.59 750.056,1041.32 754.229,1033.03 758.403,1024.71 762.577,1016.38 766.75,1008.04 770.924,999.703 775.098,991.375 779.271,983.064 783.445,974.778 787.619,966.527 791.793,958.318 795.966,950.16 800.14,942.062 804.314,934.032 808.487,926.078 812.661,918.209 816.835,910.433 821.008,902.758 825.182,895.193 829.356,887.746 833.53,880.424 837.703,873.234 841.877,866.185 846.051,859.283 850.224,852.535 854.398,845.948 858.572,839.528 862.745,833.281 866.919,827.212 871.093,821.327 875.267,815.63 879.44,810.125 883.614,804.816 887.788,799.707 891.961,794.8 896.135,790.097 900.309,785.6 904.482,781.31 908.656,777.227 912.83,773.351 917.004,769.682 921.177,766.217 925.351,762.954 929.525,759.89 933.698,757.021 937.872,754.342 942.046,751.849 946.219,749.533 950.393,747.389 954.567,745.407 958.741,743.579 962.914,741.893 967.088,740.338 971.262,738.903 975.435,737.571 979.609,736.329 983.783,735.16 987.956,734.044 992.13,732.963 996.304,731.894 1000.48,730.814 1004.65,729.695 1008.82,728.511 1013,727.229 1017.17,725.815 1021.35,724.232 1025.52,722.437 1029.69,720.384 1033.87,718.022 1038.04,715.292 1042.21,712.131 1046.39,708.465 1050.56,704.21 1054.74,699.274 1058.91,693.546 1063.08,686.902 1067.26,679.195 1071.43,670.256 1075.6,659.882 1079.78,647.837 1083.95,633.834 1088.13,617.533 1092.3,598.524 1096.47,576.313 1100.65,550.304 1104.82,519.796 1108.99,483.981 1113.17,441.989 1117.34,393.034 1121.51,336.751 1125.69,273.941 1129.86,207.919 1134.04,146.313 1138.21,101.732 1142.38,87.9763 1146.56,111.365 1150.73,165.549 1154.9,236.699 1159.08,312.173 1163.25,384.313 1167.43,449.773 1171.6,507.719 1175.77,558.484 1179.95,602.821 1184.12,641.564 1188.29,675.484 1192.47,705.247 1196.64,731.407 1200.82,754.417 1204.99,774.645 1209.16,792.385 1213.34,807.873 1217.51,821.295 1221.68,832.799 1225.86,842.494 1230.03,850.465 1234.2,856.77 1238.38,861.444 1242.55,864.506 1246.73,865.956 1250.9,865.779 1255.07,863.947 1259.25,860.421 1263.42,855.15 1267.59,848.078 1271.77,839.14 1275.94,828.275 1280.12,815.421 1284.29,800.531 1288.46,783.573 1292.64,764.55 1296.81,743.507 1300.98,720.552 1305.16,695.873 1309.33,669.762 1313.5,642.634 1317.68,615.048 1321.85,587.71 1326.03,561.476 1330.2,537.327 1334.37,516.32 1338.55,499.521 1342.72,487.909 1346.89,482.283 1351.07,483.167 1355.24,490.749 1359.42,504.854 1363.59,524.975 1367.76,550.328 1371.94,579.946 1376.11,612.781 1380.28,647.791 1384.46,684.01 1388.63,720.6 1392.81,756.869 1396.98,792.277 1401.15,826.428 1405.33,859.049 1409.5,889.971 1413.67,919.107 1417.85,946.434 1422.02,971.976 1426.19,995.789 1430.37,1017.95 1434.54,1038.55 1438.72,1057.68 1442.89,1075.44 1447.06,1091.94 1451.24,1107.27 1455.41,1121.52 1459.58,1134.77 1463.76,1147.1 1467.93,1158.59 1472.11,1169.31 1476.28,1179.32 1480.45,1188.68 1484.63,1197.43 1488.8,1205.64 1492.97,1213.33 1497.15,1220.56 1501.32,1227.35 1505.5,1233.75 1509.67,1239.78 1513.84,1245.46 1518.02,1250.84 1522.19,1255.92 1526.36,1260.72 1530.54,1265.28 1534.71,1269.6 1538.88,1273.71 1543.06,1277.61 1547.23,1281.32 1551.41,1284.85 1555.58,1288.22 1559.75,1291.44 1563.93,1294.51 1568.1,1297.44 1572.27,1300.25 1576.45,1302.94 1580.62,1305.52 1584.8,1307.99 1588.97,1310.36 1593.14,1312.64 1597.32,1314.82 1601.49,1316.93 1605.66,1318.96 1609.84,1320.91 1614.01,1322.79 1618.18,1324.6 1622.36,1326.36 1626.53,1328.05 1630.71,1329.68 1634.88,1331.26 1639.05,1332.79 1643.23,1334.27 1647.4,1335.7 1651.57,1337.09 1655.75,1338.44 1659.92,1339.74 1664.1,1341.01 1668.27,1342.24 1672.44,1343.44 1676.62,1344.6 1680.79,1345.73 1684.96,1346.83 1689.14,1347.9 1693.31,1348.94 1697.49,1349.95 1701.66,1350.94 1705.83,1351.9 1710.01,1352.84 1714.18,1353.76 1718.35,1354.65 1722.53,1355.53 1726.7,1356.38 1730.87,1357.21 1735.05,1358.02 1739.22,1358.82 1743.4,1359.6 1747.57,1360.36 1751.74,1361.1 1755.92,1361.83 1760.09,1362.54 1764.26,1363.24 1768.44,1363.92 1772.61,1364.59 1776.79,1365.24 1780.96,1365.89 1785.13,1366.52 1789.31,1367.14 1793.48,1367.74 1797.65,1368.34 1801.83,1368.92 1806,1369.49 1810.18,1370.05 1814.35,1370.61 1818.52,1371.15 1822.7,1371.68 1826.87,1372.2 1831.04,1372.72 1835.22,1373.22 1839.39,1373.72 1843.56,1374.21 1847.74,1374.69 1851.91,1375.16 1856.09,1375.62 1860.26,1376.08 1864.43,1376.53 1868.61,1376.97 1872.78,1377.41 1876.95,1377.84 1881.13,1378.26 1885.3,1378.68 1889.48,1379.09 1893.65,1379.49 1897.82,1379.89 1902,1380.28 1906.17,1380.67 1910.34,1381.05 1914.52,1381.42 1918.69,1381.79 1922.86,1382.16 1927.04,1382.52 1931.21,1382.87 1935.39,1383.22 1939.56,1383.57 1943.73,1383.91 1947.91,1384.24 1952.08,1384.57 1956.25,1384.9 1960.43,1385.22 1964.6,1385.54 1968.78,1385.86 1972.95,1386.17 1977.12,1386.47 1981.3,1386.78 1985.47,1387.08 1989.64,1387.37 1993.82,1387.66 1997.99,1387.95 2002.17,1388.24 2006.34,1388.52 2010.51,1388.8 2014.69,1389.07 2018.86,1389.34 2023.03,1389.61 2027.21,1389.88 2031.38,1390.14 2035.55,1390.4 2039.73,1390.65 2043.9,1390.91 2048.08,1391.16 2052.25,1391.41 2056.42,1391.65 2060.6,1391.9 2064.77,1392.14 2068.94,1392.37 2073.12,1392.61 2077.29,1392.84 2081.47,1393.07 2085.64,1393.3 2089.81,1393.52 2093.99,1393.75 2098.16,1393.97 2102.33,1394.18 2106.51,1394.4 2110.68,1394.61 2114.86,1394.83 2119.03,1395.04 2123.2,1395.24 2127.38,1395.45 2131.55,1395.65 2135.72,1395.85 2139.9,1396.05 2144.07,1396.25 2148.24,1396.45 2152.42,1396.64 2156.59,1396.83 2160.77,1397.02 2164.94,1397.21 2169.11,1397.4 2173.29,1397.58 2177.46,1397.77 2181.63,1397.95 2185.81,1398.13 2189.98,1398.31 2194.16,1398.49 2198.33,1398.66 2202.5,1398.83 2206.68,1399.01 2210.85,1399.18 2215.02,1399.35 2219.2,1399.51 2223.37,1399.68 2227.54,1399.85 2231.72,1400.01 2235.89,1400.17 2240.07,1400.33 2244.24,1400.49 2248.41,1400.65 2252.59,1400.81 2256.76,1400.96 2260.93,1401.12 2265.11,1401.27 2269.28,1401.42 2273.46,1401.57 2277.63,1401.72 2281.8,1401.87 2285.98,1402.02 2290.15,1402.16 "/>
<polyline clip-path="url(#clip092)" style="stroke:#e26f46; stroke-linecap:round; stroke-linejoin:round; stroke-width:4; stroke-opacity:1; fill:none" points="203.301,1390.25 207.475,1396.98 211.648,1406.11 215.822,1431.24 219.996,1445.72 224.17,1390.09 228.343,1386.93 232.517,1426.35 236.691,1400.87 240.864,1377.1 245.038,1436.26 249.212,1425.96 253.385,1431.9 257.559,1379.24 261.733,1419 265.907,1403.39 270.08,1415.2 274.254,1378.26 278.428,1391.94 282.601,1391.32 286.775,1408.35 290.949,1394.71 295.122,1398.48 299.296,1372.21 303.47,1392.16 307.643,1368.34 311.817,1376.61 315.991,1366.76 320.165,1387.03 324.338,1403.7 328.512,1400.88 332.686,1370.23 336.859,1386.98 341.033,1382.27 345.207,1403.1 349.38,1381.02 353.554,1386.68 357.728,1337.1 361.902,1381.59 366.075,1389.3 370.249,1388.54 374.423,1389.24 378.596,1360.88 382.77,1385.74 386.944,1370.71 391.117,1375.94 395.291,1377.16 399.465,1380.11 403.639,1367.06 407.812,1353.76 411.986,1377.56 416.16,1404.58 420.333,1388.11 424.507,1375.07 428.681,1382.03 432.854,1376.52 437.028,1351.97 441.202,1382.09 445.376,1389.89 449.549,1377.34 453.723,1408.1 457.897,1347.91 462.07,1369.9 466.244,1374.69 470.418,1381.16 474.591,1372.6 478.765,1326.52 482.939,1358.57 487.113,1360.04 491.286,1355.56 495.46,1343.62 499.634,1339.83 503.807,1343.56 507.981,1339.52 512.155,1346.66 516.328,1338 520.502,1341.04 524.676,1335.29 528.85,1349.78 533.023,1309.52 537.197,1343.14 541.371,1360.75 545.544,1301.19 549.718,1337.59 553.892,1313.53 558.065,1287.92 562.239,1327.68 566.413,1319.83 570.587,1306.33 574.76,1291.68 578.934,1274 583.108,1312.38 587.281,1297.07 591.455,1298.24 595.629,1290.31 599.802,1270.8 603.976,1281.45 608.15,1284.08 612.324,1231.39 616.497,1278.91 620.671,1234.04 624.845,1256.85 629.018,1264.35 633.192,1220.21 637.366,1211.75 641.539,1218.64 645.713,1212.43 649.887,1217.07 654.06,1207.8 658.234,1199.78 662.408,1218.99 666.582,1193.38 670.755,1205.42 674.929,1167.85 679.103,1185.94 683.276,1178.61 687.45,1154.79 691.624,1153.66 695.797,1144.19 699.971,1169.34 704.145,1137.88 708.319,1091.13 712.492,1101.23 716.666,1092.78 720.84,1082.75 725.013,1085.88 729.187,1091.73 733.361,1052.43 737.534,1070.65 741.708,1081.08 745.882,1060.04 750.056,1025.93 754.229,1012.37 758.403,1048.49 762.577,1001.93 766.75,985.563 770.924,971.391 775.098,998.372 779.271,957.546 783.445,966.886 787.619,966.379 791.793,959.123 795.966,950.624 800.14,931.616 804.314,906.587 808.487,920.039 812.661,926.362 816.835,934.306 821.008,927.208 825.182,910.392 829.356,887.367 833.53,893.062 837.703,874.119 841.877,868.534 846.051,857.507 850.224,850.464 854.398,842.639 858.572,849.241 862.745,842.32 866.919,850.348 871.093,816.289 875.267,817.409 879.44,821.003 883.614,802.337 887.788,780.003 891.961,816.634 896.135,798.05 900.309,797.314 904.482,784.148 908.656,758.822 912.83,776.949 917.004,772.837 921.177,779.205 925.351,755.624 929.525,748.643 933.698,765.68 937.872,714.762 942.046,753.405 946.219,741.947 950.393,739.671 954.567,761.215 958.741,762.794 962.914,720.567 967.088,719.839 971.262,742.983 975.435,731.849 979.609,741.005 983.783,744.099 987.956,732.833 992.13,734.978 996.304,749.353 1000.48,734.007 1004.65,721.529 1008.82,743.447 1013,753.023 1017.17,727.66 1021.35,745.023 1025.52,722.909 1029.69,719.07 1033.87,738.479 1038.04,736.339 1042.21,716.607 1046.39,680.791 1050.56,730.687 1054.74,704.46 1058.91,698.102 1063.08,701.233 1067.26,647.793 1071.43,690.426 1075.6,659.179 1079.78,619.637 1083.95,657.032 1088.13,594.168 1092.3,614.051 1096.47,579.503 1100.65,564.383 1104.82,518.304 1108.99,471.89 1113.17,434.157 1117.34,395.52 1121.51,314.991 1125.69,274.301 1129.86,202.513 1134.04,142.478 1138.21,101.355 1142.38,95.6008 1146.56,106.174 1150.73,180.216 1154.9,245.414 1159.08,295.11 1163.25,398.926 1167.43,455.143 1171.6,505.316 1175.77,558.06 1179.95,591.156 1184.12,616.576 1188.29,670.412 1192.47,687.639 1196.64,739.852 1200.82,728.007 1204.99,806.101 1209.16,778.186 1213.34,835.457 1217.51,840.138 1221.68,829.508 1225.86,823.344 1230.03,840.821 1234.2,846.992 1238.38,891.322 1242.55,888.202 1246.73,853.46 1250.9,850.895 1255.07,840.696 1259.25,839.379 1263.42,858.644 1267.59,836.625 1271.77,838.47 1275.94,820.879 1280.12,806.831 1284.29,802.528 1288.46,782.465 1292.64,742.433 1296.81,744.454 1300.98,712.129 1305.16,718.401 1309.33,662.509 1313.5,655.565 1317.68,594.798 1321.85,593.687 1326.03,587.735 1330.2,543.456 1334.37,497.901 1338.55,512.663 1342.72,467.288 1346.89,464.919 1351.07,478.809 1355.24,493.406 1359.42,498.633 1363.59,518.649 1367.76,547.028 1371.94,557.148 1376.11,596.112 1380.28,647.875 1384.46,688.339 1388.63,710.289 1392.81,738.837 1396.98,792.964 1401.15,808.434 1405.33,851.807 1409.5,908.448 1413.67,909.403 1417.85,956.609 1422.02,974.547 1426.19,1010.32 1430.37,1008.77 1434.54,1038.5 1438.72,1084.14 1442.89,1083.98 1447.06,1090.66 1451.24,1082.55 1455.41,1149.61 1459.58,1114.36 1463.76,1146.13 1467.93,1152.12 1472.11,1171.85 1476.28,1182.79 1480.45,1192.36 1484.63,1224.39 1488.8,1244.05 1492.97,1218.8 1497.15,1234.69 1501.32,1245.65 1505.5,1237.9 1509.67,1253.4 1513.84,1226.45 1518.02,1245.52 1522.19,1248.19 1526.36,1266.28 1530.54,1271.39 1534.71,1274.51 1538.88,1288.96 1543.06,1284.7 1547.23,1302.33 1551.41,1285.6 1555.58,1281.48 1559.75,1291.51 1563.93,1315.83 1568.1,1313.28 1572.27,1322.18 1576.45,1302 1580.62,1306.73 1584.8,1333.46 1588.97,1285.95 1593.14,1299.62 1597.32,1307.51 1601.49,1353.5 1605.66,1338.1 1609.84,1334.63 1614.01,1342.78 1618.18,1335.17 1622.36,1333.69 1626.53,1320.88 1630.71,1292.64 1634.88,1323.28 1639.05,1304.76 1643.23,1318.46 1647.4,1340.18 1651.57,1343.91 1655.75,1325.36 1659.92,1356.68 1664.1,1360.71 1668.27,1327.32 1672.44,1340.73 1676.62,1335.22 1680.79,1344.1 1684.96,1356.63 1689.14,1334.63 1693.31,1336.39 1697.49,1343.46 1701.66,1372.92 1705.83,1341.5 1710.01,1348.07 1714.18,1363.97 1718.35,1354.2 1722.53,1369.83 1726.7,1342.11 1730.87,1341.83 1735.05,1371.03 1739.22,1354.19 1743.4,1359.73 1747.57,1344.92 1751.74,1364.13 1755.92,1363.61 1760.09,1367 1764.26,1374.99 1768.44,1375.25 1772.61,1360.25 1776.79,1365.66 1780.96,1379.84 1785.13,1384.19 1789.31,1373.07 1793.48,1361.65 1797.65,1403.63 1801.83,1362.8 1806,1368.71 1810.18,1334.69 1814.35,1380.55 1818.52,1349.97 1822.7,1344.64 1826.87,1356.99 1831.04,1393.04 1835.22,1389.21 1839.39,1373.31 1843.56,1366.01 1847.74,1355.97 1851.91,1381.81 1856.09,1380.46 1860.26,1377.02 1864.43,1388.54 1868.61,1368.35 1872.78,1381.55 1876.95,1375.88 1881.13,1407.55 1885.3,1372.21 1889.48,1362.79 1893.65,1393.97 1897.82,1372.42 1902,1376.76 1906.17,1376.03 1910.34,1422.22 1914.52,1393.65 1918.69,1366.93 1922.86,1377.93 1927.04,1380.54 1931.21,1373.49 1935.39,1378.5 1939.56,1389.34 1943.73,1365.74 1947.91,1399.52 1952.08,1371.28 1956.25,1338.69 1960.43,1394.97 1964.6,1417.03 1968.78,1354.8 1972.95,1377.91 1977.12,1394.56 1981.3,1394.72 1985.47,1378.95 1989.64,1364.07 1993.82,1387.57 1997.99,1382.36 2002.17,1405.05 2006.34,1406.3 2010.51,1389.66 2014.69,1395.36 2018.86,1388.42 2023.03,1359.16 2027.21,1384.24 2031.38,1414.01 2035.55,1378.43 2039.73,1381.78 2043.9,1378.08 2048.08,1400.29 2052.25,1406.51 2056.42,1404.36 2060.6,1367.77 2064.77,1385.9 2068.94,1374.74 2073.12,1377.31 2077.29,1363.64 2081.47,1406.07 2085.64,1389.65 2089.81,1388.27 2093.99,1392.55 2098.16,1414.41 2102.33,1368.74 2106.51,1381.47 2110.68,1369.89 2114.86,1412.75 2119.03,1391.07 2123.2,1375.08 2127.38,1388.75 2131.55,1418.59 2135.72,1412.31 2139.9,1399.75 2144.07,1414.51 2148.24,1387.99 2152.42,1381.59 2156.59,1385.32 2160.77,1409.54 2164.94,1371.7 2169.11,1380.77 2173.29,1408.18 2177.46,1434.13 2181.63,1398.27 2185.81,1396.4 2189.98,1377.34 2194.16,1425.56 2198.33,1419.55 2202.5,1421.14 2206.68,1374.69 2210.85,1407.6 2215.02,1380.65 2219.2,1416.88 2223.37,1413.62 2227.54,1408.21 2231.72,1404.21 2235.89,1379.45 2240.07,1397.07 2244.24,1377.27 2248.41,1423.55 2252.59,1401.92 2256.76,1414.83 2260.93,1375.38 2265.11,1412.91 2269.28,1399.5 2273.46,1408.28 2277.63,1406.85 2281.8,1378.99 2285.98,1416.93 2290.15,1384.92 "/>
<path clip-path="url(#clip090)" d="M1706.29 250.738 L2279.02 250.738 L2279.02 95.2176 L1706.29 95.2176  Z" fill="#ffffff" fill-rule="evenodd" fill-opacity="1"/>
<polyline clip-path="url(#clip090)" style="stroke:#000000; stroke-linecap:round; stroke-linejoin:round; stroke-width:4; stroke-opacity:1; fill:none" points="1706.29,250.738 2279.02,250.738 2279.02,95.2176 1706.29,95.2176 1706.29,250.738 "/>
<polyline clip-path="url(#clip090)" style="stroke:#009af9; stroke-linecap:round; stroke-linejoin:round; stroke-width:4; stroke-opacity:1; fill:none" points="1730.87,147.058 1878.34,147.058 "/>
<path clip-path="url(#clip090)" d="M1902.92 129.778 L1932.15 129.778 L1932.15 133.713 L1919.88 133.713 L1919.88 164.338 L1915.18 164.338 L1915.18 133.713 L1902.92 133.713 L1902.92 129.778 Z" fill="#000000" fill-rule="nonzero" fill-opacity="1" /><path clip-path="url(#clip090)" d="M1958.03 148.689 L1958.03 164.338 L1953.77 164.338 L1953.77 148.828 Q1953.77 145.148 1952.34 143.319 Q1950.9 141.49 1948.03 141.49 Q1944.58 141.49 1942.59 143.69 Q1940.6 145.889 1940.6 149.685 L1940.6 164.338 L1936.32 164.338 L1936.32 128.319 L1940.6 128.319 L1940.6 142.44 Q1942.13 140.102 1944.19 138.944 Q1946.27 137.787 1948.98 137.787 Q1953.45 137.787 1955.74 140.565 Q1958.03 143.319 1958.03 148.689 Z" fill="#000000" fill-rule="nonzero" fill-opacity="1" /><path clip-path="url(#clip090)" d="M1988.7 150.31 L1988.7 152.393 L1969.12 152.393 Q1969.4 156.791 1971.76 159.106 Q1974.14 161.398 1978.38 161.398 Q1980.83 161.398 1983.12 160.796 Q1985.44 160.194 1987.71 158.99 L1987.71 163.018 Q1985.42 163.99 1983.01 164.5 Q1980.6 165.009 1978.12 165.009 Q1971.92 165.009 1968.29 161.398 Q1964.68 157.787 1964.68 151.629 Q1964.68 145.264 1968.1 141.537 Q1971.55 137.787 1977.38 137.787 Q1982.61 137.787 1985.65 141.166 Q1988.7 144.523 1988.7 150.31 M1984.44 149.06 Q1984.4 145.565 1982.48 143.481 Q1980.58 141.398 1977.43 141.398 Q1973.86 141.398 1971.71 143.412 Q1969.58 145.426 1969.26 149.083 L1984.44 149.06 Z" fill="#000000" fill-rule="nonzero" fill-opacity="1" /><path clip-path="url(#clip090)" d="M2014.98 131.051 L2014.98 138.412 L2023.75 138.412 L2023.75 141.722 L2014.98 141.722 L2014.98 155.796 Q2014.98 158.967 2015.83 159.87 Q2016.71 160.773 2019.37 160.773 L2023.75 160.773 L2023.75 164.338 L2019.37 164.338 Q2014.44 164.338 2012.57 162.509 Q2010.69 160.657 2010.69 155.796 L2010.69 141.722 L2007.57 141.722 L2007.57 138.412 L2010.69 138.412 L2010.69 131.051 L2014.98 131.051 Z" fill="#000000" fill-rule="nonzero" fill-opacity="1" /><path clip-path="url(#clip090)" d="M2044.37 142.393 Q2043.66 141.977 2042.8 141.791 Q2041.97 141.583 2040.95 141.583 Q2037.34 141.583 2035.39 143.944 Q2033.47 146.282 2033.47 150.68 L2033.47 164.338 L2029.19 164.338 L2029.19 138.412 L2033.47 138.412 L2033.47 142.44 Q2034.81 140.078 2036.97 138.944 Q2039.12 137.787 2042.2 137.787 Q2042.64 137.787 2043.17 137.856 Q2043.7 137.903 2044.35 138.018 L2044.37 142.393 Z" fill="#000000" fill-rule="nonzero" fill-opacity="1" /><path clip-path="url(#clip090)" d="M2048.4 154.106 L2048.4 138.412 L2052.66 138.412 L2052.66 153.944 Q2052.66 157.625 2054.1 159.476 Q2055.53 161.305 2058.4 161.305 Q2061.85 161.305 2063.84 159.106 Q2065.86 156.907 2065.86 153.111 L2065.86 138.412 L2070.11 138.412 L2070.11 164.338 L2065.86 164.338 L2065.86 160.356 Q2064.3 162.717 2062.24 163.875 Q2060.21 165.009 2057.5 165.009 Q2053.03 165.009 2050.72 162.231 Q2048.4 159.453 2048.4 154.106 M2059.12 137.787 L2059.12 137.787 Z" fill="#000000" fill-rule="nonzero" fill-opacity="1" /><path clip-path="url(#clip090)" d="M2101.06 150.31 L2101.06 152.393 L2081.48 152.393 Q2081.76 156.791 2084.12 159.106 Q2086.5 161.398 2090.74 161.398 Q2093.19 161.398 2095.48 160.796 Q2097.8 160.194 2100.07 158.99 L2100.07 163.018 Q2097.78 163.99 2095.37 164.5 Q2092.96 165.009 2090.48 165.009 Q2084.28 165.009 2080.65 161.398 Q2077.04 157.787 2077.04 151.629 Q2077.04 145.264 2080.46 141.537 Q2083.91 137.787 2089.74 137.787 Q2094.98 137.787 2098.01 141.166 Q2101.06 144.523 2101.06 150.31 M2096.8 149.06 Q2096.76 145.565 2094.84 143.481 Q2092.94 141.398 2089.79 141.398 Q2086.23 141.398 2084.07 143.412 Q2081.94 145.426 2081.62 149.083 L2096.8 149.06 Z" fill="#000000" fill-rule="nonzero" fill-opacity="1" /><path clip-path="url(#clip090)" d="M2139.65 139.176 L2139.65 143.203 Q2137.85 142.277 2135.9 141.815 Q2133.96 141.352 2131.87 141.352 Q2128.7 141.352 2127.1 142.324 Q2125.53 143.296 2125.53 145.24 Q2125.53 146.722 2126.67 147.578 Q2127.8 148.412 2131.23 149.176 L2132.68 149.5 Q2137.22 150.472 2139.12 152.254 Q2141.04 154.014 2141.04 157.185 Q2141.04 160.796 2138.17 162.902 Q2135.32 165.009 2130.32 165.009 Q2128.24 165.009 2125.97 164.592 Q2123.73 164.199 2121.23 163.388 L2121.23 158.99 Q2123.59 160.217 2125.88 160.842 Q2128.17 161.444 2130.41 161.444 Q2133.42 161.444 2135.04 160.426 Q2136.66 159.384 2136.66 157.509 Q2136.66 155.773 2135.48 154.847 Q2134.33 153.921 2130.37 153.064 L2128.89 152.717 Q2124.93 151.884 2123.17 150.171 Q2121.41 148.435 2121.41 145.426 Q2121.41 141.768 2124 139.778 Q2126.6 137.787 2131.36 137.787 Q2133.73 137.787 2135.81 138.134 Q2137.89 138.481 2139.65 139.176 Z" fill="#000000" fill-rule="nonzero" fill-opacity="1" /><path clip-path="url(#clip090)" d="M2147.82 138.412 L2152.08 138.412 L2152.08 164.338 L2147.82 164.338 L2147.82 138.412 M2147.82 128.319 L2152.08 128.319 L2152.08 133.713 L2147.82 133.713 L2147.82 128.319 Z" fill="#000000" fill-rule="nonzero" fill-opacity="1" /><path clip-path="url(#clip090)" d="M2178.05 151.074 Q2178.05 146.444 2176.13 143.898 Q2174.23 141.352 2170.79 141.352 Q2167.36 141.352 2165.44 143.898 Q2163.54 146.444 2163.54 151.074 Q2163.54 155.68 2165.44 158.226 Q2167.36 160.773 2170.79 160.773 Q2174.23 160.773 2176.13 158.226 Q2178.05 155.68 2178.05 151.074 M2182.31 161.12 Q2182.31 167.74 2179.37 170.958 Q2176.43 174.199 2170.37 174.199 Q2168.12 174.199 2166.13 173.851 Q2164.14 173.527 2162.27 172.833 L2162.27 168.689 Q2164.14 169.708 2165.97 170.194 Q2167.8 170.68 2169.7 170.68 Q2173.89 170.68 2175.97 168.481 Q2178.05 166.305 2178.05 161.884 L2178.05 159.777 Q2176.73 162.069 2174.67 163.203 Q2172.61 164.338 2169.74 164.338 Q2164.97 164.338 2162.06 160.703 Q2159.14 157.069 2159.14 151.074 Q2159.14 145.055 2162.06 141.421 Q2164.97 137.787 2169.74 137.787 Q2172.61 137.787 2174.67 138.921 Q2176.73 140.055 2178.05 142.347 L2178.05 138.412 L2182.31 138.412 L2182.31 161.12 Z" fill="#000000" fill-rule="nonzero" fill-opacity="1" /><path clip-path="url(#clip090)" d="M2212.64 148.689 L2212.64 164.338 L2208.38 164.338 L2208.38 148.828 Q2208.38 145.148 2206.94 143.319 Q2205.51 141.49 2202.64 141.49 Q2199.19 141.49 2197.2 143.69 Q2195.21 145.889 2195.21 149.685 L2195.21 164.338 L2190.92 164.338 L2190.92 138.412 L2195.21 138.412 L2195.21 142.44 Q2196.73 140.102 2198.79 138.944 Q2200.88 137.787 2203.59 137.787 Q2208.05 137.787 2210.35 140.565 Q2212.64 143.319 2212.64 148.689 Z" fill="#000000" fill-rule="nonzero" fill-opacity="1" /><path clip-path="url(#clip090)" d="M2232.91 151.305 Q2227.75 151.305 2225.76 152.486 Q2223.77 153.666 2223.77 156.514 Q2223.77 158.782 2225.25 160.125 Q2226.76 161.444 2229.33 161.444 Q2232.87 161.444 2235 158.944 Q2237.15 156.421 2237.15 152.254 L2237.15 151.305 L2232.91 151.305 M2241.41 149.546 L2241.41 164.338 L2237.15 164.338 L2237.15 160.402 Q2235.69 162.763 2233.52 163.898 Q2231.34 165.009 2228.19 165.009 Q2224.21 165.009 2221.85 162.787 Q2219.51 160.541 2219.51 156.791 Q2219.51 152.416 2222.43 150.194 Q2225.37 147.972 2231.18 147.972 L2237.15 147.972 L2237.15 147.555 Q2237.15 144.615 2235.21 143.018 Q2233.28 141.398 2229.79 141.398 Q2227.57 141.398 2225.46 141.93 Q2223.35 142.463 2221.41 143.527 L2221.41 139.592 Q2223.75 138.69 2225.95 138.25 Q2228.15 137.787 2230.23 137.787 Q2235.85 137.787 2238.63 140.703 Q2241.41 143.62 2241.41 149.546 Z" fill="#000000" fill-rule="nonzero" fill-opacity="1" /><path clip-path="url(#clip090)" d="M2250.18 128.319 L2254.44 128.319 L2254.44 164.338 L2250.18 164.338 L2250.18 128.319 Z" fill="#000000" fill-rule="nonzero" fill-opacity="1" /><polyline clip-path="url(#clip090)" style="stroke:#e26f46; stroke-linecap:round; stroke-linejoin:round; stroke-width:4; stroke-opacity:1; fill:none" points="1730.87,198.898 1878.34,198.898 "/>
<path clip-path="url(#clip090)" d="M1918.93 184.789 Q1913.84 184.789 1910.83 188.585 Q1907.85 192.381 1907.85 198.932 Q1907.85 205.46 1910.83 209.256 Q1913.84 213.053 1918.93 213.053 Q1924.03 213.053 1926.99 209.256 Q1929.98 205.46 1929.98 198.932 Q1929.98 192.381 1926.99 188.585 Q1924.03 184.789 1918.93 184.789 M1918.93 180.993 Q1926.2 180.993 1930.55 185.877 Q1934.91 190.738 1934.91 198.932 Q1934.91 207.104 1930.55 211.988 Q1926.2 216.849 1918.93 216.849 Q1911.64 216.849 1907.27 211.988 Q1902.92 207.127 1902.92 198.932 Q1902.92 190.738 1907.27 185.877 Q1911.64 180.993 1918.93 180.993 Z" fill="#000000" fill-rule="nonzero" fill-opacity="1" /><path clip-path="url(#clip090)" d="M1960.65 203.238 Q1960.65 198.539 1958.7 195.877 Q1956.78 193.192 1953.4 193.192 Q1950.02 193.192 1948.08 195.877 Q1946.16 198.539 1946.16 203.238 Q1946.16 207.937 1948.08 210.622 Q1950.02 213.284 1953.4 213.284 Q1956.78 213.284 1958.7 210.622 Q1960.65 207.937 1960.65 203.238 M1946.16 194.187 Q1947.5 191.872 1949.54 190.761 Q1951.6 189.627 1954.44 189.627 Q1959.17 189.627 1962.11 193.377 Q1965.07 197.127 1965.07 203.238 Q1965.07 209.349 1962.11 213.099 Q1959.17 216.849 1954.44 216.849 Q1951.6 216.849 1949.54 215.738 Q1947.5 214.603 1946.16 212.289 L1946.16 216.178 L1941.87 216.178 L1941.87 180.159 L1946.16 180.159 L1946.16 194.187 Z" fill="#000000" fill-rule="nonzero" fill-opacity="1" /><path clip-path="url(#clip090)" d="M1988.66 191.016 L1988.66 195.043 Q1986.85 194.117 1984.91 193.655 Q1982.96 193.192 1980.88 193.192 Q1977.71 193.192 1976.11 194.164 Q1974.54 195.136 1974.54 197.08 Q1974.54 198.562 1975.67 199.418 Q1976.8 200.252 1980.23 201.016 L1981.69 201.34 Q1986.23 202.312 1988.12 204.094 Q1990.05 205.854 1990.05 209.025 Q1990.05 212.636 1987.18 214.742 Q1984.33 216.849 1979.33 216.849 Q1977.24 216.849 1974.98 216.432 Q1972.73 216.039 1970.23 215.228 L1970.23 210.83 Q1972.59 212.057 1974.88 212.682 Q1977.18 213.284 1979.42 213.284 Q1982.43 213.284 1984.05 212.266 Q1985.67 211.224 1985.67 209.349 Q1985.67 207.613 1984.49 206.687 Q1983.33 205.761 1979.37 204.904 L1977.89 204.557 Q1973.93 203.724 1972.18 202.011 Q1970.42 200.275 1970.42 197.266 Q1970.42 193.608 1973.01 191.618 Q1975.6 189.627 1980.37 189.627 Q1982.73 189.627 1984.81 189.974 Q1986.9 190.321 1988.66 191.016 Z" fill="#000000" fill-rule="nonzero" fill-opacity="1" /><path clip-path="url(#clip090)" d="M2019 202.15 L2019 204.233 L1999.42 204.233 Q1999.7 208.631 2002.06 210.946 Q2004.44 213.238 2008.68 213.238 Q2011.13 213.238 2013.42 212.636 Q2015.74 212.034 2018.01 210.83 L2018.01 214.858 Q2015.72 215.83 2013.31 216.34 Q2010.9 216.849 2008.42 216.849 Q2002.22 216.849 1998.59 213.238 Q1994.98 209.627 1994.98 203.469 Q1994.98 197.104 1998.4 193.377 Q2001.85 189.627 2007.68 189.627 Q2012.92 189.627 2015.95 193.006 Q2019 196.363 2019 202.15 M2014.74 200.9 Q2014.7 197.405 2012.78 195.321 Q2010.88 193.238 2007.73 193.238 Q2004.17 193.238 2002.01 195.252 Q1999.88 197.266 1999.56 200.923 L2014.74 200.9 Z" fill="#000000" fill-rule="nonzero" fill-opacity="1" /><path clip-path="url(#clip090)" d="M2041.02 194.233 Q2040.3 193.817 2039.44 193.631 Q2038.61 193.423 2037.59 193.423 Q2033.98 193.423 2032.04 195.784 Q2030.11 198.122 2030.11 202.52 L2030.11 216.178 L2025.83 216.178 L2025.83 190.252 L2030.11 190.252 L2030.11 194.28 Q2031.46 191.918 2033.61 190.784 Q2035.76 189.627 2038.84 189.627 Q2039.28 189.627 2039.81 189.696 Q2040.35 189.743 2040.99 189.858 L2041.02 194.233 Z" fill="#000000" fill-rule="nonzero" fill-opacity="1" /><path clip-path="url(#clip090)" d="M2042.43 190.252 L2046.94 190.252 L2055.05 212.011 L2063.15 190.252 L2067.66 190.252 L2057.94 216.178 L2052.15 216.178 L2042.43 190.252 Z" fill="#000000" fill-rule="nonzero" fill-opacity="1" /><path clip-path="url(#clip090)" d="M2085.32 203.145 Q2080.16 203.145 2078.17 204.326 Q2076.18 205.506 2076.18 208.354 Q2076.18 210.622 2077.66 211.965 Q2079.17 213.284 2081.73 213.284 Q2085.28 213.284 2087.41 210.784 Q2089.56 208.261 2089.56 204.094 L2089.56 203.145 L2085.32 203.145 M2093.82 201.386 L2093.82 216.178 L2089.56 216.178 L2089.56 212.242 Q2088.1 214.603 2085.92 215.738 Q2083.75 216.849 2080.6 216.849 Q2076.62 216.849 2074.26 214.627 Q2071.92 212.381 2071.92 208.631 Q2071.92 204.256 2074.84 202.034 Q2077.78 199.812 2083.59 199.812 L2089.56 199.812 L2089.56 199.395 Q2089.56 196.455 2087.61 194.858 Q2085.69 193.238 2082.2 193.238 Q2079.98 193.238 2077.87 193.77 Q2075.76 194.303 2073.82 195.367 L2073.82 191.432 Q2076.16 190.53 2078.36 190.09 Q2080.55 189.627 2082.64 189.627 Q2088.26 189.627 2091.04 192.543 Q2093.82 195.46 2093.82 201.386 Z" fill="#000000" fill-rule="nonzero" fill-opacity="1" /><path clip-path="url(#clip090)" d="M2106.8 182.891 L2106.8 190.252 L2115.58 190.252 L2115.58 193.562 L2106.8 193.562 L2106.8 207.636 Q2106.8 210.807 2107.66 211.71 Q2108.54 212.613 2111.2 212.613 L2115.58 212.613 L2115.58 216.178 L2111.2 216.178 Q2106.27 216.178 2104.4 214.349 Q2102.52 212.497 2102.52 207.636 L2102.52 193.562 L2099.4 193.562 L2099.4 190.252 L2102.52 190.252 L2102.52 182.891 L2106.8 182.891 Z" fill="#000000" fill-rule="nonzero" fill-opacity="1" /><path clip-path="url(#clip090)" d="M2121.18 190.252 L2125.44 190.252 L2125.44 216.178 L2121.18 216.178 L2121.18 190.252 M2121.18 180.159 L2125.44 180.159 L2125.44 185.553 L2121.18 185.553 L2121.18 180.159 Z" fill="#000000" fill-rule="nonzero" fill-opacity="1" /><path clip-path="url(#clip090)" d="M2144.4 193.238 Q2140.97 193.238 2138.98 195.923 Q2136.99 198.585 2136.99 203.238 Q2136.99 207.891 2138.96 210.576 Q2140.95 213.238 2144.4 213.238 Q2147.8 213.238 2149.79 210.553 Q2151.78 207.867 2151.78 203.238 Q2151.78 198.631 2149.79 195.946 Q2147.8 193.238 2144.4 193.238 M2144.4 189.627 Q2149.95 189.627 2153.12 193.238 Q2156.29 196.849 2156.29 203.238 Q2156.29 209.604 2153.12 213.238 Q2149.95 216.849 2144.4 216.849 Q2138.82 216.849 2135.65 213.238 Q2132.5 209.604 2132.5 203.238 Q2132.5 196.849 2135.65 193.238 Q2138.82 189.627 2144.4 189.627 Z" fill="#000000" fill-rule="nonzero" fill-opacity="1" /><path clip-path="url(#clip090)" d="M2184.91 200.529 L2184.91 216.178 L2180.65 216.178 L2180.65 200.668 Q2180.65 196.988 2179.21 195.159 Q2177.78 193.33 2174.91 193.33 Q2171.46 193.33 2169.47 195.53 Q2167.47 197.729 2167.47 201.525 L2167.47 216.178 L2163.19 216.178 L2163.19 190.252 L2167.47 190.252 L2167.47 194.28 Q2169 191.942 2171.06 190.784 Q2173.15 189.627 2175.85 189.627 Q2180.32 189.627 2182.61 192.405 Q2184.91 195.159 2184.91 200.529 Z" fill="#000000" fill-rule="nonzero" fill-opacity="1" /><path clip-path="url(#clip090)" d="M2209.93 191.016 L2209.93 195.043 Q2208.12 194.117 2206.18 193.655 Q2204.23 193.192 2202.15 193.192 Q2198.98 193.192 2197.38 194.164 Q2195.81 195.136 2195.81 197.08 Q2195.81 198.562 2196.94 199.418 Q2198.08 200.252 2201.5 201.016 L2202.96 201.34 Q2207.5 202.312 2209.4 204.094 Q2211.32 205.854 2211.32 209.025 Q2211.32 212.636 2208.45 214.742 Q2205.6 216.849 2200.6 216.849 Q2198.52 216.849 2196.25 216.432 Q2194 216.039 2191.5 215.228 L2191.5 210.83 Q2193.86 212.057 2196.16 212.682 Q2198.45 213.284 2200.69 213.284 Q2203.7 213.284 2205.32 212.266 Q2206.94 211.224 2206.94 209.349 Q2206.94 207.613 2205.76 206.687 Q2204.6 205.761 2200.65 204.904 L2199.16 204.557 Q2195.21 203.724 2193.45 202.011 Q2191.69 200.275 2191.69 197.266 Q2191.69 193.608 2194.28 191.618 Q2196.87 189.627 2201.64 189.627 Q2204 189.627 2206.09 189.974 Q2208.17 190.321 2209.93 191.016 Z" fill="#000000" fill-rule="nonzero" fill-opacity="1" /></svg>
