<?xml version="1.0" encoding="utf-8"?>
<svg xmlns="http://www.w3.org/2000/svg" xmlns:xlink="http://www.w3.org/1999/xlink" width="600" height="400" viewBox="0 0 2400 1600">
<defs>
  <clipPath id="clip240">
    <rect x="0" y="0" width="2400" height="1600"/>
  </clipPath>
</defs>
<path clip-path="url(#clip240)" d="M0 1600 L2400 1600 L2400 0 L0 0  Z" fill="#ffffff" fill-rule="evenodd" fill-opacity="1"/>
<defs>
  <clipPath id="clip241">
    <rect x="480" y="0" width="1681" height="1600"/>
  </clipPath>
</defs>
<path clip-path="url(#clip240)" d="M170.857 1486.45 L2352.76 1486.45 L2352.76 47.2441 L170.857 47.2441  Z" fill="#ffffff" fill-rule="evenodd" fill-opacity="1"/>
<defs>
  <clipPath id="clip242">
    <rect x="170" y="47" width="2183" height="1440"/>
  </clipPath>
</defs>
<polyline clip-path="url(#clip242)" style="stroke:#000000; stroke-linecap:round; stroke-linejoin:round; stroke-width:2; stroke-opacity:0.1; fill:none" points="231.41,1486.45 231.41,47.2441 "/>
<polyline clip-path="url(#clip242)" style="stroke:#000000; stroke-linecap:round; stroke-linejoin:round; stroke-width:2; stroke-opacity:0.1; fill:none" points="746.528,1486.45 746.528,47.2441 "/>
<polyline clip-path="url(#clip242)" style="stroke:#000000; stroke-linecap:round; stroke-linejoin:round; stroke-width:2; stroke-opacity:0.1; fill:none" points="1261.65,1486.45 1261.65,47.2441 "/>
<polyline clip-path="url(#clip242)" style="stroke:#000000; stroke-linecap:round; stroke-linejoin:round; stroke-width:2; stroke-opacity:0.1; fill:none" points="1776.77,1486.45 1776.77,47.2441 "/>
<polyline clip-path="url(#clip242)" style="stroke:#000000; stroke-linecap:round; stroke-linejoin:round; stroke-width:2; stroke-opacity:0.1; fill:none" points="2291.88,1486.45 2291.88,47.2441 "/>
<polyline clip-path="url(#clip242)" style="stroke:#000000; stroke-linecap:round; stroke-linejoin:round; stroke-width:2; stroke-opacity:0.1; fill:none" points="170.857,1438.51 2352.76,1438.51 "/>
<polyline clip-path="url(#clip242)" style="stroke:#000000; stroke-linecap:round; stroke-linejoin:round; stroke-width:2; stroke-opacity:0.1; fill:none" points="170.857,1168.41 2352.76,1168.41 "/>
<polyline clip-path="url(#clip242)" style="stroke:#000000; stroke-linecap:round; stroke-linejoin:round; stroke-width:2; stroke-opacity:0.1; fill:none" points="170.857,898.299 2352.76,898.299 "/>
<polyline clip-path="url(#clip242)" style="stroke:#000000; stroke-linecap:round; stroke-linejoin:round; stroke-width:2; stroke-opacity:0.1; fill:none" points="170.857,628.191 2352.76,628.191 "/>
<polyline clip-path="url(#clip242)" style="stroke:#000000; stroke-linecap:round; stroke-linejoin:round; stroke-width:2; stroke-opacity:0.1; fill:none" points="170.857,358.084 2352.76,358.084 "/>
<polyline clip-path="url(#clip242)" style="stroke:#000000; stroke-linecap:round; stroke-linejoin:round; stroke-width:2; stroke-opacity:0.1; fill:none" points="170.857,87.9763 2352.76,87.9763 "/>
<polyline clip-path="url(#clip240)" style="stroke:#000000; stroke-linecap:round; stroke-linejoin:round; stroke-width:4; stroke-opacity:1; fill:none" points="170.857,1486.45 2352.76,1486.45 "/>
<polyline clip-path="url(#clip240)" style="stroke:#000000; stroke-linecap:round; stroke-linejoin:round; stroke-width:4; stroke-opacity:1; fill:none" points="231.41,1486.45 231.41,1467.55 "/>
<polyline clip-path="url(#clip240)" style="stroke:#000000; stroke-linecap:round; stroke-linejoin:round; stroke-width:4; stroke-opacity:1; fill:none" points="746.528,1486.45 746.528,1467.55 "/>
<polyline clip-path="url(#clip240)" style="stroke:#000000; stroke-linecap:round; stroke-linejoin:round; stroke-width:4; stroke-opacity:1; fill:none" points="1261.65,1486.45 1261.65,1467.55 "/>
<polyline clip-path="url(#clip240)" style="stroke:#000000; stroke-linecap:round; stroke-linejoin:round; stroke-width:4; stroke-opacity:1; fill:none" points="1776.77,1486.45 1776.77,1467.55 "/>
<polyline clip-path="url(#clip240)" style="stroke:#000000; stroke-linecap:round; stroke-linejoin:round; stroke-width:4; stroke-opacity:1; fill:none" points="2291.88,1486.45 2291.88,1467.55 "/>
<path clip-path="url(#clip240)" d="M231.41 1517.37 Q227.798 1517.37 225.97 1520.93 Q224.164 1524.47 224.164 1531.6 Q224.164 1538.71 225.97 1542.27 Q227.798 1545.82 231.41 1545.82 Q235.044 1545.82 236.849 1542.27 Q238.678 1538.71 238.678 1531.6 Q238.678 1524.47 236.849 1520.93 Q235.044 1517.37 231.41 1517.37 M231.41 1513.66 Q237.22 1513.66 240.275 1518.27 Q243.354 1522.85 243.354 1531.6 Q243.354 1540.33 240.275 1544.94 Q237.22 1549.52 231.41 1549.52 Q225.599 1549.52 222.521 1544.94 Q219.465 1540.33 219.465 1531.6 Q219.465 1522.85 222.521 1518.27 Q225.599 1513.66 231.41 1513.66 Z" fill="#000000" fill-rule="nonzero" fill-opacity="1" /><path clip-path="url(#clip240)" d="M725.799 1544.91 L742.118 1544.91 L742.118 1548.85 L720.174 1548.85 L720.174 1544.91 Q722.836 1542.16 727.419 1537.53 Q732.026 1532.88 733.206 1531.53 Q735.452 1529.01 736.331 1527.27 Q737.234 1525.51 737.234 1523.82 Q737.234 1521.07 735.29 1519.33 Q733.368 1517.6 730.267 1517.6 Q728.068 1517.6 725.614 1518.36 Q723.183 1519.13 720.406 1520.68 L720.406 1515.95 Q723.23 1514.82 725.683 1514.24 Q728.137 1513.66 730.174 1513.66 Q735.544 1513.66 738.739 1516.35 Q741.933 1519.03 741.933 1523.52 Q741.933 1525.65 741.123 1527.57 Q740.336 1529.47 738.23 1532.07 Q737.651 1532.74 734.549 1535.95 Q731.447 1539.15 725.799 1544.91 Z" fill="#000000" fill-rule="nonzero" fill-opacity="1" /><path clip-path="url(#clip240)" d="M751.979 1514.29 L770.336 1514.29 L770.336 1518.22 L756.262 1518.22 L756.262 1526.7 Q757.28 1526.35 758.299 1526.19 Q759.317 1526 760.336 1526 Q766.123 1526 769.503 1529.17 Q772.882 1532.34 772.882 1537.76 Q772.882 1543.34 769.41 1546.44 Q765.938 1549.52 759.618 1549.52 Q757.442 1549.52 755.174 1549.15 Q752.929 1548.78 750.521 1548.04 L750.521 1543.34 Q752.604 1544.47 754.827 1545.03 Q757.049 1545.58 759.526 1545.58 Q763.53 1545.58 765.868 1543.48 Q768.206 1541.37 768.206 1537.76 Q768.206 1534.15 765.868 1532.04 Q763.53 1529.94 759.526 1529.94 Q757.651 1529.94 755.776 1530.35 Q753.924 1530.77 751.979 1531.65 L751.979 1514.29 Z" fill="#000000" fill-rule="nonzero" fill-opacity="1" /><path clip-path="url(#clip240)" d="M1236.35 1514.29 L1254.7 1514.29 L1254.7 1518.22 L1240.63 1518.22 L1240.63 1526.7 Q1241.65 1526.35 1242.67 1526.19 Q1243.68 1526 1244.7 1526 Q1250.49 1526 1253.87 1529.17 Q1257.25 1532.34 1257.25 1537.76 Q1257.25 1543.34 1253.78 1546.44 Q1250.3 1549.52 1243.98 1549.52 Q1241.81 1549.52 1239.54 1549.15 Q1237.29 1548.78 1234.89 1548.04 L1234.89 1543.34 Q1236.97 1544.47 1239.19 1545.03 Q1241.42 1545.58 1243.89 1545.58 Q1247.9 1545.58 1250.23 1543.48 Q1252.57 1541.37 1252.57 1537.76 Q1252.57 1534.15 1250.23 1532.04 Q1247.9 1529.94 1243.89 1529.94 Q1242.02 1529.94 1240.14 1530.35 Q1238.29 1530.77 1236.35 1531.65 L1236.35 1514.29 Z" fill="#000000" fill-rule="nonzero" fill-opacity="1" /><path clip-path="url(#clip240)" d="M1276.46 1517.37 Q1272.85 1517.37 1271.02 1520.93 Q1269.22 1524.47 1269.22 1531.6 Q1269.22 1538.71 1271.02 1542.27 Q1272.85 1545.82 1276.46 1545.82 Q1280.1 1545.82 1281.9 1542.27 Q1283.73 1538.71 1283.73 1531.6 Q1283.73 1524.47 1281.9 1520.93 Q1280.1 1517.37 1276.46 1517.37 M1276.46 1513.66 Q1282.27 1513.66 1285.33 1518.27 Q1288.41 1522.85 1288.41 1531.6 Q1288.41 1540.33 1285.33 1544.94 Q1282.27 1549.52 1276.46 1549.52 Q1270.65 1549.52 1267.57 1544.94 Q1264.52 1540.33 1264.52 1531.6 Q1264.52 1522.85 1267.57 1518.27 Q1270.65 1513.66 1276.46 1513.66 Z" fill="#000000" fill-rule="nonzero" fill-opacity="1" /><path clip-path="url(#clip240)" d="M1750.62 1514.29 L1772.84 1514.29 L1772.84 1516.28 L1760.3 1548.85 L1755.41 1548.85 L1767.22 1518.22 L1750.62 1518.22 L1750.62 1514.29 Z" fill="#000000" fill-rule="nonzero" fill-opacity="1" /><path clip-path="url(#clip240)" d="M1782.01 1514.29 L1800.36 1514.29 L1800.36 1518.22 L1786.29 1518.22 L1786.29 1526.7 Q1787.31 1526.35 1788.33 1526.19 Q1789.35 1526 1790.36 1526 Q1796.15 1526 1799.53 1529.17 Q1802.91 1532.34 1802.91 1537.76 Q1802.91 1543.34 1799.44 1546.44 Q1795.97 1549.52 1789.65 1549.52 Q1787.47 1549.52 1785.2 1549.15 Q1782.96 1548.78 1780.55 1548.04 L1780.55 1543.34 Q1782.63 1544.47 1784.86 1545.03 Q1787.08 1545.58 1789.55 1545.58 Q1793.56 1545.58 1795.9 1543.48 Q1798.24 1541.37 1798.24 1537.76 Q1798.24 1534.15 1795.9 1532.04 Q1793.56 1529.94 1789.55 1529.94 Q1787.68 1529.94 1785.8 1530.35 Q1783.95 1530.77 1782.01 1531.65 L1782.01 1514.29 Z" fill="#000000" fill-rule="nonzero" fill-opacity="1" /><path clip-path="url(#clip240)" d="M2251.49 1544.91 L2259.13 1544.91 L2259.13 1518.55 L2250.82 1520.21 L2250.82 1515.95 L2259.08 1514.29 L2263.76 1514.29 L2263.76 1544.91 L2271.4 1544.91 L2271.4 1548.85 L2251.49 1548.85 L2251.49 1544.91 Z" fill="#000000" fill-rule="nonzero" fill-opacity="1" /><path clip-path="url(#clip240)" d="M2290.84 1517.37 Q2287.23 1517.37 2285.4 1520.93 Q2283.6 1524.47 2283.6 1531.6 Q2283.6 1538.71 2285.4 1542.27 Q2287.23 1545.82 2290.84 1545.82 Q2294.48 1545.82 2296.28 1542.27 Q2298.11 1538.71 2298.11 1531.6 Q2298.11 1524.47 2296.28 1520.93 Q2294.48 1517.37 2290.84 1517.37 M2290.84 1513.66 Q2296.65 1513.66 2299.71 1518.27 Q2302.79 1522.85 2302.79 1531.6 Q2302.79 1540.33 2299.71 1544.94 Q2296.65 1549.52 2290.84 1549.52 Q2285.03 1549.52 2281.95 1544.94 Q2278.9 1540.33 2278.9 1531.6 Q2278.9 1522.85 2281.95 1518.27 Q2285.03 1513.66 2290.84 1513.66 Z" fill="#000000" fill-rule="nonzero" fill-opacity="1" /><path clip-path="url(#clip240)" d="M2321 1517.37 Q2317.39 1517.37 2315.56 1520.93 Q2313.76 1524.47 2313.76 1531.6 Q2313.76 1538.71 2315.56 1542.27 Q2317.39 1545.82 2321 1545.82 Q2324.64 1545.82 2326.44 1542.27 Q2328.27 1538.71 2328.27 1531.6 Q2328.27 1524.47 2326.44 1520.93 Q2324.64 1517.37 2321 1517.37 M2321 1513.66 Q2326.81 1513.66 2329.87 1518.27 Q2332.95 1522.85 2332.95 1531.6 Q2332.95 1540.33 2329.87 1544.94 Q2326.81 1549.52 2321 1549.52 Q2315.19 1549.52 2312.12 1544.94 Q2309.06 1540.33 2309.06 1531.6 Q2309.06 1522.85 2312.12 1518.27 Q2315.19 1513.66 2321 1513.66 Z" fill="#000000" fill-rule="nonzero" fill-opacity="1" /><polyline clip-path="url(#clip240)" style="stroke:#000000; stroke-linecap:round; stroke-linejoin:round; stroke-width:4; stroke-opacity:1; fill:none" points="170.857,1486.45 170.857,47.2441 "/>
<polyline clip-path="url(#clip240)" style="stroke:#000000; stroke-linecap:round; stroke-linejoin:round; stroke-width:4; stroke-opacity:1; fill:none" points="170.857,1438.51 189.755,1438.51 "/>
<polyline clip-path="url(#clip240)" style="stroke:#000000; stroke-linecap:round; stroke-linejoin:round; stroke-width:4; stroke-opacity:1; fill:none" points="170.857,1168.41 189.755,1168.41 "/>
<polyline clip-path="url(#clip240)" style="stroke:#000000; stroke-linecap:round; stroke-linejoin:round; stroke-width:4; stroke-opacity:1; fill:none" points="170.857,898.299 189.755,898.299 "/>
<polyline clip-path="url(#clip240)" style="stroke:#000000; stroke-linecap:round; stroke-linejoin:round; stroke-width:4; stroke-opacity:1; fill:none" points="170.857,628.191 189.755,628.191 "/>
<polyline clip-path="url(#clip240)" style="stroke:#000000; stroke-linecap:round; stroke-linejoin:round; stroke-width:4; stroke-opacity:1; fill:none" points="170.857,358.084 189.755,358.084 "/>
<polyline clip-path="url(#clip240)" style="stroke:#000000; stroke-linecap:round; stroke-linejoin:round; stroke-width:4; stroke-opacity:1; fill:none" points="170.857,87.9763 189.755,87.9763 "/>
<path clip-path="url(#clip240)" d="M122.913 1424.31 Q119.302 1424.31 117.473 1427.88 Q115.668 1431.42 115.668 1438.55 Q115.668 1445.66 117.473 1449.22 Q119.302 1452.76 122.913 1452.76 Q126.547 1452.76 128.353 1449.22 Q130.182 1445.66 130.182 1438.55 Q130.182 1431.42 128.353 1427.88 Q126.547 1424.31 122.913 1424.31 M122.913 1420.61 Q128.723 1420.61 131.779 1425.22 Q134.857 1429.8 134.857 1438.55 Q134.857 1447.28 131.779 1451.88 Q128.723 1456.47 122.913 1456.47 Q117.103 1456.47 114.024 1451.88 Q110.969 1447.28 110.969 1438.55 Q110.969 1429.8 114.024 1425.22 Q117.103 1420.61 122.913 1420.61 Z" fill="#000000" fill-rule="nonzero" fill-opacity="1" /><path clip-path="url(#clip240)" d="M82.7975 1151.13 L101.154 1151.13 L101.154 1155.06 L87.0799 1155.06 L87.0799 1163.53 Q88.0984 1163.19 89.1169 1163.02 Q90.1354 1162.84 91.1539 1162.84 Q96.941 1162.84 100.321 1166.01 Q103.7 1169.18 103.7 1174.6 Q103.7 1180.18 100.228 1183.28 Q96.7558 1186.36 90.4364 1186.36 Q88.2604 1186.36 85.9919 1185.99 Q83.7466 1185.62 81.3392 1184.88 L81.3392 1180.18 Q83.4225 1181.31 85.6447 1181.87 Q87.8669 1182.42 90.3438 1182.42 Q94.3484 1182.42 96.6863 1180.32 Q99.0243 1178.21 99.0243 1174.6 Q99.0243 1170.99 96.6863 1168.88 Q94.3484 1166.77 90.3438 1166.77 Q88.4688 1166.77 86.5938 1167.19 Q84.7419 1167.61 82.7975 1168.49 L82.7975 1151.13 Z" fill="#000000" fill-rule="nonzero" fill-opacity="1" /><path clip-path="url(#clip240)" d="M122.913 1154.21 Q119.302 1154.21 117.473 1157.77 Q115.668 1161.31 115.668 1168.44 Q115.668 1175.55 117.473 1179.11 Q119.302 1182.65 122.913 1182.65 Q126.547 1182.65 128.353 1179.11 Q130.182 1175.55 130.182 1168.44 Q130.182 1161.31 128.353 1157.77 Q126.547 1154.21 122.913 1154.21 M122.913 1150.5 Q128.723 1150.5 131.779 1155.11 Q134.857 1159.69 134.857 1168.44 Q134.857 1177.17 131.779 1181.77 Q128.723 1186.36 122.913 1186.36 Q117.103 1186.36 114.024 1181.77 Q110.969 1177.17 110.969 1168.44 Q110.969 1159.69 114.024 1155.11 Q117.103 1150.5 122.913 1150.5 Z" fill="#000000" fill-rule="nonzero" fill-opacity="1" /><path clip-path="url(#clip240)" d="M53.3995 911.644 L61.0384 911.644 L61.0384 885.278 L52.7282 886.945 L52.7282 882.686 L60.9921 881.019 L65.668 881.019 L65.668 911.644 L73.3068 911.644 L73.3068 915.579 L53.3995 915.579 L53.3995 911.644 Z" fill="#000000" fill-rule="nonzero" fill-opacity="1" /><path clip-path="url(#clip240)" d="M92.7512 884.098 Q89.1401 884.098 87.3114 887.662 Q85.5058 891.204 85.5058 898.334 Q85.5058 905.44 87.3114 909.005 Q89.1401 912.547 92.7512 912.547 Q96.3854 912.547 98.1909 909.005 Q100.02 905.44 100.02 898.334 Q100.02 891.204 98.1909 887.662 Q96.3854 884.098 92.7512 884.098 M92.7512 880.394 Q98.5613 880.394 101.617 885 Q104.696 889.584 104.696 898.334 Q104.696 907.06 101.617 911.667 Q98.5613 916.25 92.7512 916.25 Q86.941 916.25 83.8623 911.667 Q80.8068 907.06 80.8068 898.334 Q80.8068 889.584 83.8623 885 Q86.941 880.394 92.7512 880.394 Z" fill="#000000" fill-rule="nonzero" fill-opacity="1" /><path clip-path="url(#clip240)" d="M122.913 884.098 Q119.302 884.098 117.473 887.662 Q115.668 891.204 115.668 898.334 Q115.668 905.44 117.473 909.005 Q119.302 912.547 122.913 912.547 Q126.547 912.547 128.353 909.005 Q130.182 905.44 130.182 898.334 Q130.182 891.204 128.353 887.662 Q126.547 884.098 122.913 884.098 M122.913 880.394 Q128.723 880.394 131.779 885 Q134.857 889.584 134.857 898.334 Q134.857 907.06 131.779 911.667 Q128.723 916.25 122.913 916.25 Q117.103 916.25 114.024 911.667 Q110.969 907.06 110.969 898.334 Q110.969 889.584 114.024 885 Q117.103 880.394 122.913 880.394 Z" fill="#000000" fill-rule="nonzero" fill-opacity="1" /><path clip-path="url(#clip240)" d="M53.3995 641.536 L61.0384 641.536 L61.0384 615.171 L52.7282 616.837 L52.7282 612.578 L60.9921 610.911 L65.668 610.911 L65.668 641.536 L73.3068 641.536 L73.3068 645.471 L53.3995 645.471 L53.3995 641.536 Z" fill="#000000" fill-rule="nonzero" fill-opacity="1" /><path clip-path="url(#clip240)" d="M82.7975 610.911 L101.154 610.911 L101.154 614.847 L87.0799 614.847 L87.0799 623.319 Q88.0984 622.972 89.1169 622.809 Q90.1354 622.624 91.1539 622.624 Q96.941 622.624 100.321 625.796 Q103.7 628.967 103.7 634.383 Q103.7 639.962 100.228 643.064 Q96.7558 646.143 90.4364 646.143 Q88.2604 646.143 85.9919 645.772 Q83.7466 645.402 81.3392 644.661 L81.3392 639.962 Q83.4225 641.096 85.6447 641.652 Q87.8669 642.208 90.3438 642.208 Q94.3484 642.208 96.6863 640.101 Q99.0243 637.995 99.0243 634.383 Q99.0243 630.772 96.6863 628.666 Q94.3484 626.559 90.3438 626.559 Q88.4688 626.559 86.5938 626.976 Q84.7419 627.393 82.7975 628.272 L82.7975 610.911 Z" fill="#000000" fill-rule="nonzero" fill-opacity="1" /><path clip-path="url(#clip240)" d="M122.913 613.99 Q119.302 613.99 117.473 617.555 Q115.668 621.097 115.668 628.226 Q115.668 635.333 117.473 638.897 Q119.302 642.439 122.913 642.439 Q126.547 642.439 128.353 638.897 Q130.182 635.333 130.182 628.226 Q130.182 621.097 128.353 617.555 Q126.547 613.99 122.913 613.99 M122.913 610.286 Q128.723 610.286 131.779 614.893 Q134.857 619.476 134.857 628.226 Q134.857 636.953 131.779 641.559 Q128.723 646.143 122.913 646.143 Q117.103 646.143 114.024 641.559 Q110.969 636.953 110.969 628.226 Q110.969 619.476 114.024 614.893 Q117.103 610.286 122.913 610.286 Z" fill="#000000" fill-rule="nonzero" fill-opacity="1" /><path clip-path="url(#clip240)" d="M56.6171 371.429 L72.9365 371.429 L72.9365 375.364 L50.9921 375.364 L50.9921 371.429 Q53.6541 368.674 58.2375 364.044 Q62.8439 359.392 64.0245 358.049 Q66.2698 355.526 67.1494 353.79 Q68.0522 352.031 68.0522 350.341 Q68.0522 347.586 66.1078 345.85 Q64.1865 344.114 61.0847 344.114 Q58.8856 344.114 56.4319 344.878 Q54.0014 345.642 51.2236 347.193 L51.2236 342.47 Q54.0477 341.336 56.5014 340.758 Q58.955 340.179 60.9921 340.179 Q66.3624 340.179 69.5568 342.864 Q72.7513 345.549 72.7513 350.04 Q72.7513 352.17 71.9411 354.091 Q71.1541 355.989 69.0476 358.582 Q68.4689 359.253 65.367 362.47 Q62.2652 365.665 56.6171 371.429 Z" fill="#000000" fill-rule="nonzero" fill-opacity="1" /><path clip-path="url(#clip240)" d="M92.7512 343.883 Q89.1401 343.883 87.3114 347.447 Q85.5058 350.989 85.5058 358.119 Q85.5058 365.225 87.3114 368.79 Q89.1401 372.331 92.7512 372.331 Q96.3854 372.331 98.1909 368.79 Q100.02 365.225 100.02 358.119 Q100.02 350.989 98.1909 347.447 Q96.3854 343.883 92.7512 343.883 M92.7512 340.179 Q98.5613 340.179 101.617 344.785 Q104.696 349.369 104.696 358.119 Q104.696 366.845 101.617 371.452 Q98.5613 376.035 92.7512 376.035 Q86.941 376.035 83.8623 371.452 Q80.8068 366.845 80.8068 358.119 Q80.8068 349.369 83.8623 344.785 Q86.941 340.179 92.7512 340.179 Z" fill="#000000" fill-rule="nonzero" fill-opacity="1" /><path clip-path="url(#clip240)" d="M122.913 343.883 Q119.302 343.883 117.473 347.447 Q115.668 350.989 115.668 358.119 Q115.668 365.225 117.473 368.79 Q119.302 372.331 122.913 372.331 Q126.547 372.331 128.353 368.79 Q130.182 365.225 130.182 358.119 Q130.182 350.989 128.353 347.447 Q126.547 343.883 122.913 343.883 M122.913 340.179 Q128.723 340.179 131.779 344.785 Q134.857 349.369 134.857 358.119 Q134.857 366.845 131.779 371.452 Q128.723 376.035 122.913 376.035 Q117.103 376.035 114.024 371.452 Q110.969 366.845 110.969 358.119 Q110.969 349.369 114.024 344.785 Q117.103 340.179 122.913 340.179 Z" fill="#000000" fill-rule="nonzero" fill-opacity="1" /><path clip-path="url(#clip240)" d="M56.6171 101.321 L72.9365 101.321 L72.9365 105.256 L50.9921 105.256 L50.9921 101.321 Q53.6541 98.5665 58.2375 93.9369 Q62.8439 89.2841 64.0245 87.9416 Q66.2698 85.4184 67.1494 83.6823 Q68.0522 81.9231 68.0522 80.2333 Q68.0522 77.4786 66.1078 75.7425 Q64.1865 74.0064 61.0847 74.0064 Q58.8856 74.0064 56.4319 74.7703 Q54.0014 75.5342 51.2236 77.0851 L51.2236 72.3629 Q54.0477 71.2287 56.5014 70.65 Q58.955 70.0713 60.9921 70.0713 Q66.3624 70.0713 69.5568 72.7565 Q72.7513 75.4416 72.7513 79.9323 Q72.7513 82.062 71.9411 83.9832 Q71.1541 85.8814 69.0476 88.474 Q68.4689 89.1453 65.367 92.3628 Q62.2652 95.5573 56.6171 101.321 Z" fill="#000000" fill-rule="nonzero" fill-opacity="1" /><path clip-path="url(#clip240)" d="M82.7975 70.6963 L101.154 70.6963 L101.154 74.6314 L87.0799 74.6314 L87.0799 83.1036 Q88.0984 82.7564 89.1169 82.5944 Q90.1354 82.4092 91.1539 82.4092 Q96.941 82.4092 100.321 85.5805 Q103.7 88.7517 103.7 94.1684 Q103.7 99.747 100.228 102.849 Q96.7558 105.928 90.4364 105.928 Q88.2604 105.928 85.9919 105.557 Q83.7466 105.187 81.3392 104.446 L81.3392 99.747 Q83.4225 100.881 85.6447 101.437 Q87.8669 101.992 90.3438 101.992 Q94.3484 101.992 96.6863 99.8859 Q99.0243 97.7795 99.0243 94.1684 Q99.0243 90.5573 96.6863 88.4508 Q94.3484 86.3443 90.3438 86.3443 Q88.4688 86.3443 86.5938 86.761 Q84.7419 87.1777 82.7975 88.0573 L82.7975 70.6963 Z" fill="#000000" fill-rule="nonzero" fill-opacity="1" /><path clip-path="url(#clip240)" d="M122.913 73.775 Q119.302 73.775 117.473 77.3398 Q115.668 80.8814 115.668 88.011 Q115.668 95.1174 117.473 98.6822 Q119.302 102.224 122.913 102.224 Q126.547 102.224 128.353 98.6822 Q130.182 95.1174 130.182 88.011 Q130.182 80.8814 128.353 77.3398 Q126.547 73.775 122.913 73.775 M122.913 70.0713 Q128.723 70.0713 131.779 74.6777 Q134.857 79.261 134.857 88.011 Q134.857 96.7378 131.779 101.344 Q128.723 105.928 122.913 105.928 Q117.103 105.928 114.024 101.344 Q110.969 96.7378 110.969 88.011 Q110.969 79.261 114.024 74.6777 Q117.103 70.0713 122.913 70.0713 Z" fill="#000000" fill-rule="nonzero" fill-opacity="1" /><polyline clip-path="url(#clip242)" style="stroke:#009af9; stroke-linecap:round; stroke-linejoin:round; stroke-width:4; stroke-opacity:1; fill:none" points="232.609,1435 235.244,1440.01 239.579,1439.31 239.721,1439.33 246.148,1439.43 247.844,1436.02 252.764,1439.97 254.445,1432.1 258.675,1438.63 258.846,1439.97 261.061,1438.44 263.548,1437.38 263.905,1441.21 265.908,1436.37 268.892,1437.3 269.108,1437.19 269.573,1439.53 270.634,1440.61 270.907,1438.44 271.81,1440.8 273.694,87.9763 276.815,1438.25 277.209,1437.46 279.045,1434.59 282.676,1445.72 289.833,1436.65 290.022,1435.09 293.63,1438.54 294.232,1436.96 302.627,1441.8 303.585,1441.52 305.319,1437.84 307.235,1438.74 313.717,1434.17 316.556,1436.65 318.136,1434.58 318.188,1437.87 320.794,1436.31 328.551,1436.75 333.14,1437.56 333.16,1434.47 333.237,1439.99 334.86,1437.3 337.613,1439.08 340.677,1438.99 340.817,1436.62 341.983,1439.53 346.031,1435.69 347.359,1438.57 347.739,1438.42 350.222,1436.95 351.007,1435.86 357.211,1436.23 358.328,1437.92 364.27,1435.38 365.352,1442.49 368.191,1436.82 368.985,1435.05 369.764,1432.43 369.885,1435.72 371.694,1438.44 373.983,1435.08 377.913,1432.35 378.014,1434.23 382.864,1439.45 383.799,1439.86 386.848,1428.97 389.792,1435.12 394.284,1433.14 394.354,1440.59 394.559,1437.86 395.511,1433.59 396.832,1435.39 399.803,1431.7 404.202,1440.23 404.307,1439.28 406.22,1433.79 408.609,1438.54 410.321,1434.25 411.061,1435.3 414.072,1438.8 415.609,1434.93 418.935,1432.67 421.939,1437.18 423.495,1435.34 424.063,1430.66 426.859,1436.15 428.67,1433.23 432.001,1432.69 433.416,1433.11 435.071,1434.57 439.889,1437.98 441.095,1432.27 441.195,1435.63 441.384,1430 443.29,1430.86 448.635,1431.73 449.734,1434.47 451.129,1435.79 454.874,1432.93 458.138,1435.63 458.405,1436.23 458.656,1430.97 461.937,1432.74 462.574,1429.81 462.76,1435.21 463.311,1434.47 463.555,1438.47 465.174,1431.04 465.932,1433.5 471.439,1429.76 471.815,1430.69 471.951,1436.38 472.02,1429.34 473.373,1436.39 476.351,1434.81 480.487,1437.47 481.123,1431.54 483.504,1434.04 485.23,1431.03 487.922,1432.66 488.243,1433.24 490.061,1427.73 492.226,1432.07 493.473,1433.67 495.936,1432.74 499.585,1436.54 501.823,1432.42 502.139,1431.43 503.245,1429.46 515.124,1434.16 515.137,1432.19 517.284,1434.17 519.711,1433.6 526.184,1431.38 532.586,1433.41 532.847,1432.9 534.474,1432.74 535.83,1435.01 537.25,1432.05 540.696,1425.42 542.149,1429.57 542.772,1429.47 543.816,1429.17 544.765,1432.62 546.232,1435.09 552.24,1435.27 553.99,1437.97 558.565,1432.55 558.787,1430.16 570.047,1424.99 571.384,1433.31 571.487,1429.93 571.933,1427.49 575.972,1430.5 576.02,1434.78 582.438,1427.95 587.987,1431.05 590.165,1431.88 592.595,1428.55 593.626,1429.75 595.097,1432.63 596.511,1430.14 596.843,1427.61 597.175,1435.93 600.581,1433.29 601.232,1432.38 604.552,1434.14 607.302,1428.55 608.409,1430.37 608.485,1433.92 610.159,1426.18 610.939,1434.36 611.888,1428.75 614.768,1431.72 616.604,1431.23 616.627,1431.77 617.042,1429.81 617.713,1425.53 618.31,1428.48 618.618,1429.21 619.606,1428.97 619.816,1430.07 620.325,1434.29 620.698,1428.73 624.267,1429.53 624.368,1432.18 628.59,1427.36 629.417,1429.54 633.241,1426.94 634.68,1431.9 635.596,1429.7 637.167,1422.73 637.607,1431.31 641.562,1427.43 643.324,1432.37 646.772,1430.89 650.58,1429.8 653.081,1432.12 653.354,1427.91 654.48,1424.4 659.142,1426.45 664.438,1428.31 671.846,1431.66 672.231,1424.19 675.59,1429.79 677.787,1434.48 681.238,1430.48 682.908,1428.54 683.303,1430.28 684.074,1429.96 685.548,1428.51 689.599,1433.12 690.163,1428.63 693.581,1432.14 696.794,1425.61 703.573,1427.93 704.849,1432.05 707.673,1430.05 711.148,1432.74 711.909,1427.26 712.546,1428.9 719.536,1427.07 729.234,1427.16 732.183,1423.4 734.673,1430.76 734.977,1420.5 736.032,1421.5 741.493,1429.31 742.908,1428.15 746.385,1428.11 748.814,1428.16 751.157,1427.64 753.042,1428.46 755.019,1427.64 759.821,1430.5 760.668,1422.7 761.008,1429.39 762.41,1423.19 763.169,1425.89 766.595,1430.9 766.89,1427.28 768.261,1428.11 769.907,1425.2 772.224,1424.71 779.966,1421.74 785.548,1426.31 785.563,1421.99 788.309,1423.8 791.52,1427.57 794.986,1429.28 796.999,1426.21 799.009,1424.88 800.682,1432.61 801.182,1425.28 801.537,1426.46 805.684,1425.65 807.29,1425.69 809.052,1426.53 809.461,1425.74 810.12,1422.88 810.883,1424.99 812.64,1423.57 815.276,1428.64 815.538,1422.6 819.793,1427.68 820.425,1430.53 820.873,1424.83 821.063,1425.85 821.16,1422.73 823.49,1426.86 823.852,1423.91 825.365,1424.63 825.586,1424.29 826.779,1423.98 833.986,1424.28 843.497,1425.87 847.536,1422.11 847.602,1428.43 847.635,1424.49 853.921,1421.63 854.261,1420.75 855.394,1419.54 860.873,1423.68 862.461,1419.53 864.415,1421.04 867.135,1416.33 874.527,1419.28 877.302,1417.45 878.296,1422.32 880.24,1414.94 881.526,1414.17 888.834,1416.07 891.514,1417.58 891.978,1414.56 892.438,1412.39 895.806,1416.07 897.658,1414.24 901.483,1416.44 901.923,1411.26 905.056,1413.96 905.545,1414.58 907.079,1407.05 909.188,1410.46 909.289,1409.18 910.24,1409.65 912.267,1413.05 913.242,1413.31 914.457,1407.98 915.019,1409.9 915.699,1409.45 916.029,1410.76 917.717,1409.13 920.95,1404.06 921.716,1408.48 921.914,1413.14 928.157,1405.42 931.347,1401.24 933.161,1402.77 940.936,1403.62 945.891,1397.85 945.963,1401.42 946.718,1394.72 947.628,1396.61 950.744,1397.37 954.651,1393.55 955.506,1398.4 955.961,1398.55 958.899,1394.19 959.716,1390.67 962.951,1392.48 964.316,1393.6 965.574,1389.22 970.931,1387.4 971.622,1385.11 971.82,1386.71 972.048,1389.85 972.428,1390.05 979.034,1384.27 979.389,1386.28 982.612,1382.94 985.096,1380.97 991.832,1386.21 992.273,1383.78 995.308,1377.77 995.9,1376.86 997.61,1374.95 1001.86,1378.29 1002.27,1377.9 1003.57,1376.65 1003.77,1373.55 1004.62,1375.54 1008.93,1370.18 1009.88,1374.11 1011.37,1372.27 1011.69,1371.18 1013.06,1373.34 1013.1,1378.28 1014.81,1375.78 1014.96,1373.66 1015.34,1371.48 1015.56,1372.7 1018,1368.44 1018.62,1375.36 1026.55,1370.28 1026.86,1373.38 1027.14,1371.95 1028.29,1373.88 1030.22,1369.73 1030.44,1375.77 1036.09,1375.28 1036.99,1369.57 1041.7,1367.87 1042.39,1371.24 1044.56,1365.72 1049.21,1366.9 1049.23,1361.82 1049.85,1369.43 1050.42,1369.91 1055.1,1365.59 1055.2,1366.22 1056.35,1368.1 1056.4,1367.85 1057.45,1370.66 1058.76,1372.59 1059.41,1365.36 1061.35,1366.34 1063,1369.74 1063.97,1368.57 1065.33,1369.7 1068.64,1365.91 1068.71,1367.56 1069.5,1364.74 1071.25,1364.2 1076.06,1368.18 1078.02,1368.21 1079.91,1365.17 1081.2,1366.53 1083.07,1367.81 1086.21,1369.29 1087.03,1371.34 1087.34,1365.47 1088.82,1369.64 1089.05,1376.19 1092.5,1373.45 1093.22,1375.76 1094.9,1372.76 1095.29,1370.09 1096.29,1365.02 1097.53,1369.53 1097.77,1375.93 1102.39,1374.43 1103.34,1373.37 1103.53,1371.36 1106.39,1376.52 1109.3,1379.01 1112.45,1380.94 1112.76,1375.85 1118.04,1379.78 1120.31,1386.29 1121.3,1381.39 1130.01,1382.12 1130.42,1379.78 1130.85,1391.16 1131.6,1381.76 1133.43,1381.82 1135.26,1385.23 1135.8,1382.06 1136.86,1387.4 1137.67,1386.1 1138.8,1388.75 1140.41,1385.05 1141.9,1386.76 1146.09,1382.82 1147.56,1392.05 1149.42,1388.32 1150.28,1380.69 1151.05,1387.14 1152.77,1391.98 1159.82,1393.91 1167.25,1393.6 1167.29,1393.82 1170.25,1392.23 1170.76,1391.14 1173.68,1398.96 1173.92,1398.04 1180.8,1403.94 1181.4,1402.3 1181.83,1397.58 1182.61,1398.32 1185.83,1402.09 1189.23,1403.65 1189.68,1400.68 1192.87,1405.88 1193.84,1405.33 1196.01,1406.37 1196.82,1408.08 1200.65,1395.95 1202.68,1405.18 1202.92,1400.98 1207.49,1401.71 1209.81,1403.84 1214.25,1408.27 1215.35,1406.3 1220.14,1409.72 1220.81,1407.29 1221.45,1410.26 1229.63,1406.46 1231.36,1409.75 1232.16,1404.37 1232.66,1406.71 1232.86,1407.56 1234.67,1409.83 1236.16,1408.28 1240.19,1408.43 1241.89,1408.79 1243.28,1416.42 1247.06,1414.75 1251.25,1413.73 1262.93,1411.79 1266.36,1415.06 1271.96,1412.9 1272.07,1413.9 1274.13,1414.72 1274.15,1420.68 1274.41,1411.81 1275.17,1410.19 1276.89,1417.01 1282.22,1411.85 1283.35,1416.2 1284.1,1415.84 1285.02,1413.27 1285.1,1411.73 1285.77,1415.86 1285.95,1412.57 1287.1,1415.53 1288.48,1415.15 1288.57,1412.89 1289.09,1414.41 1289.72,1418.38 1292.42,1422.05 1292.59,1416 1292.7,1417.58 1297.96,1418.17 1301.41,1416.43 1302.78,1416.56 1305.98,1416.62 1308.91,1409.31 1312.76,1416.45 1315.01,1416.71 1315.5,1410.22 1317.68,1414.26 1319.11,1417.63 1329.7,1413.95 1329.85,1414.58 1332.17,1414.79 1335.89,1414.8 1336.25,1414.13 1336.26,1414.45 1337.71,1415.63 1338.25,1416.73 1340.39,1417.96 1343.64,1419.37 1350.32,1420.67 1351.66,1417.01 1351.77,1407.42 1352.9,1413.98 1353.12,1418.08 1356.72,1415.16 1357.48,1411.13 1361.37,1409.94 1365.06,1408.19 1365.37,1412.92 1369.08,1416.25 1373.93,1412.18 1375.05,1411.03 1375.49,1415.22 1379.21,1415.05 1380.93,1416.17 1381.36,1415.26 1383.74,1418.42 1385.57,1415.1 1386.44,1414.71 1391.21,1417.19 1392.4,1414.47 1396.95,1411.16 1399.23,1413.79 1400.06,1415.7 1400.52,1412.79 1402.23,1413.62 1403.38,1412.12 1403.56,1409.7 1405.86,1411.82 1405.99,1417.2 1406.3,1412.74 1406.89,1417.62 1409.79,1414.22 1409.98,1413.2 1410.42,1414.34 1411.75,1413.03 1415.97,1417.9 1417.05,1415.19 1420.11,1414.44 1421.96,1404.1 1424.17,1411.72 1425.03,1413.1 1427.08,1417.9 1428.94,1414.48 1432.36,1416.19 1433.46,1418.69 1434.78,1410.91 1435.85,1412.47 1441.06,1405.79 1446.17,1418.79 1446.6,1410.15 1446.77,1411.62 1448.05,1413.06 1448.44,1414 1448.81,1409.55 1448.89,1410.82 1450.01,1413.15 1451.85,1412.07 1452.32,1408.42 1453.51,1411.49 1453.9,1410.1 1454.01,1407.16 1454.73,1412.35 1455,1408.94 1458.63,1413.01 1461.85,1414.81 1462.25,1415.07 1464.17,1413.2 1464.65,1412.1 1471.16,1415 1474.25,1411.6 1475.6,1416.93 1479,1412.16 1480.07,1413.78 1482.48,1417.33 1483.21,1412.54 1483.95,1413.13 1485.95,1415.34 1486.1,1410.14 1490.33,1410.59 1492.67,1411.01 1496.66,1410.28 1497.1,1412.37 1499.17,1409.48 1499.59,1412.67 1501.22,1408.32 1501.62,1411.45 1502.86,1411.69 1507.53,1411.25 1510.03,1408.94 1510.6,1410.93 1510.88,1406.75 1513.23,1412.87 1515.55,1404.2 1518.59,1411.62 1520.85,1410.79 1521.42,1410.37 1530.35,1412.14 1532.01,1408.77 1532.22,1412.43 1532.25,1412.99 1535,1410.66 1536.02,1413.43 1536.72,1406.96 1543.39,1408.36 1547.57,1410.93 1547.72,1410.36 1548.66,1413.45 1548.81,1407.37 1549.02,1408.46 1552.91,1407.07 1553.66,1407.81 1554.95,1401.85 1556.85,1414.66 1557.09,1411.7 1557.51,1414.46 1558.34,1409.25 1558.34,1415.66 1559.31,1410.41 1561.16,1413 1562.26,1409.52 1568.33,1410.51 1570.86,1408.93 1570.98,1407.89 1572.7,1410.83 1577.36,1412.2 1578.51,1413.63 1581.87,1406.85 1584.36,1406.36 1587.91,1409.19 1590.83,1411.08 1591.42,1410.17 1594.62,1410.56 1596.28,1408.81 1596.41,1413.06 1598.4,1409.56 1598.43,1411.73 1598.67,1409.15 1602.14,1410.14 1603.5,1405.51 1607.8,1410.3 1608.1,1412.6 1609.65,1407.66 1612.08,1407.14 1614.26,1407.94 1616.12,1408.96 1616.66,1412.08 1616.77,1409.01 1621.51,1410.84 1622.52,1405.83 1624.68,1405.22 1626.91,1409.56 1630.88,1409.42 1633.89,1408.74 1637.08,1410.68 1638.15,1408.21 1640.4,1408.83 1643.24,1406.24 1644.04,1409.31 1644.24,1409.72 1646.6,1414.09 1650.4,1406.83 1650.43,1406.84 1650.71,1408.68 1650.81,1406.51 1651.4,1404.88 1653.46,1403.01 1655.82,1407.35 1658.74,1411.93 1659.6,1407.07 1659.89,1408.84 1661.62,1405.88 1669.73,1407.48 1671.67,1406.14 1672.1,1406.64 1673.87,1408.11 1682.95,1413.5 1683.97,1410.15 1684.29,1406.28 1686.09,1406.55 1686.41,1408.87 1686.56,1407.69 1687.3,1405 1688.85,1407.22 1689.61,1413.78 1692.19,1415.91 1695.71,1414.05 1698.4,1409.97 1700.17,1405.68 1707.92,1411.06 1709.45,1406.22 1711.38,1406.31 1713.77,1411.4 1714.09,1405.56 1714.32,1406.97 1715.35,1407 1715.54,1412.38 1716.29,1404.06 1720.34,1406.78 1721.66,1406.86 1727.41,1404.35 1729.99,1403.18 1731.52,1405.13 1732.5,1407.07 1733.08,1404.91 1733.94,1408.26 1736.22,1410.6 1736.91,1410.65 1737.76,1410.88 1737.83,1410.14 1737.99,1408.71 1738.02,1409.47 1738.22,1410.85 1738.39,1409.28 1738.96,1402.74 1741.49,1403.43 1743.4,1407.72 1744.34,1405.06 1747.22,1402.26 1747.89,1404.54 1750.99,1405.64 1751.87,1407.5 1756.61,1402.2 1756.67,1406.36 1759.18,1403.92 1760.18,1406.24 1760.5,1405.54 1761.04,1407.66 1762.87,1406.26 1763.23,1409.41 1763.23,1407.75 1768.2,1408.73 1768.36,1408.64 1770.96,1407.14 1778.9,1405.1 1780.33,1407.99 1783.01,1406.49 1795.31,1406.89 1797.53,1405.94 1797.73,1403.95 1798.72,1405.68 1799.05,1404.31 1800.75,1405.53 1810.18,1402.68 1810.44,1403.96 1811.21,1407.8 1811.35,1402.61 1813.05,1404.74 1814.32,1407.3 1818.23,1406.3 1818.81,1404.34 1819.35,1406.97 1820.19,1406.02 1820.51,1401.36 1821.86,1403.14 1822.24,1405.85 1823.19,1406.8 1824.13,1401.3 1826.62,1403.82 1827.03,1402.59 1827.04,1407.82 1829.2,1401.2 1832.36,1404.68 1837.16,1405.8 1845.86,1401.8 1847.77,1407.99 1848.53,1404.87 1851.12,1405.64 1851.81,1406.13 1853.16,1405.17 1857.25,1405.81 1858.27,1403.66 1858.98,1404.63 1860.02,1408.43 1863.54,1403.13 1865.03,1405.82 1865.36,1403.49 1867.65,1403.52 1871.34,1401.56 1875.96,1404.74 1880.64,1402.1 1881.81,1409.07 1882.93,1402.35 1890.39,1403.88 1891.64,1406.48 1892.82,1404.27 1893.86,1404.72 1894.41,1403.17 1897.49,1404.55 1899.58,1405.53 1901.58,1407.67 1907.89,1403.43 1908.9,1402.63 1911.34,1401.79 1914.51,1405.84 1914.89,1404.28 1919.12,1402.97 1919.41,1403.48 1922.91,1402.77 1924.37,1404.2 1926.58,1405.19 1929.55,1398.26 1938.83,1403.5 1943.5,1406.24 1947.49,1404.16 1952.08,1405.29 1952.25,1402.45 1952.38,1401.5 1962.44,1405.4 1966.06,1398.2 1967.51,1397.53 1968.34,1399.44 1972.32,1401.46 1973.65,1399.41 1973.87,1401.99 1975.74,1400.41 1975.85,1404.97 1977.17,1398.36 1978.21,1398.83 1978.26,1398.03 1982.64,1401.51 1982.96,1402.36 1983.3,1399.68 1984.06,1404.13 1985.55,1406.81 1990.45,1401.13 1991.56,1403.43 1992.08,1403.27 1993.45,1400.63 1993.81,1404.8 1994.03,1402.98 1995.06,1403.66 1995.19,1404.56 2002.21,1401.32 2004.64,1396.74 2005.58,1398.55 2006.93,1397.05 2008.2,1398.86 2009.78,1405.73 2010.53,1406.15 2012.15,1406.25 2012.5,1399.22 2015.01,1400.37 2015.97,1401.36 2020,1398.34 2020.76,1398.78 2024.56,1397.42 2026.78,1401.91 2027.29,1401.2 2027.38,1401.76 2027.77,1401.75 2027.89,1401.48 2031.59,1400.32 2035.61,1402.41 2035.62,1402.37 2035.79,1401.91 2039.73,1396.09 2040.51,1396.24 2041.35,1398.72 2045.86,1397.54 2047.32,1400.2 2048.84,1400.72 2051.65,1404.45 2053.48,1401.85 2053.56,1399.81 2056.68,1400.59 2057.67,1400.67 2062.49,1402.96 2064.81,1396.9 2065.03,1398.33 2065.25,1398.77 2068.02,1400.78 2071.58,1402.83 2072.71,1398.42 2074.97,1397.62 2077.58,1398.61 2078.97,1404.69 2079.52,1399.89 2079.56,1396.51 2082.86,1395.65 2088.45,1397.86 2088.57,1400.36 2091.34,1397.68 2093.48,1399.1 2093.5,1400.77 2093.8,1399.82 2093.97,1399.95 2097.53,1401.2 2099.42,1395.82 2099.55,1404.63 2105.77,1394.28 2106.54,1401.58 2114.16,1396.84 2117.63,1400.76 2120.68,1399.82 2126.73,1396.47 2130.55,1394.6 2131.25,1396.2 2134.24,1402.34 2134.78,1398.61 2136.64,1398.32 2136.77,1402.46 2140.92,1394.89 2142.92,1396.13 2143.02,1397.06 2146.38,1399.19 2147.35,1395.25 2151.01,1398.66 2151.28,1399.82 2151.44,1399.83 2152.17,1397.34 2153.93,1403.56 2155.24,1398.75 2155.25,1398.03 2158.36,1399.62 2160.39,1398.35 2163.82,1400.01 2166.65,1401.65 2169.07,1401.09 2174.32,1400.61 2179.21,1396.53 2180.1,1392.84 2180.48,1393.53 2180.61,1394.61 2180.68,1393.03 2181.05,1399.62 2182.17,1401.63 2184.33,1398.62 2185.3,1395.6 2185.98,1395.56 2186.52,1395.96 2190.28,1400.35 2191.83,1396.96 2193,1397.14 2196.89,1400.95 2198.33,1399.37 2200.52,1400.71 2203.61,1397.75 2204.02,1397.48 2204.03,1392.5 2205.13,1402.39 2205.5,1395.52 2208.3,1393.59 2208.88,1396.48 2209.19,1398.37 2212.34,1397.71 2217.72,1397.81 2221.43,1400.95 2224.97,1394.86 2225.28,1397.33 2226.05,1393.74 2226.7,1392.75 2228.85,1397.74 2231.46,1397.42 2233.52,1391.09 2234.33,1397.95 2234.48,1399.73 2234.59,1397.41 2237.16,1399.37 2237.39,1394.77 2238.96,1396.82 2241.32,1401.1 2242,1395.44 2249.94,1395.9 2251.07,1391.15 2251.47,1399.33 2253.2,1396.73 2253.96,1399.97 2257.33,1395.06 2258.01,1394.86 2259.12,1389.84 2261.4,1395.74 2276.37,1399.66 2285.54,1396.45 2288.72,1394.29 2290.29,1395.8 "/>
<polyline clip-path="url(#clip242)" style="stroke:#e26f46; stroke-linecap:round; stroke-linejoin:round; stroke-width:4; stroke-opacity:1; fill:none" points="233.103,1435.97 234.26,1437.01 239.477,1439.63 239.855,1439.61 243.71,1440.59 246.075,1438.78 247.208,1438.4 247.493,1434.15 252.576,1438.2 254.776,1437.12 256.504,1441.07 265.309,1439.17 266.283,1438.8 269.165,1438.61 270.019,1438.82 270.318,1439.12 272.337,1439.57 274.537,1439.79 275.053,1436.25 275.942,1438.47 279.176,1440.66 280.03,1439.14 281.978,1438.66 282.93,1438.16 283.867,1439.13 284.156,1436.28 285.728,1437.95 286.125,1437.95 286.501,1439.34 287.102,1438.14 288.97,1437.92 292.155,1434.11 292.756,1437.94 298.972,1437.78 299.125,1439.53 299.377,1439.63 299.955,1439.31 302.051,1435.53 303.344,1439.49 303.452,1437.36 307.573,1440.35 309.466,1438.62 309.773,1437.27 309.824,1439.88 310.041,1438.79 310.065,1439.42 310.656,1439.97 316.012,1435.54 316.236,1439.49 318.474,1438.04 318.866,1435.67 323.216,1437.65 323.952,1438.7 326.874,1438.2 331.738,1438.23 331.984,1436.73 336.882,1438.12 340.146,1435.08 341.14,1438.22 347.56,1438.02 348.775,1436.1 352.947,1440.13 357.302,1441.51 357.715,1437.7 361.483,1440.23 362.136,1437.09 364.138,1434.58 364.803,1436.76 367.817,1440.94 368.443,1437.33 368.916,1436.86 371.419,1434.82 371.619,1439.42 371.731,1439.04 371.806,1438.71 380.222,1437.96 382.863,1440.06 383.142,1435 389.342,1434.35 390.824,1437.8 391.197,1435.22 394.27,1438.12 394.434,1436.7 395.738,1435.38 396.08,1437.71 397.008,1438.19 397.742,1438.65 398.61,1436.76 398.675,1435.3 398.701,1436.45 399.437,1436.97 399.996,1438.22 402.564,1440.23 403.955,1438.45 404.116,1438.56 406.579,1436.94 406.864,1436.8 409.74,1438.77 414.278,1435.68 416.904,1437.41 418.429,1435.29 420.007,1437.64 420.541,1438.08 423.99,1434.7 426.316,1435.52 430.754,1439.11 444.766,1433.77 445.075,1437.77 448.013,1437.53 448.645,1434.74 452.115,1434.17 454.3,1440.8 455.193,1437.33 456.765,1441.82 457.834,1435.43 460.674,1436.42 463.672,1435.21 466.099,1437.71 466.219,1434.56 466.857,1436.66 468.548,1435.08 476.366,1433.87 476.536,1436.23 478.367,1439.71 478.877,1435.78 481.095,1439.31 482.205,1437.66 482.901,1435.71 486.396,1437.5 486.817,1434.85 487.442,1437.01 491.148,1437.79 496.555,1439.04 498.876,1437.85 500.102,1435.72 506.941,1434.29 507.558,1439.13 508.654,1438.85 509.033,1435.93 509.525,1435.77 510.271,1434.82 512.918,1437.15 516.502,1437.48 523.626,1436.1 528.668,1438.43 530.416,1437.36 532.831,1436.04 533.105,1436.96 534.756,1438.79 535.212,1433.03 543.585,1436.02 549.014,1435.59 551.964,1433.1 554.142,1435.03 554.808,1434.27 557.994,1436.33 558.636,1435.26 559.579,1435.82 563.444,1433.52 565.779,1437.04 566.053,1435.25 567.209,1436.57 567.473,1434.72 579.368,1436.74 581.255,1432.39 584.357,1438.1 586.29,1435.22 587.309,1435.24 588.531,1434.63 589.323,1436.56 591.409,1435.52 593.269,1436.39 595.415,1440.09 595.79,1434.12 600.111,1436.28 600.816,1433.65 603.862,1434.92 605.112,1437.1 605.363,1433.24 606.584,1434.55 606.606,1436.14 609.969,1436.04 610.412,1435.84 613.211,1435.41 613.308,1432.05 614.182,1436.03 616.033,1434.26 620.871,1432.59 625.365,1433.48 629.982,1432.56 635.968,1432.8 637.138,1433.89 639.664,1432.85 643.23,1435.33 643.823,1436.75 647.494,1433.56 647.633,1435.78 649.654,1434.41 649.738,1433.21 650.211,1437.33 651.038,1434.96 651.86,1434.51 654.967,1434.8 657.024,1435.38 657.05,1431.29 657.165,1436.49 659.816,1437.34 660.02,1438.27 662.387,1431.54 662.886,1435.52 667.054,1434.94 672.362,1437.21 675.955,1431.96 676.885,1435.71 677.78,1435.13 679.111,1434.66 680.205,1436.27 683.598,1433.6 684.834,1432.74 689.297,1435.38 691.287,1435.74 693.051,1436.39 693.348,1435.31 694.977,1434.46 702.95,1434.63 704.125,1431.76 705.072,1432.74 705.077,1435.59 706.558,1434.96 706.74,1433.67 709.218,1435.08 711.462,1434.66 717.876,1432.83 717.941,1434.4 719.898,1433.56 720.639,1434.9 724.592,1435.17 724.704,1435.45 726.918,1435.15 727.323,1435.46 728.614,1433.9 730.363,1437.99 730.383,1431.11 732.916,1435.63 733.205,1436.35 735.449,1436.51 737.385,1435.9 738.386,1436.38 740.518,1433.22 742.973,1433.26 743.272,1431.78 743.945,1434.58 745.009,1436.95 748.581,1436.75 750.845,1432.62 752.485,1432.78 752.928,1432.63 753.015,1435 754.447,1432.35 755.573,1433.01 758.043,1435.92 758.48,1433.49 768.723,1433.8 771.109,1436.15 775.324,1433.78 777.399,1434.02 778.373,1434.16 783.256,1432.68 784.943,1437.66 787.026,1433.4 791.709,1433.59 791.738,1433.77 792.02,1435.13 792.597,1435.49 793.447,1436.26 804.195,1435.39 806.334,1433.83 811.318,1433.63 811.382,1434.17 812.85,1431.43 813.067,1436.51 814.019,1433.4 814.9,1434.5 815.421,1430.69 817.969,1436.46 820.344,1435.54 820.97,1435.3 823.312,1434.03 823.436,1436.35 827.771,1431.95 828.541,1434.16 829.868,1434.62 846.688,1432.96 849.989,1432.91 852.235,1437.15 855.827,1434.07 856.686,1430.87 857.602,1430.8 859.307,1435.17 859.493,1434.54 862.646,1432.65 863.543,1430.44 864.258,1434.73 864.767,1433.62 865.642,1433.05 867.184,1432.1 868.393,1435.13 871.552,1431.44 876.679,1433.31 877.897,1430.65 879.196,1432.65 880.966,1433.65 881.074,1433.54 881.249,1435.61 885.13,1434.25 888.03,1432 890.411,1429.79 891.417,1431.76 893.187,1434.45 893.634,1430.81 897.047,1433.68 898.828,1434.51 900.82,1434.43 906.038,1433.05 911.619,1432.77 912.485,1434.52 912.501,1437.09 915.57,1430.27 916.472,1433.17 924.963,1432.15 925.702,1432.85 928.422,1432.33 932.492,1431.38 933.195,1430.93 933.856,1431.51 936.418,1431.12 936.48,1431.59 941.528,1430.54 942.016,1434.48 945.773,1432.69 945.963,1434.01 946.526,1432.8 948.163,1432.72 955.519,1434.12 955.782,1433.1 958.329,1431.58 958.549,1431.16 959.343,1432.62 960.153,1434.22 960.794,1430.42 961.093,1431.79 962.374,1432.93 962.807,1434.39 963.814,1431.69 963.85,1430.1 966.024,1432.85 967.041,1432.12 969.434,1431.1 971.327,1432.95 974.454,1433.51 978.475,1433.84 981.046,1431.49 985.44,1428.91 986.015,1432.12 994.372,1431.04 996.774,1430.93 1006.01,1428.76 1008.51,1429.51 1010.46,1428.76 1010.78,1431.95 1012.62,1429.27 1015.08,1429.85 1020.17,1432.18 1022.83,1428.79 1024.98,1430.88 1028.82,1434.87 1032.1,1429.47 1033.01,1428.11 1037.11,1430.57 1039.48,1428.16 1040.7,1429.18 1040.7,1429.22 1041.76,1430.82 1046.14,1426.14 1047.5,1427.4 1049.12,1429.33 1051.58,1431.59 1054.16,1427.31 1054.48,1430.19 1055.56,1428.2 1057.57,1430.67 1062.85,1426.18 1063.39,1428.6 1064.02,1427.13 1065.94,1427.87 1069.66,1428.12 1076.18,1427.17 1079.84,1428.85 1080.5,1427.96 1081.75,1426.56 1082.71,1427.11 1085.76,1424.62 1086.46,1427.48 1089.7,1425.17 1090.71,1426.85 1092.61,1424.45 1092.75,1424.33 1096.3,1423.52 1098.89,1422.92 1100.02,1424.53 1100.46,1423.81 1103.69,1425 1104.79,1425.33 1107.48,1425.08 1109.17,1423.09 1110.18,1423.77 1111.33,1423.89 1112.89,1422.48 1113.66,1422.48 1119.74,1421.07 1120.68,1420.11 1121.95,1421.17 1126.13,1419.18 1129.68,1421.23 1130.13,1421.09 1135.21,1418.46 1135.93,1418.74 1137.05,1419.59 1137.34,1419.42 1138.07,1416.92 1138.84,1420.89 1139.74,1423.08 1140.33,1417.3 1144,1419.31 1144.01,1420.54 1144.8,1418.03 1145.44,1419.23 1148.02,1417.19 1151.38,1416.8 1154.14,1417.78 1154.49,1416.53 1155.42,1416.62 1155.53,1417.15 1155.58,1417.18 1157.29,1414.42 1158.24,1414.73 1158.85,1418.57 1171.2,1414.56 1174.09,1410.34 1178.99,1414.77 1179.33,1410.58 1180.62,1411.66 1182.59,1409.19 1183.66,1409.11 1185.36,1407.18 1185.43,1411.06 1185.65,1406.86 1188.75,1408.63 1189.11,1407.9 1190.31,1407.9 1191.9,1409.61 1194.13,1408 1195.88,1407.51 1197.2,1406.6 1201.55,1401.8 1201.76,1405.18 1203.46,1403.82 1207.21,1402.89 1208.25,1401.48 1209.93,1403.7 1214.23,1398.38 1214.9,1402.64 1222.81,1396.54 1223.83,1398.41 1225.69,1396.48 1227.2,1398.54 1228.05,1395.21 1229.66,1396.03 1232.89,1397.86 1233.68,1396.01 1237.46,1393.99 1237.68,1393.16 1239.93,1393.35 1242.26,1393.78 1247.57,1392.34 1248.18,1391.59 1258.85,1385.88 1259.56,1388.02 1263.07,1381.63 1264.05,1384.81 1267.97,1381.93 1269,1381.03 1269.87,1381.75 1271.02,1378.36 1273.24,1379.07 1273.67,1378.81 1274.93,1382.27 1277.45,1380.39 1281,1376.74 1281.76,1373.96 1286.61,1373.78 1288.81,1374 1292.17,1372.68 1294.41,1369.3 1296.05,1368.8 1299.8,1367.73 1301.08,1366.58 1303.43,1365.39 1303.73,1366.55 1304.73,1364.16 1307.58,1363.71 1309.19,1367.04 1311.14,1366.11 1311.16,1363.5 1311.38,1363.91 1313.95,1362.61 1315.39,1361.67 1315.95,1363.45 1316.88,1359.15 1318.32,1358.35 1320.06,1360.79 1320.17,1359.71 1323.98,1358.6 1325.34,1357.97 1326.31,1355.48 1327.27,1356.35 1331.01,1355.55 1340.02,1352.5 1340.11,1348.36 1341.02,1350.19 1342.36,1350.03 1345.47,1348.14 1348.21,1347.32 1350.15,1350.89 1352.71,1343.44 1359.17,1342.78 1361.04,1341.19 1366.58,1340.2 1368.74,1340.28 1369.04,1344.5 1379.49,1336.95 1380.56,1337.49 1381.39,1335.3 1382.06,1335.13 1382.2,1337.26 1382.49,1334.24 1387.45,1331.76 1392.25,1331.66 1393.31,1328.26 1393.61,1333.11 1395.48,1335.16 1396.1,1332.78 1398.29,1330.97 1398.91,1330.13 1399.08,1330.43 1400.15,1332.1 1402.28,1331.63 1406.48,1328.39 1407.11,1326.58 1410.15,1326.98 1410.16,1327.16 1411.73,1327.7 1415.14,1325.85 1417.03,1325.56 1418.76,1321.02 1418.85,1326.41 1420.67,1323.08 1424.89,1325.12 1427.26,1324.35 1428.04,1322.05 1432.91,1323.72 1433.3,1323.2 1433.95,1324.49 1435.09,1322.98 1436.6,1321.98 1438.57,1321.6 1439.03,1324.77 1440.22,1321.14 1441.05,1321.81 1446.41,1323.2 1449.21,1321.13 1450.18,1323.68 1452.72,1324.75 1455.83,1320.4 1456.37,1322.55 1456.39,1320.55 1462.69,1323 1464.7,1320.38 1467.06,1320.38 1474.89,1319.9 1476.24,1321.64 1476.45,1321.73 1478.32,1322.03 1478.69,1322.08 1478.85,1320.29 1483.42,1319.74 1487.02,1319.39 1487.89,1318.41 1488.79,1320.46 1489.86,1319.84 1489.95,1320.64 1492.97,1323.15 1493.47,1324.01 1493.8,1319.97 1497.01,1322.58 1499.07,1320.86 1499.11,1324.79 1503.12,1324.13 1505.07,1325.05 1505.81,1324.46 1506.04,1322.13 1507.3,1324.37 1510.01,1322.93 1511.31,1322.87 1511.37,1323.19 1512.19,1324.86 1512.87,1325.41 1528.2,1327.5 1529.72,1328.15 1533.12,1327.64 1540.52,1332.26 1542.92,1331.74 1543.14,1333.65 1543.31,1330.12 1546.43,1330.66 1547.72,1333.16 1553.49,1336.74 1554.95,1334.6 1560.95,1336.16 1563.9,1337.87 1567.45,1339.49 1567.88,1339.85 1568.05,1339.65 1571,1343.1 1573.96,1343.45 1576.53,1343.46 1580.13,1347.63 1581.94,1346.09 1582.06,1344.6 1582.12,1343.01 1582.83,1343.1 1586.75,1346.84 1588.87,1349.43 1589.88,1348.89 1590.51,1347.29 1590.53,1345.46 1592.37,1347.65 1594.41,1350.98 1597.25,1348.6 1597.43,1350.11 1597.54,1349.19 1602.52,1352.4 1605.35,1355.36 1607.63,1358.01 1608.48,1359.2 1608.66,1356.11 1611.13,1356.31 1611.71,1356.96 1612.04,1358.21 1613.64,1355.08 1613.96,1357.21 1616.96,1361.07 1618.42,1357.9 1621.84,1363.37 1622.59,1361.41 1622.75,1360.53 1625.54,1361.9 1626.04,1365.8 1626.78,1363.42 1629.03,1363.2 1631.67,1363.29 1634.55,1365.38 1634.69,1365.17 1634.88,1367.37 1636.29,1369.18 1636.77,1368.3 1645.44,1370.07 1646.15,1370.46 1650.89,1370.55 1651.92,1373.55 1655.21,1374.66 1660.54,1374.12 1661.27,1377.44 1662.76,1378.78 1664.38,1378.59 1667.91,1378.99 1669.59,1381.09 1669.66,1379.5 1672.18,1378.97 1672.57,1378.74 1673.61,1381.06 1679.92,1384.06 1680.67,1382.55 1683.69,1384.82 1683.99,1387.54 1685.28,1384.25 1685.83,1385.89 1687.72,1383.68 1688.93,1386 1690.11,1388.18 1692.42,1389.42 1695.95,1389.88 1699.14,1390.86 1699.5,1391.42 1700.16,1388.95 1700.55,1388.27 1700.94,1391.01 1701.44,1388 1701.47,1387.88 1701.98,1393.01 1703.25,1391.51 1705.27,1396.8 1707.04,1392.49 1709.15,1395.66 1711.65,1390.44 1711.74,1394.7 1713.04,1393.31 1715.55,1393.28 1715.72,1392.95 1715.75,1397.43 1717.2,1395.91 1717.78,1397.54 1722.46,1398.24 1726.2,1401.3 1727.14,1399.73 1729.26,1398.81 1729.4,1396.93 1731,1398.85 1733.13,1399.18 1733.99,1402.77 1735.82,1401.43 1735.9,1401.16 1739.7,1402.06 1740.32,1402.13 1742.11,1403.5 1746.9,1405.26 1748.11,1400.93 1749.49,1403.27 1753.44,1408.22 1755.62,1404.64 1757.11,1406.15 1758.35,1405.65 1758.44,1402.34 1758.61,1405.86 1760.93,1408.2 1762.55,1408.05 1763.19,1410.53 1764.65,1405.45 1765.13,1408.24 1767.43,1408.63 1767.65,1410.48 1772.28,1404.24 1774.34,1408.95 1776.13,1409.92 1776.97,1410.06 1783.67,1411.27 1783.69,1410.6 1785.64,1412.85 1786.42,1411.94 1788.45,1412.18 1788.82,1409.94 1792.53,1411.85 1802.83,1414.54 1802.91,1416.92 1805.13,1416.57 1806.53,1415.39 1806.7,1416.87 1807.94,1415.03 1808.09,1412.96 1810.01,1414.86 1811.55,1417.9 1814.75,1415 1815.11,1418.84 1822.14,1417.31 1823,1417.08 1823.33,1418.74 1823.5,1417.27 1826.5,1416.27 1826.89,1416.83 1831.15,1417.58 1832.85,1414.75 1833.49,1416.79 1834.58,1416.18 1837.71,1417.78 1838.51,1420.27 1839.81,1418.54 1845.99,1419.77 1847.05,1423.79 1853.26,1420.36 1857.59,1419.32 1859.53,1424.68 1859.88,1420.92 1860.09,1418.07 1861.27,1419.03 1865.11,1421.76 1867.83,1419.82 1868.8,1419.71 1869.95,1421.61 1872.14,1420.81 1872.34,1422.92 1872.81,1421.23 1872.82,1420.39 1874.01,1423.58 1874.82,1423.56 1883.47,1421.63 1883.61,1420.13 1884.1,1421.74 1884.2,1420.74 1887.59,1424.2 1888.57,1421.47 1894.35,1422 1895.21,1420.07 1895.38,1420.97 1895.46,1422.65 1896.73,1423.93 1898.11,1421.37 1898.8,1422.06 1899.5,1422.91 1904.15,1423.61 1905.67,1422.55 1906.66,1423.88 1907.92,1424.35 1909.13,1423.78 1913.49,1422.2 1913.72,1421.52 1914.65,1423.09 1916.27,1422.16 1917.47,1422.4 1918.83,1420.87 1920.7,1424.13 1922.26,1423.65 1922.44,1423.98 1923.26,1424.13 1923.94,1423.64 1924.14,1421.81 1926.76,1420.6 1927.18,1419.79 1927.68,1423.77 1934.06,1422.61 1935.67,1423.04 1939.13,1424.7 1940.09,1426.9 1941.96,1424.59 1942.01,1425.88 1942.15,1422.84 1945.21,1422.04 1945.24,1422.36 1945.92,1426.13 1949.77,1421.11 1952.51,1423.11 1953.18,1425.12 1954.51,1427.53 1954.56,1423.83 1956.77,1425.15 1956.93,1421.89 1960.15,1424.02 1961.7,1424.68 1966.33,1422.98 1971.69,1427.11 1972.96,1422.76 1977.01,1426.06 1984.98,1423.18 1985.85,1425.03 1990.48,1422.89 1992.45,1423.09 1994.12,1423.17 1998.17,1422.97 1998.83,1422.08 2001.13,1422.66 2001.82,1420.67 2003.08,1424.37 2008.57,1425.31 2009.25,1423.71 2011.4,1422.83 2011.65,1422.34 2012.32,1424.1 2016.57,1425.56 2018.07,1423.99 2020.12,1425.47 2021.45,1420.94 2024.54,1423.56 2025.75,1424.01 2029.54,1423.54 2029.64,1424.89 2033.81,1423.79 2035.45,1425.62 2036.14,1421.45 2036.56,1422.37 2041.86,1424.37 2044.88,1424.28 2045.63,1425.35 2046.59,1422.51 2046.61,1424.62 2048.3,1425.02 2049.65,1424.3 2050.91,1426.55 2053.99,1424.43 2054.88,1425.14 2056.02,1424.37 2057.23,1426.18 2057.81,1421.05 2063.67,1423.84 2065.99,1421.85 2066.2,1423.19 2066.84,1420.18 2075.77,1425.15 2076.19,1420.96 2077.54,1427.15 2081.76,1425.4 2082.14,1422.33 2085.89,1424.17 2087.62,1424.12 2087.77,1423.8 2088.34,1423.5 2092.72,1422.53 2092.72,1420.98 2096.85,1422.4 2097.41,1423.76 2107.14,1422.39 2108.86,1420.7 2111.16,1425.18 2113.61,1422.7 2114.35,1423.08 2120.81,1425.12 2121.79,1425.55 2122.59,1424.77 2124.48,1424.27 2128.57,1421.51 2128.84,1421.37 2131.84,1421.54 2135.25,1423.36 2135.44,1422.92 2137.48,1423.04 2137.93,1422.13 2142.63,1422.94 2146.06,1422.58 2148.55,1423.76 2150.77,1421.76 2152.03,1423.55 2154.15,1424.53 2154.5,1423.83 2154.6,1422.42 2156.91,1422.25 2158.24,1425.75 2159.25,1421.19 2161.5,1425.38 2163.99,1424.46 2169.13,1420.46 2177.03,1421.2 2179.13,1422.9 2182.29,1423.7 2182.66,1423.94 2183.42,1420.01 2184.05,1422.21 2186.27,1423.23 2188.96,1420.59 2190.42,1422.42 2190.76,1423.43 2191.75,1422.41 2194.32,1422.1 2195.56,1423.79 2197.75,1425.61 2202.56,1423.33 2203.28,1424.95 2206.09,1418.53 2208.24,1422.95 2213.07,1421.38 2215.92,1421.49 2216.38,1424.47 2216.78,1419.9 2218.31,1421.63 2221.71,1420.61 2229.17,1420.74 2230.17,1423.2 2233.08,1425.07 2233.77,1422.88 2234.38,1422.3 2241.18,1423.43 2242.53,1419.09 2244.79,1426.2 2245.17,1421.58 2251.17,1422.27 2251.42,1424.25 2254.32,1423.77 2255.64,1421.06 2258.42,1423.33 2260.5,1420.65 2262.74,1424.03 2264.26,1421.14 2264.47,1422.04 2267.28,1423.53 2270.64,1424.3 2273.63,1420.86 2278.26,1422.13 2281.51,1422.53 2281.62,1420.86 2283.09,1424.16 2283.45,1421.28 2286.08,1420.62 2291,1422.19 "/>
<path clip-path="url(#clip240)" d="M2009.41 250.738 L2280.03 250.738 L2280.03 95.2176 L2009.41 95.2176  Z" fill="#ffffff" fill-rule="evenodd" fill-opacity="1"/>
<polyline clip-path="url(#clip240)" style="stroke:#000000; stroke-linecap:round; stroke-linejoin:round; stroke-width:4; stroke-opacity:1; fill:none" points="2009.41,250.738 2280.03,250.738 2280.03,95.2176 2009.41,95.2176 2009.41,250.738 "/>
<polyline clip-path="url(#clip240)" style="stroke:#009af9; stroke-linecap:round; stroke-linejoin:round; stroke-width:4; stroke-opacity:1; fill:none" points="2033.65,147.058 2179.11,147.058 "/>
<path clip-path="url(#clip240)" d="M2217.19 166.745 Q2215.39 171.375 2213.68 172.787 Q2211.96 174.199 2209.09 174.199 L2205.69 174.199 L2205.69 170.634 L2208.19 170.634 Q2209.95 170.634 2210.92 169.8 Q2211.89 168.967 2213.07 165.865 L2213.84 163.921 L2203.35 138.412 L2207.87 138.412 L2215.97 158.689 L2224.07 138.412 L2228.58 138.412 L2217.19 166.745 Z" fill="#000000" fill-rule="nonzero" fill-opacity="1" /><path clip-path="url(#clip240)" d="M2235.88 160.402 L2243.51 160.402 L2243.51 134.037 L2235.2 135.703 L2235.2 131.444 L2243.47 129.778 L2248.14 129.778 L2248.14 160.402 L2255.78 160.402 L2255.78 164.338 L2235.88 164.338 L2235.88 160.402 Z" fill="#000000" fill-rule="nonzero" fill-opacity="1" /><polyline clip-path="url(#clip240)" style="stroke:#e26f46; stroke-linecap:round; stroke-linejoin:round; stroke-width:4; stroke-opacity:1; fill:none" points="2033.65,198.898 2179.11,198.898 "/>
<path clip-path="url(#clip240)" d="M2217.19 218.585 Q2215.39 223.215 2213.68 224.627 Q2211.96 226.039 2209.09 226.039 L2205.69 226.039 L2205.69 222.474 L2208.19 222.474 Q2209.95 222.474 2210.92 221.64 Q2211.89 220.807 2213.07 217.705 L2213.84 215.761 L2203.35 190.252 L2207.87 190.252 L2215.97 210.529 L2224.07 190.252 L2228.58 190.252 L2217.19 218.585 Z" fill="#000000" fill-rule="nonzero" fill-opacity="1" /><path clip-path="url(#clip240)" d="M2239.09 212.242 L2255.41 212.242 L2255.41 216.178 L2233.47 216.178 L2233.47 212.242 Q2236.13 209.488 2240.71 204.858 Q2245.32 200.205 2246.5 198.863 Q2248.75 196.34 2249.63 194.604 Q2250.53 192.844 2250.53 191.155 Q2250.53 188.4 2248.58 186.664 Q2246.66 184.928 2243.56 184.928 Q2241.36 184.928 2238.91 185.692 Q2236.48 186.455 2233.7 188.006 L2233.7 183.284 Q2236.52 182.15 2238.98 181.571 Q2241.43 180.993 2243.47 180.993 Q2248.84 180.993 2252.03 183.678 Q2255.23 186.363 2255.23 190.854 Q2255.23 192.983 2254.42 194.905 Q2253.63 196.803 2251.52 199.395 Q2250.94 200.067 2247.84 203.284 Q2244.74 206.479 2239.09 212.242 Z" fill="#000000" fill-rule="nonzero" fill-opacity="1" /></svg>
