<?xml version="1.0" encoding="utf-8"?>
<svg xmlns="http://www.w3.org/2000/svg" xmlns:xlink="http://www.w3.org/1999/xlink" width="600" height="400" viewBox="0 0 2400 1600">
<defs>
  <clipPath id="clip270">
    <rect x="0" y="0" width="2400" height="1600"/>
  </clipPath>
</defs>
<path clip-path="url(#clip270)" d="M0 1600 L2400 1600 L2400 0 L0 0  Z" fill="#ffffff" fill-rule="evenodd" fill-opacity="1"/>
<defs>
  <clipPath id="clip271">
    <rect x="480" y="0" width="1681" height="1600"/>
  </clipPath>
</defs>
<path clip-path="url(#clip270)" d="M140.696 1486.45 L2352.76 1486.45 L2352.76 47.2441 L140.696 47.2441  Z" fill="#ffffff" fill-rule="evenodd" fill-opacity="1"/>
<defs>
  <clipPath id="clip272">
    <rect x="140" y="47" width="2213" height="1440"/>
  </clipPath>
</defs>
<polyline clip-path="url(#clip272)" style="stroke:#000000; stroke-linecap:round; stroke-linejoin:round; stroke-width:2; stroke-opacity:0.1; fill:none" points="203.301,1486.45 203.301,47.2441 "/>
<polyline clip-path="url(#clip272)" style="stroke:#000000; stroke-linecap:round; stroke-linejoin:round; stroke-width:2; stroke-opacity:0.1; fill:none" points="725.013,1486.45 725.013,47.2441 "/>
<polyline clip-path="url(#clip272)" style="stroke:#000000; stroke-linecap:round; stroke-linejoin:round; stroke-width:2; stroke-opacity:0.1; fill:none" points="1246.73,1486.45 1246.73,47.2441 "/>
<polyline clip-path="url(#clip272)" style="stroke:#000000; stroke-linecap:round; stroke-linejoin:round; stroke-width:2; stroke-opacity:0.1; fill:none" points="1768.44,1486.45 1768.44,47.2441 "/>
<polyline clip-path="url(#clip272)" style="stroke:#000000; stroke-linecap:round; stroke-linejoin:round; stroke-width:2; stroke-opacity:0.1; fill:none" points="2290.15,1486.45 2290.15,47.2441 "/>
<polyline clip-path="url(#clip272)" style="stroke:#000000; stroke-linecap:round; stroke-linejoin:round; stroke-width:2; stroke-opacity:0.1; fill:none" points="140.696,1371.51 2352.76,1371.51 "/>
<polyline clip-path="url(#clip272)" style="stroke:#000000; stroke-linecap:round; stroke-linejoin:round; stroke-width:2; stroke-opacity:0.1; fill:none" points="140.696,1080.6 2352.76,1080.6 "/>
<polyline clip-path="url(#clip272)" style="stroke:#000000; stroke-linecap:round; stroke-linejoin:round; stroke-width:2; stroke-opacity:0.1; fill:none" points="140.696,789.687 2352.76,789.687 "/>
<polyline clip-path="url(#clip272)" style="stroke:#000000; stroke-linecap:round; stroke-linejoin:round; stroke-width:2; stroke-opacity:0.1; fill:none" points="140.696,498.776 2352.76,498.776 "/>
<polyline clip-path="url(#clip272)" style="stroke:#000000; stroke-linecap:round; stroke-linejoin:round; stroke-width:2; stroke-opacity:0.1; fill:none" points="140.696,207.866 2352.76,207.866 "/>
<polyline clip-path="url(#clip270)" style="stroke:#000000; stroke-linecap:round; stroke-linejoin:round; stroke-width:4; stroke-opacity:1; fill:none" points="140.696,1486.45 2352.76,1486.45 "/>
<polyline clip-path="url(#clip270)" style="stroke:#000000; stroke-linecap:round; stroke-linejoin:round; stroke-width:4; stroke-opacity:1; fill:none" points="203.301,1486.45 203.301,1467.55 "/>
<polyline clip-path="url(#clip270)" style="stroke:#000000; stroke-linecap:round; stroke-linejoin:round; stroke-width:4; stroke-opacity:1; fill:none" points="725.013,1486.45 725.013,1467.55 "/>
<polyline clip-path="url(#clip270)" style="stroke:#000000; stroke-linecap:round; stroke-linejoin:round; stroke-width:4; stroke-opacity:1; fill:none" points="1246.73,1486.45 1246.73,1467.55 "/>
<polyline clip-path="url(#clip270)" style="stroke:#000000; stroke-linecap:round; stroke-linejoin:round; stroke-width:4; stroke-opacity:1; fill:none" points="1768.44,1486.45 1768.44,1467.55 "/>
<polyline clip-path="url(#clip270)" style="stroke:#000000; stroke-linecap:round; stroke-linejoin:round; stroke-width:4; stroke-opacity:1; fill:none" points="2290.15,1486.45 2290.15,1467.55 "/>
<path clip-path="url(#clip270)" d="M203.301 1517.37 Q199.69 1517.37 197.861 1520.93 Q196.056 1524.47 196.056 1531.6 Q196.056 1538.71 197.861 1542.27 Q199.69 1545.82 203.301 1545.82 Q206.935 1545.82 208.741 1542.27 Q210.57 1538.71 210.57 1531.6 Q210.57 1524.47 208.741 1520.93 Q206.935 1517.37 203.301 1517.37 M203.301 1513.66 Q209.111 1513.66 212.167 1518.27 Q215.245 1522.85 215.245 1531.6 Q215.245 1540.33 212.167 1544.94 Q209.111 1549.52 203.301 1549.52 Q197.491 1549.52 194.412 1544.94 Q191.357 1540.33 191.357 1531.6 Q191.357 1522.85 194.412 1518.27 Q197.491 1513.66 203.301 1513.66 Z" fill="#000000" fill-rule="nonzero" fill-opacity="1" /><path clip-path="url(#clip270)" d="M704.284 1544.91 L720.604 1544.91 L720.604 1548.85 L698.659 1548.85 L698.659 1544.91 Q701.321 1542.16 705.905 1537.53 Q710.511 1532.88 711.692 1531.53 Q713.937 1529.01 714.817 1527.27 Q715.719 1525.51 715.719 1523.82 Q715.719 1521.07 713.775 1519.33 Q711.854 1517.6 708.752 1517.6 Q706.553 1517.6 704.099 1518.36 Q701.669 1519.13 698.891 1520.68 L698.891 1515.95 Q701.715 1514.82 704.169 1514.24 Q706.622 1513.66 708.659 1513.66 Q714.03 1513.66 717.224 1516.35 Q720.418 1519.03 720.418 1523.52 Q720.418 1525.65 719.608 1527.57 Q718.821 1529.47 716.715 1532.07 Q716.136 1532.74 713.034 1535.95 Q709.932 1539.15 704.284 1544.91 Z" fill="#000000" fill-rule="nonzero" fill-opacity="1" /><path clip-path="url(#clip270)" d="M730.465 1514.29 L748.821 1514.29 L748.821 1518.22 L734.747 1518.22 L734.747 1526.7 Q735.766 1526.35 736.784 1526.19 Q737.803 1526 738.821 1526 Q744.608 1526 747.988 1529.17 Q751.367 1532.34 751.367 1537.76 Q751.367 1543.34 747.895 1546.44 Q744.423 1549.52 738.104 1549.52 Q735.928 1549.52 733.659 1549.15 Q731.414 1548.78 729.006 1548.04 L729.006 1543.34 Q731.09 1544.47 733.312 1545.03 Q735.534 1545.58 738.011 1545.58 Q742.016 1545.58 744.354 1543.48 Q746.691 1541.37 746.691 1537.76 Q746.691 1534.15 744.354 1532.04 Q742.016 1529.94 738.011 1529.94 Q736.136 1529.94 734.261 1530.35 Q732.409 1530.77 730.465 1531.65 L730.465 1514.29 Z" fill="#000000" fill-rule="nonzero" fill-opacity="1" /><path clip-path="url(#clip270)" d="M1221.42 1514.29 L1239.78 1514.29 L1239.78 1518.22 L1225.71 1518.22 L1225.71 1526.7 Q1226.73 1526.35 1227.74 1526.19 Q1228.76 1526 1229.78 1526 Q1235.57 1526 1238.95 1529.17 Q1242.33 1532.34 1242.33 1537.76 Q1242.33 1543.34 1238.86 1546.44 Q1235.38 1549.52 1229.06 1549.52 Q1226.89 1549.52 1224.62 1549.15 Q1222.37 1548.78 1219.97 1548.04 L1219.97 1543.34 Q1222.05 1544.47 1224.27 1545.03 Q1226.49 1545.58 1228.97 1545.58 Q1232.98 1545.58 1235.31 1543.48 Q1237.65 1541.37 1237.65 1537.76 Q1237.65 1534.15 1235.31 1532.04 Q1232.98 1529.94 1228.97 1529.94 Q1227.1 1529.94 1225.22 1530.35 Q1223.37 1530.77 1221.42 1531.65 L1221.42 1514.29 Z" fill="#000000" fill-rule="nonzero" fill-opacity="1" /><path clip-path="url(#clip270)" d="M1261.54 1517.37 Q1257.93 1517.37 1256.1 1520.93 Q1254.3 1524.47 1254.3 1531.6 Q1254.3 1538.71 1256.1 1542.27 Q1257.93 1545.82 1261.54 1545.82 Q1265.17 1545.82 1266.98 1542.27 Q1268.81 1538.71 1268.81 1531.6 Q1268.81 1524.47 1266.98 1520.93 Q1265.17 1517.37 1261.54 1517.37 M1261.54 1513.66 Q1267.35 1513.66 1270.41 1518.27 Q1273.48 1522.85 1273.48 1531.6 Q1273.48 1540.33 1270.41 1544.94 Q1267.35 1549.52 1261.54 1549.52 Q1255.73 1549.52 1252.65 1544.94 Q1249.6 1540.33 1249.6 1531.6 Q1249.6 1522.85 1252.65 1518.27 Q1255.73 1513.66 1261.54 1513.66 Z" fill="#000000" fill-rule="nonzero" fill-opacity="1" /><path clip-path="url(#clip270)" d="M1742.29 1514.29 L1764.51 1514.29 L1764.51 1516.28 L1751.97 1548.85 L1747.08 1548.85 L1758.89 1518.22 L1742.29 1518.22 L1742.29 1514.29 Z" fill="#000000" fill-rule="nonzero" fill-opacity="1" /><path clip-path="url(#clip270)" d="M1773.68 1514.29 L1792.04 1514.29 L1792.04 1518.22 L1777.96 1518.22 L1777.96 1526.7 Q1778.98 1526.35 1780 1526.19 Q1781.02 1526 1782.04 1526 Q1787.82 1526 1791.2 1529.17 Q1794.58 1532.34 1794.58 1537.76 Q1794.58 1543.34 1791.11 1546.44 Q1787.64 1549.52 1781.32 1549.52 Q1779.14 1549.52 1776.88 1549.15 Q1774.63 1548.78 1772.22 1548.04 L1772.22 1543.34 Q1774.31 1544.47 1776.53 1545.03 Q1778.75 1545.58 1781.23 1545.58 Q1785.23 1545.58 1787.57 1543.48 Q1789.91 1541.37 1789.91 1537.76 Q1789.91 1534.15 1787.57 1532.04 Q1785.23 1529.94 1781.23 1529.94 Q1779.35 1529.94 1777.48 1530.35 Q1775.63 1530.77 1773.68 1531.65 L1773.68 1514.29 Z" fill="#000000" fill-rule="nonzero" fill-opacity="1" /><path clip-path="url(#clip270)" d="M2249.76 1544.91 L2257.4 1544.91 L2257.4 1518.55 L2249.09 1520.21 L2249.09 1515.95 L2257.35 1514.29 L2262.03 1514.29 L2262.03 1544.91 L2269.66 1544.91 L2269.66 1548.85 L2249.76 1548.85 L2249.76 1544.91 Z" fill="#000000" fill-rule="nonzero" fill-opacity="1" /><path clip-path="url(#clip270)" d="M2289.11 1517.37 Q2285.5 1517.37 2283.67 1520.93 Q2281.86 1524.47 2281.86 1531.6 Q2281.86 1538.71 2283.67 1542.27 Q2285.5 1545.82 2289.11 1545.82 Q2292.74 1545.82 2294.55 1542.27 Q2296.38 1538.71 2296.38 1531.6 Q2296.38 1524.47 2294.55 1520.93 Q2292.74 1517.37 2289.11 1517.37 M2289.11 1513.66 Q2294.92 1513.66 2297.97 1518.27 Q2301.05 1522.85 2301.05 1531.6 Q2301.05 1540.33 2297.97 1544.94 Q2294.92 1549.52 2289.11 1549.52 Q2283.3 1549.52 2280.22 1544.94 Q2277.16 1540.33 2277.16 1531.6 Q2277.16 1522.85 2280.22 1518.27 Q2283.3 1513.66 2289.11 1513.66 Z" fill="#000000" fill-rule="nonzero" fill-opacity="1" /><path clip-path="url(#clip270)" d="M2319.27 1517.37 Q2315.66 1517.37 2313.83 1520.93 Q2312.03 1524.47 2312.03 1531.6 Q2312.03 1538.71 2313.83 1542.27 Q2315.66 1545.82 2319.27 1545.82 Q2322.9 1545.82 2324.71 1542.27 Q2326.54 1538.71 2326.54 1531.6 Q2326.54 1524.47 2324.71 1520.93 Q2322.9 1517.37 2319.27 1517.37 M2319.27 1513.66 Q2325.08 1513.66 2328.14 1518.27 Q2331.22 1522.85 2331.22 1531.6 Q2331.22 1540.33 2328.14 1544.94 Q2325.08 1549.52 2319.27 1549.52 Q2313.46 1549.52 2310.38 1544.94 Q2307.33 1540.33 2307.33 1531.6 Q2307.33 1522.85 2310.38 1518.27 Q2313.46 1513.66 2319.27 1513.66 Z" fill="#000000" fill-rule="nonzero" fill-opacity="1" /><polyline clip-path="url(#clip270)" style="stroke:#000000; stroke-linecap:round; stroke-linejoin:round; stroke-width:4; stroke-opacity:1; fill:none" points="140.696,1486.45 140.696,47.2441 "/>
<polyline clip-path="url(#clip270)" style="stroke:#000000; stroke-linecap:round; stroke-linejoin:round; stroke-width:4; stroke-opacity:1; fill:none" points="140.696,1371.51 159.593,1371.51 "/>
<polyline clip-path="url(#clip270)" style="stroke:#000000; stroke-linecap:round; stroke-linejoin:round; stroke-width:4; stroke-opacity:1; fill:none" points="140.696,1080.6 159.593,1080.6 "/>
<polyline clip-path="url(#clip270)" style="stroke:#000000; stroke-linecap:round; stroke-linejoin:round; stroke-width:4; stroke-opacity:1; fill:none" points="140.696,789.687 159.593,789.687 "/>
<polyline clip-path="url(#clip270)" style="stroke:#000000; stroke-linecap:round; stroke-linejoin:round; stroke-width:4; stroke-opacity:1; fill:none" points="140.696,498.776 159.593,498.776 "/>
<polyline clip-path="url(#clip270)" style="stroke:#000000; stroke-linecap:round; stroke-linejoin:round; stroke-width:4; stroke-opacity:1; fill:none" points="140.696,207.866 159.593,207.866 "/>
<path clip-path="url(#clip270)" d="M92.7512 1357.31 Q89.1401 1357.31 87.3114 1360.87 Q85.5058 1364.41 85.5058 1371.54 Q85.5058 1378.65 87.3114 1382.21 Q89.1401 1385.76 92.7512 1385.76 Q96.3854 1385.76 98.1909 1382.21 Q100.02 1378.65 100.02 1371.54 Q100.02 1364.41 98.1909 1360.87 Q96.3854 1357.31 92.7512 1357.31 M92.7512 1353.6 Q98.5613 1353.6 101.617 1358.21 Q104.696 1362.79 104.696 1371.54 Q104.696 1380.27 101.617 1384.88 Q98.5613 1389.46 92.7512 1389.46 Q86.941 1389.46 83.8623 1384.88 Q80.8068 1380.27 80.8068 1371.54 Q80.8068 1362.79 83.8623 1358.21 Q86.941 1353.6 92.7512 1353.6 Z" fill="#000000" fill-rule="nonzero" fill-opacity="1" /><path clip-path="url(#clip270)" d="M83.7929 1063.32 L102.149 1063.32 L102.149 1067.25 L88.0753 1067.25 L88.0753 1075.72 Q89.0938 1075.38 90.1123 1075.22 Q91.1308 1075.03 92.1493 1075.03 Q97.9363 1075.03 101.316 1078.2 Q104.696 1081.37 104.696 1086.79 Q104.696 1092.37 101.223 1095.47 Q97.7511 1098.55 91.4317 1098.55 Q89.2558 1098.55 86.9873 1098.18 Q84.7419 1097.81 82.3346 1097.07 L82.3346 1092.37 Q84.4179 1093.5 86.6401 1094.06 Q88.8623 1094.61 91.3391 1094.61 Q95.3437 1094.61 97.6817 1092.51 Q100.02 1090.4 100.02 1086.79 Q100.02 1083.18 97.6817 1081.07 Q95.3437 1078.97 91.3391 1078.97 Q89.4641 1078.97 87.5892 1079.38 Q85.7373 1079.8 83.7929 1080.68 L83.7929 1063.32 Z" fill="#000000" fill-rule="nonzero" fill-opacity="1" /><path clip-path="url(#clip270)" d="M53.3995 803.032 L61.0384 803.032 L61.0384 776.666 L52.7282 778.333 L52.7282 774.073 L60.9921 772.407 L65.668 772.407 L65.668 803.032 L73.3068 803.032 L73.3068 806.967 L53.3995 806.967 L53.3995 803.032 Z" fill="#000000" fill-rule="nonzero" fill-opacity="1" /><path clip-path="url(#clip270)" d="M92.7512 775.485 Q89.1401 775.485 87.3114 779.05 Q85.5058 782.592 85.5058 789.721 Q85.5058 796.828 87.3114 800.393 Q89.1401 803.934 92.7512 803.934 Q96.3854 803.934 98.1909 800.393 Q100.02 796.828 100.02 789.721 Q100.02 782.592 98.1909 779.05 Q96.3854 775.485 92.7512 775.485 M92.7512 771.782 Q98.5613 771.782 101.617 776.388 Q104.696 780.971 104.696 789.721 Q104.696 798.448 101.617 803.055 Q98.5613 807.638 92.7512 807.638 Q86.941 807.638 83.8623 803.055 Q80.8068 798.448 80.8068 789.721 Q80.8068 780.971 83.8623 776.388 Q86.941 771.782 92.7512 771.782 Z" fill="#000000" fill-rule="nonzero" fill-opacity="1" /><path clip-path="url(#clip270)" d="M54.3949 512.121 L62.0337 512.121 L62.0337 485.756 L53.7236 487.422 L53.7236 483.163 L61.9874 481.496 L66.6633 481.496 L66.6633 512.121 L74.3022 512.121 L74.3022 516.056 L54.3949 516.056 L54.3949 512.121 Z" fill="#000000" fill-rule="nonzero" fill-opacity="1" /><path clip-path="url(#clip270)" d="M83.7929 481.496 L102.149 481.496 L102.149 485.432 L88.0753 485.432 L88.0753 493.904 Q89.0938 493.556 90.1123 493.394 Q91.1308 493.209 92.1493 493.209 Q97.9363 493.209 101.316 496.381 Q104.696 499.552 104.696 504.968 Q104.696 510.547 101.223 513.649 Q97.7511 516.728 91.4317 516.728 Q89.2558 516.728 86.9873 516.357 Q84.7419 515.987 82.3346 515.246 L82.3346 510.547 Q84.4179 511.681 86.6401 512.237 Q88.8623 512.792 91.3391 512.792 Q95.3437 512.792 97.6817 510.686 Q100.02 508.58 100.02 504.968 Q100.02 501.357 97.6817 499.251 Q95.3437 497.144 91.3391 497.144 Q89.4641 497.144 87.5892 497.561 Q85.7373 497.978 83.7929 498.857 L83.7929 481.496 Z" fill="#000000" fill-rule="nonzero" fill-opacity="1" /><path clip-path="url(#clip270)" d="M56.6171 221.211 L72.9365 221.211 L72.9365 225.146 L50.9921 225.146 L50.9921 221.211 Q53.6541 218.456 58.2375 213.827 Q62.8439 209.174 64.0245 207.831 Q66.2698 205.308 67.1494 203.572 Q68.0522 201.813 68.0522 200.123 Q68.0522 197.368 66.1078 195.632 Q64.1865 193.896 61.0847 193.896 Q58.8856 193.896 56.4319 194.66 Q54.0014 195.424 51.2236 196.975 L51.2236 192.253 Q54.0477 191.118 56.5014 190.54 Q58.955 189.961 60.9921 189.961 Q66.3624 189.961 69.5568 192.646 Q72.7513 195.331 72.7513 199.822 Q72.7513 201.952 71.9411 203.873 Q71.1541 205.771 69.0476 208.364 Q68.4689 209.035 65.367 212.253 Q62.2652 215.447 56.6171 221.211 Z" fill="#000000" fill-rule="nonzero" fill-opacity="1" /><path clip-path="url(#clip270)" d="M92.7512 193.665 Q89.1401 193.665 87.3114 197.229 Q85.5058 200.771 85.5058 207.901 Q85.5058 215.007 87.3114 218.572 Q89.1401 222.114 92.7512 222.114 Q96.3854 222.114 98.1909 218.572 Q100.02 215.007 100.02 207.901 Q100.02 200.771 98.1909 197.229 Q96.3854 193.665 92.7512 193.665 M92.7512 189.961 Q98.5613 189.961 101.617 194.567 Q104.696 199.151 104.696 207.901 Q104.696 216.628 101.617 221.234 Q98.5613 225.817 92.7512 225.817 Q86.941 225.817 83.8623 221.234 Q80.8068 216.628 80.8068 207.901 Q80.8068 199.151 83.8623 194.567 Q86.941 189.961 92.7512 189.961 Z" fill="#000000" fill-rule="nonzero" fill-opacity="1" /><polyline clip-path="url(#clip272)" style="stroke:#009af9; stroke-linecap:round; stroke-linejoin:round; stroke-width:4; stroke-opacity:1; fill:none" points="203.301,1333.64 213.735,1380.65 224.17,1380.7 234.604,1364.99 245.038,1243.56 255.472,1445.72 265.907,1367.57 276.341,1404.09 286.775,1325.77 297.209,1349.82 307.643,1366.06 318.078,1354.34 328.512,1345.5 338.946,1413.56 349.38,1322.09 359.815,1303.47 370.249,1329.28 380.683,1327.67 391.117,1323.77 401.552,1340.88 411.986,1347.19 422.42,1296.88 432.854,1339.8 443.289,1299.71 453.723,1347.67 464.157,1291.02 474.591,1346.77 485.026,1300.98 495.46,1317.92 505.894,1308.3 516.328,1234.93 526.763,1336.13 537.197,1270.2 547.631,1314.02 558.065,1266.3 568.5,1273.09 578.934,1311.48 589.368,1274.23 599.802,1271.4 610.237,1247.1 620.671,1304.49 631.105,1242.12 641.539,1260.37 651.974,1256.33 662.408,1272.6 672.842,1271.43 683.276,1298.31 693.711,1259.3 704.145,1248.91 714.579,1191.24 725.013,1259.46 735.448,1266.04 745.882,1252.12 756.316,1201.31 766.75,1209.02 777.185,1231.6 787.619,1238.83 798.053,1240.1 808.487,1215.94 818.922,1227.64 829.356,1211.11 839.79,1203.48 850.224,1145.57 860.659,1116.23 871.093,1141.44 881.527,1131.16 891.961,1080.94 902.396,1045.09 912.83,975.764 923.264,978.926 933.698,909.074 944.133,875.241 954.567,842.442 965.001,765.527 975.435,749.75 985.87,679.829 996.304,702.383 1006.74,649.401 1017.17,691.476 1027.61,589.519 1038.04,599.964 1048.48,623.282 1058.91,614.029 1069.34,633.955 1079.78,600.099 1090.21,710.463 1100.65,733.874 1111.08,762.078 1121.51,815.765 1131.95,854.659 1142.38,887.562 1152.82,880.728 1163.25,984.71 1173.69,974.626 1184.12,941.09 1194.55,1001.52 1204.99,1049.78 1215.42,1049.02 1225.86,1049.44 1236.29,1104.37 1246.73,1085.94 1257.16,1095.74 1267.59,1085.74 1278.03,1143.31 1288.46,1135.07 1298.9,1134.4 1309.33,1130.32 1319.77,1116.04 1330.2,1166.18 1340.63,1140.51 1351.07,1046.94 1361.5,1076.34 1371.94,1125.05 1382.37,1087.66 1392.81,1091.99 1403.24,1143.82 1413.67,1134.56 1424.11,1078.06 1434.54,1085.64 1444.98,1081.89 1455.41,1101.59 1465.84,1102.78 1476.28,1068.41 1486.71,1067.27 1497.15,1064.2 1507.58,1079.39 1518.02,1085.66 1528.45,1038.65 1538.88,1043.59 1549.32,1085.43 1559.75,1053.84 1570.19,1048.97 1580.62,1067.77 1591.06,1064.28 1601.49,1033.93 1611.92,1035.06 1622.36,1054.17 1632.79,1027.87 1643.23,992.282 1653.66,1023.91 1664.1,1042.83 1674.53,1056.23 1684.96,1115.77 1695.4,1051.42 1705.83,1031.94 1716.27,1013.69 1726.7,1063.56 1737.14,995.321 1747.57,985.881 1758,1047.04 1768.44,1017.51 1778.87,1027.99 1789.31,1021.38 1799.74,993.724 1810.18,1025.24 1820.61,1000.23 1831.04,1012.15 1841.48,1010.25 1851.91,1014.65 1862.35,984.071 1872.78,984.508 1883.21,997.891 1893.65,1025.6 1904.08,978.361 1914.52,990.695 1924.95,948.574 1935.39,1011.88 1945.82,1013.21 1956.25,1013.87 1966.69,969.213 1977.12,977.876 1987.56,970.459 1997.99,946.466 2008.43,954.296 2018.86,930.94 2029.29,975.472 2039.73,933.688 2050.16,958.338 2060.6,943.159 2071.03,933.397 2081.47,922.494 2091.9,964.393 2102.33,963.37 2112.77,954.159 2123.2,917.073 2133.64,971.793 2144.07,908.586 2154.51,950.387 2164.94,970.462 2175.37,925.151 2185.81,942.664 2196.24,955.409 2206.68,938.512 2217.11,951.754 2227.54,930.717 2237.98,950.004 2248.41,879.253 2258.85,898.997 2269.28,938.71 2279.72,933.421 2290.15,911.452 "/>
<polyline clip-path="url(#clip272)" style="stroke:#e26f46; stroke-linecap:round; stroke-linejoin:round; stroke-width:4; stroke-opacity:1; fill:none" points="203.301,1344.09 213.735,1388.4 224.17,1363.33 234.604,1385.49 245.038,1383.16 255.472,1367.7 265.907,1365.15 276.341,1359.71 286.775,1358.94 297.209,1373.16 307.643,1359.79 318.078,1367.1 328.512,1396.04 338.946,1360.62 349.38,1369.96 359.815,1330.54 370.249,1363.8 380.683,1354.73 391.117,1359.26 401.552,1346.56 411.986,1350.4 422.42,1361.13 432.854,1339.18 443.289,1336.42 453.723,1359.53 464.157,1358.78 474.591,1356.96 485.026,1341.31 495.46,1353.3 505.894,1360.69 516.328,1332.72 526.763,1323.93 537.197,1332.84 547.631,1337.78 558.065,1314.2 568.5,1342.17 578.934,1325.73 589.368,1339.06 599.802,1312.04 610.237,1308.78 620.671,1344.32 631.105,1330.38 641.539,1337.42 651.974,1325.22 662.408,1310.19 672.842,1327.86 683.276,1338.88 693.711,1317.19 704.145,1336.71 714.579,1347.32 725.013,1353.74 735.448,1328.15 745.882,1320.24 756.316,1323.21 766.75,1316.78 777.185,1343.24 787.619,1320.22 798.053,1346.55 808.487,1326.09 818.922,1319.59 829.356,1311.26 839.79,1326.41 850.224,1312.9 860.659,1316.05 871.093,1284.95 881.527,1326.87 891.961,1309.75 902.396,1307.23 912.83,1296 923.264,1326.76 933.698,1318.13 944.133,1325.1 954.567,1315.18 965.001,1280.46 975.435,1291.79 985.87,1271.34 996.304,1276.39 1006.74,1286.31 1017.17,1272.29 1027.61,1247.97 1038.04,1260.9 1048.48,1256.7 1058.91,1249.47 1069.34,1252.28 1079.78,1208.76 1090.21,1227.2 1100.65,1189.42 1111.08,1173.15 1121.51,1140.76 1131.95,1141.45 1142.38,1141.54 1152.82,1121.43 1163.25,1084.59 1173.69,1041.8 1184.12,996.484 1194.55,993.85 1204.99,939.187 1215.42,920.56 1225.86,887.302 1236.29,847.918 1246.73,786.787 1257.16,726.839 1267.59,676.066 1278.03,656.262 1288.46,587.053 1298.9,558.345 1309.33,512.409 1319.77,467.93 1330.2,407.362 1340.63,345.731 1351.07,316.325 1361.5,312.806 1371.94,233.462 1382.37,254.276 1392.81,190.439 1403.24,156.358 1413.67,144.638 1424.11,116.07 1434.54,124.14 1444.98,105.248 1455.41,98.7214 1465.84,116.391 1476.28,87.9763 1486.71,108.568 1497.15,132.988 1507.58,162.658 1518.02,181.91 1528.45,222.38 1538.88,252.833 1549.32,267.641 1559.75,340.303 1570.19,384.475 1580.62,379.406 1591.06,437.799 1601.49,502.132 1611.92,551.286 1622.36,568.051 1632.79,628.607 1643.23,676.222 1653.66,727.311 1664.1,753.446 1674.53,821.041 1684.96,845.467 1695.4,904.764 1705.83,884.41 1716.27,962.38 1726.7,974.155 1737.14,1009.25 1747.57,1012.62 1758,1047.86 1768.44,1064.68 1778.87,1086.09 1789.31,1097.93 1799.74,1122.87 1810.18,1152.91 1820.61,1140.64 1831.04,1173.97 1841.48,1202.07 1851.91,1212.17 1862.35,1181.25 1872.78,1198.48 1883.21,1189.45 1893.65,1204.91 1904.08,1206.7 1914.52,1215.65 1924.95,1205.61 1935.39,1226.38 1945.82,1200.79 1956.25,1220.45 1966.69,1218.53 1977.12,1214.75 1987.56,1205.74 1997.99,1219.82 2008.43,1221.41 2018.86,1205.7 2029.29,1219.11 2039.73,1218.25 2050.16,1227.09 2060.6,1198.97 2071.03,1226.13 2081.47,1216.72 2091.9,1195.31 2102.33,1198.92 2112.77,1213.43 2123.2,1199.41 2133.64,1204.8 2144.07,1208.04 2154.51,1225.88 2164.94,1184.42 2175.37,1198.34 2185.81,1179.52 2196.24,1225.29 2206.68,1199.56 2217.11,1184.92 2227.54,1203.86 2237.98,1207.61 2248.41,1195.98 2258.85,1186.86 2269.28,1210.51 2279.72,1187.92 2290.15,1195.74 "/>
<path clip-path="url(#clip270)" d="M2005.38 250.738 L2279.02 250.738 L2279.02 95.2176 L2005.38 95.2176  Z" fill="#ffffff" fill-rule="evenodd" fill-opacity="1"/>
<polyline clip-path="url(#clip270)" style="stroke:#000000; stroke-linecap:round; stroke-linejoin:round; stroke-width:4; stroke-opacity:1; fill:none" points="2005.38,250.738 2279.02,250.738 2279.02,95.2176 2005.38,95.2176 2005.38,250.738 "/>
<polyline clip-path="url(#clip270)" style="stroke:#009af9; stroke-linecap:round; stroke-linejoin:round; stroke-width:4; stroke-opacity:1; fill:none" points="2029.96,147.058 2177.43,147.058 "/>
<path clip-path="url(#clip270)" d="M2215.85 166.745 Q2214.05 171.375 2212.34 172.787 Q2210.62 174.199 2207.75 174.199 L2204.35 174.199 L2204.35 170.634 L2206.85 170.634 Q2208.61 170.634 2209.58 169.8 Q2210.55 168.967 2211.73 165.865 L2212.5 163.921 L2202.01 138.412 L2206.53 138.412 L2214.63 158.689 L2222.73 138.412 L2227.24 138.412 L2215.85 166.745 Z" fill="#000000" fill-rule="nonzero" fill-opacity="1" /><path clip-path="url(#clip270)" d="M2234.53 160.402 L2242.17 160.402 L2242.17 134.037 L2233.86 135.703 L2233.86 131.444 L2242.13 129.778 L2246.8 129.778 L2246.8 160.402 L2254.44 160.402 L2254.44 164.338 L2234.53 164.338 L2234.53 160.402 Z" fill="#000000" fill-rule="nonzero" fill-opacity="1" /><polyline clip-path="url(#clip270)" style="stroke:#e26f46; stroke-linecap:round; stroke-linejoin:round; stroke-width:4; stroke-opacity:1; fill:none" points="2029.96,198.898 2177.43,198.898 "/>
<path clip-path="url(#clip270)" d="M2215.85 218.585 Q2214.05 223.215 2212.34 224.627 Q2210.62 226.039 2207.75 226.039 L2204.35 226.039 L2204.35 222.474 L2206.85 222.474 Q2208.61 222.474 2209.58 221.64 Q2210.55 220.807 2211.73 217.705 L2212.5 215.761 L2202.01 190.252 L2206.53 190.252 L2214.63 210.529 L2222.73 190.252 L2227.24 190.252 L2215.85 218.585 Z" fill="#000000" fill-rule="nonzero" fill-opacity="1" /><path clip-path="url(#clip270)" d="M2237.75 212.242 L2254.07 212.242 L2254.07 216.178 L2232.13 216.178 L2232.13 212.242 Q2234.79 209.488 2239.37 204.858 Q2243.98 200.205 2245.16 198.863 Q2247.41 196.34 2248.28 194.604 Q2249.19 192.844 2249.19 191.155 Q2249.19 188.4 2247.24 186.664 Q2245.32 184.928 2242.22 184.928 Q2240.02 184.928 2237.57 185.692 Q2235.14 186.455 2232.36 188.006 L2232.36 183.284 Q2235.18 182.15 2237.64 181.571 Q2240.09 180.993 2242.13 180.993 Q2247.5 180.993 2250.69 183.678 Q2253.89 186.363 2253.89 190.854 Q2253.89 192.983 2253.08 194.905 Q2252.29 196.803 2250.18 199.395 Q2249.6 200.067 2246.5 203.284 Q2243.4 206.479 2237.75 212.242 Z" fill="#000000" fill-rule="nonzero" fill-opacity="1" /></svg>
