<?xml version="1.0" encoding="utf-8"?>
<svg xmlns="http://www.w3.org/2000/svg" xmlns:xlink="http://www.w3.org/1999/xlink" width="600" height="400" viewBox="0 0 2400 1600">
<defs>
  <clipPath id="clip300">
    <rect x="0" y="0" width="2400" height="1600"/>
  </clipPath>
</defs>
<path clip-path="url(#clip300)" d="M0 1600 L2400 1600 L2400 0 L0 0  Z" fill="#ffffff" fill-rule="evenodd" fill-opacity="1"/>
<defs>
  <clipPath id="clip301">
    <rect x="480" y="0" width="1681" height="1600"/>
  </clipPath>
</defs>
<path clip-path="url(#clip300)" d="M140.696 1486.45 L2352.76 1486.45 L2352.76 47.2441 L140.696 47.2441  Z" fill="#ffffff" fill-rule="evenodd" fill-opacity="1"/>
<defs>
  <clipPath id="clip302">
    <rect x="140" y="47" width="2213" height="1440"/>
  </clipPath>
</defs>
<polyline clip-path="url(#clip302)" style="stroke:#000000; stroke-linecap:round; stroke-linejoin:round; stroke-width:2; stroke-opacity:0.1; fill:none" points="203.301,1486.45 203.301,47.2441 "/>
<polyline clip-path="url(#clip302)" style="stroke:#000000; stroke-linecap:round; stroke-linejoin:round; stroke-width:2; stroke-opacity:0.1; fill:none" points="725.013,1486.45 725.013,47.2441 "/>
<polyline clip-path="url(#clip302)" style="stroke:#000000; stroke-linecap:round; stroke-linejoin:round; stroke-width:2; stroke-opacity:0.1; fill:none" points="1246.73,1486.45 1246.73,47.2441 "/>
<polyline clip-path="url(#clip302)" style="stroke:#000000; stroke-linecap:round; stroke-linejoin:round; stroke-width:2; stroke-opacity:0.1; fill:none" points="1768.44,1486.45 1768.44,47.2441 "/>
<polyline clip-path="url(#clip302)" style="stroke:#000000; stroke-linecap:round; stroke-linejoin:round; stroke-width:2; stroke-opacity:0.1; fill:none" points="2290.15,1486.45 2290.15,47.2441 "/>
<polyline clip-path="url(#clip302)" style="stroke:#000000; stroke-linecap:round; stroke-linejoin:round; stroke-width:2; stroke-opacity:0.1; fill:none" points="140.696,1371.51 2352.76,1371.51 "/>
<polyline clip-path="url(#clip302)" style="stroke:#000000; stroke-linecap:round; stroke-linejoin:round; stroke-width:2; stroke-opacity:0.1; fill:none" points="140.696,1080.6 2352.76,1080.6 "/>
<polyline clip-path="url(#clip302)" style="stroke:#000000; stroke-linecap:round; stroke-linejoin:round; stroke-width:2; stroke-opacity:0.1; fill:none" points="140.696,789.687 2352.76,789.687 "/>
<polyline clip-path="url(#clip302)" style="stroke:#000000; stroke-linecap:round; stroke-linejoin:round; stroke-width:2; stroke-opacity:0.1; fill:none" points="140.696,498.776 2352.76,498.776 "/>
<polyline clip-path="url(#clip302)" style="stroke:#000000; stroke-linecap:round; stroke-linejoin:round; stroke-width:2; stroke-opacity:0.1; fill:none" points="140.696,207.866 2352.76,207.866 "/>
<polyline clip-path="url(#clip300)" style="stroke:#000000; stroke-linecap:round; stroke-linejoin:round; stroke-width:4; stroke-opacity:1; fill:none" points="140.696,1486.45 2352.76,1486.45 "/>
<polyline clip-path="url(#clip300)" style="stroke:#000000; stroke-linecap:round; stroke-linejoin:round; stroke-width:4; stroke-opacity:1; fill:none" points="203.301,1486.45 203.301,1467.55 "/>
<polyline clip-path="url(#clip300)" style="stroke:#000000; stroke-linecap:round; stroke-linejoin:round; stroke-width:4; stroke-opacity:1; fill:none" points="725.013,1486.45 725.013,1467.55 "/>
<polyline clip-path="url(#clip300)" style="stroke:#000000; stroke-linecap:round; stroke-linejoin:round; stroke-width:4; stroke-opacity:1; fill:none" points="1246.73,1486.45 1246.73,1467.55 "/>
<polyline clip-path="url(#clip300)" style="stroke:#000000; stroke-linecap:round; stroke-linejoin:round; stroke-width:4; stroke-opacity:1; fill:none" points="1768.44,1486.45 1768.44,1467.55 "/>
<polyline clip-path="url(#clip300)" style="stroke:#000000; stroke-linecap:round; stroke-linejoin:round; stroke-width:4; stroke-opacity:1; fill:none" points="2290.15,1486.45 2290.15,1467.55 "/>
<path clip-path="url(#clip300)" d="M203.301 1517.37 Q199.69 1517.37 197.861 1520.93 Q196.056 1524.47 196.056 1531.6 Q196.056 1538.71 197.861 1542.27 Q199.69 1545.82 203.301 1545.82 Q206.935 1545.82 208.741 1542.27 Q210.57 1538.71 210.57 1531.6 Q210.57 1524.47 208.741 1520.93 Q206.935 1517.37 203.301 1517.37 M203.301 1513.66 Q209.111 1513.66 212.167 1518.27 Q215.245 1522.85 215.245 1531.6 Q215.245 1540.33 212.167 1544.94 Q209.111 1549.52 203.301 1549.52 Q197.491 1549.52 194.412 1544.94 Q191.357 1540.33 191.357 1531.6 Q191.357 1522.85 194.412 1518.27 Q197.491 1513.66 203.301 1513.66 Z" fill="#000000" fill-rule="nonzero" fill-opacity="1" /><path clip-path="url(#clip300)" d="M704.284 1544.91 L720.604 1544.91 L720.604 1548.85 L698.659 1548.85 L698.659 1544.91 Q701.321 1542.16 705.905 1537.53 Q710.511 1532.88 711.692 1531.53 Q713.937 1529.01 714.817 1527.27 Q715.719 1525.51 715.719 1523.82 Q715.719 1521.07 713.775 1519.33 Q711.854 1517.6 708.752 1517.6 Q706.553 1517.6 704.099 1518.36 Q701.669 1519.13 698.891 1520.68 L698.891 1515.95 Q701.715 1514.82 704.169 1514.24 Q706.622 1513.66 708.659 1513.66 Q714.03 1513.66 717.224 1516.35 Q720.418 1519.03 720.418 1523.52 Q720.418 1525.65 719.608 1527.57 Q718.821 1529.47 716.715 1532.07 Q716.136 1532.74 713.034 1535.95 Q709.932 1539.15 704.284 1544.91 Z" fill="#000000" fill-rule="nonzero" fill-opacity="1" /><path clip-path="url(#clip300)" d="M730.465 1514.29 L748.821 1514.29 L748.821 1518.22 L734.747 1518.22 L734.747 1526.7 Q735.766 1526.35 736.784 1526.19 Q737.803 1526 738.821 1526 Q744.608 1526 747.988 1529.17 Q751.367 1532.34 751.367 1537.76 Q751.367 1543.34 747.895 1546.44 Q744.423 1549.52 738.104 1549.52 Q735.928 1549.52 733.659 1549.15 Q731.414 1548.78 729.006 1548.04 L729.006 1543.34 Q731.09 1544.47 733.312 1545.03 Q735.534 1545.58 738.011 1545.58 Q742.016 1545.58 744.354 1543.48 Q746.691 1541.37 746.691 1537.76 Q746.691 1534.15 744.354 1532.04 Q742.016 1529.94 738.011 1529.94 Q736.136 1529.94 734.261 1530.35 Q732.409 1530.77 730.465 1531.65 L730.465 1514.29 Z" fill="#000000" fill-rule="nonzero" fill-opacity="1" /><path clip-path="url(#clip300)" d="M1221.42 1514.29 L1239.78 1514.29 L1239.78 1518.22 L1225.71 1518.22 L1225.71 1526.7 Q1226.73 1526.35 1227.74 1526.19 Q1228.76 1526 1229.78 1526 Q1235.57 1526 1238.95 1529.17 Q1242.33 1532.34 1242.33 1537.76 Q1242.33 1543.34 1238.86 1546.44 Q1235.38 1549.52 1229.06 1549.52 Q1226.89 1549.52 1224.62 1549.15 Q1222.37 1548.78 1219.97 1548.04 L1219.97 1543.34 Q1222.05 1544.47 1224.27 1545.03 Q1226.49 1545.58 1228.97 1545.58 Q1232.98 1545.58 1235.31 1543.48 Q1237.65 1541.37 1237.65 1537.76 Q1237.65 1534.15 1235.31 1532.04 Q1232.98 1529.94 1228.97 1529.94 Q1227.1 1529.94 1225.22 1530.35 Q1223.37 1530.77 1221.42 1531.65 L1221.42 1514.29 Z" fill="#000000" fill-rule="nonzero" fill-opacity="1" /><path clip-path="url(#clip300)" d="M1261.54 1517.37 Q1257.93 1517.37 1256.1 1520.93 Q1254.3 1524.47 1254.3 1531.6 Q1254.3 1538.71 1256.1 1542.27 Q1257.93 1545.82 1261.54 1545.82 Q1265.17 1545.82 1266.98 1542.27 Q1268.81 1538.71 1268.81 1531.6 Q1268.81 1524.47 1266.98 1520.93 Q1265.17 1517.37 1261.54 1517.37 M1261.54 1513.66 Q1267.35 1513.66 1270.41 1518.27 Q1273.48 1522.85 1273.48 1531.6 Q1273.48 1540.33 1270.41 1544.94 Q1267.35 1549.52 1261.54 1549.52 Q1255.73 1549.52 1252.65 1544.94 Q1249.6 1540.33 1249.6 1531.6 Q1249.6 1522.85 1252.65 1518.27 Q1255.73 1513.66 1261.54 1513.66 Z" fill="#000000" fill-rule="nonzero" fill-opacity="1" /><path clip-path="url(#clip300)" d="M1742.29 1514.29 L1764.51 1514.29 L1764.51 1516.28 L1751.97 1548.85 L1747.08 1548.85 L1758.89 1518.22 L1742.29 1518.22 L1742.29 1514.29 Z" fill="#000000" fill-rule="nonzero" fill-opacity="1" /><path clip-path="url(#clip300)" d="M1773.68 1514.29 L1792.04 1514.29 L1792.04 1518.22 L1777.96 1518.22 L1777.96 1526.7 Q1778.98 1526.35 1780 1526.19 Q1781.02 1526 1782.04 1526 Q1787.82 1526 1791.2 1529.17 Q1794.58 1532.34 1794.58 1537.76 Q1794.58 1543.34 1791.11 1546.44 Q1787.64 1549.52 1781.32 1549.52 Q1779.14 1549.52 1776.88 1549.15 Q1774.63 1548.78 1772.22 1548.04 L1772.22 1543.34 Q1774.31 1544.47 1776.53 1545.03 Q1778.75 1545.58 1781.23 1545.58 Q1785.23 1545.58 1787.57 1543.48 Q1789.91 1541.37 1789.91 1537.76 Q1789.91 1534.15 1787.57 1532.04 Q1785.23 1529.94 1781.23 1529.94 Q1779.35 1529.94 1777.48 1530.35 Q1775.63 1530.77 1773.68 1531.65 L1773.68 1514.29 Z" fill="#000000" fill-rule="nonzero" fill-opacity="1" /><path clip-path="url(#clip300)" d="M2249.76 1544.91 L2257.4 1544.91 L2257.4 1518.55 L2249.09 1520.21 L2249.09 1515.95 L2257.35 1514.29 L2262.03 1514.29 L2262.03 1544.91 L2269.66 1544.91 L2269.66 1548.85 L2249.76 1548.85 L2249.76 1544.91 Z" fill="#000000" fill-rule="nonzero" fill-opacity="1" /><path clip-path="url(#clip300)" d="M2289.11 1517.37 Q2285.5 1517.37 2283.67 1520.93 Q2281.86 1524.47 2281.86 1531.6 Q2281.86 1538.71 2283.67 1542.27 Q2285.5 1545.82 2289.11 1545.82 Q2292.74 1545.82 2294.55 1542.27 Q2296.38 1538.71 2296.38 1531.6 Q2296.38 1524.47 2294.55 1520.93 Q2292.74 1517.37 2289.11 1517.37 M2289.11 1513.66 Q2294.92 1513.66 2297.97 1518.27 Q2301.05 1522.85 2301.05 1531.6 Q2301.05 1540.33 2297.97 1544.94 Q2294.92 1549.52 2289.11 1549.52 Q2283.3 1549.52 2280.22 1544.94 Q2277.16 1540.33 2277.16 1531.6 Q2277.16 1522.85 2280.22 1518.27 Q2283.3 1513.66 2289.11 1513.66 Z" fill="#000000" fill-rule="nonzero" fill-opacity="1" /><path clip-path="url(#clip300)" d="M2319.27 1517.37 Q2315.66 1517.37 2313.83 1520.93 Q2312.03 1524.47 2312.03 1531.6 Q2312.03 1538.71 2313.83 1542.27 Q2315.66 1545.82 2319.27 1545.82 Q2322.9 1545.82 2324.71 1542.27 Q2326.54 1538.71 2326.54 1531.6 Q2326.54 1524.47 2324.71 1520.93 Q2322.9 1517.37 2319.27 1517.37 M2319.27 1513.66 Q2325.08 1513.66 2328.14 1518.27 Q2331.22 1522.85 2331.22 1531.6 Q2331.22 1540.33 2328.14 1544.94 Q2325.08 1549.52 2319.27 1549.52 Q2313.46 1549.52 2310.38 1544.94 Q2307.33 1540.33 2307.33 1531.6 Q2307.33 1522.85 2310.38 1518.27 Q2313.46 1513.66 2319.27 1513.66 Z" fill="#000000" fill-rule="nonzero" fill-opacity="1" /><polyline clip-path="url(#clip300)" style="stroke:#000000; stroke-linecap:round; stroke-linejoin:round; stroke-width:4; stroke-opacity:1; fill:none" points="140.696,1486.45 140.696,47.2441 "/>
<polyline clip-path="url(#clip300)" style="stroke:#000000; stroke-linecap:round; stroke-linejoin:round; stroke-width:4; stroke-opacity:1; fill:none" points="140.696,1371.51 159.593,1371.51 "/>
<polyline clip-path="url(#clip300)" style="stroke:#000000; stroke-linecap:round; stroke-linejoin:round; stroke-width:4; stroke-opacity:1; fill:none" points="140.696,1080.6 159.593,1080.6 "/>
<polyline clip-path="url(#clip300)" style="stroke:#000000; stroke-linecap:round; stroke-linejoin:round; stroke-width:4; stroke-opacity:1; fill:none" points="140.696,789.687 159.593,789.687 "/>
<polyline clip-path="url(#clip300)" style="stroke:#000000; stroke-linecap:round; stroke-linejoin:round; stroke-width:4; stroke-opacity:1; fill:none" points="140.696,498.776 159.593,498.776 "/>
<polyline clip-path="url(#clip300)" style="stroke:#000000; stroke-linecap:round; stroke-linejoin:round; stroke-width:4; stroke-opacity:1; fill:none" points="140.696,207.866 159.593,207.866 "/>
<path clip-path="url(#clip300)" d="M92.7512 1357.31 Q89.1401 1357.31 87.3114 1360.87 Q85.5058 1364.41 85.5058 1371.54 Q85.5058 1378.65 87.3114 1382.21 Q89.1401 1385.76 92.7512 1385.76 Q96.3854 1385.76 98.1909 1382.21 Q100.02 1378.65 100.02 1371.54 Q100.02 1364.41 98.1909 1360.87 Q96.3854 1357.31 92.7512 1357.31 M92.7512 1353.6 Q98.5613 1353.6 101.617 1358.21 Q104.696 1362.79 104.696 1371.54 Q104.696 1380.27 101.617 1384.88 Q98.5613 1389.46 92.7512 1389.46 Q86.941 1389.46 83.8623 1384.88 Q80.8068 1380.27 80.8068 1371.54 Q80.8068 1362.79 83.8623 1358.21 Q86.941 1353.6 92.7512 1353.6 Z" fill="#000000" fill-rule="nonzero" fill-opacity="1" /><path clip-path="url(#clip300)" d="M83.7929 1063.32 L102.149 1063.32 L102.149 1067.25 L88.0753 1067.25 L88.0753 1075.72 Q89.0938 1075.38 90.1123 1075.22 Q91.1308 1075.03 92.1493 1075.03 Q97.9363 1075.03 101.316 1078.2 Q104.696 1081.37 104.696 1086.79 Q104.696 1092.37 101.223 1095.47 Q97.7511 1098.55 91.4317 1098.55 Q89.2558 1098.55 86.9873 1098.18 Q84.7419 1097.81 82.3346 1097.07 L82.3346 1092.37 Q84.4179 1093.5 86.6401 1094.06 Q88.8623 1094.61 91.3391 1094.61 Q95.3437 1094.61 97.6817 1092.51 Q100.02 1090.4 100.02 1086.79 Q100.02 1083.18 97.6817 1081.07 Q95.3437 1078.97 91.3391 1078.97 Q89.4641 1078.97 87.5892 1079.38 Q85.7373 1079.8 83.7929 1080.68 L83.7929 1063.32 Z" fill="#000000" fill-rule="nonzero" fill-opacity="1" /><path clip-path="url(#clip300)" d="M53.3995 803.032 L61.0384 803.032 L61.0384 776.666 L52.7282 778.333 L52.7282 774.073 L60.9921 772.407 L65.668 772.407 L65.668 803.032 L73.3068 803.032 L73.3068 806.967 L53.3995 806.967 L53.3995 803.032 Z" fill="#000000" fill-rule="nonzero" fill-opacity="1" /><path clip-path="url(#clip300)" d="M92.7512 775.485 Q89.1401 775.485 87.3114 779.05 Q85.5058 782.592 85.5058 789.721 Q85.5058 796.828 87.3114 800.393 Q89.1401 803.934 92.7512 803.934 Q96.3854 803.934 98.1909 800.393 Q100.02 796.828 100.02 789.721 Q100.02 782.592 98.1909 779.05 Q96.3854 775.485 92.7512 775.485 M92.7512 771.782 Q98.5613 771.782 101.617 776.388 Q104.696 780.971 104.696 789.721 Q104.696 798.448 101.617 803.055 Q98.5613 807.638 92.7512 807.638 Q86.941 807.638 83.8623 803.055 Q80.8068 798.448 80.8068 789.721 Q80.8068 780.971 83.8623 776.388 Q86.941 771.782 92.7512 771.782 Z" fill="#000000" fill-rule="nonzero" fill-opacity="1" /><path clip-path="url(#clip300)" d="M54.3949 512.121 L62.0337 512.121 L62.0337 485.756 L53.7236 487.422 L53.7236 483.163 L61.9874 481.496 L66.6633 481.496 L66.6633 512.121 L74.3022 512.121 L74.3022 516.056 L54.3949 516.056 L54.3949 512.121 Z" fill="#000000" fill-rule="nonzero" fill-opacity="1" /><path clip-path="url(#clip300)" d="M83.7929 481.496 L102.149 481.496 L102.149 485.432 L88.0753 485.432 L88.0753 493.904 Q89.0938 493.556 90.1123 493.394 Q91.1308 493.209 92.1493 493.209 Q97.9363 493.209 101.316 496.381 Q104.696 499.552 104.696 504.968 Q104.696 510.547 101.223 513.649 Q97.7511 516.728 91.4317 516.728 Q89.2558 516.728 86.9873 516.357 Q84.7419 515.987 82.3346 515.246 L82.3346 510.547 Q84.4179 511.681 86.6401 512.237 Q88.8623 512.792 91.3391 512.792 Q95.3437 512.792 97.6817 510.686 Q100.02 508.58 100.02 504.968 Q100.02 501.357 97.6817 499.251 Q95.3437 497.144 91.3391 497.144 Q89.4641 497.144 87.5892 497.561 Q85.7373 497.978 83.7929 498.857 L83.7929 481.496 Z" fill="#000000" fill-rule="nonzero" fill-opacity="1" /><path clip-path="url(#clip300)" d="M56.6171 221.211 L72.9365 221.211 L72.9365 225.146 L50.9921 225.146 L50.9921 221.211 Q53.6541 218.456 58.2375 213.827 Q62.8439 209.174 64.0245 207.831 Q66.2698 205.308 67.1494 203.572 Q68.0522 201.813 68.0522 200.123 Q68.0522 197.368 66.1078 195.632 Q64.1865 193.896 61.0847 193.896 Q58.8856 193.896 56.4319 194.66 Q54.0014 195.424 51.2236 196.975 L51.2236 192.253 Q54.0477 191.118 56.5014 190.54 Q58.955 189.961 60.9921 189.961 Q66.3624 189.961 69.5568 192.646 Q72.7513 195.331 72.7513 199.822 Q72.7513 201.952 71.9411 203.873 Q71.1541 205.771 69.0476 208.364 Q68.4689 209.035 65.367 212.253 Q62.2652 215.447 56.6171 221.211 Z" fill="#000000" fill-rule="nonzero" fill-opacity="1" /><path clip-path="url(#clip300)" d="M92.7512 193.665 Q89.1401 193.665 87.3114 197.229 Q85.5058 200.771 85.5058 207.901 Q85.5058 215.007 87.3114 218.572 Q89.1401 222.114 92.7512 222.114 Q96.3854 222.114 98.1909 218.572 Q100.02 215.007 100.02 207.901 Q100.02 200.771 98.1909 197.229 Q96.3854 193.665 92.7512 193.665 M92.7512 189.961 Q98.5613 189.961 101.617 194.567 Q104.696 199.151 104.696 207.901 Q104.696 216.628 101.617 221.234 Q98.5613 225.817 92.7512 225.817 Q86.941 225.817 83.8623 221.234 Q80.8068 216.628 80.8068 207.901 Q80.8068 199.151 83.8623 194.567 Q86.941 189.961 92.7512 189.961 Z" fill="#000000" fill-rule="nonzero" fill-opacity="1" /><polyline clip-path="url(#clip302)" style="stroke:#009af9; stroke-linecap:round; stroke-linejoin:round; stroke-width:4; stroke-opacity:1; fill:none" points="203.301,1333.64 213.735,1380.65 224.17,1380.7 234.604,1364.99 245.038,1243.56 255.472,1445.72 265.907,1367.57 276.341,1404.09 286.775,1325.77 297.209,1349.82 307.643,1366.06 318.078,1354.34 328.512,1345.5 338.946,1413.56 349.38,1322.09 359.815,1303.47 370.249,1329.28 380.683,1327.67 391.117,1323.77 401.552,1340.88 411.986,1347.19 422.42,1296.88 432.854,1339.8 443.289,1299.71 453.723,1347.67 464.157,1291.02 474.591,1346.77 485.026,1300.98 495.46,1317.92 505.894,1308.3 516.328,1234.93 526.763,1336.13 537.197,1270.2 547.631,1314.02 558.065,1266.3 568.5,1273.09 578.934,1311.48 589.368,1274.23 599.802,1271.4 610.237,1247.1 620.671,1304.49 631.105,1242.12 641.539,1260.37 651.974,1256.33 662.408,1272.6 672.842,1271.43 683.276,1298.31 693.711,1259.3 704.145,1248.91 714.579,1191.24 725.013,1259.46 735.448,1266.04 745.882,1252.12 756.316,1201.31 766.75,1209.02 777.185,1231.6 787.619,1238.83 798.053,1240.1 808.487,1215.94 818.922,1227.64 829.356,1211.11 839.79,1203.48 850.224,1145.57 860.659,1116.23 871.093,1141.44 881.527,1131.16 891.961,1080.94 902.396,1045.09 912.83,975.764 923.264,978.926 933.698,909.074 944.133,875.241 954.567,842.442 965.001,765.527 975.435,749.75 985.87,679.829 996.304,702.383 1006.74,649.401 1017.17,691.476 1027.61,589.519 1038.04,599.964 1048.48,623.282 1058.91,614.029 1069.34,633.955 1079.78,600.099 1090.21,710.463 1100.65,733.874 1111.08,762.078 1121.51,815.765 1131.95,854.659 1142.38,887.562 1152.82,880.728 1163.25,984.71 1173.69,974.626 1184.12,941.09 1194.55,1001.52 1204.99,1049.78 1215.42,1049.02 1225.86,1049.44 1236.29,1104.37 1246.73,1085.94 1257.16,1095.74 1267.59,1085.74 1278.03,1143.31 1288.46,1135.07 1298.9,1134.4 1309.33,1130.32 1319.77,1116.04 1330.2,1166.18 1340.63,1140.51 1351.07,1046.94 1361.5,1076.34 1371.94,1125.05 1382.37,1087.66 1392.81,1091.99 1403.24,1143.82 1413.67,1134.56 1424.11,1078.06 1434.54,1085.64 1444.98,1081.89 1455.41,1101.59 1465.84,1102.78 1476.28,1068.41 1486.71,1067.27 1497.15,1064.2 1507.58,1079.39 1518.02,1085.66 1528.45,1038.65 1538.88,1043.59 1549.32,1085.43 1559.75,1053.84 1570.19,1048.97 1580.62,1067.77 1591.06,1064.28 1601.49,1033.93 1611.92,1035.06 1622.36,1054.17 1632.79,1027.87 1643.23,992.282 1653.66,1023.91 1664.1,1042.83 1674.53,1056.23 1684.96,1115.77 1695.4,1051.42 1705.83,1031.94 1716.27,1013.69 1726.7,1063.56 1737.14,995.321 1747.57,985.881 1758,1047.04 1768.44,1017.51 1778.87,1027.99 1789.31,1021.38 1799.74,993.724 1810.18,1025.24 1820.61,1000.23 1831.04,1012.15 1841.48,1010.25 1851.91,1014.65 1862.35,984.071 1872.78,984.508 1883.21,997.891 1893.65,1025.6 1904.08,978.361 1914.52,990.695 1924.95,948.574 1935.39,1011.88 1945.82,1013.21 1956.25,1013.87 1966.69,969.213 1977.12,977.876 1987.56,970.459 1997.99,946.466 2008.43,954.296 2018.86,930.94 2029.29,975.472 2039.73,933.688 2050.16,958.338 2060.6,943.159 2071.03,933.397 2081.47,922.494 2091.9,964.393 2102.33,963.37 2112.77,954.159 2123.2,917.073 2133.64,971.793 2144.07,908.586 2154.51,950.387 2164.94,970.462 2175.37,925.151 2185.81,942.664 2196.24,955.409 2206.68,938.512 2217.11,951.754 2227.54,930.717 2237.98,950.004 2248.41,879.253 2258.85,898.997 2269.28,938.71 2279.72,933.421 2290.15,911.452 "/>
<polyline clip-path="url(#clip302)" style="stroke:#e26f46; stroke-linecap:round; stroke-linejoin:round; stroke-width:4; stroke-opacity:1; fill:none" points="203.301,1344.09 213.735,1388.4 224.17,1363.33 234.604,1385.49 245.038,1383.16 255.472,1367.7 265.907,1365.15 276.341,1359.71 286.775,1358.94 297.209,1373.16 307.643,1359.79 318.078,1367.1 328.512,1396.04 338.946,1360.62 349.38,1369.96 359.815,1330.54 370.249,1363.8 380.683,1354.73 391.117,1359.26 401.552,1346.56 411.986,1350.4 422.42,1361.13 432.854,1339.18 443.289,1336.42 453.723,1359.53 464.157,1358.78 474.591,1356.96 485.026,1341.31 495.46,1353.3 505.894,1360.69 516.328,1332.72 526.763,1323.93 537.197,1332.84 547.631,1337.78 558.065,1314.2 568.5,1342.17 578.934,1325.73 589.368,1339.06 599.802,1312.04 610.237,1308.78 620.671,1344.32 631.105,1330.38 641.539,1337.42 651.974,1325.22 662.408,1310.19 672.842,1327.86 683.276,1338.88 693.711,1317.19 704.145,1336.71 714.579,1347.32 725.013,1353.74 735.448,1328.15 745.882,1320.24 756.316,1323.21 766.75,1316.78 777.185,1343.24 787.619,1320.22 798.053,1346.55 808.487,1326.09 818.922,1319.59 829.356,1311.26 839.79,1326.41 850.224,1312.9 860.659,1316.05 871.093,1284.95 881.527,1326.87 891.961,1309.75 902.396,1307.23 912.83,1296 923.264,1326.76 933.698,1318.13 944.133,1325.1 954.567,1315.18 965.001,1280.46 975.435,1291.79 985.87,1271.34 996.304,1276.39 1006.74,1286.31 1017.17,1272.29 1027.61,1247.97 1038.04,1260.9 1048.48,1256.7 1058.91,1249.47 1069.34,1252.28 1079.78,1208.76 1090.21,1227.2 1100.65,1189.42 1111.08,1173.15 1121.51,1140.76 1131.95,1141.45 1142.38,1141.54 1152.82,1121.43 1163.25,1084.59 1173.69,1041.8 1184.12,996.484 1194.55,993.85 1204.99,939.187 1215.42,920.56 1225.86,887.302 1236.29,847.918 1246.73,786.787 1257.16,726.839 1267.59,676.066 1278.03,656.262 1288.46,587.053 1298.9,558.345 1309.33,512.409 1319.77,467.93 1330.2,407.362 1340.63,345.731 1351.07,316.325 1361.5,312.806 1371.94,233.462 1382.37,254.276 1392.81,190.439 1403.24,156.358 1413.67,144.638 1424.11,116.07 1434.54,124.14 1444.98,105.248 1455.41,98.7214 1465.84,116.391 1476.28,87.9763 1486.71,108.568 1497.15,132.988 1507.58,162.658 1518.02,181.91 1528.45,222.38 1538.88,252.833 1549.32,267.641 1559.75,340.303 1570.19,384.475 1580.62,379.406 1591.06,437.799 1601.49,502.132 1611.92,551.286 1622.36,568.051 1632.79,628.607 1643.23,676.222 1653.66,727.311 1664.1,753.446 1674.53,821.041 1684.96,845.467 1695.4,904.764 1705.83,884.41 1716.27,962.38 1726.7,974.155 1737.14,1009.25 1747.57,1012.62 1758,1047.86 1768.44,1064.68 1778.87,1086.09 1789.31,1097.93 1799.74,1122.87 1810.18,1152.91 1820.61,1140.64 1831.04,1173.97 1841.48,1202.07 1851.91,1212.17 1862.35,1181.25 1872.78,1198.48 1883.21,1189.45 1893.65,1204.91 1904.08,1206.7 1914.52,1215.65 1924.95,1205.61 1935.39,1226.38 1945.82,1200.79 1956.25,1220.45 1966.69,1218.53 1977.12,1214.75 1987.56,1205.74 1997.99,1219.82 2008.43,1221.41 2018.86,1205.7 2029.29,1219.11 2039.73,1218.25 2050.16,1227.09 2060.6,1198.97 2071.03,1226.13 2081.47,1216.72 2091.9,1195.31 2102.33,1198.92 2112.77,1213.43 2123.2,1199.41 2133.64,1204.8 2144.07,1208.04 2154.51,1225.88 2164.94,1184.42 2175.37,1198.34 2185.81,1179.52 2196.24,1225.29 2206.68,1199.56 2217.11,1184.92 2227.54,1203.86 2237.98,1207.61 2248.41,1195.98 2258.85,1186.86 2269.28,1210.51 2279.72,1187.92 2290.15,1195.74 "/>
<polyline clip-path="url(#clip302)" style="stroke:#3da44d; stroke-linecap:round; stroke-linejoin:round; stroke-width:4; stroke-opacity:1; fill:none" points="203.301,1386.86 213.735,1384.01 224.17,1381.17 234.604,1378.32 245.038,1375.47 255.472,1372.63 265.907,1369.78 276.341,1366.93 286.775,1364.08 297.209,1361.22 307.643,1358.37 318.078,1355.52 328.512,1352.67 338.946,1349.82 349.38,1346.97 359.815,1344.13 370.249,1341.28 380.683,1338.44 391.117,1335.6 401.552,1332.77 411.986,1329.94 422.42,1327.11 432.854,1324.29 443.289,1321.47 453.723,1318.65 464.157,1315.83 474.591,1313.02 485.026,1310.22 495.46,1307.41 505.894,1304.61 516.328,1301.82 526.763,1299.03 537.197,1296.24 547.631,1293.46 558.065,1290.69 568.5,1287.92 578.934,1285.16 589.368,1282.4 599.802,1279.66 610.237,1276.92 620.671,1274.18 631.105,1271.46 641.539,1268.74 651.974,1266.04 662.408,1263.34 672.842,1260.64 683.276,1257.96 693.711,1255.28 704.145,1252.62 714.579,1249.96 725.013,1247.31 735.448,1244.67 745.882,1242.04 756.316,1239.42 766.75,1236.81 777.185,1234.21 787.619,1231.63 798.053,1229.06 808.487,1226.5 818.922,1223.95 829.356,1221.41 839.79,1218.89 850.224,1216.38 860.659,1213.88 871.093,1211.4 881.527,1208.92 891.961,1206.46 902.396,1204.02 912.83,1201.58 923.264,1199.16 933.698,1196.74 944.133,1194.34 954.567,1191.95 965.001,1189.57 975.435,1187.2 985.87,1184.85 996.304,1182.5 1006.74,1180.16 1017.17,1177.83 1027.61,1175.52 1038.04,1173.21 1048.48,1170.91 1058.91,1168.62 1069.34,1166.34 1079.78,1164.07 1090.21,1161.8 1100.65,1159.55 1111.08,1157.3 1121.51,1155.06 1131.95,1152.83 1142.38,1150.6 1152.82,1148.38 1163.25,1146.17 1173.69,1143.97 1184.12,1141.77 1194.55,1139.58 1204.99,1137.4 1215.42,1135.22 1225.86,1133.05 1236.29,1130.88 1246.73,1128.72 1257.16,1126.56 1267.59,1124.41 1278.03,1122.26 1288.46,1120.11 1298.9,1117.96 1309.33,1115.81 1319.77,1113.66 1330.2,1111.5 1340.63,1109.35 1351.07,1107.18 1361.5,1105.02 1371.94,1102.85 1382.37,1100.68 1392.81,1098.51 1403.24,1096.33 1413.67,1094.14 1424.11,1091.96 1434.54,1089.77 1444.98,1087.57 1455.41,1085.38 1465.84,1083.18 1476.28,1080.98 1486.71,1078.77 1497.15,1076.57 1507.58,1074.37 1518.02,1072.17 1528.45,1069.97 1538.88,1067.77 1549.32,1065.57 1559.75,1063.37 1570.19,1061.18 1580.62,1058.99 1591.06,1056.8 1601.49,1054.61 1611.92,1052.42 1622.36,1050.24 1632.79,1048.06 1643.23,1045.87 1653.66,1043.7 1664.1,1041.52 1674.53,1039.34 1684.96,1037.16 1695.4,1034.98 1705.83,1032.8 1716.27,1030.62 1726.7,1028.44 1737.14,1026.25 1747.57,1024.07 1758,1021.89 1768.44,1019.71 1778.87,1017.52 1789.31,1015.34 1799.74,1013.16 1810.18,1010.98 1820.61,1008.8 1831.04,1006.63 1841.48,1004.45 1851.91,1002.28 1862.35,1000.11 1872.78,997.941 1883.21,995.775 1893.65,993.613 1904.08,991.453 1914.52,989.297 1924.95,987.144 1935.39,984.996 1945.82,982.852 1956.25,980.712 1966.69,978.577 1977.12,976.448 1987.56,974.326 1997.99,972.211 2008.43,970.105 2018.86,968.008 2029.29,965.92 2039.73,963.842 2050.16,961.773 2060.6,959.713 2071.03,957.663 2081.47,955.622 2091.9,953.59 2102.33,951.565 2112.77,949.547 2123.2,947.535 2133.64,945.529 2144.07,943.528 2154.51,941.532 2164.94,939.538 2175.37,937.548 2185.81,935.559 2196.24,933.572 2206.68,931.585 2217.11,929.599 2227.54,927.614 2237.98,925.629 2248.41,923.644 2258.85,921.659 2269.28,919.675 2279.72,917.691 2290.15,915.707 "/>
<polyline clip-path="url(#clip302)" style="stroke:#c271d2; stroke-linecap:round; stroke-linejoin:round; stroke-width:4; stroke-opacity:1; fill:none" points="203.301,1376.46 213.735,1375.42 224.17,1374.37 234.604,1373.33 245.038,1372.29 255.472,1371.25 265.907,1370.2 276.341,1369.16 286.775,1368.12 297.209,1367.08 307.643,1366.04 318.078,1365 328.512,1363.96 338.946,1362.92 349.38,1361.88 359.815,1360.84 370.249,1359.81 380.683,1358.77 391.117,1357.74 401.552,1356.71 411.986,1355.68 422.42,1354.65 432.854,1353.63 443.289,1352.61 453.723,1351.59 464.157,1350.57 474.591,1349.56 485.026,1348.55 495.46,1347.54 505.894,1346.54 516.328,1345.54 526.763,1344.54 537.197,1343.54 547.631,1342.55 558.065,1341.56 568.5,1340.58 578.934,1339.6 589.368,1338.62 599.802,1337.64 610.237,1336.66 620.671,1335.69 631.105,1334.71 641.539,1333.74 651.974,1332.76 662.408,1331.79 672.842,1330.81 683.276,1329.83 693.711,1328.84 704.145,1327.85 714.579,1326.86 725.013,1325.86 735.448,1324.85 745.882,1323.83 756.316,1322.81 766.75,1321.78 777.185,1320.75 787.619,1319.7 798.053,1318.65 808.487,1317.59 818.922,1316.52 829.356,1315.44 839.79,1314.36 850.224,1313.26 860.659,1312.16 871.093,1311.06 881.527,1309.95 891.961,1308.83 902.396,1307.7 912.83,1306.57 923.264,1305.44 933.698,1304.3 944.133,1303.16 954.567,1302.02 965.001,1300.87 975.435,1299.72 985.87,1298.57 996.304,1297.42 1006.74,1296.27 1017.17,1295.13 1027.61,1293.98 1038.04,1292.84 1048.48,1291.7 1058.91,1290.57 1069.34,1289.43 1079.78,1288.3 1090.21,1287.17 1100.65,1286.05 1111.08,1284.93 1121.51,1283.81 1131.95,1282.69 1142.38,1281.58 1152.82,1280.47 1163.25,1279.37 1173.69,1278.27 1184.12,1277.17 1194.55,1276.08 1204.99,1274.99 1215.42,1273.9 1225.86,1272.82 1236.29,1271.74 1246.73,1270.67 1257.16,1269.61 1267.59,1268.54 1278.03,1267.48 1288.46,1266.43 1298.9,1265.38 1309.33,1264.34 1319.77,1263.3 1330.2,1262.27 1340.63,1261.24 1351.07,1260.22 1361.5,1259.2 1371.94,1258.19 1382.37,1257.18 1392.81,1256.18 1403.24,1255.19 1413.67,1254.2 1424.11,1253.22 1434.54,1252.24 1444.98,1251.27 1455.41,1250.31 1465.84,1249.35 1476.28,1248.4 1486.71,1247.46 1497.15,1246.52 1507.58,1245.59 1518.02,1244.67 1528.45,1243.75 1538.88,1242.85 1549.32,1241.94 1559.75,1241.05 1570.19,1240.16 1580.62,1239.28 1591.06,1238.41 1601.49,1237.55 1611.92,1236.69 1622.36,1235.84 1632.79,1235 1643.23,1234.17 1653.66,1233.35 1664.1,1232.53 1674.53,1231.73 1684.96,1230.93 1695.4,1230.14 1705.83,1229.36 1716.27,1228.59 1726.7,1227.82 1737.14,1227.07 1747.57,1226.32 1758,1225.59 1768.44,1224.86 1778.87,1224.14 1789.31,1223.43 1799.74,1222.74 1810.18,1222.05 1820.61,1221.37 1831.04,1220.7 1841.48,1220.04 1851.91,1219.39 1862.35,1218.75 1872.78,1218.12 1883.21,1217.5 1893.65,1216.89 1904.08,1216.29 1914.52,1215.7 1924.95,1215.11 1935.39,1214.54 1945.82,1213.97 1956.25,1213.4 1966.69,1212.84 1977.12,1212.28 1987.56,1211.73 1997.99,1211.18 2008.43,1210.63 2018.86,1210.09 2029.29,1209.55 2039.73,1209 2050.16,1208.46 2060.6,1207.92 2071.03,1207.38 2081.47,1206.84 2091.9,1206.29 2102.33,1205.75 2112.77,1205.21 2123.2,1204.67 2133.64,1204.13 2144.07,1203.58 2154.51,1203.04 2164.94,1202.5 2175.37,1201.95 2185.81,1201.41 2196.24,1200.86 2206.68,1200.32 2217.11,1199.78 2227.54,1199.23 2237.98,1198.69 2248.41,1198.14 2258.85,1197.6 2269.28,1197.05 2279.72,1196.51 2290.15,1195.96 "/>
<path clip-path="url(#clip300)" d="M1740.87 354.418 L2279.02 354.418 L2279.02 95.2176 L1740.87 95.2176  Z" fill="#ffffff" fill-rule="evenodd" fill-opacity="1"/>
<polyline clip-path="url(#clip300)" style="stroke:#000000; stroke-linecap:round; stroke-linejoin:round; stroke-width:4; stroke-opacity:1; fill:none" points="1740.87,354.418 2279.02,354.418 2279.02,95.2176 1740.87,95.2176 1740.87,354.418 "/>
<polyline clip-path="url(#clip300)" style="stroke:#009af9; stroke-linecap:round; stroke-linejoin:round; stroke-width:4; stroke-opacity:1; fill:none" points="1765.45,147.058 1912.92,147.058 "/>
<path clip-path="url(#clip300)" d="M1951.34 166.745 Q1949.54 171.375 1947.82 172.787 Q1946.11 174.199 1943.24 174.199 L1939.84 174.199 L1939.84 170.634 L1942.34 170.634 Q1944.1 170.634 1945.07 169.8 Q1946.04 168.967 1947.22 165.865 L1947.99 163.921 L1937.5 138.412 L1942.01 138.412 L1950.12 158.689 L1958.22 138.412 L1962.73 138.412 L1951.34 166.745 Z" fill="#000000" fill-rule="nonzero" fill-opacity="1" /><path clip-path="url(#clip300)" d="M1970.02 160.402 L1977.66 160.402 L1977.66 134.037 L1969.35 135.703 L1969.35 131.444 L1977.61 129.778 L1982.29 129.778 L1982.29 160.402 L1989.93 160.402 L1989.93 164.338 L1970.02 164.338 L1970.02 160.402 Z" fill="#000000" fill-rule="nonzero" fill-opacity="1" /><polyline clip-path="url(#clip300)" style="stroke:#e26f46; stroke-linecap:round; stroke-linejoin:round; stroke-width:4; stroke-opacity:1; fill:none" points="1765.45,198.898 1912.92,198.898 "/>
<path clip-path="url(#clip300)" d="M1951.34 218.585 Q1949.54 223.215 1947.82 224.627 Q1946.11 226.039 1943.24 226.039 L1939.84 226.039 L1939.84 222.474 L1942.34 222.474 Q1944.1 222.474 1945.07 221.64 Q1946.04 220.807 1947.22 217.705 L1947.99 215.761 L1937.5 190.252 L1942.01 190.252 L1950.12 210.529 L1958.22 190.252 L1962.73 190.252 L1951.34 218.585 Z" fill="#000000" fill-rule="nonzero" fill-opacity="1" /><path clip-path="url(#clip300)" d="M1973.24 212.242 L1989.56 212.242 L1989.56 216.178 L1967.61 216.178 L1967.61 212.242 Q1970.28 209.488 1974.86 204.858 Q1979.47 200.205 1980.65 198.863 Q1982.89 196.34 1983.77 194.604 Q1984.68 192.844 1984.68 191.155 Q1984.68 188.4 1982.73 186.664 Q1980.81 184.928 1977.71 184.928 Q1975.51 184.928 1973.05 185.692 Q1970.62 186.455 1967.85 188.006 L1967.85 183.284 Q1970.67 182.15 1973.12 181.571 Q1975.58 180.993 1977.61 180.993 Q1982.99 180.993 1986.18 183.678 Q1989.37 186.363 1989.37 190.854 Q1989.37 192.983 1988.56 194.905 Q1987.78 196.803 1985.67 199.395 Q1985.09 200.067 1981.99 203.284 Q1978.89 206.479 1973.24 212.242 Z" fill="#000000" fill-rule="nonzero" fill-opacity="1" /><polyline clip-path="url(#clip300)" style="stroke:#3da44d; stroke-linecap:round; stroke-linejoin:round; stroke-width:4; stroke-opacity:1; fill:none" points="1765.45,250.738 1912.92,250.738 "/>
<path clip-path="url(#clip300)" d="M1956.27 255.078 Q1956.27 250.379 1954.33 247.717 Q1952.41 245.032 1949.03 245.032 Q1945.65 245.032 1943.7 247.717 Q1941.78 250.379 1941.78 255.078 Q1941.78 259.777 1943.7 262.462 Q1945.65 265.124 1949.03 265.124 Q1952.41 265.124 1954.33 262.462 Q1956.27 259.777 1956.27 255.078 M1941.78 246.027 Q1943.12 243.712 1945.16 242.601 Q1947.22 241.467 1950.07 241.467 Q1954.79 241.467 1957.73 245.217 Q1960.69 248.967 1960.69 255.078 Q1960.69 261.189 1957.73 264.939 Q1954.79 268.689 1950.07 268.689 Q1947.22 268.689 1945.16 267.578 Q1943.12 266.443 1941.78 264.129 L1941.78 268.018 L1937.5 268.018 L1937.5 231.999 L1941.78 231.999 L1941.78 246.027 Z" fill="#000000" fill-rule="nonzero" fill-opacity="1" /><path clip-path="url(#clip300)" d="M1979.54 254.985 Q1974.37 254.985 1972.38 256.166 Q1970.39 257.346 1970.39 260.194 Q1970.39 262.462 1971.87 263.805 Q1973.38 265.124 1975.95 265.124 Q1979.49 265.124 1981.62 262.624 Q1983.77 260.101 1983.77 255.934 L1983.77 254.985 L1979.54 254.985 M1988.03 253.226 L1988.03 268.018 L1983.77 268.018 L1983.77 264.082 Q1982.31 266.443 1980.14 267.578 Q1977.96 268.689 1974.81 268.689 Q1970.83 268.689 1968.47 266.467 Q1966.13 264.221 1966.13 260.471 Q1966.13 256.096 1969.05 253.874 Q1971.99 251.652 1977.8 251.652 L1983.77 251.652 L1983.77 251.235 Q1983.77 248.295 1981.83 246.698 Q1979.91 245.078 1976.41 245.078 Q1974.19 245.078 1972.08 245.61 Q1969.98 246.143 1968.03 247.207 L1968.03 243.272 Q1970.37 242.37 1972.57 241.93 Q1974.77 241.467 1976.85 241.467 Q1982.48 241.467 1985.25 244.383 Q1988.03 247.3 1988.03 253.226 Z" fill="#000000" fill-rule="nonzero" fill-opacity="1" /><path clip-path="url(#clip300)" d="M2015.46 243.087 L2015.46 247.069 Q2013.66 246.073 2011.83 245.587 Q2010.02 245.078 2008.17 245.078 Q2004.03 245.078 2001.74 247.717 Q1999.44 250.332 1999.44 255.078 Q1999.44 259.823 2001.74 262.462 Q2004.03 265.078 2008.17 265.078 Q2010.02 265.078 2011.83 264.592 Q2013.66 264.082 2015.46 263.087 L2015.46 267.022 Q2013.68 267.856 2011.76 268.272 Q2009.86 268.689 2007.71 268.689 Q2001.85 268.689 1998.4 265.008 Q1994.95 261.328 1994.95 255.078 Q1994.95 248.735 1998.42 245.101 Q2001.92 241.467 2007.99 241.467 Q2009.95 241.467 2011.83 241.883 Q2013.7 242.277 2015.46 243.087 Z" fill="#000000" fill-rule="nonzero" fill-opacity="1" /><path clip-path="url(#clip300)" d="M2022.71 231.999 L2026.99 231.999 L2026.99 253.272 L2039.7 242.092 L2045.14 242.092 L2031.39 254.221 L2045.72 268.018 L2040.16 268.018 L2026.99 255.356 L2026.99 268.018 L2022.71 268.018 L2022.71 231.999 Z" fill="#000000" fill-rule="nonzero" fill-opacity="1" /><path clip-path="url(#clip300)" d="M2067.38 254.754 Q2067.38 250.124 2065.46 247.578 Q2063.56 245.032 2060.11 245.032 Q2056.69 245.032 2054.77 247.578 Q2052.87 250.124 2052.87 254.754 Q2052.87 259.36 2054.77 261.906 Q2056.69 264.453 2060.11 264.453 Q2063.56 264.453 2065.46 261.906 Q2067.38 259.36 2067.38 254.754 M2071.64 264.8 Q2071.64 271.42 2068.7 274.638 Q2065.76 277.879 2059.7 277.879 Q2057.45 277.879 2055.46 277.531 Q2053.47 277.207 2051.6 276.513 L2051.6 272.369 Q2053.47 273.388 2055.3 273.874 Q2057.13 274.36 2059.03 274.36 Q2063.22 274.36 2065.3 272.161 Q2067.38 269.985 2067.38 265.564 L2067.38 263.457 Q2066.06 265.749 2064 266.883 Q2061.94 268.018 2059.07 268.018 Q2054.3 268.018 2051.39 264.383 Q2048.47 260.749 2048.47 254.754 Q2048.47 248.735 2051.39 245.101 Q2054.3 241.467 2059.07 241.467 Q2061.94 241.467 2064 242.601 Q2066.06 243.735 2067.38 246.027 L2067.38 242.092 L2071.64 242.092 L2071.64 264.8 Z" fill="#000000" fill-rule="nonzero" fill-opacity="1" /><path clip-path="url(#clip300)" d="M2095.44 246.073 Q2094.72 245.657 2093.86 245.471 Q2093.03 245.263 2092.01 245.263 Q2088.4 245.263 2086.46 247.624 Q2084.54 249.962 2084.54 254.36 L2084.54 268.018 L2080.25 268.018 L2080.25 242.092 L2084.54 242.092 L2084.54 246.12 Q2085.88 243.758 2088.03 242.624 Q2090.18 241.467 2093.26 241.467 Q2093.7 241.467 2094.23 241.536 Q2094.77 241.583 2095.42 241.698 L2095.44 246.073 Z" fill="#000000" fill-rule="nonzero" fill-opacity="1" /><path clip-path="url(#clip300)" d="M2108.91 245.078 Q2105.48 245.078 2103.49 247.763 Q2101.5 250.425 2101.5 255.078 Q2101.5 259.731 2103.47 262.416 Q2105.46 265.078 2108.91 265.078 Q2112.31 265.078 2114.3 262.393 Q2116.29 259.707 2116.29 255.078 Q2116.29 250.471 2114.3 247.786 Q2112.31 245.078 2108.91 245.078 M2108.91 241.467 Q2114.47 241.467 2117.64 245.078 Q2120.81 248.689 2120.81 255.078 Q2120.81 261.444 2117.64 265.078 Q2114.47 268.689 2108.91 268.689 Q2103.33 268.689 2100.16 265.078 Q2097.01 261.444 2097.01 255.078 Q2097.01 248.689 2100.16 245.078 Q2103.33 241.467 2108.91 241.467 Z" fill="#000000" fill-rule="nonzero" fill-opacity="1" /><path clip-path="url(#clip300)" d="M2127.43 257.786 L2127.43 242.092 L2131.69 242.092 L2131.69 257.624 Q2131.69 261.305 2133.12 263.156 Q2134.56 264.985 2137.43 264.985 Q2140.88 264.985 2142.87 262.786 Q2144.88 260.587 2144.88 256.791 L2144.88 242.092 L2149.14 242.092 L2149.14 268.018 L2144.88 268.018 L2144.88 264.036 Q2143.33 266.397 2141.27 267.555 Q2139.23 268.689 2136.53 268.689 Q2132.06 268.689 2129.74 265.911 Q2127.43 263.133 2127.43 257.786 M2138.15 241.467 L2138.15 241.467 Z" fill="#000000" fill-rule="nonzero" fill-opacity="1" /><path clip-path="url(#clip300)" d="M2179.47 252.369 L2179.47 268.018 L2175.21 268.018 L2175.21 252.508 Q2175.21 248.828 2173.77 246.999 Q2172.34 245.17 2169.47 245.17 Q2166.02 245.17 2164.03 247.37 Q2162.04 249.569 2162.04 253.365 L2162.04 268.018 L2157.75 268.018 L2157.75 242.092 L2162.04 242.092 L2162.04 246.12 Q2163.56 243.782 2165.62 242.624 Q2167.71 241.467 2170.41 241.467 Q2174.88 241.467 2177.17 244.245 Q2179.47 246.999 2179.47 252.369 Z" fill="#000000" fill-rule="nonzero" fill-opacity="1" /><path clip-path="url(#clip300)" d="M2205.02 246.027 L2205.02 231.999 L2209.28 231.999 L2209.28 268.018 L2205.02 268.018 L2205.02 264.129 Q2203.68 266.443 2201.62 267.578 Q2199.58 268.689 2196.71 268.689 Q2192.01 268.689 2189.05 264.939 Q2186.11 261.189 2186.11 255.078 Q2186.11 248.967 2189.05 245.217 Q2192.01 241.467 2196.71 241.467 Q2199.58 241.467 2201.62 242.601 Q2203.68 243.712 2205.02 246.027 M2190.51 255.078 Q2190.51 259.777 2192.43 262.462 Q2194.37 265.124 2197.75 265.124 Q2201.13 265.124 2203.08 262.462 Q2205.02 259.777 2205.02 255.078 Q2205.02 250.379 2203.08 247.717 Q2201.13 245.032 2197.75 245.032 Q2194.37 245.032 2192.43 247.717 Q2190.51 250.379 2190.51 255.078 Z" fill="#000000" fill-rule="nonzero" fill-opacity="1" /><path clip-path="url(#clip300)" d="M2234.53 264.082 L2242.17 264.082 L2242.17 237.717 L2233.86 239.383 L2233.86 235.124 L2242.13 233.458 L2246.8 233.458 L2246.8 264.082 L2254.44 264.082 L2254.44 268.018 L2234.53 268.018 L2234.53 264.082 Z" fill="#000000" fill-rule="nonzero" fill-opacity="1" /><polyline clip-path="url(#clip300)" style="stroke:#c271d2; stroke-linecap:round; stroke-linejoin:round; stroke-width:4; stroke-opacity:1; fill:none" points="1765.45,302.578 1912.92,302.578 "/>
<path clip-path="url(#clip300)" d="M1956.27 306.918 Q1956.27 302.219 1954.33 299.557 Q1952.41 296.872 1949.03 296.872 Q1945.65 296.872 1943.7 299.557 Q1941.78 302.219 1941.78 306.918 Q1941.78 311.617 1943.7 314.302 Q1945.65 316.964 1949.03 316.964 Q1952.41 316.964 1954.33 314.302 Q1956.27 311.617 1956.27 306.918 M1941.78 297.867 Q1943.12 295.552 1945.16 294.441 Q1947.22 293.307 1950.07 293.307 Q1954.79 293.307 1957.73 297.057 Q1960.69 300.807 1960.69 306.918 Q1960.69 313.029 1957.73 316.779 Q1954.79 320.529 1950.07 320.529 Q1947.22 320.529 1945.16 319.418 Q1943.12 318.283 1941.78 315.969 L1941.78 319.858 L1937.5 319.858 L1937.5 283.839 L1941.78 283.839 L1941.78 297.867 Z" fill="#000000" fill-rule="nonzero" fill-opacity="1" /><path clip-path="url(#clip300)" d="M1979.54 306.825 Q1974.37 306.825 1972.38 308.006 Q1970.39 309.186 1970.39 312.034 Q1970.39 314.302 1971.87 315.645 Q1973.38 316.964 1975.95 316.964 Q1979.49 316.964 1981.62 314.464 Q1983.77 311.941 1983.77 307.774 L1983.77 306.825 L1979.54 306.825 M1988.03 305.066 L1988.03 319.858 L1983.77 319.858 L1983.77 315.922 Q1982.31 318.283 1980.14 319.418 Q1977.96 320.529 1974.81 320.529 Q1970.83 320.529 1968.47 318.307 Q1966.13 316.061 1966.13 312.311 Q1966.13 307.936 1969.05 305.714 Q1971.99 303.492 1977.8 303.492 L1983.77 303.492 L1983.77 303.075 Q1983.77 300.135 1981.83 298.538 Q1979.91 296.918 1976.41 296.918 Q1974.19 296.918 1972.08 297.45 Q1969.98 297.983 1968.03 299.047 L1968.03 295.112 Q1970.37 294.21 1972.57 293.77 Q1974.77 293.307 1976.85 293.307 Q1982.48 293.307 1985.25 296.223 Q1988.03 299.14 1988.03 305.066 Z" fill="#000000" fill-rule="nonzero" fill-opacity="1" /><path clip-path="url(#clip300)" d="M2015.46 294.927 L2015.46 298.909 Q2013.66 297.913 2011.83 297.427 Q2010.02 296.918 2008.17 296.918 Q2004.03 296.918 2001.74 299.557 Q1999.44 302.172 1999.44 306.918 Q1999.44 311.663 2001.74 314.302 Q2004.03 316.918 2008.17 316.918 Q2010.02 316.918 2011.83 316.432 Q2013.66 315.922 2015.46 314.927 L2015.46 318.862 Q2013.68 319.696 2011.76 320.112 Q2009.86 320.529 2007.71 320.529 Q2001.85 320.529 1998.4 316.848 Q1994.95 313.168 1994.95 306.918 Q1994.95 300.575 1998.42 296.941 Q2001.92 293.307 2007.99 293.307 Q2009.95 293.307 2011.83 293.723 Q2013.7 294.117 2015.46 294.927 Z" fill="#000000" fill-rule="nonzero" fill-opacity="1" /><path clip-path="url(#clip300)" d="M2022.71 283.839 L2026.99 283.839 L2026.99 305.112 L2039.7 293.932 L2045.14 293.932 L2031.39 306.061 L2045.72 319.858 L2040.16 319.858 L2026.99 307.196 L2026.99 319.858 L2022.71 319.858 L2022.71 283.839 Z" fill="#000000" fill-rule="nonzero" fill-opacity="1" /><path clip-path="url(#clip300)" d="M2067.38 306.594 Q2067.38 301.964 2065.46 299.418 Q2063.56 296.872 2060.11 296.872 Q2056.69 296.872 2054.77 299.418 Q2052.87 301.964 2052.87 306.594 Q2052.87 311.2 2054.77 313.746 Q2056.69 316.293 2060.11 316.293 Q2063.56 316.293 2065.46 313.746 Q2067.38 311.2 2067.38 306.594 M2071.64 316.64 Q2071.64 323.26 2068.7 326.478 Q2065.76 329.719 2059.7 329.719 Q2057.45 329.719 2055.46 329.371 Q2053.47 329.047 2051.6 328.353 L2051.6 324.209 Q2053.47 325.228 2055.3 325.714 Q2057.13 326.2 2059.03 326.2 Q2063.22 326.2 2065.3 324.001 Q2067.38 321.825 2067.38 317.404 L2067.38 315.297 Q2066.06 317.589 2064 318.723 Q2061.94 319.858 2059.07 319.858 Q2054.3 319.858 2051.39 316.223 Q2048.47 312.589 2048.47 306.594 Q2048.47 300.575 2051.39 296.941 Q2054.3 293.307 2059.07 293.307 Q2061.94 293.307 2064 294.441 Q2066.06 295.575 2067.38 297.867 L2067.38 293.932 L2071.64 293.932 L2071.64 316.64 Z" fill="#000000" fill-rule="nonzero" fill-opacity="1" /><path clip-path="url(#clip300)" d="M2095.44 297.913 Q2094.72 297.497 2093.86 297.311 Q2093.03 297.103 2092.01 297.103 Q2088.4 297.103 2086.46 299.464 Q2084.54 301.802 2084.54 306.2 L2084.54 319.858 L2080.25 319.858 L2080.25 293.932 L2084.54 293.932 L2084.54 297.96 Q2085.88 295.598 2088.03 294.464 Q2090.18 293.307 2093.26 293.307 Q2093.7 293.307 2094.23 293.376 Q2094.77 293.423 2095.42 293.538 L2095.44 297.913 Z" fill="#000000" fill-rule="nonzero" fill-opacity="1" /><path clip-path="url(#clip300)" d="M2108.91 296.918 Q2105.48 296.918 2103.49 299.603 Q2101.5 302.265 2101.5 306.918 Q2101.5 311.571 2103.47 314.256 Q2105.46 316.918 2108.91 316.918 Q2112.31 316.918 2114.3 314.233 Q2116.29 311.547 2116.29 306.918 Q2116.29 302.311 2114.3 299.626 Q2112.31 296.918 2108.91 296.918 M2108.91 293.307 Q2114.47 293.307 2117.64 296.918 Q2120.81 300.529 2120.81 306.918 Q2120.81 313.284 2117.64 316.918 Q2114.47 320.529 2108.91 320.529 Q2103.33 320.529 2100.16 316.918 Q2097.01 313.284 2097.01 306.918 Q2097.01 300.529 2100.16 296.918 Q2103.33 293.307 2108.91 293.307 Z" fill="#000000" fill-rule="nonzero" fill-opacity="1" /><path clip-path="url(#clip300)" d="M2127.43 309.626 L2127.43 293.932 L2131.69 293.932 L2131.69 309.464 Q2131.69 313.145 2133.12 314.996 Q2134.56 316.825 2137.43 316.825 Q2140.88 316.825 2142.87 314.626 Q2144.88 312.427 2144.88 308.631 L2144.88 293.932 L2149.14 293.932 L2149.14 319.858 L2144.88 319.858 L2144.88 315.876 Q2143.33 318.237 2141.27 319.395 Q2139.23 320.529 2136.53 320.529 Q2132.06 320.529 2129.74 317.751 Q2127.43 314.973 2127.43 309.626 M2138.15 293.307 L2138.15 293.307 Z" fill="#000000" fill-rule="nonzero" fill-opacity="1" /><path clip-path="url(#clip300)" d="M2179.47 304.209 L2179.47 319.858 L2175.21 319.858 L2175.21 304.348 Q2175.21 300.668 2173.77 298.839 Q2172.34 297.01 2169.47 297.01 Q2166.02 297.01 2164.03 299.21 Q2162.04 301.409 2162.04 305.205 L2162.04 319.858 L2157.75 319.858 L2157.75 293.932 L2162.04 293.932 L2162.04 297.96 Q2163.56 295.622 2165.62 294.464 Q2167.71 293.307 2170.41 293.307 Q2174.88 293.307 2177.17 296.085 Q2179.47 298.839 2179.47 304.209 Z" fill="#000000" fill-rule="nonzero" fill-opacity="1" /><path clip-path="url(#clip300)" d="M2205.02 297.867 L2205.02 283.839 L2209.28 283.839 L2209.28 319.858 L2205.02 319.858 L2205.02 315.969 Q2203.68 318.283 2201.62 319.418 Q2199.58 320.529 2196.71 320.529 Q2192.01 320.529 2189.05 316.779 Q2186.11 313.029 2186.11 306.918 Q2186.11 300.807 2189.05 297.057 Q2192.01 293.307 2196.71 293.307 Q2199.58 293.307 2201.62 294.441 Q2203.68 295.552 2205.02 297.867 M2190.51 306.918 Q2190.51 311.617 2192.43 314.302 Q2194.37 316.964 2197.75 316.964 Q2201.13 316.964 2203.08 314.302 Q2205.02 311.617 2205.02 306.918 Q2205.02 302.219 2203.08 299.557 Q2201.13 296.872 2197.75 296.872 Q2194.37 296.872 2192.43 299.557 Q2190.51 302.219 2190.51 306.918 Z" fill="#000000" fill-rule="nonzero" fill-opacity="1" /><path clip-path="url(#clip300)" d="M2237.75 315.922 L2254.07 315.922 L2254.07 319.858 L2232.13 319.858 L2232.13 315.922 Q2234.79 313.168 2239.37 308.538 Q2243.98 303.885 2245.16 302.543 Q2247.41 300.02 2248.28 298.284 Q2249.19 296.524 2249.19 294.835 Q2249.19 292.08 2247.24 290.344 Q2245.32 288.608 2242.22 288.608 Q2240.02 288.608 2237.57 289.372 Q2235.14 290.135 2232.36 291.686 L2232.36 286.964 Q2235.18 285.83 2237.64 285.251 Q2240.09 284.673 2242.13 284.673 Q2247.5 284.673 2250.69 287.358 Q2253.89 290.043 2253.89 294.534 Q2253.89 296.663 2253.08 298.585 Q2252.29 300.483 2250.18 303.075 Q2249.6 303.747 2246.5 306.964 Q2243.4 310.159 2237.75 315.922 Z" fill="#000000" fill-rule="nonzero" fill-opacity="1" /></svg>
