<?xml version="1.0" encoding="utf-8"?>
<svg xmlns="http://www.w3.org/2000/svg" xmlns:xlink="http://www.w3.org/1999/xlink" width="600" height="400" viewBox="0 0 2400 1600">
<defs>
  <clipPath id="clip330">
    <rect x="0" y="0" width="2400" height="1600"/>
  </clipPath>
</defs>
<path clip-path="url(#clip330)" d="M0 1600 L2400 1600 L2400 0 L0 0  Z" fill="#ffffff" fill-rule="evenodd" fill-opacity="1"/>
<defs>
  <clipPath id="clip331">
    <rect x="480" y="0" width="1681" height="1600"/>
  </clipPath>
</defs>
<path clip-path="url(#clip330)" d="M140.696 1486.45 L2352.76 1486.45 L2352.76 47.2441 L140.696 47.2441  Z" fill="#ffffff" fill-rule="evenodd" fill-opacity="1"/>
<defs>
  <clipPath id="clip332">
    <rect x="140" y="47" width="2213" height="1440"/>
  </clipPath>
</defs>
<polyline clip-path="url(#clip332)" style="stroke:#000000; stroke-linecap:round; stroke-linejoin:round; stroke-width:2; stroke-opacity:0.1; fill:none" points="203.301,1486.45 203.301,47.2441 "/>
<polyline clip-path="url(#clip332)" style="stroke:#000000; stroke-linecap:round; stroke-linejoin:round; stroke-width:2; stroke-opacity:0.1; fill:none" points="725.013,1486.45 725.013,47.2441 "/>
<polyline clip-path="url(#clip332)" style="stroke:#000000; stroke-linecap:round; stroke-linejoin:round; stroke-width:2; stroke-opacity:0.1; fill:none" points="1246.73,1486.45 1246.73,47.2441 "/>
<polyline clip-path="url(#clip332)" style="stroke:#000000; stroke-linecap:round; stroke-linejoin:round; stroke-width:2; stroke-opacity:0.1; fill:none" points="1768.44,1486.45 1768.44,47.2441 "/>
<polyline clip-path="url(#clip332)" style="stroke:#000000; stroke-linecap:round; stroke-linejoin:round; stroke-width:2; stroke-opacity:0.1; fill:none" points="2290.15,1486.45 2290.15,47.2441 "/>
<polyline clip-path="url(#clip332)" style="stroke:#000000; stroke-linecap:round; stroke-linejoin:round; stroke-width:2; stroke-opacity:0.1; fill:none" points="140.696,1371.51 2352.76,1371.51 "/>
<polyline clip-path="url(#clip332)" style="stroke:#000000; stroke-linecap:round; stroke-linejoin:round; stroke-width:2; stroke-opacity:0.1; fill:none" points="140.696,1080.6 2352.76,1080.6 "/>
<polyline clip-path="url(#clip332)" style="stroke:#000000; stroke-linecap:round; stroke-linejoin:round; stroke-width:2; stroke-opacity:0.1; fill:none" points="140.696,789.687 2352.76,789.687 "/>
<polyline clip-path="url(#clip332)" style="stroke:#000000; stroke-linecap:round; stroke-linejoin:round; stroke-width:2; stroke-opacity:0.1; fill:none" points="140.696,498.776 2352.76,498.776 "/>
<polyline clip-path="url(#clip332)" style="stroke:#000000; stroke-linecap:round; stroke-linejoin:round; stroke-width:2; stroke-opacity:0.1; fill:none" points="140.696,207.866 2352.76,207.866 "/>
<polyline clip-path="url(#clip330)" style="stroke:#000000; stroke-linecap:round; stroke-linejoin:round; stroke-width:4; stroke-opacity:1; fill:none" points="140.696,1486.45 2352.76,1486.45 "/>
<polyline clip-path="url(#clip330)" style="stroke:#000000; stroke-linecap:round; stroke-linejoin:round; stroke-width:4; stroke-opacity:1; fill:none" points="203.301,1486.45 203.301,1467.55 "/>
<polyline clip-path="url(#clip330)" style="stroke:#000000; stroke-linecap:round; stroke-linejoin:round; stroke-width:4; stroke-opacity:1; fill:none" points="725.013,1486.45 725.013,1467.55 "/>
<polyline clip-path="url(#clip330)" style="stroke:#000000; stroke-linecap:round; stroke-linejoin:round; stroke-width:4; stroke-opacity:1; fill:none" points="1246.73,1486.45 1246.73,1467.55 "/>
<polyline clip-path="url(#clip330)" style="stroke:#000000; stroke-linecap:round; stroke-linejoin:round; stroke-width:4; stroke-opacity:1; fill:none" points="1768.44,1486.45 1768.44,1467.55 "/>
<polyline clip-path="url(#clip330)" style="stroke:#000000; stroke-linecap:round; stroke-linejoin:round; stroke-width:4; stroke-opacity:1; fill:none" points="2290.15,1486.45 2290.15,1467.55 "/>
<path clip-path="url(#clip330)" d="M203.301 1517.37 Q199.69 1517.37 197.861 1520.93 Q196.056 1524.47 196.056 1531.6 Q196.056 1538.71 197.861 1542.27 Q199.69 1545.82 203.301 1545.82 Q206.935 1545.82 208.741 1542.27 Q210.57 1538.71 210.57 1531.6 Q210.57 1524.47 208.741 1520.93 Q206.935 1517.37 203.301 1517.37 M203.301 1513.66 Q209.111 1513.66 212.167 1518.27 Q215.245 1522.85 215.245 1531.6 Q215.245 1540.33 212.167 1544.94 Q209.111 1549.52 203.301 1549.52 Q197.491 1549.52 194.412 1544.94 Q191.357 1540.33 191.357 1531.6 Q191.357 1522.85 194.412 1518.27 Q197.491 1513.66 203.301 1513.66 Z" fill="#000000" fill-rule="nonzero" fill-opacity="1" /><path clip-path="url(#clip330)" d="M704.284 1544.91 L720.604 1544.91 L720.604 1548.85 L698.659 1548.85 L698.659 1544.91 Q701.321 1542.16 705.905 1537.53 Q710.511 1532.88 711.692 1531.53 Q713.937 1529.01 714.817 1527.27 Q715.719 1525.51 715.719 1523.82 Q715.719 1521.07 713.775 1519.33 Q711.854 1517.6 708.752 1517.6 Q706.553 1517.6 704.099 1518.36 Q701.669 1519.13 698.891 1520.68 L698.891 1515.95 Q701.715 1514.82 704.169 1514.24 Q706.622 1513.66 708.659 1513.66 Q714.03 1513.66 717.224 1516.35 Q720.418 1519.03 720.418 1523.52 Q720.418 1525.65 719.608 1527.57 Q718.821 1529.47 716.715 1532.07 Q716.136 1532.74 713.034 1535.95 Q709.932 1539.15 704.284 1544.91 Z" fill="#000000" fill-rule="nonzero" fill-opacity="1" /><path clip-path="url(#clip330)" d="M730.465 1514.29 L748.821 1514.29 L748.821 1518.22 L734.747 1518.22 L734.747 1526.7 Q735.766 1526.35 736.784 1526.19 Q737.803 1526 738.821 1526 Q744.608 1526 747.988 1529.17 Q751.367 1532.34 751.367 1537.76 Q751.367 1543.34 747.895 1546.44 Q744.423 1549.52 738.104 1549.52 Q735.928 1549.52 733.659 1549.15 Q731.414 1548.78 729.006 1548.04 L729.006 1543.34 Q731.09 1544.47 733.312 1545.03 Q735.534 1545.58 738.011 1545.58 Q742.016 1545.58 744.354 1543.48 Q746.691 1541.37 746.691 1537.76 Q746.691 1534.15 744.354 1532.04 Q742.016 1529.94 738.011 1529.94 Q736.136 1529.94 734.261 1530.35 Q732.409 1530.77 730.465 1531.65 L730.465 1514.29 Z" fill="#000000" fill-rule="nonzero" fill-opacity="1" /><path clip-path="url(#clip330)" d="M1221.42 1514.29 L1239.78 1514.29 L1239.78 1518.22 L1225.71 1518.22 L1225.71 1526.7 Q1226.73 1526.35 1227.74 1526.19 Q1228.76 1526 1229.78 1526 Q1235.57 1526 1238.95 1529.17 Q1242.33 1532.34 1242.33 1537.76 Q1242.33 1543.34 1238.86 1546.44 Q1235.38 1549.52 1229.06 1549.52 Q1226.89 1549.52 1224.62 1549.15 Q1222.37 1548.78 1219.97 1548.04 L1219.97 1543.34 Q1222.05 1544.47 1224.27 1545.03 Q1226.49 1545.58 1228.97 1545.58 Q1232.98 1545.58 1235.31 1543.48 Q1237.65 1541.37 1237.65 1537.76 Q1237.65 1534.15 1235.31 1532.04 Q1232.98 1529.94 1228.97 1529.94 Q1227.1 1529.94 1225.22 1530.35 Q1223.37 1530.77 1221.42 1531.65 L1221.42 1514.29 Z" fill="#000000" fill-rule="nonzero" fill-opacity="1" /><path clip-path="url(#clip330)" d="M1261.54 1517.37 Q1257.93 1517.37 1256.1 1520.93 Q1254.3 1524.47 1254.3 1531.6 Q1254.3 1538.71 1256.1 1542.27 Q1257.93 1545.82 1261.54 1545.82 Q1265.17 1545.82 1266.98 1542.27 Q1268.81 1538.71 1268.81 1531.6 Q1268.81 1524.47 1266.98 1520.93 Q1265.17 1517.37 1261.54 1517.37 M1261.54 1513.66 Q1267.35 1513.66 1270.41 1518.27 Q1273.48 1522.85 1273.48 1531.6 Q1273.48 1540.33 1270.41 1544.94 Q1267.35 1549.52 1261.54 1549.52 Q1255.73 1549.52 1252.65 1544.94 Q1249.6 1540.33 1249.6 1531.6 Q1249.6 1522.85 1252.65 1518.27 Q1255.73 1513.66 1261.54 1513.66 Z" fill="#000000" fill-rule="nonzero" fill-opacity="1" /><path clip-path="url(#clip330)" d="M1742.29 1514.29 L1764.51 1514.29 L1764.51 1516.28 L1751.97 1548.85 L1747.08 1548.85 L1758.89 1518.22 L1742.29 1518.22 L1742.29 1514.29 Z" fill="#000000" fill-rule="nonzero" fill-opacity="1" /><path clip-path="url(#clip330)" d="M1773.68 1514.29 L1792.04 1514.29 L1792.04 1518.22 L1777.96 1518.22 L1777.96 1526.7 Q1778.98 1526.35 1780 1526.19 Q1781.02 1526 1782.04 1526 Q1787.82 1526 1791.2 1529.17 Q1794.58 1532.34 1794.58 1537.76 Q1794.58 1543.34 1791.11 1546.44 Q1787.64 1549.52 1781.32 1549.52 Q1779.14 1549.52 1776.88 1549.15 Q1774.63 1548.78 1772.22 1548.04 L1772.22 1543.34 Q1774.31 1544.47 1776.53 1545.03 Q1778.75 1545.58 1781.23 1545.58 Q1785.23 1545.58 1787.57 1543.48 Q1789.91 1541.37 1789.91 1537.76 Q1789.91 1534.15 1787.57 1532.04 Q1785.23 1529.94 1781.23 1529.94 Q1779.35 1529.94 1777.48 1530.35 Q1775.63 1530.77 1773.68 1531.65 L1773.68 1514.29 Z" fill="#000000" fill-rule="nonzero" fill-opacity="1" /><path clip-path="url(#clip330)" d="M2249.76 1544.91 L2257.4 1544.91 L2257.4 1518.55 L2249.09 1520.21 L2249.09 1515.95 L2257.35 1514.29 L2262.03 1514.29 L2262.03 1544.91 L2269.66 1544.91 L2269.66 1548.85 L2249.76 1548.85 L2249.76 1544.91 Z" fill="#000000" fill-rule="nonzero" fill-opacity="1" /><path clip-path="url(#clip330)" d="M2289.11 1517.37 Q2285.5 1517.37 2283.67 1520.93 Q2281.86 1524.47 2281.86 1531.6 Q2281.86 1538.71 2283.67 1542.27 Q2285.5 1545.82 2289.11 1545.82 Q2292.74 1545.82 2294.55 1542.27 Q2296.38 1538.71 2296.38 1531.6 Q2296.38 1524.47 2294.55 1520.93 Q2292.74 1517.37 2289.11 1517.37 M2289.11 1513.66 Q2294.92 1513.66 2297.97 1518.27 Q2301.05 1522.85 2301.05 1531.6 Q2301.05 1540.33 2297.97 1544.94 Q2294.92 1549.52 2289.11 1549.52 Q2283.3 1549.52 2280.22 1544.94 Q2277.16 1540.33 2277.16 1531.6 Q2277.16 1522.85 2280.22 1518.27 Q2283.3 1513.66 2289.11 1513.66 Z" fill="#000000" fill-rule="nonzero" fill-opacity="1" /><path clip-path="url(#clip330)" d="M2319.27 1517.37 Q2315.66 1517.37 2313.83 1520.93 Q2312.03 1524.47 2312.03 1531.6 Q2312.03 1538.71 2313.83 1542.27 Q2315.66 1545.82 2319.27 1545.82 Q2322.9 1545.82 2324.71 1542.27 Q2326.54 1538.71 2326.54 1531.6 Q2326.54 1524.47 2324.71 1520.93 Q2322.9 1517.37 2319.27 1517.37 M2319.27 1513.66 Q2325.08 1513.66 2328.14 1518.27 Q2331.22 1522.85 2331.22 1531.6 Q2331.22 1540.33 2328.14 1544.94 Q2325.08 1549.52 2319.27 1549.52 Q2313.46 1549.52 2310.38 1544.94 Q2307.33 1540.33 2307.33 1531.6 Q2307.33 1522.85 2310.38 1518.27 Q2313.46 1513.66 2319.27 1513.66 Z" fill="#000000" fill-rule="nonzero" fill-opacity="1" /><polyline clip-path="url(#clip330)" style="stroke:#000000; stroke-linecap:round; stroke-linejoin:round; stroke-width:4; stroke-opacity:1; fill:none" points="140.696,1486.45 140.696,47.2441 "/>
<polyline clip-path="url(#clip330)" style="stroke:#000000; stroke-linecap:round; stroke-linejoin:round; stroke-width:4; stroke-opacity:1; fill:none" points="140.696,1371.51 159.593,1371.51 "/>
<polyline clip-path="url(#clip330)" style="stroke:#000000; stroke-linecap:round; stroke-linejoin:round; stroke-width:4; stroke-opacity:1; fill:none" points="140.696,1080.6 159.593,1080.6 "/>
<polyline clip-path="url(#clip330)" style="stroke:#000000; stroke-linecap:round; stroke-linejoin:round; stroke-width:4; stroke-opacity:1; fill:none" points="140.696,789.687 159.593,789.687 "/>
<polyline clip-path="url(#clip330)" style="stroke:#000000; stroke-linecap:round; stroke-linejoin:round; stroke-width:4; stroke-opacity:1; fill:none" points="140.696,498.776 159.593,498.776 "/>
<polyline clip-path="url(#clip330)" style="stroke:#000000; stroke-linecap:round; stroke-linejoin:round; stroke-width:4; stroke-opacity:1; fill:none" points="140.696,207.866 159.593,207.866 "/>
<path clip-path="url(#clip330)" d="M92.7512 1357.31 Q89.1401 1357.31 87.3114 1360.87 Q85.5058 1364.41 85.5058 1371.54 Q85.5058 1378.65 87.3114 1382.21 Q89.1401 1385.76 92.7512 1385.76 Q96.3854 1385.76 98.1909 1382.21 Q100.02 1378.65 100.02 1371.54 Q100.02 1364.41 98.1909 1360.87 Q96.3854 1357.31 92.7512 1357.31 M92.7512 1353.6 Q98.5613 1353.6 101.617 1358.21 Q104.696 1362.79 104.696 1371.54 Q104.696 1380.27 101.617 1384.88 Q98.5613 1389.46 92.7512 1389.46 Q86.941 1389.46 83.8623 1384.88 Q80.8068 1380.27 80.8068 1371.54 Q80.8068 1362.79 83.8623 1358.21 Q86.941 1353.6 92.7512 1353.6 Z" fill="#000000" fill-rule="nonzero" fill-opacity="1" /><path clip-path="url(#clip330)" d="M83.7929 1063.32 L102.149 1063.32 L102.149 1067.25 L88.0753 1067.25 L88.0753 1075.72 Q89.0938 1075.38 90.1123 1075.22 Q91.1308 1075.03 92.1493 1075.03 Q97.9363 1075.03 101.316 1078.2 Q104.696 1081.37 104.696 1086.79 Q104.696 1092.37 101.223 1095.47 Q97.7511 1098.55 91.4317 1098.55 Q89.2558 1098.55 86.9873 1098.18 Q84.7419 1097.81 82.3346 1097.07 L82.3346 1092.37 Q84.4179 1093.5 86.6401 1094.06 Q88.8623 1094.61 91.3391 1094.61 Q95.3437 1094.61 97.6817 1092.51 Q100.02 1090.4 100.02 1086.79 Q100.02 1083.18 97.6817 1081.07 Q95.3437 1078.97 91.3391 1078.97 Q89.4641 1078.97 87.5892 1079.38 Q85.7373 1079.8 83.7929 1080.68 L83.7929 1063.32 Z" fill="#000000" fill-rule="nonzero" fill-opacity="1" /><path clip-path="url(#clip330)" d="M53.3995 803.032 L61.0384 803.032 L61.0384 776.666 L52.7282 778.333 L52.7282 774.073 L60.9921 772.407 L65.668 772.407 L65.668 803.032 L73.3068 803.032 L73.3068 806.967 L53.3995 806.967 L53.3995 803.032 Z" fill="#000000" fill-rule="nonzero" fill-opacity="1" /><path clip-path="url(#clip330)" d="M92.7512 775.485 Q89.1401 775.485 87.3114 779.05 Q85.5058 782.592 85.5058 789.721 Q85.5058 796.828 87.3114 800.393 Q89.1401 803.934 92.7512 803.934 Q96.3854 803.934 98.1909 800.393 Q100.02 796.828 100.02 789.721 Q100.02 782.592 98.1909 779.05 Q96.3854 775.485 92.7512 775.485 M92.7512 771.782 Q98.5613 771.782 101.617 776.388 Q104.696 780.971 104.696 789.721 Q104.696 798.448 101.617 803.055 Q98.5613 807.638 92.7512 807.638 Q86.941 807.638 83.8623 803.055 Q80.8068 798.448 80.8068 789.721 Q80.8068 780.971 83.8623 776.388 Q86.941 771.782 92.7512 771.782 Z" fill="#000000" fill-rule="nonzero" fill-opacity="1" /><path clip-path="url(#clip330)" d="M54.3949 512.121 L62.0337 512.121 L62.0337 485.756 L53.7236 487.422 L53.7236 483.163 L61.9874 481.496 L66.6633 481.496 L66.6633 512.121 L74.3022 512.121 L74.3022 516.056 L54.3949 516.056 L54.3949 512.121 Z" fill="#000000" fill-rule="nonzero" fill-opacity="1" /><path clip-path="url(#clip330)" d="M83.7929 481.496 L102.149 481.496 L102.149 485.432 L88.0753 485.432 L88.0753 493.904 Q89.0938 493.556 90.1123 493.394 Q91.1308 493.209 92.1493 493.209 Q97.9363 493.209 101.316 496.381 Q104.696 499.552 104.696 504.968 Q104.696 510.547 101.223 513.649 Q97.7511 516.728 91.4317 516.728 Q89.2558 516.728 86.9873 516.357 Q84.7419 515.987 82.3346 515.246 L82.3346 510.547 Q84.4179 511.681 86.6401 512.237 Q88.8623 512.792 91.3391 512.792 Q95.3437 512.792 97.6817 510.686 Q100.02 508.58 100.02 504.968 Q100.02 501.357 97.6817 499.251 Q95.3437 497.144 91.3391 497.144 Q89.4641 497.144 87.5892 497.561 Q85.7373 497.978 83.7929 498.857 L83.7929 481.496 Z" fill="#000000" fill-rule="nonzero" fill-opacity="1" /><path clip-path="url(#clip330)" d="M56.6171 221.211 L72.9365 221.211 L72.9365 225.146 L50.9921 225.146 L50.9921 221.211 Q53.6541 218.456 58.2375 213.827 Q62.8439 209.174 64.0245 207.831 Q66.2698 205.308 67.1494 203.572 Q68.0522 201.813 68.0522 200.123 Q68.0522 197.368 66.1078 195.632 Q64.1865 193.896 61.0847 193.896 Q58.8856 193.896 56.4319 194.66 Q54.0014 195.424 51.2236 196.975 L51.2236 192.253 Q54.0477 191.118 56.5014 190.54 Q58.955 189.961 60.9921 189.961 Q66.3624 189.961 69.5568 192.646 Q72.7513 195.331 72.7513 199.822 Q72.7513 201.952 71.9411 203.873 Q71.1541 205.771 69.0476 208.364 Q68.4689 209.035 65.367 212.253 Q62.2652 215.447 56.6171 221.211 Z" fill="#000000" fill-rule="nonzero" fill-opacity="1" /><path clip-path="url(#clip330)" d="M92.7512 193.665 Q89.1401 193.665 87.3114 197.229 Q85.5058 200.771 85.5058 207.901 Q85.5058 215.007 87.3114 218.572 Q89.1401 222.114 92.7512 222.114 Q96.3854 222.114 98.1909 218.572 Q100.02 215.007 100.02 207.901 Q100.02 200.771 98.1909 197.229 Q96.3854 193.665 92.7512 193.665 M92.7512 189.961 Q98.5613 189.961 101.617 194.567 Q104.696 199.151 104.696 207.901 Q104.696 216.628 101.617 221.234 Q98.5613 225.817 92.7512 225.817 Q86.941 225.817 83.8623 221.234 Q80.8068 216.628 80.8068 207.901 Q80.8068 199.151 83.8623 194.567 Q86.941 189.961 92.7512 189.961 Z" fill="#000000" fill-rule="nonzero" fill-opacity="1" /><polyline clip-path="url(#clip332)" style="stroke:#009af9; stroke-linecap:round; stroke-linejoin:round; stroke-width:4; stroke-opacity:1; fill:none" points="203.301,1333.64 213.735,1380.65 224.17,1380.7 234.604,1364.99 245.038,1243.56 255.472,1445.72 265.907,1367.57 276.341,1404.09 286.775,1325.77 297.209,1349.82 307.643,1366.06 318.078,1354.34 328.512,1345.5 338.946,1413.56 349.38,1322.09 359.815,1303.47 370.249,1329.28 380.683,1327.67 391.117,1323.77 401.552,1340.88 411.986,1347.19 422.42,1296.88 432.854,1339.8 443.289,1299.71 453.723,1347.67 464.157,1291.02 474.591,1346.77 485.026,1300.98 495.46,1317.92 505.894,1308.3 516.328,1234.93 526.763,1336.13 537.197,1270.2 547.631,1314.02 558.065,1266.3 568.5,1273.09 578.934,1311.48 589.368,1274.23 599.802,1271.4 610.237,1247.1 620.671,1304.49 631.105,1242.12 641.539,1260.37 651.974,1256.33 662.408,1272.6 672.842,1271.43 683.276,1298.31 693.711,1259.3 704.145,1248.91 714.579,1191.24 725.013,1259.46 735.448,1266.04 745.882,1252.12 756.316,1201.31 766.75,1209.02 777.185,1231.6 787.619,1238.83 798.053,1240.1 808.487,1215.94 818.922,1227.64 829.356,1211.11 839.79,1203.48 850.224,1145.57 860.659,1116.23 871.093,1141.44 881.527,1131.16 891.961,1080.94 902.396,1045.09 912.83,975.764 923.264,978.926 933.698,909.074 944.133,875.241 954.567,842.442 965.001,765.527 975.435,749.75 985.87,679.829 996.304,702.383 1006.74,649.401 1017.17,691.476 1027.61,589.519 1038.04,599.964 1048.48,623.282 1058.91,614.029 1069.34,633.955 1079.78,600.099 1090.21,710.463 1100.65,733.874 1111.08,762.078 1121.51,815.765 1131.95,854.659 1142.38,887.562 1152.82,880.728 1163.25,984.71 1173.69,974.626 1184.12,941.09 1194.55,1001.52 1204.99,1049.78 1215.42,1049.02 1225.86,1049.44 1236.29,1104.37 1246.73,1085.94 1257.16,1095.74 1267.59,1085.74 1278.03,1143.31 1288.46,1135.07 1298.9,1134.4 1309.33,1130.32 1319.77,1116.04 1330.2,1166.18 1340.63,1140.51 1351.07,1046.94 1361.5,1076.34 1371.94,1125.05 1382.37,1087.66 1392.81,1091.99 1403.24,1143.82 1413.67,1134.56 1424.11,1078.06 1434.54,1085.64 1444.98,1081.89 1455.41,1101.59 1465.84,1102.78 1476.28,1068.41 1486.71,1067.27 1497.15,1064.2 1507.58,1079.39 1518.02,1085.66 1528.45,1038.65 1538.88,1043.59 1549.32,1085.43 1559.75,1053.84 1570.19,1048.97 1580.62,1067.77 1591.06,1064.28 1601.49,1033.93 1611.92,1035.06 1622.36,1054.17 1632.79,1027.87 1643.23,992.282 1653.66,1023.91 1664.1,1042.83 1674.53,1056.23 1684.96,1115.77 1695.4,1051.42 1705.83,1031.94 1716.27,1013.69 1726.7,1063.56 1737.14,995.321 1747.57,985.881 1758,1047.04 1768.44,1017.51 1778.87,1027.99 1789.31,1021.38 1799.74,993.724 1810.18,1025.24 1820.61,1000.23 1831.04,1012.15 1841.48,1010.25 1851.91,1014.65 1862.35,984.071 1872.78,984.508 1883.21,997.891 1893.65,1025.6 1904.08,978.361 1914.52,990.695 1924.95,948.574 1935.39,1011.88 1945.82,1013.21 1956.25,1013.87 1966.69,969.213 1977.12,977.876 1987.56,970.459 1997.99,946.466 2008.43,954.296 2018.86,930.94 2029.29,975.472 2039.73,933.688 2050.16,958.338 2060.6,943.159 2071.03,933.397 2081.47,922.494 2091.9,964.393 2102.33,963.37 2112.77,954.159 2123.2,917.073 2133.64,971.793 2144.07,908.586 2154.51,950.387 2164.94,970.462 2175.37,925.151 2185.81,942.664 2196.24,955.409 2206.68,938.512 2217.11,951.754 2227.54,930.717 2237.98,950.004 2248.41,879.253 2258.85,898.997 2269.28,938.71 2279.72,933.421 2290.15,911.452 "/>
<polyline clip-path="url(#clip332)" style="stroke:#e26f46; stroke-linecap:round; stroke-linejoin:round; stroke-width:4; stroke-opacity:1; fill:none" points="203.301,1344.09 213.735,1388.4 224.17,1363.33 234.604,1385.49 245.038,1383.16 255.472,1367.7 265.907,1365.15 276.341,1359.71 286.775,1358.94 297.209,1373.16 307.643,1359.79 318.078,1367.1 328.512,1396.04 338.946,1360.62 349.38,1369.96 359.815,1330.54 370.249,1363.8 380.683,1354.73 391.117,1359.26 401.552,1346.56 411.986,1350.4 422.42,1361.13 432.854,1339.18 443.289,1336.42 453.723,1359.53 464.157,1358.78 474.591,1356.96 485.026,1341.31 495.46,1353.3 505.894,1360.69 516.328,1332.72 526.763,1323.93 537.197,1332.84 547.631,1337.78 558.065,1314.2 568.5,1342.17 578.934,1325.73 589.368,1339.06 599.802,1312.04 610.237,1308.78 620.671,1344.32 631.105,1330.38 641.539,1337.42 651.974,1325.22 662.408,1310.19 672.842,1327.86 683.276,1338.88 693.711,1317.19 704.145,1336.71 714.579,1347.32 725.013,1353.74 735.448,1328.15 745.882,1320.24 756.316,1323.21 766.75,1316.78 777.185,1343.24 787.619,1320.22 798.053,1346.55 808.487,1326.09 818.922,1319.59 829.356,1311.26 839.79,1326.41 850.224,1312.9 860.659,1316.05 871.093,1284.95 881.527,1326.87 891.961,1309.75 902.396,1307.23 912.83,1296 923.264,1326.76 933.698,1318.13 944.133,1325.1 954.567,1315.18 965.001,1280.46 975.435,1291.79 985.87,1271.34 996.304,1276.39 1006.74,1286.31 1017.17,1272.29 1027.61,1247.97 1038.04,1260.9 1048.48,1256.7 1058.91,1249.47 1069.34,1252.28 1079.78,1208.76 1090.21,1227.2 1100.65,1189.42 1111.08,1173.15 1121.51,1140.76 1131.95,1141.45 1142.38,1141.54 1152.82,1121.43 1163.25,1084.59 1173.69,1041.8 1184.12,996.484 1194.55,993.85 1204.99,939.187 1215.42,920.56 1225.86,887.302 1236.29,847.918 1246.73,786.787 1257.16,726.839 1267.59,676.066 1278.03,656.262 1288.46,587.053 1298.9,558.345 1309.33,512.409 1319.77,467.93 1330.2,407.362 1340.63,345.731 1351.07,316.325 1361.5,312.806 1371.94,233.462 1382.37,254.276 1392.81,190.439 1403.24,156.358 1413.67,144.638 1424.11,116.07 1434.54,124.14 1444.98,105.248 1455.41,98.7214 1465.84,116.391 1476.28,87.9763 1486.71,108.568 1497.15,132.988 1507.58,162.658 1518.02,181.91 1528.45,222.38 1538.88,252.833 1549.32,267.641 1559.75,340.303 1570.19,384.475 1580.62,379.406 1591.06,437.799 1601.49,502.132 1611.92,551.286 1622.36,568.051 1632.79,628.607 1643.23,676.222 1653.66,727.311 1664.1,753.446 1674.53,821.041 1684.96,845.467 1695.4,904.764 1705.83,884.41 1716.27,962.38 1726.7,974.155 1737.14,1009.25 1747.57,1012.62 1758,1047.86 1768.44,1064.68 1778.87,1086.09 1789.31,1097.93 1799.74,1122.87 1810.18,1152.91 1820.61,1140.64 1831.04,1173.97 1841.48,1202.07 1851.91,1212.17 1862.35,1181.25 1872.78,1198.48 1883.21,1189.45 1893.65,1204.91 1904.08,1206.7 1914.52,1215.65 1924.95,1205.61 1935.39,1226.38 1945.82,1200.79 1956.25,1220.45 1966.69,1218.53 1977.12,1214.75 1987.56,1205.74 1997.99,1219.82 2008.43,1221.41 2018.86,1205.7 2029.29,1219.11 2039.73,1218.25 2050.16,1227.09 2060.6,1198.97 2071.03,1226.13 2081.47,1216.72 2091.9,1195.31 2102.33,1198.92 2112.77,1213.43 2123.2,1199.41 2133.64,1204.8 2144.07,1208.04 2154.51,1225.88 2164.94,1184.42 2175.37,1198.34 2185.81,1179.52 2196.24,1225.29 2206.68,1199.56 2217.11,1184.92 2227.54,1203.86 2237.98,1207.61 2248.41,1195.98 2258.85,1186.86 2269.28,1210.51 2279.72,1187.92 2290.15,1195.74 "/>
<polyline clip-path="url(#clip332)" style="stroke:#3da44d; stroke-linecap:round; stroke-linejoin:round; stroke-width:4; stroke-opacity:1; fill:none" points="203.301,1351.49 213.735,1355.59 224.17,1358.88 234.604,1361.4 245.038,1363.16 255.472,1364.19 265.907,1364.43 276.341,1363.88 286.775,1362.58 297.209,1360.61 307.643,1358.07 318.078,1355.05 328.512,1351.66 338.946,1348.03 349.38,1344.31 359.815,1340.67 370.249,1337.26 380.683,1334.16 391.117,1331.38 401.552,1328.87 411.986,1326.56 422.42,1324.34 432.854,1322.15 443.289,1319.87 453.723,1317.44 464.157,1314.78 474.591,1311.88 485.026,1308.73 495.46,1305.41 505.894,1301.97 516.328,1298.52 526.763,1295.14 537.197,1291.86 547.631,1288.72 558.065,1285.72 568.5,1282.88 578.934,1280.18 589.368,1277.61 599.802,1275.16 610.237,1272.84 620.671,1270.61 631.105,1268.44 641.539,1266.28 651.974,1264.08 662.408,1261.76 672.842,1259.29 683.276,1256.66 693.711,1253.91 704.145,1251.15 714.579,1248.51 725.013,1246.07 735.448,1243.87 745.882,1241.85 756.316,1239.93 766.75,1237.92 777.185,1235.53 787.619,1232.37 798.053,1227.97 808.487,1221.85 818.922,1213.54 829.356,1202.59 839.79,1188.62 850.224,1171.35 860.659,1150.56 871.093,1126.11 881.527,1097.95 891.961,1066.18 902.396,1031.07 912.83,993.073 923.264,952.825 933.698,911.087 944.133,868.757 954.567,826.821 965.001,786.323 975.435,748.322 985.87,713.831 996.304,683.78 1006.74,658.978 1017.17,640.112 1027.61,627.723 1038.04,622.193 1048.48,623.679 1058.91,632.091 1069.34,647.081 1079.78,668.049 1090.21,694.156 1100.65,724.355 1111.08,757.492 1121.51,792.397 1131.95,827.951 1142.38,863.162 1152.82,897.21 1163.25,929.462 1173.69,959.467 1184.12,986.962 1194.55,1011.82 1204.99,1034.01 1215.42,1053.53 1225.86,1070.44 1236.29,1084.84 1246.73,1096.84 1257.16,1106.55 1267.59,1114.1 1278.03,1119.61 1288.46,1123.19 1298.9,1125.01 1309.33,1125.27 1319.77,1124.23 1330.2,1122.18 1340.63,1119.46 1351.07,1116.37 1361.5,1113.23 1371.94,1110.22 1382.37,1107.38 1392.81,1104.69 1403.24,1102.08 1413.67,1099.44 1424.11,1096.69 1434.54,1093.8 1444.98,1090.77 1455.41,1087.59 1465.84,1084.28 1476.28,1080.88 1486.71,1077.43 1497.15,1073.99 1507.58,1070.6 1518.02,1067.29 1528.45,1064.08 1538.88,1060.98 1549.32,1058.02 1559.75,1055.18 1570.19,1052.48 1580.62,1049.97 1591.06,1047.68 1601.49,1045.69 1611.92,1044.09 1622.36,1042.92 1632.79,1042.2 1643.23,1041.87 1653.66,1041.81 1664.1,1041.8 1674.53,1041.59 1684.96,1040.93 1695.4,1039.68 1705.83,1037.81 1716.27,1035.42 1726.7,1032.64 1737.14,1029.62 1747.57,1026.53 1758,1023.49 1768.44,1020.55 1778.87,1017.76 1789.31,1015.13 1799.74,1012.68 1810.18,1010.42 1820.61,1008.34 1831.04,1006.41 1841.48,1004.64 1851.91,1003 1862.35,1001.46 1872.78,1000 1883.21,998.577 1893.65,997.097 1904.08,995.472 1914.52,993.617 1924.95,991.437 1935.39,988.835 1945.82,985.718 1956.25,982.049 1966.69,977.879 1977.12,973.343 1987.56,968.628 1997.99,963.946 2008.43,959.507 2018.86,955.487 2029.29,952.013 2039.73,949.156 2050.16,946.95 2060.6,945.385 2071.03,944.418 2081.47,943.97 2091.9,943.923 2102.33,944.137 2112.77,944.484 2123.2,944.855 2133.64,945.159 2144.07,945.302 2154.51,945.202 2164.94,944.767 2175.37,943.921 2185.81,942.622 2196.24,940.849 2206.68,938.613 2217.11,935.964 2227.54,932.99 2237.98,929.807 2248.41,926.537 2258.85,923.289 2269.28,920.12 2279.72,917.039 2290.15,914.041 "/>
<polyline clip-path="url(#clip332)" style="stroke:#c271d2; stroke-linecap:round; stroke-linejoin:round; stroke-width:4; stroke-opacity:1; fill:none" points="203.301,1366.73 213.735,1368.35 224.17,1369.56 234.604,1370.36 245.038,1370.77 255.472,1370.83 265.907,1370.57 276.341,1370.04 286.775,1369.28 297.209,1368.33 307.643,1367.21 318.078,1365.96 328.512,1364.59 338.946,1363.14 349.38,1361.66 359.815,1360.18 370.249,1358.74 380.683,1357.37 391.117,1356.08 401.552,1354.88 411.986,1353.74 422.42,1352.64 432.854,1351.56 443.289,1350.45 453.723,1349.27 464.157,1347.97 474.591,1346.53 485.026,1344.93 495.46,1343.18 505.894,1341.3 516.328,1339.34 526.763,1337.36 537.197,1335.42 547.631,1333.59 558.065,1331.93 568.5,1330.48 578.934,1329.28 589.368,1328.35 599.802,1327.71 610.237,1327.35 620.671,1327.27 631.105,1327.42 641.539,1327.77 651.974,1328.28 662.408,1328.89 672.842,1329.57 683.276,1330.24 693.711,1330.83 704.145,1331.3 714.579,1331.59 725.013,1331.65 735.448,1331.46 745.882,1331.03 756.316,1330.37 766.75,1329.5 777.185,1328.44 787.619,1327.21 798.053,1325.83 808.487,1324.35 818.922,1322.81 829.356,1321.24 839.79,1319.69 850.224,1318.18 860.659,1316.72 871.093,1315.31 881.527,1313.92 891.961,1312.5 902.396,1311 912.83,1309.35 923.264,1307.46 933.698,1305.29 944.133,1302.76 954.567,1299.85 965.001,1296.54 975.435,1292.83 985.87,1288.72 996.304,1284.19 1006.74,1279.19 1017.17,1273.68 1027.61,1267.57 1038.04,1260.76 1048.48,1253.15 1058.91,1244.59 1069.34,1234.94 1079.78,1224.06 1090.21,1211.81 1100.65,1198.05 1111.08,1182.62 1121.51,1165.38 1131.95,1146.18 1142.38,1124.88 1152.82,1101.35 1163.25,1075.47 1173.69,1047.19 1184.12,1016.47 1194.55,983.322 1204.99,947.795 1215.42,909.973 1225.86,869.989 1236.29,828.027 1246.73,784.327 1257.16,739.178 1267.59,692.909 1278.03,645.874 1288.46,598.447 1298.9,551.018 1309.33,503.989 1319.77,457.773 1330.2,412.788 1340.63,369.454 1351.07,328.177 1361.5,289.344 1371.94,253.322 1382.37,220.463 1392.81,191.096 1403.24,165.537 1413.67,144.074 1424.11,126.958 1434.54,114.402 1444.98,106.567 1455.41,103.569 1465.84,105.466 1476.28,112.256 1486.71,123.876 1497.15,140.189 1507.58,160.99 1518.02,186.013 1528.45,214.94 1538.88,247.409 1549.32,283.028 1559.75,321.383 1570.19,362.04 1580.62,404.564 1591.06,448.515 1601.49,493.454 1611.92,538.941 1622.36,584.55 1632.79,629.871 1643.23,674.518 1653.66,718.133 1664.1,760.393 1674.53,801.024 1684.96,839.801 1695.4,876.555 1705.83,911.176 1716.27,943.608 1726.7,973.836 1737.14,1001.89 1747.57,1027.81 1758,1051.68 1768.44,1073.58 1778.87,1093.58 1789.31,1111.75 1799.74,1128.16 1810.18,1142.86 1820.61,1155.9 1831.04,1167.32 1841.48,1177.21 1851.91,1185.62 1862.35,1192.67 1872.78,1198.49 1883.21,1203.22 1893.65,1206.98 1904.08,1209.92 1914.52,1212.16 1924.95,1213.82 1935.39,1215 1945.82,1215.8 1956.25,1216.28 1966.69,1216.52 1977.12,1216.56 1987.56,1216.45 1997.99,1216.2 2008.43,1215.84 2018.86,1215.36 2029.29,1214.77 2039.73,1214.07 2050.16,1213.26 2060.6,1212.36 2071.03,1211.37 2081.47,1210.32 2091.9,1209.23 2102.33,1208.13 2112.77,1207.05 2123.2,1205.99 2133.64,1204.96 2144.07,1203.99 2154.51,1203.06 2164.94,1202.2 2175.37,1201.4 2185.81,1200.68 2196.24,1200.02 2206.68,1199.41 2217.11,1198.86 2227.54,1198.34 2237.98,1197.84 2248.41,1197.37 2258.85,1196.9 2269.28,1196.44 2279.72,1195.98 2290.15,1195.53 "/>
<path clip-path="url(#clip330)" d="M1782.75 354.418 L2279.02 354.418 L2279.02 95.2176 L1782.75 95.2176  Z" fill="#ffffff" fill-rule="evenodd" fill-opacity="1"/>
<polyline clip-path="url(#clip330)" style="stroke:#000000; stroke-linecap:round; stroke-linejoin:round; stroke-width:4; stroke-opacity:1; fill:none" points="1782.75,354.418 2279.02,354.418 2279.02,95.2176 1782.75,95.2176 1782.75,354.418 "/>
<polyline clip-path="url(#clip330)" style="stroke:#009af9; stroke-linecap:round; stroke-linejoin:round; stroke-width:4; stroke-opacity:1; fill:none" points="1807.33,147.058 1954.8,147.058 "/>
<path clip-path="url(#clip330)" d="M1993.22 166.745 Q1991.41 171.375 1989.7 172.787 Q1987.99 174.199 1985.11 174.199 L1981.71 174.199 L1981.71 170.634 L1984.21 170.634 Q1985.97 170.634 1986.94 169.8 Q1987.92 168.967 1989.1 165.865 L1989.86 163.921 L1979.37 138.412 L1983.89 138.412 L1991.99 158.689 L2000.09 138.412 L2004.61 138.412 L1993.22 166.745 Z" fill="#000000" fill-rule="nonzero" fill-opacity="1" /><path clip-path="url(#clip330)" d="M2011.9 160.402 L2019.54 160.402 L2019.54 134.037 L2011.23 135.703 L2011.23 131.444 L2019.49 129.778 L2024.17 129.778 L2024.17 160.402 L2031.8 160.402 L2031.8 164.338 L2011.9 164.338 L2011.9 160.402 Z" fill="#000000" fill-rule="nonzero" fill-opacity="1" /><polyline clip-path="url(#clip330)" style="stroke:#e26f46; stroke-linecap:round; stroke-linejoin:round; stroke-width:4; stroke-opacity:1; fill:none" points="1807.33,198.898 1954.8,198.898 "/>
<path clip-path="url(#clip330)" d="M1993.22 218.585 Q1991.41 223.215 1989.7 224.627 Q1987.99 226.039 1985.11 226.039 L1981.71 226.039 L1981.71 222.474 L1984.21 222.474 Q1985.97 222.474 1986.94 221.64 Q1987.92 220.807 1989.1 217.705 L1989.86 215.761 L1979.37 190.252 L1983.89 190.252 L1991.99 210.529 L2000.09 190.252 L2004.61 190.252 L1993.22 218.585 Z" fill="#000000" fill-rule="nonzero" fill-opacity="1" /><path clip-path="url(#clip330)" d="M2015.11 212.242 L2031.43 212.242 L2031.43 216.178 L2009.49 216.178 L2009.49 212.242 Q2012.15 209.488 2016.74 204.858 Q2021.34 200.205 2022.52 198.863 Q2024.77 196.34 2025.65 194.604 Q2026.55 192.844 2026.55 191.155 Q2026.55 188.4 2024.61 186.664 Q2022.68 184.928 2019.58 184.928 Q2017.38 184.928 2014.93 185.692 Q2012.5 186.455 2009.72 188.006 L2009.72 183.284 Q2012.55 182.15 2015 181.571 Q2017.45 180.993 2019.49 180.993 Q2024.86 180.993 2028.05 183.678 Q2031.25 186.363 2031.25 190.854 Q2031.25 192.983 2030.44 194.905 Q2029.65 196.803 2027.55 199.395 Q2026.97 200.067 2023.86 203.284 Q2020.76 206.479 2015.11 212.242 Z" fill="#000000" fill-rule="nonzero" fill-opacity="1" /><polyline clip-path="url(#clip330)" style="stroke:#3da44d; stroke-linecap:round; stroke-linejoin:round; stroke-width:4; stroke-opacity:1; fill:none" points="1807.33,250.738 1954.8,250.738 "/>
<path clip-path="url(#clip330)" d="M1997.8 242.856 L1997.8 246.883 Q1995.99 245.957 1994.05 245.495 Q1992.11 245.032 1990.02 245.032 Q1986.85 245.032 1985.25 246.004 Q1983.68 246.976 1983.68 248.92 Q1983.68 250.402 1984.81 251.258 Q1985.95 252.092 1989.37 252.856 L1990.83 253.18 Q1995.37 254.152 1997.27 255.934 Q1999.19 257.694 1999.19 260.865 Q1999.19 264.476 1996.32 266.582 Q1993.47 268.689 1988.47 268.689 Q1986.39 268.689 1984.12 268.272 Q1981.87 267.879 1979.37 267.068 L1979.37 262.67 Q1981.74 263.897 1984.03 264.522 Q1986.32 265.124 1988.56 265.124 Q1991.57 265.124 1993.19 264.106 Q1994.81 263.064 1994.81 261.189 Q1994.81 259.453 1993.63 258.527 Q1992.48 257.601 1988.52 256.744 L1987.04 256.397 Q1983.08 255.564 1981.32 253.851 Q1979.56 252.115 1979.56 249.106 Q1979.56 245.448 1982.15 243.458 Q1984.74 241.467 1989.51 241.467 Q1991.87 241.467 1993.96 241.814 Q1996.04 242.161 1997.8 242.856 Z" fill="#000000" fill-rule="nonzero" fill-opacity="1" /><path clip-path="url(#clip330)" d="M2026.16 247.069 Q2027.75 244.198 2029.98 242.833 Q2032.2 241.467 2035.21 241.467 Q2039.26 241.467 2041.46 244.314 Q2043.66 247.138 2043.66 252.369 L2043.66 268.018 L2039.37 268.018 L2039.37 252.508 Q2039.37 248.782 2038.05 246.976 Q2036.73 245.17 2034.03 245.17 Q2030.72 245.17 2028.8 247.37 Q2026.87 249.569 2026.87 253.365 L2026.87 268.018 L2022.59 268.018 L2022.59 252.508 Q2022.59 248.758 2021.27 246.976 Q2019.95 245.17 2017.2 245.17 Q2013.93 245.17 2012.01 247.393 Q2010.09 249.592 2010.09 253.365 L2010.09 268.018 L2005.81 268.018 L2005.81 242.092 L2010.09 242.092 L2010.09 246.12 Q2011.55 243.735 2013.59 242.601 Q2015.62 241.467 2018.42 241.467 Q2021.25 241.467 2023.22 242.902 Q2025.21 244.337 2026.16 247.069 Z" fill="#000000" fill-rule="nonzero" fill-opacity="1" /><path clip-path="url(#clip330)" d="M2062.2 245.078 Q2058.77 245.078 2056.78 247.763 Q2054.79 250.425 2054.79 255.078 Q2054.79 259.731 2056.76 262.416 Q2058.75 265.078 2062.2 265.078 Q2065.6 265.078 2067.59 262.393 Q2069.58 259.707 2069.58 255.078 Q2069.58 250.471 2067.59 247.786 Q2065.6 245.078 2062.2 245.078 M2062.2 241.467 Q2067.75 241.467 2070.92 245.078 Q2074.1 248.689 2074.1 255.078 Q2074.1 261.444 2070.92 265.078 Q2067.75 268.689 2062.2 268.689 Q2056.62 268.689 2053.45 265.078 Q2050.3 261.444 2050.3 255.078 Q2050.3 248.689 2053.45 245.078 Q2056.62 241.467 2062.2 241.467 Z" fill="#000000" fill-rule="nonzero" fill-opacity="1" /><path clip-path="url(#clip330)" d="M2091.2 245.078 Q2087.78 245.078 2085.79 247.763 Q2083.79 250.425 2083.79 255.078 Q2083.79 259.731 2085.76 262.416 Q2087.75 265.078 2091.2 265.078 Q2094.61 265.078 2096.6 262.393 Q2098.59 259.707 2098.59 255.078 Q2098.59 250.471 2096.6 247.786 Q2094.61 245.078 2091.2 245.078 M2091.2 241.467 Q2096.76 241.467 2099.93 245.078 Q2103.1 248.689 2103.1 255.078 Q2103.1 261.444 2099.93 265.078 Q2096.76 268.689 2091.2 268.689 Q2085.62 268.689 2082.45 265.078 Q2079.3 261.444 2079.3 255.078 Q2079.3 248.689 2082.45 245.078 Q2085.62 241.467 2091.2 241.467 Z" fill="#000000" fill-rule="nonzero" fill-opacity="1" /><path clip-path="url(#clip330)" d="M2114.37 234.731 L2114.37 242.092 L2123.15 242.092 L2123.15 245.402 L2114.37 245.402 L2114.37 259.476 Q2114.37 262.647 2115.23 263.55 Q2116.11 264.453 2118.77 264.453 L2123.15 264.453 L2123.15 268.018 L2118.77 268.018 Q2113.84 268.018 2111.97 266.189 Q2110.09 264.337 2110.09 259.476 L2110.09 245.402 L2106.97 245.402 L2106.97 242.092 L2110.09 242.092 L2110.09 234.731 L2114.37 234.731 Z" fill="#000000" fill-rule="nonzero" fill-opacity="1" /><path clip-path="url(#clip330)" d="M2150.3 252.369 L2150.3 268.018 L2146.04 268.018 L2146.04 252.508 Q2146.04 248.828 2144.6 246.999 Q2143.17 245.17 2140.3 245.17 Q2136.85 245.17 2134.86 247.37 Q2132.87 249.569 2132.87 253.365 L2132.87 268.018 L2128.59 268.018 L2128.59 231.999 L2132.87 231.999 L2132.87 246.12 Q2134.4 243.782 2136.46 242.624 Q2138.54 241.467 2141.25 241.467 Q2145.72 241.467 2148.01 244.245 Q2150.3 246.999 2150.3 252.369 Z" fill="#000000" fill-rule="nonzero" fill-opacity="1" /><path clip-path="url(#clip330)" d="M2180.97 253.99 L2180.97 256.073 L2161.39 256.073 Q2161.66 260.471 2164.03 262.786 Q2166.41 265.078 2170.65 265.078 Q2173.1 265.078 2175.39 264.476 Q2177.71 263.874 2179.97 262.67 L2179.97 266.698 Q2177.68 267.67 2175.28 268.18 Q2172.87 268.689 2170.39 268.689 Q2164.19 268.689 2160.55 265.078 Q2156.94 261.467 2156.94 255.309 Q2156.94 248.944 2160.37 245.217 Q2163.82 241.467 2169.65 241.467 Q2174.88 241.467 2177.91 244.846 Q2180.97 248.203 2180.97 253.99 M2176.71 252.74 Q2176.66 249.245 2174.74 247.161 Q2172.85 245.078 2169.7 245.078 Q2166.13 245.078 2163.98 247.092 Q2161.85 249.106 2161.53 252.763 L2176.71 252.74 Z" fill="#000000" fill-rule="nonzero" fill-opacity="1" /><path clip-path="url(#clip330)" d="M2205.02 246.027 L2205.02 231.999 L2209.28 231.999 L2209.28 268.018 L2205.02 268.018 L2205.02 264.129 Q2203.68 266.443 2201.62 267.578 Q2199.58 268.689 2196.71 268.689 Q2192.01 268.689 2189.05 264.939 Q2186.11 261.189 2186.11 255.078 Q2186.11 248.967 2189.05 245.217 Q2192.01 241.467 2196.71 241.467 Q2199.58 241.467 2201.62 242.601 Q2203.68 243.712 2205.02 246.027 M2190.51 255.078 Q2190.51 259.777 2192.43 262.462 Q2194.37 265.124 2197.75 265.124 Q2201.13 265.124 2203.08 262.462 Q2205.02 259.777 2205.02 255.078 Q2205.02 250.379 2203.08 247.717 Q2201.13 245.032 2197.75 245.032 Q2194.37 245.032 2192.43 247.717 Q2190.51 250.379 2190.51 255.078 Z" fill="#000000" fill-rule="nonzero" fill-opacity="1" /><path clip-path="url(#clip330)" d="M2234.53 264.082 L2242.17 264.082 L2242.17 237.717 L2233.86 239.383 L2233.86 235.124 L2242.13 233.458 L2246.8 233.458 L2246.8 264.082 L2254.44 264.082 L2254.44 268.018 L2234.53 268.018 L2234.53 264.082 Z" fill="#000000" fill-rule="nonzero" fill-opacity="1" /><polyline clip-path="url(#clip330)" style="stroke:#c271d2; stroke-linecap:round; stroke-linejoin:round; stroke-width:4; stroke-opacity:1; fill:none" points="1807.33,302.578 1954.8,302.578 "/>
<path clip-path="url(#clip330)" d="M1997.8 294.696 L1997.8 298.723 Q1995.99 297.797 1994.05 297.335 Q1992.11 296.872 1990.02 296.872 Q1986.85 296.872 1985.25 297.844 Q1983.68 298.816 1983.68 300.76 Q1983.68 302.242 1984.81 303.098 Q1985.95 303.932 1989.37 304.696 L1990.83 305.02 Q1995.37 305.992 1997.27 307.774 Q1999.19 309.534 1999.19 312.705 Q1999.19 316.316 1996.32 318.422 Q1993.47 320.529 1988.47 320.529 Q1986.39 320.529 1984.12 320.112 Q1981.87 319.719 1979.37 318.908 L1979.37 314.51 Q1981.74 315.737 1984.03 316.362 Q1986.32 316.964 1988.56 316.964 Q1991.57 316.964 1993.19 315.946 Q1994.81 314.904 1994.81 313.029 Q1994.81 311.293 1993.63 310.367 Q1992.48 309.441 1988.52 308.584 L1987.04 308.237 Q1983.08 307.404 1981.32 305.691 Q1979.56 303.955 1979.56 300.946 Q1979.56 297.288 1982.15 295.298 Q1984.74 293.307 1989.51 293.307 Q1991.87 293.307 1993.96 293.654 Q1996.04 294.001 1997.8 294.696 Z" fill="#000000" fill-rule="nonzero" fill-opacity="1" /><path clip-path="url(#clip330)" d="M2026.16 298.909 Q2027.75 296.038 2029.98 294.673 Q2032.2 293.307 2035.21 293.307 Q2039.26 293.307 2041.46 296.154 Q2043.66 298.978 2043.66 304.209 L2043.66 319.858 L2039.37 319.858 L2039.37 304.348 Q2039.37 300.622 2038.05 298.816 Q2036.73 297.01 2034.03 297.01 Q2030.72 297.01 2028.8 299.21 Q2026.87 301.409 2026.87 305.205 L2026.87 319.858 L2022.59 319.858 L2022.59 304.348 Q2022.59 300.598 2021.27 298.816 Q2019.95 297.01 2017.2 297.01 Q2013.93 297.01 2012.01 299.233 Q2010.09 301.432 2010.09 305.205 L2010.09 319.858 L2005.81 319.858 L2005.81 293.932 L2010.09 293.932 L2010.09 297.96 Q2011.55 295.575 2013.59 294.441 Q2015.62 293.307 2018.42 293.307 Q2021.25 293.307 2023.22 294.742 Q2025.21 296.177 2026.16 298.909 Z" fill="#000000" fill-rule="nonzero" fill-opacity="1" /><path clip-path="url(#clip330)" d="M2062.2 296.918 Q2058.77 296.918 2056.78 299.603 Q2054.79 302.265 2054.79 306.918 Q2054.79 311.571 2056.76 314.256 Q2058.75 316.918 2062.2 316.918 Q2065.6 316.918 2067.59 314.233 Q2069.58 311.547 2069.58 306.918 Q2069.58 302.311 2067.59 299.626 Q2065.6 296.918 2062.2 296.918 M2062.2 293.307 Q2067.75 293.307 2070.92 296.918 Q2074.1 300.529 2074.1 306.918 Q2074.1 313.284 2070.92 316.918 Q2067.75 320.529 2062.2 320.529 Q2056.62 320.529 2053.45 316.918 Q2050.3 313.284 2050.3 306.918 Q2050.3 300.529 2053.45 296.918 Q2056.62 293.307 2062.2 293.307 Z" fill="#000000" fill-rule="nonzero" fill-opacity="1" /><path clip-path="url(#clip330)" d="M2091.2 296.918 Q2087.78 296.918 2085.79 299.603 Q2083.79 302.265 2083.79 306.918 Q2083.79 311.571 2085.76 314.256 Q2087.75 316.918 2091.2 316.918 Q2094.61 316.918 2096.6 314.233 Q2098.59 311.547 2098.59 306.918 Q2098.59 302.311 2096.6 299.626 Q2094.61 296.918 2091.2 296.918 M2091.2 293.307 Q2096.76 293.307 2099.93 296.918 Q2103.1 300.529 2103.1 306.918 Q2103.1 313.284 2099.93 316.918 Q2096.76 320.529 2091.2 320.529 Q2085.62 320.529 2082.45 316.918 Q2079.3 313.284 2079.3 306.918 Q2079.3 300.529 2082.45 296.918 Q2085.62 293.307 2091.2 293.307 Z" fill="#000000" fill-rule="nonzero" fill-opacity="1" /><path clip-path="url(#clip330)" d="M2114.37 286.571 L2114.37 293.932 L2123.15 293.932 L2123.15 297.242 L2114.37 297.242 L2114.37 311.316 Q2114.37 314.487 2115.23 315.39 Q2116.11 316.293 2118.77 316.293 L2123.15 316.293 L2123.15 319.858 L2118.77 319.858 Q2113.84 319.858 2111.97 318.029 Q2110.09 316.177 2110.09 311.316 L2110.09 297.242 L2106.97 297.242 L2106.97 293.932 L2110.09 293.932 L2110.09 286.571 L2114.37 286.571 Z" fill="#000000" fill-rule="nonzero" fill-opacity="1" /><path clip-path="url(#clip330)" d="M2150.3 304.209 L2150.3 319.858 L2146.04 319.858 L2146.04 304.348 Q2146.04 300.668 2144.6 298.839 Q2143.17 297.01 2140.3 297.01 Q2136.85 297.01 2134.86 299.21 Q2132.87 301.409 2132.87 305.205 L2132.87 319.858 L2128.59 319.858 L2128.59 283.839 L2132.87 283.839 L2132.87 297.96 Q2134.4 295.622 2136.46 294.464 Q2138.54 293.307 2141.25 293.307 Q2145.72 293.307 2148.01 296.085 Q2150.3 298.839 2150.3 304.209 Z" fill="#000000" fill-rule="nonzero" fill-opacity="1" /><path clip-path="url(#clip330)" d="M2180.97 305.83 L2180.97 307.913 L2161.39 307.913 Q2161.66 312.311 2164.03 314.626 Q2166.41 316.918 2170.65 316.918 Q2173.1 316.918 2175.39 316.316 Q2177.71 315.714 2179.97 314.51 L2179.97 318.538 Q2177.68 319.51 2175.28 320.02 Q2172.87 320.529 2170.39 320.529 Q2164.19 320.529 2160.55 316.918 Q2156.94 313.307 2156.94 307.149 Q2156.94 300.784 2160.37 297.057 Q2163.82 293.307 2169.65 293.307 Q2174.88 293.307 2177.91 296.686 Q2180.97 300.043 2180.97 305.83 M2176.71 304.58 Q2176.66 301.085 2174.74 299.001 Q2172.85 296.918 2169.7 296.918 Q2166.13 296.918 2163.98 298.932 Q2161.85 300.946 2161.53 304.603 L2176.71 304.58 Z" fill="#000000" fill-rule="nonzero" fill-opacity="1" /><path clip-path="url(#clip330)" d="M2205.02 297.867 L2205.02 283.839 L2209.28 283.839 L2209.28 319.858 L2205.02 319.858 L2205.02 315.969 Q2203.68 318.283 2201.62 319.418 Q2199.58 320.529 2196.71 320.529 Q2192.01 320.529 2189.05 316.779 Q2186.11 313.029 2186.11 306.918 Q2186.11 300.807 2189.05 297.057 Q2192.01 293.307 2196.71 293.307 Q2199.58 293.307 2201.62 294.441 Q2203.68 295.552 2205.02 297.867 M2190.51 306.918 Q2190.51 311.617 2192.43 314.302 Q2194.37 316.964 2197.75 316.964 Q2201.13 316.964 2203.08 314.302 Q2205.02 311.617 2205.02 306.918 Q2205.02 302.219 2203.08 299.557 Q2201.13 296.872 2197.75 296.872 Q2194.37 296.872 2192.43 299.557 Q2190.51 302.219 2190.51 306.918 Z" fill="#000000" fill-rule="nonzero" fill-opacity="1" /><path clip-path="url(#clip330)" d="M2237.75 315.922 L2254.07 315.922 L2254.07 319.858 L2232.13 319.858 L2232.13 315.922 Q2234.79 313.168 2239.37 308.538 Q2243.98 303.885 2245.16 302.543 Q2247.41 300.02 2248.28 298.284 Q2249.19 296.524 2249.19 294.835 Q2249.19 292.08 2247.24 290.344 Q2245.32 288.608 2242.22 288.608 Q2240.02 288.608 2237.57 289.372 Q2235.14 290.135 2232.36 291.686 L2232.36 286.964 Q2235.18 285.83 2237.64 285.251 Q2240.09 284.673 2242.13 284.673 Q2247.5 284.673 2250.69 287.358 Q2253.89 290.043 2253.89 294.534 Q2253.89 296.663 2253.08 298.585 Q2252.29 300.483 2250.18 303.075 Q2249.6 303.747 2246.5 306.964 Q2243.4 310.159 2237.75 315.922 Z" fill="#000000" fill-rule="nonzero" fill-opacity="1" /></svg>
