<?xml version="1.0" encoding="utf-8"?>
<svg xmlns="http://www.w3.org/2000/svg" xmlns:xlink="http://www.w3.org/1999/xlink" width="600" height="400" viewBox="0 0 2400 1600">
<defs>
  <clipPath id="clip360">
    <rect x="0" y="0" width="2400" height="1600"/>
  </clipPath>
</defs>
<path clip-path="url(#clip360)" d="M0 1600 L2400 1600 L2400 0 L0 0  Z" fill="#ffffff" fill-rule="evenodd" fill-opacity="1"/>
<defs>
  <clipPath id="clip361">
    <rect x="480" y="0" width="1681" height="1600"/>
  </clipPath>
</defs>
<path clip-path="url(#clip360)" d="M186.274 1486.45 L2352.76 1486.45 L2352.76 47.2441 L186.274 47.2441  Z" fill="#ffffff" fill-rule="evenodd" fill-opacity="1"/>
<defs>
  <clipPath id="clip362">
    <rect x="186" y="47" width="2167" height="1440"/>
  </clipPath>
</defs>
<polyline clip-path="url(#clip362)" style="stroke:#000000; stroke-linecap:round; stroke-linejoin:round; stroke-width:2; stroke-opacity:0.1; fill:none" points="247.59,1486.45 247.59,47.2441 "/>
<polyline clip-path="url(#clip362)" style="stroke:#000000; stroke-linecap:round; stroke-linejoin:round; stroke-width:2; stroke-opacity:0.1; fill:none" points="758.552,1486.45 758.552,47.2441 "/>
<polyline clip-path="url(#clip362)" style="stroke:#000000; stroke-linecap:round; stroke-linejoin:round; stroke-width:2; stroke-opacity:0.1; fill:none" points="1269.51,1486.45 1269.51,47.2441 "/>
<polyline clip-path="url(#clip362)" style="stroke:#000000; stroke-linecap:round; stroke-linejoin:round; stroke-width:2; stroke-opacity:0.1; fill:none" points="1780.48,1486.45 1780.48,47.2441 "/>
<polyline clip-path="url(#clip362)" style="stroke:#000000; stroke-linecap:round; stroke-linejoin:round; stroke-width:2; stroke-opacity:0.1; fill:none" points="2291.44,1486.45 2291.44,47.2441 "/>
<polyline clip-path="url(#clip362)" style="stroke:#000000; stroke-linecap:round; stroke-linejoin:round; stroke-width:2; stroke-opacity:0.1; fill:none" points="186.274,1328.04 2352.76,1328.04 "/>
<polyline clip-path="url(#clip362)" style="stroke:#000000; stroke-linecap:round; stroke-linejoin:round; stroke-width:2; stroke-opacity:0.1; fill:none" points="186.274,1018.02 2352.76,1018.02 "/>
<polyline clip-path="url(#clip362)" style="stroke:#000000; stroke-linecap:round; stroke-linejoin:round; stroke-width:2; stroke-opacity:0.1; fill:none" points="186.274,708.007 2352.76,708.007 "/>
<polyline clip-path="url(#clip362)" style="stroke:#000000; stroke-linecap:round; stroke-linejoin:round; stroke-width:2; stroke-opacity:0.1; fill:none" points="186.274,397.992 2352.76,397.992 "/>
<polyline clip-path="url(#clip362)" style="stroke:#000000; stroke-linecap:round; stroke-linejoin:round; stroke-width:2; stroke-opacity:0.1; fill:none" points="186.274,87.9763 2352.76,87.9763 "/>
<polyline clip-path="url(#clip360)" style="stroke:#000000; stroke-linecap:round; stroke-linejoin:round; stroke-width:4; stroke-opacity:1; fill:none" points="186.274,1486.45 2352.76,1486.45 "/>
<polyline clip-path="url(#clip360)" style="stroke:#000000; stroke-linecap:round; stroke-linejoin:round; stroke-width:4; stroke-opacity:1; fill:none" points="247.59,1486.45 247.59,1467.55 "/>
<polyline clip-path="url(#clip360)" style="stroke:#000000; stroke-linecap:round; stroke-linejoin:round; stroke-width:4; stroke-opacity:1; fill:none" points="758.552,1486.45 758.552,1467.55 "/>
<polyline clip-path="url(#clip360)" style="stroke:#000000; stroke-linecap:round; stroke-linejoin:round; stroke-width:4; stroke-opacity:1; fill:none" points="1269.51,1486.45 1269.51,1467.55 "/>
<polyline clip-path="url(#clip360)" style="stroke:#000000; stroke-linecap:round; stroke-linejoin:round; stroke-width:4; stroke-opacity:1; fill:none" points="1780.48,1486.45 1780.48,1467.55 "/>
<polyline clip-path="url(#clip360)" style="stroke:#000000; stroke-linecap:round; stroke-linejoin:round; stroke-width:4; stroke-opacity:1; fill:none" points="2291.44,1486.45 2291.44,1467.55 "/>
<path clip-path="url(#clip360)" d="M247.59 1517.37 Q243.978 1517.37 242.15 1520.93 Q240.344 1524.47 240.344 1531.6 Q240.344 1538.71 242.15 1542.27 Q243.978 1545.82 247.59 1545.82 Q251.224 1545.82 253.029 1542.27 Q254.858 1538.71 254.858 1531.6 Q254.858 1524.47 253.029 1520.93 Q251.224 1517.37 247.59 1517.37 M247.59 1513.66 Q253.4 1513.66 256.455 1518.27 Q259.534 1522.85 259.534 1531.6 Q259.534 1540.33 256.455 1544.94 Q253.4 1549.52 247.59 1549.52 Q241.779 1549.52 238.701 1544.94 Q235.645 1540.33 235.645 1531.6 Q235.645 1522.85 238.701 1518.27 Q241.779 1513.66 247.59 1513.66 Z" fill="#000000" fill-rule="nonzero" fill-opacity="1" /><path clip-path="url(#clip360)" d="M737.823 1544.91 L754.143 1544.91 L754.143 1548.85 L732.198 1548.85 L732.198 1544.91 Q734.86 1542.16 739.444 1537.53 Q744.05 1532.88 745.231 1531.53 Q747.476 1529.01 748.356 1527.27 Q749.258 1525.51 749.258 1523.82 Q749.258 1521.07 747.314 1519.33 Q745.393 1517.6 742.291 1517.6 Q740.092 1517.6 737.638 1518.36 Q735.207 1519.13 732.43 1520.68 L732.43 1515.95 Q735.254 1514.82 737.707 1514.24 Q740.161 1513.66 742.198 1513.66 Q747.569 1513.66 750.763 1516.35 Q753.957 1519.03 753.957 1523.52 Q753.957 1525.65 753.147 1527.57 Q752.36 1529.47 750.254 1532.07 Q749.675 1532.74 746.573 1535.95 Q743.471 1539.15 737.823 1544.91 Z" fill="#000000" fill-rule="nonzero" fill-opacity="1" /><path clip-path="url(#clip360)" d="M764.004 1514.29 L782.36 1514.29 L782.36 1518.22 L768.286 1518.22 L768.286 1526.7 Q769.304 1526.35 770.323 1526.19 Q771.342 1526 772.36 1526 Q778.147 1526 781.527 1529.17 Q784.906 1532.34 784.906 1537.76 Q784.906 1543.34 781.434 1546.44 Q777.962 1549.52 771.642 1549.52 Q769.467 1549.52 767.198 1549.15 Q764.953 1548.78 762.545 1548.04 L762.545 1543.34 Q764.629 1544.47 766.851 1545.03 Q769.073 1545.58 771.55 1545.58 Q775.554 1545.58 777.892 1543.48 Q780.23 1541.37 780.23 1537.76 Q780.23 1534.15 777.892 1532.04 Q775.554 1529.94 771.55 1529.94 Q769.675 1529.94 767.8 1530.35 Q765.948 1530.77 764.004 1531.65 L764.004 1514.29 Z" fill="#000000" fill-rule="nonzero" fill-opacity="1" /><path clip-path="url(#clip360)" d="M1244.21 1514.29 L1262.57 1514.29 L1262.57 1518.22 L1248.5 1518.22 L1248.5 1526.7 Q1249.52 1526.35 1250.53 1526.19 Q1251.55 1526 1252.57 1526 Q1258.36 1526 1261.74 1529.17 Q1265.12 1532.34 1265.12 1537.76 Q1265.12 1543.34 1261.64 1546.44 Q1258.17 1549.52 1251.85 1549.52 Q1249.68 1549.52 1247.41 1549.15 Q1245.16 1548.78 1242.76 1548.04 L1242.76 1543.34 Q1244.84 1544.47 1247.06 1545.03 Q1249.28 1545.58 1251.76 1545.58 Q1255.77 1545.58 1258.1 1543.48 Q1260.44 1541.37 1260.44 1537.76 Q1260.44 1534.15 1258.1 1532.04 Q1255.77 1529.94 1251.76 1529.94 Q1249.89 1529.94 1248.01 1530.35 Q1246.16 1530.77 1244.21 1531.65 L1244.21 1514.29 Z" fill="#000000" fill-rule="nonzero" fill-opacity="1" /><path clip-path="url(#clip360)" d="M1284.33 1517.37 Q1280.72 1517.37 1278.89 1520.93 Q1277.08 1524.47 1277.08 1531.6 Q1277.08 1538.71 1278.89 1542.27 Q1280.72 1545.82 1284.33 1545.82 Q1287.96 1545.82 1289.77 1542.27 Q1291.6 1538.71 1291.6 1531.6 Q1291.6 1524.47 1289.77 1520.93 Q1287.96 1517.37 1284.33 1517.37 M1284.33 1513.66 Q1290.14 1513.66 1293.2 1518.27 Q1296.27 1522.85 1296.27 1531.6 Q1296.27 1540.33 1293.2 1544.94 Q1290.14 1549.52 1284.33 1549.52 Q1278.52 1549.52 1275.44 1544.94 Q1272.39 1540.33 1272.39 1531.6 Q1272.39 1522.85 1275.44 1518.27 Q1278.52 1513.66 1284.33 1513.66 Z" fill="#000000" fill-rule="nonzero" fill-opacity="1" /><path clip-path="url(#clip360)" d="M1754.33 1514.29 L1776.55 1514.29 L1776.55 1516.28 L1764.01 1548.85 L1759.12 1548.85 L1770.93 1518.22 L1754.33 1518.22 L1754.33 1514.29 Z" fill="#000000" fill-rule="nonzero" fill-opacity="1" /><path clip-path="url(#clip360)" d="M1785.72 1514.29 L1804.08 1514.29 L1804.08 1518.22 L1790 1518.22 L1790 1526.7 Q1791.02 1526.35 1792.04 1526.19 Q1793.06 1526 1794.08 1526 Q1799.86 1526 1803.24 1529.17 Q1806.62 1532.34 1806.62 1537.76 Q1806.62 1543.34 1803.15 1546.44 Q1799.68 1549.52 1793.36 1549.52 Q1791.18 1549.52 1788.92 1549.15 Q1786.67 1548.78 1784.26 1548.04 L1784.26 1543.34 Q1786.35 1544.47 1788.57 1545.03 Q1790.79 1545.58 1793.27 1545.58 Q1797.27 1545.58 1799.61 1543.48 Q1801.95 1541.37 1801.95 1537.76 Q1801.95 1534.15 1799.61 1532.04 Q1797.27 1529.94 1793.27 1529.94 Q1791.39 1529.94 1789.52 1530.35 Q1787.67 1530.77 1785.72 1531.65 L1785.72 1514.29 Z" fill="#000000" fill-rule="nonzero" fill-opacity="1" /><path clip-path="url(#clip360)" d="M2251.05 1544.91 L2258.69 1544.91 L2258.69 1518.55 L2250.38 1520.21 L2250.38 1515.95 L2258.64 1514.29 L2263.32 1514.29 L2263.32 1544.91 L2270.95 1544.91 L2270.95 1548.85 L2251.05 1548.85 L2251.05 1544.91 Z" fill="#000000" fill-rule="nonzero" fill-opacity="1" /><path clip-path="url(#clip360)" d="M2290.4 1517.37 Q2286.79 1517.37 2284.96 1520.93 Q2283.15 1524.47 2283.15 1531.6 Q2283.15 1538.71 2284.96 1542.27 Q2286.79 1545.82 2290.4 1545.82 Q2294.03 1545.82 2295.84 1542.27 Q2297.67 1538.71 2297.67 1531.6 Q2297.67 1524.47 2295.84 1520.93 Q2294.03 1517.37 2290.4 1517.37 M2290.4 1513.66 Q2296.21 1513.66 2299.26 1518.27 Q2302.34 1522.85 2302.34 1531.6 Q2302.34 1540.33 2299.26 1544.94 Q2296.21 1549.52 2290.4 1549.52 Q2284.59 1549.52 2281.51 1544.94 Q2278.45 1540.33 2278.45 1531.6 Q2278.45 1522.85 2281.51 1518.27 Q2284.59 1513.66 2290.4 1513.66 Z" fill="#000000" fill-rule="nonzero" fill-opacity="1" /><path clip-path="url(#clip360)" d="M2320.56 1517.37 Q2316.95 1517.37 2315.12 1520.93 Q2313.32 1524.47 2313.32 1531.6 Q2313.32 1538.71 2315.12 1542.27 Q2316.95 1545.82 2320.56 1545.82 Q2324.19 1545.82 2326 1542.27 Q2327.83 1538.71 2327.83 1531.6 Q2327.83 1524.47 2326 1520.93 Q2324.19 1517.37 2320.56 1517.37 M2320.56 1513.66 Q2326.37 1513.66 2329.43 1518.27 Q2332.5 1522.85 2332.5 1531.6 Q2332.5 1540.33 2329.43 1544.94 Q2326.37 1549.52 2320.56 1549.52 Q2314.75 1549.52 2311.67 1544.94 Q2308.62 1540.33 2308.62 1531.6 Q2308.62 1522.85 2311.67 1518.27 Q2314.75 1513.66 2320.56 1513.66 Z" fill="#000000" fill-rule="nonzero" fill-opacity="1" /><polyline clip-path="url(#clip360)" style="stroke:#000000; stroke-linecap:round; stroke-linejoin:round; stroke-width:4; stroke-opacity:1; fill:none" points="186.274,1486.45 186.274,47.2441 "/>
<polyline clip-path="url(#clip360)" style="stroke:#000000; stroke-linecap:round; stroke-linejoin:round; stroke-width:4; stroke-opacity:1; fill:none" points="186.274,1328.04 205.172,1328.04 "/>
<polyline clip-path="url(#clip360)" style="stroke:#000000; stroke-linecap:round; stroke-linejoin:round; stroke-width:4; stroke-opacity:1; fill:none" points="186.274,1018.02 205.172,1018.02 "/>
<polyline clip-path="url(#clip360)" style="stroke:#000000; stroke-linecap:round; stroke-linejoin:round; stroke-width:4; stroke-opacity:1; fill:none" points="186.274,708.007 205.172,708.007 "/>
<polyline clip-path="url(#clip360)" style="stroke:#000000; stroke-linecap:round; stroke-linejoin:round; stroke-width:4; stroke-opacity:1; fill:none" points="186.274,397.992 205.172,397.992 "/>
<polyline clip-path="url(#clip360)" style="stroke:#000000; stroke-linecap:round; stroke-linejoin:round; stroke-width:4; stroke-opacity:1; fill:none" points="186.274,87.9763 205.172,87.9763 "/>
<path clip-path="url(#clip360)" d="M62.9365 1313.84 Q59.3254 1313.84 57.4967 1317.4 Q55.6912 1320.94 55.6912 1328.07 Q55.6912 1335.18 57.4967 1338.74 Q59.3254 1342.29 62.9365 1342.29 Q66.5707 1342.29 68.3763 1338.74 Q70.205 1335.18 70.205 1328.07 Q70.205 1320.94 68.3763 1317.4 Q66.5707 1313.84 62.9365 1313.84 M62.9365 1310.13 Q68.7467 1310.13 71.8022 1314.74 Q74.8809 1319.32 74.8809 1328.07 Q74.8809 1336.8 71.8022 1341.41 Q68.7467 1345.99 62.9365 1345.99 Q57.1264 1345.99 54.0477 1341.41 Q50.9921 1336.8 50.9921 1328.07 Q50.9921 1319.32 54.0477 1314.74 Q57.1264 1310.13 62.9365 1310.13 Z" fill="#000000" fill-rule="nonzero" fill-opacity="1" /><path clip-path="url(#clip360)" d="M83.0984 1339.44 L87.9827 1339.44 L87.9827 1345.32 L83.0984 1345.32 L83.0984 1339.44 Z" fill="#000000" fill-rule="nonzero" fill-opacity="1" /><path clip-path="url(#clip360)" d="M108.168 1313.84 Q104.557 1313.84 102.728 1317.4 Q100.922 1320.94 100.922 1328.07 Q100.922 1335.18 102.728 1338.74 Q104.557 1342.29 108.168 1342.29 Q111.802 1342.29 113.608 1338.74 Q115.436 1335.18 115.436 1328.07 Q115.436 1320.94 113.608 1317.4 Q111.802 1313.84 108.168 1313.84 M108.168 1310.13 Q113.978 1310.13 117.033 1314.74 Q120.112 1319.32 120.112 1328.07 Q120.112 1336.8 117.033 1341.41 Q113.978 1345.99 108.168 1345.99 Q102.358 1345.99 99.2789 1341.41 Q96.2234 1336.8 96.2234 1328.07 Q96.2234 1319.32 99.2789 1314.74 Q102.358 1310.13 108.168 1310.13 Z" fill="#000000" fill-rule="nonzero" fill-opacity="1" /><path clip-path="url(#clip360)" d="M138.33 1313.84 Q134.719 1313.84 132.89 1317.4 Q131.084 1320.94 131.084 1328.07 Q131.084 1335.18 132.89 1338.74 Q134.719 1342.29 138.33 1342.29 Q141.964 1342.29 143.769 1338.74 Q145.598 1335.18 145.598 1328.07 Q145.598 1320.94 143.769 1317.4 Q141.964 1313.84 138.33 1313.84 M138.33 1310.13 Q144.14 1310.13 147.195 1314.74 Q150.274 1319.32 150.274 1328.07 Q150.274 1336.8 147.195 1341.41 Q144.14 1345.99 138.33 1345.99 Q132.519 1345.99 129.441 1341.41 Q126.385 1336.8 126.385 1328.07 Q126.385 1319.32 129.441 1314.74 Q132.519 1310.13 138.33 1310.13 Z" fill="#000000" fill-rule="nonzero" fill-opacity="1" /><path clip-path="url(#clip360)" d="M63.9319 1003.82 Q60.3208 1003.82 58.4921 1007.39 Q56.6865 1010.93 56.6865 1018.06 Q56.6865 1025.16 58.4921 1028.73 Q60.3208 1032.27 63.9319 1032.27 Q67.5661 1032.27 69.3717 1028.73 Q71.2004 1025.16 71.2004 1018.06 Q71.2004 1010.93 69.3717 1007.39 Q67.5661 1003.82 63.9319 1003.82 M63.9319 1000.12 Q69.742 1000.12 72.7976 1004.72 Q75.8763 1009.31 75.8763 1018.06 Q75.8763 1026.78 72.7976 1031.39 Q69.742 1035.97 63.9319 1035.97 Q58.1217 1035.97 55.043 1031.39 Q51.9875 1026.78 51.9875 1018.06 Q51.9875 1009.31 55.043 1004.72 Q58.1217 1000.12 63.9319 1000.12 Z" fill="#000000" fill-rule="nonzero" fill-opacity="1" /><path clip-path="url(#clip360)" d="M84.0938 1029.42 L88.978 1029.42 L88.978 1035.3 L84.0938 1035.3 L84.0938 1029.42 Z" fill="#000000" fill-rule="nonzero" fill-opacity="1" /><path clip-path="url(#clip360)" d="M103.191 1031.37 L119.51 1031.37 L119.51 1035.3 L97.566 1035.3 L97.566 1031.37 Q100.228 1028.61 104.811 1023.98 Q109.418 1019.33 110.598 1017.99 Q112.844 1015.46 113.723 1013.73 Q114.626 1011.97 114.626 1010.28 Q114.626 1007.52 112.682 1005.79 Q110.76 1004.05 107.658 1004.05 Q105.459 1004.05 103.006 1004.82 Q100.575 1005.58 97.7974 1007.13 L97.7974 1002.41 Q100.621 1001.27 103.075 1000.7 Q105.529 1000.12 107.566 1000.12 Q112.936 1000.12 116.131 1002.8 Q119.325 1005.49 119.325 1009.98 Q119.325 1012.11 118.515 1014.03 Q117.728 1015.93 115.621 1018.52 Q115.043 1019.19 111.941 1022.41 Q108.839 1025.6 103.191 1031.37 Z" fill="#000000" fill-rule="nonzero" fill-opacity="1" /><path clip-path="url(#clip360)" d="M129.371 1000.74 L147.728 1000.74 L147.728 1004.68 L133.654 1004.68 L133.654 1013.15 Q134.672 1012.8 135.691 1012.64 Q136.709 1012.46 137.728 1012.46 Q143.515 1012.46 146.894 1015.63 Q150.274 1018.8 150.274 1024.21 Q150.274 1029.79 146.802 1032.89 Q143.33 1035.97 137.01 1035.97 Q134.834 1035.97 132.566 1035.6 Q130.32 1035.23 127.913 1034.49 L127.913 1029.79 Q129.996 1030.93 132.219 1031.48 Q134.441 1032.04 136.918 1032.04 Q140.922 1032.04 143.26 1029.93 Q145.598 1027.83 145.598 1024.21 Q145.598 1020.6 143.26 1018.5 Q140.922 1016.39 136.918 1016.39 Q135.043 1016.39 133.168 1016.81 Q131.316 1017.22 129.371 1018.1 L129.371 1000.74 Z" fill="#000000" fill-rule="nonzero" fill-opacity="1" /><path clip-path="url(#clip360)" d="M62.9365 693.806 Q59.3254 693.806 57.4967 697.37 Q55.6912 700.912 55.6912 708.042 Q55.6912 715.148 57.4967 718.713 Q59.3254 722.255 62.9365 722.255 Q66.5707 722.255 68.3763 718.713 Q70.205 715.148 70.205 708.042 Q70.205 700.912 68.3763 697.37 Q66.5707 693.806 62.9365 693.806 M62.9365 690.102 Q68.7467 690.102 71.8022 694.708 Q74.8809 699.292 74.8809 708.042 Q74.8809 716.769 71.8022 721.375 Q68.7467 725.958 62.9365 725.958 Q57.1264 725.958 54.0477 721.375 Q50.9921 716.769 50.9921 708.042 Q50.9921 699.292 54.0477 694.708 Q57.1264 690.102 62.9365 690.102 Z" fill="#000000" fill-rule="nonzero" fill-opacity="1" /><path clip-path="url(#clip360)" d="M83.0984 719.407 L87.9827 719.407 L87.9827 725.287 L83.0984 725.287 L83.0984 719.407 Z" fill="#000000" fill-rule="nonzero" fill-opacity="1" /><path clip-path="url(#clip360)" d="M98.2141 690.727 L116.57 690.727 L116.57 694.662 L102.496 694.662 L102.496 703.134 Q103.515 702.787 104.534 702.625 Q105.552 702.44 106.571 702.44 Q112.358 702.44 115.737 705.611 Q119.117 708.782 119.117 714.199 Q119.117 719.778 115.645 722.88 Q112.172 725.958 105.853 725.958 Q103.677 725.958 101.409 725.588 Q99.1632 725.218 96.7558 724.477 L96.7558 719.778 Q98.8391 720.912 101.061 721.468 Q103.284 722.023 105.76 722.023 Q109.765 722.023 112.103 719.917 Q114.441 717.81 114.441 714.199 Q114.441 710.588 112.103 708.482 Q109.765 706.375 105.76 706.375 Q103.885 706.375 102.01 706.792 Q100.159 707.208 98.2141 708.088 L98.2141 690.727 Z" fill="#000000" fill-rule="nonzero" fill-opacity="1" /><path clip-path="url(#clip360)" d="M138.33 693.806 Q134.719 693.806 132.89 697.37 Q131.084 700.912 131.084 708.042 Q131.084 715.148 132.89 718.713 Q134.719 722.255 138.33 722.255 Q141.964 722.255 143.769 718.713 Q145.598 715.148 145.598 708.042 Q145.598 700.912 143.769 697.37 Q141.964 693.806 138.33 693.806 M138.33 690.102 Q144.14 690.102 147.195 694.708 Q150.274 699.292 150.274 708.042 Q150.274 716.769 147.195 721.375 Q144.14 725.958 138.33 725.958 Q132.519 725.958 129.441 721.375 Q126.385 716.769 126.385 708.042 Q126.385 699.292 129.441 694.708 Q132.519 690.102 138.33 690.102 Z" fill="#000000" fill-rule="nonzero" fill-opacity="1" /><path clip-path="url(#clip360)" d="M63.9319 383.79 Q60.3208 383.79 58.4921 387.355 Q56.6865 390.897 56.6865 398.026 Q56.6865 405.133 58.4921 408.698 Q60.3208 412.239 63.9319 412.239 Q67.5661 412.239 69.3717 408.698 Q71.2004 405.133 71.2004 398.026 Q71.2004 390.897 69.3717 387.355 Q67.5661 383.79 63.9319 383.79 M63.9319 380.087 Q69.742 380.087 72.7976 384.693 Q75.8763 389.276 75.8763 398.026 Q75.8763 406.753 72.7976 411.36 Q69.742 415.943 63.9319 415.943 Q58.1217 415.943 55.043 411.36 Q51.9875 406.753 51.9875 398.026 Q51.9875 389.276 55.043 384.693 Q58.1217 380.087 63.9319 380.087 Z" fill="#000000" fill-rule="nonzero" fill-opacity="1" /><path clip-path="url(#clip360)" d="M84.0938 409.392 L88.978 409.392 L88.978 415.272 L84.0938 415.272 L84.0938 409.392 Z" fill="#000000" fill-rule="nonzero" fill-opacity="1" /><path clip-path="url(#clip360)" d="M97.9826 380.712 L120.205 380.712 L120.205 382.702 L107.658 415.272 L102.774 415.272 L114.58 384.647 L97.9826 384.647 L97.9826 380.712 Z" fill="#000000" fill-rule="nonzero" fill-opacity="1" /><path clip-path="url(#clip360)" d="M129.371 380.712 L147.728 380.712 L147.728 384.647 L133.654 384.647 L133.654 393.119 Q134.672 392.772 135.691 392.61 Q136.709 392.425 137.728 392.425 Q143.515 392.425 146.894 395.596 Q150.274 398.767 150.274 404.184 Q150.274 409.762 146.802 412.864 Q143.33 415.943 137.01 415.943 Q134.834 415.943 132.566 415.573 Q130.32 415.202 127.913 414.461 L127.913 409.762 Q129.996 410.897 132.219 411.452 Q134.441 412.008 136.918 412.008 Q140.922 412.008 143.26 409.901 Q145.598 407.795 145.598 404.184 Q145.598 400.573 143.26 398.466 Q140.922 396.36 136.918 396.36 Q135.043 396.36 133.168 396.776 Q131.316 397.193 129.371 398.073 L129.371 380.712 Z" fill="#000000" fill-rule="nonzero" fill-opacity="1" /><path clip-path="url(#clip360)" d="M53.7467 101.321 L61.3856 101.321 L61.3856 74.9555 L53.0754 76.6222 L53.0754 72.3629 L61.3393 70.6963 L66.0152 70.6963 L66.0152 101.321 L73.654 101.321 L73.654 105.256 L53.7467 105.256 L53.7467 101.321 Z" fill="#000000" fill-rule="nonzero" fill-opacity="1" /><path clip-path="url(#clip360)" d="M83.0984 99.3767 L87.9827 99.3767 L87.9827 105.256 L83.0984 105.256 L83.0984 99.3767 Z" fill="#000000" fill-rule="nonzero" fill-opacity="1" /><path clip-path="url(#clip360)" d="M108.168 73.775 Q104.557 73.775 102.728 77.3398 Q100.922 80.8814 100.922 88.011 Q100.922 95.1174 102.728 98.6822 Q104.557 102.224 108.168 102.224 Q111.802 102.224 113.608 98.6822 Q115.436 95.1174 115.436 88.011 Q115.436 80.8814 113.608 77.3398 Q111.802 73.775 108.168 73.775 M108.168 70.0713 Q113.978 70.0713 117.033 74.6777 Q120.112 79.261 120.112 88.011 Q120.112 96.7378 117.033 101.344 Q113.978 105.928 108.168 105.928 Q102.358 105.928 99.2789 101.344 Q96.2234 96.7378 96.2234 88.011 Q96.2234 79.261 99.2789 74.6777 Q102.358 70.0713 108.168 70.0713 Z" fill="#000000" fill-rule="nonzero" fill-opacity="1" /><path clip-path="url(#clip360)" d="M138.33 73.775 Q134.719 73.775 132.89 77.3398 Q131.084 80.8814 131.084 88.011 Q131.084 95.1174 132.89 98.6822 Q134.719 102.224 138.33 102.224 Q141.964 102.224 143.769 98.6822 Q145.598 95.1174 145.598 88.011 Q145.598 80.8814 143.769 77.3398 Q141.964 73.775 138.33 73.775 M138.33 70.0713 Q144.14 70.0713 147.195 74.6777 Q150.274 79.261 150.274 88.011 Q150.274 96.7378 147.195 101.344 Q144.14 105.928 138.33 105.928 Q132.519 105.928 129.441 101.344 Q126.385 96.7378 126.385 88.011 Q126.385 79.261 129.441 74.6777 Q132.519 70.0713 138.33 70.0713 Z" fill="#000000" fill-rule="nonzero" fill-opacity="1" /><polyline clip-path="url(#clip362)" style="stroke:#009af9; stroke-linecap:round; stroke-linejoin:round; stroke-width:4; stroke-opacity:1; fill:none" points="247.59,1267.98 257.809,1342.53 268.028,1342.62 278.247,1317.7 288.467,1125.14 298.686,1445.72 308.905,1321.8 319.124,1379.7 329.344,1255.51 339.563,1293.64 349.782,1319.39 360.001,1300.81 370.221,1286.79 380.44,1394.72 390.659,1249.67 400.878,1220.14 411.098,1261.07 421.317,1258.52 431.536,1252.33 441.755,1279.47 451.975,1289.48 462.194,1209.7 472.413,1277.76 482.632,1214.18 492.852,1290.24 503.071,1200.41 513.29,1288.81 523.509,1216.2 533.729,1243.06 543.948,1227.81 554.167,1111.45 564.386,1271.94 574.606,1167.39 584.825,1236.88 595.044,1161.2 605.263,1171.98 615.483,1232.85 625.702,1173.78 635.921,1169.28 646.14,1130.75 656.36,1221.76 666.579,1122.85 676.798,1151.8 687.017,1145.4 697.237,1171.19 707.456,1169.33 717.675,1211.97 727.894,1150.11 738.114,1133.62 748.333,1042.18 758.552,1150.35 768.771,1160.79 778.991,1138.72 789.21,1058.14 799.429,1070.37 809.649,1106.17 819.868,1117.64 830.087,1119.66 840.306,1081.34 850.526,1099.9 860.745,1073.68 870.964,1061.59 881.183,969.747 891.403,923.225 901.622,963.207 911.841,946.893 922.06,867.269 932.28,810.406 942.499,700.476 952.718,705.49 962.937,594.719 973.157,541.068 983.376,489.056 993.595,367.085 1003.81,342.067 1014.03,231.187 1024.25,266.953 1034.47,182.935 1044.69,249.658 1054.91,87.9763 1065.13,104.539 1075.35,141.516 1085.57,126.843 1095.79,158.441 1106.01,104.754 1116.23,279.766 1126.45,316.892 1136.66,361.617 1146.88,446.752 1157.1,508.429 1167.32,560.606 1177.54,549.769 1187.76,714.662 1197.98,698.672 1208.2,645.489 1218.42,741.317 1228.64,817.852 1238.86,816.649 1249.08,817.306 1259.3,904.419 1269.51,875.188 1279.73,890.726 1289.95,874.875 1300.17,966.171 1310.39,953.098 1320.61,952.035 1330.83,945.57 1341.05,922.917 1351.27,1002.44 1361.49,961.729 1371.71,813.352 1381.93,859.963 1392.15,937.21 1402.37,877.911 1412.58,884.792 1422.8,966.972 1433.02,952.285 1443.24,862.695 1453.46,874.721 1463.68,868.765 1473.9,900.009 1484.12,901.892 1494.34,847.389 1504.56,845.581 1514.78,840.715 1525,864.796 1535.22,874.754 1545.43,800.192 1555.65,808.025 1565.87,874.389 1576.09,824.282 1586.31,816.57 1596.53,846.372 1606.75,840.84 1616.97,792.711 1627.19,794.506 1637.41,824.812 1647.63,783.099 1657.85,726.669 1668.07,776.826 1678.29,806.827 1688.5,828.078 1698.72,922.5 1708.94,820.442 1719.16,789.554 1729.38,760.612 1739.6,839.699 1749.82,731.488 1760.04,716.518 1770.26,813.503 1780.48,766.673 1790.7,783.297 1800.92,772.819 1811.14,728.956 1821.35,778.928 1831.57,739.281 1841.79,758.172 1852.01,755.161 1862.23,762.14 1872.45,713.648 1882.67,714.342 1892.89,735.564 1903.11,779.508 1913.33,704.593 1923.55,724.153 1933.77,657.359 1943.99,757.744 1954.2,759.863 1964.42,760.91 1974.64,690.087 1984.86,703.825 1995.08,692.063 2005.3,654.016 2015.52,666.433 2025.74,629.395 2035.96,700.012 2046.18,633.752 2056.4,672.842 2066.62,648.771 2076.84,633.291 2087.06,616.001 2097.27,682.443 2107.49,680.821 2117.71,666.214 2127.93,607.404 2138.15,694.178 2148.37,593.945 2158.59,660.233 2168.81,692.067 2179.03,620.215 2189.25,647.987 2199.47,668.197 2209.69,641.402 2219.91,662.401 2230.12,629.04 2240.34,659.626 2250.56,547.431 2260.78,578.739 2271,641.716 2281.22,633.329 2291.44,598.491 "/>
<polyline clip-path="url(#clip362)" style="stroke:#e26f46; stroke-linecap:round; stroke-linejoin:round; stroke-width:4; stroke-opacity:1; fill:none" points="247.59,1301.55 257.809,1344.36 268.028,1320.14 278.247,1341.55 288.467,1339.3 298.686,1324.36 308.905,1321.9 319.124,1316.64 329.344,1315.9 339.563,1329.63 349.782,1316.72 360.001,1323.78 370.221,1351.74 380.44,1317.52 390.659,1326.55 400.878,1288.45 411.098,1320.59 421.317,1311.83 431.536,1316.21 441.755,1303.94 451.975,1307.65 462.194,1318.01 472.413,1296.81 482.632,1294.14 492.852,1316.47 503.071,1315.74 513.29,1313.98 523.509,1298.86 533.729,1310.45 543.948,1317.59 554.167,1290.56 564.386,1282.07 574.606,1290.68 584.825,1295.46 595.044,1272.67 605.263,1299.7 615.483,1283.81 625.702,1296.69 635.921,1270.58 646.14,1267.43 656.36,1301.77 666.579,1288.3 676.798,1295.1 687.017,1283.31 697.237,1268.8 707.456,1285.87 717.675,1296.52 727.894,1275.56 738.114,1294.41 748.333,1304.67 758.552,1310.87 768.771,1286.15 778.991,1278.51 789.21,1281.37 799.429,1275.16 809.649,1300.73 819.868,1278.49 830.087,1303.93 840.306,1284.16 850.526,1277.88 860.745,1269.83 870.964,1284.47 881.183,1271.41 891.403,1274.46 901.622,1244.41 911.841,1284.91 922.06,1268.37 932.28,1265.94 942.499,1255.09 952.718,1284.81 962.937,1276.47 973.157,1283.2 983.376,1273.62 993.595,1240.07 1003.81,1251.02 1014.03,1231.26 1024.25,1236.14 1034.47,1245.72 1044.69,1232.18 1054.91,1208.68 1065.13,1221.18 1075.35,1217.12 1085.57,1210.13 1095.79,1212.84 1106.01,1170.8 1116.23,1188.62 1126.45,1152.12 1136.66,1136.4 1146.88,1105.11 1157.1,1105.77 1167.32,1105.86 1177.54,1086.43 1187.76,1050.84 1197.98,1009.5 1208.2,965.716 1218.42,963.17 1228.64,910.359 1238.86,892.362 1249.08,860.231 1259.3,822.181 1269.51,763.12 1279.73,705.202 1289.95,656.149 1300.17,637.016 1310.39,570.151 1320.61,542.415 1330.83,498.034 1341.05,455.062 1351.27,396.546 1361.49,337.002 1371.71,308.591 1381.93,305.191 1392.15,228.535 1402.37,248.644 1412.58,186.969 1422.8,154.042 1433.02,142.719 1443.24,115.119 1453.46,122.915 1463.68,104.663 1473.9,98.3575 1484.12,115.429 1494.34,87.9763 1504.56,107.87 1514.78,131.463 1525,160.129 1535.22,178.729 1545.43,217.828 1555.65,247.25 1565.87,261.556 1576.09,331.757 1586.31,374.433 1596.53,369.536 1606.75,425.951 1616.97,488.106 1627.19,535.595 1637.41,551.793 1647.63,610.297 1657.85,656.299 1668.07,705.658 1678.29,730.908 1688.5,796.214 1698.72,819.813 1708.94,877.101 1719.16,857.437 1729.38,932.766 1739.6,944.143 1749.82,978.053 1760.04,981.3 1770.26,1015.35 1780.48,1031.6 1790.7,1052.29 1800.92,1063.72 1811.14,1087.82 1821.35,1116.84 1831.57,1104.99 1841.79,1137.19 1852.01,1164.34 1862.23,1174.09 1872.45,1144.22 1882.67,1160.87 1892.89,1152.15 1903.11,1167.08 1913.33,1168.81 1923.55,1177.46 1933.77,1167.76 1943.99,1187.83 1954.2,1163.1 1964.42,1182.1 1974.64,1180.24 1984.86,1176.58 1995.08,1167.89 2005.3,1181.49 2015.52,1183.02 2025.74,1167.84 2035.96,1180.8 2046.18,1179.97 2056.4,1188.51 2066.62,1161.34 2076.84,1187.59 2087.06,1178.49 2097.27,1157.8 2107.49,1161.29 2117.71,1175.31 2127.93,1161.76 2138.15,1166.98 2148.37,1170.1 2158.59,1187.34 2168.81,1147.29 2179.03,1160.73 2189.25,1142.55 2199.47,1186.77 2209.69,1161.91 2219.91,1147.77 2230.12,1166.07 2240.34,1169.69 2250.56,1158.45 2260.78,1149.64 2271,1172.5 2281.22,1150.67 2291.44,1158.23 "/>
<path clip-path="url(#clip360)" d="M2011.46 250.738 L2280.54 250.738 L2280.54 95.2176 L2011.46 95.2176  Z" fill="#ffffff" fill-rule="evenodd" fill-opacity="1"/>
<polyline clip-path="url(#clip360)" style="stroke:#000000; stroke-linecap:round; stroke-linejoin:round; stroke-width:4; stroke-opacity:1; fill:none" points="2011.46,250.738 2280.54,250.738 2280.54,95.2176 2011.46,95.2176 2011.46,250.738 "/>
<polyline clip-path="url(#clip360)" style="stroke:#009af9; stroke-linecap:round; stroke-linejoin:round; stroke-width:4; stroke-opacity:1; fill:none" points="2035.53,147.058 2179.97,147.058 "/>
<path clip-path="url(#clip360)" d="M2217.88 166.745 Q2216.07 171.375 2214.36 172.787 Q2212.65 174.199 2209.78 174.199 L2206.38 174.199 L2206.38 170.634 L2208.88 170.634 Q2210.63 170.634 2211.61 169.8 Q2212.58 168.967 2213.76 165.865 L2214.52 163.921 L2204.04 138.412 L2208.55 138.412 L2216.65 158.689 L2224.76 138.412 L2229.27 138.412 L2217.88 166.745 Z" fill="#000000" fill-rule="nonzero" fill-opacity="1" /><path clip-path="url(#clip360)" d="M2236.56 160.402 L2244.2 160.402 L2244.2 134.037 L2235.89 135.703 L2235.89 131.444 L2244.15 129.778 L2248.83 129.778 L2248.83 160.402 L2256.47 160.402 L2256.47 164.338 L2236.56 164.338 L2236.56 160.402 Z" fill="#000000" fill-rule="nonzero" fill-opacity="1" /><polyline clip-path="url(#clip360)" style="stroke:#e26f46; stroke-linecap:round; stroke-linejoin:round; stroke-width:4; stroke-opacity:1; fill:none" points="2035.53,198.898 2179.97,198.898 "/>
<path clip-path="url(#clip360)" d="M2217.88 218.585 Q2216.07 223.215 2214.36 224.627 Q2212.65 226.039 2209.78 226.039 L2206.38 226.039 L2206.38 222.474 L2208.88 222.474 Q2210.63 222.474 2211.61 221.64 Q2212.58 220.807 2213.76 217.705 L2214.52 215.761 L2204.04 190.252 L2208.55 190.252 L2216.65 210.529 L2224.76 190.252 L2229.27 190.252 L2217.88 218.585 Z" fill="#000000" fill-rule="nonzero" fill-opacity="1" /><path clip-path="url(#clip360)" d="M2239.78 212.242 L2256.1 212.242 L2256.1 216.178 L2234.15 216.178 L2234.15 212.242 Q2236.82 209.488 2241.4 204.858 Q2246 200.205 2247.19 198.863 Q2249.43 196.34 2250.31 194.604 Q2251.21 192.844 2251.21 191.155 Q2251.21 188.4 2249.27 186.664 Q2247.35 184.928 2244.25 184.928 Q2242.05 184.928 2239.59 185.692 Q2237.16 186.455 2234.38 188.006 L2234.38 183.284 Q2237.21 182.15 2239.66 181.571 Q2242.12 180.993 2244.15 180.993 Q2249.52 180.993 2252.72 183.678 Q2255.91 186.363 2255.91 190.854 Q2255.91 192.983 2255.1 194.905 Q2254.32 196.803 2252.21 199.395 Q2251.63 200.067 2248.53 203.284 Q2245.43 206.479 2239.78 212.242 Z" fill="#000000" fill-rule="nonzero" fill-opacity="1" /></svg>
