<?xml version="1.0" encoding="utf-8"?>
<svg xmlns="http://www.w3.org/2000/svg" xmlns:xlink="http://www.w3.org/1999/xlink" width="600" height="400" viewBox="0 0 2400 1600">
<defs>
  <clipPath id="clip060">
    <rect x="0" y="0" width="2400" height="1600"/>
  </clipPath>
</defs>
<path clip-path="url(#clip060)" d="M0 1600 L2400 1600 L2400 0 L0 0  Z" fill="#ffffff" fill-rule="evenodd" fill-opacity="1"/>
<defs>
  <clipPath id="clip061">
    <rect x="480" y="0" width="1681" height="1600"/>
  </clipPath>
</defs>
<path clip-path="url(#clip060)" d="M186.274 1486.45 L2352.76 1486.45 L2352.76 47.2441 L186.274 47.2441  Z" fill="#ffffff" fill-rule="evenodd" fill-opacity="1"/>
<defs>
  <clipPath id="clip062">
    <rect x="186" y="47" width="2167" height="1440"/>
  </clipPath>
</defs>
<polyline clip-path="url(#clip062)" style="stroke:#000000; stroke-linecap:round; stroke-linejoin:round; stroke-width:2; stroke-opacity:0.1; fill:none" points="247.59,1486.45 247.59,47.2441 "/>
<polyline clip-path="url(#clip062)" style="stroke:#000000; stroke-linecap:round; stroke-linejoin:round; stroke-width:2; stroke-opacity:0.1; fill:none" points="758.552,1486.45 758.552,47.2441 "/>
<polyline clip-path="url(#clip062)" style="stroke:#000000; stroke-linecap:round; stroke-linejoin:round; stroke-width:2; stroke-opacity:0.1; fill:none" points="1269.51,1486.45 1269.51,47.2441 "/>
<polyline clip-path="url(#clip062)" style="stroke:#000000; stroke-linecap:round; stroke-linejoin:round; stroke-width:2; stroke-opacity:0.1; fill:none" points="1780.48,1486.45 1780.48,47.2441 "/>
<polyline clip-path="url(#clip062)" style="stroke:#000000; stroke-linecap:round; stroke-linejoin:round; stroke-width:2; stroke-opacity:0.1; fill:none" points="2291.44,1486.45 2291.44,47.2441 "/>
<polyline clip-path="url(#clip062)" style="stroke:#000000; stroke-linecap:round; stroke-linejoin:round; stroke-width:2; stroke-opacity:0.1; fill:none" points="186.274,1438.4 2352.76,1438.4 "/>
<polyline clip-path="url(#clip062)" style="stroke:#000000; stroke-linecap:round; stroke-linejoin:round; stroke-width:2; stroke-opacity:0.1; fill:none" points="186.274,1100.57 2352.76,1100.57 "/>
<polyline clip-path="url(#clip062)" style="stroke:#000000; stroke-linecap:round; stroke-linejoin:round; stroke-width:2; stroke-opacity:0.1; fill:none" points="186.274,762.745 2352.76,762.745 "/>
<polyline clip-path="url(#clip062)" style="stroke:#000000; stroke-linecap:round; stroke-linejoin:round; stroke-width:2; stroke-opacity:0.1; fill:none" points="186.274,424.917 2352.76,424.917 "/>
<polyline clip-path="url(#clip062)" style="stroke:#000000; stroke-linecap:round; stroke-linejoin:round; stroke-width:2; stroke-opacity:0.1; fill:none" points="186.274,87.0882 2352.76,87.0882 "/>
<polyline clip-path="url(#clip060)" style="stroke:#000000; stroke-linecap:round; stroke-linejoin:round; stroke-width:4; stroke-opacity:1; fill:none" points="186.274,1486.45 2352.76,1486.45 "/>
<polyline clip-path="url(#clip060)" style="stroke:#000000; stroke-linecap:round; stroke-linejoin:round; stroke-width:4; stroke-opacity:1; fill:none" points="247.59,1486.45 247.59,1467.55 "/>
<polyline clip-path="url(#clip060)" style="stroke:#000000; stroke-linecap:round; stroke-linejoin:round; stroke-width:4; stroke-opacity:1; fill:none" points="758.552,1486.45 758.552,1467.55 "/>
<polyline clip-path="url(#clip060)" style="stroke:#000000; stroke-linecap:round; stroke-linejoin:round; stroke-width:4; stroke-opacity:1; fill:none" points="1269.51,1486.45 1269.51,1467.55 "/>
<polyline clip-path="url(#clip060)" style="stroke:#000000; stroke-linecap:round; stroke-linejoin:round; stroke-width:4; stroke-opacity:1; fill:none" points="1780.48,1486.45 1780.48,1467.55 "/>
<polyline clip-path="url(#clip060)" style="stroke:#000000; stroke-linecap:round; stroke-linejoin:round; stroke-width:4; stroke-opacity:1; fill:none" points="2291.44,1486.45 2291.44,1467.55 "/>
<path clip-path="url(#clip060)" d="M247.59 1517.37 Q243.978 1517.37 242.15 1520.93 Q240.344 1524.47 240.344 1531.6 Q240.344 1538.71 242.15 1542.27 Q243.978 1545.82 247.59 1545.82 Q251.224 1545.82 253.029 1542.27 Q254.858 1538.71 254.858 1531.6 Q254.858 1524.47 253.029 1520.93 Q251.224 1517.37 247.59 1517.37 M247.59 1513.66 Q253.4 1513.66 256.455 1518.27 Q259.534 1522.85 259.534 1531.6 Q259.534 1540.33 256.455 1544.94 Q253.4 1549.52 247.59 1549.52 Q241.779 1549.52 238.701 1544.94 Q235.645 1540.33 235.645 1531.6 Q235.645 1522.85 238.701 1518.27 Q241.779 1513.66 247.59 1513.66 Z" fill="#000000" fill-rule="nonzero" fill-opacity="1" /><path clip-path="url(#clip060)" d="M737.823 1544.91 L754.143 1544.91 L754.143 1548.85 L732.198 1548.85 L732.198 1544.91 Q734.86 1542.16 739.444 1537.53 Q744.05 1532.88 745.231 1531.53 Q747.476 1529.01 748.356 1527.27 Q749.258 1525.51 749.258 1523.82 Q749.258 1521.07 747.314 1519.33 Q745.393 1517.6 742.291 1517.6 Q740.092 1517.6 737.638 1518.36 Q735.207 1519.13 732.43 1520.68 L732.43 1515.95 Q735.254 1514.82 737.707 1514.24 Q740.161 1513.66 742.198 1513.66 Q747.569 1513.66 750.763 1516.35 Q753.957 1519.03 753.957 1523.52 Q753.957 1525.65 753.147 1527.57 Q752.36 1529.47 750.254 1532.07 Q749.675 1532.74 746.573 1535.95 Q743.471 1539.15 737.823 1544.91 Z" fill="#000000" fill-rule="nonzero" fill-opacity="1" /><path clip-path="url(#clip060)" d="M764.004 1514.29 L782.36 1514.29 L782.36 1518.22 L768.286 1518.22 L768.286 1526.7 Q769.304 1526.35 770.323 1526.19 Q771.342 1526 772.36 1526 Q778.147 1526 781.527 1529.17 Q784.906 1532.34 784.906 1537.76 Q784.906 1543.34 781.434 1546.44 Q777.962 1549.52 771.642 1549.52 Q769.467 1549.52 767.198 1549.15 Q764.953 1548.78 762.545 1548.04 L762.545 1543.34 Q764.629 1544.47 766.851 1545.03 Q769.073 1545.58 771.55 1545.58 Q775.554 1545.58 777.892 1543.48 Q780.23 1541.37 780.23 1537.76 Q780.23 1534.15 777.892 1532.04 Q775.554 1529.94 771.55 1529.94 Q769.675 1529.94 767.8 1530.35 Q765.948 1530.77 764.004 1531.65 L764.004 1514.29 Z" fill="#000000" fill-rule="nonzero" fill-opacity="1" /><path clip-path="url(#clip060)" d="M1244.21 1514.29 L1262.57 1514.29 L1262.57 1518.22 L1248.5 1518.22 L1248.5 1526.7 Q1249.52 1526.35 1250.53 1526.19 Q1251.55 1526 1252.57 1526 Q1258.36 1526 1261.74 1529.17 Q1265.12 1532.34 1265.12 1537.76 Q1265.12 1543.34 1261.64 1546.44 Q1258.17 1549.52 1251.85 1549.52 Q1249.68 1549.52 1247.41 1549.15 Q1245.16 1548.78 1242.76 1548.04 L1242.76 1543.34 Q1244.84 1544.47 1247.06 1545.03 Q1249.28 1545.58 1251.76 1545.58 Q1255.77 1545.58 1258.1 1543.48 Q1260.44 1541.37 1260.44 1537.76 Q1260.44 1534.15 1258.1 1532.04 Q1255.77 1529.94 1251.76 1529.94 Q1249.89 1529.94 1248.01 1530.35 Q1246.16 1530.77 1244.21 1531.65 L1244.21 1514.29 Z" fill="#000000" fill-rule="nonzero" fill-opacity="1" /><path clip-path="url(#clip060)" d="M1284.33 1517.37 Q1280.72 1517.37 1278.89 1520.93 Q1277.08 1524.47 1277.08 1531.6 Q1277.08 1538.71 1278.89 1542.27 Q1280.72 1545.82 1284.33 1545.82 Q1287.96 1545.82 1289.77 1542.27 Q1291.6 1538.71 1291.6 1531.6 Q1291.6 1524.47 1289.77 1520.93 Q1287.96 1517.37 1284.33 1517.37 M1284.33 1513.66 Q1290.14 1513.66 1293.2 1518.27 Q1296.27 1522.85 1296.27 1531.6 Q1296.27 1540.33 1293.2 1544.94 Q1290.14 1549.52 1284.33 1549.52 Q1278.52 1549.52 1275.44 1544.94 Q1272.39 1540.33 1272.39 1531.6 Q1272.39 1522.85 1275.44 1518.27 Q1278.52 1513.66 1284.33 1513.66 Z" fill="#000000" fill-rule="nonzero" fill-opacity="1" /><path clip-path="url(#clip060)" d="M1754.33 1514.29 L1776.55 1514.29 L1776.55 1516.28 L1764.01 1548.85 L1759.12 1548.85 L1770.93 1518.22 L1754.33 1518.22 L1754.33 1514.29 Z" fill="#000000" fill-rule="nonzero" fill-opacity="1" /><path clip-path="url(#clip060)" d="M1785.72 1514.29 L1804.08 1514.29 L1804.08 1518.22 L1790 1518.22 L1790 1526.7 Q1791.02 1526.35 1792.04 1526.19 Q1793.06 1526 1794.08 1526 Q1799.86 1526 1803.24 1529.17 Q1806.62 1532.34 1806.62 1537.76 Q1806.62 1543.34 1803.15 1546.44 Q1799.68 1549.52 1793.36 1549.52 Q1791.18 1549.52 1788.92 1549.15 Q1786.67 1548.78 1784.26 1548.04 L1784.26 1543.34 Q1786.35 1544.47 1788.57 1545.03 Q1790.79 1545.58 1793.27 1545.58 Q1797.27 1545.58 1799.61 1543.48 Q1801.95 1541.37 1801.95 1537.76 Q1801.95 1534.15 1799.61 1532.04 Q1797.27 1529.94 1793.27 1529.94 Q1791.39 1529.94 1789.52 1530.35 Q1787.67 1530.77 1785.72 1531.65 L1785.72 1514.29 Z" fill="#000000" fill-rule="nonzero" fill-opacity="1" /><path clip-path="url(#clip060)" d="M2251.05 1544.91 L2258.69 1544.91 L2258.69 1518.55 L2250.38 1520.21 L2250.38 1515.95 L2258.64 1514.29 L2263.32 1514.29 L2263.32 1544.91 L2270.95 1544.91 L2270.95 1548.85 L2251.05 1548.85 L2251.05 1544.91 Z" fill="#000000" fill-rule="nonzero" fill-opacity="1" /><path clip-path="url(#clip060)" d="M2290.4 1517.37 Q2286.79 1517.37 2284.96 1520.93 Q2283.15 1524.47 2283.15 1531.6 Q2283.15 1538.71 2284.96 1542.27 Q2286.79 1545.82 2290.4 1545.82 Q2294.03 1545.82 2295.84 1542.27 Q2297.67 1538.71 2297.67 1531.6 Q2297.67 1524.47 2295.84 1520.93 Q2294.03 1517.37 2290.4 1517.37 M2290.4 1513.66 Q2296.21 1513.66 2299.26 1518.27 Q2302.34 1522.85 2302.34 1531.6 Q2302.34 1540.33 2299.26 1544.94 Q2296.21 1549.52 2290.4 1549.52 Q2284.59 1549.52 2281.51 1544.94 Q2278.45 1540.33 2278.45 1531.6 Q2278.45 1522.85 2281.51 1518.27 Q2284.59 1513.66 2290.4 1513.66 Z" fill="#000000" fill-rule="nonzero" fill-opacity="1" /><path clip-path="url(#clip060)" d="M2320.56 1517.37 Q2316.95 1517.37 2315.12 1520.93 Q2313.32 1524.47 2313.32 1531.6 Q2313.32 1538.71 2315.12 1542.27 Q2316.95 1545.82 2320.56 1545.82 Q2324.19 1545.82 2326 1542.27 Q2327.83 1538.71 2327.83 1531.6 Q2327.83 1524.47 2326 1520.93 Q2324.19 1517.37 2320.56 1517.37 M2320.56 1513.66 Q2326.37 1513.66 2329.43 1518.27 Q2332.5 1522.85 2332.5 1531.6 Q2332.5 1540.33 2329.43 1544.94 Q2326.37 1549.52 2320.56 1549.52 Q2314.75 1549.52 2311.67 1544.94 Q2308.62 1540.33 2308.62 1531.6 Q2308.62 1522.85 2311.67 1518.27 Q2314.75 1513.66 2320.56 1513.66 Z" fill="#000000" fill-rule="nonzero" fill-opacity="1" /><polyline clip-path="url(#clip060)" style="stroke:#000000; stroke-linecap:round; stroke-linejoin:round; stroke-width:4; stroke-opacity:1; fill:none" points="186.274,1486.45 186.274,47.2441 "/>
<polyline clip-path="url(#clip060)" style="stroke:#000000; stroke-linecap:round; stroke-linejoin:round; stroke-width:4; stroke-opacity:1; fill:none" points="186.274,1438.4 205.172,1438.4 "/>
<polyline clip-path="url(#clip060)" style="stroke:#000000; stroke-linecap:round; stroke-linejoin:round; stroke-width:4; stroke-opacity:1; fill:none" points="186.274,1100.57 205.172,1100.57 "/>
<polyline clip-path="url(#clip060)" style="stroke:#000000; stroke-linecap:round; stroke-linejoin:round; stroke-width:4; stroke-opacity:1; fill:none" points="186.274,762.745 205.172,762.745 "/>
<polyline clip-path="url(#clip060)" style="stroke:#000000; stroke-linecap:round; stroke-linejoin:round; stroke-width:4; stroke-opacity:1; fill:none" points="186.274,424.917 205.172,424.917 "/>
<polyline clip-path="url(#clip060)" style="stroke:#000000; stroke-linecap:round; stroke-linejoin:round; stroke-width:4; stroke-opacity:1; fill:none" points="186.274,87.0882 205.172,87.0882 "/>
<path clip-path="url(#clip060)" d="M62.9365 1424.2 Q59.3254 1424.2 57.4967 1427.77 Q55.6912 1431.31 55.6912 1438.44 Q55.6912 1445.54 57.4967 1449.11 Q59.3254 1452.65 62.9365 1452.65 Q66.5707 1452.65 68.3763 1449.11 Q70.205 1445.54 70.205 1438.44 Q70.205 1431.31 68.3763 1427.77 Q66.5707 1424.2 62.9365 1424.2 M62.9365 1420.5 Q68.7467 1420.5 71.8022 1425.1 Q74.8809 1429.69 74.8809 1438.44 Q74.8809 1447.16 71.8022 1451.77 Q68.7467 1456.35 62.9365 1456.35 Q57.1264 1456.35 54.0477 1451.77 Q50.9921 1447.16 50.9921 1438.44 Q50.9921 1429.69 54.0477 1425.1 Q57.1264 1420.5 62.9365 1420.5 Z" fill="#000000" fill-rule="nonzero" fill-opacity="1" /><path clip-path="url(#clip060)" d="M83.0984 1449.8 L87.9827 1449.8 L87.9827 1455.68 L83.0984 1455.68 L83.0984 1449.8 Z" fill="#000000" fill-rule="nonzero" fill-opacity="1" /><path clip-path="url(#clip060)" d="M108.168 1424.2 Q104.557 1424.2 102.728 1427.77 Q100.922 1431.31 100.922 1438.44 Q100.922 1445.54 102.728 1449.11 Q104.557 1452.65 108.168 1452.65 Q111.802 1452.65 113.608 1449.11 Q115.436 1445.54 115.436 1438.44 Q115.436 1431.31 113.608 1427.77 Q111.802 1424.2 108.168 1424.2 M108.168 1420.5 Q113.978 1420.5 117.033 1425.1 Q120.112 1429.69 120.112 1438.44 Q120.112 1447.16 117.033 1451.77 Q113.978 1456.35 108.168 1456.35 Q102.358 1456.35 99.2789 1451.77 Q96.2234 1447.16 96.2234 1438.44 Q96.2234 1429.69 99.2789 1425.1 Q102.358 1420.5 108.168 1420.5 Z" fill="#000000" fill-rule="nonzero" fill-opacity="1" /><path clip-path="url(#clip060)" d="M138.33 1424.2 Q134.719 1424.2 132.89 1427.77 Q131.084 1431.31 131.084 1438.44 Q131.084 1445.54 132.89 1449.11 Q134.719 1452.65 138.33 1452.65 Q141.964 1452.65 143.769 1449.11 Q145.598 1445.54 145.598 1438.44 Q145.598 1431.31 143.769 1427.77 Q141.964 1424.2 138.33 1424.2 M138.33 1420.5 Q144.14 1420.5 147.195 1425.1 Q150.274 1429.69 150.274 1438.44 Q150.274 1447.16 147.195 1451.77 Q144.14 1456.35 138.33 1456.35 Q132.519 1456.35 129.441 1451.77 Q126.385 1447.16 126.385 1438.44 Q126.385 1429.69 129.441 1425.1 Q132.519 1420.5 138.33 1420.5 Z" fill="#000000" fill-rule="nonzero" fill-opacity="1" /><path clip-path="url(#clip060)" d="M63.9319 1086.37 Q60.3208 1086.37 58.4921 1089.94 Q56.6865 1093.48 56.6865 1100.61 Q56.6865 1107.72 58.4921 1111.28 Q60.3208 1114.82 63.9319 1114.82 Q67.5661 1114.82 69.3717 1111.28 Q71.2004 1107.72 71.2004 1100.61 Q71.2004 1093.48 69.3717 1089.94 Q67.5661 1086.37 63.9319 1086.37 M63.9319 1082.67 Q69.742 1082.67 72.7976 1087.28 Q75.8763 1091.86 75.8763 1100.61 Q75.8763 1109.34 72.7976 1113.94 Q69.742 1118.53 63.9319 1118.53 Q58.1217 1118.53 55.043 1113.94 Q51.9875 1109.34 51.9875 1100.61 Q51.9875 1091.86 55.043 1087.28 Q58.1217 1082.67 63.9319 1082.67 Z" fill="#000000" fill-rule="nonzero" fill-opacity="1" /><path clip-path="url(#clip060)" d="M84.0938 1111.97 L88.978 1111.97 L88.978 1117.85 L84.0938 1117.85 L84.0938 1111.97 Z" fill="#000000" fill-rule="nonzero" fill-opacity="1" /><path clip-path="url(#clip060)" d="M103.191 1113.92 L119.51 1113.92 L119.51 1117.85 L97.566 1117.85 L97.566 1113.92 Q100.228 1111.16 104.811 1106.53 Q109.418 1101.88 110.598 1100.54 Q112.844 1098.02 113.723 1096.28 Q114.626 1094.52 114.626 1092.83 Q114.626 1090.08 112.682 1088.34 Q110.76 1086.6 107.658 1086.6 Q105.459 1086.6 103.006 1087.37 Q100.575 1088.13 97.7974 1089.68 L97.7974 1084.96 Q100.621 1083.83 103.075 1083.25 Q105.529 1082.67 107.566 1082.67 Q112.936 1082.67 116.131 1085.35 Q119.325 1088.04 119.325 1092.53 Q119.325 1094.66 118.515 1096.58 Q117.728 1098.48 115.621 1101.07 Q115.043 1101.74 111.941 1104.96 Q108.839 1108.16 103.191 1113.92 Z" fill="#000000" fill-rule="nonzero" fill-opacity="1" /><path clip-path="url(#clip060)" d="M129.371 1083.29 L147.728 1083.29 L147.728 1087.23 L133.654 1087.23 L133.654 1095.7 Q134.672 1095.35 135.691 1095.19 Q136.709 1095.01 137.728 1095.01 Q143.515 1095.01 146.894 1098.18 Q150.274 1101.35 150.274 1106.77 Q150.274 1112.34 146.802 1115.45 Q143.33 1118.53 137.01 1118.53 Q134.834 1118.53 132.566 1118.15 Q130.32 1117.78 127.913 1117.04 L127.913 1112.34 Q129.996 1113.48 132.219 1114.03 Q134.441 1114.59 136.918 1114.59 Q140.922 1114.59 143.26 1112.48 Q145.598 1110.38 145.598 1106.77 Q145.598 1103.16 143.26 1101.05 Q140.922 1098.94 136.918 1098.94 Q135.043 1098.94 133.168 1099.36 Q131.316 1099.78 129.371 1100.66 L129.371 1083.29 Z" fill="#000000" fill-rule="nonzero" fill-opacity="1" /><path clip-path="url(#clip060)" d="M62.9365 748.544 Q59.3254 748.544 57.4967 752.109 Q55.6912 755.651 55.6912 762.78 Q55.6912 769.887 57.4967 773.451 Q59.3254 776.993 62.9365 776.993 Q66.5707 776.993 68.3763 773.451 Q70.205 769.887 70.205 762.78 Q70.205 755.651 68.3763 752.109 Q66.5707 748.544 62.9365 748.544 M62.9365 744.84 Q68.7467 744.84 71.8022 749.447 Q74.8809 754.03 74.8809 762.78 Q74.8809 771.507 71.8022 776.113 Q68.7467 780.697 62.9365 780.697 Q57.1264 780.697 54.0477 776.113 Q50.9921 771.507 50.9921 762.78 Q50.9921 754.03 54.0477 749.447 Q57.1264 744.84 62.9365 744.84 Z" fill="#000000" fill-rule="nonzero" fill-opacity="1" /><path clip-path="url(#clip060)" d="M83.0984 774.146 L87.9827 774.146 L87.9827 780.025 L83.0984 780.025 L83.0984 774.146 Z" fill="#000000" fill-rule="nonzero" fill-opacity="1" /><path clip-path="url(#clip060)" d="M98.2141 745.465 L116.57 745.465 L116.57 749.401 L102.496 749.401 L102.496 757.873 Q103.515 757.526 104.534 757.364 Q105.552 757.178 106.571 757.178 Q112.358 757.178 115.737 760.35 Q119.117 763.521 119.117 768.938 Q119.117 774.516 115.645 777.618 Q112.172 780.697 105.853 780.697 Q103.677 780.697 101.409 780.326 Q99.1632 779.956 96.7558 779.215 L96.7558 774.516 Q98.8391 775.65 101.061 776.206 Q103.284 776.762 105.76 776.762 Q109.765 776.762 112.103 774.655 Q114.441 772.549 114.441 768.938 Q114.441 765.326 112.103 763.22 Q109.765 761.114 105.76 761.114 Q103.885 761.114 102.01 761.53 Q100.159 761.947 98.2141 762.826 L98.2141 745.465 Z" fill="#000000" fill-rule="nonzero" fill-opacity="1" /><path clip-path="url(#clip060)" d="M138.33 748.544 Q134.719 748.544 132.89 752.109 Q131.084 755.651 131.084 762.78 Q131.084 769.887 132.89 773.451 Q134.719 776.993 138.33 776.993 Q141.964 776.993 143.769 773.451 Q145.598 769.887 145.598 762.78 Q145.598 755.651 143.769 752.109 Q141.964 748.544 138.33 748.544 M138.33 744.84 Q144.14 744.84 147.195 749.447 Q150.274 754.03 150.274 762.78 Q150.274 771.507 147.195 776.113 Q144.14 780.697 138.33 780.697 Q132.519 780.697 129.441 776.113 Q126.385 771.507 126.385 762.78 Q126.385 754.03 129.441 749.447 Q132.519 744.84 138.33 744.84 Z" fill="#000000" fill-rule="nonzero" fill-opacity="1" /><path clip-path="url(#clip060)" d="M63.9319 410.716 Q60.3208 410.716 58.4921 414.28 Q56.6865 417.822 56.6865 424.952 Q56.6865 432.058 58.4921 435.623 Q60.3208 439.164 63.9319 439.164 Q67.5661 439.164 69.3717 435.623 Q71.2004 432.058 71.2004 424.952 Q71.2004 417.822 69.3717 414.28 Q67.5661 410.716 63.9319 410.716 M63.9319 407.012 Q69.742 407.012 72.7976 411.618 Q75.8763 416.202 75.8763 424.952 Q75.8763 433.678 72.7976 438.285 Q69.742 442.868 63.9319 442.868 Q58.1217 442.868 55.043 438.285 Q51.9875 433.678 51.9875 424.952 Q51.9875 416.202 55.043 411.618 Q58.1217 407.012 63.9319 407.012 Z" fill="#000000" fill-rule="nonzero" fill-opacity="1" /><path clip-path="url(#clip060)" d="M84.0938 436.317 L88.978 436.317 L88.978 442.197 L84.0938 442.197 L84.0938 436.317 Z" fill="#000000" fill-rule="nonzero" fill-opacity="1" /><path clip-path="url(#clip060)" d="M97.9826 407.637 L120.205 407.637 L120.205 409.628 L107.658 442.197 L102.774 442.197 L114.58 411.572 L97.9826 411.572 L97.9826 407.637 Z" fill="#000000" fill-rule="nonzero" fill-opacity="1" /><path clip-path="url(#clip060)" d="M129.371 407.637 L147.728 407.637 L147.728 411.572 L133.654 411.572 L133.654 420.044 Q134.672 419.697 135.691 419.535 Q136.709 419.35 137.728 419.35 Q143.515 419.35 146.894 422.521 Q150.274 425.692 150.274 431.109 Q150.274 436.688 146.802 439.789 Q143.33 442.868 137.01 442.868 Q134.834 442.868 132.566 442.498 Q130.32 442.127 127.913 441.387 L127.913 436.688 Q129.996 437.822 132.219 438.377 Q134.441 438.933 136.918 438.933 Q140.922 438.933 143.26 436.826 Q145.598 434.72 145.598 431.109 Q145.598 427.498 143.26 425.391 Q140.922 423.285 136.918 423.285 Q135.043 423.285 133.168 423.702 Q131.316 424.118 129.371 424.998 L129.371 407.637 Z" fill="#000000" fill-rule="nonzero" fill-opacity="1" /><path clip-path="url(#clip060)" d="M53.7467 100.433 L61.3856 100.433 L61.3856 74.0674 L53.0754 75.7341 L53.0754 71.4748 L61.3393 69.8082 L66.0152 69.8082 L66.0152 100.433 L73.654 100.433 L73.654 104.368 L53.7467 104.368 L53.7467 100.433 Z" fill="#000000" fill-rule="nonzero" fill-opacity="1" /><path clip-path="url(#clip060)" d="M83.0984 98.4886 L87.9827 98.4886 L87.9827 104.368 L83.0984 104.368 L83.0984 98.4886 Z" fill="#000000" fill-rule="nonzero" fill-opacity="1" /><path clip-path="url(#clip060)" d="M108.168 72.8869 Q104.557 72.8869 102.728 76.4517 Q100.922 79.9933 100.922 87.1229 Q100.922 94.2294 102.728 97.7941 Q104.557 101.336 108.168 101.336 Q111.802 101.336 113.608 97.7941 Q115.436 94.2294 115.436 87.1229 Q115.436 79.9933 113.608 76.4517 Q111.802 72.8869 108.168 72.8869 M108.168 69.1832 Q113.978 69.1832 117.033 73.7896 Q120.112 78.373 120.112 87.1229 Q120.112 95.8497 117.033 100.456 Q113.978 105.039 108.168 105.039 Q102.358 105.039 99.2789 100.456 Q96.2234 95.8497 96.2234 87.1229 Q96.2234 78.373 99.2789 73.7896 Q102.358 69.1832 108.168 69.1832 Z" fill="#000000" fill-rule="nonzero" fill-opacity="1" /><path clip-path="url(#clip060)" d="M138.33 72.8869 Q134.719 72.8869 132.89 76.4517 Q131.084 79.9933 131.084 87.1229 Q131.084 94.2294 132.89 97.7941 Q134.719 101.336 138.33 101.336 Q141.964 101.336 143.769 97.7941 Q145.598 94.2294 145.598 87.1229 Q145.598 79.9933 143.769 76.4517 Q141.964 72.8869 138.33 72.8869 M138.33 69.1832 Q144.14 69.1832 147.195 73.7896 Q150.274 78.373 150.274 87.1229 Q150.274 95.8497 147.195 100.456 Q144.14 105.039 138.33 105.039 Q132.519 105.039 129.441 100.456 Q126.385 95.8497 126.385 87.1229 Q126.385 78.373 129.441 73.7896 Q132.519 69.1832 138.33 69.1832 Z" fill="#000000" fill-rule="nonzero" fill-opacity="1" /><polyline clip-path="url(#clip062)" style="stroke:#000000; stroke-linecap:round; stroke-linejoin:round; stroke-width:8; stroke-opacity:1; fill:none" points="247.59,1444.89 249.633,1445.02 251.677,1445.14 253.721,1445.24 255.765,1445.32 257.809,1445.37 259.853,1445.41 261.896,1445.43 263.94,1445.42 265.984,1445.39 268.028,1445.35 270.072,1445.28 272.116,1445.19 274.16,1445.08 276.203,1444.95 278.247,1444.8 280.291,1444.63 282.335,1444.44 284.379,1444.23 286.423,1444 288.467,1443.76 290.51,1443.5 292.554,1443.22 294.598,1442.93 296.642,1442.62 298.686,1442.3 300.73,1441.97 302.774,1441.63 304.817,1441.28 306.861,1440.92 308.905,1440.55 310.949,1440.18 312.993,1439.8 315.037,1439.42 317.08,1439.04 319.124,1438.65 321.168,1438.27 323.212,1437.89 325.256,1437.51 327.3,1437.13 329.344,1436.76 331.387,1436.39 333.431,1436.03 335.475,1435.68 337.519,1435.33 339.563,1435 341.607,1434.68 343.651,1434.37 345.694,1434.07 347.738,1433.79 349.782,1433.52 351.826,1433.28 353.87,1433.05 355.914,1432.83 357.957,1432.64 360.001,1432.47 362.045,1432.32 364.089,1432.18 366.133,1432.08 368.177,1431.99 370.221,1431.93 372.264,1431.88 374.308,1431.87 376.352,1431.87 378.396,1431.9 380.44,1431.95 382.484,1432.02 384.528,1432.12 386.571,1432.24 388.615,1432.38 390.659,1432.54 392.703,1432.72 394.747,1432.92 396.791,1433.14 398.834,1433.38 400.878,1433.63 402.922,1433.9 404.966,1434.19 407.01,1434.48 409.054,1434.79 411.098,1435.11 413.141,1435.43 415.185,1435.76 417.229,1436.1 419.273,1436.44 421.317,1436.78 423.361,1437.12 425.405,1437.45 427.448,1437.78 429.492,1438.1 431.536,1438.42 433.58,1438.72 435.624,1439.02 437.668,1439.3 439.712,1439.56 441.755,1439.81 443.799,1440.05 445.843,1440.26 447.887,1440.46 449.931,1440.63 451.975,1440.79 454.018,1440.92 456.062,1441.02 458.106,1441.1 460.15,1441.16 462.194,1441.19 464.238,1441.2 466.282,1441.18 468.325,1441.13 470.369,1441.06 472.413,1440.95 474.457,1440.82 476.501,1440.67 478.545,1440.49 480.589,1440.28 482.632,1440.05 484.676,1439.79 486.72,1439.5 488.764,1439.2 490.808,1438.87 492.852,1438.52 494.895,1438.15 496.939,1437.75 498.983,1437.35 501.027,1436.92 503.071,1436.48 505.115,1436.02 507.159,1435.55 509.202,1435.07 511.246,1434.57 513.29,1434.07 515.334,1433.57 517.378,1433.06 519.422,1432.54 521.466,1432.03 523.509,1431.51 525.553,1431 527.597,1430.49 529.641,1429.99 531.685,1429.5 533.729,1429.01 535.772,1428.54 537.816,1428.08 539.86,1427.64 541.904,1427.22 543.948,1426.81 545.992,1426.42 548.036,1426.05 550.079,1425.71 552.123,1425.39 554.167,1425.09 556.211,1424.82 558.255,1424.58 560.299,1424.37 562.343,1424.18 564.386,1424.03 566.43,1423.9 568.474,1423.81 570.518,1423.75 572.562,1423.71 574.606,1423.71 576.65,1423.74 578.693,1423.8 580.737,1423.89 582.781,1424.01 584.825,1424.15 586.869,1424.33 588.913,1424.52 590.956,1424.75 593,1424.99 595.044,1425.26 597.088,1425.54 599.132,1425.85 601.176,1426.17 603.22,1426.51 605.263,1426.85 607.307,1427.21 609.351,1427.58 611.395,1427.95 613.439,1428.33 615.483,1428.71 617.527,1429.1 619.57,1429.48 621.614,1429.86 623.658,1430.23 625.702,1430.6 627.746,1430.96 629.79,1431.31 631.833,1431.65 633.877,1431.97 635.921,1432.29 637.965,1432.58 640.009,1432.87 642.053,1433.13 644.097,1433.38 646.14,1433.62 648.184,1433.83 650.228,1434.02 652.272,1434.2 654.316,1434.35 656.36,1434.49 658.404,1434.6 660.447,1434.7 662.491,1434.77 664.535,1434.83 666.579,1434.87 668.623,1434.9 670.667,1434.91 672.711,1434.9 674.754,1434.88 676.798,1434.84 678.842,1434.79 680.886,1434.73 682.93,1434.66 684.974,1434.57 687.017,1434.48 689.061,1434.38 691.105,1434.27 693.149,1434.15 695.193,1434.02 697.237,1433.88 699.281,1433.74 701.324,1433.59 703.368,1433.44 705.412,1433.28 707.456,1433.12 709.5,1432.95 711.544,1432.78 713.588,1432.61 715.631,1432.44 717.675,1432.27 719.719,1432.09 721.763,1431.92 723.807,1431.74 725.851,1431.57 727.894,1431.4 729.938,1431.23 731.982,1431.07 734.026,1430.9 736.07,1430.74 738.114,1430.59 740.158,1430.43 742.201,1430.28 744.245,1430.14 746.289,1429.99 748.333,1429.86 750.377,1429.72 752.421,1429.59 754.465,1429.46 756.508,1429.34 758.552,1429.22 760.596,1429.11 762.64,1429 764.684,1428.9 766.728,1428.8 768.771,1428.7 770.815,1428.61 772.859,1428.52 774.903,1428.44 776.947,1428.36 778.991,1428.28 781.035,1428.21 783.078,1428.14 785.122,1428.08 787.166,1428.01 789.21,1427.95 791.254,1427.89 793.298,1427.83 795.342,1427.77 797.385,1427.71 799.429,1427.65 801.473,1427.6 803.517,1427.54 805.561,1427.49 807.605,1427.44 809.649,1427.38 811.692,1427.34 813.736,1427.29 815.78,1427.24 817.824,1427.2 819.868,1427.17 821.912,1427.14 823.955,1427.11 825.999,1427.09 828.043,1427.08 830.087,1427.08 832.131,1427.09 834.175,1427.1 836.219,1427.13 838.262,1427.17 840.306,1427.22 842.35,1427.28 844.394,1427.36 846.438,1427.45 848.482,1427.56 850.526,1427.68 852.569,1427.82 854.613,1427.97 856.657,1428.15 858.701,1428.34 860.745,1428.55 862.789,1428.77 864.832,1429.02 866.876,1429.28 868.92,1429.55 870.964,1429.85 873.008,1430.16 875.052,1430.48 877.096,1430.82 879.139,1431.17 881.183,1431.53 883.227,1431.9 885.271,1432.28 887.315,1432.67 889.359,1433.06 891.403,1433.45 893.446,1433.84 895.49,1434.24 897.534,1434.63 899.578,1435.01 901.622,1435.39 903.666,1435.75 905.71,1436.11 907.753,1436.45 909.797,1436.77 911.841,1437.07 913.885,1437.35 915.929,1437.61 917.973,1437.84 920.016,1438.04 922.06,1438.21 924.104,1438.34 926.148,1438.44 928.192,1438.5 930.236,1438.52 932.28,1438.49 934.323,1438.42 936.367,1438.29 938.411,1438.12 940.455,1437.89 942.499,1437.61 944.543,1437.27 946.587,1436.87 948.63,1436.4 950.674,1435.88 952.718,1435.29 954.762,1434.63 956.806,1433.9 958.85,1433.1 960.893,1432.23 962.937,1431.29 964.981,1430.27 967.025,1429.18 969.069,1428 971.113,1426.75 973.157,1425.41 975.2,1423.99 977.244,1422.48 979.288,1420.89 981.332,1419.2 983.376,1417.42 985.42,1415.54 987.464,1413.56 989.507,1411.48 991.551,1409.3 993.595,1407.01 995.639,1404.6 997.683,1402.09 999.727,1399.45 1001.77,1396.7 1003.81,1393.82 1005.86,1390.81 1007.9,1387.68 1009.95,1384.41 1011.99,1381 1014.03,1377.45 1016.08,1373.75 1018.12,1369.91 1020.17,1365.91 1022.21,1361.76 1024.25,1357.45 1026.3,1352.99 1028.34,1348.36 1030.38,1343.56 1032.43,1338.6 1034.47,1333.47 1036.52,1328.16 1038.56,1322.67 1040.6,1317.01 1042.65,1311.17 1044.69,1305.15 1046.74,1298.94 1048.78,1292.54 1050.82,1285.96 1052.87,1279.19 1054.91,1272.22 1056.95,1265.06 1059,1257.71 1061.04,1250.16 1063.09,1242.41 1065.13,1234.46 1067.17,1226.31 1069.22,1217.96 1071.26,1209.41 1073.31,1200.65 1075.35,1191.69 1077.39,1182.53 1079.44,1173.15 1081.48,1163.57 1083.52,1153.78 1085.57,1143.79 1087.61,1133.58 1089.66,1123.17 1091.7,1112.55 1093.74,1101.72 1095.79,1090.68 1097.83,1079.43 1099.88,1067.98 1101.92,1056.33 1103.96,1044.47 1106.01,1032.41 1108.05,1020.14 1110.09,1007.69 1112.14,995.035 1114.18,982.191 1116.23,969.159 1118.27,955.942 1120.31,942.544 1122.36,928.969 1124.4,915.222 1126.45,901.306 1128.49,887.228 1130.53,872.993 1132.58,858.606 1134.62,844.074 1136.66,829.403 1138.71,814.6 1140.75,799.672 1142.8,784.627 1144.84,769.473 1146.88,754.218 1148.93,738.871 1150.97,723.441 1153.02,707.937 1155.06,692.369 1157.1,676.747 1159.15,661.081 1161.19,645.382 1163.23,629.66 1165.28,613.927 1167.32,598.194 1169.37,582.473 1171.41,566.775 1173.45,551.112 1175.5,535.498 1177.54,519.944 1179.59,504.462 1181.63,489.067 1183.67,473.77 1185.72,458.586 1187.76,443.526 1189.8,428.604 1191.85,413.833 1193.89,399.227 1195.94,384.799 1197.98,370.562 1200.02,356.53 1202.07,342.715 1204.11,329.132 1206.16,315.793 1208.2,302.712 1210.24,289.902 1212.29,277.375 1214.33,265.146 1216.37,253.226 1218.42,241.63 1220.46,230.368 1222.51,219.455 1224.55,208.902 1226.59,198.722 1228.64,188.926 1230.68,179.525 1232.73,170.531 1234.77,161.955 1236.81,153.807 1238.86,146.097 1240.9,138.834 1242.94,132.027 1244.99,125.685 1247.03,119.815 1249.08,114.425 1251.12,109.521 1253.16,105.108 1255.21,101.193 1257.25,97.7781 1259.3,94.8687 1261.34,92.4674 1263.38,90.5762 1265.43,89.1969 1267.47,88.3302 1269.51,87.9763 1271.56,88.1344 1273.6,88.8034 1275.65,89.9813 1277.69,91.6655 1279.73,93.8528 1281.78,96.5395 1283.82,99.7214 1285.87,103.394 1287.91,107.551 1289.95,112.187 1292,117.295 1294.04,122.87 1296.09,128.902 1298.13,135.386 1300.17,142.312 1302.22,149.671 1304.26,157.455 1306.3,165.655 1308.35,174.26 1310.39,183.261 1312.44,192.647 1314.48,202.408 1316.52,212.533 1318.57,223.011 1320.61,233.831 1322.66,244.982 1324.7,256.452 1326.74,268.231 1328.79,280.306 1330.83,292.666 1332.87,305.3 1334.92,318.196 1336.96,331.341 1339.01,344.724 1341.05,358.334 1343.09,372.158 1345.14,386.184 1347.18,400.402 1349.23,414.798 1351.27,429.362 1353.31,444.081 1355.36,458.944 1357.4,473.94 1359.44,489.057 1361.49,504.284 1363.53,519.609 1365.58,535.023 1367.62,550.513 1369.66,566.07 1371.71,581.682 1373.75,597.34 1375.8,613.033 1377.84,628.751 1379.88,644.484 1381.93,660.221 1383.97,675.954 1386.01,691.673 1388.06,707.367 1390.1,723.028 1392.15,738.645 1394.19,754.21 1396.23,769.713 1398.28,785.146 1400.32,800.498 1402.37,815.761 1404.41,830.927 1406.45,845.986 1408.5,860.93 1410.54,875.752 1412.58,890.443 1414.63,904.996 1416.67,919.402 1418.72,933.656 1420.76,947.749 1422.8,961.677 1424.85,975.431 1426.89,989.006 1428.94,1002.4 1430.98,1015.6 1433.02,1028.6 1435.07,1041.4 1437.11,1054 1439.15,1066.39 1441.2,1078.57 1443.24,1090.52 1445.29,1102.26 1447.33,1113.77 1449.37,1125.05 1451.42,1136.1 1453.46,1146.91 1455.51,1157.49 1457.55,1167.84 1459.59,1177.94 1461.64,1187.8 1463.68,1197.41 1465.72,1206.79 1467.77,1215.92 1469.81,1224.8 1471.86,1233.44 1473.9,1241.83 1475.94,1249.98 1477.99,1257.89 1480.03,1265.56 1482.08,1272.98 1484.12,1280.17 1486.16,1287.12 1488.21,1293.83 1490.25,1300.32 1492.29,1306.57 1494.34,1312.6 1496.38,1318.41 1498.43,1324 1500.47,1329.37 1502.51,1334.54 1504.56,1339.51 1506.6,1344.27 1508.65,1348.84 1510.69,1353.22 1512.73,1357.41 1514.78,1361.43 1516.82,1365.27 1518.86,1368.95 1520.91,1372.46 1522.95,1375.82 1525,1379.03 1527.04,1382.09 1529.08,1385.02 1531.13,1387.82 1533.17,1390.49 1535.22,1393.04 1537.26,1395.47 1539.3,1397.8 1541.35,1400.03 1543.39,1402.15 1545.43,1404.19 1547.48,1406.14 1549.52,1408.01 1551.57,1409.81 1553.61,1411.53 1555.65,1413.19 1557.7,1414.78 1559.74,1416.31 1561.79,1417.79 1563.83,1419.22 1565.87,1420.6 1567.92,1421.94 1569.96,1423.23 1572,1424.48 1574.05,1425.69 1576.09,1426.86 1578.14,1428 1580.18,1429.1 1582.22,1430.17 1584.27,1431.21 1586.31,1432.21 1588.36,1433.18 1590.4,1434.12 1592.44,1435.02 1594.49,1435.9 1596.53,1436.74 1598.57,1437.54 1600.62,1438.32 1602.66,1439.06 1604.71,1439.76 1606.75,1440.43 1608.79,1441.06 1610.84,1441.66 1612.88,1442.22 1614.93,1442.74 1616.97,1443.22 1619.01,1443.66 1621.06,1444.06 1623.1,1444.42 1625.15,1444.74 1627.19,1445.01 1629.23,1445.24 1631.28,1445.42 1633.32,1445.57 1635.36,1445.66 1637.41,1445.71 1639.45,1445.72 1641.5,1445.68 1643.54,1445.59 1645.58,1445.46 1647.63,1445.29 1649.67,1445.07 1651.72,1444.82 1653.76,1444.52 1655.8,1444.18 1657.85,1443.81 1659.89,1443.4 1661.93,1442.96 1663.98,1442.48 1666.02,1441.98 1668.07,1441.45 1670.11,1440.89 1672.15,1440.31 1674.2,1439.72 1676.24,1439.1 1678.29,1438.47 1680.33,1437.83 1682.37,1437.19 1684.42,1436.54 1686.46,1435.89 1688.5,1435.23 1690.55,1434.59 1692.59,1433.94 1694.64,1433.31 1696.68,1432.69 1698.72,1432.08 1700.77,1431.49 1702.81,1430.92 1704.86,1430.36 1706.9,1429.83 1708.94,1429.32 1710.99,1428.84 1713.03,1428.38 1715.07,1427.95 1717.12,1427.55 1719.16,1427.18 1721.21,1426.83 1723.25,1426.52 1725.29,1426.24 1727.34,1425.98 1729.38,1425.76 1731.43,1425.57 1733.47,1425.4 1735.51,1425.27 1737.56,1425.16 1739.6,1425.08 1741.64,1425.03 1743.69,1425 1745.73,1425 1747.78,1425.02 1749.82,1425.07 1751.86,1425.13 1753.91,1425.22 1755.95,1425.33 1758,1425.46 1760.04,1425.6 1762.08,1425.77 1764.13,1425.95 1766.17,1426.15 1768.21,1426.36 1770.26,1426.58 1772.3,1426.82 1774.35,1427.07 1776.39,1427.33 1778.43,1427.6 1780.48,1427.88 1782.52,1428.16 1784.57,1428.46 1786.61,1428.76 1788.65,1429.07 1790.7,1429.39 1792.74,1429.71 1794.78,1430.04 1796.83,1430.37 1798.87,1430.7 1800.92,1431.04 1802.96,1431.39 1805,1431.73 1807.05,1432.08 1809.09,1432.44 1811.14,1432.8 1813.18,1433.15 1815.22,1433.52 1817.27,1433.88 1819.31,1434.24 1821.35,1434.61 1823.4,1434.97 1825.44,1435.34 1827.49,1435.7 1829.53,1436.06 1831.57,1436.42 1833.62,1436.77 1835.66,1437.12 1837.71,1437.46 1839.75,1437.79 1841.79,1438.12 1843.84,1438.44 1845.88,1438.74 1847.92,1439.03 1849.97,1439.32 1852.01,1439.58 1854.06,1439.84 1856.1,1440.08 1858.14,1440.3 1860.19,1440.51 1862.23,1440.71 1864.28,1440.88 1866.32,1441.04 1868.36,1441.19 1870.41,1441.32 1872.45,1441.43 1874.49,1441.53 1876.54,1441.62 1878.58,1441.69 1880.63,1441.75 1882.67,1441.79 1884.71,1441.82 1886.76,1441.85 1888.8,1441.86 1890.85,1441.86 1892.89,1441.86 1894.93,1441.85 1896.98,1441.83 1899.02,1441.81 1901.06,1441.79 1903.11,1441.77 1905.15,1441.74 1907.2,1441.72 1909.24,1441.7 1911.28,1441.68 1913.33,1441.66 1915.37,1441.65 1917.42,1441.65 1919.46,1441.65 1921.5,1441.66 1923.55,1441.68 1925.59,1441.7 1927.63,1441.74 1929.68,1441.78 1931.72,1441.83 1933.77,1441.89 1935.81,1441.96 1937.85,1442.03 1939.9,1442.11 1941.94,1442.2 1943.99,1442.29 1946.03,1442.39 1948.07,1442.48 1950.12,1442.59 1952.16,1442.69 1954.2,1442.79 1956.25,1442.89 1958.29,1442.99 1960.34,1443.09 1962.38,1443.18 1964.42,1443.27 1966.47,1443.35 1968.51,1443.43 1970.56,1443.49 1972.6,1443.56 1974.64,1443.61 1976.69,1443.65 1978.73,1443.68 1980.78,1443.71 1982.82,1443.72 1984.86,1443.72 1986.91,1443.71 1988.95,1443.69 1990.99,1443.65 1993.04,1443.61 1995.08,1443.55 1997.13,1443.48 1999.17,1443.4 2001.21,1443.31 2003.26,1443.2 2005.3,1443.08 2007.35,1442.95 2009.39,1442.81 2011.43,1442.65 2013.48,1442.49 2015.52,1442.31 2017.56,1442.12 2019.61,1441.92 2021.65,1441.71 2023.7,1441.49 2025.74,1441.27 2027.78,1441.04 2029.83,1440.8 2031.87,1440.55 2033.92,1440.31 2035.96,1440.06 2038,1439.8 2040.05,1439.55 2042.09,1439.3 2044.13,1439.04 2046.18,1438.8 2048.22,1438.55 2050.27,1438.31 2052.31,1438.07 2054.35,1437.85 2056.4,1437.63 2058.44,1437.42 2060.49,1437.22 2062.53,1437.03 2064.57,1436.86 2066.62,1436.7 2068.66,1436.56 2070.7,1436.43 2072.75,1436.32 2074.79,1436.22 2076.84,1436.15 2078.88,1436.09 2080.92,1436.05 2082.97,1436.03 2085.01,1436.03 2087.06,1436.05 2089.1,1436.09 2091.14,1436.15 2093.19,1436.23 2095.23,1436.32 2097.27,1436.43 2099.32,1436.56 2101.36,1436.7 2103.41,1436.85 2105.45,1437.01 2107.49,1437.19 2109.54,1437.37 2111.58,1437.57 2113.63,1437.77 2115.67,1437.97 2117.71,1438.18 2119.76,1438.39 2121.8,1438.61 2123.84,1438.82 2125.89,1439.04 2127.93,1439.25 2129.98,1439.46 2132.02,1439.67 2134.06,1439.88 2136.11,1440.08 2138.15,1440.27 2140.2,1440.46 2142.24,1440.64 2144.28,1440.81 2146.33,1440.98 2148.37,1441.14 2150.41,1441.28 2152.46,1441.42 2154.5,1441.55 2156.55,1441.67 2158.59,1441.78 2160.63,1441.88 2162.68,1441.97 2164.72,1442.06 2166.77,1442.13 2168.81,1442.19 2170.85,1442.25 2172.9,1442.3 2174.94,1442.34 2176.98,1442.38 2179.03,1442.41 2181.07,1442.43 2183.12,1442.45 2185.16,1442.46 2187.2,1442.47 2189.25,1442.47 2191.29,1442.47 2193.34,1442.47 2195.38,1442.46 2197.42,1442.45 2199.47,1442.43 2201.51,1442.4 2203.55,1442.37 2205.6,1442.34 2207.64,1442.29 2209.69,1442.24 2211.73,1442.19 2213.77,1442.12 2215.82,1442.04 2217.86,1441.96 2219.91,1441.86 2221.95,1441.76 2223.99,1441.64 2226.04,1441.52 2228.08,1441.38 2230.12,1441.23 2232.17,1441.07 2234.21,1440.89 2236.26,1440.71 2238.3,1440.51 2240.34,1440.31 2242.39,1440.09 2244.43,1439.86 2246.48,1439.62 2248.52,1439.38 2250.56,1439.12 2252.61,1438.86 2254.65,1438.58 2256.69,1438.31 2258.74,1438.02 2260.78,1437.73 2262.83,1437.44 2264.87,1437.15 2266.91,1436.85 2268.96,1436.55 2271,1436.25 2273.05,1435.95 2275.09,1435.65 2277.13,1435.35 2279.18,1435.05 2281.22,1434.75 2283.26,1434.45 2285.31,1434.15 2287.35,1433.85 2289.4,1433.56 2291.44,1433.26 "/>
<polyline clip-path="url(#clip062)" style="stroke:#0000ff; stroke-linecap:round; stroke-linejoin:round; stroke-width:4; stroke-opacity:1; fill:none" points="1269.51,1445.43 1269.51,87.9763 "/>
<polyline clip-path="url(#clip062)" style="stroke:#0000ff; stroke-linecap:round; stroke-linejoin:round; stroke-width:4; stroke-opacity:0.5; fill:none" stroke-dasharray="16, 10" points="261.896,1445.43 1269.51,1445.43 "/>
<polyline clip-path="url(#clip062)" style="stroke:#808080; stroke-linecap:round; stroke-linejoin:round; stroke-width:4; stroke-opacity:1; fill:none" stroke-dasharray="16, 10" points="1145.21,766.701 1395.84,766.701 "/>
<circle clip-path="url(#clip062)" cx="1145.21" cy="766.701" r="14.4" fill="#808080" fill-rule="evenodd" fill-opacity="1" stroke="#000000" stroke-opacity="1" stroke-width="3.2"/>
<circle clip-path="url(#clip062)" cx="1395.84" cy="766.701" r="14.4" fill="#808080" fill-rule="evenodd" fill-opacity="1" stroke="#000000" stroke-opacity="1" stroke-width="3.2"/>
<circle clip-path="url(#clip062)" cx="1269.51" cy="87.9763" r="14.4" fill="#ff0000" fill-rule="evenodd" fill-opacity="1" stroke="#000000" stroke-opacity="1" stroke-width="3.2"/>
<path clip-path="url(#clip060)" d="M1789.33 354.418 L2280.54 354.418 L2280.54 95.2176 L1789.33 95.2176  Z" fill="#ffffff" fill-rule="evenodd" fill-opacity="1"/>
<polyline clip-path="url(#clip060)" style="stroke:#000000; stroke-linecap:round; stroke-linejoin:round; stroke-width:4; stroke-opacity:1; fill:none" points="1789.33,354.418 2280.54,354.418 2280.54,95.2176 1789.33,95.2176 1789.33,354.418 "/>
<polyline clip-path="url(#clip060)" style="stroke:#000000; stroke-linecap:round; stroke-linejoin:round; stroke-width:8; stroke-opacity:1; fill:none" points="1813.4,147.058 1957.84,147.058 "/>
<path clip-path="url(#clip060)" d="M2000.33 139.176 L2000.33 143.203 Q1998.53 142.277 1996.58 141.815 Q1994.64 141.352 1992.56 141.352 Q1989.39 141.352 1987.79 142.324 Q1986.21 143.296 1986.21 145.24 Q1986.21 146.722 1987.35 147.578 Q1988.48 148.412 1991.91 149.176 L1993.37 149.5 Q1997.9 150.472 1999.8 152.254 Q2001.72 154.014 2001.72 157.185 Q2001.72 160.796 1998.85 162.902 Q1996.01 165.009 1991.01 165.009 Q1988.92 165.009 1986.65 164.592 Q1984.41 164.199 1981.91 163.388 L1981.91 158.99 Q1984.27 160.217 1986.56 160.842 Q1988.85 161.444 1991.1 161.444 Q1994.11 161.444 1995.73 160.426 Q1997.35 159.384 1997.35 157.509 Q1997.35 155.773 1996.17 154.847 Q1995.01 153.921 1991.05 153.064 L1989.57 152.717 Q1985.61 151.884 1983.85 150.171 Q1982.09 148.435 1982.09 145.426 Q1982.09 141.768 1984.69 139.778 Q1987.28 137.787 1992.05 137.787 Q1994.41 137.787 1996.49 138.134 Q1998.58 138.481 2000.33 139.176 Z" fill="#000000" fill-rule="nonzero" fill-opacity="1" /><path clip-path="url(#clip060)" d="M2008.51 138.412 L2012.77 138.412 L2012.77 164.338 L2008.51 164.338 L2008.51 138.412 M2008.51 128.319 L2012.77 128.319 L2012.77 133.713 L2008.51 133.713 L2008.51 128.319 Z" fill="#000000" fill-rule="nonzero" fill-opacity="1" /><path clip-path="url(#clip060)" d="M2038.74 151.074 Q2038.74 146.444 2036.82 143.898 Q2034.92 141.352 2031.47 141.352 Q2028.04 141.352 2026.12 143.898 Q2024.22 146.444 2024.22 151.074 Q2024.22 155.68 2026.12 158.226 Q2028.04 160.773 2031.47 160.773 Q2034.92 160.773 2036.82 158.226 Q2038.74 155.68 2038.74 151.074 M2043 161.12 Q2043 167.74 2040.06 170.958 Q2037.12 174.199 2031.05 174.199 Q2028.81 174.199 2026.82 173.851 Q2024.83 173.527 2022.95 172.833 L2022.95 168.689 Q2024.83 169.708 2026.65 170.194 Q2028.48 170.68 2030.38 170.68 Q2034.57 170.68 2036.65 168.481 Q2038.74 166.305 2038.74 161.884 L2038.74 159.777 Q2037.42 162.069 2035.36 163.203 Q2033.3 164.338 2030.43 164.338 Q2025.66 164.338 2022.74 160.703 Q2019.83 157.069 2019.83 151.074 Q2019.83 145.055 2022.74 141.421 Q2025.66 137.787 2030.43 137.787 Q2033.3 137.787 2035.36 138.921 Q2037.42 140.055 2038.74 142.347 L2038.74 138.412 L2043 138.412 L2043 161.12 Z" fill="#000000" fill-rule="nonzero" fill-opacity="1" /><path clip-path="url(#clip060)" d="M2073.32 148.689 L2073.32 164.338 L2069.06 164.338 L2069.06 148.828 Q2069.06 145.148 2067.63 143.319 Q2066.19 141.49 2063.32 141.49 Q2059.87 141.49 2057.88 143.69 Q2055.89 145.889 2055.89 149.685 L2055.89 164.338 L2051.61 164.338 L2051.61 138.412 L2055.89 138.412 L2055.89 142.44 Q2057.42 140.102 2059.48 138.944 Q2061.56 137.787 2064.27 137.787 Q2068.74 137.787 2071.03 140.565 Q2073.32 143.319 2073.32 148.689 Z" fill="#000000" fill-rule="nonzero" fill-opacity="1" /><path clip-path="url(#clip060)" d="M2093.6 151.305 Q2088.44 151.305 2086.45 152.486 Q2084.45 153.666 2084.45 156.514 Q2084.45 158.782 2085.94 160.125 Q2087.44 161.444 2090.01 161.444 Q2093.55 161.444 2095.68 158.944 Q2097.83 156.421 2097.83 152.254 L2097.83 151.305 L2093.6 151.305 M2102.09 149.546 L2102.09 164.338 L2097.83 164.338 L2097.83 160.402 Q2096.38 162.763 2094.2 163.898 Q2092.02 165.009 2088.88 165.009 Q2084.89 165.009 2082.53 162.787 Q2080.2 160.541 2080.2 156.791 Q2080.2 152.416 2083.11 150.194 Q2086.05 147.972 2091.86 147.972 L2097.83 147.972 L2097.83 147.555 Q2097.83 144.615 2095.89 143.018 Q2093.97 141.398 2090.47 141.398 Q2088.25 141.398 2086.14 141.93 Q2084.04 142.463 2082.09 143.527 L2082.09 139.592 Q2084.43 138.69 2086.63 138.25 Q2088.83 137.787 2090.91 137.787 Q2096.54 137.787 2099.32 140.703 Q2102.09 143.62 2102.09 149.546 Z" fill="#000000" fill-rule="nonzero" fill-opacity="1" /><path clip-path="url(#clip060)" d="M2110.87 128.319 L2115.13 128.319 L2115.13 164.338 L2110.87 164.338 L2110.87 128.319 Z" fill="#000000" fill-rule="nonzero" fill-opacity="1" /><polyline clip-path="url(#clip060)" style="stroke:#0000ff; stroke-linecap:round; stroke-linejoin:round; stroke-width:4; stroke-opacity:1; fill:none" points="1813.4,198.898 1957.84,198.898 "/>
<path clip-path="url(#clip060)" d="M1986.19 212.289 L1986.19 226.039 L1981.91 226.039 L1981.91 190.252 L1986.19 190.252 L1986.19 194.187 Q1987.53 191.872 1989.57 190.761 Q1991.63 189.627 1994.48 189.627 Q1999.2 189.627 2002.14 193.377 Q2005.1 197.127 2005.1 203.238 Q2005.1 209.349 2002.14 213.099 Q1999.2 216.849 1994.48 216.849 Q1991.63 216.849 1989.57 215.738 Q1987.53 214.603 1986.19 212.289 M2000.68 203.238 Q2000.68 198.539 1998.74 195.877 Q1996.82 193.192 1993.44 193.192 Q1990.06 193.192 1988.11 195.877 Q1986.19 198.539 1986.19 203.238 Q1986.19 207.937 1988.11 210.622 Q1990.06 213.284 1993.44 213.284 Q1996.82 213.284 1998.74 210.622 Q2000.68 207.937 2000.68 203.238 Z" fill="#000000" fill-rule="nonzero" fill-opacity="1" /><path clip-path="url(#clip060)" d="M2027.19 194.233 Q2026.47 193.817 2025.61 193.631 Q2024.78 193.423 2023.76 193.423 Q2020.15 193.423 2018.21 195.784 Q2016.28 198.122 2016.28 202.52 L2016.28 216.178 L2012 216.178 L2012 190.252 L2016.28 190.252 L2016.28 194.28 Q2017.63 191.918 2019.78 190.784 Q2021.93 189.627 2025.01 189.627 Q2025.45 189.627 2025.98 189.696 Q2026.52 189.743 2027.16 189.858 L2027.19 194.233 Z" fill="#000000" fill-rule="nonzero" fill-opacity="1" /><path clip-path="url(#clip060)" d="M2040.66 193.238 Q2037.23 193.238 2035.24 195.923 Q2033.25 198.585 2033.25 203.238 Q2033.25 207.891 2035.22 210.576 Q2037.21 213.238 2040.66 213.238 Q2044.06 213.238 2046.05 210.553 Q2048.04 207.867 2048.04 203.238 Q2048.04 198.631 2046.05 195.946 Q2044.06 193.238 2040.66 193.238 M2040.66 189.627 Q2046.21 189.627 2049.39 193.238 Q2052.56 196.849 2052.56 203.238 Q2052.56 209.604 2049.39 213.238 Q2046.21 216.849 2040.66 216.849 Q2035.08 216.849 2031.91 213.238 Q2028.76 209.604 2028.76 203.238 Q2028.76 196.849 2031.91 193.238 Q2035.08 189.627 2040.66 189.627 Z" fill="#000000" fill-rule="nonzero" fill-opacity="1" /><path clip-path="url(#clip060)" d="M2079.8 195.229 Q2081.4 192.358 2083.62 190.993 Q2085.84 189.627 2088.85 189.627 Q2092.9 189.627 2095.1 192.474 Q2097.3 195.298 2097.3 200.529 L2097.3 216.178 L2093.02 216.178 L2093.02 200.668 Q2093.02 196.942 2091.7 195.136 Q2090.38 193.33 2087.67 193.33 Q2084.36 193.33 2082.44 195.53 Q2080.52 197.729 2080.52 201.525 L2080.52 216.178 L2076.24 216.178 L2076.24 200.668 Q2076.24 196.918 2074.92 195.136 Q2073.6 193.33 2070.84 193.33 Q2067.58 193.33 2065.66 195.553 Q2063.74 197.752 2063.74 201.525 L2063.74 216.178 L2059.45 216.178 L2059.45 190.252 L2063.74 190.252 L2063.74 194.28 Q2065.2 191.895 2067.23 190.761 Q2069.27 189.627 2072.07 189.627 Q2074.89 189.627 2076.86 191.062 Q2078.85 192.497 2079.8 195.229 Z" fill="#000000" fill-rule="nonzero" fill-opacity="1" /><path clip-path="url(#clip060)" d="M2105.8 190.252 L2110.06 190.252 L2110.06 216.178 L2105.8 216.178 L2105.8 190.252 M2105.8 180.159 L2110.06 180.159 L2110.06 185.553 L2105.8 185.553 L2105.8 180.159 Z" fill="#000000" fill-rule="nonzero" fill-opacity="1" /><path clip-path="url(#clip060)" d="M2140.52 200.529 L2140.52 216.178 L2136.26 216.178 L2136.26 200.668 Q2136.26 196.988 2134.82 195.159 Q2133.39 193.33 2130.52 193.33 Q2127.07 193.33 2125.08 195.53 Q2123.09 197.729 2123.09 201.525 L2123.09 216.178 L2118.81 216.178 L2118.81 190.252 L2123.09 190.252 L2123.09 194.28 Q2124.62 191.942 2126.68 190.784 Q2128.76 189.627 2131.47 189.627 Q2135.94 189.627 2138.23 192.405 Q2140.52 195.159 2140.52 200.529 Z" fill="#000000" fill-rule="nonzero" fill-opacity="1" /><path clip-path="url(#clip060)" d="M2171.19 202.15 L2171.19 204.233 L2151.61 204.233 Q2151.89 208.631 2154.25 210.946 Q2156.63 213.238 2160.87 213.238 Q2163.32 213.238 2165.61 212.636 Q2167.93 212.034 2170.2 210.83 L2170.2 214.858 Q2167.9 215.83 2165.5 216.34 Q2163.09 216.849 2160.61 216.849 Q2154.41 216.849 2150.77 213.238 Q2147.16 209.627 2147.16 203.469 Q2147.16 197.104 2150.59 193.377 Q2154.04 189.627 2159.87 189.627 Q2165.1 189.627 2168.13 193.006 Q2171.19 196.363 2171.19 202.15 M2166.93 200.9 Q2166.88 197.405 2164.96 195.321 Q2163.07 193.238 2159.92 193.238 Q2156.35 193.238 2154.2 195.252 Q2152.07 197.266 2151.75 200.923 L2166.93 200.9 Z" fill="#000000" fill-rule="nonzero" fill-opacity="1" /><path clip-path="url(#clip060)" d="M2199.73 200.529 L2199.73 216.178 L2195.47 216.178 L2195.47 200.668 Q2195.47 196.988 2194.04 195.159 Q2192.6 193.33 2189.73 193.33 Q2186.28 193.33 2184.29 195.53 Q2182.3 197.729 2182.3 201.525 L2182.3 216.178 L2178.02 216.178 L2178.02 190.252 L2182.3 190.252 L2182.3 194.28 Q2183.83 191.942 2185.89 190.784 Q2187.97 189.627 2190.68 189.627 Q2195.15 189.627 2197.44 192.405 Q2199.73 195.159 2199.73 200.529 Z" fill="#000000" fill-rule="nonzero" fill-opacity="1" /><path clip-path="url(#clip060)" d="M2226.88 191.247 L2226.88 195.229 Q2225.08 194.233 2223.25 193.747 Q2221.44 193.238 2219.59 193.238 Q2215.45 193.238 2213.16 195.877 Q2210.87 198.492 2210.87 203.238 Q2210.87 207.983 2213.16 210.622 Q2215.45 213.238 2219.59 213.238 Q2221.44 213.238 2223.25 212.752 Q2225.08 212.242 2226.88 211.247 L2226.88 215.182 Q2225.1 216.016 2223.18 216.432 Q2221.28 216.849 2219.13 216.849 Q2213.27 216.849 2209.82 213.168 Q2206.38 209.488 2206.38 203.238 Q2206.38 196.895 2209.85 193.261 Q2213.34 189.627 2219.41 189.627 Q2221.38 189.627 2223.25 190.043 Q2225.13 190.437 2226.88 191.247 Z" fill="#000000" fill-rule="nonzero" fill-opacity="1" /><path clip-path="url(#clip060)" d="M2256.47 202.15 L2256.47 204.233 L2236.88 204.233 Q2237.16 208.631 2239.52 210.946 Q2241.91 213.238 2246.14 213.238 Q2248.6 213.238 2250.89 212.636 Q2253.2 212.034 2255.47 210.83 L2255.47 214.858 Q2253.18 215.83 2250.77 216.34 Q2248.37 216.849 2245.89 216.849 Q2239.69 216.849 2236.05 213.238 Q2232.44 209.627 2232.44 203.469 Q2232.44 197.104 2235.87 193.377 Q2239.32 189.627 2245.15 189.627 Q2250.38 189.627 2253.41 193.006 Q2256.47 196.363 2256.47 202.15 M2252.21 200.9 Q2252.16 197.405 2250.24 195.321 Q2248.34 193.238 2245.19 193.238 Q2241.63 193.238 2239.48 195.252 Q2237.35 197.266 2237.02 200.923 L2252.21 200.9 Z" fill="#000000" fill-rule="nonzero" fill-opacity="1" /><polyline clip-path="url(#clip060)" style="stroke:#808080; stroke-linecap:round; stroke-linejoin:round; stroke-width:4; stroke-opacity:1; fill:none" stroke-dasharray="16, 10" points="1813.4,250.738 1957.84,250.738 "/>
<path clip-path="url(#clip060)" d="M1981.91 242.092 L1986.17 242.092 L1991.49 262.323 L1996.79 242.092 L2001.82 242.092 L2007.14 262.323 L2012.44 242.092 L2016.7 242.092 L2009.92 268.018 L2004.9 268.018 L1999.32 246.768 L1993.71 268.018 L1988.69 268.018 L1981.91 242.092 Z" fill="#000000" fill-rule="nonzero" fill-opacity="1" /><path clip-path="url(#clip060)" d="M2023.16 242.092 L2027.42 242.092 L2027.42 268.018 L2023.16 268.018 L2023.16 242.092 M2023.16 231.999 L2027.42 231.999 L2027.42 237.393 L2023.16 237.393 L2023.16 231.999 Z" fill="#000000" fill-rule="nonzero" fill-opacity="1" /><path clip-path="url(#clip060)" d="M2053.39 246.027 L2053.39 231.999 L2057.65 231.999 L2057.65 268.018 L2053.39 268.018 L2053.39 264.129 Q2052.05 266.443 2049.99 267.578 Q2047.95 268.689 2045.08 268.689 Q2040.38 268.689 2037.42 264.939 Q2034.48 261.189 2034.48 255.078 Q2034.48 248.967 2037.42 245.217 Q2040.38 241.467 2045.08 241.467 Q2047.95 241.467 2049.99 242.601 Q2052.05 243.712 2053.39 246.027 M2038.88 255.078 Q2038.88 259.777 2040.8 262.462 Q2042.74 265.124 2046.12 265.124 Q2049.5 265.124 2051.45 262.462 Q2053.39 259.777 2053.39 255.078 Q2053.39 250.379 2051.45 247.717 Q2049.5 245.032 2046.12 245.032 Q2042.74 245.032 2040.8 247.717 Q2038.88 250.379 2038.88 255.078 Z" fill="#000000" fill-rule="nonzero" fill-opacity="1" /><path clip-path="url(#clip060)" d="M2070.64 234.731 L2070.64 242.092 L2079.41 242.092 L2079.41 245.402 L2070.64 245.402 L2070.64 259.476 Q2070.64 262.647 2071.49 263.55 Q2072.37 264.453 2075.03 264.453 L2079.41 264.453 L2079.41 268.018 L2075.03 268.018 Q2070.1 268.018 2068.23 266.189 Q2066.35 264.337 2066.35 259.476 L2066.35 245.402 L2063.23 245.402 L2063.23 242.092 L2066.35 242.092 L2066.35 234.731 L2070.64 234.731 Z" fill="#000000" fill-rule="nonzero" fill-opacity="1" /><path clip-path="url(#clip060)" d="M2106.56 252.369 L2106.56 268.018 L2102.3 268.018 L2102.3 252.508 Q2102.3 248.828 2100.87 246.999 Q2099.43 245.17 2096.56 245.17 Q2093.11 245.17 2091.12 247.37 Q2089.13 249.569 2089.13 253.365 L2089.13 268.018 L2084.85 268.018 L2084.85 231.999 L2089.13 231.999 L2089.13 246.12 Q2090.66 243.782 2092.72 242.624 Q2094.8 241.467 2097.51 241.467 Q2101.98 241.467 2104.27 244.245 Q2106.56 246.999 2106.56 252.369 Z" fill="#000000" fill-rule="nonzero" fill-opacity="1" /><circle clip-path="url(#clip060)" cx="1885.62" cy="302.578" r="20.48" fill="#ff0000" fill-rule="evenodd" fill-opacity="1" stroke="#000000" stroke-opacity="1" stroke-width="4.55111"/>
<path clip-path="url(#clip060)" d="M2002.26 298.909 Q2003.85 296.038 2006.08 294.673 Q2008.3 293.307 2011.31 293.307 Q2015.36 293.307 2017.56 296.154 Q2019.76 298.978 2019.76 304.209 L2019.76 319.858 L2015.47 319.858 L2015.47 304.348 Q2015.47 300.622 2014.15 298.816 Q2012.83 297.01 2010.13 297.01 Q2006.82 297.01 2004.9 299.21 Q2002.97 301.409 2002.97 305.205 L2002.97 319.858 L1998.69 319.858 L1998.69 304.348 Q1998.69 300.598 1997.37 298.816 Q1996.05 297.01 1993.3 297.01 Q1990.03 297.01 1988.11 299.233 Q1986.19 301.432 1986.19 305.205 L1986.19 319.858 L1981.91 319.858 L1981.91 293.932 L1986.19 293.932 L1986.19 297.96 Q1987.65 295.575 1989.69 294.441 Q1991.72 293.307 1994.52 293.307 Q1997.35 293.307 1999.32 294.742 Q2001.31 296.177 2002.26 298.909 Z" fill="#000000" fill-rule="nonzero" fill-opacity="1" /><path clip-path="url(#clip060)" d="M2040.03 306.825 Q2034.87 306.825 2032.88 308.006 Q2030.89 309.186 2030.89 312.034 Q2030.89 314.302 2032.37 315.645 Q2033.88 316.964 2036.45 316.964 Q2039.99 316.964 2042.12 314.464 Q2044.27 311.941 2044.27 307.774 L2044.27 306.825 L2040.03 306.825 M2048.53 305.066 L2048.53 319.858 L2044.27 319.858 L2044.27 315.922 Q2042.81 318.283 2040.64 319.418 Q2038.46 320.529 2035.31 320.529 Q2031.33 320.529 2028.97 318.307 Q2026.63 316.061 2026.63 312.311 Q2026.63 307.936 2029.55 305.714 Q2032.49 303.492 2038.3 303.492 L2044.27 303.492 L2044.27 303.075 Q2044.27 300.135 2042.33 298.538 Q2040.4 296.918 2036.91 296.918 Q2034.69 296.918 2032.58 297.45 Q2030.47 297.983 2028.53 299.047 L2028.53 295.112 Q2030.87 294.21 2033.07 293.77 Q2035.27 293.307 2037.35 293.307 Q2042.97 293.307 2045.75 296.223 Q2048.53 299.14 2048.53 305.066 Z" fill="#000000" fill-rule="nonzero" fill-opacity="1" /><path clip-path="url(#clip060)" d="M2078.85 293.932 L2069.48 306.547 L2079.34 319.858 L2074.32 319.858 L2066.77 309.672 L2059.22 319.858 L2054.2 319.858 L2064.27 306.293 L2055.06 293.932 L2060.08 293.932 L2066.95 303.168 L2073.83 293.932 L2078.85 293.932 Z" fill="#000000" fill-rule="nonzero" fill-opacity="1" /><path clip-path="url(#clip060)" d="M2085.36 293.932 L2089.62 293.932 L2089.62 319.858 L2085.36 319.858 L2085.36 293.932 M2085.36 283.839 L2089.62 283.839 L2089.62 289.233 L2085.36 289.233 L2085.36 283.839 Z" fill="#000000" fill-rule="nonzero" fill-opacity="1" /><path clip-path="url(#clip060)" d="M2118.71 298.909 Q2120.31 296.038 2122.53 294.673 Q2124.76 293.307 2127.76 293.307 Q2131.82 293.307 2134.01 296.154 Q2136.21 298.978 2136.21 304.209 L2136.21 319.858 L2131.93 319.858 L2131.93 304.348 Q2131.93 300.622 2130.61 298.816 Q2129.29 297.01 2126.58 297.01 Q2123.27 297.01 2121.35 299.21 Q2119.43 301.409 2119.43 305.205 L2119.43 319.858 L2115.15 319.858 L2115.15 304.348 Q2115.15 300.598 2113.83 298.816 Q2112.51 297.01 2109.76 297.01 Q2106.49 297.01 2104.57 299.233 Q2102.65 301.432 2102.65 305.205 L2102.65 319.858 L2098.37 319.858 L2098.37 293.932 L2102.65 293.932 L2102.65 297.96 Q2104.11 295.575 2106.14 294.441 Q2108.18 293.307 2110.98 293.307 Q2113.81 293.307 2115.77 294.742 Q2117.76 296.177 2118.71 298.909 Z" fill="#000000" fill-rule="nonzero" fill-opacity="1" /><path clip-path="url(#clip060)" d="M2156.49 306.825 Q2151.33 306.825 2149.34 308.006 Q2147.35 309.186 2147.35 312.034 Q2147.35 314.302 2148.83 315.645 Q2150.33 316.964 2152.9 316.964 Q2156.45 316.964 2158.57 314.464 Q2160.73 311.941 2160.73 307.774 L2160.73 306.825 L2156.49 306.825 M2164.99 305.066 L2164.99 319.858 L2160.73 319.858 L2160.73 315.922 Q2159.27 318.283 2157.09 319.418 Q2154.92 320.529 2151.77 320.529 Q2147.79 320.529 2145.43 318.307 Q2143.09 316.061 2143.09 312.311 Q2143.09 307.936 2146.01 305.714 Q2148.95 303.492 2154.76 303.492 L2160.73 303.492 L2160.73 303.075 Q2160.73 300.135 2158.78 298.538 Q2156.86 296.918 2153.37 296.918 Q2151.14 296.918 2149.04 297.45 Q2146.93 297.983 2144.99 299.047 L2144.99 295.112 Q2147.32 294.21 2149.52 293.77 Q2151.72 293.307 2153.81 293.307 Q2159.43 293.307 2162.21 296.223 Q2164.99 299.14 2164.99 305.066 Z" fill="#000000" fill-rule="nonzero" fill-opacity="1" /></svg>
