<?xml version="1.0" encoding="utf-8"?>
<svg xmlns="http://www.w3.org/2000/svg" xmlns:xlink="http://www.w3.org/1999/xlink" width="600" height="400" viewBox="0 0 2400 1600">
<defs>
  <clipPath id="clip000">
    <rect x="0" y="0" width="2400" height="1600"/>
  </clipPath>
</defs>
<path clip-path="url(#clip000)" d="M0 1600 L2400 1600 L2400 0 L0 0  Z" fill="#ffffff" fill-rule="evenodd" fill-opacity="1"/>
<defs>
  <clipPath id="clip001">
    <rect x="480" y="0" width="1681" height="1600"/>
  </clipPath>
</defs>
<path clip-path="url(#clip000)" d="M249.542 1423.18 L2352.76 1423.18 L2352.76 47.2441 L249.542 47.2441  Z" fill="#ffffff" fill-rule="evenodd" fill-opacity="1"/>
<defs>
  <clipPath id="clip002">
    <rect x="249" y="47" width="2104" height="1377"/>
  </clipPath>
</defs>
<polyline clip-path="url(#clip002)" style="stroke:#000000; stroke-linecap:round; stroke-linejoin:round; stroke-width:2; stroke-opacity:0.1; fill:none" points="309.067,1423.18 309.067,47.2441 "/>
<polyline clip-path="url(#clip002)" style="stroke:#000000; stroke-linecap:round; stroke-linejoin:round; stroke-width:2; stroke-opacity:0.1; fill:none" points="805.108,1423.18 805.108,47.2441 "/>
<polyline clip-path="url(#clip002)" style="stroke:#000000; stroke-linecap:round; stroke-linejoin:round; stroke-width:2; stroke-opacity:0.1; fill:none" points="1301.15,1423.18 1301.15,47.2441 "/>
<polyline clip-path="url(#clip002)" style="stroke:#000000; stroke-linecap:round; stroke-linejoin:round; stroke-width:2; stroke-opacity:0.1; fill:none" points="1797.19,1423.18 1797.19,47.2441 "/>
<polyline clip-path="url(#clip002)" style="stroke:#000000; stroke-linecap:round; stroke-linejoin:round; stroke-width:2; stroke-opacity:0.1; fill:none" points="2293.23,1423.18 2293.23,47.2441 "/>
<polyline clip-path="url(#clip002)" style="stroke:#000000; stroke-linecap:round; stroke-linejoin:round; stroke-width:2; stroke-opacity:0.1; fill:none" points="249.542,1247.59 2352.76,1247.59 "/>
<polyline clip-path="url(#clip002)" style="stroke:#000000; stroke-linecap:round; stroke-linejoin:round; stroke-width:2; stroke-opacity:0.1; fill:none" points="249.542,991.506 2352.76,991.506 "/>
<polyline clip-path="url(#clip002)" style="stroke:#000000; stroke-linecap:round; stroke-linejoin:round; stroke-width:2; stroke-opacity:0.1; fill:none" points="249.542,735.419 2352.76,735.419 "/>
<polyline clip-path="url(#clip002)" style="stroke:#000000; stroke-linecap:round; stroke-linejoin:round; stroke-width:2; stroke-opacity:0.1; fill:none" points="249.542,479.332 2352.76,479.332 "/>
<polyline clip-path="url(#clip002)" style="stroke:#000000; stroke-linecap:round; stroke-linejoin:round; stroke-width:2; stroke-opacity:0.1; fill:none" points="249.542,223.245 2352.76,223.245 "/>
<polyline clip-path="url(#clip000)" style="stroke:#000000; stroke-linecap:round; stroke-linejoin:round; stroke-width:4; stroke-opacity:1; fill:none" points="249.542,1423.18 2352.76,1423.18 "/>
<polyline clip-path="url(#clip000)" style="stroke:#000000; stroke-linecap:round; stroke-linejoin:round; stroke-width:4; stroke-opacity:1; fill:none" points="309.067,1423.18 309.067,1404.28 "/>
<polyline clip-path="url(#clip000)" style="stroke:#000000; stroke-linecap:round; stroke-linejoin:round; stroke-width:4; stroke-opacity:1; fill:none" points="805.108,1423.18 805.108,1404.28 "/>
<polyline clip-path="url(#clip000)" style="stroke:#000000; stroke-linecap:round; stroke-linejoin:round; stroke-width:4; stroke-opacity:1; fill:none" points="1301.15,1423.18 1301.15,1404.28 "/>
<polyline clip-path="url(#clip000)" style="stroke:#000000; stroke-linecap:round; stroke-linejoin:round; stroke-width:4; stroke-opacity:1; fill:none" points="1797.19,1423.18 1797.19,1404.28 "/>
<polyline clip-path="url(#clip000)" style="stroke:#000000; stroke-linecap:round; stroke-linejoin:round; stroke-width:4; stroke-opacity:1; fill:none" points="2293.23,1423.18 2293.23,1404.28 "/>
<path clip-path="url(#clip000)" d="M309.067 1454.1 Q305.456 1454.1 303.627 1457.66 Q301.822 1461.2 301.822 1468.33 Q301.822 1475.44 303.627 1479.01 Q305.456 1482.55 309.067 1482.55 Q312.701 1482.55 314.507 1479.01 Q316.335 1475.44 316.335 1468.33 Q316.335 1461.2 314.507 1457.66 Q312.701 1454.1 309.067 1454.1 M309.067 1450.39 Q314.877 1450.39 317.933 1455 Q321.011 1459.58 321.011 1468.33 Q321.011 1477.06 317.933 1481.67 Q314.877 1486.25 309.067 1486.25 Q303.257 1486.25 300.178 1481.67 Q297.123 1477.06 297.123 1468.33 Q297.123 1459.58 300.178 1455 Q303.257 1450.39 309.067 1450.39 Z" fill="#000000" fill-rule="nonzero" fill-opacity="1" /><path clip-path="url(#clip000)" d="M784.379 1481.64 L800.698 1481.64 L800.698 1485.58 L778.754 1485.58 L778.754 1481.64 Q781.416 1478.89 785.999 1474.26 Q790.606 1469.61 791.786 1468.27 Q794.032 1465.74 794.911 1464.01 Q795.814 1462.25 795.814 1460.56 Q795.814 1457.8 793.87 1456.07 Q791.948 1454.33 788.846 1454.33 Q786.647 1454.33 784.194 1455.09 Q781.763 1455.86 778.985 1457.41 L778.985 1452.69 Q781.809 1451.55 784.263 1450.97 Q786.717 1450.39 788.754 1450.39 Q794.124 1450.39 797.319 1453.08 Q800.513 1455.77 800.513 1460.26 Q800.513 1462.39 799.703 1464.31 Q798.916 1466.2 796.809 1468.8 Q796.231 1469.47 793.129 1472.69 Q790.027 1475.88 784.379 1481.64 Z" fill="#000000" fill-rule="nonzero" fill-opacity="1" /><path clip-path="url(#clip000)" d="M810.559 1451.02 L828.916 1451.02 L828.916 1454.96 L814.842 1454.96 L814.842 1463.43 Q815.86 1463.08 816.879 1462.92 Q817.897 1462.73 818.916 1462.73 Q824.703 1462.73 828.082 1465.9 Q831.462 1469.08 831.462 1474.49 Q831.462 1480.07 827.99 1483.17 Q824.518 1486.25 818.198 1486.25 Q816.022 1486.25 813.754 1485.88 Q811.508 1485.51 809.101 1484.77 L809.101 1480.07 Q811.184 1481.2 813.407 1481.76 Q815.629 1482.32 818.106 1482.32 Q822.11 1482.32 824.448 1480.21 Q826.786 1478.1 826.786 1474.49 Q826.786 1470.88 824.448 1468.77 Q822.11 1466.67 818.106 1466.67 Q816.231 1466.67 814.356 1467.08 Q812.504 1467.5 810.559 1468.38 L810.559 1451.02 Z" fill="#000000" fill-rule="nonzero" fill-opacity="1" /><path clip-path="url(#clip000)" d="M1275.85 1451.02 L1294.2 1451.02 L1294.2 1454.96 L1280.13 1454.96 L1280.13 1463.43 Q1281.15 1463.08 1282.17 1462.92 Q1283.19 1462.73 1284.2 1462.73 Q1289.99 1462.73 1293.37 1465.9 Q1296.75 1469.08 1296.75 1474.49 Q1296.75 1480.07 1293.28 1483.17 Q1289.81 1486.25 1283.49 1486.25 Q1281.31 1486.25 1279.04 1485.88 Q1276.8 1485.51 1274.39 1484.77 L1274.39 1480.07 Q1276.47 1481.2 1278.7 1481.76 Q1280.92 1482.32 1283.39 1482.32 Q1287.4 1482.32 1289.74 1480.21 Q1292.07 1478.1 1292.07 1474.49 Q1292.07 1470.88 1289.74 1468.77 Q1287.4 1466.67 1283.39 1466.67 Q1281.52 1466.67 1279.64 1467.08 Q1277.79 1467.5 1275.85 1468.38 L1275.85 1451.02 Z" fill="#000000" fill-rule="nonzero" fill-opacity="1" /><path clip-path="url(#clip000)" d="M1315.96 1454.1 Q1312.35 1454.1 1310.52 1457.66 Q1308.72 1461.2 1308.72 1468.33 Q1308.72 1475.44 1310.52 1479.01 Q1312.35 1482.55 1315.96 1482.55 Q1319.6 1482.55 1321.4 1479.01 Q1323.23 1475.44 1323.23 1468.33 Q1323.23 1461.2 1321.4 1457.66 Q1319.6 1454.1 1315.96 1454.1 M1315.96 1450.39 Q1321.77 1450.39 1324.83 1455 Q1327.91 1459.58 1327.91 1468.33 Q1327.91 1477.06 1324.83 1481.67 Q1321.77 1486.25 1315.96 1486.25 Q1310.15 1486.25 1307.07 1481.67 Q1304.02 1477.06 1304.02 1468.33 Q1304.02 1459.58 1307.07 1455 Q1310.15 1450.39 1315.96 1450.39 Z" fill="#000000" fill-rule="nonzero" fill-opacity="1" /><path clip-path="url(#clip000)" d="M1771.04 1451.02 L1793.27 1451.02 L1793.27 1453.01 L1780.72 1485.58 L1775.84 1485.58 L1787.64 1454.96 L1771.04 1454.96 L1771.04 1451.02 Z" fill="#000000" fill-rule="nonzero" fill-opacity="1" /><path clip-path="url(#clip000)" d="M1802.43 1451.02 L1820.79 1451.02 L1820.79 1454.96 L1806.72 1454.96 L1806.72 1463.43 Q1807.73 1463.08 1808.75 1462.92 Q1809.77 1462.73 1810.79 1462.73 Q1816.58 1462.73 1819.96 1465.9 Q1823.34 1469.08 1823.34 1474.49 Q1823.34 1480.07 1819.86 1483.17 Q1816.39 1486.25 1810.07 1486.25 Q1807.9 1486.25 1805.63 1485.88 Q1803.38 1485.51 1800.97 1484.77 L1800.97 1480.07 Q1803.06 1481.2 1805.28 1481.76 Q1807.5 1482.32 1809.98 1482.32 Q1813.98 1482.32 1816.32 1480.21 Q1818.66 1478.1 1818.66 1474.49 Q1818.66 1470.88 1816.32 1468.77 Q1813.98 1466.67 1809.98 1466.67 Q1808.1 1466.67 1806.23 1467.08 Q1804.38 1467.5 1802.43 1468.38 L1802.43 1451.02 Z" fill="#000000" fill-rule="nonzero" fill-opacity="1" /><path clip-path="url(#clip000)" d="M2252.84 1481.64 L2260.48 1481.64 L2260.48 1455.28 L2252.17 1456.95 L2252.17 1452.69 L2260.43 1451.02 L2265.11 1451.02 L2265.11 1481.64 L2272.74 1481.64 L2272.74 1485.58 L2252.84 1485.58 L2252.84 1481.64 Z" fill="#000000" fill-rule="nonzero" fill-opacity="1" /><path clip-path="url(#clip000)" d="M2292.19 1454.1 Q2288.58 1454.1 2286.75 1457.66 Q2284.94 1461.2 2284.94 1468.33 Q2284.94 1475.44 2286.75 1479.01 Q2288.58 1482.55 2292.19 1482.55 Q2295.82 1482.55 2297.63 1479.01 Q2299.46 1475.44 2299.46 1468.33 Q2299.46 1461.2 2297.63 1457.66 Q2295.82 1454.1 2292.19 1454.1 M2292.19 1450.39 Q2298 1450.39 2301.06 1455 Q2304.13 1459.58 2304.13 1468.33 Q2304.13 1477.06 2301.06 1481.67 Q2298 1486.25 2292.19 1486.25 Q2286.38 1486.25 2283.3 1481.67 Q2280.24 1477.06 2280.24 1468.33 Q2280.24 1459.58 2283.3 1455 Q2286.38 1450.39 2292.19 1450.39 Z" fill="#000000" fill-rule="nonzero" fill-opacity="1" /><path clip-path="url(#clip000)" d="M2322.35 1454.1 Q2318.74 1454.1 2316.91 1457.66 Q2315.11 1461.2 2315.11 1468.33 Q2315.11 1475.44 2316.91 1479.01 Q2318.74 1482.55 2322.35 1482.55 Q2325.99 1482.55 2327.79 1479.01 Q2329.62 1475.44 2329.62 1468.33 Q2329.62 1461.2 2327.79 1457.66 Q2325.99 1454.1 2322.35 1454.1 M2322.35 1450.39 Q2328.16 1450.39 2331.22 1455 Q2334.3 1459.58 2334.3 1468.33 Q2334.3 1477.06 2331.22 1481.67 Q2328.16 1486.25 2322.35 1486.25 Q2316.54 1486.25 2313.46 1481.67 Q2310.41 1477.06 2310.41 1468.33 Q2310.41 1459.58 2313.46 1455 Q2316.54 1450.39 2322.35 1450.39 Z" fill="#000000" fill-rule="nonzero" fill-opacity="1" /><path clip-path="url(#clip000)" d="M1282.97 1520.52 L1289.88 1520.52 L1301.69 1538.19 L1313.56 1520.52 L1320.47 1520.52 L1305.19 1543.34 L1321.49 1568.04 L1314.58 1568.04 L1301.21 1547.83 L1287.75 1568.04 L1280.81 1568.04 L1297.78 1542.68 L1282.97 1520.52 Z" fill="#000000" fill-rule="nonzero" fill-opacity="1" /><polyline clip-path="url(#clip000)" style="stroke:#000000; stroke-linecap:round; stroke-linejoin:round; stroke-width:4; stroke-opacity:1; fill:none" points="249.542,1423.18 249.542,47.2441 "/>
<polyline clip-path="url(#clip000)" style="stroke:#000000; stroke-linecap:round; stroke-linejoin:round; stroke-width:4; stroke-opacity:1; fill:none" points="249.542,1247.59 268.44,1247.59 "/>
<polyline clip-path="url(#clip000)" style="stroke:#000000; stroke-linecap:round; stroke-linejoin:round; stroke-width:4; stroke-opacity:1; fill:none" points="249.542,991.506 268.44,991.506 "/>
<polyline clip-path="url(#clip000)" style="stroke:#000000; stroke-linecap:round; stroke-linejoin:round; stroke-width:4; stroke-opacity:1; fill:none" points="249.542,735.419 268.44,735.419 "/>
<polyline clip-path="url(#clip000)" style="stroke:#000000; stroke-linecap:round; stroke-linejoin:round; stroke-width:4; stroke-opacity:1; fill:none" points="249.542,479.332 268.44,479.332 "/>
<polyline clip-path="url(#clip000)" style="stroke:#000000; stroke-linecap:round; stroke-linejoin:round; stroke-width:4; stroke-opacity:1; fill:none" points="249.542,223.245 268.44,223.245 "/>
<path clip-path="url(#clip000)" d="M126.205 1233.39 Q122.593 1233.39 120.765 1236.96 Q118.959 1240.5 118.959 1247.63 Q118.959 1254.73 120.765 1258.3 Q122.593 1261.84 126.205 1261.84 Q129.839 1261.84 131.644 1258.3 Q133.473 1254.73 133.473 1247.63 Q133.473 1240.5 131.644 1236.96 Q129.839 1233.39 126.205 1233.39 M126.205 1229.69 Q132.015 1229.69 135.07 1234.29 Q138.149 1238.88 138.149 1247.63 Q138.149 1256.35 135.07 1260.96 Q132.015 1265.54 126.205 1265.54 Q120.394 1265.54 117.316 1260.96 Q114.26 1256.35 114.26 1247.63 Q114.26 1238.88 117.316 1234.29 Q120.394 1229.69 126.205 1229.69 Z" fill="#000000" fill-rule="nonzero" fill-opacity="1" /><path clip-path="url(#clip000)" d="M146.366 1258.99 L151.251 1258.99 L151.251 1264.87 L146.366 1264.87 L146.366 1258.99 Z" fill="#000000" fill-rule="nonzero" fill-opacity="1" /><path clip-path="url(#clip000)" d="M171.436 1233.39 Q167.825 1233.39 165.996 1236.96 Q164.19 1240.5 164.19 1247.63 Q164.19 1254.73 165.996 1258.3 Q167.825 1261.84 171.436 1261.84 Q175.07 1261.84 176.876 1258.3 Q178.704 1254.73 178.704 1247.63 Q178.704 1240.5 176.876 1236.96 Q175.07 1233.39 171.436 1233.39 M171.436 1229.69 Q177.246 1229.69 180.301 1234.29 Q183.38 1238.88 183.38 1247.63 Q183.38 1256.35 180.301 1260.96 Q177.246 1265.54 171.436 1265.54 Q165.626 1265.54 162.547 1260.96 Q159.491 1256.35 159.491 1247.63 Q159.491 1238.88 162.547 1234.29 Q165.626 1229.69 171.436 1229.69 Z" fill="#000000" fill-rule="nonzero" fill-opacity="1" /><path clip-path="url(#clip000)" d="M201.598 1233.39 Q197.987 1233.39 196.158 1236.96 Q194.352 1240.5 194.352 1247.63 Q194.352 1254.73 196.158 1258.3 Q197.987 1261.84 201.598 1261.84 Q205.232 1261.84 207.037 1258.3 Q208.866 1254.73 208.866 1247.63 Q208.866 1240.5 207.037 1236.96 Q205.232 1233.39 201.598 1233.39 M201.598 1229.69 Q207.408 1229.69 210.463 1234.29 Q213.542 1238.88 213.542 1247.63 Q213.542 1256.35 210.463 1260.96 Q207.408 1265.54 201.598 1265.54 Q195.787 1265.54 192.709 1260.96 Q189.653 1256.35 189.653 1247.63 Q189.653 1238.88 192.709 1234.29 Q195.787 1229.69 201.598 1229.69 Z" fill="#000000" fill-rule="nonzero" fill-opacity="1" /><path clip-path="url(#clip000)" d="M127.2 977.304 Q123.589 977.304 121.76 980.869 Q119.955 984.411 119.955 991.54 Q119.955 998.647 121.76 1002.21 Q123.589 1005.75 127.2 1005.75 Q130.834 1005.75 132.64 1002.21 Q134.468 998.647 134.468 991.54 Q134.468 984.411 132.64 980.869 Q130.834 977.304 127.2 977.304 M127.2 973.601 Q133.01 973.601 136.066 978.207 Q139.144 982.79 139.144 991.54 Q139.144 1000.27 136.066 1004.87 Q133.01 1009.46 127.2 1009.46 Q121.39 1009.46 118.311 1004.87 Q115.256 1000.27 115.256 991.54 Q115.256 982.79 118.311 978.207 Q121.39 973.601 127.2 973.601 Z" fill="#000000" fill-rule="nonzero" fill-opacity="1" /><path clip-path="url(#clip000)" d="M147.362 1002.91 L152.246 1002.91 L152.246 1008.79 L147.362 1008.79 L147.362 1002.91 Z" fill="#000000" fill-rule="nonzero" fill-opacity="1" /><path clip-path="url(#clip000)" d="M166.459 1004.85 L182.778 1004.85 L182.778 1008.79 L160.834 1008.79 L160.834 1004.85 Q163.496 1002.1 168.079 997.466 Q172.686 992.814 173.866 991.471 Q176.112 988.948 176.991 987.212 Q177.894 985.453 177.894 983.763 Q177.894 981.008 175.95 979.272 Q174.028 977.536 170.927 977.536 Q168.727 977.536 166.274 978.3 Q163.843 979.064 161.065 980.615 L161.065 975.892 Q163.89 974.758 166.343 974.179 Q168.797 973.601 170.834 973.601 Q176.204 973.601 179.399 976.286 Q182.593 978.971 182.593 983.462 Q182.593 985.591 181.783 987.513 Q180.996 989.411 178.889 992.003 Q178.311 992.675 175.209 995.892 Q172.107 999.087 166.459 1004.85 Z" fill="#000000" fill-rule="nonzero" fill-opacity="1" /><path clip-path="url(#clip000)" d="M192.639 974.226 L210.996 974.226 L210.996 978.161 L196.922 978.161 L196.922 986.633 Q197.94 986.286 198.959 986.124 Q199.977 985.939 200.996 985.939 Q206.783 985.939 210.162 989.11 Q213.542 992.281 213.542 997.698 Q213.542 1003.28 210.07 1006.38 Q206.598 1009.46 200.278 1009.46 Q198.102 1009.46 195.834 1009.09 Q193.588 1008.72 191.181 1007.98 L191.181 1003.28 Q193.264 1004.41 195.487 1004.97 Q197.709 1005.52 200.186 1005.52 Q204.19 1005.52 206.528 1003.42 Q208.866 1001.31 208.866 997.698 Q208.866 994.087 206.528 991.98 Q204.19 989.874 200.186 989.874 Q198.311 989.874 196.436 990.29 Q194.584 990.707 192.639 991.587 L192.639 974.226 Z" fill="#000000" fill-rule="nonzero" fill-opacity="1" /><path clip-path="url(#clip000)" d="M126.205 721.217 Q122.593 721.217 120.765 724.782 Q118.959 728.324 118.959 735.453 Q118.959 742.56 120.765 746.125 Q122.593 749.666 126.205 749.666 Q129.839 749.666 131.644 746.125 Q133.473 742.56 133.473 735.453 Q133.473 728.324 131.644 724.782 Q129.839 721.217 126.205 721.217 M126.205 717.514 Q132.015 717.514 135.07 722.12 Q138.149 726.703 138.149 735.453 Q138.149 744.18 135.07 748.787 Q132.015 753.37 126.205 753.37 Q120.394 753.37 117.316 748.787 Q114.26 744.18 114.26 735.453 Q114.26 726.703 117.316 722.12 Q120.394 717.514 126.205 717.514 Z" fill="#000000" fill-rule="nonzero" fill-opacity="1" /><path clip-path="url(#clip000)" d="M146.366 746.819 L151.251 746.819 L151.251 752.699 L146.366 752.699 L146.366 746.819 Z" fill="#000000" fill-rule="nonzero" fill-opacity="1" /><path clip-path="url(#clip000)" d="M161.482 718.139 L179.839 718.139 L179.839 722.074 L165.765 722.074 L165.765 730.546 Q166.783 730.199 167.802 730.037 Q168.82 729.852 169.839 729.852 Q175.626 729.852 179.005 733.023 Q182.385 736.194 182.385 741.611 Q182.385 747.189 178.913 750.291 Q175.44 753.37 169.121 753.37 Q166.945 753.37 164.677 753 Q162.431 752.629 160.024 751.889 L160.024 747.189 Q162.107 748.324 164.329 748.879 Q166.552 749.435 169.028 749.435 Q173.033 749.435 175.371 747.328 Q177.709 745.222 177.709 741.611 Q177.709 738 175.371 735.893 Q173.033 733.787 169.028 733.787 Q167.153 733.787 165.278 734.203 Q163.427 734.62 161.482 735.5 L161.482 718.139 Z" fill="#000000" fill-rule="nonzero" fill-opacity="1" /><path clip-path="url(#clip000)" d="M201.598 721.217 Q197.987 721.217 196.158 724.782 Q194.352 728.324 194.352 735.453 Q194.352 742.56 196.158 746.125 Q197.987 749.666 201.598 749.666 Q205.232 749.666 207.037 746.125 Q208.866 742.56 208.866 735.453 Q208.866 728.324 207.037 724.782 Q205.232 721.217 201.598 721.217 M201.598 717.514 Q207.408 717.514 210.463 722.12 Q213.542 726.703 213.542 735.453 Q213.542 744.18 210.463 748.787 Q207.408 753.37 201.598 753.37 Q195.787 753.37 192.709 748.787 Q189.653 744.18 189.653 735.453 Q189.653 726.703 192.709 722.12 Q195.787 717.514 201.598 717.514 Z" fill="#000000" fill-rule="nonzero" fill-opacity="1" /><path clip-path="url(#clip000)" d="M127.2 465.13 Q123.589 465.13 121.76 468.695 Q119.955 472.237 119.955 479.366 Q119.955 486.473 121.76 490.038 Q123.589 493.579 127.2 493.579 Q130.834 493.579 132.64 490.038 Q134.468 486.473 134.468 479.366 Q134.468 472.237 132.64 468.695 Q130.834 465.13 127.2 465.13 M127.2 461.427 Q133.01 461.427 136.066 466.033 Q139.144 470.616 139.144 479.366 Q139.144 488.093 136.066 492.7 Q133.01 497.283 127.2 497.283 Q121.39 497.283 118.311 492.7 Q115.256 488.093 115.256 479.366 Q115.256 470.616 118.311 466.033 Q121.39 461.427 127.2 461.427 Z" fill="#000000" fill-rule="nonzero" fill-opacity="1" /><path clip-path="url(#clip000)" d="M147.362 490.732 L152.246 490.732 L152.246 496.612 L147.362 496.612 L147.362 490.732 Z" fill="#000000" fill-rule="nonzero" fill-opacity="1" /><path clip-path="url(#clip000)" d="M161.251 462.052 L183.473 462.052 L183.473 464.042 L170.927 496.612 L166.042 496.612 L177.848 465.987 L161.251 465.987 L161.251 462.052 Z" fill="#000000" fill-rule="nonzero" fill-opacity="1" /><path clip-path="url(#clip000)" d="M192.639 462.052 L210.996 462.052 L210.996 465.987 L196.922 465.987 L196.922 474.459 Q197.94 474.112 198.959 473.95 Q199.977 473.765 200.996 473.765 Q206.783 473.765 210.162 476.936 Q213.542 480.107 213.542 485.524 Q213.542 491.102 210.07 494.204 Q206.598 497.283 200.278 497.283 Q198.102 497.283 195.834 496.913 Q193.588 496.542 191.181 495.801 L191.181 491.102 Q193.264 492.237 195.487 492.792 Q197.709 493.348 200.186 493.348 Q204.19 493.348 206.528 491.241 Q208.866 489.135 208.866 485.524 Q208.866 481.913 206.528 479.806 Q204.19 477.7 200.186 477.7 Q198.311 477.7 196.436 478.116 Q194.584 478.533 192.639 479.413 L192.639 462.052 Z" fill="#000000" fill-rule="nonzero" fill-opacity="1" /><path clip-path="url(#clip000)" d="M117.015 236.589 L124.654 236.589 L124.654 210.224 L116.343 211.891 L116.343 207.631 L124.607 205.965 L129.283 205.965 L129.283 236.589 L136.922 236.589 L136.922 240.525 L117.015 240.525 L117.015 236.589 Z" fill="#000000" fill-rule="nonzero" fill-opacity="1" /><path clip-path="url(#clip000)" d="M146.366 234.645 L151.251 234.645 L151.251 240.525 L146.366 240.525 L146.366 234.645 Z" fill="#000000" fill-rule="nonzero" fill-opacity="1" /><path clip-path="url(#clip000)" d="M171.436 209.043 Q167.825 209.043 165.996 212.608 Q164.19 216.15 164.19 223.279 Q164.19 230.386 165.996 233.951 Q167.825 237.492 171.436 237.492 Q175.07 237.492 176.876 233.951 Q178.704 230.386 178.704 223.279 Q178.704 216.15 176.876 212.608 Q175.07 209.043 171.436 209.043 M171.436 205.34 Q177.246 205.34 180.301 209.946 Q183.38 214.529 183.38 223.279 Q183.38 232.006 180.301 236.613 Q177.246 241.196 171.436 241.196 Q165.626 241.196 162.547 236.613 Q159.491 232.006 159.491 223.279 Q159.491 214.529 162.547 209.946 Q165.626 205.34 171.436 205.34 Z" fill="#000000" fill-rule="nonzero" fill-opacity="1" /><path clip-path="url(#clip000)" d="M201.598 209.043 Q197.987 209.043 196.158 212.608 Q194.352 216.15 194.352 223.279 Q194.352 230.386 196.158 233.951 Q197.987 237.492 201.598 237.492 Q205.232 237.492 207.037 233.951 Q208.866 230.386 208.866 223.279 Q208.866 216.15 207.037 212.608 Q205.232 209.043 201.598 209.043 M201.598 205.34 Q207.408 205.34 210.463 209.946 Q213.542 214.529 213.542 223.279 Q213.542 232.006 210.463 236.613 Q207.408 241.196 201.598 241.196 Q195.787 241.196 192.709 236.613 Q189.653 232.006 189.653 223.279 Q189.653 214.529 192.709 209.946 Q195.787 205.34 201.598 205.34 Z" fill="#000000" fill-rule="nonzero" fill-opacity="1" /><path clip-path="url(#clip000)" d="M16.4842 755.248 L16.4842 748.341 L36.0269 735.164 L16.4842 722.083 L16.4842 715.176 L41.3741 731.981 L64.0042 731.981 L64.0042 738.443 L41.3741 738.443 L16.4842 755.248 Z" fill="#000000" fill-rule="nonzero" fill-opacity="1" /><polyline clip-path="url(#clip002)" style="stroke:#009af9; stroke-linecap:round; stroke-linejoin:round; stroke-width:4; stroke-opacity:1; fill:none" points="309.067,1248.08 311.051,1321.32 313.035,1220.12 315.019,1230.69 317.004,1229.9 318.988,1225.24 320.972,1195.02 322.956,1251.72 324.94,1276.22 326.924,1240.09 328.909,1184.37 330.893,1288.52 332.877,1198.99 334.861,1321.89 336.845,1274.63 338.829,1367.03 340.814,1251.35 342.798,1287.94 344.782,1312.74 346.766,1248.13 348.75,1187.72 350.734,1243.28 352.719,1221.57 354.703,1345.38 356.687,1163.99 358.671,1287.18 360.655,1191.01 362.639,1294.65 364.624,1288.5 366.608,1308.02 368.592,1158.06 370.576,1279.64 372.56,1160.58 374.544,1287.88 376.529,1240.13 378.513,1169.63 380.497,1202.37 382.481,1235.74 384.465,1243.43 386.449,1278.13 388.434,1322.88 390.418,1314.33 392.402,1210.01 394.386,1299.47 396.37,1307.57 398.354,1221.44 400.338,1217.7 402.323,1262.82 404.307,1184.95 406.291,1203.75 408.275,1250.58 410.259,1258.72 412.243,1151.82 414.228,1294.97 416.212,1338.46 418.196,1257.84 420.18,1172.03 422.164,1249.86 424.148,1176.95 426.133,1312.37 428.117,1185.26 430.101,1229.49 432.085,1293.3 434.069,1197.19 436.053,1276.94 438.038,1241.05 440.022,1224.83 442.006,1228 443.99,1234.9 445.974,1247.27 447.958,1288.32 449.943,1245.17 451.927,1286.55 453.911,1250.72 455.895,1265.58 457.879,1158.05 459.863,1169.15 461.848,1211.33 463.832,1202.07 465.816,1184.72 467.8,1249.81 469.784,1280.14 471.768,1303.85 473.753,1186.41 475.737,1224.57 477.721,1254.45 479.705,1305.25 481.689,1329.11 483.673,1266.12 485.658,1247.61 487.642,1214.73 489.626,1301.25 491.61,1282.16 493.594,1213.09 495.578,1247.01 497.563,1234.17 499.547,1186.4 501.531,1251.02 503.515,1219 505.499,1275.62 507.483,1343.19 509.468,1274.39 511.452,1204.29 513.436,1211.13 515.42,1200.8 517.404,1254.56 519.388,1257.28 521.373,1347.89 523.357,1280.36 525.341,1227.49 527.325,1231.84 529.309,1192.76 531.293,1320.5 533.277,1284.65 535.262,1260.51 537.246,1287.35 539.23,1226.95 541.214,1186.19 543.198,1272.6 545.182,1177.24 547.167,1236.17 549.151,1186.59 551.135,1314.15 553.119,1276.17 555.103,1237.07 557.087,1293.76 559.072,1238.35 561.056,1231.42 563.04,1268.87 565.024,1304.57 567.008,1277.88 568.992,1179.29 570.977,1244.06 572.961,1258.18 574.945,1270.83 576.929,1236.89 578.913,1198.79 580.897,1265.22 582.882,1249.14 584.866,1285.08 586.85,1153.85 588.834,1226.99 590.818,1177.39 592.802,1176.19 594.787,1253.7 596.771,1264.08 598.755,1222.9 600.739,1301.46 602.723,1319.25 604.707,1364.25 606.692,1208.97 608.676,1299.99 610.66,1183.39 612.644,1198.29 614.628,1215.29 616.612,1101.32 618.597,1206.06 620.581,1203.39 622.565,1239.12 624.549,1241.07 626.533,1190.01 628.517,1245.41 630.502,1223.48 632.486,1335.02 634.47,1258.96 636.454,1169.82 638.438,1272.54 640.422,1273.7 642.407,1161.61 644.391,1164.04 646.375,1194.9 648.359,1266.24 650.343,1255 652.327,1223.87 654.311,1236.92 656.296,1242.63 658.28,1244.21 660.264,1261.62 662.248,1198.85 664.232,1270.51 666.216,1305.65 668.201,1243.04 670.185,1161.05 672.169,1300.41 674.153,1254.92 676.137,1360.37 678.121,1189.26 680.106,1222.1 682.09,1201.46 684.074,1256.72 686.058,1156.21 688.042,1351 690.026,1210.83 692.011,1260.95 693.995,1241.83 695.979,1248.7 697.963,1222.73 699.947,1201.94 701.931,1310.68 703.916,1279.48 705.9,1335.57 707.884,1307.04 709.868,1237.74 711.852,1276.63 713.836,1290.21 715.821,1190.39 717.805,1231.28 719.789,1264.39 721.773,1281.25 723.757,1168.26 725.741,1196.03 727.726,1184.93 729.71,1194.86 731.694,1214.49 733.678,1243.2 735.662,1199.42 737.646,1234.69 739.631,1268.39 741.615,1224.1 743.599,1296.77 745.583,1283.54 747.567,1208.19 749.551,1329.29 751.536,1192.04 753.52,1218.84 755.504,1312.22 757.488,1322.66 759.472,1269.81 761.456,1222.62 763.441,1259.44 765.425,1225.07 767.409,1234.57 769.393,1192.92 771.377,1132.09 773.361,1327.25 775.346,1184.23 777.33,1127.98 779.314,1264.27 781.298,1237.56 783.282,1257.8 785.266,1349.13 787.25,1305.38 789.235,1183.26 791.219,1193.57 793.203,1286.71 795.187,1220.63 797.171,1274.7 799.155,1229.48 801.14,1282.77 803.124,1210.73 805.108,1305.7 807.092,1222.3 809.076,1182.97 811.06,1307.03 813.045,1236.07 815.029,1219.63 817.013,1251.81 818.997,1097.72 820.981,1182.61 822.965,1260.33 824.95,1246.17 826.934,1178.91 828.918,1294.1 830.902,1194.33 832.886,1355.49 834.87,1299.03 836.855,1205.93 838.839,1214.24 840.823,1183.51 842.807,1245.85 844.791,1258.74 846.775,1231.14 848.76,1384.24 850.744,1241.65 852.728,1252.09 854.712,1224.7 856.696,1233.98 858.68,1271.11 860.665,1247.65 862.649,1231.22 864.633,1194 866.617,1178.57 868.601,1281.53 870.585,1322.39 872.57,1248.81 874.554,1149.79 876.538,1284.5 878.522,1230.62 880.506,1258.3 882.49,1284.44 884.475,1282.27 886.459,1226.39 888.443,1193.91 890.427,1175.3 892.411,1165.74 894.395,1245.75 896.38,1250.09 898.364,1381.51 900.348,1220.08 902.332,1272.3 904.316,1204.69 906.3,1201.57 908.284,1258.55 910.269,1203.3 912.253,1215.29 914.237,1182.04 916.221,1204.49 918.205,1245.58 920.189,1212.32 922.174,1233.37 924.158,1181.24 926.142,1345.67 928.126,1226.07 930.11,1263.04 932.094,1270.18 934.079,1230.21 936.063,1245.21 938.047,1221.3 940.031,1175.1 942.015,1272.99 943.999,1245.18 945.984,1318.54 947.968,1279.32 949.952,1250.33 951.936,1262.51 953.92,1253.01 955.904,1194.69 957.889,1237.02 959.873,1184.08 961.857,1335.63 963.841,1255.73 965.825,1147.81 967.809,1245.91 969.794,1188.51 971.778,1282.05 973.762,1263.78 975.746,1267.38 977.73,1264.52 979.714,1284.71 981.699,1342.8 983.683,1253.44 985.667,1222.61 987.651,1303.72 989.635,1287.3 991.619,1211.23 993.604,1225.5 995.588,1244.61 997.572,1349.41 999.556,1242.28 1001.54,1235.36 1003.52,1164.28 1005.51,1287.98 1007.49,1211.29 1009.48,1254.57 1011.46,1205.18 1013.45,1214.53 1015.43,1200.5 1017.41,1164.53 1019.4,1281.75 1021.38,1155.25 1023.37,1281.84 1025.35,1254.41 1027.33,1184.65 1029.32,1153.92 1031.3,1240.2 1033.29,1249.7 1035.27,1208.97 1037.26,1210.05 1039.24,1146.63 1041.22,1197.21 1043.21,1191.14 1045.19,1221.13 1047.18,1210.34 1049.16,1201.73 1051.14,1233.93 1053.13,1232.86 1055.11,1229.87 1057.1,1352.54 1059.08,1264.52 1061.07,1147.35 1063.05,1093.64 1065.03,1174.09 1067.02,1176.53 1069,1158.88 1070.99,1292.86 1072.97,1101.67 1074.95,1078.1 1076.94,1175.5 1078.92,1145.19 1080.91,1213.01 1082.89,1182.85 1084.88,1148.86 1086.86,1144.37 1088.84,1141.11 1090.83,1107.31 1092.81,1084.55 1094.8,1119.76 1096.78,1065.63 1098.76,1114.28 1100.75,1138.58 1102.73,1128.63 1104.72,1087.35 1106.7,1005.21 1108.69,1033.44 1110.67,1024.28 1112.65,1122.84 1114.64,988.85 1116.62,966.047 1118.61,1062.26 1120.59,1046.73 1122.57,978.208 1124.56,1051.77 1126.54,1021.44 1128.53,1005.22 1130.51,978.586 1132.5,1049.12 1134.48,1057.53 1136.46,964.308 1138.45,956.949 1140.43,942.467 1142.42,989.385 1144.4,912.725 1146.38,872.374 1148.37,936.464 1150.35,829.496 1152.34,913.393 1154.32,879.374 1156.3,856.289 1158.29,800.73 1160.27,939.683 1162.26,786.184 1164.24,858.482 1166.23,841.731 1168.21,890.245 1170.19,844.414 1172.18,779.872 1174.16,748.93 1176.15,753.423 1178.13,767.336 1180.11,706.788 1182.1,823.706 1184.08,741.012 1186.07,732.934 1188.05,684.13 1190.04,661.163 1192.02,586.168 1194,690.926 1195.99,668.807 1197.97,609.985 1199.96,610.551 1201.94,652.655 1203.92,666.905 1205.91,630.767 1207.89,549.954 1209.88,549.878 1211.86,620.207 1213.85,525.409 1215.83,518.153 1217.81,392.232 1219.8,532.751 1221.78,438.043 1223.77,552.76 1225.75,539.094 1227.73,440.786 1229.72,409.083 1231.7,310.374 1233.69,400.539 1235.67,436.499 1237.66,448.884 1239.64,463.782 1241.62,529.288 1243.61,379.614 1245.59,343.854 1247.58,359.031 1249.56,385.721 1251.54,271.4 1253.53,299.671 1255.51,448.018 1257.5,340.34 1259.48,387.172 1261.47,249.984 1263.45,286.125 1265.43,269.998 1267.42,287.094 1269.4,289.268 1271.39,204.361 1273.37,256.642 1275.35,229.63 1277.34,243.362 1279.32,207.144 1281.31,182.633 1283.29,240.435 1285.28,218.357 1287.26,141.941 1289.24,227.904 1291.23,240.457 1293.21,158.715 1295.2,223.659 1297.18,86.1857 1299.16,224.472 1301.15,145.893 1303.13,163.676 1305.12,357.383 1307.1,191.922 1309.09,226.423 1311.07,249.693 1313.05,295.171 1315.04,259.012 1317.02,270.215 1319.01,154.169 1320.99,241.208 1322.97,179.72 1324.96,237.397 1326.94,304.759 1328.93,250.576 1330.91,237.624 1332.9,165.436 1334.88,392.07 1336.86,185.556 1338.85,273.966 1340.83,346.842 1342.82,263.075 1344.8,357.1 1346.78,437.617 1348.77,351.412 1350.75,359.744 1352.74,263.652 1354.72,386.983 1356.71,394.924 1358.69,391.568 1360.67,386.642 1362.66,348.307 1364.64,407.565 1366.63,385.029 1368.61,407.792 1370.59,362.946 1372.58,533.401 1374.56,412.705 1376.55,412.739 1378.53,516.481 1380.52,497.955 1382.5,557.525 1384.48,466.83 1386.47,565.114 1388.45,521.809 1390.44,534.525 1392.42,616.838 1394.4,570.836 1396.39,550.055 1398.37,622.971 1400.36,637.955 1402.34,657.808 1404.33,624.219 1406.31,656.044 1408.29,600.124 1410.28,563.616 1412.26,694.185 1414.25,697.918 1416.23,621.089 1418.21,709.84 1420.2,710.99 1422.18,646.772 1424.17,630.151 1426.15,777.732 1428.14,756.663 1430.12,818.909 1432.1,820.468 1434.09,789.012 1436.07,884.555 1438.06,781.985 1440.04,883.856 1442.02,879.672 1444.01,825.989 1445.99,891.579 1447.98,940.683 1449.96,896.891 1451.95,889.466 1453.93,847.372 1455.91,907.182 1457.9,880.752 1459.88,1013.63 1461.87,972.258 1463.85,996.835 1465.83,960.867 1467.82,930.108 1469.8,946.066 1471.79,1025.86 1473.77,969.535 1475.76,964.117 1477.74,1006.21 1479.72,1062.15 1481.71,1004.11 1483.69,1072.68 1485.68,1042.56 1487.66,1048.78 1489.64,1125.47 1491.63,1089.79 1493.61,1121.23 1495.6,1009.59 1497.58,1085.91 1499.57,1036.87 1501.55,1095.69 1503.53,1209.64 1505.52,1100.53 1507.5,1155.25 1509.49,1039.2 1511.47,1286.71 1513.45,1237.49 1515.44,1101.26 1517.42,1090.44 1519.41,1137.71 1521.39,1217.25 1523.38,1147.81 1525.36,1182.05 1527.34,1184.45 1529.33,1163.53 1531.31,1183.75 1533.3,1136.5 1535.28,1263.7 1537.26,1215.5 1539.25,1112.21 1541.23,1264.98 1543.22,1096.42 1545.2,1158 1547.19,1288.69 1549.17,1181.01 1551.15,1230 1553.14,1185.12 1555.12,1306.39 1557.11,1186.98 1559.09,1225.74 1561.07,1128.25 1563.06,1226.98 1565.04,1169.44 1567.03,1314.26 1569.01,1195.78 1571,1211.68 1572.98,1212.02 1574.96,1218.29 1576.95,1155.63 1578.93,1262.25 1580.92,1280.57 1582.9,1273.62 1584.88,1189.78 1586.87,1128.59 1588.85,1144.95 1590.84,1077.47 1592.82,1212.6 1594.81,1217.49 1596.79,1290.27 1598.77,1299.02 1600.76,1161.6 1602.74,1250.19 1604.73,1275.18 1606.71,1306.13 1608.69,1239.08 1610.68,1254.33 1612.66,1218.23 1614.65,1313.93 1616.63,1176.36 1618.62,1305.64 1620.6,1180.82 1622.58,1272.21 1624.57,1246.96 1626.55,1211.84 1628.54,1246.94 1630.52,1287.11 1632.5,1215.74 1634.49,1269.95 1636.47,1338.99 1638.46,1165.43 1640.44,1192.35 1642.43,1257.74 1644.41,1233.44 1646.39,1269.18 1648.38,1264.76 1650.36,1302.03 1652.35,1255.08 1654.33,1198.93 1656.31,1288.33 1658.3,1279.47 1660.28,1337.9 1662.27,1261.48 1664.25,1214.73 1666.24,1317.71 1668.22,1291.39 1670.2,1252.67 1672.19,1227.84 1674.17,1215.54 1676.16,1181.56 1678.14,1266.26 1680.12,1321.08 1682.11,1285.79 1684.09,1303.9 1686.08,1376.85 1688.06,1237.79 1690.05,1228.61 1692.03,1298.71 1694.01,1224.08 1696,1195.44 1697.98,1267.9 1699.97,1292.87 1701.95,1214.78 1703.93,1251.84 1705.92,1174.33 1707.9,1171.64 1709.89,1226.49 1711.87,1273.85 1713.86,1263.91 1715.84,1197.33 1717.82,1232.55 1719.81,1276.12 1721.79,1275.51 1723.78,1195.93 1725.76,1192 1727.74,1253.5 1729.73,1254.49 1731.71,1251.32 1733.7,1218.95 1735.68,1228.49 1737.67,1223.97 1739.65,1209.64 1741.63,1167.28 1743.62,1195.12 1745.6,1227.78 1747.59,1233.29 1749.57,1238.29 1751.55,1200.72 1753.54,1200.63 1755.52,1283.26 1757.51,1241.64 1759.49,1349.39 1761.48,1268.11 1763.46,1227.78 1765.44,1283.24 1767.43,1203.64 1769.41,1276.33 1771.4,1313.1 1773.38,1160.45 1775.36,1307.95 1777.35,1095.33 1779.33,1196.6 1781.32,1230.43 1783.3,1223.09 1785.28,1239.36 1787.27,1325.7 1789.25,1258.74 1791.24,1262.57 1793.22,1324.51 1795.21,1193.65 1797.19,1193.97 1799.17,1197.39 1801.16,1280.56 1803.14,1160.84 1805.13,1276.76 1807.11,1262.64 1809.09,1284.17 1811.08,1332.89 1813.06,1286.18 1815.05,1180.84 1817.03,1270.88 1819.02,1279.3 1821,1218.85 1822.98,1240.14 1824.97,1204.47 1826.95,1230.4 1828.94,1282.82 1830.92,1176.4 1832.9,1285.77 1834.89,1208.05 1836.87,1152.03 1838.86,1210.37 1840.84,1232.97 1842.83,1249.22 1844.81,1207.11 1846.79,1166.89 1848.78,1225.58 1850.76,1298.56 1852.75,1302.5 1854.73,1303.06 1856.71,1201.61 1858.7,1247.24 1860.68,1322 1862.67,1186.92 1864.65,1233.83 1866.64,1242.58 1868.62,1287.25 1870.6,1201.01 1872.59,1238.82 1874.57,1287.73 1876.56,1359.23 1878.54,1336.25 1880.52,1323.88 1882.51,1213.95 1884.49,1231.1 1886.48,1214.69 1888.46,1166.21 1890.45,1212.96 1892.43,1306.16 1894.41,1236.42 1896.4,1255.22 1898.38,1251.16 1900.37,1366.14 1902.35,1167.47 1904.33,1224.14 1906.32,1237.7 1908.3,1359.11 1910.29,1283.91 1912.27,1221.06 1914.26,1329.82 1916.24,1232.23 1918.22,1251.1 1920.21,1200.52 1922.19,1198.46 1924.18,1312.55 1926.16,1193.31 1928.14,1180.03 1930.13,1256.47 1932.11,1348.83 1934.1,1223.23 1936.08,1194.25 1938.07,1240.49 1940.05,1177.48 1942.03,1146.92 1944.02,1285.24 1946,1305.29 1947.99,1279.91 1949.97,1109.66 1951.95,1244.36 1953.94,1230.33 1955.92,1279.85 1957.91,1216.25 1959.89,1337.69 1961.88,1281.94 1963.86,1204.34 1965.84,1298.82 1967.83,1235.04 1969.81,1258.88 1971.8,1285.58 1973.78,1302.9 1975.76,1179.03 1977.75,1254.17 1979.73,1260.43 1981.72,1257.51 1983.7,1332.47 1985.69,1268 1987.67,1258.01 1989.65,1283.32 1991.64,1225.72 1993.62,1198.68 1995.61,1291.33 1997.59,1251.76 1999.57,1212.18 2001.56,1220.37 2003.54,1299.2 2005.53,1243.25 2007.51,1133.28 2009.5,1233.33 2011.48,1301.89 2013.46,1193.21 2015.45,1303.76 2017.43,1300.87 2019.42,1212.7 2021.4,1309.15 2023.38,1281.9 2025.37,1236.21 2027.35,1344.63 2029.34,1240.74 2031.32,1252.05 2033.31,1211.2 2035.29,1214.8 2037.27,1335.11 2039.26,1224.4 2041.24,1158.62 2043.23,1173.88 2045.21,1361.19 2047.19,1228.74 2049.18,1277.46 2051.16,1297.8 2053.15,1241.64 2055.13,1266.54 2057.12,1225 2059.1,1189.4 2061.08,1272.39 2063.07,1222.3 2065.05,1238.34 2067.04,1269.86 2069.02,1266.06 2071,1230.99 2072.99,1348.95 2074.97,1251.19 2076.96,1257.48 2078.94,1282.84 2080.93,1250.63 2082.91,1248.89 2084.89,1173.94 2086.88,1196.84 2088.86,1182.78 2090.85,1144.58 2092.83,1284.95 2094.81,1149.07 2096.8,1243.45 2098.78,1251.04 2100.77,1264.73 2102.75,1257.33 2104.74,1172.62 2106.72,1292.82 2108.7,1207.67 2110.69,1296.76 2112.67,1285.35 2114.66,1195.95 2116.64,1224.87 2118.62,1339.19 2120.61,1181.39 2122.59,1238.1 2124.58,1330.78 2126.56,1275.93 2128.55,1332.19 2130.53,1299.16 2132.51,1128.81 2134.5,1223.27 2136.48,1318.22 2138.47,1131.41 2140.45,1297.76 2142.43,1182.36 2144.42,1312.17 2146.4,1328.73 2148.39,1160.65 2150.37,1221.63 2152.36,1218.04 2154.34,1365.59 2156.32,1252.16 2158.31,1325.2 2160.29,1185.07 2162.28,1277.42 2164.26,1185.55 2166.24,1265.83 2168.23,1293.64 2170.21,1284.73 2172.2,1305.41 2174.18,1277.19 2176.17,1261.2 2178.15,1214.53 2180.13,1258.03 2182.12,1199.58 2184.1,1323.41 2186.09,1222.51 2188.07,1273.67 2190.05,1180.32 2192.04,1248.21 2194.02,1199.2 2196.01,1209.65 2197.99,1183.97 2199.98,1249.95 2201.96,1123.91 2203.94,1289.51 2205.93,1219.02 2207.91,1291.45 2209.9,1275.62 2211.88,1303.89 2213.86,1265.86 2215.85,1259.04 2217.83,1164.55 2219.82,1268.34 2221.8,1295.6 2223.79,1296.63 2225.77,1209.83 2227.75,1299.86 2229.74,1266.55 2231.72,1230.77 2233.71,1245.36 2235.69,1273.34 2237.67,1213.8 2239.66,1200.49 2241.64,1299.66 2243.63,1261.27 2245.61,1257.58 2247.6,1319.46 2249.58,1260.33 2251.56,1318.31 2253.55,1246.04 2255.53,1334.31 2257.52,1256.72 2259.5,1194.99 2261.48,1222.99 2263.47,1268.65 2265.45,1141.08 2267.44,1270.21 2269.42,1260.14 2271.41,1157.04 2273.39,1228.57 2275.37,1198.55 2277.36,1195.59 2279.34,1199.24 2281.33,1230.72 2283.31,1269.03 2285.29,1290.22 2287.28,1259.47 2289.26,1240.49 2291.25,1277.57 2293.23,1283.19 "/>
<path clip-path="url(#clip000)" d="M1560.89 196.789 L2282.65 196.789 L2282.65 93.1086 L1560.89 93.1086  Z" fill="#ffffff" fill-rule="evenodd" fill-opacity="1"/>
<polyline clip-path="url(#clip000)" style="stroke:#000000; stroke-linecap:round; stroke-linejoin:round; stroke-width:4; stroke-opacity:1; fill:none" points="1560.89,196.789 2282.65,196.789 2282.65,93.1086 1560.89,93.1086 1560.89,196.789 "/>
<polyline clip-path="url(#clip000)" style="stroke:#009af9; stroke-linecap:round; stroke-linejoin:round; stroke-width:4; stroke-opacity:1; fill:none" points="1584.26,144.949 1724.48,144.949 "/>
<path clip-path="url(#clip000)" d="M1747.85 127.669 L1754.14 127.669 L1769.47 156.581 L1769.47 127.669 L1774 127.669 L1774 162.229 L1767.71 162.229 L1752.38 133.317 L1752.38 162.229 L1747.85 162.229 L1747.85 127.669 Z" fill="#000000" fill-rule="nonzero" fill-opacity="1" /><path clip-path="url(#clip000)" d="M1793.17 139.289 Q1789.75 139.289 1787.75 141.974 Q1785.76 144.636 1785.76 149.289 Q1785.76 153.942 1787.73 156.627 Q1789.72 159.289 1793.17 159.289 Q1796.57 159.289 1798.56 156.604 Q1800.56 153.918 1800.56 149.289 Q1800.56 144.682 1798.56 141.997 Q1796.57 139.289 1793.17 139.289 M1793.17 135.678 Q1798.73 135.678 1801.9 139.289 Q1805.07 142.9 1805.07 149.289 Q1805.07 155.655 1801.9 159.289 Q1798.73 162.9 1793.17 162.9 Q1787.59 162.9 1784.42 159.289 Q1781.27 155.655 1781.27 149.289 Q1781.27 142.9 1784.42 139.289 Q1787.59 135.678 1793.17 135.678 Z" fill="#000000" fill-rule="nonzero" fill-opacity="1" /><path clip-path="url(#clip000)" d="M1812.13 136.303 L1816.39 136.303 L1816.39 162.229 L1812.13 162.229 L1812.13 136.303 M1812.13 126.21 L1816.39 126.21 L1816.39 131.604 L1812.13 131.604 L1812.13 126.21 Z" fill="#000000" fill-rule="nonzero" fill-opacity="1" /><path clip-path="url(#clip000)" d="M1841.83 137.067 L1841.83 141.094 Q1840.02 140.169 1838.08 139.706 Q1836.13 139.243 1834.05 139.243 Q1830.88 139.243 1829.28 140.215 Q1827.71 141.187 1827.71 143.131 Q1827.71 144.613 1828.84 145.469 Q1829.98 146.303 1833.4 147.067 L1834.86 147.391 Q1839.4 148.363 1841.3 150.145 Q1843.22 151.905 1843.22 155.076 Q1843.22 158.687 1840.35 160.793 Q1837.5 162.9 1832.5 162.9 Q1830.42 162.9 1828.15 162.483 Q1825.9 162.09 1823.4 161.28 L1823.4 156.881 Q1825.76 158.108 1828.06 158.733 Q1830.35 159.335 1832.59 159.335 Q1835.6 159.335 1837.22 158.317 Q1838.84 157.275 1838.84 155.4 Q1838.84 153.664 1837.66 152.738 Q1836.5 151.812 1832.55 150.956 L1831.06 150.608 Q1827.11 149.775 1825.35 148.062 Q1823.59 146.326 1823.59 143.317 Q1823.59 139.659 1826.18 137.669 Q1828.77 135.678 1833.54 135.678 Q1835.9 135.678 1837.99 136.025 Q1840.07 136.372 1841.83 137.067 Z" fill="#000000" fill-rule="nonzero" fill-opacity="1" /><path clip-path="url(#clip000)" d="M1860.79 164.636 Q1858.98 169.266 1857.27 170.678 Q1855.56 172.09 1852.68 172.09 L1849.28 172.09 L1849.28 168.525 L1851.78 168.525 Q1853.54 168.525 1854.51 167.692 Q1855.49 166.858 1856.67 163.756 L1857.43 161.812 L1846.94 136.303 L1851.46 136.303 L1859.56 156.581 L1867.66 136.303 L1872.18 136.303 L1860.79 164.636 Z" fill="#000000" fill-rule="nonzero" fill-opacity="1" /><path clip-path="url(#clip000)" d="M1903.17 139.289 Q1899.74 139.289 1897.75 141.974 Q1895.76 144.636 1895.76 149.289 Q1895.76 153.942 1897.73 156.627 Q1899.72 159.289 1903.17 159.289 Q1906.57 159.289 1908.56 156.604 Q1910.55 153.918 1910.55 149.289 Q1910.55 144.682 1908.56 141.997 Q1906.57 139.289 1903.17 139.289 M1903.17 135.678 Q1908.73 135.678 1911.9 139.289 Q1915.07 142.9 1915.07 149.289 Q1915.07 155.655 1911.9 159.289 Q1908.73 162.9 1903.17 162.9 Q1897.59 162.9 1894.42 159.289 Q1891.27 155.655 1891.27 149.289 Q1891.27 142.9 1894.42 139.289 Q1897.59 135.678 1903.17 135.678 Z" fill="#000000" fill-rule="nonzero" fill-opacity="1" /><path clip-path="url(#clip000)" d="M1940.74 149.289 Q1940.74 144.59 1938.8 141.928 Q1936.87 139.243 1933.49 139.243 Q1930.11 139.243 1928.17 141.928 Q1926.25 144.59 1926.25 149.289 Q1926.25 153.988 1928.17 156.673 Q1930.11 159.335 1933.49 159.335 Q1936.87 159.335 1938.8 156.673 Q1940.74 153.988 1940.74 149.289 M1926.25 140.238 Q1927.59 137.923 1929.63 136.812 Q1931.69 135.678 1934.54 135.678 Q1939.26 135.678 1942.2 139.428 Q1945.16 143.178 1945.16 149.289 Q1945.16 155.4 1942.2 159.15 Q1939.26 162.9 1934.54 162.9 Q1931.69 162.9 1929.63 161.789 Q1927.59 160.655 1926.25 158.34 L1926.25 162.229 L1921.97 162.229 L1921.97 126.21 L1926.25 126.21 L1926.25 140.238 Z" fill="#000000" fill-rule="nonzero" fill-opacity="1" /><path clip-path="url(#clip000)" d="M1968.75 137.067 L1968.75 141.094 Q1966.94 140.169 1965 139.706 Q1963.05 139.243 1960.97 139.243 Q1957.8 139.243 1956.2 140.215 Q1954.63 141.187 1954.63 143.131 Q1954.63 144.613 1955.76 145.469 Q1956.9 146.303 1960.32 147.067 L1961.78 147.391 Q1966.32 148.363 1968.22 150.145 Q1970.14 151.905 1970.14 155.076 Q1970.14 158.687 1967.27 160.793 Q1964.42 162.9 1959.42 162.9 Q1957.34 162.9 1955.07 162.483 Q1952.82 162.09 1950.32 161.28 L1950.32 156.881 Q1952.68 158.108 1954.98 158.733 Q1957.27 159.335 1959.51 159.335 Q1962.52 159.335 1964.14 158.317 Q1965.76 157.275 1965.76 155.4 Q1965.76 153.664 1964.58 152.738 Q1963.42 151.812 1959.47 150.956 L1957.99 150.608 Q1954.03 149.775 1952.27 148.062 Q1950.51 146.326 1950.51 143.317 Q1950.51 139.659 1953.1 137.669 Q1955.69 135.678 1960.46 135.678 Q1962.82 135.678 1964.91 136.025 Q1966.99 136.372 1968.75 137.067 Z" fill="#000000" fill-rule="nonzero" fill-opacity="1" /><path clip-path="url(#clip000)" d="M1999.1 148.201 L1999.1 150.284 L1979.51 150.284 Q1979.79 154.682 1982.15 156.997 Q1984.54 159.289 1988.77 159.289 Q1991.23 159.289 1993.52 158.687 Q1995.83 158.085 1998.1 156.881 L1998.1 160.909 Q1995.81 161.881 1993.4 162.391 Q1990.99 162.9 1988.52 162.9 Q1982.31 162.9 1978.68 159.289 Q1975.07 155.678 1975.07 149.52 Q1975.07 143.155 1978.49 139.428 Q1981.94 135.678 1987.78 135.678 Q1993.01 135.678 1996.04 139.057 Q1999.1 142.414 1999.1 148.201 M1994.84 146.951 Q1994.79 143.456 1992.87 141.372 Q1990.97 139.289 1987.82 139.289 Q1984.26 139.289 1982.11 141.303 Q1979.98 143.317 1979.65 146.974 L1994.84 146.951 Z" fill="#000000" fill-rule="nonzero" fill-opacity="1" /><path clip-path="url(#clip000)" d="M2021.11 140.284 Q2020.39 139.868 2019.54 139.682 Q2018.7 139.474 2017.68 139.474 Q2014.07 139.474 2012.13 141.835 Q2010.21 144.173 2010.21 148.571 L2010.21 162.229 L2005.92 162.229 L2005.92 136.303 L2010.21 136.303 L2010.21 140.331 Q2011.55 137.969 2013.7 136.835 Q2015.86 135.678 2018.93 135.678 Q2019.37 135.678 2019.91 135.747 Q2020.44 135.794 2021.09 135.909 L2021.11 140.284 Z" fill="#000000" fill-rule="nonzero" fill-opacity="1" /><path clip-path="url(#clip000)" d="M2022.52 136.303 L2027.04 136.303 L2035.14 158.062 L2043.24 136.303 L2047.75 136.303 L2038.03 162.229 L2032.24 162.229 L2022.52 136.303 Z" fill="#000000" fill-rule="nonzero" fill-opacity="1" /><path clip-path="url(#clip000)" d="M2075.81 148.201 L2075.81 150.284 L2056.23 150.284 Q2056.5 154.682 2058.86 156.997 Q2061.25 159.289 2065.48 159.289 Q2067.94 159.289 2070.23 158.687 Q2072.54 158.085 2074.81 156.881 L2074.81 160.909 Q2072.52 161.881 2070.11 162.391 Q2067.71 162.9 2065.23 162.9 Q2059.03 162.9 2055.39 159.289 Q2051.78 155.678 2051.78 149.52 Q2051.78 143.155 2055.21 139.428 Q2058.66 135.678 2064.49 135.678 Q2069.72 135.678 2072.75 139.057 Q2075.81 142.414 2075.81 148.201 M2071.55 146.951 Q2071.5 143.456 2069.58 141.372 Q2067.68 139.289 2064.54 139.289 Q2060.97 139.289 2058.82 141.303 Q2056.69 143.317 2056.36 146.974 L2071.55 146.951 Z" fill="#000000" fill-rule="nonzero" fill-opacity="1" /><path clip-path="url(#clip000)" d="M2099.86 140.238 L2099.86 126.21 L2104.12 126.21 L2104.12 162.229 L2099.86 162.229 L2099.86 158.34 Q2098.52 160.655 2096.46 161.789 Q2094.42 162.9 2091.55 162.9 Q2086.85 162.9 2083.89 159.15 Q2080.95 155.4 2080.95 149.289 Q2080.95 143.178 2083.89 139.428 Q2086.85 135.678 2091.55 135.678 Q2094.42 135.678 2096.46 136.812 Q2098.52 137.923 2099.86 140.238 M2085.35 149.289 Q2085.35 153.988 2087.27 156.673 Q2089.21 159.335 2092.59 159.335 Q2095.97 159.335 2097.91 156.673 Q2099.86 153.988 2099.86 149.289 Q2099.86 144.59 2097.91 141.928 Q2095.97 139.243 2092.59 139.243 Q2089.21 139.243 2087.27 141.928 Q2085.35 144.59 2085.35 149.289 Z" fill="#000000" fill-rule="nonzero" fill-opacity="1" /><path clip-path="url(#clip000)" d="M2144.49 137.067 L2144.49 141.094 Q2142.68 140.169 2140.74 139.706 Q2138.79 139.243 2136.71 139.243 Q2133.54 139.243 2131.94 140.215 Q2130.37 141.187 2130.37 143.131 Q2130.37 144.613 2131.5 145.469 Q2132.64 146.303 2136.06 147.067 L2137.52 147.391 Q2142.06 148.363 2143.96 150.145 Q2145.88 151.905 2145.88 155.076 Q2145.88 158.687 2143.01 160.793 Q2140.16 162.9 2135.16 162.9 Q2133.08 162.9 2130.81 162.483 Q2128.56 162.09 2126.06 161.28 L2126.06 156.881 Q2128.42 158.108 2130.72 158.733 Q2133.01 159.335 2135.25 159.335 Q2138.26 159.335 2139.88 158.317 Q2141.5 157.275 2141.5 155.4 Q2141.5 153.664 2140.32 152.738 Q2139.16 151.812 2135.21 150.956 L2133.72 150.608 Q2129.77 149.775 2128.01 148.062 Q2126.25 146.326 2126.25 143.317 Q2126.25 139.659 2128.84 137.669 Q2131.43 135.678 2136.2 135.678 Q2138.56 135.678 2140.65 136.025 Q2142.73 136.372 2144.49 137.067 Z" fill="#000000" fill-rule="nonzero" fill-opacity="1" /><path clip-path="url(#clip000)" d="M2152.66 136.303 L2156.92 136.303 L2156.92 162.229 L2152.66 162.229 L2152.66 136.303 M2152.66 126.21 L2156.92 126.21 L2156.92 131.604 L2152.66 131.604 L2152.66 126.21 Z" fill="#000000" fill-rule="nonzero" fill-opacity="1" /><path clip-path="url(#clip000)" d="M2182.89 148.965 Q2182.89 144.335 2180.97 141.789 Q2179.07 139.243 2175.62 139.243 Q2172.2 139.243 2170.28 141.789 Q2168.38 144.335 2168.38 148.965 Q2168.38 153.571 2170.28 156.118 Q2172.2 158.664 2175.62 158.664 Q2179.07 158.664 2180.97 156.118 Q2182.89 153.571 2182.89 148.965 M2187.15 159.011 Q2187.15 165.631 2184.21 168.849 Q2181.27 172.09 2175.21 172.09 Q2172.96 172.09 2170.97 171.742 Q2168.98 171.418 2167.1 170.724 L2167.1 166.58 Q2168.98 167.599 2170.81 168.085 Q2172.64 168.571 2174.53 168.571 Q2178.72 168.571 2180.81 166.372 Q2182.89 164.196 2182.89 159.775 L2182.89 157.668 Q2181.57 159.96 2179.51 161.094 Q2177.45 162.229 2174.58 162.229 Q2169.81 162.229 2166.9 158.594 Q2163.98 154.96 2163.98 148.965 Q2163.98 142.946 2166.9 139.312 Q2169.81 135.678 2174.58 135.678 Q2177.45 135.678 2179.51 136.812 Q2181.57 137.946 2182.89 140.238 L2182.89 136.303 L2187.15 136.303 L2187.15 159.011 Z" fill="#000000" fill-rule="nonzero" fill-opacity="1" /><path clip-path="url(#clip000)" d="M2217.47 146.581 L2217.47 162.229 L2213.22 162.229 L2213.22 146.719 Q2213.22 143.039 2211.78 141.21 Q2210.34 139.382 2207.47 139.382 Q2204.03 139.382 2202.03 141.581 Q2200.04 143.78 2200.04 147.576 L2200.04 162.229 L2195.76 162.229 L2195.76 136.303 L2200.04 136.303 L2200.04 140.331 Q2201.57 137.993 2203.63 136.835 Q2205.72 135.678 2208.42 135.678 Q2212.89 135.678 2215.18 138.456 Q2217.47 141.21 2217.47 146.581 Z" fill="#000000" fill-rule="nonzero" fill-opacity="1" /><path clip-path="url(#clip000)" d="M2237.75 149.196 Q2232.59 149.196 2230.6 150.377 Q2228.61 151.557 2228.61 154.405 Q2228.61 156.673 2230.09 158.016 Q2231.59 159.335 2234.16 159.335 Q2237.71 159.335 2239.84 156.835 Q2241.99 154.312 2241.99 150.145 L2241.99 149.196 L2237.75 149.196 M2246.25 147.437 L2246.25 162.229 L2241.99 162.229 L2241.99 158.293 Q2240.53 160.655 2238.35 161.789 Q2236.18 162.9 2233.03 162.9 Q2229.05 162.9 2226.69 160.678 Q2224.35 158.432 2224.35 154.682 Q2224.35 150.307 2227.27 148.085 Q2230.21 145.863 2236.02 145.863 L2241.99 145.863 L2241.99 145.446 Q2241.99 142.507 2240.04 140.909 Q2238.12 139.289 2234.63 139.289 Q2232.4 139.289 2230.3 139.821 Q2228.19 140.354 2226.25 141.419 L2226.25 137.483 Q2228.59 136.581 2230.78 136.141 Q2232.98 135.678 2235.07 135.678 Q2240.69 135.678 2243.47 138.594 Q2246.25 141.511 2246.25 147.437 Z" fill="#000000" fill-rule="nonzero" fill-opacity="1" /><path clip-path="url(#clip000)" d="M2255.02 126.21 L2259.28 126.21 L2259.28 162.229 L2255.02 162.229 L2255.02 126.21 Z" fill="#000000" fill-rule="nonzero" fill-opacity="1" /></svg>
