<?xml version="1.0" encoding="utf-8"?>
<svg xmlns="http://www.w3.org/2000/svg" xmlns:xlink="http://www.w3.org/1999/xlink" width="600" height="400" viewBox="0 0 2400 1600">
<defs>
  <clipPath id="clip030">
    <rect x="0" y="0" width="2400" height="1600"/>
  </clipPath>
</defs>
<path clip-path="url(#clip030)" d="M0 1600 L2400 1600 L2400 0 L0 0  Z" fill="#ffffff" fill-rule="evenodd" fill-opacity="1"/>
<defs>
  <clipPath id="clip031">
    <rect x="480" y="0" width="1681" height="1600"/>
  </clipPath>
</defs>
<path clip-path="url(#clip030)" d="M186.274 1486.45 L2352.76 1486.45 L2352.76 47.2441 L186.274 47.2441  Z" fill="#ffffff" fill-rule="evenodd" fill-opacity="1"/>
<defs>
  <clipPath id="clip032">
    <rect x="186" y="47" width="2167" height="1440"/>
  </clipPath>
</defs>
<polyline clip-path="url(#clip032)" style="stroke:#000000; stroke-linecap:round; stroke-linejoin:round; stroke-width:2; stroke-opacity:0.1; fill:none" points="247.59,1486.45 247.59,47.2441 "/>
<polyline clip-path="url(#clip032)" style="stroke:#000000; stroke-linecap:round; stroke-linejoin:round; stroke-width:2; stroke-opacity:0.1; fill:none" points="758.552,1486.45 758.552,47.2441 "/>
<polyline clip-path="url(#clip032)" style="stroke:#000000; stroke-linecap:round; stroke-linejoin:round; stroke-width:2; stroke-opacity:0.1; fill:none" points="1269.51,1486.45 1269.51,47.2441 "/>
<polyline clip-path="url(#clip032)" style="stroke:#000000; stroke-linecap:round; stroke-linejoin:round; stroke-width:2; stroke-opacity:0.1; fill:none" points="1780.48,1486.45 1780.48,47.2441 "/>
<polyline clip-path="url(#clip032)" style="stroke:#000000; stroke-linecap:round; stroke-linejoin:round; stroke-width:2; stroke-opacity:0.1; fill:none" points="2291.44,1486.45 2291.44,47.2441 "/>
<polyline clip-path="url(#clip032)" style="stroke:#000000; stroke-linecap:round; stroke-linejoin:round; stroke-width:2; stroke-opacity:0.1; fill:none" points="186.274,1302.79 2352.76,1302.79 "/>
<polyline clip-path="url(#clip032)" style="stroke:#000000; stroke-linecap:round; stroke-linejoin:round; stroke-width:2; stroke-opacity:0.1; fill:none" points="186.274,1034.92 2352.76,1034.92 "/>
<polyline clip-path="url(#clip032)" style="stroke:#000000; stroke-linecap:round; stroke-linejoin:round; stroke-width:2; stroke-opacity:0.1; fill:none" points="186.274,767.062 2352.76,767.062 "/>
<polyline clip-path="url(#clip032)" style="stroke:#000000; stroke-linecap:round; stroke-linejoin:round; stroke-width:2; stroke-opacity:0.1; fill:none" points="186.274,499.2 2352.76,499.2 "/>
<polyline clip-path="url(#clip032)" style="stroke:#000000; stroke-linecap:round; stroke-linejoin:round; stroke-width:2; stroke-opacity:0.1; fill:none" points="186.274,231.337 2352.76,231.337 "/>
<polyline clip-path="url(#clip030)" style="stroke:#000000; stroke-linecap:round; stroke-linejoin:round; stroke-width:4; stroke-opacity:1; fill:none" points="186.274,1486.45 2352.76,1486.45 "/>
<polyline clip-path="url(#clip030)" style="stroke:#000000; stroke-linecap:round; stroke-linejoin:round; stroke-width:4; stroke-opacity:1; fill:none" points="247.59,1486.45 247.59,1467.55 "/>
<polyline clip-path="url(#clip030)" style="stroke:#000000; stroke-linecap:round; stroke-linejoin:round; stroke-width:4; stroke-opacity:1; fill:none" points="758.552,1486.45 758.552,1467.55 "/>
<polyline clip-path="url(#clip030)" style="stroke:#000000; stroke-linecap:round; stroke-linejoin:round; stroke-width:4; stroke-opacity:1; fill:none" points="1269.51,1486.45 1269.51,1467.55 "/>
<polyline clip-path="url(#clip030)" style="stroke:#000000; stroke-linecap:round; stroke-linejoin:round; stroke-width:4; stroke-opacity:1; fill:none" points="1780.48,1486.45 1780.48,1467.55 "/>
<polyline clip-path="url(#clip030)" style="stroke:#000000; stroke-linecap:round; stroke-linejoin:round; stroke-width:4; stroke-opacity:1; fill:none" points="2291.44,1486.45 2291.44,1467.55 "/>
<path clip-path="url(#clip030)" d="M247.59 1517.37 Q243.978 1517.37 242.15 1520.93 Q240.344 1524.47 240.344 1531.6 Q240.344 1538.71 242.15 1542.27 Q243.978 1545.82 247.59 1545.82 Q251.224 1545.82 253.029 1542.27 Q254.858 1538.71 254.858 1531.6 Q254.858 1524.47 253.029 1520.93 Q251.224 1517.37 247.59 1517.37 M247.59 1513.66 Q253.4 1513.66 256.455 1518.27 Q259.534 1522.85 259.534 1531.6 Q259.534 1540.33 256.455 1544.94 Q253.4 1549.52 247.59 1549.52 Q241.779 1549.52 238.701 1544.94 Q235.645 1540.33 235.645 1531.6 Q235.645 1522.85 238.701 1518.27 Q241.779 1513.66 247.59 1513.66 Z" fill="#000000" fill-rule="nonzero" fill-opacity="1" /><path clip-path="url(#clip030)" d="M737.823 1544.91 L754.143 1544.91 L754.143 1548.85 L732.198 1548.85 L732.198 1544.91 Q734.86 1542.16 739.444 1537.53 Q744.05 1532.88 745.231 1531.53 Q747.476 1529.01 748.356 1527.27 Q749.258 1525.51 749.258 1523.82 Q749.258 1521.07 747.314 1519.33 Q745.393 1517.6 742.291 1517.6 Q740.092 1517.6 737.638 1518.36 Q735.207 1519.13 732.43 1520.68 L732.43 1515.95 Q735.254 1514.82 737.707 1514.24 Q740.161 1513.66 742.198 1513.66 Q747.569 1513.66 750.763 1516.35 Q753.957 1519.03 753.957 1523.52 Q753.957 1525.65 753.147 1527.57 Q752.36 1529.47 750.254 1532.07 Q749.675 1532.74 746.573 1535.95 Q743.471 1539.15 737.823 1544.91 Z" fill="#000000" fill-rule="nonzero" fill-opacity="1" /><path clip-path="url(#clip030)" d="M764.004 1514.29 L782.36 1514.29 L782.36 1518.22 L768.286 1518.22 L768.286 1526.7 Q769.304 1526.35 770.323 1526.19 Q771.342 1526 772.36 1526 Q778.147 1526 781.527 1529.17 Q784.906 1532.34 784.906 1537.76 Q784.906 1543.34 781.434 1546.44 Q777.962 1549.52 771.642 1549.52 Q769.467 1549.52 767.198 1549.15 Q764.953 1548.78 762.545 1548.04 L762.545 1543.34 Q764.629 1544.47 766.851 1545.03 Q769.073 1545.58 771.55 1545.58 Q775.554 1545.58 777.892 1543.48 Q780.23 1541.37 780.23 1537.76 Q780.23 1534.15 777.892 1532.04 Q775.554 1529.94 771.55 1529.94 Q769.675 1529.94 767.8 1530.35 Q765.948 1530.77 764.004 1531.65 L764.004 1514.29 Z" fill="#000000" fill-rule="nonzero" fill-opacity="1" /><path clip-path="url(#clip030)" d="M1244.21 1514.29 L1262.57 1514.29 L1262.57 1518.22 L1248.5 1518.22 L1248.5 1526.7 Q1249.52 1526.35 1250.53 1526.19 Q1251.55 1526 1252.57 1526 Q1258.36 1526 1261.74 1529.17 Q1265.12 1532.34 1265.12 1537.76 Q1265.12 1543.34 1261.64 1546.44 Q1258.17 1549.52 1251.85 1549.52 Q1249.68 1549.52 1247.41 1549.15 Q1245.16 1548.78 1242.76 1548.04 L1242.76 1543.34 Q1244.84 1544.47 1247.06 1545.03 Q1249.28 1545.58 1251.76 1545.58 Q1255.77 1545.58 1258.1 1543.48 Q1260.44 1541.37 1260.44 1537.76 Q1260.44 1534.15 1258.1 1532.04 Q1255.77 1529.94 1251.76 1529.94 Q1249.89 1529.94 1248.01 1530.35 Q1246.16 1530.77 1244.21 1531.65 L1244.21 1514.29 Z" fill="#000000" fill-rule="nonzero" fill-opacity="1" /><path clip-path="url(#clip030)" d="M1284.33 1517.37 Q1280.72 1517.37 1278.89 1520.93 Q1277.08 1524.47 1277.08 1531.6 Q1277.08 1538.71 1278.89 1542.27 Q1280.72 1545.82 1284.33 1545.82 Q1287.96 1545.82 1289.77 1542.27 Q1291.6 1538.71 1291.6 1531.6 Q1291.6 1524.47 1289.77 1520.93 Q1287.96 1517.37 1284.33 1517.37 M1284.33 1513.66 Q1290.14 1513.66 1293.2 1518.27 Q1296.27 1522.85 1296.27 1531.6 Q1296.27 1540.33 1293.2 1544.94 Q1290.14 1549.52 1284.33 1549.52 Q1278.52 1549.52 1275.44 1544.94 Q1272.39 1540.33 1272.39 1531.6 Q1272.39 1522.85 1275.44 1518.27 Q1278.52 1513.66 1284.33 1513.66 Z" fill="#000000" fill-rule="nonzero" fill-opacity="1" /><path clip-path="url(#clip030)" d="M1754.33 1514.29 L1776.55 1514.29 L1776.55 1516.28 L1764.01 1548.85 L1759.12 1548.85 L1770.93 1518.22 L1754.33 1518.22 L1754.33 1514.29 Z" fill="#000000" fill-rule="nonzero" fill-opacity="1" /><path clip-path="url(#clip030)" d="M1785.72 1514.29 L1804.08 1514.29 L1804.08 1518.22 L1790 1518.22 L1790 1526.7 Q1791.02 1526.35 1792.04 1526.19 Q1793.06 1526 1794.08 1526 Q1799.86 1526 1803.24 1529.17 Q1806.62 1532.34 1806.62 1537.76 Q1806.62 1543.34 1803.15 1546.44 Q1799.68 1549.52 1793.36 1549.52 Q1791.18 1549.52 1788.92 1549.15 Q1786.67 1548.78 1784.26 1548.04 L1784.26 1543.34 Q1786.35 1544.47 1788.57 1545.03 Q1790.79 1545.58 1793.27 1545.58 Q1797.27 1545.58 1799.61 1543.48 Q1801.95 1541.37 1801.95 1537.76 Q1801.95 1534.15 1799.61 1532.04 Q1797.27 1529.94 1793.27 1529.94 Q1791.39 1529.94 1789.52 1530.35 Q1787.67 1530.77 1785.72 1531.65 L1785.72 1514.29 Z" fill="#000000" fill-rule="nonzero" fill-opacity="1" /><path clip-path="url(#clip030)" d="M2251.05 1544.91 L2258.69 1544.91 L2258.69 1518.55 L2250.38 1520.21 L2250.38 1515.95 L2258.64 1514.29 L2263.32 1514.29 L2263.32 1544.91 L2270.95 1544.91 L2270.95 1548.85 L2251.05 1548.85 L2251.05 1544.91 Z" fill="#000000" fill-rule="nonzero" fill-opacity="1" /><path clip-path="url(#clip030)" d="M2290.4 1517.37 Q2286.79 1517.37 2284.96 1520.93 Q2283.15 1524.47 2283.15 1531.6 Q2283.15 1538.71 2284.96 1542.27 Q2286.79 1545.82 2290.4 1545.82 Q2294.03 1545.82 2295.84 1542.27 Q2297.67 1538.71 2297.67 1531.6 Q2297.67 1524.47 2295.84 1520.93 Q2294.03 1517.37 2290.4 1517.37 M2290.4 1513.66 Q2296.21 1513.66 2299.26 1518.27 Q2302.34 1522.85 2302.34 1531.6 Q2302.34 1540.33 2299.26 1544.94 Q2296.21 1549.52 2290.4 1549.52 Q2284.59 1549.52 2281.51 1544.94 Q2278.45 1540.33 2278.45 1531.6 Q2278.45 1522.85 2281.51 1518.27 Q2284.59 1513.66 2290.4 1513.66 Z" fill="#000000" fill-rule="nonzero" fill-opacity="1" /><path clip-path="url(#clip030)" d="M2320.56 1517.37 Q2316.95 1517.37 2315.12 1520.93 Q2313.32 1524.47 2313.32 1531.6 Q2313.32 1538.71 2315.12 1542.27 Q2316.95 1545.82 2320.56 1545.82 Q2324.19 1545.82 2326 1542.27 Q2327.83 1538.71 2327.83 1531.6 Q2327.83 1524.47 2326 1520.93 Q2324.19 1517.37 2320.56 1517.37 M2320.56 1513.66 Q2326.37 1513.66 2329.43 1518.27 Q2332.5 1522.85 2332.5 1531.6 Q2332.5 1540.33 2329.43 1544.94 Q2326.37 1549.52 2320.56 1549.52 Q2314.75 1549.52 2311.67 1544.94 Q2308.62 1540.33 2308.62 1531.6 Q2308.62 1522.85 2311.67 1518.27 Q2314.75 1513.66 2320.56 1513.66 Z" fill="#000000" fill-rule="nonzero" fill-opacity="1" /><polyline clip-path="url(#clip030)" style="stroke:#000000; stroke-linecap:round; stroke-linejoin:round; stroke-width:4; stroke-opacity:1; fill:none" points="186.274,1486.45 186.274,47.2441 "/>
<polyline clip-path="url(#clip030)" style="stroke:#000000; stroke-linecap:round; stroke-linejoin:round; stroke-width:4; stroke-opacity:1; fill:none" points="186.274,1302.79 205.172,1302.79 "/>
<polyline clip-path="url(#clip030)" style="stroke:#000000; stroke-linecap:round; stroke-linejoin:round; stroke-width:4; stroke-opacity:1; fill:none" points="186.274,1034.92 205.172,1034.92 "/>
<polyline clip-path="url(#clip030)" style="stroke:#000000; stroke-linecap:round; stroke-linejoin:round; stroke-width:4; stroke-opacity:1; fill:none" points="186.274,767.062 205.172,767.062 "/>
<polyline clip-path="url(#clip030)" style="stroke:#000000; stroke-linecap:round; stroke-linejoin:round; stroke-width:4; stroke-opacity:1; fill:none" points="186.274,499.2 205.172,499.2 "/>
<polyline clip-path="url(#clip030)" style="stroke:#000000; stroke-linecap:round; stroke-linejoin:round; stroke-width:4; stroke-opacity:1; fill:none" points="186.274,231.337 205.172,231.337 "/>
<path clip-path="url(#clip030)" d="M62.9365 1288.59 Q59.3254 1288.59 57.4967 1292.15 Q55.6912 1295.69 55.6912 1302.82 Q55.6912 1309.93 57.4967 1313.49 Q59.3254 1317.03 62.9365 1317.03 Q66.5707 1317.03 68.3763 1313.49 Q70.205 1309.93 70.205 1302.82 Q70.205 1295.69 68.3763 1292.15 Q66.5707 1288.59 62.9365 1288.59 M62.9365 1284.88 Q68.7467 1284.88 71.8022 1289.49 Q74.8809 1294.07 74.8809 1302.82 Q74.8809 1311.55 71.8022 1316.15 Q68.7467 1320.74 62.9365 1320.74 Q57.1264 1320.74 54.0477 1316.15 Q50.9921 1311.55 50.9921 1302.82 Q50.9921 1294.07 54.0477 1289.49 Q57.1264 1284.88 62.9365 1284.88 Z" fill="#000000" fill-rule="nonzero" fill-opacity="1" /><path clip-path="url(#clip030)" d="M83.0984 1314.19 L87.9827 1314.19 L87.9827 1320.07 L83.0984 1320.07 L83.0984 1314.19 Z" fill="#000000" fill-rule="nonzero" fill-opacity="1" /><path clip-path="url(#clip030)" d="M108.168 1288.59 Q104.557 1288.59 102.728 1292.15 Q100.922 1295.69 100.922 1302.82 Q100.922 1309.93 102.728 1313.49 Q104.557 1317.03 108.168 1317.03 Q111.802 1317.03 113.608 1313.49 Q115.436 1309.93 115.436 1302.82 Q115.436 1295.69 113.608 1292.15 Q111.802 1288.59 108.168 1288.59 M108.168 1284.88 Q113.978 1284.88 117.033 1289.49 Q120.112 1294.07 120.112 1302.82 Q120.112 1311.55 117.033 1316.15 Q113.978 1320.74 108.168 1320.74 Q102.358 1320.74 99.2789 1316.15 Q96.2234 1311.55 96.2234 1302.82 Q96.2234 1294.07 99.2789 1289.49 Q102.358 1284.88 108.168 1284.88 Z" fill="#000000" fill-rule="nonzero" fill-opacity="1" /><path clip-path="url(#clip030)" d="M138.33 1288.59 Q134.719 1288.59 132.89 1292.15 Q131.084 1295.69 131.084 1302.82 Q131.084 1309.93 132.89 1313.49 Q134.719 1317.03 138.33 1317.03 Q141.964 1317.03 143.769 1313.49 Q145.598 1309.93 145.598 1302.82 Q145.598 1295.69 143.769 1292.15 Q141.964 1288.59 138.33 1288.59 M138.33 1284.88 Q144.14 1284.88 147.195 1289.49 Q150.274 1294.07 150.274 1302.82 Q150.274 1311.55 147.195 1316.15 Q144.14 1320.74 138.33 1320.74 Q132.519 1320.74 129.441 1316.15 Q126.385 1311.55 126.385 1302.82 Q126.385 1294.07 129.441 1289.49 Q132.519 1284.88 138.33 1284.88 Z" fill="#000000" fill-rule="nonzero" fill-opacity="1" /><path clip-path="url(#clip030)" d="M63.9319 1020.72 Q60.3208 1020.72 58.4921 1024.29 Q56.6865 1027.83 56.6865 1034.96 Q56.6865 1042.07 58.4921 1045.63 Q60.3208 1049.17 63.9319 1049.17 Q67.5661 1049.17 69.3717 1045.63 Q71.2004 1042.07 71.2004 1034.96 Q71.2004 1027.83 69.3717 1024.29 Q67.5661 1020.72 63.9319 1020.72 M63.9319 1017.02 Q69.742 1017.02 72.7976 1021.63 Q75.8763 1026.21 75.8763 1034.96 Q75.8763 1043.69 72.7976 1048.29 Q69.742 1052.88 63.9319 1052.88 Q58.1217 1052.88 55.043 1048.29 Q51.9875 1043.69 51.9875 1034.96 Q51.9875 1026.21 55.043 1021.63 Q58.1217 1017.02 63.9319 1017.02 Z" fill="#000000" fill-rule="nonzero" fill-opacity="1" /><path clip-path="url(#clip030)" d="M84.0938 1046.32 L88.978 1046.32 L88.978 1052.2 L84.0938 1052.2 L84.0938 1046.32 Z" fill="#000000" fill-rule="nonzero" fill-opacity="1" /><path clip-path="url(#clip030)" d="M103.191 1048.27 L119.51 1048.27 L119.51 1052.2 L97.566 1052.2 L97.566 1048.27 Q100.228 1045.51 104.811 1040.89 Q109.418 1036.23 110.598 1034.89 Q112.844 1032.37 113.723 1030.63 Q114.626 1028.87 114.626 1027.18 Q114.626 1024.43 112.682 1022.69 Q110.76 1020.95 107.658 1020.95 Q105.459 1020.95 103.006 1021.72 Q100.575 1022.48 97.7974 1024.03 L97.7974 1019.31 Q100.621 1018.18 103.075 1017.6 Q105.529 1017.02 107.566 1017.02 Q112.936 1017.02 116.131 1019.7 Q119.325 1022.39 119.325 1026.88 Q119.325 1029.01 118.515 1030.93 Q117.728 1032.83 115.621 1035.42 Q115.043 1036.09 111.941 1039.31 Q108.839 1042.51 103.191 1048.27 Z" fill="#000000" fill-rule="nonzero" fill-opacity="1" /><path clip-path="url(#clip030)" d="M129.371 1017.64 L147.728 1017.64 L147.728 1021.58 L133.654 1021.58 L133.654 1030.05 Q134.672 1029.7 135.691 1029.54 Q136.709 1029.36 137.728 1029.36 Q143.515 1029.36 146.894 1032.53 Q150.274 1035.7 150.274 1041.12 Q150.274 1046.7 146.802 1049.8 Q143.33 1052.88 137.01 1052.88 Q134.834 1052.88 132.566 1052.51 Q130.32 1052.14 127.913 1051.39 L127.913 1046.7 Q129.996 1047.83 132.219 1048.39 Q134.441 1048.94 136.918 1048.94 Q140.922 1048.94 143.26 1046.83 Q145.598 1044.73 145.598 1041.12 Q145.598 1037.51 143.26 1035.4 Q140.922 1033.29 136.918 1033.29 Q135.043 1033.29 133.168 1033.71 Q131.316 1034.13 129.371 1035.01 L129.371 1017.64 Z" fill="#000000" fill-rule="nonzero" fill-opacity="1" /><path clip-path="url(#clip030)" d="M62.9365 752.861 Q59.3254 752.861 57.4967 756.426 Q55.6912 759.967 55.6912 767.097 Q55.6912 774.203 57.4967 777.768 Q59.3254 781.31 62.9365 781.31 Q66.5707 781.31 68.3763 777.768 Q70.205 774.203 70.205 767.097 Q70.205 759.967 68.3763 756.426 Q66.5707 752.861 62.9365 752.861 M62.9365 749.157 Q68.7467 749.157 71.8022 753.764 Q74.8809 758.347 74.8809 767.097 Q74.8809 775.824 71.8022 780.43 Q68.7467 785.014 62.9365 785.014 Q57.1264 785.014 54.0477 780.43 Q50.9921 775.824 50.9921 767.097 Q50.9921 758.347 54.0477 753.764 Q57.1264 749.157 62.9365 749.157 Z" fill="#000000" fill-rule="nonzero" fill-opacity="1" /><path clip-path="url(#clip030)" d="M83.0984 778.463 L87.9827 778.463 L87.9827 784.342 L83.0984 784.342 L83.0984 778.463 Z" fill="#000000" fill-rule="nonzero" fill-opacity="1" /><path clip-path="url(#clip030)" d="M98.2141 749.782 L116.57 749.782 L116.57 753.717 L102.496 753.717 L102.496 762.19 Q103.515 761.842 104.534 761.68 Q105.552 761.495 106.571 761.495 Q112.358 761.495 115.737 764.666 Q119.117 767.838 119.117 773.254 Q119.117 778.833 115.645 781.935 Q112.172 785.014 105.853 785.014 Q103.677 785.014 101.409 784.643 Q99.1632 784.273 96.7558 783.532 L96.7558 778.833 Q98.8391 779.967 101.061 780.523 Q103.284 781.078 105.76 781.078 Q109.765 781.078 112.103 778.972 Q114.441 776.865 114.441 773.254 Q114.441 769.643 112.103 767.537 Q109.765 765.43 105.76 765.43 Q103.885 765.43 102.01 765.847 Q100.159 766.264 98.2141 767.143 L98.2141 749.782 Z" fill="#000000" fill-rule="nonzero" fill-opacity="1" /><path clip-path="url(#clip030)" d="M138.33 752.861 Q134.719 752.861 132.89 756.426 Q131.084 759.967 131.084 767.097 Q131.084 774.203 132.89 777.768 Q134.719 781.31 138.33 781.31 Q141.964 781.31 143.769 777.768 Q145.598 774.203 145.598 767.097 Q145.598 759.967 143.769 756.426 Q141.964 752.861 138.33 752.861 M138.33 749.157 Q144.14 749.157 147.195 753.764 Q150.274 758.347 150.274 767.097 Q150.274 775.824 147.195 780.43 Q144.14 785.014 138.33 785.014 Q132.519 785.014 129.441 780.43 Q126.385 775.824 126.385 767.097 Q126.385 758.347 129.441 753.764 Q132.519 749.157 138.33 749.157 Z" fill="#000000" fill-rule="nonzero" fill-opacity="1" /><path clip-path="url(#clip030)" d="M63.9319 484.999 Q60.3208 484.999 58.4921 488.563 Q56.6865 492.105 56.6865 499.235 Q56.6865 506.341 58.4921 509.906 Q60.3208 513.447 63.9319 513.447 Q67.5661 513.447 69.3717 509.906 Q71.2004 506.341 71.2004 499.235 Q71.2004 492.105 69.3717 488.563 Q67.5661 484.999 63.9319 484.999 M63.9319 481.295 Q69.742 481.295 72.7976 485.901 Q75.8763 490.485 75.8763 499.235 Q75.8763 507.961 72.7976 512.568 Q69.742 517.151 63.9319 517.151 Q58.1217 517.151 55.043 512.568 Q51.9875 507.961 51.9875 499.235 Q51.9875 490.485 55.043 485.901 Q58.1217 481.295 63.9319 481.295 Z" fill="#000000" fill-rule="nonzero" fill-opacity="1" /><path clip-path="url(#clip030)" d="M84.0938 510.6 L88.978 510.6 L88.978 516.48 L84.0938 516.48 L84.0938 510.6 Z" fill="#000000" fill-rule="nonzero" fill-opacity="1" /><path clip-path="url(#clip030)" d="M97.9826 481.92 L120.205 481.92 L120.205 483.911 L107.658 516.48 L102.774 516.48 L114.58 485.855 L97.9826 485.855 L97.9826 481.92 Z" fill="#000000" fill-rule="nonzero" fill-opacity="1" /><path clip-path="url(#clip030)" d="M129.371 481.92 L147.728 481.92 L147.728 485.855 L133.654 485.855 L133.654 494.327 Q134.672 493.98 135.691 493.818 Q136.709 493.633 137.728 493.633 Q143.515 493.633 146.894 496.804 Q150.274 499.975 150.274 505.392 Q150.274 510.971 146.802 514.072 Q143.33 517.151 137.01 517.151 Q134.834 517.151 132.566 516.781 Q130.32 516.41 127.913 515.67 L127.913 510.971 Q129.996 512.105 132.219 512.66 Q134.441 513.216 136.918 513.216 Q140.922 513.216 143.26 511.109 Q145.598 509.003 145.598 505.392 Q145.598 501.781 143.26 499.674 Q140.922 497.568 136.918 497.568 Q135.043 497.568 133.168 497.985 Q131.316 498.401 129.371 499.281 L129.371 481.92 Z" fill="#000000" fill-rule="nonzero" fill-opacity="1" /><path clip-path="url(#clip030)" d="M53.7467 244.682 L61.3856 244.682 L61.3856 218.317 L53.0754 219.983 L53.0754 215.724 L61.3393 214.057 L66.0152 214.057 L66.0152 244.682 L73.654 244.682 L73.654 248.617 L53.7467 248.617 L53.7467 244.682 Z" fill="#000000" fill-rule="nonzero" fill-opacity="1" /><path clip-path="url(#clip030)" d="M83.0984 242.738 L87.9827 242.738 L87.9827 248.617 L83.0984 248.617 L83.0984 242.738 Z" fill="#000000" fill-rule="nonzero" fill-opacity="1" /><path clip-path="url(#clip030)" d="M108.168 217.136 Q104.557 217.136 102.728 220.701 Q100.922 224.243 100.922 231.372 Q100.922 238.479 102.728 242.043 Q104.557 245.585 108.168 245.585 Q111.802 245.585 113.608 242.043 Q115.436 238.479 115.436 231.372 Q115.436 224.243 113.608 220.701 Q111.802 217.136 108.168 217.136 M108.168 213.432 Q113.978 213.432 117.033 218.039 Q120.112 222.622 120.112 231.372 Q120.112 240.099 117.033 244.705 Q113.978 249.289 108.168 249.289 Q102.358 249.289 99.2789 244.705 Q96.2234 240.099 96.2234 231.372 Q96.2234 222.622 99.2789 218.039 Q102.358 213.432 108.168 213.432 Z" fill="#000000" fill-rule="nonzero" fill-opacity="1" /><path clip-path="url(#clip030)" d="M138.33 217.136 Q134.719 217.136 132.89 220.701 Q131.084 224.243 131.084 231.372 Q131.084 238.479 132.89 242.043 Q134.719 245.585 138.33 245.585 Q141.964 245.585 143.769 242.043 Q145.598 238.479 145.598 231.372 Q145.598 224.243 143.769 220.701 Q141.964 217.136 138.33 217.136 M138.33 213.432 Q144.14 213.432 147.195 218.039 Q150.274 222.622 150.274 231.372 Q150.274 240.099 147.195 244.705 Q144.14 249.289 138.33 249.289 Q132.519 249.289 129.441 244.705 Q126.385 240.099 126.385 231.372 Q126.385 222.622 129.441 218.039 Q132.519 213.432 138.33 213.432 Z" fill="#000000" fill-rule="nonzero" fill-opacity="1" /><polyline clip-path="url(#clip032)" style="stroke:#000000; stroke-linecap:round; stroke-linejoin:round; stroke-width:8; stroke-opacity:1; fill:none" points="247.59,1303.29 249.633,1379.91 251.677,1274.05 253.721,1285.11 255.765,1284.28 257.809,1279.4 259.853,1247.8 261.896,1307.1 263.94,1332.73 265.984,1294.94 268.028,1236.66 270.072,1345.6 272.116,1251.95 274.16,1380.5 276.203,1331.07 278.247,1427.71 280.291,1306.72 282.335,1344.99 284.379,1370.93 286.423,1303.35 288.467,1240.16 290.51,1298.27 292.554,1275.57 294.598,1405.07 296.642,1215.34 298.686,1344.2 300.73,1243.6 302.774,1352.01 304.817,1345.57 306.861,1365.99 308.905,1209.13 310.949,1336.31 312.993,1211.77 315.037,1344.93 317.08,1294.98 319.124,1221.24 321.168,1255.49 323.212,1290.39 325.256,1298.44 327.3,1334.73 329.344,1381.53 331.387,1372.59 333.431,1263.47 335.475,1357.05 337.519,1365.52 339.563,1275.43 341.607,1271.52 343.651,1318.72 345.694,1237.26 347.738,1256.93 349.782,1305.91 351.826,1314.42 353.87,1202.61 355.914,1352.34 357.957,1397.83 360.001,1313.5 362.045,1223.75 364.089,1305.15 366.133,1228.89 368.177,1370.55 370.221,1237.58 372.264,1283.85 374.308,1350.6 376.352,1250.07 378.396,1333.48 380.44,1295.94 382.484,1278.98 384.528,1282.3 386.571,1289.51 388.615,1302.45 390.659,1345.38 392.703,1300.26 394.747,1343.54 396.791,1306.06 398.834,1321.6 400.878,1209.13 402.922,1220.73 404.966,1264.85 407.01,1255.17 409.054,1237.03 411.098,1305.11 413.141,1336.83 415.185,1361.63 417.229,1238.79 419.273,1278.7 421.317,1309.96 423.361,1363.1 425.405,1388.05 427.448,1322.17 429.492,1302.81 431.536,1268.41 433.58,1358.91 435.624,1338.94 437.668,1266.69 439.712,1302.18 441.755,1288.75 443.799,1238.78 445.843,1306.37 447.887,1272.88 449.931,1332.11 451.975,1402.78 454.018,1330.82 456.062,1257.5 458.106,1264.64 460.15,1253.84 462.194,1310.08 464.238,1312.92 466.282,1407.7 468.325,1337.06 470.369,1281.76 472.413,1286.31 474.457,1245.43 476.501,1379.05 478.545,1341.55 480.589,1316.3 482.632,1344.37 484.676,1281.2 486.72,1238.56 488.764,1328.94 490.808,1229.2 492.852,1290.84 494.895,1238.97 496.939,1372.4 498.983,1332.68 501.027,1291.78 503.071,1351.08 505.115,1293.12 507.159,1285.87 509.202,1325.04 511.246,1362.38 513.29,1334.47 515.334,1231.34 517.378,1299.09 519.422,1313.86 521.466,1327.09 523.509,1291.6 525.553,1251.74 527.597,1321.23 529.641,1304.4 531.685,1342 533.729,1204.73 535.772,1281.23 537.816,1229.36 539.86,1228.1 541.904,1309.17 543.948,1320.03 545.992,1276.96 548.036,1359.13 550.079,1377.74 552.123,1424.81 554.167,1262.39 556.211,1357.6 558.255,1235.64 560.299,1251.21 562.343,1269 564.386,1149.79 566.43,1259.35 568.474,1256.55 570.518,1293.93 572.562,1295.96 574.606,1242.55 576.65,1300.51 578.693,1277.56 580.737,1394.24 582.781,1314.67 584.825,1221.44 586.869,1328.88 588.913,1330.1 590.956,1212.85 593,1215.39 595.044,1247.67 597.088,1322.29 599.132,1310.53 601.176,1277.97 603.22,1291.62 605.263,1297.59 607.307,1299.25 609.351,1317.46 611.395,1251.8 613.439,1326.76 615.483,1363.51 617.527,1298.02 619.57,1212.27 621.614,1358.03 623.658,1310.45 625.702,1420.75 627.746,1241.77 629.79,1276.12 631.833,1254.54 633.877,1312.33 635.921,1207.2 637.965,1410.95 640.009,1264.34 642.053,1316.76 644.097,1296.76 646.14,1303.94 648.184,1276.78 650.228,1255.04 652.272,1368.78 654.316,1336.14 656.36,1394.81 658.404,1364.97 660.447,1292.48 662.491,1333.16 664.535,1347.37 666.579,1242.95 668.623,1285.72 670.667,1320.36 672.711,1337.99 674.754,1219.8 676.798,1248.86 678.842,1237.25 680.886,1247.63 682.93,1268.16 684.974,1298.19 687.017,1252.4 689.061,1289.29 691.105,1324.54 693.149,1278.21 695.193,1354.23 697.237,1340.39 699.281,1261.58 701.324,1388.24 703.368,1244.68 705.412,1272.71 707.456,1370.39 709.5,1381.31 711.544,1326.03 713.588,1276.67 715.631,1315.17 717.675,1279.23 719.719,1289.17 721.763,1245.6 723.807,1181.97 725.851,1386.11 727.894,1236.51 729.938,1177.67 731.982,1320.23 734.026,1292.29 736.07,1313.47 738.114,1408.99 740.158,1363.23 742.201,1235.49 744.245,1246.28 746.289,1343.7 748.333,1274.58 750.377,1331.14 752.421,1283.84 754.465,1339.58 756.508,1264.22 758.552,1363.57 760.596,1276.33 762.64,1235.2 764.684,1364.96 766.728,1290.74 768.771,1273.54 770.815,1307.2 772.859,1146.02 774.903,1234.82 776.947,1316.11 778.991,1301.3 781.035,1230.95 783.078,1351.43 785.122,1247.08 787.166,1415.64 789.21,1356.59 791.254,1259.2 793.298,1267.9 795.342,1235.75 797.385,1300.97 799.429,1314.45 801.473,1285.58 803.517,1445.72 805.561,1296.57 807.605,1307.5 809.649,1278.84 811.692,1288.55 813.736,1327.39 815.78,1302.84 817.824,1285.66 819.868,1246.73 821.912,1230.59 823.955,1338.29 825.999,1381.03 828.043,1304.06 830.087,1200.49 832.131,1341.39 834.175,1285.04 836.219,1313.98 838.262,1341.33 840.306,1339.05 842.35,1280.61 844.394,1246.64 846.438,1227.17 848.482,1217.17 850.526,1300.86 852.569,1305.39 854.613,1442.86 856.657,1274.01 858.701,1328.63 860.745,1257.91 862.789,1254.64 864.832,1314.25 866.876,1256.45 868.92,1268.99 870.964,1234.22 873.008,1257.7 875.052,1300.68 877.096,1265.9 879.139,1287.91 881.183,1233.39 883.227,1405.37 885.271,1280.28 887.315,1318.95 889.359,1326.41 891.403,1284.6 893.446,1300.29 895.49,1275.29 897.534,1226.97 899.578,1329.36 901.622,1300.27 903.666,1376.99 905.71,1335.97 907.753,1305.66 909.797,1318.39 911.841,1308.46 913.885,1247.45 915.929,1291.73 917.973,1236.36 920.016,1394.87 922.06,1311.3 924.104,1198.42 926.148,1301.03 928.192,1240.99 930.236,1338.83 932.28,1319.71 934.323,1323.49 936.367,1320.5 938.411,1341.61 940.455,1402.38 942.499,1308.9 944.543,1276.65 946.587,1361.49 948.63,1344.32 950.674,1264.75 952.718,1279.68 954.762,1299.66 956.806,1409.28 958.85,1297.23 960.893,1289.99 962.937,1215.64 964.981,1345.03 967.025,1264.82 969.069,1310.09 971.113,1258.43 973.157,1268.2 975.2,1253.53 977.244,1215.9 979.288,1338.52 981.332,1206.19 983.376,1338.61 985.42,1309.92 987.464,1236.95 989.507,1204.8 991.551,1295.05 993.595,1304.99 995.639,1262.39 997.683,1263.52 999.727,1197.18 1001.77,1250.09 1003.81,1243.74 1005.86,1275.11 1007.9,1263.82 1009.95,1254.81 1011.99,1288.5 1014.03,1287.38 1016.08,1284.25 1018.12,1412.56 1020.17,1320.49 1022.21,1197.94 1024.25,1141.76 1026.3,1225.91 1028.34,1228.46 1030.38,1210 1032.43,1350.14 1034.47,1150.15 1036.52,1125.5 1038.56,1227.38 1040.6,1195.68 1042.65,1266.62 1044.69,1235.07 1046.74,1199.51 1048.78,1194.82 1050.82,1191.41 1052.87,1156.05 1054.91,1132.25 1056.95,1169.08 1059,1112.45 1061.04,1163.34 1063.09,1188.76 1065.13,1178.35 1067.17,1135.17 1069.22,1049.26 1071.26,1078.78 1073.31,1069.21 1075.35,1172.29 1077.39,1032.15 1079.44,1008.3 1081.48,1108.93 1083.52,1092.69 1085.57,1021.02 1087.61,1097.96 1089.66,1066.23 1091.7,1049.27 1093.74,1021.41 1095.79,1095.19 1097.83,1103.98 1099.88,1006.48 1101.92,998.779 1103.96,983.631 1106.01,1032.71 1108.05,952.521 1110.09,910.315 1112.14,977.352 1114.18,865.466 1116.23,953.22 1118.27,917.637 1120.31,893.491 1122.36,835.377 1124.4,980.718 1126.45,820.162 1128.49,895.785 1130.53,878.263 1132.58,929.008 1134.62,881.069 1136.66,813.56 1138.71,781.195 1140.75,785.894 1142.8,800.447 1144.84,737.115 1146.88,859.409 1148.93,772.913 1150.97,764.463 1153.02,713.415 1155.06,689.392 1157.1,610.949 1159.15,720.524 1161.19,697.387 1163.23,635.861 1165.28,636.453 1167.32,680.493 1169.37,695.398 1171.41,657.598 1173.45,573.07 1175.5,572.99 1177.54,646.553 1179.59,547.396 1181.63,539.806 1183.67,408.095 1185.72,555.076 1187.76,456.013 1189.8,576.004 1191.85,561.71 1193.89,458.881 1195.94,425.721 1197.98,322.473 1200.02,416.785 1202.07,454.397 1204.11,467.352 1206.16,482.935 1208.2,551.453 1210.24,394.897 1212.29,357.493 1214.33,373.367 1216.37,401.284 1218.42,281.707 1220.46,311.278 1222.51,466.446 1224.55,353.817 1226.59,402.802 1228.64,259.306 1230.68,297.109 1232.73,280.241 1234.77,298.122 1236.81,300.397 1238.86,211.585 1240.9,266.27 1242.94,238.017 1244.99,252.38 1247.03,214.497 1249.08,188.858 1251.12,249.318 1253.16,226.225 1255.21,146.295 1257.25,236.211 1259.3,249.342 1261.34,163.841 1263.38,231.771 1265.43,87.9763 1267.47,232.621 1269.51,150.429 1271.56,169.029 1273.6,371.644 1275.65,198.575 1277.69,234.662 1279.73,259.002 1281.78,306.571 1283.82,268.75 1285.87,280.467 1287.91,159.086 1289.95,250.127 1292,185.811 1294.04,246.14 1296.09,316.6 1298.13,259.925 1300.17,246.378 1302.22,170.871 1304.26,407.926 1306.3,191.916 1308.35,284.391 1310.39,360.618 1312.44,273 1314.48,371.347 1316.52,455.567 1318.57,365.398 1320.61,374.113 1322.66,273.603 1324.7,402.605 1326.74,410.911 1328.79,407.401 1330.83,402.248 1332.87,362.15 1334.92,424.133 1336.96,400.561 1339.01,424.371 1341.05,377.462 1343.09,555.755 1345.14,429.509 1347.18,429.546 1349.23,538.057 1351.27,518.679 1353.31,580.989 1355.36,486.123 1357.4,588.927 1359.44,543.63 1361.49,556.931 1363.53,643.029 1365.58,594.912 1367.62,573.175 1369.66,649.444 1371.71,665.117 1373.75,685.882 1375.8,650.749 1377.84,684.038 1379.88,625.546 1381.93,587.36 1383.97,723.932 1386.01,727.837 1388.06,647.475 1390.1,740.308 1392.15,741.51 1394.19,674.339 1396.23,656.954 1398.28,811.321 1400.32,789.284 1402.37,854.392 1404.41,856.023 1406.45,823.12 1408.5,923.056 1410.54,815.77 1412.58,922.325 1414.63,917.948 1416.67,861.797 1418.72,930.403 1420.76,981.765 1422.8,935.959 1424.85,928.193 1426.89,884.163 1428.94,946.724 1430.98,919.078 1433.02,1058.06 1435.07,1014.79 1437.11,1040.5 1439.15,1002.88 1441.2,970.704 1443.24,987.395 1445.29,1070.86 1447.33,1011.94 1449.37,1006.28 1451.42,1050.31 1453.46,1108.82 1455.51,1048.11 1457.55,1119.83 1459.59,1088.33 1461.64,1094.83 1463.68,1175.05 1465.72,1137.72 1467.77,1170.61 1469.81,1053.84 1471.86,1133.67 1473.9,1082.38 1475.94,1143.9 1477.99,1263.09 1480.03,1148.96 1482.08,1206.2 1484.12,1084.81 1486.16,1343.7 1488.21,1292.22 1490.25,1149.73 1492.29,1138.4 1494.34,1187.85 1496.38,1271.05 1498.43,1198.42 1500.47,1234.23 1502.51,1236.74 1504.56,1214.86 1506.6,1236.01 1508.65,1186.58 1510.69,1319.63 1512.73,1269.22 1514.78,1161.18 1516.82,1320.97 1518.86,1144.66 1520.91,1209.07 1522.95,1345.78 1525,1233.15 1527.04,1284.39 1529.08,1237.44 1531.13,1364.29 1533.17,1239.39 1535.22,1279.93 1537.26,1177.96 1539.3,1281.23 1541.35,1221.04 1543.39,1372.52 1545.43,1248.59 1547.48,1265.23 1549.52,1265.58 1551.57,1272.14 1553.61,1206.6 1555.65,1318.11 1557.7,1337.28 1559.74,1330.02 1561.79,1242.32 1563.83,1178.31 1565.87,1195.42 1567.92,1124.84 1569.96,1266.18 1572,1271.3 1574.05,1347.42 1576.09,1356.58 1578.14,1212.84 1580.18,1305.51 1582.22,1331.64 1584.27,1364.02 1586.31,1293.89 1588.36,1309.84 1590.4,1272.07 1592.44,1372.17 1594.49,1228.28 1596.53,1363.51 1598.57,1232.94 1600.62,1328.53 1602.66,1302.12 1604.71,1265.39 1606.75,1302.11 1608.79,1344.12 1610.84,1269.47 1612.88,1326.17 1614.93,1398.38 1616.97,1216.84 1619.01,1245 1621.06,1313.4 1623.1,1287.99 1625.15,1325.37 1627.19,1320.74 1629.23,1359.73 1631.28,1310.62 1633.32,1251.89 1635.36,1345.4 1637.41,1336.13 1639.45,1397.25 1641.5,1317.32 1643.54,1268.41 1645.58,1376.13 1647.63,1348.59 1649.67,1308.1 1651.72,1282.12 1653.76,1269.26 1655.8,1233.71 1657.85,1322.31 1659.89,1379.66 1661.93,1342.74 1663.98,1361.68 1666.02,1437.99 1668.07,1292.53 1670.11,1282.93 1672.15,1356.25 1674.2,1278.2 1676.24,1248.23 1678.29,1324.03 1680.33,1350.15 1682.37,1268.46 1684.42,1307.23 1686.46,1226.15 1688.5,1223.34 1690.55,1280.72 1692.59,1330.25 1694.64,1319.85 1696.68,1250.21 1698.72,1287.05 1700.77,1332.63 1702.81,1331.99 1704.86,1248.75 1706.9,1244.63 1708.94,1308.97 1710.99,1310 1713.03,1306.69 1715.07,1272.82 1717.12,1282.81 1719.16,1278.08 1721.21,1263.09 1723.25,1218.78 1725.29,1247.9 1727.34,1282.06 1729.38,1287.83 1731.43,1293.06 1733.47,1253.76 1735.51,1253.67 1737.56,1340.09 1739.6,1296.56 1741.64,1409.27 1743.69,1324.25 1745.73,1282.06 1747.78,1340.07 1749.82,1256.81 1751.86,1332.84 1753.91,1371.3 1755.95,1211.64 1758,1365.92 1760.04,1143.53 1762.08,1249.45 1764.13,1284.83 1766.17,1277.15 1768.21,1294.17 1770.26,1384.48 1772.3,1314.45 1774.35,1318.46 1776.39,1383.24 1778.43,1246.36 1780.48,1246.7 1782.52,1250.27 1784.57,1337.27 1786.61,1212.05 1788.65,1333.29 1790.7,1318.52 1792.74,1341.04 1794.78,1392.01 1796.83,1343.15 1798.87,1232.96 1800.92,1327.14 1802.96,1335.96 1805,1272.72 1807.05,1294.99 1809.09,1257.69 1811.14,1284.81 1813.18,1339.63 1815.22,1228.32 1817.27,1342.72 1819.31,1261.43 1821.35,1202.83 1823.4,1263.85 1825.44,1287.5 1827.49,1304.49 1829.53,1260.44 1831.57,1218.37 1833.62,1279.76 1835.66,1356.1 1837.71,1360.22 1839.75,1360.81 1841.79,1254.69 1843.84,1302.42 1845.88,1380.62 1847.92,1239.33 1849.97,1288.39 1852.01,1297.54 1854.06,1344.27 1856.1,1254.07 1858.14,1293.61 1860.19,1344.77 1862.23,1419.56 1864.28,1395.52 1866.32,1382.58 1868.36,1267.6 1870.41,1285.54 1872.45,1268.37 1874.49,1217.66 1876.54,1266.56 1878.58,1364.05 1880.63,1291.1 1882.67,1310.76 1884.71,1306.52 1886.76,1426.78 1888.8,1218.98 1890.85,1278.26 1892.89,1292.44 1894.93,1419.43 1896.98,1340.77 1899.02,1275.03 1901.06,1388.79 1903.11,1286.72 1905.15,1306.45 1907.2,1253.55 1909.24,1251.4 1911.28,1370.73 1913.33,1246.01 1915.37,1232.12 1917.42,1312.07 1919.46,1408.68 1921.5,1277.3 1923.55,1246.99 1925.59,1295.35 1927.63,1229.45 1929.68,1197.48 1931.72,1342.16 1933.77,1363.13 1935.81,1336.59 1937.85,1158.51 1939.9,1299.41 1941.94,1284.73 1943.99,1336.53 1946.03,1270 1948.07,1397.03 1950.12,1338.72 1952.16,1257.55 1954.2,1356.37 1956.25,1289.66 1958.29,1314.6 1960.34,1342.52 1962.38,1360.64 1964.42,1231.07 1966.47,1309.66 1968.51,1316.22 1970.56,1313.16 1972.6,1391.57 1974.64,1324.13 1976.69,1313.68 1978.73,1340.15 1980.78,1279.91 1982.82,1251.62 1984.86,1348.54 1986.91,1307.14 1988.95,1265.75 1990.99,1274.31 1993.04,1356.76 1995.08,1298.24 1997.13,1183.22 1999.17,1287.87 2001.21,1359.59 2003.26,1245.91 2005.3,1361.54 2007.35,1358.51 2009.39,1266.29 2011.43,1367.17 2013.48,1338.67 2015.52,1290.88 2017.56,1404.29 2019.61,1295.62 2021.65,1307.45 2023.7,1264.72 2025.74,1268.49 2027.78,1394.33 2029.83,1278.53 2031.87,1209.72 2033.92,1225.68 2035.96,1421.61 2038,1283.07 2040.05,1334.02 2042.09,1355.31 2044.13,1296.56 2046.18,1322.61 2048.22,1279.16 2050.27,1241.91 2052.31,1328.72 2054.35,1276.34 2056.4,1293.11 2058.44,1326.08 2060.49,1322.1 2062.53,1285.42 2064.57,1408.8 2066.62,1306.55 2068.66,1313.12 2070.7,1339.66 2072.75,1305.97 2074.79,1304.15 2076.84,1225.75 2078.88,1249.7 2080.92,1234.99 2082.97,1195.04 2085.01,1341.87 2087.06,1199.74 2089.1,1298.45 2091.14,1306.4 2093.19,1320.71 2095.23,1312.97 2097.27,1224.37 2099.32,1350.09 2101.36,1261.03 2103.41,1354.21 2105.45,1342.28 2107.49,1248.77 2109.54,1279.02 2111.58,1398.59 2113.63,1233.54 2115.67,1292.86 2117.71,1389.8 2119.76,1332.42 2121.8,1391.28 2123.84,1356.73 2125.89,1178.55 2127.93,1277.34 2129.98,1376.66 2132.02,1181.26 2134.06,1355.26 2136.11,1234.56 2138.15,1370.34 2140.2,1387.66 2142.24,1211.85 2144.28,1275.63 2146.33,1271.87 2148.37,1426.21 2150.41,1307.56 2152.46,1383.96 2154.5,1237.39 2156.55,1333.98 2158.59,1237.89 2160.63,1321.86 2162.68,1350.95 2164.72,1341.63 2166.77,1363.26 2168.81,1333.74 2170.85,1317.02 2172.9,1268.21 2174.94,1313.7 2176.98,1252.56 2179.03,1382.09 2181.07,1276.55 2183.12,1330.06 2185.16,1232.42 2187.2,1303.43 2189.25,1252.17 2191.29,1263.1 2193.34,1236.24 2195.38,1305.26 2197.42,1173.42 2199.47,1346.64 2201.51,1272.9 2203.55,1348.66 2205.6,1332.1 2207.64,1361.67 2209.69,1321.9 2211.73,1314.76 2213.77,1215.93 2215.82,1324.49 2217.86,1353 2219.91,1354.08 2221.95,1263.29 2223.99,1357.45 2226.04,1322.62 2228.08,1285.19 2230.12,1300.45 2232.17,1329.72 2234.21,1267.44 2236.26,1253.52 2238.3,1357.24 2240.34,1317.09 2242.39,1313.23 2244.43,1377.96 2246.48,1316.1 2248.52,1376.76 2250.56,1301.16 2252.61,1393.49 2254.65,1312.34 2256.69,1247.76 2258.74,1277.05 2260.78,1324.81 2262.83,1191.38 2264.87,1326.45 2266.91,1315.91 2268.96,1208.07 2271,1282.89 2273.05,1251.49 2275.09,1248.39 2277.13,1252.22 2279.18,1285.14 2281.22,1325.2 2283.26,1347.38 2285.31,1315.21 2287.35,1295.36 2289.4,1334.14 2291.44,1340.02 "/>
<polyline clip-path="url(#clip032)" style="stroke:#0000ff; stroke-linecap:round; stroke-linejoin:round; stroke-width:4; stroke-opacity:1; fill:none" points="308.905,1381.53 308.905,1209.13 "/>
<polyline clip-path="url(#clip032)" style="stroke:#0000ff; stroke-linecap:round; stroke-linejoin:round; stroke-width:4; stroke-opacity:1; fill:none" points="353.87,1424.81 353.87,1202.61 "/>
<polyline clip-path="url(#clip032)" style="stroke:#0000ff; stroke-linecap:round; stroke-linejoin:round; stroke-width:4; stroke-opacity:1; fill:none" points="400.878,1397.83 400.878,1209.13 "/>
<polyline clip-path="url(#clip032)" style="stroke:#0000ff; stroke-linecap:round; stroke-linejoin:round; stroke-width:4; stroke-opacity:1; fill:none" points="490.808,1372.4 490.808,1229.2 "/>
<polyline clip-path="url(#clip032)" style="stroke:#0000ff; stroke-linecap:round; stroke-linejoin:round; stroke-width:4; stroke-opacity:1; fill:none" points="564.386,1420.75 564.386,1149.79 "/>
<polyline clip-path="url(#clip032)" style="stroke:#0000ff; stroke-linecap:round; stroke-linejoin:round; stroke-width:4; stroke-opacity:1; fill:none" points="635.921,1410.95 635.921,1207.2 "/>
<polyline clip-path="url(#clip032)" style="stroke:#0000ff; stroke-linecap:round; stroke-linejoin:round; stroke-width:4; stroke-opacity:1; fill:none" points="729.938,1408.99 729.938,1177.67 "/>
<polyline clip-path="url(#clip032)" style="stroke:#0000ff; stroke-linecap:round; stroke-linejoin:round; stroke-width:4; stroke-opacity:1; fill:none" points="772.859,1427.71 772.859,1146.02 "/>
<polyline clip-path="url(#clip032)" style="stroke:#0000ff; stroke-linecap:round; stroke-linejoin:round; stroke-width:4; stroke-opacity:1; fill:none" points="830.087,1442.86 830.087,1200.49 "/>
<polyline clip-path="url(#clip032)" style="stroke:#0000ff; stroke-linecap:round; stroke-linejoin:round; stroke-width:4; stroke-opacity:1; fill:none" points="924.104,1409.28 924.104,1198.42 "/>
<polyline clip-path="url(#clip032)" style="stroke:#0000ff; stroke-linecap:round; stroke-linejoin:round; stroke-width:4; stroke-opacity:1; fill:none" points="1265.43,1437.99 1265.43,87.9763 "/>
<polyline clip-path="url(#clip032)" style="stroke:#0000ff; stroke-linecap:round; stroke-linejoin:round; stroke-width:4; stroke-opacity:1; fill:none" points="1567.92,1372.52 1567.92,1124.84 "/>
<polyline clip-path="url(#clip032)" style="stroke:#0000ff; stroke-linecap:round; stroke-linejoin:round; stroke-width:4; stroke-opacity:1; fill:none" points="1760.04,1426.78 1760.04,1143.53 "/>
<polyline clip-path="url(#clip032)" style="stroke:#0000ff; stroke-linecap:round; stroke-linejoin:round; stroke-width:4; stroke-opacity:1; fill:none" points="1821.35,1392.01 1821.35,1202.83 "/>
<polyline clip-path="url(#clip032)" style="stroke:#0000ff; stroke-linecap:round; stroke-linejoin:round; stroke-width:4; stroke-opacity:1; fill:none" points="1874.49,1419.56 1874.49,1217.66 "/>
<polyline clip-path="url(#clip032)" style="stroke:#0000ff; stroke-linecap:round; stroke-linejoin:round; stroke-width:4; stroke-opacity:1; fill:none" points="1937.85,1426.21 1937.85,1158.51 "/>
<polyline clip-path="url(#clip032)" style="stroke:#0000ff; stroke-linecap:round; stroke-linejoin:round; stroke-width:4; stroke-opacity:1; fill:none" points="1997.13,1397.03 1997.13,1183.22 "/>
<polyline clip-path="url(#clip032)" style="stroke:#0000ff; stroke-linecap:round; stroke-linejoin:round; stroke-width:4; stroke-opacity:1; fill:none" points="2082.97,1398.59 2082.97,1195.04 "/>
<polyline clip-path="url(#clip032)" style="stroke:#0000ff; stroke-linecap:round; stroke-linejoin:round; stroke-width:4; stroke-opacity:1; fill:none" points="2125.89,1421.61 2125.89,1178.55 "/>
<polyline clip-path="url(#clip032)" style="stroke:#0000ff; stroke-linecap:round; stroke-linejoin:round; stroke-width:4; stroke-opacity:1; fill:none" points="2197.42,1393.49 2197.42,1173.42 "/>
<polyline clip-path="url(#clip032)" style="stroke:#0000ff; stroke-linecap:round; stroke-linejoin:round; stroke-width:4; stroke-opacity:0.5; fill:none" stroke-dasharray="16, 10" points="294.852,1381.53 329.344,1381.53 "/>
<polyline clip-path="url(#clip032)" style="stroke:#0000ff; stroke-linecap:round; stroke-linejoin:round; stroke-width:4; stroke-opacity:0.5; fill:none" stroke-dasharray="16, 10" points="278.296,1424.81 552.123,1424.81 "/>
<polyline clip-path="url(#clip032)" style="stroke:#0000ff; stroke-linecap:round; stroke-linejoin:round; stroke-width:4; stroke-opacity:0.5; fill:none" stroke-dasharray="16, 10" points="357.957,1397.83 451.831,1397.83 "/>
<polyline clip-path="url(#clip032)" style="stroke:#0000ff; stroke-linecap:round; stroke-linejoin:round; stroke-width:4; stroke-opacity:0.5; fill:none" stroke-dasharray="16, 10" points="476.863,1372.4 496.939,1372.4 "/>
<polyline clip-path="url(#clip032)" style="stroke:#0000ff; stroke-linecap:round; stroke-linejoin:round; stroke-width:4; stroke-opacity:0.5; fill:none" stroke-dasharray="16, 10" points="552.174,1420.75 625.702,1420.75 "/>
<polyline clip-path="url(#clip032)" style="stroke:#0000ff; stroke-linecap:round; stroke-linejoin:round; stroke-width:4; stroke-opacity:0.5; fill:none" stroke-dasharray="16, 10" points="625.814,1410.95 637.965,1410.95 "/>
<polyline clip-path="url(#clip032)" style="stroke:#0000ff; stroke-linecap:round; stroke-linejoin:round; stroke-width:4; stroke-opacity:0.5; fill:none" stroke-dasharray="16, 10" points="637.992,1408.99 738.114,1408.99 "/>
<polyline clip-path="url(#clip032)" style="stroke:#0000ff; stroke-linecap:round; stroke-linejoin:round; stroke-width:4; stroke-opacity:0.5; fill:none" stroke-dasharray="16, 10" points="278.247,1427.71 803.287,1427.71 "/>
<polyline clip-path="url(#clip032)" style="stroke:#0000ff; stroke-linecap:round; stroke-linejoin:round; stroke-width:4; stroke-opacity:0.5; fill:none" stroke-dasharray="16, 10" points="803.556,1442.86 854.613,1442.86 "/>
<polyline clip-path="url(#clip032)" style="stroke:#0000ff; stroke-linecap:round; stroke-linejoin:round; stroke-width:4; stroke-opacity:0.5; fill:none" stroke-dasharray="16, 10" points="855.02,1409.28 956.806,1409.28 "/>
<polyline clip-path="url(#clip032)" style="stroke:#0000ff; stroke-linecap:round; stroke-linejoin:round; stroke-width:4; stroke-opacity:0.5; fill:none" stroke-dasharray="16, 10" points="854.672,1437.99 1666.02,1437.99 "/>
<polyline clip-path="url(#clip032)" style="stroke:#0000ff; stroke-linecap:round; stroke-linejoin:round; stroke-width:4; stroke-opacity:0.5; fill:none" stroke-dasharray="16, 10" points="1543.39,1372.52 1614.19,1372.52 "/>
<polyline clip-path="url(#clip032)" style="stroke:#0000ff; stroke-linecap:round; stroke-linejoin:round; stroke-width:4; stroke-opacity:0.5; fill:none" stroke-dasharray="16, 10" points="1666.18,1426.78 1886.76,1426.78 "/>
<polyline clip-path="url(#clip032)" style="stroke:#0000ff; stroke-linecap:round; stroke-linejoin:round; stroke-width:4; stroke-opacity:0.5; fill:none" stroke-dasharray="16, 10" points="1794.78,1392.01 1861.48,1392.01 "/>
<polyline clip-path="url(#clip032)" style="stroke:#0000ff; stroke-linecap:round; stroke-linejoin:round; stroke-width:4; stroke-opacity:0.5; fill:none" stroke-dasharray="16, 10" points="1862.23,1419.56 1886.64,1419.56 "/>
<polyline clip-path="url(#clip032)" style="stroke:#0000ff; stroke-linecap:round; stroke-linejoin:round; stroke-width:4; stroke-opacity:0.5; fill:none" stroke-dasharray="16, 10" points="1886.76,1426.21 2148.37,1426.21 "/>
<polyline clip-path="url(#clip032)" style="stroke:#0000ff; stroke-linecap:round; stroke-linejoin:round; stroke-width:4; stroke-opacity:0.5; fill:none" stroke-dasharray="16, 10" points="1948.07,1397.03 2017.43,1397.03 "/>
<polyline clip-path="url(#clip032)" style="stroke:#0000ff; stroke-linecap:round; stroke-linejoin:round; stroke-width:4; stroke-opacity:0.5; fill:none" stroke-dasharray="16, 10" points="2064.78,1398.59 2111.58,1398.59 "/>
<polyline clip-path="url(#clip032)" style="stroke:#0000ff; stroke-linecap:round; stroke-linejoin:round; stroke-width:4; stroke-opacity:0.5; fill:none" stroke-dasharray="16, 10" points="2035.96,1421.61 2148.31,1421.61 "/>
<polyline clip-path="url(#clip032)" style="stroke:#0000ff; stroke-linecap:round; stroke-linejoin:round; stroke-width:4; stroke-opacity:0.5; fill:none" stroke-dasharray="16, 10" points="2148.93,1393.49 2252.61,1393.49 "/>
<polyline clip-path="url(#clip032)" style="stroke:#808080; stroke-linecap:round; stroke-linejoin:round; stroke-width:4; stroke-opacity:1; fill:none" stroke-dasharray="16, 10" points="307.782,1295.33 310.29,1295.33 "/>
<polyline clip-path="url(#clip032)" style="stroke:#808080; stroke-linecap:round; stroke-linejoin:round; stroke-width:4; stroke-opacity:1; fill:none" stroke-dasharray="16, 10" points="351.839,1313.71 355.386,1313.71 "/>
<polyline clip-path="url(#clip032)" style="stroke:#808080; stroke-linecap:round; stroke-linejoin:round; stroke-width:4; stroke-opacity:1; fill:none" stroke-dasharray="16, 10" points="399.164,1303.48 411.049,1303.48 "/>
<polyline clip-path="url(#clip032)" style="stroke:#808080; stroke-linecap:round; stroke-linejoin:round; stroke-width:4; stroke-opacity:1; fill:none" stroke-dasharray="16, 10" points="489.341,1300.8 495.843,1300.8 "/>
<polyline clip-path="url(#clip032)" style="stroke:#808080; stroke-linecap:round; stroke-linejoin:round; stroke-width:4; stroke-opacity:1; fill:none" stroke-dasharray="16, 10" points="557.423,1285.27 570.045,1285.27 "/>
<polyline clip-path="url(#clip032)" style="stroke:#808080; stroke-linecap:round; stroke-linejoin:round; stroke-width:4; stroke-opacity:1; fill:none" stroke-dasharray="16, 10" points="633.941,1309.08 636.943,1309.08 "/>
<polyline clip-path="url(#clip032)" style="stroke:#808080; stroke-linecap:round; stroke-linejoin:round; stroke-width:4; stroke-opacity:1; fill:none" stroke-dasharray="16, 10" points="727.118,1293.33 731.597,1293.33 "/>
<polyline clip-path="url(#clip032)" style="stroke:#808080; stroke-linecap:round; stroke-linejoin:round; stroke-width:4; stroke-opacity:1; fill:none" stroke-dasharray="16, 10" points="771.073,1286.87 776.212,1286.87 "/>
<polyline clip-path="url(#clip032)" style="stroke:#808080; stroke-linecap:round; stroke-linejoin:round; stroke-width:4; stroke-opacity:1; fill:none" stroke-dasharray="16, 10" points="827.575,1321.67 831.845,1321.67 "/>
<polyline clip-path="url(#clip032)" style="stroke:#808080; stroke-linecap:round; stroke-linejoin:round; stroke-width:4; stroke-opacity:1; fill:none" stroke-dasharray="16, 10" points="922.195,1303.85 929.505,1303.85 "/>
<polyline clip-path="url(#clip032)" style="stroke:#808080; stroke-linecap:round; stroke-linejoin:round; stroke-width:4; stroke-opacity:1; fill:none" stroke-dasharray="16, 10" points="1151.03,762.983 1397.64,762.983 "/>
<polyline clip-path="url(#clip032)" style="stroke:#808080; stroke-linecap:round; stroke-linejoin:round; stroke-width:4; stroke-opacity:1; fill:none" stroke-dasharray="16, 10" points="1561.64,1248.68 1569.71,1248.68 "/>
<polyline clip-path="url(#clip032)" style="stroke:#808080; stroke-linecap:round; stroke-linejoin:round; stroke-width:4; stroke-opacity:1; fill:none" stroke-dasharray="16, 10" points="1758.74,1285.16 1767.13,1285.16 "/>
<polyline clip-path="url(#clip032)" style="stroke:#808080; stroke-linecap:round; stroke-linejoin:round; stroke-width:4; stroke-opacity:1; fill:none" stroke-dasharray="16, 10" points="1818.41,1297.42 1826.64,1297.42 "/>
<polyline clip-path="url(#clip032)" style="stroke:#808080; stroke-linecap:round; stroke-linejoin:round; stroke-width:4; stroke-opacity:1; fill:none" stroke-dasharray="16, 10" points="1867.46,1318.61 1877.63,1318.61 "/>
<polyline clip-path="url(#clip032)" style="stroke:#808080; stroke-linecap:round; stroke-linejoin:round; stroke-width:4; stroke-opacity:1; fill:none" stroke-dasharray="16, 10" points="1936.32,1292.36 1939.8,1292.36 "/>
<polyline clip-path="url(#clip032)" style="stroke:#808080; stroke-linecap:round; stroke-linejoin:round; stroke-width:4; stroke-opacity:1; fill:none" stroke-dasharray="16, 10" points="1995.23,1290.12 1999.23,1290.12 "/>
<polyline clip-path="url(#clip032)" style="stroke:#808080; stroke-linecap:round; stroke-linejoin:round; stroke-width:4; stroke-opacity:1; fill:none" stroke-dasharray="16, 10" points="2074.98,1296.82 2084.38,1296.82 "/>
<polyline clip-path="url(#clip032)" style="stroke:#808080; stroke-linecap:round; stroke-linejoin:round; stroke-width:4; stroke-opacity:1; fill:none" stroke-dasharray="16, 10" points="2124.49,1300.08 2128.4,1300.08 "/>
<polyline clip-path="url(#clip032)" style="stroke:#808080; stroke-linecap:round; stroke-linejoin:round; stroke-width:4; stroke-opacity:1; fill:none" stroke-dasharray="16, 10" points="2195.72,1283.45 2198.72,1283.45 "/>
<circle clip-path="url(#clip032)" cx="307.782" cy="1295.33" r="14.4" fill="#808080" fill-rule="evenodd" fill-opacity="1" stroke="#000000" stroke-opacity="1" stroke-width="3.2"/>
<circle clip-path="url(#clip032)" cx="310.29" cy="1295.33" r="14.4" fill="#808080" fill-rule="evenodd" fill-opacity="1" stroke="#000000" stroke-opacity="1" stroke-width="3.2"/>
<circle clip-path="url(#clip032)" cx="351.839" cy="1313.71" r="14.4" fill="#808080" fill-rule="evenodd" fill-opacity="1" stroke="#000000" stroke-opacity="1" stroke-width="3.2"/>
<circle clip-path="url(#clip032)" cx="355.386" cy="1313.71" r="14.4" fill="#808080" fill-rule="evenodd" fill-opacity="1" stroke="#000000" stroke-opacity="1" stroke-width="3.2"/>
<circle clip-path="url(#clip032)" cx="399.164" cy="1303.48" r="14.4" fill="#808080" fill-rule="evenodd" fill-opacity="1" stroke="#000000" stroke-opacity="1" stroke-width="3.2"/>
<circle clip-path="url(#clip032)" cx="411.049" cy="1303.48" r="14.4" fill="#808080" fill-rule="evenodd" fill-opacity="1" stroke="#000000" stroke-opacity="1" stroke-width="3.2"/>
<circle clip-path="url(#clip032)" cx="489.341" cy="1300.8" r="14.4" fill="#808080" fill-rule="evenodd" fill-opacity="1" stroke="#000000" stroke-opacity="1" stroke-width="3.2"/>
<circle clip-path="url(#clip032)" cx="495.843" cy="1300.8" r="14.4" fill="#808080" fill-rule="evenodd" fill-opacity="1" stroke="#000000" stroke-opacity="1" stroke-width="3.2"/>
<circle clip-path="url(#clip032)" cx="557.423" cy="1285.27" r="14.4" fill="#808080" fill-rule="evenodd" fill-opacity="1" stroke="#000000" stroke-opacity="1" stroke-width="3.2"/>
<circle clip-path="url(#clip032)" cx="570.045" cy="1285.27" r="14.4" fill="#808080" fill-rule="evenodd" fill-opacity="1" stroke="#000000" stroke-opacity="1" stroke-width="3.2"/>
<circle clip-path="url(#clip032)" cx="633.941" cy="1309.08" r="14.4" fill="#808080" fill-rule="evenodd" fill-opacity="1" stroke="#000000" stroke-opacity="1" stroke-width="3.2"/>
<circle clip-path="url(#clip032)" cx="636.943" cy="1309.08" r="14.4" fill="#808080" fill-rule="evenodd" fill-opacity="1" stroke="#000000" stroke-opacity="1" stroke-width="3.2"/>
<circle clip-path="url(#clip032)" cx="727.118" cy="1293.33" r="14.4" fill="#808080" fill-rule="evenodd" fill-opacity="1" stroke="#000000" stroke-opacity="1" stroke-width="3.2"/>
<circle clip-path="url(#clip032)" cx="731.597" cy="1293.33" r="14.4" fill="#808080" fill-rule="evenodd" fill-opacity="1" stroke="#000000" stroke-opacity="1" stroke-width="3.2"/>
<circle clip-path="url(#clip032)" cx="771.073" cy="1286.87" r="14.4" fill="#808080" fill-rule="evenodd" fill-opacity="1" stroke="#000000" stroke-opacity="1" stroke-width="3.2"/>
<circle clip-path="url(#clip032)" cx="776.212" cy="1286.87" r="14.4" fill="#808080" fill-rule="evenodd" fill-opacity="1" stroke="#000000" stroke-opacity="1" stroke-width="3.2"/>
<circle clip-path="url(#clip032)" cx="827.575" cy="1321.67" r="14.4" fill="#808080" fill-rule="evenodd" fill-opacity="1" stroke="#000000" stroke-opacity="1" stroke-width="3.2"/>
<circle clip-path="url(#clip032)" cx="831.845" cy="1321.67" r="14.4" fill="#808080" fill-rule="evenodd" fill-opacity="1" stroke="#000000" stroke-opacity="1" stroke-width="3.2"/>
<circle clip-path="url(#clip032)" cx="922.195" cy="1303.85" r="14.4" fill="#808080" fill-rule="evenodd" fill-opacity="1" stroke="#000000" stroke-opacity="1" stroke-width="3.2"/>
<circle clip-path="url(#clip032)" cx="929.505" cy="1303.85" r="14.4" fill="#808080" fill-rule="evenodd" fill-opacity="1" stroke="#000000" stroke-opacity="1" stroke-width="3.2"/>
<circle clip-path="url(#clip032)" cx="1151.03" cy="762.983" r="14.4" fill="#808080" fill-rule="evenodd" fill-opacity="1" stroke="#000000" stroke-opacity="1" stroke-width="3.2"/>
<circle clip-path="url(#clip032)" cx="1397.64" cy="762.983" r="14.4" fill="#808080" fill-rule="evenodd" fill-opacity="1" stroke="#000000" stroke-opacity="1" stroke-width="3.2"/>
<circle clip-path="url(#clip032)" cx="1561.64" cy="1248.68" r="14.4" fill="#808080" fill-rule="evenodd" fill-opacity="1" stroke="#000000" stroke-opacity="1" stroke-width="3.2"/>
<circle clip-path="url(#clip032)" cx="1569.71" cy="1248.68" r="14.4" fill="#808080" fill-rule="evenodd" fill-opacity="1" stroke="#000000" stroke-opacity="1" stroke-width="3.2"/>
<circle clip-path="url(#clip032)" cx="1758.74" cy="1285.16" r="14.4" fill="#808080" fill-rule="evenodd" fill-opacity="1" stroke="#000000" stroke-opacity="1" stroke-width="3.2"/>
<circle clip-path="url(#clip032)" cx="1767.13" cy="1285.16" r="14.4" fill="#808080" fill-rule="evenodd" fill-opacity="1" stroke="#000000" stroke-opacity="1" stroke-width="3.2"/>
<circle clip-path="url(#clip032)" cx="1818.41" cy="1297.42" r="14.4" fill="#808080" fill-rule="evenodd" fill-opacity="1" stroke="#000000" stroke-opacity="1" stroke-width="3.2"/>
<circle clip-path="url(#clip032)" cx="1826.64" cy="1297.42" r="14.4" fill="#808080" fill-rule="evenodd" fill-opacity="1" stroke="#000000" stroke-opacity="1" stroke-width="3.2"/>
<circle clip-path="url(#clip032)" cx="1867.46" cy="1318.61" r="14.4" fill="#808080" fill-rule="evenodd" fill-opacity="1" stroke="#000000" stroke-opacity="1" stroke-width="3.2"/>
<circle clip-path="url(#clip032)" cx="1877.63" cy="1318.61" r="14.4" fill="#808080" fill-rule="evenodd" fill-opacity="1" stroke="#000000" stroke-opacity="1" stroke-width="3.2"/>
<circle clip-path="url(#clip032)" cx="1936.32" cy="1292.36" r="14.4" fill="#808080" fill-rule="evenodd" fill-opacity="1" stroke="#000000" stroke-opacity="1" stroke-width="3.2"/>
<circle clip-path="url(#clip032)" cx="1939.8" cy="1292.36" r="14.4" fill="#808080" fill-rule="evenodd" fill-opacity="1" stroke="#000000" stroke-opacity="1" stroke-width="3.2"/>
<circle clip-path="url(#clip032)" cx="1995.23" cy="1290.12" r="14.4" fill="#808080" fill-rule="evenodd" fill-opacity="1" stroke="#000000" stroke-opacity="1" stroke-width="3.2"/>
<circle clip-path="url(#clip032)" cx="1999.23" cy="1290.12" r="14.4" fill="#808080" fill-rule="evenodd" fill-opacity="1" stroke="#000000" stroke-opacity="1" stroke-width="3.2"/>
<circle clip-path="url(#clip032)" cx="2074.98" cy="1296.82" r="14.4" fill="#808080" fill-rule="evenodd" fill-opacity="1" stroke="#000000" stroke-opacity="1" stroke-width="3.2"/>
<circle clip-path="url(#clip032)" cx="2084.38" cy="1296.82" r="14.4" fill="#808080" fill-rule="evenodd" fill-opacity="1" stroke="#000000" stroke-opacity="1" stroke-width="3.2"/>
<circle clip-path="url(#clip032)" cx="2124.49" cy="1300.08" r="14.4" fill="#808080" fill-rule="evenodd" fill-opacity="1" stroke="#000000" stroke-opacity="1" stroke-width="3.2"/>
<circle clip-path="url(#clip032)" cx="2128.4" cy="1300.08" r="14.4" fill="#808080" fill-rule="evenodd" fill-opacity="1" stroke="#000000" stroke-opacity="1" stroke-width="3.2"/>
<circle clip-path="url(#clip032)" cx="2195.72" cy="1283.45" r="14.4" fill="#808080" fill-rule="evenodd" fill-opacity="1" stroke="#000000" stroke-opacity="1" stroke-width="3.2"/>
<circle clip-path="url(#clip032)" cx="2198.72" cy="1283.45" r="14.4" fill="#808080" fill-rule="evenodd" fill-opacity="1" stroke="#000000" stroke-opacity="1" stroke-width="3.2"/>
<circle clip-path="url(#clip032)" cx="308.905" cy="1209.13" r="14.4" fill="#ff0000" fill-rule="evenodd" fill-opacity="1" stroke="#000000" stroke-opacity="1" stroke-width="3.2"/>
<circle clip-path="url(#clip032)" cx="353.87" cy="1202.61" r="14.4" fill="#ff0000" fill-rule="evenodd" fill-opacity="1" stroke="#000000" stroke-opacity="1" stroke-width="3.2"/>
<circle clip-path="url(#clip032)" cx="400.878" cy="1209.13" r="14.4" fill="#ff0000" fill-rule="evenodd" fill-opacity="1" stroke="#000000" stroke-opacity="1" stroke-width="3.2"/>
<circle clip-path="url(#clip032)" cx="490.808" cy="1229.2" r="14.4" fill="#ff0000" fill-rule="evenodd" fill-opacity="1" stroke="#000000" stroke-opacity="1" stroke-width="3.2"/>
<circle clip-path="url(#clip032)" cx="564.386" cy="1149.79" r="14.4" fill="#ff0000" fill-rule="evenodd" fill-opacity="1" stroke="#000000" stroke-opacity="1" stroke-width="3.2"/>
<circle clip-path="url(#clip032)" cx="635.921" cy="1207.2" r="14.4" fill="#ff0000" fill-rule="evenodd" fill-opacity="1" stroke="#000000" stroke-opacity="1" stroke-width="3.2"/>
<circle clip-path="url(#clip032)" cx="729.938" cy="1177.67" r="14.4" fill="#ff0000" fill-rule="evenodd" fill-opacity="1" stroke="#000000" stroke-opacity="1" stroke-width="3.2"/>
<circle clip-path="url(#clip032)" cx="772.859" cy="1146.02" r="14.4" fill="#ff0000" fill-rule="evenodd" fill-opacity="1" stroke="#000000" stroke-opacity="1" stroke-width="3.2"/>
<circle clip-path="url(#clip032)" cx="830.087" cy="1200.49" r="14.4" fill="#ff0000" fill-rule="evenodd" fill-opacity="1" stroke="#000000" stroke-opacity="1" stroke-width="3.2"/>
<circle clip-path="url(#clip032)" cx="924.104" cy="1198.42" r="14.4" fill="#ff0000" fill-rule="evenodd" fill-opacity="1" stroke="#000000" stroke-opacity="1" stroke-width="3.2"/>
<circle clip-path="url(#clip032)" cx="1265.43" cy="87.9763" r="14.4" fill="#ff0000" fill-rule="evenodd" fill-opacity="1" stroke="#000000" stroke-opacity="1" stroke-width="3.2"/>
<circle clip-path="url(#clip032)" cx="1567.92" cy="1124.84" r="14.4" fill="#ff0000" fill-rule="evenodd" fill-opacity="1" stroke="#000000" stroke-opacity="1" stroke-width="3.2"/>
<circle clip-path="url(#clip032)" cx="1760.04" cy="1143.53" r="14.4" fill="#ff0000" fill-rule="evenodd" fill-opacity="1" stroke="#000000" stroke-opacity="1" stroke-width="3.2"/>
<circle clip-path="url(#clip032)" cx="1821.35" cy="1202.83" r="14.4" fill="#ff0000" fill-rule="evenodd" fill-opacity="1" stroke="#000000" stroke-opacity="1" stroke-width="3.2"/>
<circle clip-path="url(#clip032)" cx="1874.49" cy="1217.66" r="14.4" fill="#ff0000" fill-rule="evenodd" fill-opacity="1" stroke="#000000" stroke-opacity="1" stroke-width="3.2"/>
<circle clip-path="url(#clip032)" cx="1937.85" cy="1158.51" r="14.4" fill="#ff0000" fill-rule="evenodd" fill-opacity="1" stroke="#000000" stroke-opacity="1" stroke-width="3.2"/>
<circle clip-path="url(#clip032)" cx="1997.13" cy="1183.22" r="14.4" fill="#ff0000" fill-rule="evenodd" fill-opacity="1" stroke="#000000" stroke-opacity="1" stroke-width="3.2"/>
<circle clip-path="url(#clip032)" cx="2082.97" cy="1195.04" r="14.4" fill="#ff0000" fill-rule="evenodd" fill-opacity="1" stroke="#000000" stroke-opacity="1" stroke-width="3.2"/>
<circle clip-path="url(#clip032)" cx="2125.89" cy="1178.55" r="14.4" fill="#ff0000" fill-rule="evenodd" fill-opacity="1" stroke="#000000" stroke-opacity="1" stroke-width="3.2"/>
<circle clip-path="url(#clip032)" cx="2197.42" cy="1173.42" r="14.4" fill="#ff0000" fill-rule="evenodd" fill-opacity="1" stroke="#000000" stroke-opacity="1" stroke-width="3.2"/>
<path clip-path="url(#clip030)" d="M1789.33 354.418 L2280.54 354.418 L2280.54 95.2176 L1789.33 95.2176  Z" fill="#ffffff" fill-rule="evenodd" fill-opacity="1"/>
<polyline clip-path="url(#clip030)" style="stroke:#000000; stroke-linecap:round; stroke-linejoin:round; stroke-width:4; stroke-opacity:1; fill:none" points="1789.33,354.418 2280.54,354.418 2280.54,95.2176 1789.33,95.2176 1789.33,354.418 "/>
<polyline clip-path="url(#clip030)" style="stroke:#000000; stroke-linecap:round; stroke-linejoin:round; stroke-width:8; stroke-opacity:1; fill:none" points="1813.4,147.058 1957.84,147.058 "/>
<path clip-path="url(#clip030)" d="M2000.33 139.176 L2000.33 143.203 Q1998.53 142.277 1996.58 141.815 Q1994.64 141.352 1992.56 141.352 Q1989.39 141.352 1987.79 142.324 Q1986.21 143.296 1986.21 145.24 Q1986.21 146.722 1987.35 147.578 Q1988.48 148.412 1991.91 149.176 L1993.37 149.5 Q1997.9 150.472 1999.8 152.254 Q2001.72 154.014 2001.72 157.185 Q2001.72 160.796 1998.85 162.902 Q1996.01 165.009 1991.01 165.009 Q1988.92 165.009 1986.65 164.592 Q1984.41 164.199 1981.91 163.388 L1981.91 158.99 Q1984.27 160.217 1986.56 160.842 Q1988.85 161.444 1991.1 161.444 Q1994.11 161.444 1995.73 160.426 Q1997.35 159.384 1997.35 157.509 Q1997.35 155.773 1996.17 154.847 Q1995.01 153.921 1991.05 153.064 L1989.57 152.717 Q1985.61 151.884 1983.85 150.171 Q1982.09 148.435 1982.09 145.426 Q1982.09 141.768 1984.69 139.778 Q1987.28 137.787 1992.05 137.787 Q1994.41 137.787 1996.49 138.134 Q1998.58 138.481 2000.33 139.176 Z" fill="#000000" fill-rule="nonzero" fill-opacity="1" /><path clip-path="url(#clip030)" d="M2008.51 138.412 L2012.77 138.412 L2012.77 164.338 L2008.51 164.338 L2008.51 138.412 M2008.51 128.319 L2012.77 128.319 L2012.77 133.713 L2008.51 133.713 L2008.51 128.319 Z" fill="#000000" fill-rule="nonzero" fill-opacity="1" /><path clip-path="url(#clip030)" d="M2038.74 151.074 Q2038.74 146.444 2036.82 143.898 Q2034.92 141.352 2031.47 141.352 Q2028.04 141.352 2026.12 143.898 Q2024.22 146.444 2024.22 151.074 Q2024.22 155.68 2026.12 158.226 Q2028.04 160.773 2031.47 160.773 Q2034.92 160.773 2036.82 158.226 Q2038.74 155.68 2038.74 151.074 M2043 161.12 Q2043 167.74 2040.06 170.958 Q2037.12 174.199 2031.05 174.199 Q2028.81 174.199 2026.82 173.851 Q2024.83 173.527 2022.95 172.833 L2022.95 168.689 Q2024.83 169.708 2026.65 170.194 Q2028.48 170.68 2030.38 170.68 Q2034.57 170.68 2036.65 168.481 Q2038.74 166.305 2038.74 161.884 L2038.74 159.777 Q2037.42 162.069 2035.36 163.203 Q2033.3 164.338 2030.43 164.338 Q2025.66 164.338 2022.74 160.703 Q2019.83 157.069 2019.83 151.074 Q2019.83 145.055 2022.74 141.421 Q2025.66 137.787 2030.43 137.787 Q2033.3 137.787 2035.36 138.921 Q2037.42 140.055 2038.74 142.347 L2038.74 138.412 L2043 138.412 L2043 161.12 Z" fill="#000000" fill-rule="nonzero" fill-opacity="1" /><path clip-path="url(#clip030)" d="M2073.32 148.689 L2073.32 164.338 L2069.06 164.338 L2069.06 148.828 Q2069.06 145.148 2067.63 143.319 Q2066.19 141.49 2063.32 141.49 Q2059.87 141.49 2057.88 143.69 Q2055.89 145.889 2055.89 149.685 L2055.89 164.338 L2051.61 164.338 L2051.61 138.412 L2055.89 138.412 L2055.89 142.44 Q2057.42 140.102 2059.48 138.944 Q2061.56 137.787 2064.27 137.787 Q2068.74 137.787 2071.03 140.565 Q2073.32 143.319 2073.32 148.689 Z" fill="#000000" fill-rule="nonzero" fill-opacity="1" /><path clip-path="url(#clip030)" d="M2093.6 151.305 Q2088.44 151.305 2086.45 152.486 Q2084.45 153.666 2084.45 156.514 Q2084.45 158.782 2085.94 160.125 Q2087.44 161.444 2090.01 161.444 Q2093.55 161.444 2095.68 158.944 Q2097.83 156.421 2097.83 152.254 L2097.83 151.305 L2093.6 151.305 M2102.09 149.546 L2102.09 164.338 L2097.83 164.338 L2097.83 160.402 Q2096.38 162.763 2094.2 163.898 Q2092.02 165.009 2088.88 165.009 Q2084.89 165.009 2082.53 162.787 Q2080.2 160.541 2080.2 156.791 Q2080.2 152.416 2083.11 150.194 Q2086.05 147.972 2091.86 147.972 L2097.83 147.972 L2097.83 147.555 Q2097.83 144.615 2095.89 143.018 Q2093.97 141.398 2090.47 141.398 Q2088.25 141.398 2086.14 141.93 Q2084.04 142.463 2082.09 143.527 L2082.09 139.592 Q2084.43 138.69 2086.63 138.25 Q2088.83 137.787 2090.91 137.787 Q2096.54 137.787 2099.32 140.703 Q2102.09 143.62 2102.09 149.546 Z" fill="#000000" fill-rule="nonzero" fill-opacity="1" /><path clip-path="url(#clip030)" d="M2110.87 128.319 L2115.13 128.319 L2115.13 164.338 L2110.87 164.338 L2110.87 128.319 Z" fill="#000000" fill-rule="nonzero" fill-opacity="1" /><polyline clip-path="url(#clip030)" style="stroke:#0000ff; stroke-linecap:round; stroke-linejoin:round; stroke-width:4; stroke-opacity:1; fill:none" points="1813.4,198.898 1957.84,198.898 "/>
<path clip-path="url(#clip030)" d="M1986.19 212.289 L1986.19 226.039 L1981.91 226.039 L1981.91 190.252 L1986.19 190.252 L1986.19 194.187 Q1987.53 191.872 1989.57 190.761 Q1991.63 189.627 1994.48 189.627 Q1999.2 189.627 2002.14 193.377 Q2005.1 197.127 2005.1 203.238 Q2005.1 209.349 2002.14 213.099 Q1999.2 216.849 1994.48 216.849 Q1991.63 216.849 1989.57 215.738 Q1987.53 214.603 1986.19 212.289 M2000.68 203.238 Q2000.68 198.539 1998.74 195.877 Q1996.82 193.192 1993.44 193.192 Q1990.06 193.192 1988.11 195.877 Q1986.19 198.539 1986.19 203.238 Q1986.19 207.937 1988.11 210.622 Q1990.06 213.284 1993.44 213.284 Q1996.82 213.284 1998.74 210.622 Q2000.68 207.937 2000.68 203.238 Z" fill="#000000" fill-rule="nonzero" fill-opacity="1" /><path clip-path="url(#clip030)" d="M2027.19 194.233 Q2026.47 193.817 2025.61 193.631 Q2024.78 193.423 2023.76 193.423 Q2020.15 193.423 2018.21 195.784 Q2016.28 198.122 2016.28 202.52 L2016.28 216.178 L2012 216.178 L2012 190.252 L2016.28 190.252 L2016.28 194.28 Q2017.63 191.918 2019.78 190.784 Q2021.93 189.627 2025.01 189.627 Q2025.45 189.627 2025.98 189.696 Q2026.52 189.743 2027.16 189.858 L2027.19 194.233 Z" fill="#000000" fill-rule="nonzero" fill-opacity="1" /><path clip-path="url(#clip030)" d="M2040.66 193.238 Q2037.23 193.238 2035.24 195.923 Q2033.25 198.585 2033.25 203.238 Q2033.25 207.891 2035.22 210.576 Q2037.21 213.238 2040.66 213.238 Q2044.06 213.238 2046.05 210.553 Q2048.04 207.867 2048.04 203.238 Q2048.04 198.631 2046.05 195.946 Q2044.06 193.238 2040.66 193.238 M2040.66 189.627 Q2046.21 189.627 2049.39 193.238 Q2052.56 196.849 2052.56 203.238 Q2052.56 209.604 2049.39 213.238 Q2046.21 216.849 2040.66 216.849 Q2035.08 216.849 2031.91 213.238 Q2028.76 209.604 2028.76 203.238 Q2028.76 196.849 2031.91 193.238 Q2035.08 189.627 2040.66 189.627 Z" fill="#000000" fill-rule="nonzero" fill-opacity="1" /><path clip-path="url(#clip030)" d="M2079.8 195.229 Q2081.4 192.358 2083.62 190.993 Q2085.84 189.627 2088.85 189.627 Q2092.9 189.627 2095.1 192.474 Q2097.3 195.298 2097.3 200.529 L2097.3 216.178 L2093.02 216.178 L2093.02 200.668 Q2093.02 196.942 2091.7 195.136 Q2090.38 193.33 2087.67 193.33 Q2084.36 193.33 2082.44 195.53 Q2080.52 197.729 2080.52 201.525 L2080.52 216.178 L2076.24 216.178 L2076.24 200.668 Q2076.24 196.918 2074.92 195.136 Q2073.6 193.33 2070.84 193.33 Q2067.58 193.33 2065.66 195.553 Q2063.74 197.752 2063.74 201.525 L2063.74 216.178 L2059.45 216.178 L2059.45 190.252 L2063.74 190.252 L2063.74 194.28 Q2065.2 191.895 2067.23 190.761 Q2069.27 189.627 2072.07 189.627 Q2074.89 189.627 2076.86 191.062 Q2078.85 192.497 2079.8 195.229 Z" fill="#000000" fill-rule="nonzero" fill-opacity="1" /><path clip-path="url(#clip030)" d="M2105.8 190.252 L2110.06 190.252 L2110.06 216.178 L2105.8 216.178 L2105.8 190.252 M2105.8 180.159 L2110.06 180.159 L2110.06 185.553 L2105.8 185.553 L2105.8 180.159 Z" fill="#000000" fill-rule="nonzero" fill-opacity="1" /><path clip-path="url(#clip030)" d="M2140.52 200.529 L2140.52 216.178 L2136.26 216.178 L2136.26 200.668 Q2136.26 196.988 2134.82 195.159 Q2133.39 193.33 2130.52 193.33 Q2127.07 193.33 2125.08 195.53 Q2123.09 197.729 2123.09 201.525 L2123.09 216.178 L2118.81 216.178 L2118.81 190.252 L2123.09 190.252 L2123.09 194.28 Q2124.62 191.942 2126.68 190.784 Q2128.76 189.627 2131.47 189.627 Q2135.94 189.627 2138.23 192.405 Q2140.52 195.159 2140.52 200.529 Z" fill="#000000" fill-rule="nonzero" fill-opacity="1" /><path clip-path="url(#clip030)" d="M2171.19 202.15 L2171.19 204.233 L2151.61 204.233 Q2151.89 208.631 2154.25 210.946 Q2156.63 213.238 2160.87 213.238 Q2163.32 213.238 2165.61 212.636 Q2167.93 212.034 2170.2 210.83 L2170.2 214.858 Q2167.9 215.83 2165.5 216.34 Q2163.09 216.849 2160.61 216.849 Q2154.41 216.849 2150.77 213.238 Q2147.16 209.627 2147.16 203.469 Q2147.16 197.104 2150.59 193.377 Q2154.04 189.627 2159.87 189.627 Q2165.1 189.627 2168.13 193.006 Q2171.19 196.363 2171.19 202.15 M2166.93 200.9 Q2166.88 197.405 2164.96 195.321 Q2163.07 193.238 2159.92 193.238 Q2156.35 193.238 2154.2 195.252 Q2152.07 197.266 2151.75 200.923 L2166.93 200.9 Z" fill="#000000" fill-rule="nonzero" fill-opacity="1" /><path clip-path="url(#clip030)" d="M2199.73 200.529 L2199.73 216.178 L2195.47 216.178 L2195.47 200.668 Q2195.47 196.988 2194.04 195.159 Q2192.6 193.33 2189.73 193.33 Q2186.28 193.33 2184.29 195.53 Q2182.3 197.729 2182.3 201.525 L2182.3 216.178 L2178.02 216.178 L2178.02 190.252 L2182.3 190.252 L2182.3 194.28 Q2183.83 191.942 2185.89 190.784 Q2187.97 189.627 2190.68 189.627 Q2195.15 189.627 2197.44 192.405 Q2199.73 195.159 2199.73 200.529 Z" fill="#000000" fill-rule="nonzero" fill-opacity="1" /><path clip-path="url(#clip030)" d="M2226.88 191.247 L2226.88 195.229 Q2225.08 194.233 2223.25 193.747 Q2221.44 193.238 2219.59 193.238 Q2215.45 193.238 2213.16 195.877 Q2210.87 198.492 2210.87 203.238 Q2210.87 207.983 2213.16 210.622 Q2215.45 213.238 2219.59 213.238 Q2221.44 213.238 2223.25 212.752 Q2225.08 212.242 2226.88 211.247 L2226.88 215.182 Q2225.1 216.016 2223.18 216.432 Q2221.28 216.849 2219.13 216.849 Q2213.27 216.849 2209.82 213.168 Q2206.38 209.488 2206.38 203.238 Q2206.38 196.895 2209.85 193.261 Q2213.34 189.627 2219.41 189.627 Q2221.38 189.627 2223.25 190.043 Q2225.13 190.437 2226.88 191.247 Z" fill="#000000" fill-rule="nonzero" fill-opacity="1" /><path clip-path="url(#clip030)" d="M2256.47 202.15 L2256.47 204.233 L2236.88 204.233 Q2237.16 208.631 2239.52 210.946 Q2241.91 213.238 2246.14 213.238 Q2248.6 213.238 2250.89 212.636 Q2253.2 212.034 2255.47 210.83 L2255.47 214.858 Q2253.18 215.83 2250.77 216.34 Q2248.37 216.849 2245.89 216.849 Q2239.69 216.849 2236.05 213.238 Q2232.44 209.627 2232.44 203.469 Q2232.44 197.104 2235.87 193.377 Q2239.32 189.627 2245.15 189.627 Q2250.38 189.627 2253.41 193.006 Q2256.47 196.363 2256.47 202.15 M2252.21 200.9 Q2252.16 197.405 2250.24 195.321 Q2248.34 193.238 2245.19 193.238 Q2241.63 193.238 2239.48 195.252 Q2237.35 197.266 2237.02 200.923 L2252.21 200.9 Z" fill="#000000" fill-rule="nonzero" fill-opacity="1" /><polyline clip-path="url(#clip030)" style="stroke:#808080; stroke-linecap:round; stroke-linejoin:round; stroke-width:4; stroke-opacity:1; fill:none" stroke-dasharray="16, 10" points="1813.4,250.738 1957.84,250.738 "/>
<path clip-path="url(#clip030)" d="M1981.91 242.092 L1986.17 242.092 L1991.49 262.323 L1996.79 242.092 L2001.82 242.092 L2007.14 262.323 L2012.44 242.092 L2016.7 242.092 L2009.92 268.018 L2004.9 268.018 L1999.32 246.768 L1993.71 268.018 L1988.69 268.018 L1981.91 242.092 Z" fill="#000000" fill-rule="nonzero" fill-opacity="1" /><path clip-path="url(#clip030)" d="M2023.16 242.092 L2027.42 242.092 L2027.42 268.018 L2023.16 268.018 L2023.16 242.092 M2023.16 231.999 L2027.42 231.999 L2027.42 237.393 L2023.16 237.393 L2023.16 231.999 Z" fill="#000000" fill-rule="nonzero" fill-opacity="1" /><path clip-path="url(#clip030)" d="M2053.39 246.027 L2053.39 231.999 L2057.65 231.999 L2057.65 268.018 L2053.39 268.018 L2053.39 264.129 Q2052.05 266.443 2049.99 267.578 Q2047.95 268.689 2045.08 268.689 Q2040.38 268.689 2037.42 264.939 Q2034.48 261.189 2034.48 255.078 Q2034.48 248.967 2037.42 245.217 Q2040.38 241.467 2045.08 241.467 Q2047.95 241.467 2049.99 242.601 Q2052.05 243.712 2053.39 246.027 M2038.88 255.078 Q2038.88 259.777 2040.8 262.462 Q2042.74 265.124 2046.12 265.124 Q2049.5 265.124 2051.45 262.462 Q2053.39 259.777 2053.39 255.078 Q2053.39 250.379 2051.45 247.717 Q2049.5 245.032 2046.12 245.032 Q2042.74 245.032 2040.8 247.717 Q2038.88 250.379 2038.88 255.078 Z" fill="#000000" fill-rule="nonzero" fill-opacity="1" /><path clip-path="url(#clip030)" d="M2070.64 234.731 L2070.64 242.092 L2079.41 242.092 L2079.41 245.402 L2070.64 245.402 L2070.64 259.476 Q2070.64 262.647 2071.49 263.55 Q2072.37 264.453 2075.03 264.453 L2079.41 264.453 L2079.41 268.018 L2075.03 268.018 Q2070.1 268.018 2068.23 266.189 Q2066.35 264.337 2066.35 259.476 L2066.35 245.402 L2063.23 245.402 L2063.23 242.092 L2066.35 242.092 L2066.35 234.731 L2070.64 234.731 Z" fill="#000000" fill-rule="nonzero" fill-opacity="1" /><path clip-path="url(#clip030)" d="M2106.56 252.369 L2106.56 268.018 L2102.3 268.018 L2102.3 252.508 Q2102.3 248.828 2100.87 246.999 Q2099.43 245.17 2096.56 245.17 Q2093.11 245.17 2091.12 247.37 Q2089.13 249.569 2089.13 253.365 L2089.13 268.018 L2084.85 268.018 L2084.85 231.999 L2089.13 231.999 L2089.13 246.12 Q2090.66 243.782 2092.72 242.624 Q2094.8 241.467 2097.51 241.467 Q2101.98 241.467 2104.27 244.245 Q2106.56 246.999 2106.56 252.369 Z" fill="#000000" fill-rule="nonzero" fill-opacity="1" /><circle clip-path="url(#clip030)" cx="1885.62" cy="302.578" r="20.48" fill="#ff0000" fill-rule="evenodd" fill-opacity="1" stroke="#000000" stroke-opacity="1" stroke-width="4.55111"/>
<path clip-path="url(#clip030)" d="M2002.26 298.909 Q2003.85 296.038 2006.08 294.673 Q2008.3 293.307 2011.31 293.307 Q2015.36 293.307 2017.56 296.154 Q2019.76 298.978 2019.76 304.209 L2019.76 319.858 L2015.47 319.858 L2015.47 304.348 Q2015.47 300.622 2014.15 298.816 Q2012.83 297.01 2010.13 297.01 Q2006.82 297.01 2004.9 299.21 Q2002.97 301.409 2002.97 305.205 L2002.97 319.858 L1998.69 319.858 L1998.69 304.348 Q1998.69 300.598 1997.37 298.816 Q1996.05 297.01 1993.3 297.01 Q1990.03 297.01 1988.11 299.233 Q1986.19 301.432 1986.19 305.205 L1986.19 319.858 L1981.91 319.858 L1981.91 293.932 L1986.19 293.932 L1986.19 297.96 Q1987.65 295.575 1989.69 294.441 Q1991.72 293.307 1994.52 293.307 Q1997.35 293.307 1999.32 294.742 Q2001.31 296.177 2002.26 298.909 Z" fill="#000000" fill-rule="nonzero" fill-opacity="1" /><path clip-path="url(#clip030)" d="M2040.03 306.825 Q2034.87 306.825 2032.88 308.006 Q2030.89 309.186 2030.89 312.034 Q2030.89 314.302 2032.37 315.645 Q2033.88 316.964 2036.45 316.964 Q2039.99 316.964 2042.12 314.464 Q2044.27 311.941 2044.27 307.774 L2044.27 306.825 L2040.03 306.825 M2048.53 305.066 L2048.53 319.858 L2044.27 319.858 L2044.27 315.922 Q2042.81 318.283 2040.64 319.418 Q2038.46 320.529 2035.31 320.529 Q2031.33 320.529 2028.97 318.307 Q2026.63 316.061 2026.63 312.311 Q2026.63 307.936 2029.55 305.714 Q2032.49 303.492 2038.3 303.492 L2044.27 303.492 L2044.27 303.075 Q2044.27 300.135 2042.33 298.538 Q2040.4 296.918 2036.91 296.918 Q2034.69 296.918 2032.58 297.45 Q2030.47 297.983 2028.53 299.047 L2028.53 295.112 Q2030.87 294.21 2033.07 293.77 Q2035.27 293.307 2037.35 293.307 Q2042.97 293.307 2045.75 296.223 Q2048.53 299.14 2048.53 305.066 Z" fill="#000000" fill-rule="nonzero" fill-opacity="1" /><path clip-path="url(#clip030)" d="M2078.85 293.932 L2069.48 306.547 L2079.34 319.858 L2074.32 319.858 L2066.77 309.672 L2059.22 319.858 L2054.2 319.858 L2064.27 306.293 L2055.06 293.932 L2060.08 293.932 L2066.95 303.168 L2073.83 293.932 L2078.85 293.932 Z" fill="#000000" fill-rule="nonzero" fill-opacity="1" /><path clip-path="url(#clip030)" d="M2085.36 293.932 L2089.62 293.932 L2089.62 319.858 L2085.36 319.858 L2085.36 293.932 M2085.36 283.839 L2089.62 283.839 L2089.62 289.233 L2085.36 289.233 L2085.36 283.839 Z" fill="#000000" fill-rule="nonzero" fill-opacity="1" /><path clip-path="url(#clip030)" d="M2118.71 298.909 Q2120.31 296.038 2122.53 294.673 Q2124.76 293.307 2127.76 293.307 Q2131.82 293.307 2134.01 296.154 Q2136.21 298.978 2136.21 304.209 L2136.21 319.858 L2131.93 319.858 L2131.93 304.348 Q2131.93 300.622 2130.61 298.816 Q2129.29 297.01 2126.58 297.01 Q2123.27 297.01 2121.35 299.21 Q2119.43 301.409 2119.43 305.205 L2119.43 319.858 L2115.15 319.858 L2115.15 304.348 Q2115.15 300.598 2113.83 298.816 Q2112.51 297.01 2109.76 297.01 Q2106.49 297.01 2104.57 299.233 Q2102.65 301.432 2102.65 305.205 L2102.65 319.858 L2098.37 319.858 L2098.37 293.932 L2102.65 293.932 L2102.65 297.96 Q2104.11 295.575 2106.14 294.441 Q2108.18 293.307 2110.98 293.307 Q2113.81 293.307 2115.77 294.742 Q2117.76 296.177 2118.71 298.909 Z" fill="#000000" fill-rule="nonzero" fill-opacity="1" /><path clip-path="url(#clip030)" d="M2156.49 306.825 Q2151.33 306.825 2149.34 308.006 Q2147.35 309.186 2147.35 312.034 Q2147.35 314.302 2148.83 315.645 Q2150.33 316.964 2152.9 316.964 Q2156.45 316.964 2158.57 314.464 Q2160.73 311.941 2160.73 307.774 L2160.73 306.825 L2156.49 306.825 M2164.99 305.066 L2164.99 319.858 L2160.73 319.858 L2160.73 315.922 Q2159.27 318.283 2157.09 319.418 Q2154.92 320.529 2151.77 320.529 Q2147.79 320.529 2145.43 318.307 Q2143.09 316.061 2143.09 312.311 Q2143.09 307.936 2146.01 305.714 Q2148.95 303.492 2154.76 303.492 L2160.73 303.492 L2160.73 303.075 Q2160.73 300.135 2158.78 298.538 Q2156.86 296.918 2153.37 296.918 Q2151.14 296.918 2149.04 297.45 Q2146.93 297.983 2144.99 299.047 L2144.99 295.112 Q2147.32 294.21 2149.52 293.77 Q2151.72 293.307 2153.81 293.307 Q2159.43 293.307 2162.21 296.223 Q2164.99 299.14 2164.99 305.066 Z" fill="#000000" fill-rule="nonzero" fill-opacity="1" /></svg>
