<?xml version="1.0" encoding="utf-8"?>
<svg xmlns="http://www.w3.org/2000/svg" xmlns:xlink="http://www.w3.org/1999/xlink" width="600" height="400" viewBox="0 0 2400 1600">
<defs>
  <clipPath id="clip130">
    <rect x="0" y="0" width="2400" height="1600"/>
  </clipPath>
</defs>
<path clip-path="url(#clip130)" d="M0 1600 L2400 1600 L2400 0 L0 0  Z" fill="#ffffff" fill-rule="evenodd" fill-opacity="1"/>
<defs>
  <clipPath id="clip131">
    <rect x="480" y="0" width="1681" height="1600"/>
  </clipPath>
</defs>
<path clip-path="url(#clip130)" d="M232.389 1423.18 L2352.76 1423.18 L2352.76 47.2441 L232.389 47.2441  Z" fill="#ffffff" fill-rule="evenodd" fill-opacity="1"/>
<defs>
  <clipPath id="clip132">
    <rect x="232" y="47" width="2121" height="1377"/>
  </clipPath>
</defs>
<polyline clip-path="url(#clip132)" style="stroke:#000000; stroke-linecap:round; stroke-linejoin:round; stroke-width:2; stroke-opacity:0.1; fill:none" points="514.66,1423.18 514.66,47.2441 "/>
<polyline clip-path="url(#clip132)" style="stroke:#000000; stroke-linecap:round; stroke-linejoin:round; stroke-width:2; stroke-opacity:0.1; fill:none" points="959.182,1423.18 959.182,47.2441 "/>
<polyline clip-path="url(#clip132)" style="stroke:#000000; stroke-linecap:round; stroke-linejoin:round; stroke-width:2; stroke-opacity:0.1; fill:none" points="1403.7,1423.18 1403.7,47.2441 "/>
<polyline clip-path="url(#clip132)" style="stroke:#000000; stroke-linecap:round; stroke-linejoin:round; stroke-width:2; stroke-opacity:0.1; fill:none" points="1848.22,1423.18 1848.22,47.2441 "/>
<polyline clip-path="url(#clip132)" style="stroke:#000000; stroke-linecap:round; stroke-linejoin:round; stroke-width:2; stroke-opacity:0.1; fill:none" points="2292.75,1423.18 2292.75,47.2441 "/>
<polyline clip-path="url(#clip132)" style="stroke:#000000; stroke-linecap:round; stroke-linejoin:round; stroke-width:2; stroke-opacity:0.1; fill:none" points="232.389,1174.26 2352.76,1174.26 "/>
<polyline clip-path="url(#clip132)" style="stroke:#000000; stroke-linecap:round; stroke-linejoin:round; stroke-width:2; stroke-opacity:0.1; fill:none" points="232.389,888.799 2352.76,888.799 "/>
<polyline clip-path="url(#clip132)" style="stroke:#000000; stroke-linecap:round; stroke-linejoin:round; stroke-width:2; stroke-opacity:0.1; fill:none" points="232.389,603.337 2352.76,603.337 "/>
<polyline clip-path="url(#clip132)" style="stroke:#000000; stroke-linecap:round; stroke-linejoin:round; stroke-width:2; stroke-opacity:0.1; fill:none" points="232.389,317.874 2352.76,317.874 "/>
<polyline clip-path="url(#clip130)" style="stroke:#000000; stroke-linecap:round; stroke-linejoin:round; stroke-width:4; stroke-opacity:1; fill:none" points="232.389,1423.18 2352.76,1423.18 "/>
<polyline clip-path="url(#clip130)" style="stroke:#000000; stroke-linecap:round; stroke-linejoin:round; stroke-width:4; stroke-opacity:1; fill:none" points="514.66,1423.18 514.66,1404.28 "/>
<polyline clip-path="url(#clip130)" style="stroke:#000000; stroke-linecap:round; stroke-linejoin:round; stroke-width:4; stroke-opacity:1; fill:none" points="959.182,1423.18 959.182,1404.28 "/>
<polyline clip-path="url(#clip130)" style="stroke:#000000; stroke-linecap:round; stroke-linejoin:round; stroke-width:4; stroke-opacity:1; fill:none" points="1403.7,1423.18 1403.7,1404.28 "/>
<polyline clip-path="url(#clip130)" style="stroke:#000000; stroke-linecap:round; stroke-linejoin:round; stroke-width:4; stroke-opacity:1; fill:none" points="1848.22,1423.18 1848.22,1404.28 "/>
<polyline clip-path="url(#clip130)" style="stroke:#000000; stroke-linecap:round; stroke-linejoin:round; stroke-width:4; stroke-opacity:1; fill:none" points="2292.75,1423.18 2292.75,1404.28 "/>
<path clip-path="url(#clip130)" d="M474.267 1481.64 L481.906 1481.64 L481.906 1455.28 L473.596 1456.95 L473.596 1452.69 L481.86 1451.02 L486.536 1451.02 L486.536 1481.64 L494.174 1481.64 L494.174 1485.58 L474.267 1485.58 L474.267 1481.64 Z" fill="#000000" fill-rule="nonzero" fill-opacity="1" /><path clip-path="url(#clip130)" d="M513.619 1454.1 Q510.008 1454.1 508.179 1457.66 Q506.373 1461.2 506.373 1468.33 Q506.373 1475.44 508.179 1479.01 Q510.008 1482.55 513.619 1482.55 Q517.253 1482.55 519.058 1479.01 Q520.887 1475.44 520.887 1468.33 Q520.887 1461.2 519.058 1457.66 Q517.253 1454.1 513.619 1454.1 M513.619 1450.39 Q519.429 1450.39 522.484 1455 Q525.563 1459.58 525.563 1468.33 Q525.563 1477.06 522.484 1481.67 Q519.429 1486.25 513.619 1486.25 Q507.809 1486.25 504.73 1481.67 Q501.674 1477.06 501.674 1468.33 Q501.674 1459.58 504.73 1455 Q507.809 1450.39 513.619 1450.39 Z" fill="#000000" fill-rule="nonzero" fill-opacity="1" /><path clip-path="url(#clip130)" d="M543.781 1454.1 Q540.169 1454.1 538.341 1457.66 Q536.535 1461.2 536.535 1468.33 Q536.535 1475.44 538.341 1479.01 Q540.169 1482.55 543.781 1482.55 Q547.415 1482.55 549.22 1479.01 Q551.049 1475.44 551.049 1468.33 Q551.049 1461.2 549.22 1457.66 Q547.415 1454.1 543.781 1454.1 M543.781 1450.39 Q549.591 1450.39 552.646 1455 Q555.725 1459.58 555.725 1468.33 Q555.725 1477.06 552.646 1481.67 Q549.591 1486.25 543.781 1486.25 Q537.97 1486.25 534.892 1481.67 Q531.836 1477.06 531.836 1468.33 Q531.836 1459.58 534.892 1455 Q537.97 1450.39 543.781 1450.39 Z" fill="#000000" fill-rule="nonzero" fill-opacity="1" /><path clip-path="url(#clip130)" d="M922.874 1481.64 L939.193 1481.64 L939.193 1485.58 L917.249 1485.58 L917.249 1481.64 Q919.911 1478.89 924.494 1474.26 Q929.101 1469.61 930.281 1468.27 Q932.527 1465.74 933.406 1464.01 Q934.309 1462.25 934.309 1460.56 Q934.309 1457.8 932.365 1456.07 Q930.443 1454.33 927.342 1454.33 Q925.142 1454.33 922.689 1455.09 Q920.258 1455.86 917.48 1457.41 L917.48 1452.69 Q920.305 1451.55 922.758 1450.97 Q925.212 1450.39 927.249 1450.39 Q932.619 1450.39 935.814 1453.08 Q939.008 1455.77 939.008 1460.26 Q939.008 1462.39 938.198 1464.31 Q937.411 1466.2 935.304 1468.8 Q934.726 1469.47 931.624 1472.69 Q928.522 1475.88 922.874 1481.64 Z" fill="#000000" fill-rule="nonzero" fill-opacity="1" /><path clip-path="url(#clip130)" d="M959.008 1454.1 Q955.397 1454.1 953.568 1457.66 Q951.763 1461.2 951.763 1468.33 Q951.763 1475.44 953.568 1479.01 Q955.397 1482.55 959.008 1482.55 Q962.642 1482.55 964.448 1479.01 Q966.277 1475.44 966.277 1468.33 Q966.277 1461.2 964.448 1457.66 Q962.642 1454.1 959.008 1454.1 M959.008 1450.39 Q964.818 1450.39 967.874 1455 Q970.952 1459.58 970.952 1468.33 Q970.952 1477.06 967.874 1481.67 Q964.818 1486.25 959.008 1486.25 Q953.198 1486.25 950.119 1481.67 Q947.064 1477.06 947.064 1468.33 Q947.064 1459.58 950.119 1455 Q953.198 1450.39 959.008 1450.39 Z" fill="#000000" fill-rule="nonzero" fill-opacity="1" /><path clip-path="url(#clip130)" d="M989.17 1454.1 Q985.559 1454.1 983.73 1457.66 Q981.925 1461.2 981.925 1468.33 Q981.925 1475.44 983.73 1479.01 Q985.559 1482.55 989.17 1482.55 Q992.804 1482.55 994.61 1479.01 Q996.438 1475.44 996.438 1468.33 Q996.438 1461.2 994.61 1457.66 Q992.804 1454.1 989.17 1454.1 M989.17 1450.39 Q994.98 1450.39 998.036 1455 Q1001.11 1459.58 1001.11 1468.33 Q1001.11 1477.06 998.036 1481.67 Q994.98 1486.25 989.17 1486.25 Q983.36 1486.25 980.281 1481.67 Q977.226 1477.06 977.226 1468.33 Q977.226 1459.58 980.281 1455 Q983.36 1450.39 989.17 1450.39 Z" fill="#000000" fill-rule="nonzero" fill-opacity="1" /><path clip-path="url(#clip130)" d="M1377.46 1466.95 Q1380.82 1467.66 1382.7 1469.93 Q1384.59 1472.2 1384.59 1475.53 Q1384.59 1480.65 1381.08 1483.45 Q1377.56 1486.25 1371.08 1486.25 Q1368.9 1486.25 1366.59 1485.81 Q1364.29 1485.39 1361.84 1484.54 L1361.84 1480.02 Q1363.78 1481.16 1366.1 1481.74 Q1368.41 1482.32 1370.94 1482.32 Q1375.34 1482.32 1377.63 1480.58 Q1379.94 1478.84 1379.94 1475.53 Q1379.94 1472.48 1377.79 1470.77 Q1375.66 1469.03 1371.84 1469.03 L1367.81 1469.03 L1367.81 1465.19 L1372.02 1465.19 Q1375.47 1465.19 1377.3 1463.82 Q1379.13 1462.43 1379.13 1459.84 Q1379.13 1457.18 1377.23 1455.77 Q1375.36 1454.33 1371.84 1454.33 Q1369.92 1454.33 1367.72 1454.75 Q1365.52 1455.16 1362.88 1456.04 L1362.88 1451.88 Q1365.54 1451.14 1367.86 1450.77 Q1370.2 1450.39 1372.26 1450.39 Q1377.58 1450.39 1380.68 1452.83 Q1383.78 1455.23 1383.78 1459.35 Q1383.78 1462.22 1382.14 1464.21 Q1380.5 1466.18 1377.46 1466.95 Z" fill="#000000" fill-rule="nonzero" fill-opacity="1" /><path clip-path="url(#clip130)" d="M1403.46 1454.1 Q1399.85 1454.1 1398.02 1457.66 Q1396.21 1461.2 1396.21 1468.33 Q1396.21 1475.44 1398.02 1479.01 Q1399.85 1482.55 1403.46 1482.55 Q1407.09 1482.55 1408.9 1479.01 Q1410.73 1475.44 1410.73 1468.33 Q1410.73 1461.2 1408.9 1457.66 Q1407.09 1454.1 1403.46 1454.1 M1403.46 1450.39 Q1409.27 1450.39 1412.33 1455 Q1415.4 1459.58 1415.4 1468.33 Q1415.4 1477.06 1412.33 1481.67 Q1409.27 1486.25 1403.46 1486.25 Q1397.65 1486.25 1394.57 1481.67 Q1391.52 1477.06 1391.52 1468.33 Q1391.52 1459.58 1394.57 1455 Q1397.65 1450.39 1403.46 1450.39 Z" fill="#000000" fill-rule="nonzero" fill-opacity="1" /><path clip-path="url(#clip130)" d="M1433.62 1454.1 Q1430.01 1454.1 1428.18 1457.66 Q1426.38 1461.2 1426.38 1468.33 Q1426.38 1475.44 1428.18 1479.01 Q1430.01 1482.55 1433.62 1482.55 Q1437.26 1482.55 1439.06 1479.01 Q1440.89 1475.44 1440.89 1468.33 Q1440.89 1461.2 1439.06 1457.66 Q1437.26 1454.1 1433.62 1454.1 M1433.62 1450.39 Q1439.43 1450.39 1442.49 1455 Q1445.57 1459.58 1445.57 1468.33 Q1445.57 1477.06 1442.49 1481.67 Q1439.43 1486.25 1433.62 1486.25 Q1427.81 1486.25 1424.73 1481.67 Q1421.68 1477.06 1421.68 1468.33 Q1421.68 1459.58 1424.73 1455 Q1427.81 1450.39 1433.62 1450.39 Z" fill="#000000" fill-rule="nonzero" fill-opacity="1" /><path clip-path="url(#clip130)" d="M1821.31 1455.09 L1809.51 1473.54 L1821.31 1473.54 L1821.31 1455.09 M1820.09 1451.02 L1825.97 1451.02 L1825.97 1473.54 L1830.9 1473.54 L1830.9 1477.43 L1825.97 1477.43 L1825.97 1485.58 L1821.31 1485.58 L1821.31 1477.43 L1805.71 1477.43 L1805.71 1472.92 L1820.09 1451.02 Z" fill="#000000" fill-rule="nonzero" fill-opacity="1" /><path clip-path="url(#clip130)" d="M1848.63 1454.1 Q1845.02 1454.1 1843.19 1457.66 Q1841.38 1461.2 1841.38 1468.33 Q1841.38 1475.44 1843.19 1479.01 Q1845.02 1482.55 1848.63 1482.55 Q1852.26 1482.55 1854.07 1479.01 Q1855.9 1475.44 1855.9 1468.33 Q1855.9 1461.2 1854.07 1457.66 Q1852.26 1454.1 1848.63 1454.1 M1848.63 1450.39 Q1854.44 1450.39 1857.5 1455 Q1860.57 1459.58 1860.57 1468.33 Q1860.57 1477.06 1857.5 1481.67 Q1854.44 1486.25 1848.63 1486.25 Q1842.82 1486.25 1839.74 1481.67 Q1836.68 1477.06 1836.68 1468.33 Q1836.68 1459.58 1839.74 1455 Q1842.82 1450.39 1848.63 1450.39 Z" fill="#000000" fill-rule="nonzero" fill-opacity="1" /><path clip-path="url(#clip130)" d="M1878.79 1454.1 Q1875.18 1454.1 1873.35 1457.66 Q1871.55 1461.2 1871.55 1468.33 Q1871.55 1475.44 1873.35 1479.01 Q1875.18 1482.55 1878.79 1482.55 Q1882.43 1482.55 1884.23 1479.01 Q1886.06 1475.44 1886.06 1468.33 Q1886.06 1461.2 1884.23 1457.66 Q1882.43 1454.1 1878.79 1454.1 M1878.79 1450.39 Q1884.6 1450.39 1887.66 1455 Q1890.74 1459.58 1890.74 1468.33 Q1890.74 1477.06 1887.66 1481.67 Q1884.6 1486.25 1878.79 1486.25 Q1872.98 1486.25 1869.9 1481.67 Q1866.85 1477.06 1866.85 1468.33 Q1866.85 1459.58 1869.9 1455 Q1872.98 1450.39 1878.79 1450.39 Z" fill="#000000" fill-rule="nonzero" fill-opacity="1" /><path clip-path="url(#clip130)" d="M2252.36 1451.02 L2270.72 1451.02 L2270.72 1454.96 L2256.65 1454.96 L2256.65 1463.43 Q2257.66 1463.08 2258.68 1462.92 Q2259.7 1462.73 2260.72 1462.73 Q2266.51 1462.73 2269.89 1465.9 Q2273.27 1469.08 2273.27 1474.49 Q2273.27 1480.07 2269.79 1483.17 Q2266.32 1486.25 2260 1486.25 Q2257.83 1486.25 2255.56 1485.88 Q2253.31 1485.51 2250.91 1484.77 L2250.91 1480.07 Q2252.99 1481.2 2255.21 1481.76 Q2257.43 1482.32 2259.91 1482.32 Q2263.91 1482.32 2266.25 1480.21 Q2268.59 1478.1 2268.59 1474.49 Q2268.59 1470.88 2266.25 1468.77 Q2263.91 1466.67 2259.91 1466.67 Q2258.04 1466.67 2256.16 1467.08 Q2254.31 1467.5 2252.36 1468.38 L2252.36 1451.02 Z" fill="#000000" fill-rule="nonzero" fill-opacity="1" /><path clip-path="url(#clip130)" d="M2292.48 1454.1 Q2288.87 1454.1 2287.04 1457.66 Q2285.23 1461.2 2285.23 1468.33 Q2285.23 1475.44 2287.04 1479.01 Q2288.87 1482.55 2292.48 1482.55 Q2296.11 1482.55 2297.92 1479.01 Q2299.75 1475.44 2299.75 1468.33 Q2299.75 1461.2 2297.92 1457.66 Q2296.11 1454.1 2292.48 1454.1 M2292.48 1450.39 Q2298.29 1450.39 2301.35 1455 Q2304.42 1459.58 2304.42 1468.33 Q2304.42 1477.06 2301.35 1481.67 Q2298.29 1486.25 2292.48 1486.25 Q2286.67 1486.25 2283.59 1481.67 Q2280.53 1477.06 2280.53 1468.33 Q2280.53 1459.58 2283.59 1455 Q2286.67 1450.39 2292.48 1450.39 Z" fill="#000000" fill-rule="nonzero" fill-opacity="1" /><path clip-path="url(#clip130)" d="M2322.64 1454.1 Q2319.03 1454.1 2317.2 1457.66 Q2315.4 1461.2 2315.4 1468.33 Q2315.4 1475.44 2317.2 1479.01 Q2319.03 1482.55 2322.64 1482.55 Q2326.28 1482.55 2328.08 1479.01 Q2329.91 1475.44 2329.91 1468.33 Q2329.91 1461.2 2328.08 1457.66 Q2326.28 1454.1 2322.64 1454.1 M2322.64 1450.39 Q2328.45 1450.39 2331.51 1455 Q2334.59 1459.58 2334.59 1468.33 Q2334.59 1477.06 2331.51 1481.67 Q2328.45 1486.25 2322.64 1486.25 Q2316.83 1486.25 2313.75 1481.67 Q2310.7 1477.06 2310.7 1468.33 Q2310.7 1459.58 2313.75 1455 Q2316.83 1450.39 2322.64 1450.39 Z" fill="#000000" fill-rule="nonzero" fill-opacity="1" /><path clip-path="url(#clip130)" d="M1274.4 1520.52 L1281.31 1520.52 L1293.11 1538.19 L1304.99 1520.52 L1311.89 1520.52 L1296.61 1543.34 L1312.91 1568.04 L1306 1568.04 L1292.64 1547.83 L1279.17 1568.04 L1272.23 1568.04 L1289.2 1542.68 L1274.4 1520.52 Z" fill="#000000" fill-rule="nonzero" fill-opacity="1" /><polyline clip-path="url(#clip130)" style="stroke:#000000; stroke-linecap:round; stroke-linejoin:round; stroke-width:4; stroke-opacity:1; fill:none" points="232.389,1423.18 232.389,47.2441 "/>
<polyline clip-path="url(#clip130)" style="stroke:#000000; stroke-linecap:round; stroke-linejoin:round; stroke-width:4; stroke-opacity:1; fill:none" points="232.389,1174.26 251.287,1174.26 "/>
<polyline clip-path="url(#clip130)" style="stroke:#000000; stroke-linecap:round; stroke-linejoin:round; stroke-width:4; stroke-opacity:1; fill:none" points="232.389,888.799 251.287,888.799 "/>
<polyline clip-path="url(#clip130)" style="stroke:#000000; stroke-linecap:round; stroke-linejoin:round; stroke-width:4; stroke-opacity:1; fill:none" points="232.389,603.337 251.287,603.337 "/>
<polyline clip-path="url(#clip130)" style="stroke:#000000; stroke-linecap:round; stroke-linejoin:round; stroke-width:4; stroke-opacity:1; fill:none" points="232.389,317.874 251.287,317.874 "/>
<path clip-path="url(#clip130)" d="M149.306 1187.61 L165.626 1187.61 L165.626 1191.54 L143.681 1191.54 L143.681 1187.61 Q146.343 1184.85 150.927 1180.22 Q155.533 1175.57 156.714 1174.23 Q158.959 1171.7 159.839 1169.97 Q160.741 1168.21 160.741 1166.52 Q160.741 1163.76 158.797 1162.03 Q156.876 1160.29 153.774 1160.29 Q151.575 1160.29 149.121 1161.06 Q146.691 1161.82 143.913 1163.37 L143.913 1158.65 Q146.737 1157.51 149.191 1156.93 Q151.644 1156.36 153.681 1156.36 Q159.052 1156.36 162.246 1159.04 Q165.44 1161.73 165.44 1166.22 Q165.44 1168.35 164.63 1170.27 Q163.843 1172.17 161.737 1174.76 Q161.158 1175.43 158.056 1178.65 Q154.954 1181.84 149.306 1187.61 Z" fill="#000000" fill-rule="nonzero" fill-opacity="1" /><path clip-path="url(#clip130)" d="M175.487 1156.98 L193.843 1156.98 L193.843 1160.92 L179.769 1160.92 L179.769 1169.39 Q180.788 1169.04 181.806 1168.88 Q182.825 1168.69 183.843 1168.69 Q189.63 1168.69 193.01 1171.87 Q196.389 1175.04 196.389 1180.45 Q196.389 1186.03 192.917 1189.13 Q189.445 1192.21 183.126 1192.21 Q180.95 1192.21 178.681 1191.84 Q176.436 1191.47 174.028 1190.73 L174.028 1186.03 Q176.112 1187.17 178.334 1187.72 Q180.556 1188.28 183.033 1188.28 Q187.038 1188.28 189.375 1186.17 Q191.713 1184.06 191.713 1180.45 Q191.713 1176.84 189.375 1174.74 Q187.038 1172.63 183.033 1172.63 Q181.158 1172.63 179.283 1173.05 Q177.431 1173.46 175.487 1174.34 L175.487 1156.98 Z" fill="#000000" fill-rule="nonzero" fill-opacity="1" /><path clip-path="url(#clip130)" d="M144.329 871.519 L162.686 871.519 L162.686 875.454 L148.612 875.454 L148.612 883.926 Q149.63 883.579 150.649 883.417 Q151.667 883.232 152.686 883.232 Q158.473 883.232 161.852 886.403 Q165.232 889.574 165.232 894.991 Q165.232 900.57 161.76 903.672 Q158.288 906.75 151.968 906.75 Q149.792 906.75 147.524 906.38 Q145.279 906.01 142.871 905.269 L142.871 900.57 Q144.954 901.704 147.177 902.26 Q149.399 902.815 151.876 902.815 Q155.88 902.815 158.218 900.709 Q160.556 898.602 160.556 894.991 Q160.556 891.38 158.218 889.273 Q155.88 887.167 151.876 887.167 Q150.001 887.167 148.126 887.584 Q146.274 888 144.329 888.88 L144.329 871.519 Z" fill="#000000" fill-rule="nonzero" fill-opacity="1" /><path clip-path="url(#clip130)" d="M184.445 874.598 Q180.834 874.598 179.005 878.162 Q177.2 881.704 177.2 888.834 Q177.2 895.94 179.005 899.505 Q180.834 903.047 184.445 903.047 Q188.079 903.047 189.885 899.505 Q191.713 895.94 191.713 888.834 Q191.713 881.704 189.885 878.162 Q188.079 874.598 184.445 874.598 M184.445 870.894 Q190.255 870.894 193.311 875.5 Q196.389 880.084 196.389 888.834 Q196.389 897.56 193.311 902.167 Q190.255 906.75 184.445 906.75 Q178.635 906.75 175.556 902.167 Q172.501 897.56 172.501 888.834 Q172.501 880.084 175.556 875.5 Q178.635 870.894 184.445 870.894 Z" fill="#000000" fill-rule="nonzero" fill-opacity="1" /><path clip-path="url(#clip130)" d="M144.098 586.057 L166.32 586.057 L166.32 588.047 L153.774 620.617 L148.89 620.617 L160.695 589.992 L144.098 589.992 L144.098 586.057 Z" fill="#000000" fill-rule="nonzero" fill-opacity="1" /><path clip-path="url(#clip130)" d="M175.487 586.057 L193.843 586.057 L193.843 589.992 L179.769 589.992 L179.769 598.464 Q180.788 598.117 181.806 597.955 Q182.825 597.77 183.843 597.77 Q189.63 597.77 193.01 600.941 Q196.389 604.112 196.389 609.529 Q196.389 615.107 192.917 618.209 Q189.445 621.288 183.126 621.288 Q180.95 621.288 178.681 620.918 Q176.436 620.547 174.028 619.806 L174.028 615.107 Q176.112 616.242 178.334 616.797 Q180.556 617.353 183.033 617.353 Q187.038 617.353 189.375 615.246 Q191.713 613.14 191.713 609.529 Q191.713 605.918 189.375 603.811 Q187.038 601.705 183.033 601.705 Q181.158 601.705 179.283 602.121 Q177.431 602.538 175.487 603.418 L175.487 586.057 Z" fill="#000000" fill-rule="nonzero" fill-opacity="1" /><path clip-path="url(#clip130)" d="M114.931 331.219 L122.57 331.219 L122.57 304.854 L114.26 306.52 L114.26 302.261 L122.524 300.594 L127.2 300.594 L127.2 331.219 L134.839 331.219 L134.839 335.154 L114.931 335.154 L114.931 331.219 Z" fill="#000000" fill-rule="nonzero" fill-opacity="1" /><path clip-path="url(#clip130)" d="M154.283 303.673 Q150.672 303.673 148.843 307.238 Q147.038 310.779 147.038 317.909 Q147.038 325.015 148.843 328.58 Q150.672 332.122 154.283 332.122 Q157.917 332.122 159.723 328.58 Q161.552 325.015 161.552 317.909 Q161.552 310.779 159.723 307.238 Q157.917 303.673 154.283 303.673 M154.283 299.969 Q160.093 299.969 163.149 304.576 Q166.227 309.159 166.227 317.909 Q166.227 326.636 163.149 331.242 Q160.093 335.826 154.283 335.826 Q148.473 335.826 145.394 331.242 Q142.339 326.636 142.339 317.909 Q142.339 309.159 145.394 304.576 Q148.473 299.969 154.283 299.969 Z" fill="#000000" fill-rule="nonzero" fill-opacity="1" /><path clip-path="url(#clip130)" d="M184.445 303.673 Q180.834 303.673 179.005 307.238 Q177.2 310.779 177.2 317.909 Q177.2 325.015 179.005 328.58 Q180.834 332.122 184.445 332.122 Q188.079 332.122 189.885 328.58 Q191.713 325.015 191.713 317.909 Q191.713 310.779 189.885 307.238 Q188.079 303.673 184.445 303.673 M184.445 299.969 Q190.255 299.969 193.311 304.576 Q196.389 309.159 196.389 317.909 Q196.389 326.636 193.311 331.242 Q190.255 335.826 184.445 335.826 Q178.635 335.826 175.556 331.242 Q172.501 326.636 172.501 317.909 Q172.501 309.159 175.556 304.576 Q178.635 299.969 184.445 299.969 Z" fill="#000000" fill-rule="nonzero" fill-opacity="1" /><path clip-path="url(#clip130)" d="M16.4842 755.248 L16.4842 748.341 L36.0269 735.164 L16.4842 722.083 L16.4842 715.176 L41.3741 731.981 L64.0042 731.981 L64.0042 738.443 L41.3741 738.443 L16.4842 755.248 Z" fill="#000000" fill-rule="nonzero" fill-opacity="1" /><polyline clip-path="url(#clip132)" style="stroke:#009af9; stroke-linecap:round; stroke-linejoin:round; stroke-width:4; stroke-opacity:1; fill:none" points="292.4,1287.93 296.845,1325.64 301.29,1325.05 305.735,1292.82 310.181,1300.41 314.626,1305.04 319.071,1309.76 323.516,1281.13 327.961,1313.97 332.407,1282.33 336.852,1282.78 341.297,1269.95 345.742,1315.39 350.187,1295.19 354.633,1266.48 359.078,1259.54 363.523,1254.82 367.968,1273.26 372.414,1257.42 376.859,1278.09 381.304,1250.45 385.749,1311 390.194,1278.16 394.64,1268.1 399.085,1264.64 403.53,1301.44 407.975,1225.75 412.42,1259.88 416.866,1274.22 421.311,1231.72 425.756,1203.78 430.201,1234.87 434.647,1245.37 439.092,1246.16 443.537,1242.67 447.982,1250.04 452.427,1236.05 456.873,1244.2 461.318,1265.98 465.763,1229.34 470.208,1243.42 474.653,1232.25 479.099,1184.77 483.544,1244.64 487.989,1236.91 492.434,1228.47 496.88,1248.81 501.325,1255.91 505.77,1250.96 510.215,1213.88 514.66,1237.98 519.106,1246.74 523.551,1273.2 527.996,1254.52 532.441,1239.31 536.886,1260.37 541.332,1241.17 545.777,1213.75 550.222,1237.06 554.667,1263.95 559.112,1224.17 563.558,1180.25 568.003,1241.21 572.448,1254.45 576.893,1234.39 581.339,1265.74 585.784,1250.85 590.229,1247.86 594.674,1249.52 599.119,1227.49 603.565,1217.16 608.01,1189.49 612.455,1237.9 616.9,1208.3 621.345,1184.38 625.791,1198.77 630.236,1233.81 634.681,1233.03 639.126,1190.33 643.572,1192.16 648.017,1189.12 652.462,1217.25 656.907,1138.38 661.352,1158.12 665.798,1191.05 670.243,1113.54 674.688,1117.49 679.133,1122.78 683.578,1103.87 688.024,1043.87 692.469,1069.53 696.914,1119.03 701.359,1120.67 705.805,1078.06 710.25,1052.83 714.695,1052.23 719.14,1038.67 723.585,1016.42 728.031,1042.89 732.476,1065.66 736.921,1035.55 741.366,1033.35 745.811,1029.27 750.257,1050.57 754.702,1042.8 759.147,1094.38 763.592,1032.06 768.038,1082.16 772.483,1086.48 776.928,1105.71 781.373,1081.96 785.818,1119.87 790.264,1169.78 794.709,1162 799.154,1142.83 803.599,1191.48 808.044,1231.79 812.49,1218.12 816.935,1199.28 821.38,1214.58 825.825,1224.31 830.27,1265.45 834.716,1222.67 839.161,1244.44 843.606,1284.75 848.051,1296.76 852.497,1246.39 856.942,1253.25 861.387,1346.97 865.832,1320.43 870.277,1274.77 874.723,1273.8 879.168,1267.61 883.613,1284.19 888.058,1308.64 892.503,1319.64 896.949,1270.6 901.394,1310.58 905.839,1336.49 910.284,1265.58 914.73,1328.55 919.175,1301.49 923.62,1334.31 928.065,1316.47 932.51,1280.08 936.956,1295.73 941.401,1371.88 945.846,1289.53 950.291,1339.6 954.736,1306.01 959.182,1330.8 963.627,1313.81 968.072,1348.42 972.517,1307.68 976.963,1332.57 981.408,1355.04 985.853,1328.85 990.298,1319.7 994.743,1301.18 999.189,1316.73 1003.63,1325.28 1008.08,1343.06 1012.52,1340.63 1016.97,1306.03 1021.41,1316.55 1025.86,1384.24 1030.31,1302.5 1034.75,1291.24 1039.2,1292.08 1043.64,1320.32 1048.09,1317.92 1052.53,1280.61 1056.98,1330.09 1061.42,1280.61 1065.87,1302.16 1070.31,1313.09 1074.76,1318.89 1079.2,1281.29 1083.65,1347.5 1088.09,1277.38 1092.54,1295.8 1096.98,1296.42 1101.43,1328.81 1105.87,1280.41 1110.32,1306.8 1114.76,1282.64 1119.21,1272.88 1123.65,1297.95 1128.1,1231.44 1132.54,1258.15 1136.99,1202.38 1141.44,1209.73 1145.88,1073.2 1150.33,1024.7 1154.77,857.637 1159.22,740.44 1163.66,554.238 1168.11,409.659 1172.55,278.062 1177,158.85 1181.44,86.1857 1185.89,169.34 1190.33,259.606 1194.78,398.628 1199.22,557.881 1203.67,661.041 1208.11,834.153 1212.56,961.844 1217,1022.05 1221.45,1178.73 1225.89,1166.63 1230.34,1254.56 1234.78,1226.35 1239.23,1251.96 1243.68,1239.06 1248.12,1267.22 1252.57,1263.74 1257.01,1249.66 1261.46,1261.26 1265.9,1240.73 1270.35,1226.66 1274.79,1190.35 1279.24,1197.16 1283.68,1251.42 1288.13,1237.89 1292.57,1179.3 1297.02,1193.16 1301.46,1198.68 1305.91,1178.13 1310.35,1213.12 1314.8,1244.9 1319.24,1216.92 1323.69,1184.97 1328.13,1179.63 1332.58,1211.84 1337.02,1186.6 1341.47,1129.77 1345.92,1188.23 1350.36,1158.39 1354.81,1177.24 1359.25,1188.46 1363.7,1150.38 1368.14,1145.83 1372.59,1191.37 1377.03,1176.71 1381.48,1147.97 1385.92,1125.99 1390.37,1099.46 1394.81,1115.28 1399.26,1137.31 1403.7,1124.91 1408.15,1105.03 1412.59,1122.2 1417.04,1097.86 1421.48,1122.1 1425.93,1060.06 1430.37,1096.14 1434.82,1061.9 1439.26,1104.89 1443.71,1076.47 1448.16,1048.79 1452.6,1057.26 1457.05,1044.37 1461.49,1012.22 1465.94,995.84 1470.38,1024.97 1474.83,972.834 1479.27,1000.71 1483.72,1000.74 1488.16,976.843 1492.61,979.193 1497.05,959.403 1501.5,951.2 1505.94,931.667 1510.39,929.271 1514.83,941.277 1519.28,942.38 1523.72,917.656 1528.17,933.933 1532.61,895.448 1537.06,915.944 1541.5,835.298 1545.95,885.044 1550.39,851.726 1554.84,854.701 1559.29,798.716 1563.73,852.469 1568.18,818.989 1572.62,826.945 1577.07,796.461 1581.51,754.175 1585.96,811.893 1590.4,764.23 1594.85,772.544 1599.29,807.569 1603.74,757.721 1608.18,770.357 1612.63,765.227 1617.07,768.21 1621.52,722.687 1625.96,723.923 1630.41,750.076 1634.85,766.126 1639.3,746.604 1643.74,718.142 1648.19,778.483 1652.63,694.991 1657.08,762 1661.53,745.052 1665.97,742.845 1670.42,751.434 1674.86,711.575 1679.31,752.463 1683.75,739.623 1688.2,763.848 1692.64,715.417 1697.09,777.188 1701.53,768.867 1705.98,766.261 1710.42,794.664 1714.87,776.821 1719.31,798.414 1723.76,784.33 1728.2,752.232 1732.65,827.291 1737.09,731.117 1741.54,782.453 1745.98,738.864 1750.43,809.542 1754.87,790.788 1759.32,784.961 1763.77,727.336 1768.21,828.232 1772.66,822.736 1777.1,805.423 1781.55,815.918 1785.99,860.464 1790.44,836.713 1794.88,814.097 1799.33,837.138 1803.77,840.148 1808.22,828.453 1812.66,864.635 1817.11,872.911 1821.55,867.233 1826,845.501 1830.44,822.224 1834.89,877.115 1839.33,894.401 1843.78,781.688 1848.22,840.961 1852.67,838.687 1857.11,841.518 1861.56,854.107 1866.01,796.398 1870.45,886.901 1874.9,847.663 1879.34,900.952 1883.79,870.816 1888.23,887.94 1892.68,913.98 1897.12,842.817 1901.57,849.938 1906.01,864.164 1910.46,851.909 1914.9,849.569 1919.35,868.371 1923.79,888.185 1928.24,892.873 1932.68,885.639 1937.13,864.006 1941.57,888.371 1946.02,902.61 1950.46,847.94 1954.91,883.516 1959.35,858.128 1963.8,872.945 1968.24,911.795 1972.69,865.795 1977.14,886.814 1981.58,904.996 1986.03,887.046 1990.47,886.24 1994.92,865.816 1999.36,919.746 2003.81,891.698 2008.25,892.81 2012.7,857.89 2017.14,863.057 2021.59,891.226 2026.03,895.326 2030.48,897.281 2034.92,943.093 2039.37,895.018 2043.81,866.704 2048.26,884.28 2052.7,887.398 2057.15,877.851 2061.59,900.241 2066.04,615.025 2070.48,275.007 2074.93,595.545 2079.38,819.279 2083.82,837.177 2088.27,734.797 2092.71,730.804 2097.16,682.76 2101.6,644.854 2106.05,643.713 2110.49,563.628 2114.94,566.794 2119.38,604.771 2123.83,592.784 2128.27,666.01 2132.72,711 2137.16,728.999 2141.61,776.296 2146.05,808.805 2150.5,857.445 2154.94,875.842 2159.39,867.245 2163.83,912.34 2168.28,898.491 2172.72,917.856 2177.17,924.087 2181.62,908.681 2186.06,908.484 2190.51,929.914 2194.95,898.171 2199.4,953.364 2203.84,946.747 2208.29,940.636 2212.73,948.39 2217.18,921.974 2221.62,905.83 2226.07,924.973 2230.51,949.85 2234.96,965.628 2239.4,932.023 2243.85,950.131 2248.29,929.778 2252.74,910.08 2257.18,978.466 2261.63,967.107 2266.07,973.345 2270.52,940.284 2274.96,940.866 2279.41,927.219 2283.86,944.555 2288.3,942.442 2292.75,923.903 "/>
<polyline clip-path="url(#clip132)" style="stroke:#e26f46; stroke-linecap:round; stroke-linejoin:round; stroke-width:4; stroke-opacity:1; fill:none" points="292.4,1282.05 296.845,1280.75 301.29,1279.51 305.735,1278.31 310.181,1277.16 314.626,1276.06 319.071,1275 323.516,1273.99 327.961,1273.02 332.407,1272.1 336.852,1271.23 341.297,1270.39 345.742,1269.6 350.187,1268.86 354.633,1268.15 359.078,1267.49 363.523,1266.86 367.968,1266.28 372.414,1265.74 376.859,1265.23 381.304,1264.76 385.749,1264.34 390.194,1263.94 394.64,1263.59 399.085,1263.27 403.53,1262.99 407.975,1262.74 412.42,1262.53 416.866,1262.35 421.311,1262.2 425.756,1262.09 430.201,1262.01 434.647,1261.96 439.092,1261.94 443.537,1261.95 447.982,1261.99 452.427,1262.06 456.873,1262.16 461.318,1262.29 465.763,1262.44 470.208,1262.62 474.653,1262.83 479.099,1263.07 483.544,1263.33 487.989,1263.61 492.434,1263.92 496.88,1264.25 501.325,1264.61 505.77,1264.98 510.215,1265.38 514.66,1265.8 519.106,1266.25 523.551,1266.71 527.996,1267.19 532.441,1267.69 536.886,1268.21 541.332,1268.75 545.777,1269.3 550.222,1269.87 554.667,1270.46 559.112,1271.06 563.558,1271.68 568.003,1272.31 572.448,1272.96 576.893,1273.61 581.339,1274.29 585.784,1274.97 590.229,1275.67 594.674,1276.37 599.119,1277.09 603.565,1277.82 608.01,1278.55 612.455,1279.3 616.9,1280.05 621.345,1280.81 625.791,1281.58 630.236,1282.36 634.681,1283.14 639.126,1283.92 643.572,1284.71 648.017,1285.51 652.462,1286.31 656.907,1287.11 661.352,1287.91 665.798,1288.72 670.243,1289.53 674.688,1290.33 679.133,1291.14 683.578,1291.95 688.024,1292.76 692.469,1293.56 696.914,1294.37 701.359,1295.17 705.805,1295.96 710.25,1296.76 714.695,1297.55 719.14,1298.33 723.585,1299.11 728.031,1299.88 732.476,1300.65 736.921,1301.41 741.366,1302.16 745.811,1302.9 750.257,1303.63 754.702,1304.36 759.147,1305.07 763.592,1305.78 768.038,1306.47 772.483,1307.15 776.928,1307.82 781.373,1308.47 785.818,1309.12 790.264,1309.74 794.709,1310.36 799.154,1310.95 803.599,1311.54 808.044,1312.1 812.49,1312.65 816.935,1313.18 821.38,1313.7 825.825,1314.19 830.27,1314.67 834.716,1315.12 839.161,1315.56 843.606,1315.97 848.051,1316.36 852.497,1316.74 856.942,1317.08 861.387,1317.41 865.832,1317.71 870.277,1317.99 874.723,1318.24 879.168,1318.47 883.613,1318.67 888.058,1318.84 892.503,1318.99 896.949,1319.11 901.394,1319.2 905.839,1319.26 910.284,1319.29 914.73,1319.3 919.175,1319.27 923.62,1319.21 928.065,1319.12 932.51,1318.99 936.956,1318.84 941.401,1318.65 945.846,1318.42 950.291,1318.16 954.736,1317.87 959.182,1317.54 963.627,1317.18 968.072,1316.77 972.517,1316.33 976.963,1315.86 981.408,1315.35 985.853,1314.8 990.298,1314.22 994.743,1313.6 999.189,1312.95 1003.63,1312.26 1008.08,1311.54 1012.52,1310.79 1016.97,1310 1021.41,1309.18 1025.86,1308.33 1030.31,1307.44 1034.75,1306.53 1039.2,1305.58 1043.64,1304.6 1048.09,1303.58 1052.53,1302.54 1056.98,1301.47 1061.42,1300.36 1065.87,1299.23 1070.31,1298.07 1074.76,1296.87 1079.2,1295.65 1083.65,1294.4 1088.09,1293.12 1092.54,1291.82 1096.98,1290.48 1101.43,1289.12 1105.87,1287.73 1110.32,1286.32 1114.76,1284.87 1119.21,1283.41 1123.65,1281.91 1128.1,1280.39 1132.54,1278.85 1136.99,1277.28 1141.44,1275.68 1145.88,1274.06 1150.33,1272.42 1154.77,1270.76 1159.22,1269.07 1163.66,1267.36 1168.11,1265.62 1172.55,1263.86 1177,1262.08 1181.44,1260.28 1185.89,1258.46 1190.33,1256.62 1194.78,1254.75 1199.22,1252.87 1203.67,1250.96 1208.11,1249.04 1212.56,1247.1 1217,1245.13 1221.45,1243.15 1225.89,1241.15 1230.34,1239.13 1234.78,1237.09 1239.23,1235.04 1243.68,1232.97 1248.12,1230.88 1252.57,1228.77 1257.01,1226.65 1261.46,1224.51 1265.9,1222.36 1270.35,1220.19 1274.79,1218.01 1279.24,1215.81 1283.68,1213.6 1288.13,1211.37 1292.57,1209.13 1297.02,1206.87 1301.46,1204.61 1305.91,1202.33 1310.35,1200.03 1314.8,1197.73 1319.24,1195.41 1323.69,1193.08 1328.13,1190.74 1332.58,1188.39 1337.02,1186.03 1341.47,1183.66 1345.92,1181.28 1350.36,1178.89 1354.81,1176.48 1359.25,1174.07 1363.7,1171.66 1368.14,1169.23 1372.59,1166.79 1377.03,1164.35 1381.48,1161.9 1385.92,1159.44 1390.37,1156.98 1394.81,1154.51 1399.26,1152.03 1403.7,1149.55 1408.15,1147.06 1412.59,1144.56 1417.04,1142.06 1421.48,1139.56 1425.93,1137.05 1430.37,1134.54 1434.82,1132.02 1439.26,1129.5 1443.71,1126.98 1448.16,1124.46 1452.6,1121.93 1457.05,1119.4 1461.49,1116.87 1465.94,1114.34 1470.38,1111.8 1474.83,1109.27 1479.27,1106.73 1483.72,1104.2 1488.16,1101.66 1492.61,1099.13 1497.05,1096.59 1501.5,1094.06 1505.94,1091.53 1510.39,1089 1514.83,1086.47 1519.28,1083.94 1523.72,1081.42 1528.17,1078.9 1532.61,1076.38 1537.06,1073.87 1541.5,1071.36 1545.95,1068.86 1550.39,1066.36 1554.84,1063.86 1559.29,1061.37 1563.73,1058.88 1568.18,1056.4 1572.62,1053.93 1577.07,1051.46 1581.51,1049 1585.96,1046.55 1590.4,1044.11 1594.85,1041.67 1599.29,1039.24 1603.74,1036.82 1608.18,1034.4 1612.63,1032 1617.07,1029.6 1621.52,1027.22 1625.96,1024.84 1630.41,1022.48 1634.85,1020.12 1639.3,1017.78 1643.74,1015.45 1648.19,1013.13 1652.63,1010.82 1657.08,1008.52 1661.53,1006.24 1665.97,1003.96 1670.42,1001.71 1674.86,999.46 1679.31,997.228 1683.75,995.011 1688.2,992.807 1692.64,990.618 1697.09,988.445 1701.53,986.286 1705.98,984.143 1710.42,982.016 1714.87,979.905 1719.31,977.811 1723.76,975.734 1728.2,973.673 1732.65,971.631 1737.09,969.606 1741.54,967.599 1745.98,965.611 1750.43,963.641 1754.87,961.691 1759.32,959.759 1763.77,957.848 1768.21,955.957 1772.66,954.085 1777.1,952.235 1781.55,950.406 1785.99,948.597 1790.44,946.811 1794.88,945.046 1799.33,943.304 1803.77,941.584 1808.22,939.887 1812.66,938.213 1817.11,936.563 1821.55,934.936 1826,933.334 1830.44,931.756 1834.89,930.203 1839.33,928.675 1843.78,927.172 1848.22,925.695 1852.67,924.244 1857.11,922.819 1861.56,921.421 1866.01,920.051 1870.45,918.707 1874.9,917.391 1879.34,916.103 1883.79,914.843 1888.23,913.611 1892.68,912.409 1897.12,911.236 1901.57,910.092 1906.01,908.978 1910.46,907.894 1914.9,906.841 1919.35,905.818 1923.79,904.826 1928.24,903.866 1932.68,902.938 1937.13,902.042 1941.57,901.177 1946.02,900.346 1950.46,899.548 1954.91,898.783 1959.35,898.051 1963.8,897.354 1968.24,896.69 1972.69,896.062 1977.14,895.468 1981.58,894.909 1986.03,894.386 1990.47,893.899 1994.92,893.447 1999.36,893.033 2003.81,892.655 2008.25,892.314 2012.7,892.011 2017.14,891.745 2021.59,891.517 2026.03,891.328 2030.48,891.177 2034.92,891.066 2039.37,890.993 2043.81,890.96 2048.26,890.968 2052.7,891.015 2057.15,891.103 2061.59,891.232 2066.04,891.402 2070.48,891.614 2074.93,891.867 2079.38,892.163 2083.82,892.501 2088.27,892.882 2092.71,893.306 2097.16,893.773 2101.6,894.284 2106.05,894.839 2110.49,895.439 2114.94,896.083 2119.38,896.772 2123.83,897.507 2128.27,898.287 2132.72,899.113 2137.16,899.985 2141.61,900.904 2146.05,901.87 2150.5,902.883 2154.94,903.943 2159.39,905.052 2163.83,906.208 2168.28,907.413 2172.72,908.667 2177.17,909.97 2181.62,911.322 2186.06,912.724 2190.51,914.176 2194.95,915.679 2199.4,917.232 2203.84,918.836 2208.29,920.491 2212.73,922.199 2217.18,923.958 2221.62,925.769 2226.07,927.633 2230.51,929.55 2234.96,931.52 2239.4,933.543 2243.85,935.621 2248.29,937.752 2252.74,939.938 2257.18,942.179 2261.63,944.475 2266.07,946.826 2270.52,949.233 2274.96,951.696 2279.41,954.216 2283.86,956.792 2288.3,959.425 2292.75,962.116 "/>
<polyline clip-path="url(#clip132)" style="stroke:#3da44d; stroke-linecap:round; stroke-linejoin:round; stroke-width:4; stroke-opacity:1; fill:none" points="292.4,1312.16 296.845,1309.44 301.29,1306.78 305.735,1304.16 310.181,1301.58 314.626,1299.06 319.071,1296.58 323.516,1294.14 327.961,1291.76 332.407,1289.42 336.852,1287.12 341.297,1284.87 345.742,1282.67 350.187,1280.52 354.633,1278.41 359.078,1276.35 363.523,1274.34 367.968,1272.37 372.414,1270.45 376.859,1268.57 381.304,1266.75 385.749,1264.97 390.194,1263.23 394.64,1261.54 399.085,1259.9 403.53,1258.31 407.975,1256.76 412.42,1255.26 416.866,1253.8 421.311,1252.4 425.756,1251.03 430.201,1249.72 434.647,1248.45 439.092,1247.23 443.537,1246.05 447.982,1244.92 452.427,1243.84 456.873,1242.81 461.318,1241.82 465.763,1240.88 470.208,1239.98 474.653,1239.13 479.099,1238.33 483.544,1237.57 487.989,1236.86 492.434,1236.2 496.88,1235.58 501.325,1235.01 505.77,1234.48 510.215,1234.01 514.66,1233.58 519.106,1233.21 523.551,1232.92 527.996,1232.7 532.441,1232.56 536.886,1232.48 541.332,1232.46 545.777,1232.52 550.222,1232.64 554.667,1232.82 559.112,1233.06 563.558,1233.36 568.003,1233.72 572.448,1234.14 576.893,1234.62 581.339,1235.15 585.784,1235.73 590.229,1236.36 594.674,1237.05 599.119,1237.78 603.565,1238.56 608.01,1239.38 612.455,1240.25 616.9,1241.16 621.345,1242.12 625.791,1243.11 630.236,1244.14 634.681,1245.21 639.126,1246.32 643.572,1247.46 648.017,1248.63 652.462,1249.83 656.907,1251.07 661.352,1252.33 665.798,1253.62 670.243,1254.94 674.688,1256.27 679.133,1257.64 683.578,1259.02 688.024,1260.42 692.469,1261.84 696.914,1263.28 701.359,1264.74 705.805,1266.21 710.25,1267.69 714.695,1269.18 719.14,1270.68 723.585,1272.19 728.031,1273.71 732.476,1275.23 736.921,1276.76 741.366,1278.29 745.811,1279.82 750.257,1281.35 754.702,1282.88 759.147,1284.41 763.592,1285.93 768.038,1287.44 772.483,1288.95 776.928,1290.45 781.373,1291.94 785.818,1293.42 790.264,1294.88 794.709,1296.33 799.154,1297.77 803.599,1299.18 808.044,1300.58 812.49,1301.96 816.935,1303.31 821.38,1304.64 825.825,1305.95 830.27,1307.23 834.716,1308.49 839.161,1309.71 843.606,1310.9 848.051,1312.07 852.497,1313.2 856.942,1314.29 861.387,1315.35 865.832,1316.37 870.277,1317.35 874.723,1318.29 879.168,1319.19 883.613,1320.05 888.058,1320.86 892.503,1321.62 896.949,1322.34 901.394,1323.01 905.839,1323.63 910.284,1324.19 914.73,1324.71 919.175,1325.16 923.62,1325.56 928.065,1325.91 932.51,1326.19 936.956,1326.42 941.401,1326.58 945.846,1326.68 950.291,1326.71 954.736,1326.68 959.182,1326.58 963.627,1326.42 968.072,1326.22 972.517,1325.99 976.963,1325.72 981.408,1325.42 985.853,1325.08 990.298,1324.71 994.743,1324.3 999.189,1323.86 1003.63,1323.38 1008.08,1322.87 1012.52,1322.32 1016.97,1321.74 1021.41,1321.13 1025.86,1320.47 1030.31,1319.79 1034.75,1319.07 1039.2,1318.31 1043.64,1317.52 1048.09,1316.69 1052.53,1315.82 1056.98,1314.92 1061.42,1313.97 1065.87,1312.99 1070.31,1311.96 1074.76,1310.9 1079.2,1309.79 1083.65,1308.65 1088.09,1307.47 1092.54,1306.26 1096.98,1305 1101.43,1303.71 1105.87,1302.38 1110.32,1301.01 1114.76,1299.61 1119.21,1298.17 1123.65,1296.69 1128.1,1295.18 1132.54,1293.63 1136.99,1292.05 1141.44,1290.43 1145.88,1288.77 1150.33,1287.09 1154.77,1285.36 1159.22,1283.61 1163.66,1281.82 1168.11,1279.99 1172.55,1278.13 1177,1276.24 1181.44,1274.32 1185.89,1272.36 1190.33,1270.37 1194.78,1268.35 1199.22,1266.3 1203.67,1264.22 1208.11,1262.1 1212.56,1259.96 1217,1257.78 1221.45,1255.57 1225.89,1253.34 1230.34,1251.07 1234.78,1248.77 1239.23,1246.45 1243.68,1244.09 1248.12,1241.7 1252.57,1239.29 1257.01,1236.85 1261.46,1234.38 1265.9,1231.88 1270.35,1229.36 1274.79,1226.8 1279.24,1224.22 1283.68,1221.62 1288.13,1218.98 1292.57,1216.32 1297.02,1213.64 1301.46,1210.93 1305.91,1208.19 1310.35,1205.43 1314.8,1202.64 1319.24,1199.83 1323.69,1197 1328.13,1194.14 1332.58,1191.26 1337.02,1188.36 1341.47,1185.44 1345.92,1182.49 1350.36,1179.53 1354.81,1176.54 1359.25,1173.52 1363.7,1170.5 1368.14,1167.47 1372.59,1164.42 1377.03,1161.37 1381.48,1158.32 1385.92,1155.25 1390.37,1152.18 1394.81,1149.1 1399.26,1146.01 1403.7,1142.92 1408.15,1139.83 1412.59,1136.73 1417.04,1133.63 1421.48,1130.52 1425.93,1127.41 1430.37,1124.3 1434.82,1121.18 1439.26,1118.07 1443.71,1114.95 1448.16,1111.84 1452.6,1108.72 1457.05,1105.6 1461.49,1102.49 1465.94,1099.38 1470.38,1096.26 1474.83,1093.16 1479.27,1090.05 1483.72,1086.95 1488.16,1083.85 1492.61,1080.76 1497.05,1077.67 1501.5,1074.59 1505.94,1071.51 1510.39,1068.45 1514.83,1065.38 1519.28,1062.33 1523.72,1059.28 1528.17,1056.25 1532.61,1053.22 1537.06,1050.2 1541.5,1047.19 1545.95,1044.19 1550.39,1041.21 1554.84,1038.23 1559.29,1035.27 1563.73,1032.32 1568.18,1029.38 1572.62,1026.46 1577.07,1023.55 1581.51,1020.65 1585.96,1017.77 1590.4,1014.91 1594.85,1012.06 1599.29,1009.23 1603.74,1006.41 1608.18,1003.62 1612.63,1000.84 1617.07,998.08 1621.52,995.34 1625.96,992.619 1630.41,989.918 1634.85,987.238 1639.3,984.579 1643.74,981.942 1648.19,979.327 1652.63,976.734 1657.08,974.165 1661.53,971.619 1665.97,969.098 1670.42,966.601 1674.86,964.129 1679.31,961.683 1683.75,959.263 1688.2,956.87 1692.64,954.504 1697.09,952.165 1701.53,949.855 1705.98,947.573 1710.42,945.321 1714.87,943.098 1719.31,940.906 1723.76,938.744 1728.2,936.613 1732.65,934.514 1737.09,932.447 1741.54,930.412 1745.98,928.411 1750.43,926.443 1754.87,924.51 1759.32,922.611 1763.77,920.748 1768.21,918.92 1772.66,917.128 1777.1,915.373 1781.55,913.655 1785.99,911.975 1790.44,910.333 1794.88,908.729 1799.33,907.165 1803.77,905.641 1808.22,904.156 1812.66,902.712 1817.11,901.31 1821.55,899.949 1826,898.63 1830.44,897.354 1834.89,896.121 1839.33,894.932 1843.78,893.787 1848.22,892.686 1852.67,891.631 1857.11,890.621 1861.56,889.658 1866.01,888.741 1870.45,887.872 1874.9,887.05 1879.34,886.276 1883.79,885.551 1888.23,884.875 1892.68,884.249 1897.12,883.673 1901.57,883.147 1906.01,882.673 1910.46,882.251 1914.9,881.88 1919.35,881.563 1923.79,881.298 1928.24,881.087 1932.68,880.931 1937.13,880.829 1941.57,880.777 1946.02,880.754 1950.46,880.761 1954.91,880.798 1959.35,880.864 1963.8,880.96 1968.24,881.085 1972.69,881.241 1977.14,881.425 1981.58,881.64 1986.03,881.884 1990.47,882.158 1994.92,882.461 1999.36,882.794 2003.81,883.156 2008.25,883.548 2012.7,883.969 2017.14,884.419 2021.59,884.898 2026.03,885.407 2030.48,885.944 2034.92,886.511 2039.37,887.106 2043.81,887.73 2048.26,888.384 2052.7,889.065 2057.15,889.776 2061.59,890.515 2066.04,891.283 2070.48,892.079 2074.93,892.903 2079.38,893.756 2083.82,894.637 2088.27,895.546 2092.71,896.484 2097.16,897.449 2101.6,898.443 2106.05,899.464 2110.49,900.514 2114.94,901.591 2119.38,902.696 2123.83,903.828 2128.27,904.988 2132.72,906.176 2137.16,907.391 2141.61,908.634 2146.05,909.904 2150.5,911.202 2154.94,912.526 2159.39,913.878 2163.83,915.257 2168.28,916.663 2172.72,918.095 2177.17,919.555 2181.62,921.042 2186.06,922.555 2190.51,924.095 2194.95,925.662 2199.4,927.255 2203.84,928.875 2208.29,930.522 2212.73,932.195 2217.18,933.897 2221.62,935.625 2226.07,937.381 2230.51,939.165 2234.96,940.976 2239.4,942.814 2243.85,944.679 2248.29,946.572 2252.74,948.465 2257.18,950.323 2261.63,952.112 2266.07,953.797 2270.52,955.342 2274.96,956.715 2279.41,957.878 2283.86,958.799 2288.3,959.442 2292.75,959.773 "/>
<polyline clip-path="url(#clip132)" style="stroke:#c271d2; stroke-linecap:round; stroke-linejoin:round; stroke-width:4; stroke-opacity:1; fill:none" points="292.4,1295.72 296.845,1294.27 301.29,1292.82 305.735,1291.37 310.181,1289.92 314.626,1288.47 319.071,1287.02 323.516,1285.58 327.961,1284.14 332.407,1282.7 336.852,1281.27 341.297,1279.85 345.742,1278.44 350.187,1277.03 354.633,1275.64 359.078,1274.26 363.523,1272.9 367.968,1271.56 372.414,1270.23 376.859,1268.92 381.304,1267.63 385.749,1266.37 390.194,1265.12 394.64,1263.91 399.085,1262.72 403.53,1261.56 407.975,1260.42 412.42,1259.32 416.866,1258.26 421.311,1257.23 425.756,1256.24 430.201,1255.29 434.647,1254.38 439.092,1253.52 443.537,1252.69 447.982,1251.91 452.427,1251.18 456.873,1250.49 461.318,1249.85 465.763,1249.25 470.208,1248.71 474.653,1248.21 479.099,1247.76 483.544,1247.35 487.989,1247 492.434,1246.7 496.88,1246.44 501.325,1246.23 505.77,1246.07 510.215,1245.95 514.66,1245.88 519.106,1245.85 523.551,1245.86 527.996,1245.92 532.441,1246.02 536.886,1246.17 541.332,1246.35 545.777,1246.57 550.222,1246.83 554.667,1247.13 559.112,1247.47 563.558,1247.84 568.003,1248.25 572.448,1248.69 576.893,1249.16 581.339,1249.67 585.784,1250.21 590.229,1250.78 594.674,1251.38 599.119,1252.01 603.565,1252.67 608.01,1253.35 612.455,1254.06 616.9,1254.8 621.345,1255.56 625.791,1256.34 630.236,1257.15 634.681,1257.98 639.126,1258.83 643.572,1259.7 648.017,1260.6 652.462,1261.51 656.907,1262.43 661.352,1263.38 665.798,1264.34 670.243,1265.31 674.688,1266.3 679.133,1267.31 683.578,1268.32 688.024,1269.35 692.469,1270.39 696.914,1271.44 701.359,1272.5 705.805,1273.56 710.25,1274.63 714.695,1275.71 719.14,1276.8 723.585,1277.89 728.031,1278.98 732.476,1280.08 736.921,1281.18 741.366,1282.28 745.811,1283.38 750.257,1284.48 754.702,1285.58 759.147,1286.67 763.592,1287.77 768.038,1288.86 772.483,1289.94 776.928,1291.02 781.373,1292.09 785.818,1293.16 790.264,1294.22 794.709,1295.26 799.154,1296.3 803.599,1297.33 808.044,1298.34 812.49,1299.34 816.935,1300.33 821.38,1301.31 825.825,1302.26 830.27,1303.21 834.716,1304.13 839.161,1305.04 843.606,1305.93 848.051,1306.8 852.497,1307.65 856.942,1308.48 861.387,1309.28 865.832,1310.06 870.277,1310.82 874.723,1311.56 879.168,1312.26 883.613,1312.95 888.058,1313.6 892.503,1314.23 896.949,1314.82 901.394,1315.39 905.839,1315.92 910.284,1316.43 914.73,1316.9 919.175,1317.34 923.62,1317.74 928.065,1318.11 932.51,1318.44 936.956,1318.74 941.401,1318.99 945.846,1319.21 950.291,1319.39 954.736,1319.53 959.182,1319.63 963.627,1319.68 968.072,1319.69 972.517,1319.66 976.963,1319.58 981.408,1319.46 985.853,1319.3 990.298,1319.08 994.743,1318.83 999.189,1318.52 1003.63,1318.17 1008.08,1317.78 1012.52,1317.33 1016.97,1316.84 1021.41,1316.31 1025.86,1315.73 1030.31,1315.1 1034.75,1314.43 1039.2,1313.71 1043.64,1312.96 1048.09,1312.15 1052.53,1311.31 1056.98,1310.42 1061.42,1309.49 1065.87,1308.52 1070.31,1307.51 1074.76,1306.46 1079.2,1305.36 1083.65,1304.23 1088.09,1303.06 1092.54,1301.85 1096.98,1300.6 1101.43,1299.31 1105.87,1297.99 1110.32,1296.62 1114.76,1295.23 1119.21,1293.79 1123.65,1292.32 1128.1,1290.81 1132.54,1289.27 1136.99,1287.7 1141.44,1286.09 1145.88,1284.44 1150.33,1282.77 1154.77,1281.06 1159.22,1279.32 1163.66,1277.54 1168.11,1275.74 1172.55,1273.9 1177,1272.03 1181.44,1270.14 1185.89,1268.21 1190.33,1266.25 1194.78,1264.27 1199.22,1262.26 1203.67,1260.22 1208.11,1258.15 1212.56,1256.05 1217,1253.93 1221.45,1251.78 1225.89,1249.61 1230.34,1247.41 1234.78,1245.18 1239.23,1242.93 1243.68,1240.66 1248.12,1238.36 1252.57,1236.04 1257.01,1233.7 1261.46,1231.34 1265.9,1228.95 1270.35,1226.54 1274.79,1224.11 1279.24,1221.66 1283.68,1219.2 1288.13,1216.71 1292.57,1214.2 1297.02,1211.67 1301.46,1209.13 1305.91,1206.56 1310.35,1203.98 1314.8,1201.38 1319.24,1198.77 1323.69,1196.14 1328.13,1193.5 1332.58,1190.84 1337.02,1188.17 1341.47,1185.48 1345.92,1182.79 1350.36,1180.09 1354.81,1177.37 1359.25,1174.65 1363.7,1171.91 1368.14,1169.17 1372.59,1166.42 1377.03,1163.66 1381.48,1160.9 1385.92,1158.12 1390.37,1155.34 1394.81,1152.55 1399.26,1149.76 1403.7,1146.96 1408.15,1144.16 1412.59,1141.35 1417.04,1138.53 1421.48,1135.72 1425.93,1132.89 1430.37,1130.07 1434.82,1127.24 1439.26,1124.41 1443.71,1121.58 1448.16,1118.75 1452.6,1115.92 1457.05,1113.08 1461.49,1110.25 1465.94,1107.41 1470.38,1104.58 1474.83,1101.74 1479.27,1098.91 1483.72,1096.08 1488.16,1093.26 1492.61,1090.43 1497.05,1087.61 1501.5,1084.79 1505.94,1081.98 1510.39,1079.17 1514.83,1076.36 1519.28,1073.56 1523.72,1070.76 1528.17,1067.98 1532.61,1065.19 1537.06,1062.42 1541.5,1059.65 1545.95,1056.89 1550.39,1054.14 1554.84,1051.39 1559.29,1048.66 1563.73,1045.93 1568.18,1043.21 1572.62,1040.51 1577.07,1037.81 1581.51,1035.13 1585.96,1032.46 1590.4,1029.79 1594.85,1027.14 1599.29,1024.51 1603.74,1021.88 1608.18,1019.27 1612.63,1016.68 1617.07,1014.1 1621.52,1011.53 1625.96,1008.98 1630.41,1006.44 1634.85,1003.92 1639.3,1001.42 1643.74,998.928 1648.19,996.458 1652.63,994.005 1657.08,991.57 1661.53,989.154 1665.97,986.757 1670.42,984.379 1674.86,982.02 1679.31,979.682 1683.75,977.364 1688.2,975.068 1692.64,972.792 1697.09,970.538 1701.53,968.307 1705.98,966.098 1710.42,963.912 1714.87,961.75 1719.31,959.611 1723.76,957.497 1728.2,955.407 1732.65,953.342 1737.09,951.303 1741.54,949.29 1745.98,947.303 1750.43,945.343 1754.87,943.41 1759.32,941.505 1763.77,939.627 1768.21,937.778 1772.66,935.958 1777.1,934.167 1781.55,932.406 1785.99,930.675 1790.44,928.974 1794.88,927.305 1799.33,925.666 1803.77,924.06 1808.22,922.485 1812.66,920.943 1817.11,919.434 1821.55,917.958 1826,916.517 1830.44,915.109 1834.89,913.736 1839.33,912.398 1843.78,911.096 1848.22,909.829 1852.67,908.599 1857.11,907.406 1861.56,906.249 1866.01,905.131 1870.45,904.05 1874.9,903.008 1879.34,902.004 1883.79,901.039 1888.23,900.115 1892.68,899.23 1897.12,898.386 1901.57,897.582 1906.01,896.82 1910.46,896.1 1914.9,895.422 1919.35,894.786 1923.79,894.193 1928.24,893.644 1932.68,893.138 1937.13,892.676 1941.57,892.26 1946.02,891.888 1950.46,891.56 1954.91,891.278 1959.35,891.041 1963.8,890.848 1968.24,890.699 1972.69,890.592 1977.14,890.529 1981.58,890.507 1986.03,890.525 1990.47,890.583 1994.92,890.681 1999.36,890.816 2003.81,890.99 2008.25,891.2 2012.7,891.446 2017.14,891.728 2021.59,892.044 2026.03,892.395 2030.48,892.778 2034.92,893.193 2039.37,893.641 2043.81,894.118 2048.26,894.627 2052.7,895.164 2057.15,895.73 2061.59,896.323 2066.04,896.944 2070.48,897.591 2074.93,898.264 2079.38,898.961 2083.82,899.683 2088.27,900.428 2092.71,901.195 2097.16,901.984 2101.6,902.794 2106.05,903.624 2110.49,904.474 2114.94,905.343 2119.38,906.229 2123.83,907.133 2128.27,908.053 2132.72,908.989 2137.16,909.94 2141.61,910.906 2146.05,911.884 2150.5,912.876 2154.94,913.879 2159.39,914.894 2163.83,915.919 2168.28,916.954 2172.72,917.998 2177.17,919.05 2181.62,920.109 2186.06,921.175 2190.51,922.247 2194.95,923.325 2199.4,924.406 2203.84,925.492 2208.29,926.58 2212.73,927.671 2217.18,928.763 2221.62,929.858 2226.07,930.954 2230.51,932.051 2234.96,933.148 2239.4,934.245 2243.85,935.343 2248.29,936.44 2252.74,937.538 2257.18,938.635 2261.63,939.733 2266.07,940.83 2270.52,941.927 2274.96,943.025 2279.41,944.122 2283.86,945.22 2288.3,946.317 2292.75,947.415 "/>
<polyline clip-path="url(#clip132)" style="stroke:#ac8d18; stroke-linecap:round; stroke-linejoin:round; stroke-width:4; stroke-opacity:1; fill:none" points="292.4,1313.68 296.845,1313.39 301.29,1313.1 305.735,1312.8 310.181,1312.51 314.626,1312.22 319.071,1311.93 323.516,1311.64 327.961,1311.35 332.407,1311.07 336.852,1310.78 341.297,1310.5 345.742,1310.22 350.187,1309.94 354.633,1309.66 359.078,1309.39 363.523,1309.12 367.968,1308.86 372.414,1308.6 376.859,1308.34 381.304,1308.09 385.749,1307.84 390.194,1307.6 394.64,1307.36 399.085,1307.13 403.53,1306.9 407.975,1306.68 412.42,1306.47 416.866,1306.26 421.311,1306.06 425.756,1305.87 430.201,1305.69 434.647,1305.51 439.092,1305.34 443.537,1305.18 447.982,1305.03 452.427,1304.89 456.873,1304.76 461.318,1304.63 465.763,1304.52 470.208,1304.41 474.653,1304.31 479.099,1304.23 483.544,1304.15 487.989,1304.09 492.434,1304.03 496.88,1303.99 501.325,1303.96 505.77,1303.93 510.215,1303.92 514.66,1303.92 519.106,1303.93 523.551,1303.96 527.996,1303.99 532.441,1304.04 536.886,1304.09 541.332,1304.16 545.777,1304.24 550.222,1304.34 554.667,1304.44 559.112,1304.56 563.558,1304.69 568.003,1304.83 572.448,1304.99 576.893,1305.16 581.339,1305.34 585.784,1305.53 590.229,1305.73 594.674,1305.95 599.119,1306.18 603.565,1306.42 608.01,1306.68 612.455,1306.94 616.9,1307.22 621.345,1307.52 625.791,1307.82 630.236,1308.14 634.681,1308.47 639.126,1308.81 643.572,1309.17 648.017,1309.53 652.462,1309.91 656.907,1310.3 661.352,1310.7 665.798,1311.12 670.243,1311.54 674.688,1311.98 679.133,1312.42 683.578,1312.88 688.024,1313.35 692.469,1313.83 696.914,1314.32 701.359,1314.82 705.805,1315.33 710.25,1315.85 714.695,1316.38 719.14,1316.91 723.585,1317.45 728.031,1318.01 732.476,1318.56 736.921,1319.13 741.366,1319.7 745.811,1320.28 750.257,1320.86 754.702,1321.45 759.147,1322.04 763.592,1322.63 768.038,1323.23 772.483,1323.82 776.928,1324.42 781.373,1325.02 785.818,1325.62 790.264,1326.22 794.709,1326.81 799.154,1327.4 803.599,1327.99 808.044,1328.57 812.49,1329.15 816.935,1329.72 821.38,1330.28 825.825,1330.84 830.27,1331.38 834.716,1331.92 839.161,1332.44 843.606,1332.95 848.051,1333.45 852.497,1333.94 856.942,1334.41 861.387,1334.86 865.832,1335.29 870.277,1335.71 874.723,1336.11 879.168,1336.49 883.613,1336.85 888.058,1337.18 892.503,1337.5 896.949,1337.79 901.394,1338.05 905.839,1338.29 910.284,1338.51 914.73,1338.69 919.175,1338.85 923.62,1338.98 928.065,1339.08 932.51,1339.15 936.956,1339.19 941.401,1339.2 945.846,1339.17 950.291,1339.1 954.736,1339.01 959.182,1338.87 963.627,1338.7 968.072,1338.5 972.517,1338.25 976.963,1337.97 981.408,1337.65 985.853,1337.29 990.298,1336.89 994.743,1336.45 999.189,1335.97 1003.63,1335.45 1008.08,1334.89 1012.52,1334.29 1016.97,1333.65 1021.41,1332.96 1025.86,1332.24 1030.31,1331.47 1034.75,1330.66 1039.2,1329.81 1043.64,1328.91 1048.09,1327.98 1052.53,1327 1056.98,1325.98 1061.42,1324.93 1065.87,1323.83 1070.31,1322.69 1074.76,1321.52 1079.2,1320.3 1083.65,1319.05 1088.09,1317.76 1092.54,1316.42 1096.98,1315.06 1101.43,1313.65 1105.87,1312.21 1110.32,1310.74 1114.76,1309.22 1119.21,1307.68 1123.65,1306.1 1128.1,1304.49 1132.54,1302.85 1136.99,1301.17 1141.44,1299.47 1145.88,1297.73 1150.33,1295.97 1154.77,1294.17 1159.22,1292.35 1163.66,1290.5 1168.11,1288.63 1172.55,1286.73 1177,1284.8 1181.44,1282.85 1185.89,1280.87 1190.33,1278.86 1194.78,1276.83 1199.22,1274.78 1203.67,1272.7 1208.11,1270.59 1212.56,1268.45 1217,1266.29 1221.45,1264.1 1225.89,1261.88 1230.34,1259.64 1234.78,1257.36 1239.23,1255.06 1243.68,1252.72 1248.12,1250.35 1252.57,1247.95 1257.01,1245.52 1261.46,1243.06 1265.9,1240.57 1270.35,1238.04 1274.79,1235.48 1279.24,1232.89 1283.68,1230.27 1288.13,1227.62 1292.57,1224.93 1297.02,1222.22 1301.46,1219.47 1305.91,1216.69 1310.35,1213.88 1314.8,1211.04 1319.24,1208.17 1323.69,1205.27 1328.13,1202.35 1332.58,1199.39 1337.02,1196.41 1341.47,1193.4 1345.92,1190.37 1350.36,1187.31 1354.81,1184.23 1359.25,1181.13 1363.7,1178 1368.14,1174.85 1372.59,1171.69 1377.03,1168.5 1381.48,1165.3 1385.92,1162.08 1390.37,1158.84 1394.81,1155.59 1399.26,1152.33 1403.7,1149.05 1408.15,1145.76 1412.59,1142.46 1417.04,1139.16 1421.48,1135.84 1425.93,1132.52 1430.37,1129.2 1434.82,1125.87 1439.26,1122.54 1443.71,1119.2 1448.16,1115.87 1452.6,1112.54 1457.05,1109.2 1461.49,1105.87 1465.94,1102.55 1470.38,1099.23 1474.83,1095.91 1479.27,1092.6 1483.72,1089.3 1488.16,1086.01 1492.61,1082.73 1497.05,1079.47 1501.5,1076.21 1505.94,1072.97 1510.39,1069.74 1514.83,1066.53 1519.28,1063.33 1523.72,1060.15 1528.17,1056.99 1532.61,1053.85 1537.06,1050.73 1541.5,1047.62 1545.95,1044.55 1550.39,1041.49 1554.84,1038.46 1559.29,1035.45 1563.73,1032.47 1568.18,1029.51 1572.62,1026.59 1577.07,1023.68 1581.51,1020.81 1585.96,1017.97 1590.4,1015.16 1594.85,1012.37 1599.29,1009.62 1603.74,1006.9 1608.18,1004.22 1612.63,1001.56 1617.07,998.941 1621.52,996.355 1625.96,993.803 1630.41,991.286 1634.85,988.805 1639.3,986.36 1643.74,983.952 1648.19,981.58 1652.63,979.245 1657.08,976.948 1661.53,974.689 1665.97,972.468 1670.42,970.285 1674.86,968.14 1679.31,966.035 1683.75,963.968 1688.2,961.941 1692.64,959.953 1697.09,958.004 1701.53,956.095 1705.98,954.226 1710.42,952.396 1714.87,950.606 1719.31,948.856 1723.76,947.146 1728.2,945.475 1732.65,943.844 1737.09,942.253 1741.54,940.702 1745.98,939.19 1750.43,937.718 1754.87,936.286 1759.32,934.893 1763.77,933.539 1768.21,932.224 1772.66,930.948 1777.1,929.711 1781.55,928.512 1785.99,927.351 1790.44,926.229 1794.88,925.145 1799.33,924.098 1803.77,923.089 1808.22,922.117 1812.66,921.182 1817.11,920.284 1821.55,919.422 1826,918.596 1830.44,917.806 1834.89,917.052 1839.33,916.333 1843.78,915.649 1848.22,915 1852.67,914.385 1857.11,913.804 1861.56,913.257 1866.01,912.743 1870.45,912.262 1874.9,911.814 1879.34,911.398 1883.79,911.015 1888.23,910.662 1892.68,910.341 1897.12,910.051 1901.57,909.792 1906.01,909.562 1910.46,909.362 1914.9,909.192 1919.35,909.051 1923.79,908.939 1928.24,908.855 1932.68,908.799 1937.13,908.771 1941.57,908.77 1946.02,908.796 1950.46,908.848 1954.91,908.926 1959.35,909.031 1963.8,909.16 1968.24,909.315 1972.69,909.494 1977.14,909.697 1981.58,909.924 1986.03,910.174 1990.47,910.448 1994.92,910.744 1999.36,911.062 2003.81,911.402 2008.25,911.764 2012.7,912.147 2017.14,912.551 2021.59,912.976 2026.03,913.42 2030.48,913.885 2034.92,914.37 2039.37,914.874 2043.81,915.397 2048.26,915.939 2052.7,916.501 2057.15,917.082 2061.59,917.682 2066.04,918.301 2070.48,918.939 2074.93,919.596 2079.38,920.271 2083.82,920.965 2088.27,921.678 2092.71,922.409 2097.16,923.157 2101.6,923.924 2106.05,924.707 2110.49,925.508 2114.94,926.326 2119.38,927.16 2123.83,928.01 2128.27,928.876 2132.72,929.757 2137.16,930.653 2141.61,931.563 2146.05,932.486 2150.5,933.423 2154.94,934.372 2159.39,935.333 2163.83,936.306 2168.28,937.289 2172.72,938.283 2177.17,939.286 2181.62,940.298 2186.06,941.319 2190.51,942.348 2194.95,943.384 2199.4,944.427 2203.84,945.476 2208.29,946.53 2212.73,947.59 2217.18,948.654 2221.62,949.723 2226.07,950.795 2230.51,951.87 2234.96,952.947 2239.4,954.027 2243.85,955.109 2248.29,956.192 2252.74,957.276 2257.18,958.361 2261.63,959.445 2266.07,960.53 2270.52,961.615 2274.96,962.7 2279.41,963.785 2283.86,964.87 2288.3,965.954 2292.75,967.039 "/>
<polyline clip-path="url(#clip132)" style="stroke:#00a9ad; stroke-linecap:round; stroke-linejoin:round; stroke-width:4; stroke-opacity:1; fill:none" points="292.4,1271.27 296.845,1270.93 301.29,1270.59 305.735,1270.25 310.181,1269.91 314.626,1269.57 319.071,1269.24 323.516,1268.9 327.961,1268.56 332.407,1268.23 336.852,1267.89 341.297,1267.56 345.742,1267.23 350.187,1266.91 354.633,1266.58 359.078,1266.26 363.523,1265.94 367.968,1265.63 372.414,1265.32 376.859,1265.02 381.304,1264.73 385.749,1264.43 390.194,1264.15 394.64,1263.87 399.085,1263.6 403.53,1263.34 407.975,1263.08 412.42,1262.83 416.866,1262.6 421.311,1262.37 425.756,1262.15 430.201,1261.94 434.647,1261.75 439.092,1261.56 443.537,1261.39 447.982,1261.23 452.427,1261.08 456.873,1260.94 461.318,1260.82 465.763,1260.71 470.208,1260.61 474.653,1260.53 479.099,1260.46 483.544,1260.4 487.989,1260.36 492.434,1260.34 496.88,1260.33 501.325,1260.33 505.77,1260.35 510.215,1260.39 514.66,1260.44 519.106,1260.51 523.551,1260.59 527.996,1260.68 532.441,1260.8 536.886,1260.92 541.332,1261.07 545.777,1261.23 550.222,1261.4 554.667,1261.59 559.112,1261.8 563.558,1262.02 568.003,1262.26 572.448,1262.51 576.893,1262.78 581.339,1263.06 585.784,1263.36 590.229,1263.68 594.674,1264 599.119,1264.34 603.565,1264.7 608.01,1265.07 612.455,1265.45 616.9,1265.85 621.345,1266.26 625.791,1266.69 630.236,1267.12 634.681,1267.57 639.126,1268.03 643.572,1268.5 648.017,1268.98 652.462,1269.47 656.907,1269.98 661.352,1270.49 665.798,1271.01 670.243,1271.54 674.688,1272.07 679.133,1272.62 683.578,1273.17 688.024,1273.72 692.469,1274.29 696.914,1274.86 701.359,1275.43 705.805,1276.01 710.25,1276.59 714.695,1277.17 719.14,1277.76 723.585,1278.35 728.031,1278.94 732.476,1279.54 736.921,1280.13 741.366,1280.72 745.811,1281.32 750.257,1281.91 754.702,1282.5 759.147,1283.09 763.592,1283.68 768.038,1284.27 772.483,1284.85 776.928,1285.43 781.373,1286 785.818,1286.57 790.264,1287.13 794.709,1287.69 799.154,1288.24 803.599,1288.78 808.044,1289.32 812.49,1289.85 816.935,1290.37 821.38,1290.88 825.825,1291.39 830.27,1291.88 834.716,1292.36 839.161,1292.83 843.606,1293.29 848.051,1293.73 852.497,1294.17 856.942,1294.59 861.387,1294.99 865.832,1295.38 870.277,1295.75 874.723,1296.1 879.168,1296.44 883.613,1296.76 888.058,1297.06 892.503,1297.34 896.949,1297.6 901.394,1297.84 905.839,1298.06 910.284,1298.25 914.73,1298.42 919.175,1298.56 923.62,1298.68 928.065,1298.78 932.51,1298.85 936.956,1298.89 941.401,1298.9 945.846,1298.89 950.291,1298.85 954.736,1298.77 959.182,1298.67 963.627,1298.54 968.072,1298.37 972.517,1298.18 976.963,1297.95 981.408,1297.69 985.853,1297.39 990.298,1297.06 994.743,1296.7 999.189,1296.31 1003.63,1295.88 1008.08,1295.41 1012.52,1294.91 1016.97,1294.38 1021.41,1293.81 1025.86,1293.2 1030.31,1292.56 1034.75,1291.88 1039.2,1291.17 1043.64,1290.42 1048.09,1289.64 1052.53,1288.82 1056.98,1287.97 1061.42,1287.08 1065.87,1286.15 1070.31,1285.19 1074.76,1284.19 1079.2,1283.16 1083.65,1282.09 1088.09,1280.99 1092.54,1279.86 1096.98,1278.68 1101.43,1277.48 1105.87,1276.24 1110.32,1274.96 1114.76,1273.66 1119.21,1272.31 1123.65,1270.94 1128.1,1269.53 1132.54,1268.1 1136.99,1266.62 1141.44,1265.12 1145.88,1263.59 1150.33,1262.02 1154.77,1260.43 1159.22,1258.8 1163.66,1257.15 1168.11,1255.46 1172.55,1253.74 1177,1252 1181.44,1250.22 1185.89,1248.42 1190.33,1246.58 1194.78,1244.72 1199.22,1242.83 1203.67,1240.91 1208.11,1238.97 1212.56,1236.99 1217,1234.99 1221.45,1232.96 1225.89,1230.91 1230.34,1228.83 1234.78,1226.72 1239.23,1224.58 1243.68,1222.42 1248.12,1220.24 1252.57,1218.03 1257.01,1215.79 1261.46,1213.53 1265.9,1211.24 1270.35,1208.93 1274.79,1206.6 1279.24,1204.24 1283.68,1201.86 1288.13,1199.46 1292.57,1197.04 1297.02,1194.59 1301.46,1192.13 1305.91,1189.64 1310.35,1187.14 1314.8,1184.61 1319.24,1182.07 1323.69,1179.51 1328.13,1176.93 1332.58,1174.34 1337.02,1171.73 1341.47,1169.1 1345.92,1166.46 1350.36,1163.81 1354.81,1161.14 1359.25,1158.46 1363.7,1155.77 1368.14,1153.07 1372.59,1150.36 1377.03,1147.63 1381.48,1144.9 1385.92,1142.16 1390.37,1139.42 1394.81,1136.66 1399.26,1133.9 1403.7,1131.14 1408.15,1128.37 1412.59,1125.6 1417.04,1122.82 1421.48,1120.05 1425.93,1117.27 1430.37,1114.49 1434.82,1111.7 1439.26,1108.92 1443.71,1106.14 1448.16,1103.37 1452.6,1100.59 1457.05,1097.82 1461.49,1095.04 1465.94,1092.28 1470.38,1089.51 1474.83,1086.75 1479.27,1084 1483.72,1081.25 1488.16,1078.5 1492.61,1075.76 1497.05,1073.03 1501.5,1070.3 1505.94,1067.58 1510.39,1064.87 1514.83,1062.16 1519.28,1059.47 1523.72,1056.78 1528.17,1054.1 1532.61,1051.42 1537.06,1048.76 1541.5,1046.11 1545.95,1043.47 1550.39,1040.84 1554.84,1038.21 1559.29,1035.6 1563.73,1033.01 1568.18,1030.42 1572.62,1027.85 1577.07,1025.28 1581.51,1022.74 1585.96,1020.2 1590.4,1017.68 1594.85,1015.17 1599.29,1012.68 1603.74,1010.2 1608.18,1007.74 1612.63,1005.29 1617.07,1002.86 1621.52,1000.45 1625.96,998.051 1630.41,995.671 1634.85,993.308 1639.3,990.963 1643.74,988.636 1648.19,986.328 1652.63,984.038 1657.08,981.768 1661.53,979.518 1665.97,977.288 1670.42,975.078 1674.86,972.889 1679.31,970.721 1683.75,968.574 1688.2,966.45 1692.64,964.348 1697.09,962.268 1701.53,960.211 1705.98,958.178 1710.42,956.169 1714.87,954.183 1719.31,952.222 1723.76,950.286 1728.2,948.375 1732.65,946.49 1737.09,944.631 1741.54,942.798 1745.98,940.991 1750.43,939.212 1754.87,937.46 1759.32,935.736 1763.77,934.04 1768.21,932.373 1772.66,930.734 1777.1,929.125 1781.55,927.545 1785.99,925.996 1790.44,924.476 1794.88,922.988 1799.33,921.53 1803.77,920.104 1808.22,918.71 1812.66,917.347 1817.11,916.017 1821.55,914.72 1826,913.455 1830.44,912.223 1834.89,911.025 1839.33,909.86 1843.78,908.728 1848.22,907.63 1852.67,906.566 1857.11,905.536 1861.56,904.539 1866.01,903.577 1870.45,902.649 1874.9,901.755 1879.34,900.894 1883.79,900.068 1888.23,899.275 1892.68,898.517 1897.12,897.792 1901.57,897.101 1906.01,896.443 1910.46,895.819 1914.9,895.228 1919.35,894.67 1923.79,894.145 1928.24,893.653 1932.68,893.192 1937.13,892.764 1941.57,892.367 1946.02,892.001 1950.46,891.667 1954.91,891.363 1959.35,891.089 1963.8,890.846 1968.24,890.632 1972.69,890.447 1977.14,890.291 1981.58,890.163 1986.03,890.063 1990.47,889.991 1994.92,889.946 1999.36,889.927 2003.81,889.935 2008.25,889.969 2012.7,890.028 2017.14,890.112 2021.59,890.221 2026.03,890.354 2030.48,890.511 2034.92,890.691 2039.37,890.894 2043.81,891.119 2048.26,891.366 2052.7,891.635 2057.15,891.925 2061.59,892.237 2066.04,892.568 2070.48,892.919 2074.93,893.29 2079.38,893.68 2083.82,894.089 2088.27,894.515 2092.71,894.96 2097.16,895.422 2101.6,895.9 2106.05,896.395 2110.49,896.906 2114.94,897.432 2119.38,897.973 2123.83,898.528 2128.27,899.097 2132.72,899.68 2137.16,900.276 2141.61,900.884 2146.05,901.504 2150.5,902.136 2154.94,902.779 2159.39,903.432 2163.83,904.095 2168.28,904.768 2172.72,905.449 2177.17,906.139 2181.62,906.837 2186.06,907.541 2190.51,908.253 2194.95,908.97 2199.4,909.693 2203.84,910.421 2208.29,911.154 2212.73,911.89 2217.18,912.63 2221.62,913.374 2226.07,914.12 2230.51,914.869 2234.96,915.62 2239.4,916.373 2243.85,917.128 2248.29,917.883 2252.74,918.64 2257.18,919.397 2261.63,920.155 2266.07,920.913 2270.52,921.672 2274.96,922.431 2279.41,923.189 2283.86,923.948 2288.3,924.707 2292.75,925.466 "/>
<polyline clip-path="url(#clip132)" style="stroke:#ed5d92; stroke-linecap:round; stroke-linejoin:round; stroke-width:4; stroke-opacity:1; fill:none" points="292.4,1266.73 296.845,1266.47 301.29,1266.2 305.735,1265.93 310.181,1265.67 314.626,1265.4 319.071,1265.13 323.516,1264.87 327.961,1264.6 332.407,1264.34 336.852,1264.08 341.297,1263.82 345.742,1263.56 350.187,1263.3 354.633,1263.04 359.078,1262.79 363.523,1262.54 367.968,1262.3 372.414,1262.05 376.859,1261.81 381.304,1261.58 385.749,1261.35 390.194,1261.12 394.64,1260.9 399.085,1260.69 403.53,1260.48 407.975,1260.27 412.42,1260.08 416.866,1259.89 421.311,1259.71 425.756,1259.53 430.201,1259.37 434.647,1259.21 439.092,1259.06 443.537,1258.92 447.982,1258.79 452.427,1258.67 456.873,1258.56 461.318,1258.46 465.763,1258.37 470.208,1258.29 474.653,1258.22 479.099,1258.17 483.544,1258.12 487.989,1258.09 492.434,1258.07 496.88,1258.06 501.325,1258.06 505.77,1258.08 510.215,1258.1 514.66,1258.14 519.106,1258.2 523.551,1258.26 527.996,1258.34 532.441,1258.43 536.886,1258.54 541.332,1258.65 545.777,1258.78 550.222,1258.93 554.667,1259.08 559.112,1259.25 563.558,1259.44 568.003,1259.63 572.448,1259.84 576.893,1260.07 581.339,1260.3 585.784,1260.55 590.229,1260.82 594.674,1261.09 599.119,1261.38 603.565,1261.68 608.01,1262 612.455,1262.32 616.9,1262.66 621.345,1263.01 625.791,1263.38 630.236,1263.75 634.681,1264.14 639.126,1264.54 643.572,1264.95 648.017,1265.37 652.462,1265.8 656.907,1266.24 661.352,1266.69 665.798,1267.15 670.243,1267.62 674.688,1268.09 679.133,1268.57 683.578,1269.06 688.024,1269.56 692.469,1270.06 696.914,1270.56 701.359,1271.08 705.805,1271.59 710.25,1272.11 714.695,1272.63 719.14,1273.16 723.585,1273.69 728.031,1274.22 732.476,1274.75 736.921,1275.28 741.366,1275.82 745.811,1276.35 750.257,1276.88 754.702,1277.41 759.147,1277.94 763.592,1278.47 768.038,1278.99 772.483,1279.52 776.928,1280.03 781.373,1280.55 785.818,1281.06 790.264,1281.56 794.709,1282.06 799.154,1282.55 803.599,1283.04 808.044,1283.52 812.49,1283.99 816.935,1284.46 821.38,1284.91 825.825,1285.36 830.27,1285.79 834.716,1286.22 839.161,1286.63 843.606,1287.03 848.051,1287.42 852.497,1287.8 856.942,1288.16 861.387,1288.51 865.832,1288.84 870.277,1289.15 874.723,1289.45 879.168,1289.73 883.613,1289.98 888.058,1290.22 892.503,1290.44 896.949,1290.64 901.394,1290.82 905.839,1290.97 910.284,1291.1 914.73,1291.21 919.175,1291.29 923.62,1291.35 928.065,1291.38 932.51,1291.38 936.956,1291.36 941.401,1291.3 945.846,1291.22 950.291,1291.11 954.736,1290.97 959.182,1290.79 963.627,1290.59 968.072,1290.36 972.517,1290.09 976.963,1289.79 981.408,1289.45 985.853,1289.09 990.298,1288.68 994.743,1288.25 999.189,1287.78 1003.63,1287.27 1008.08,1286.73 1012.52,1286.15 1016.97,1285.54 1021.41,1284.88 1025.86,1284.2 1030.31,1283.47 1034.75,1282.71 1039.2,1281.92 1043.64,1281.08 1048.09,1280.21 1052.53,1279.3 1056.98,1278.35 1061.42,1277.37 1065.87,1276.35 1070.31,1275.29 1074.76,1274.19 1079.2,1273.06 1083.65,1271.89 1088.09,1270.68 1092.54,1269.44 1096.98,1268.16 1101.43,1266.84 1105.87,1265.48 1110.32,1264.09 1114.76,1262.66 1119.21,1261.2 1123.65,1259.7 1128.1,1258.16 1132.54,1256.59 1136.99,1254.98 1141.44,1253.34 1145.88,1251.67 1150.33,1249.96 1154.77,1248.21 1159.22,1246.43 1163.66,1244.62 1168.11,1242.78 1172.55,1240.9 1177,1238.99 1181.44,1237.04 1185.89,1235.07 1190.33,1233.06 1194.78,1231.01 1199.22,1228.94 1203.67,1226.83 1208.11,1224.7 1212.56,1222.53 1217,1220.33 1221.45,1218.1 1225.89,1215.83 1230.34,1213.54 1234.78,1211.22 1239.23,1208.86 1243.68,1206.48 1248.12,1204.07 1252.57,1201.62 1257.01,1199.15 1261.46,1196.65 1265.9,1194.12 1270.35,1191.56 1274.79,1188.97 1279.24,1186.35 1283.68,1183.71 1288.13,1181.04 1292.57,1178.35 1297.02,1175.62 1301.46,1172.88 1305.91,1170.11 1310.35,1167.31 1314.8,1164.5 1319.24,1161.66 1323.69,1158.79 1328.13,1155.91 1332.58,1153 1337.02,1150.08 1341.47,1147.13 1345.92,1144.17 1350.36,1141.19 1354.81,1138.19 1359.25,1135.18 1363.7,1132.15 1368.14,1129.11 1372.59,1126.05 1377.03,1122.99 1381.48,1119.9 1385.92,1116.81 1390.37,1113.71 1394.81,1110.6 1399.26,1107.49 1403.7,1104.36 1408.15,1101.24 1412.59,1098.1 1417.04,1094.97 1421.48,1091.83 1425.93,1088.69 1430.37,1085.54 1434.82,1082.4 1439.26,1079.27 1443.71,1076.13 1448.16,1073 1452.6,1069.87 1457.05,1066.75 1461.49,1063.64 1465.94,1060.53 1470.38,1057.44 1474.83,1054.35 1479.27,1051.28 1483.72,1048.21 1488.16,1045.16 1492.61,1042.12 1497.05,1039.1 1501.5,1036.09 1505.94,1033.1 1510.39,1030.13 1514.83,1027.17 1519.28,1024.23 1523.72,1021.3 1528.17,1018.4 1532.61,1015.51 1537.06,1012.65 1541.5,1009.8 1545.95,1006.98 1550.39,1004.17 1554.84,1001.39 1559.29,998.622 1563.73,995.881 1568.18,993.161 1572.62,990.464 1577.07,987.79 1581.51,985.139 1585.96,982.511 1590.4,979.907 1594.85,977.327 1599.29,974.772 1603.74,972.242 1608.18,969.737 1612.63,967.258 1617.07,964.804 1621.52,962.377 1625.96,959.977 1630.41,957.604 1634.85,955.258 1639.3,952.94 1643.74,950.651 1648.19,948.389 1652.63,946.157 1657.08,943.954 1661.53,941.781 1665.97,939.637 1670.42,937.524 1674.86,935.442 1679.31,933.39 1683.75,931.371 1688.2,929.382 1692.64,927.427 1697.09,925.503 1701.53,923.613 1705.98,921.755 1710.42,919.932 1714.87,918.142 1719.31,916.387 1723.76,914.666 1728.2,912.98 1732.65,911.33 1737.09,909.716 1741.54,908.137 1745.98,906.595 1750.43,905.089 1754.87,903.621 1759.32,902.189 1763.77,900.795 1768.21,899.439 1772.66,898.12 1777.1,896.84 1781.55,895.597 1785.99,894.393 1790.44,893.227 1794.88,892.1 1799.33,891.01 1803.77,889.959 1808.22,888.946 1812.66,887.971 1817.11,887.034 1821.55,886.134 1826,885.272 1830.44,884.447 1834.89,883.659 1839.33,882.907 1843.78,882.192 1848.22,881.513 1852.67,880.869 1857.11,880.261 1861.56,879.688 1866.01,879.15 1870.45,878.646 1874.9,878.176 1879.34,877.739 1883.79,877.335 1888.23,876.964 1892.68,876.624 1897.12,876.316 1901.57,876.04 1906.01,875.794 1910.46,875.578 1914.9,875.393 1919.35,875.236 1923.79,875.109 1928.24,875.01 1932.68,874.938 1937.13,874.895 1941.57,874.878 1946.02,874.887 1950.46,874.922 1954.91,874.983 1959.35,875.069 1963.8,875.18 1968.24,875.315 1972.69,875.473 1977.14,875.654 1981.58,875.859 1986.03,876.085 1990.47,876.333 1994.92,876.603 1999.36,876.894 2003.81,877.205 2008.25,877.537 2012.7,877.888 2017.14,878.258 2021.59,878.648 2026.03,879.056 2030.48,879.483 2034.92,879.927 2039.37,880.389 2043.81,880.868 2048.26,881.364 2052.7,881.876 2057.15,882.404 2061.59,882.949 2066.04,883.509 2070.48,884.084 2074.93,884.674 2079.38,885.278 2083.82,885.897 2088.27,886.53 2092.71,887.177 2097.16,887.836 2101.6,888.509 2106.05,889.193 2110.49,889.89 2114.94,890.599 2119.38,891.319 2123.83,892.049 2128.27,892.791 2132.72,893.542 2137.16,894.303 2141.61,895.074 2146.05,895.853 2150.5,896.641 2154.94,897.438 2159.39,898.242 2163.83,899.054 2168.28,899.873 2172.72,900.698 2177.17,901.529 2181.62,902.366 2186.06,903.208 2190.51,904.055 2194.95,904.906 2199.4,905.762 2203.84,906.621 2208.29,907.483 2212.73,908.349 2217.18,909.217 2221.62,910.087 2226.07,910.959 2230.51,911.834 2234.96,912.709 2239.4,913.587 2243.85,914.465 2248.29,915.344 2252.74,916.224 2257.18,917.104 2261.63,917.985 2266.07,918.866 2270.52,919.747 2274.96,920.628 2279.41,921.509 2283.86,922.391 2288.3,923.272 2292.75,924.154 "/>
<path clip-path="url(#clip130)" d="M303.068 507.829 L735.752 507.829 L735.752 93.1086 L303.068 93.1086  Z" fill="#ffffff" fill-rule="evenodd" fill-opacity="1"/>
<polyline clip-path="url(#clip130)" style="stroke:#000000; stroke-linecap:round; stroke-linejoin:round; stroke-width:4; stroke-opacity:1; fill:none" points="303.068,507.829 735.752,507.829 735.752,93.1086 303.068,93.1086 303.068,507.829 "/>
<polyline clip-path="url(#clip130)" style="stroke:#009af9; stroke-linecap:round; stroke-linejoin:round; stroke-width:4; stroke-opacity:1; fill:none" points="326.628,144.949 467.986,144.949 "/>
<path clip-path="url(#clip130)" d="M509.971 137.067 L509.971 141.094 Q508.166 140.169 506.221 139.706 Q504.277 139.243 502.193 139.243 Q499.022 139.243 497.425 140.215 Q495.851 141.187 495.851 143.131 Q495.851 144.613 496.985 145.469 Q498.119 146.303 501.545 147.067 L503.004 147.391 Q507.541 148.363 509.439 150.145 Q511.36 151.905 511.36 155.076 Q511.36 158.687 508.49 160.793 Q505.642 162.9 500.642 162.9 Q498.559 162.9 496.291 162.483 Q494.045 162.09 491.545 161.28 L491.545 156.881 Q493.906 158.108 496.198 158.733 Q498.49 159.335 500.735 159.335 Q503.744 159.335 505.365 158.317 Q506.985 157.275 506.985 155.4 Q506.985 153.664 505.804 152.738 Q504.647 151.812 500.689 150.956 L499.207 150.608 Q495.249 149.775 493.49 148.062 Q491.73 146.326 491.73 143.317 Q491.73 139.659 494.323 137.669 Q496.916 135.678 501.684 135.678 Q504.045 135.678 506.129 136.025 Q508.212 136.372 509.971 137.067 Z" fill="#000000" fill-rule="nonzero" fill-opacity="1" /><path clip-path="url(#clip130)" d="M518.142 136.303 L522.402 136.303 L522.402 162.229 L518.142 162.229 L518.142 136.303 M518.142 126.21 L522.402 126.21 L522.402 131.604 L518.142 131.604 L518.142 126.21 Z" fill="#000000" fill-rule="nonzero" fill-opacity="1" /><path clip-path="url(#clip130)" d="M548.374 148.965 Q548.374 144.335 546.452 141.789 Q544.554 139.243 541.105 139.243 Q537.679 139.243 535.758 141.789 Q533.86 144.335 533.86 148.965 Q533.86 153.571 535.758 156.118 Q537.679 158.664 541.105 158.664 Q544.554 158.664 546.452 156.118 Q548.374 153.571 548.374 148.965 M552.633 159.011 Q552.633 165.631 549.693 168.849 Q546.753 172.09 540.689 172.09 Q538.443 172.09 536.452 171.742 Q534.462 171.418 532.587 170.724 L532.587 166.58 Q534.462 167.599 536.29 168.085 Q538.119 168.571 540.017 168.571 Q544.207 168.571 546.29 166.372 Q548.374 164.196 548.374 159.775 L548.374 157.668 Q547.054 159.96 544.994 161.094 Q542.934 162.229 540.064 162.229 Q535.295 162.229 532.378 158.594 Q529.462 154.96 529.462 148.965 Q529.462 142.946 532.378 139.312 Q535.295 135.678 540.064 135.678 Q542.934 135.678 544.994 136.812 Q547.054 137.946 548.374 140.238 L548.374 136.303 L552.633 136.303 L552.633 159.011 Z" fill="#000000" fill-rule="nonzero" fill-opacity="1" /><path clip-path="url(#clip130)" d="M582.957 146.581 L582.957 162.229 L578.698 162.229 L578.698 146.719 Q578.698 143.039 577.262 141.21 Q575.827 139.382 572.957 139.382 Q569.508 139.382 567.517 141.581 Q565.526 143.78 565.526 147.576 L565.526 162.229 L561.244 162.229 L561.244 136.303 L565.526 136.303 L565.526 140.331 Q567.054 137.993 569.114 136.835 Q571.198 135.678 573.906 135.678 Q578.373 135.678 580.665 138.456 Q582.957 141.21 582.957 146.581 Z" fill="#000000" fill-rule="nonzero" fill-opacity="1" /><path clip-path="url(#clip130)" d="M603.234 149.196 Q598.072 149.196 596.082 150.377 Q594.091 151.557 594.091 154.405 Q594.091 156.673 595.572 158.016 Q597.077 159.335 599.647 159.335 Q603.188 159.335 605.318 156.835 Q607.471 154.312 607.471 150.145 L607.471 149.196 L603.234 149.196 M611.73 147.437 L611.73 162.229 L607.471 162.229 L607.471 158.293 Q606.012 160.655 603.836 161.789 Q601.66 162.9 598.512 162.9 Q594.531 162.9 592.17 160.678 Q589.832 158.432 589.832 154.682 Q589.832 150.307 592.748 148.085 Q595.688 145.863 601.498 145.863 L607.471 145.863 L607.471 145.446 Q607.471 142.507 605.526 140.909 Q603.605 139.289 600.109 139.289 Q597.887 139.289 595.781 139.821 Q593.674 140.354 591.73 141.419 L591.73 137.483 Q594.068 136.581 596.267 136.141 Q598.466 135.678 600.549 135.678 Q606.174 135.678 608.952 138.594 Q611.73 141.511 611.73 147.437 Z" fill="#000000" fill-rule="nonzero" fill-opacity="1" /><path clip-path="url(#clip130)" d="M620.503 126.21 L624.762 126.21 L624.762 162.229 L620.503 162.229 L620.503 126.21 Z" fill="#000000" fill-rule="nonzero" fill-opacity="1" /><polyline clip-path="url(#clip130)" style="stroke:#e26f46; stroke-linecap:round; stroke-linejoin:round; stroke-width:4; stroke-opacity:1; fill:none" points="326.628,196.789 467.986,196.789 "/>
<path clip-path="url(#clip130)" d="M496.221 183.351 L496.221 210.226 L501.869 210.226 Q509.022 210.226 512.332 206.985 Q515.666 203.745 515.666 196.754 Q515.666 189.809 512.332 186.592 Q509.022 183.351 501.869 183.351 L496.221 183.351 M491.545 179.509 L501.152 179.509 Q511.198 179.509 515.897 183.698 Q520.596 187.865 520.596 196.754 Q520.596 205.689 515.874 209.879 Q511.152 214.069 501.152 214.069 L491.545 214.069 L491.545 179.509 Z" fill="#000000" fill-rule="nonzero" fill-opacity="1" /><path clip-path="url(#clip130)" d="M544.392 188.907 L544.392 192.934 Q542.587 192.009 540.642 191.546 Q538.698 191.083 536.614 191.083 Q533.443 191.083 531.846 192.055 Q530.272 193.027 530.272 194.971 Q530.272 196.453 531.406 197.309 Q532.54 198.143 535.966 198.907 L537.425 199.231 Q541.962 200.203 543.86 201.985 Q545.781 203.745 545.781 206.916 Q545.781 210.527 542.911 212.633 Q540.064 214.74 535.064 214.74 Q532.98 214.74 530.712 214.323 Q528.466 213.93 525.966 213.12 L525.966 208.721 Q528.327 209.948 530.619 210.573 Q532.911 211.175 535.156 211.175 Q538.165 211.175 539.786 210.157 Q541.406 209.115 541.406 207.24 Q541.406 205.504 540.226 204.578 Q539.068 203.652 535.11 202.796 L533.628 202.448 Q529.67 201.615 527.911 199.902 Q526.152 198.166 526.152 195.157 Q526.152 191.499 528.744 189.509 Q531.337 187.518 536.105 187.518 Q538.466 187.518 540.55 187.865 Q542.633 188.212 544.392 188.907 Z" fill="#000000" fill-rule="nonzero" fill-opacity="1" /><path clip-path="url(#clip130)" d="M556.684 210.18 L556.684 223.93 L552.401 223.93 L552.401 188.143 L556.684 188.143 L556.684 192.078 Q558.026 189.763 560.063 188.652 Q562.124 187.518 564.971 187.518 Q569.693 187.518 572.633 191.268 Q575.596 195.018 575.596 201.129 Q575.596 207.24 572.633 210.99 Q569.693 214.74 564.971 214.74 Q562.124 214.74 560.063 213.629 Q558.026 212.495 556.684 210.18 M571.174 201.129 Q571.174 196.43 569.23 193.768 Q567.309 191.083 563.929 191.083 Q560.55 191.083 558.605 193.768 Q556.684 196.43 556.684 201.129 Q556.684 205.828 558.605 208.513 Q560.55 211.175 563.929 211.175 Q567.309 211.175 569.23 208.513 Q571.174 205.828 571.174 201.129 Z" fill="#000000" fill-rule="nonzero" fill-opacity="1" /><path clip-path="url(#clip130)" d="M582.656 178.05 L586.915 178.05 L586.915 214.069 L582.656 214.069 L582.656 178.05 Z" fill="#000000" fill-rule="nonzero" fill-opacity="1" /><path clip-path="url(#clip130)" d="M595.827 188.143 L600.086 188.143 L600.086 214.069 L595.827 214.069 L595.827 188.143 M595.827 178.05 L600.086 178.05 L600.086 183.444 L595.827 183.444 L595.827 178.05 Z" fill="#000000" fill-rule="nonzero" fill-opacity="1" /><path clip-path="url(#clip130)" d="M630.549 198.421 L630.549 214.069 L626.29 214.069 L626.29 198.559 Q626.29 194.879 624.855 193.05 Q623.42 191.222 620.549 191.222 Q617.1 191.222 615.109 193.421 Q613.119 195.62 613.119 199.416 L613.119 214.069 L608.836 214.069 L608.836 188.143 L613.119 188.143 L613.119 192.171 Q614.646 189.833 616.707 188.675 Q618.79 187.518 621.498 187.518 Q625.966 187.518 628.257 190.296 Q630.549 193.05 630.549 198.421 Z" fill="#000000" fill-rule="nonzero" fill-opacity="1" /><path clip-path="url(#clip130)" d="M661.22 200.041 L661.22 202.124 L641.637 202.124 Q641.915 206.522 644.276 208.837 Q646.66 211.129 650.896 211.129 Q653.35 211.129 655.642 210.527 Q657.956 209.925 660.225 208.721 L660.225 212.749 Q657.933 213.721 655.526 214.231 Q653.118 214.74 650.642 214.74 Q644.438 214.74 640.804 211.129 Q637.193 207.518 637.193 201.36 Q637.193 194.995 640.619 191.268 Q644.068 187.518 649.901 187.518 Q655.132 187.518 658.165 190.897 Q661.22 194.254 661.22 200.041 M656.961 198.791 Q656.915 195.296 654.993 193.212 Q653.095 191.129 649.947 191.129 Q646.382 191.129 644.23 193.143 Q642.1 195.157 641.776 198.814 L656.961 198.791 Z" fill="#000000" fill-rule="nonzero" fill-opacity="1" /><polyline clip-path="url(#clip130)" style="stroke:#3da44d; stroke-linecap:round; stroke-linejoin:round; stroke-width:4; stroke-opacity:1; fill:none" points="326.628,248.629 467.986,248.629 "/>
<path clip-path="url(#clip130)" d="M510.457 252.645 Q510.457 248.015 508.536 245.469 Q506.638 242.923 503.189 242.923 Q499.763 242.923 497.842 245.469 Q495.943 248.015 495.943 252.645 Q495.943 257.251 497.842 259.798 Q499.763 262.344 503.189 262.344 Q506.638 262.344 508.536 259.798 Q510.457 257.251 510.457 252.645 M514.716 262.691 Q514.716 269.311 511.777 272.529 Q508.837 275.77 502.772 275.77 Q500.527 275.77 498.536 275.422 Q496.545 275.098 494.67 274.404 L494.67 270.26 Q496.545 271.279 498.374 271.765 Q500.203 272.251 502.101 272.251 Q506.291 272.251 508.374 270.052 Q510.457 267.876 510.457 263.455 L510.457 261.348 Q509.138 263.64 507.078 264.774 Q505.017 265.909 502.147 265.909 Q497.379 265.909 494.462 262.274 Q491.545 258.64 491.545 252.645 Q491.545 246.626 494.462 242.992 Q497.379 239.358 502.147 239.358 Q505.017 239.358 507.078 240.492 Q509.138 241.626 510.457 243.918 L510.457 239.983 L514.716 239.983 L514.716 262.691 Z" fill="#000000" fill-rule="nonzero" fill-opacity="1" /><path clip-path="url(#clip130)" d="M542.147 240.978 L542.147 244.96 Q540.341 243.964 538.513 243.478 Q536.707 242.969 534.855 242.969 Q530.712 242.969 528.42 245.608 Q526.128 248.224 526.128 252.969 Q526.128 257.714 528.42 260.353 Q530.712 262.969 534.855 262.969 Q536.707 262.969 538.513 262.483 Q540.341 261.973 542.147 260.978 L542.147 264.913 Q540.364 265.747 538.443 266.163 Q536.545 266.58 534.392 266.58 Q528.536 266.58 525.087 262.899 Q521.638 259.219 521.638 252.969 Q521.638 246.626 525.11 242.992 Q528.605 239.358 534.67 239.358 Q536.638 239.358 538.513 239.775 Q540.388 240.168 542.147 240.978 Z" fill="#000000" fill-rule="nonzero" fill-opacity="1" /><path clip-path="url(#clip130)" d="M546.499 239.983 L551.013 239.983 L559.114 261.742 L567.216 239.983 L571.73 239.983 L562.008 265.909 L556.221 265.909 L546.499 239.983 Z" fill="#000000" fill-rule="nonzero" fill-opacity="1" /><path clip-path="url(#clip130)" d="M594.137 240.747 L594.137 244.774 Q592.332 243.849 590.387 243.386 Q588.443 242.923 586.36 242.923 Q583.188 242.923 581.591 243.895 Q580.017 244.867 580.017 246.811 Q580.017 248.293 581.151 249.149 Q582.286 249.983 585.711 250.747 L587.17 251.071 Q591.707 252.043 593.605 253.825 Q595.526 255.585 595.526 258.756 Q595.526 262.367 592.656 264.473 Q589.809 266.58 584.809 266.58 Q582.725 266.58 580.457 266.163 Q578.211 265.77 575.711 264.96 L575.711 260.561 Q578.073 261.788 580.364 262.413 Q582.656 263.015 584.901 263.015 Q587.91 263.015 589.531 261.997 Q591.151 260.955 591.151 259.08 Q591.151 257.344 589.971 256.418 Q588.813 255.492 584.855 254.636 L583.373 254.288 Q579.415 253.455 577.656 251.742 Q575.897 250.006 575.897 246.997 Q575.897 243.339 578.489 241.349 Q581.082 239.358 585.85 239.358 Q588.211 239.358 590.295 239.705 Q592.378 240.052 594.137 240.747 Z" fill="#000000" fill-rule="nonzero" fill-opacity="1" /><path clip-path="url(#clip130)" d="M606.429 262.02 L606.429 275.77 L602.147 275.77 L602.147 239.983 L606.429 239.983 L606.429 243.918 Q607.771 241.603 609.809 240.492 Q611.869 239.358 614.716 239.358 Q619.438 239.358 622.378 243.108 Q625.341 246.858 625.341 252.969 Q625.341 259.08 622.378 262.83 Q619.438 266.58 614.716 266.58 Q611.869 266.58 609.809 265.469 Q607.771 264.335 606.429 262.02 M620.92 252.969 Q620.92 248.27 618.975 245.608 Q617.054 242.923 613.674 242.923 Q610.295 242.923 608.35 245.608 Q606.429 248.27 606.429 252.969 Q606.429 257.668 608.35 260.353 Q610.295 263.015 613.674 263.015 Q617.054 263.015 618.975 260.353 Q620.92 257.668 620.92 252.969 Z" fill="#000000" fill-rule="nonzero" fill-opacity="1" /><path clip-path="url(#clip130)" d="M632.401 229.89 L636.66 229.89 L636.66 265.909 L632.401 265.909 L632.401 229.89 Z" fill="#000000" fill-rule="nonzero" fill-opacity="1" /><path clip-path="url(#clip130)" d="M645.572 239.983 L649.831 239.983 L649.831 265.909 L645.572 265.909 L645.572 239.983 M645.572 229.89 L649.831 229.89 L649.831 235.284 L645.572 235.284 L645.572 229.89 Z" fill="#000000" fill-rule="nonzero" fill-opacity="1" /><path clip-path="url(#clip130)" d="M680.294 250.261 L680.294 265.909 L676.035 265.909 L676.035 250.399 Q676.035 246.719 674.6 244.89 Q673.165 243.062 670.294 243.062 Q666.845 243.062 664.855 245.261 Q662.864 247.46 662.864 251.256 L662.864 265.909 L658.581 265.909 L658.581 239.983 L662.864 239.983 L662.864 244.011 Q664.392 241.673 666.452 240.515 Q668.535 239.358 671.243 239.358 Q675.711 239.358 678.003 242.136 Q680.294 244.89 680.294 250.261 Z" fill="#000000" fill-rule="nonzero" fill-opacity="1" /><path clip-path="url(#clip130)" d="M710.965 251.881 L710.965 253.964 L691.382 253.964 Q691.66 258.362 694.021 260.677 Q696.405 262.969 700.641 262.969 Q703.095 262.969 705.387 262.367 Q707.702 261.765 709.97 260.561 L709.97 264.589 Q707.678 265.561 705.271 266.071 Q702.864 266.58 700.387 266.58 Q694.183 266.58 690.549 262.969 Q686.938 259.358 686.938 253.2 Q686.938 246.835 690.364 243.108 Q693.813 239.358 699.646 239.358 Q704.877 239.358 707.91 242.737 Q710.965 246.094 710.965 251.881 M706.706 250.631 Q706.66 247.136 704.739 245.052 Q702.84 242.969 699.692 242.969 Q696.127 242.969 693.975 244.983 Q691.845 246.997 691.521 250.654 L706.706 250.631 Z" fill="#000000" fill-rule="nonzero" fill-opacity="1" /><polyline clip-path="url(#clip130)" style="stroke:#c271d2; stroke-linecap:round; stroke-linejoin:round; stroke-width:4; stroke-opacity:1; fill:none" points="326.628,300.469 467.986,300.469 "/>
<path clip-path="url(#clip130)" d="M491.545 291.823 L495.804 291.823 L501.129 312.054 L506.429 291.823 L511.453 291.823 L516.777 312.054 L522.078 291.823 L526.337 291.823 L519.554 317.749 L514.531 317.749 L508.953 296.499 L503.351 317.749 L498.328 317.749 L491.545 291.823 Z" fill="#000000" fill-rule="nonzero" fill-opacity="1" /><path clip-path="url(#clip130)" d="M554.346 302.101 L554.346 317.749 L550.087 317.749 L550.087 302.239 Q550.087 298.559 548.651 296.73 Q547.216 294.902 544.346 294.902 Q540.897 294.902 538.906 297.101 Q536.915 299.3 536.915 303.096 L536.915 317.749 L532.633 317.749 L532.633 281.73 L536.915 281.73 L536.915 295.851 Q538.443 293.513 540.503 292.355 Q542.587 291.198 545.295 291.198 Q549.763 291.198 552.054 293.976 Q554.346 296.73 554.346 302.101 Z" fill="#000000" fill-rule="nonzero" fill-opacity="1" /><path clip-path="url(#clip130)" d="M562.841 291.823 L567.1 291.823 L567.1 317.749 L562.841 317.749 L562.841 291.823 M562.841 281.73 L567.1 281.73 L567.1 287.124 L562.841 287.124 L562.841 281.73 Z" fill="#000000" fill-rule="nonzero" fill-opacity="1" /><path clip-path="url(#clip130)" d="M580.225 284.462 L580.225 291.823 L588.998 291.823 L588.998 295.133 L580.225 295.133 L580.225 309.207 Q580.225 312.378 581.082 313.281 Q581.961 314.184 584.623 314.184 L588.998 314.184 L588.998 317.749 L584.623 317.749 Q579.693 317.749 577.818 315.92 Q575.943 314.068 575.943 309.207 L575.943 295.133 L572.818 295.133 L572.818 291.823 L575.943 291.823 L575.943 284.462 L580.225 284.462 Z" fill="#000000" fill-rule="nonzero" fill-opacity="1" /><path clip-path="url(#clip130)" d="M598.813 284.462 L598.813 291.823 L607.586 291.823 L607.586 295.133 L598.813 295.133 L598.813 309.207 Q598.813 312.378 599.67 313.281 Q600.549 314.184 603.211 314.184 L607.586 314.184 L607.586 317.749 L603.211 317.749 Q598.281 317.749 596.406 315.92 Q594.531 314.068 594.531 309.207 L594.531 295.133 L591.406 295.133 L591.406 291.823 L594.531 291.823 L594.531 284.462 L598.813 284.462 Z" fill="#000000" fill-rule="nonzero" fill-opacity="1" /><path clip-path="url(#clip130)" d="M624.97 304.716 Q619.808 304.716 617.818 305.897 Q615.827 307.077 615.827 309.925 Q615.827 312.193 617.308 313.536 Q618.813 314.855 621.383 314.855 Q624.924 314.855 627.054 312.355 Q629.207 309.832 629.207 305.665 L629.207 304.716 L624.97 304.716 M633.466 302.957 L633.466 317.749 L629.207 317.749 L629.207 313.813 Q627.748 316.175 625.572 317.309 Q623.396 318.42 620.248 318.42 Q616.267 318.42 613.906 316.198 Q611.568 313.952 611.568 310.202 Q611.568 305.827 614.484 303.605 Q617.424 301.383 623.234 301.383 L629.207 301.383 L629.207 300.966 Q629.207 298.027 627.262 296.429 Q625.341 294.809 621.845 294.809 Q619.623 294.809 617.517 295.341 Q615.41 295.874 613.466 296.939 L613.466 293.003 Q615.804 292.101 618.003 291.661 Q620.202 291.198 622.285 291.198 Q627.91 291.198 630.688 294.114 Q633.466 297.031 633.466 302.957 Z" fill="#000000" fill-rule="nonzero" fill-opacity="1" /><path clip-path="url(#clip130)" d="M642.077 281.73 L646.359 281.73 L646.359 303.003 L659.068 291.823 L664.507 291.823 L650.757 303.952 L665.086 317.749 L659.53 317.749 L646.359 305.087 L646.359 317.749 L642.077 317.749 L642.077 281.73 Z" fill="#000000" fill-rule="nonzero" fill-opacity="1" /><path clip-path="url(#clip130)" d="M690.178 303.721 L690.178 305.804 L670.595 305.804 Q670.873 310.202 673.234 312.517 Q675.618 314.809 679.854 314.809 Q682.308 314.809 684.6 314.207 Q686.915 313.605 689.183 312.401 L689.183 316.429 Q686.891 317.401 684.484 317.911 Q682.077 318.42 679.6 318.42 Q673.396 318.42 669.762 314.809 Q666.151 311.198 666.151 305.04 Q666.151 298.675 669.577 294.948 Q673.026 291.198 678.859 291.198 Q684.091 291.198 687.123 294.577 Q690.178 297.934 690.178 303.721 M685.919 302.471 Q685.873 298.976 683.952 296.892 Q682.053 294.809 678.905 294.809 Q675.341 294.809 673.188 296.823 Q671.058 298.837 670.734 302.494 L685.919 302.471 Z" fill="#000000" fill-rule="nonzero" fill-opacity="1" /><path clip-path="url(#clip130)" d="M712.192 295.804 Q711.475 295.388 710.618 295.202 Q709.785 294.994 708.766 294.994 Q705.155 294.994 703.211 297.355 Q701.29 299.693 701.29 304.091 L701.29 317.749 L697.007 317.749 L697.007 291.823 L701.29 291.823 L701.29 295.851 Q702.632 293.489 704.785 292.355 Q706.938 291.198 710.016 291.198 Q710.456 291.198 710.989 291.267 Q711.521 291.314 712.169 291.429 L712.192 295.804 Z" fill="#000000" fill-rule="nonzero" fill-opacity="1" /><polyline clip-path="url(#clip130)" style="stroke:#ac8d18; stroke-linecap:round; stroke-linejoin:round; stroke-width:4; stroke-opacity:1; fill:none" points="326.628,352.309 467.986,352.309 "/>
<path clip-path="url(#clip130)" d="M504.948 356.556 Q499.786 356.556 497.795 357.737 Q495.804 358.917 495.804 361.765 Q495.804 364.033 497.286 365.376 Q498.791 366.695 501.36 366.695 Q504.902 366.695 507.031 364.195 Q509.184 361.672 509.184 357.505 L509.184 356.556 L504.948 356.556 M513.443 354.797 L513.443 369.589 L509.184 369.589 L509.184 365.653 Q507.726 368.015 505.55 369.149 Q503.374 370.26 500.226 370.26 Q496.244 370.26 493.883 368.038 Q491.545 365.792 491.545 362.042 Q491.545 357.667 494.462 355.445 Q497.402 353.223 503.212 353.223 L509.184 353.223 L509.184 352.806 Q509.184 349.867 507.24 348.269 Q505.318 346.649 501.823 346.649 Q499.601 346.649 497.494 347.181 Q495.388 347.714 493.443 348.779 L493.443 344.843 Q495.781 343.941 497.98 343.501 Q500.179 343.038 502.263 343.038 Q507.888 343.038 510.666 345.954 Q513.443 348.871 513.443 354.797 Z" fill="#000000" fill-rule="nonzero" fill-opacity="1" /><path clip-path="url(#clip130)" d="M522.216 333.57 L526.476 333.57 L526.476 369.589 L522.216 369.589 L522.216 333.57 Z" fill="#000000" fill-rule="nonzero" fill-opacity="1" /><path clip-path="url(#clip130)" d="M551.915 344.427 L551.915 348.454 Q550.11 347.529 548.165 347.066 Q546.221 346.603 544.138 346.603 Q540.966 346.603 539.369 347.575 Q537.795 348.547 537.795 350.491 Q537.795 351.973 538.929 352.829 Q540.064 353.663 543.489 354.427 L544.948 354.751 Q549.485 355.723 551.383 357.505 Q553.304 359.265 553.304 362.436 Q553.304 366.047 550.434 368.153 Q547.587 370.26 542.587 370.26 Q540.503 370.26 538.235 369.843 Q535.989 369.45 533.489 368.64 L533.489 364.241 Q535.851 365.468 538.142 366.093 Q540.434 366.695 542.679 366.695 Q545.688 366.695 547.309 365.677 Q548.929 364.635 548.929 362.76 Q548.929 361.024 547.749 360.098 Q546.591 359.172 542.633 358.316 L541.151 357.968 Q537.193 357.135 535.434 355.422 Q533.675 353.686 533.675 350.677 Q533.675 347.019 536.267 345.029 Q538.86 343.038 543.628 343.038 Q545.989 343.038 548.073 343.385 Q550.156 343.732 551.915 344.427 Z" fill="#000000" fill-rule="nonzero" fill-opacity="1" /><polyline clip-path="url(#clip130)" style="stroke:#00a9ad; stroke-linecap:round; stroke-linejoin:round; stroke-width:4; stroke-opacity:1; fill:none" points="326.628,404.149 467.986,404.149 "/>
<path clip-path="url(#clip130)" d="M504.948 408.396 Q499.786 408.396 497.795 409.577 Q495.804 410.757 495.804 413.605 Q495.804 415.873 497.286 417.216 Q498.791 418.535 501.36 418.535 Q504.902 418.535 507.031 416.035 Q509.184 413.512 509.184 409.345 L509.184 408.396 L504.948 408.396 M513.443 406.637 L513.443 421.429 L509.184 421.429 L509.184 417.493 Q507.726 419.855 505.55 420.989 Q503.374 422.1 500.226 422.1 Q496.244 422.1 493.883 419.878 Q491.545 417.632 491.545 413.882 Q491.545 409.507 494.462 407.285 Q497.402 405.063 503.212 405.063 L509.184 405.063 L509.184 404.646 Q509.184 401.707 507.24 400.109 Q505.318 398.489 501.823 398.489 Q499.601 398.489 497.494 399.021 Q495.388 399.554 493.443 400.619 L493.443 396.683 Q495.781 395.781 497.98 395.341 Q500.179 394.878 502.263 394.878 Q507.888 394.878 510.666 397.794 Q513.443 400.711 513.443 406.637 Z" fill="#000000" fill-rule="nonzero" fill-opacity="1" /><path clip-path="url(#clip130)" d="M537.239 399.484 Q536.522 399.068 535.665 398.882 Q534.832 398.674 533.814 398.674 Q530.202 398.674 528.258 401.035 Q526.337 403.373 526.337 407.771 L526.337 421.429 L522.054 421.429 L522.054 395.503 L526.337 395.503 L526.337 399.531 Q527.679 397.169 529.832 396.035 Q531.985 394.878 535.064 394.878 Q535.503 394.878 536.036 394.947 Q536.568 394.994 537.216 395.109 L537.239 399.484 Z" fill="#000000" fill-rule="nonzero" fill-opacity="1" /><path clip-path="url(#clip130)" d="M546.568 390.711 L546.568 403.697 L552.448 403.697 Q555.712 403.697 557.494 402.007 Q559.276 400.318 559.276 397.193 Q559.276 394.091 557.494 392.401 Q555.712 390.711 552.448 390.711 L546.568 390.711 M541.892 386.869 L552.448 386.869 Q558.258 386.869 561.221 389.507 Q564.207 392.123 564.207 397.193 Q564.207 402.308 561.221 404.924 Q558.258 407.54 552.448 407.54 L546.568 407.54 L546.568 421.429 L541.892 421.429 L541.892 386.869 Z" fill="#000000" fill-rule="nonzero" fill-opacity="1" /><path clip-path="url(#clip130)" d="M570.48 386.869 L575.156 386.869 L575.156 417.493 L591.985 417.493 L591.985 421.429 L570.48 421.429 L570.48 386.869 Z" fill="#000000" fill-rule="nonzero" fill-opacity="1" /><path clip-path="url(#clip130)" d="M617.609 388.003 L617.609 392.563 Q614.947 391.29 612.586 390.665 Q610.225 390.04 608.026 390.04 Q604.207 390.04 602.123 391.521 Q600.063 393.003 600.063 395.734 Q600.063 398.026 601.429 399.207 Q602.818 400.364 606.66 401.082 L609.484 401.66 Q614.716 402.656 617.193 405.179 Q619.693 407.679 619.693 411.892 Q619.693 416.915 616.313 419.507 Q612.957 422.1 606.452 422.1 Q603.998 422.1 601.221 421.544 Q598.466 420.989 595.503 419.901 L595.503 415.086 Q598.35 416.683 601.082 417.493 Q603.813 418.304 606.452 418.304 Q610.457 418.304 612.633 416.73 Q614.808 415.156 614.808 412.239 Q614.808 409.693 613.234 408.257 Q611.684 406.822 608.119 406.105 L605.272 405.549 Q600.04 404.507 597.702 402.285 Q595.364 400.063 595.364 396.105 Q595.364 391.521 598.582 388.882 Q601.822 386.244 607.494 386.244 Q609.924 386.244 612.447 386.683 Q614.971 387.123 617.609 388.003 Z" fill="#000000" fill-rule="nonzero" fill-opacity="1" /><polyline clip-path="url(#clip130)" style="stroke:#ed5d92; stroke-linecap:round; stroke-linejoin:round; stroke-width:4; stroke-opacity:1; fill:none" points="326.628,455.989 467.986,455.989 "/>
<path clip-path="url(#clip130)" d="M510.457 451.278 L510.457 437.25 L514.716 437.25 L514.716 473.269 L510.457 473.269 L510.457 469.38 Q509.115 471.695 507.054 472.829 Q505.017 473.94 502.147 473.94 Q497.448 473.94 494.485 470.19 Q491.545 466.44 491.545 460.329 Q491.545 454.218 494.485 450.468 Q497.448 446.718 502.147 446.718 Q505.017 446.718 507.054 447.852 Q509.115 448.963 510.457 451.278 M495.943 460.329 Q495.943 465.028 497.865 467.713 Q499.809 470.375 503.189 470.375 Q506.568 470.375 508.513 467.713 Q510.457 465.028 510.457 460.329 Q510.457 455.63 508.513 452.968 Q506.568 450.283 503.189 450.283 Q499.809 450.283 497.865 452.968 Q495.943 455.63 495.943 460.329 Z" fill="#000000" fill-rule="nonzero" fill-opacity="1" /><path clip-path="url(#clip130)" d="M538.513 451.324 Q537.795 450.908 536.939 450.722 Q536.105 450.514 535.087 450.514 Q531.476 450.514 529.531 452.875 Q527.61 455.213 527.61 459.611 L527.61 473.269 L523.327 473.269 L523.327 447.343 L527.61 447.343 L527.61 451.371 Q528.952 449.009 531.105 447.875 Q533.258 446.718 536.337 446.718 Q536.776 446.718 537.309 446.787 Q537.841 446.834 538.489 446.949 L538.513 451.324 Z" fill="#000000" fill-rule="nonzero" fill-opacity="1" /><path clip-path="url(#clip130)" d="M547.841 442.551 L547.841 455.537 L553.721 455.537 Q556.985 455.537 558.767 453.847 Q560.55 452.158 560.55 449.033 Q560.55 445.931 558.767 444.241 Q556.985 442.551 553.721 442.551 L547.841 442.551 M543.165 438.709 L553.721 438.709 Q559.531 438.709 562.494 441.347 Q565.48 443.963 565.48 449.033 Q565.48 454.148 562.494 456.764 Q559.531 459.38 553.721 459.38 L547.841 459.38 L547.841 473.269 L543.165 473.269 L543.165 438.709 Z" fill="#000000" fill-rule="nonzero" fill-opacity="1" /><path clip-path="url(#clip130)" d="M571.753 438.709 L576.429 438.709 L576.429 469.333 L593.258 469.333 L593.258 473.269 L571.753 473.269 L571.753 438.709 Z" fill="#000000" fill-rule="nonzero" fill-opacity="1" /><path clip-path="url(#clip130)" d="M618.883 439.843 L618.883 444.403 Q616.221 443.13 613.859 442.505 Q611.498 441.88 609.299 441.88 Q605.48 441.88 603.397 443.361 Q601.336 444.843 601.336 447.574 Q601.336 449.866 602.702 451.047 Q604.091 452.204 607.934 452.922 L610.758 453.5 Q615.989 454.496 618.466 457.019 Q620.966 459.519 620.966 463.732 Q620.966 468.755 617.586 471.347 Q614.23 473.94 607.725 473.94 Q605.272 473.94 602.494 473.384 Q599.739 472.829 596.776 471.741 L596.776 466.926 Q599.623 468.523 602.355 469.333 Q605.086 470.144 607.725 470.144 Q611.73 470.144 613.906 468.57 Q616.082 466.996 616.082 464.079 Q616.082 461.533 614.508 460.097 Q612.957 458.662 609.392 457.945 L606.545 457.389 Q601.313 456.347 598.975 454.125 Q596.637 451.903 596.637 447.945 Q596.637 443.361 599.855 440.722 Q603.096 438.084 608.767 438.084 Q611.197 438.084 613.721 438.523 Q616.244 438.963 618.883 439.843 Z" fill="#000000" fill-rule="nonzero" fill-opacity="1" /></svg>
