<?xml version="1.0" encoding="utf-8"?>
<svg xmlns="http://www.w3.org/2000/svg" xmlns:xlink="http://www.w3.org/1999/xlink" width="600" height="400" viewBox="0 0 2400 1600">
<defs>
  <clipPath id="clip220">
    <rect x="0" y="0" width="2400" height="1600"/>
  </clipPath>
</defs>
<path clip-path="url(#clip220)" d="M0 1600 L2400 1600 L2400 0 L0 0  Z" fill="#ffffff" fill-rule="evenodd" fill-opacity="1"/>
<defs>
  <clipPath id="clip221">
    <rect x="480" y="0" width="1681" height="1600"/>
  </clipPath>
</defs>
<path clip-path="url(#clip220)" d="M170.857 1486.45 L2352.76 1486.45 L2352.76 47.2441 L170.857 47.2441  Z" fill="#ffffff" fill-rule="evenodd" fill-opacity="1"/>
<defs>
  <clipPath id="clip222">
    <rect x="170" y="47" width="2183" height="1440"/>
  </clipPath>
</defs>
<polyline clip-path="url(#clip222)" style="stroke:#000000; stroke-linecap:round; stroke-linejoin:round; stroke-width:2; stroke-opacity:0.1; fill:none" points="232.31,1486.45 232.31,47.2441 "/>
<polyline clip-path="url(#clip222)" style="stroke:#000000; stroke-linecap:round; stroke-linejoin:round; stroke-width:2; stroke-opacity:0.1; fill:none" points="747.024,1486.45 747.024,47.2441 "/>
<polyline clip-path="url(#clip222)" style="stroke:#000000; stroke-linecap:round; stroke-linejoin:round; stroke-width:2; stroke-opacity:0.1; fill:none" points="1261.74,1486.45 1261.74,47.2441 "/>
<polyline clip-path="url(#clip222)" style="stroke:#000000; stroke-linecap:round; stroke-linejoin:round; stroke-width:2; stroke-opacity:0.1; fill:none" points="1776.45,1486.45 1776.45,47.2441 "/>
<polyline clip-path="url(#clip222)" style="stroke:#000000; stroke-linecap:round; stroke-linejoin:round; stroke-width:2; stroke-opacity:0.1; fill:none" points="2291.17,1486.45 2291.17,47.2441 "/>
<polyline clip-path="url(#clip222)" style="stroke:#000000; stroke-linecap:round; stroke-linejoin:round; stroke-width:2; stroke-opacity:0.1; fill:none" points="170.857,1441.29 2352.76,1441.29 "/>
<polyline clip-path="url(#clip222)" style="stroke:#000000; stroke-linecap:round; stroke-linejoin:round; stroke-width:2; stroke-opacity:0.1; fill:none" points="170.857,1170.63 2352.76,1170.63 "/>
<polyline clip-path="url(#clip222)" style="stroke:#000000; stroke-linecap:round; stroke-linejoin:round; stroke-width:2; stroke-opacity:0.1; fill:none" points="170.857,899.964 2352.76,899.964 "/>
<polyline clip-path="url(#clip222)" style="stroke:#000000; stroke-linecap:round; stroke-linejoin:round; stroke-width:2; stroke-opacity:0.1; fill:none" points="170.857,629.301 2352.76,629.301 "/>
<polyline clip-path="url(#clip222)" style="stroke:#000000; stroke-linecap:round; stroke-linejoin:round; stroke-width:2; stroke-opacity:0.1; fill:none" points="170.857,358.639 2352.76,358.639 "/>
<polyline clip-path="url(#clip222)" style="stroke:#000000; stroke-linecap:round; stroke-linejoin:round; stroke-width:2; stroke-opacity:0.1; fill:none" points="170.857,87.9763 2352.76,87.9763 "/>
<polyline clip-path="url(#clip220)" style="stroke:#000000; stroke-linecap:round; stroke-linejoin:round; stroke-width:4; stroke-opacity:1; fill:none" points="170.857,1486.45 2352.76,1486.45 "/>
<polyline clip-path="url(#clip220)" style="stroke:#000000; stroke-linecap:round; stroke-linejoin:round; stroke-width:4; stroke-opacity:1; fill:none" points="232.31,1486.45 232.31,1467.55 "/>
<polyline clip-path="url(#clip220)" style="stroke:#000000; stroke-linecap:round; stroke-linejoin:round; stroke-width:4; stroke-opacity:1; fill:none" points="747.024,1486.45 747.024,1467.55 "/>
<polyline clip-path="url(#clip220)" style="stroke:#000000; stroke-linecap:round; stroke-linejoin:round; stroke-width:4; stroke-opacity:1; fill:none" points="1261.74,1486.45 1261.74,1467.55 "/>
<polyline clip-path="url(#clip220)" style="stroke:#000000; stroke-linecap:round; stroke-linejoin:round; stroke-width:4; stroke-opacity:1; fill:none" points="1776.45,1486.45 1776.45,1467.55 "/>
<polyline clip-path="url(#clip220)" style="stroke:#000000; stroke-linecap:round; stroke-linejoin:round; stroke-width:4; stroke-opacity:1; fill:none" points="2291.17,1486.45 2291.17,1467.55 "/>
<path clip-path="url(#clip220)" d="M232.31 1517.37 Q228.698 1517.37 226.87 1520.93 Q225.064 1524.47 225.064 1531.6 Q225.064 1538.71 226.87 1542.27 Q228.698 1545.82 232.31 1545.82 Q235.944 1545.82 237.749 1542.27 Q239.578 1538.71 239.578 1531.6 Q239.578 1524.47 237.749 1520.93 Q235.944 1517.37 232.31 1517.37 M232.31 1513.66 Q238.12 1513.66 241.175 1518.27 Q244.254 1522.85 244.254 1531.6 Q244.254 1540.33 241.175 1544.94 Q238.12 1549.52 232.31 1549.52 Q226.499 1549.52 223.421 1544.94 Q220.365 1540.33 220.365 1531.6 Q220.365 1522.85 223.421 1518.27 Q226.499 1513.66 232.31 1513.66 Z" fill="#000000" fill-rule="nonzero" fill-opacity="1" /><path clip-path="url(#clip220)" d="M726.295 1544.91 L742.615 1544.91 L742.615 1548.85 L720.67 1548.85 L720.67 1544.91 Q723.332 1542.16 727.916 1537.53 Q732.522 1532.88 733.703 1531.53 Q735.948 1529.01 736.828 1527.27 Q737.73 1525.51 737.73 1523.82 Q737.73 1521.07 735.786 1519.33 Q733.865 1517.6 730.763 1517.6 Q728.564 1517.6 726.11 1518.36 Q723.68 1519.13 720.902 1520.68 L720.902 1515.95 Q723.726 1514.82 726.18 1514.24 Q728.633 1513.66 730.67 1513.66 Q736.041 1513.66 739.235 1516.35 Q742.429 1519.03 742.429 1523.52 Q742.429 1525.65 741.619 1527.57 Q740.832 1529.47 738.726 1532.07 Q738.147 1532.74 735.045 1535.95 Q731.943 1539.15 726.295 1544.91 Z" fill="#000000" fill-rule="nonzero" fill-opacity="1" /><path clip-path="url(#clip220)" d="M752.476 1514.29 L770.832 1514.29 L770.832 1518.22 L756.758 1518.22 L756.758 1526.7 Q757.777 1526.35 758.795 1526.19 Q759.814 1526 760.832 1526 Q766.619 1526 769.999 1529.17 Q773.378 1532.34 773.378 1537.76 Q773.378 1543.34 769.906 1546.44 Q766.434 1549.52 760.115 1549.52 Q757.939 1549.52 755.67 1549.15 Q753.425 1548.78 751.017 1548.04 L751.017 1543.34 Q753.101 1544.47 755.323 1545.03 Q757.545 1545.58 760.022 1545.58 Q764.027 1545.58 766.365 1543.48 Q768.702 1541.37 768.702 1537.76 Q768.702 1534.15 766.365 1532.04 Q764.027 1529.94 760.022 1529.94 Q758.147 1529.94 756.272 1530.35 Q754.42 1530.77 752.476 1531.65 L752.476 1514.29 Z" fill="#000000" fill-rule="nonzero" fill-opacity="1" /><path clip-path="url(#clip220)" d="M1236.44 1514.29 L1254.79 1514.29 L1254.79 1518.22 L1240.72 1518.22 L1240.72 1526.7 Q1241.74 1526.35 1242.76 1526.19 Q1243.78 1526 1244.79 1526 Q1250.58 1526 1253.96 1529.17 Q1257.34 1532.34 1257.34 1537.76 Q1257.34 1543.34 1253.87 1546.44 Q1250.4 1549.52 1244.08 1549.52 Q1241.9 1549.52 1239.63 1549.15 Q1237.39 1548.78 1234.98 1548.04 L1234.98 1543.34 Q1237.06 1544.47 1239.29 1545.03 Q1241.51 1545.58 1243.98 1545.58 Q1247.99 1545.58 1250.33 1543.48 Q1252.67 1541.37 1252.67 1537.76 Q1252.67 1534.15 1250.33 1532.04 Q1247.99 1529.94 1243.98 1529.94 Q1242.11 1529.94 1240.23 1530.35 Q1238.38 1530.77 1236.44 1531.65 L1236.44 1514.29 Z" fill="#000000" fill-rule="nonzero" fill-opacity="1" /><path clip-path="url(#clip220)" d="M1276.55 1517.37 Q1272.94 1517.37 1271.11 1520.93 Q1269.31 1524.47 1269.31 1531.6 Q1269.31 1538.71 1271.11 1542.27 Q1272.94 1545.82 1276.55 1545.82 Q1280.19 1545.82 1281.99 1542.27 Q1283.82 1538.71 1283.82 1531.6 Q1283.82 1524.47 1281.99 1520.93 Q1280.19 1517.37 1276.55 1517.37 M1276.55 1513.66 Q1282.36 1513.66 1285.42 1518.27 Q1288.5 1522.85 1288.5 1531.6 Q1288.5 1540.33 1285.42 1544.94 Q1282.36 1549.52 1276.55 1549.52 Q1270.74 1549.52 1267.66 1544.94 Q1264.61 1540.33 1264.61 1531.6 Q1264.61 1522.85 1267.66 1518.27 Q1270.74 1513.66 1276.55 1513.66 Z" fill="#000000" fill-rule="nonzero" fill-opacity="1" /><path clip-path="url(#clip220)" d="M1750.31 1514.29 L1772.53 1514.29 L1772.53 1516.28 L1759.98 1548.85 L1755.1 1548.85 L1766.91 1518.22 L1750.31 1518.22 L1750.31 1514.29 Z" fill="#000000" fill-rule="nonzero" fill-opacity="1" /><path clip-path="url(#clip220)" d="M1781.7 1514.29 L1800.05 1514.29 L1800.05 1518.22 L1785.98 1518.22 L1785.98 1526.7 Q1787 1526.35 1788.02 1526.19 Q1789.03 1526 1790.05 1526 Q1795.84 1526 1799.22 1529.17 Q1802.6 1532.34 1802.6 1537.76 Q1802.6 1543.34 1799.13 1546.44 Q1795.66 1549.52 1789.34 1549.52 Q1787.16 1549.52 1784.89 1549.15 Q1782.65 1548.78 1780.24 1548.04 L1780.24 1543.34 Q1782.32 1544.47 1784.54 1545.03 Q1786.77 1545.58 1789.24 1545.58 Q1793.25 1545.58 1795.59 1543.48 Q1797.92 1541.37 1797.92 1537.76 Q1797.92 1534.15 1795.59 1532.04 Q1793.25 1529.94 1789.24 1529.94 Q1787.37 1529.94 1785.49 1530.35 Q1783.64 1530.77 1781.7 1531.65 L1781.7 1514.29 Z" fill="#000000" fill-rule="nonzero" fill-opacity="1" /><path clip-path="url(#clip220)" d="M2250.78 1544.91 L2258.41 1544.91 L2258.41 1518.55 L2250.1 1520.21 L2250.1 1515.95 L2258.37 1514.29 L2263.04 1514.29 L2263.04 1544.91 L2270.68 1544.91 L2270.68 1548.85 L2250.78 1548.85 L2250.78 1544.91 Z" fill="#000000" fill-rule="nonzero" fill-opacity="1" /><path clip-path="url(#clip220)" d="M2290.13 1517.37 Q2286.52 1517.37 2284.69 1520.93 Q2282.88 1524.47 2282.88 1531.6 Q2282.88 1538.71 2284.69 1542.27 Q2286.52 1545.82 2290.13 1545.82 Q2293.76 1545.82 2295.57 1542.27 Q2297.4 1538.71 2297.4 1531.6 Q2297.4 1524.47 2295.57 1520.93 Q2293.76 1517.37 2290.13 1517.37 M2290.13 1513.66 Q2295.94 1513.66 2298.99 1518.27 Q2302.07 1522.85 2302.07 1531.6 Q2302.07 1540.33 2298.99 1544.94 Q2295.94 1549.52 2290.13 1549.52 Q2284.32 1549.52 2281.24 1544.94 Q2278.18 1540.33 2278.18 1531.6 Q2278.18 1522.85 2281.24 1518.27 Q2284.32 1513.66 2290.13 1513.66 Z" fill="#000000" fill-rule="nonzero" fill-opacity="1" /><path clip-path="url(#clip220)" d="M2320.29 1517.37 Q2316.68 1517.37 2314.85 1520.93 Q2313.04 1524.47 2313.04 1531.6 Q2313.04 1538.71 2314.85 1542.27 Q2316.68 1545.82 2320.29 1545.82 Q2323.92 1545.82 2325.73 1542.27 Q2327.56 1538.71 2327.56 1531.6 Q2327.56 1524.47 2325.73 1520.93 Q2323.92 1517.37 2320.29 1517.37 M2320.29 1513.66 Q2326.1 1513.66 2329.15 1518.27 Q2332.23 1522.85 2332.23 1531.6 Q2332.23 1540.33 2329.15 1544.94 Q2326.1 1549.52 2320.29 1549.52 Q2314.48 1549.52 2311.4 1544.94 Q2308.34 1540.33 2308.34 1531.6 Q2308.34 1522.85 2311.4 1518.27 Q2314.48 1513.66 2320.29 1513.66 Z" fill="#000000" fill-rule="nonzero" fill-opacity="1" /><polyline clip-path="url(#clip220)" style="stroke:#000000; stroke-linecap:round; stroke-linejoin:round; stroke-width:4; stroke-opacity:1; fill:none" points="170.857,1486.45 170.857,47.2441 "/>
<polyline clip-path="url(#clip220)" style="stroke:#000000; stroke-linecap:round; stroke-linejoin:round; stroke-width:4; stroke-opacity:1; fill:none" points="170.857,1441.29 189.755,1441.29 "/>
<polyline clip-path="url(#clip220)" style="stroke:#000000; stroke-linecap:round; stroke-linejoin:round; stroke-width:4; stroke-opacity:1; fill:none" points="170.857,1170.63 189.755,1170.63 "/>
<polyline clip-path="url(#clip220)" style="stroke:#000000; stroke-linecap:round; stroke-linejoin:round; stroke-width:4; stroke-opacity:1; fill:none" points="170.857,899.964 189.755,899.964 "/>
<polyline clip-path="url(#clip220)" style="stroke:#000000; stroke-linecap:round; stroke-linejoin:round; stroke-width:4; stroke-opacity:1; fill:none" points="170.857,629.301 189.755,629.301 "/>
<polyline clip-path="url(#clip220)" style="stroke:#000000; stroke-linecap:round; stroke-linejoin:round; stroke-width:4; stroke-opacity:1; fill:none" points="170.857,358.639 189.755,358.639 "/>
<polyline clip-path="url(#clip220)" style="stroke:#000000; stroke-linecap:round; stroke-linejoin:round; stroke-width:4; stroke-opacity:1; fill:none" points="170.857,87.9763 189.755,87.9763 "/>
<path clip-path="url(#clip220)" d="M122.913 1427.09 Q119.302 1427.09 117.473 1430.65 Q115.668 1434.19 115.668 1441.32 Q115.668 1448.43 117.473 1451.99 Q119.302 1455.54 122.913 1455.54 Q126.547 1455.54 128.353 1451.99 Q130.182 1448.43 130.182 1441.32 Q130.182 1434.19 128.353 1430.65 Q126.547 1427.09 122.913 1427.09 M122.913 1423.38 Q128.723 1423.38 131.779 1427.99 Q134.857 1432.57 134.857 1441.32 Q134.857 1450.05 131.779 1454.66 Q128.723 1459.24 122.913 1459.24 Q117.103 1459.24 114.024 1454.66 Q110.969 1450.05 110.969 1441.32 Q110.969 1432.57 114.024 1427.99 Q117.103 1423.38 122.913 1423.38 Z" fill="#000000" fill-rule="nonzero" fill-opacity="1" /><path clip-path="url(#clip220)" d="M82.7975 1153.35 L101.154 1153.35 L101.154 1157.28 L87.0799 1157.28 L87.0799 1165.75 Q88.0984 1165.41 89.1169 1165.24 Q90.1354 1165.06 91.1539 1165.06 Q96.941 1165.06 100.321 1168.23 Q103.7 1171.4 103.7 1176.82 Q103.7 1182.4 100.228 1185.5 Q96.7558 1188.58 90.4364 1188.58 Q88.2604 1188.58 85.9919 1188.21 Q83.7466 1187.84 81.3392 1187.1 L81.3392 1182.4 Q83.4225 1183.53 85.6447 1184.09 Q87.8669 1184.64 90.3438 1184.64 Q94.3484 1184.64 96.6863 1182.54 Q99.0243 1180.43 99.0243 1176.82 Q99.0243 1173.21 96.6863 1171.1 Q94.3484 1168.99 90.3438 1168.99 Q88.4688 1168.99 86.5938 1169.41 Q84.7419 1169.83 82.7975 1170.71 L82.7975 1153.35 Z" fill="#000000" fill-rule="nonzero" fill-opacity="1" /><path clip-path="url(#clip220)" d="M122.913 1156.43 Q119.302 1156.43 117.473 1159.99 Q115.668 1163.53 115.668 1170.66 Q115.668 1177.77 117.473 1181.33 Q119.302 1184.87 122.913 1184.87 Q126.547 1184.87 128.353 1181.33 Q130.182 1177.77 130.182 1170.66 Q130.182 1163.53 128.353 1159.99 Q126.547 1156.43 122.913 1156.43 M122.913 1152.72 Q128.723 1152.72 131.779 1157.33 Q134.857 1161.91 134.857 1170.66 Q134.857 1179.39 131.779 1183.99 Q128.723 1188.58 122.913 1188.58 Q117.103 1188.58 114.024 1183.99 Q110.969 1179.39 110.969 1170.66 Q110.969 1161.91 114.024 1157.33 Q117.103 1152.72 122.913 1152.72 Z" fill="#000000" fill-rule="nonzero" fill-opacity="1" /><path clip-path="url(#clip220)" d="M53.3995 913.309 L61.0384 913.309 L61.0384 886.943 L52.7282 888.61 L52.7282 884.35 L60.9921 882.684 L65.668 882.684 L65.668 913.309 L73.3068 913.309 L73.3068 917.244 L53.3995 917.244 L53.3995 913.309 Z" fill="#000000" fill-rule="nonzero" fill-opacity="1" /><path clip-path="url(#clip220)" d="M92.7512 885.763 Q89.1401 885.763 87.3114 889.327 Q85.5058 892.869 85.5058 899.999 Q85.5058 907.105 87.3114 910.67 Q89.1401 914.211 92.7512 914.211 Q96.3854 914.211 98.1909 910.67 Q100.02 907.105 100.02 899.999 Q100.02 892.869 98.1909 889.327 Q96.3854 885.763 92.7512 885.763 M92.7512 882.059 Q98.5613 882.059 101.617 886.665 Q104.696 891.249 104.696 899.999 Q104.696 908.725 101.617 913.332 Q98.5613 917.915 92.7512 917.915 Q86.941 917.915 83.8623 913.332 Q80.8068 908.725 80.8068 899.999 Q80.8068 891.249 83.8623 886.665 Q86.941 882.059 92.7512 882.059 Z" fill="#000000" fill-rule="nonzero" fill-opacity="1" /><path clip-path="url(#clip220)" d="M122.913 885.763 Q119.302 885.763 117.473 889.327 Q115.668 892.869 115.668 899.999 Q115.668 907.105 117.473 910.67 Q119.302 914.211 122.913 914.211 Q126.547 914.211 128.353 910.67 Q130.182 907.105 130.182 899.999 Q130.182 892.869 128.353 889.327 Q126.547 885.763 122.913 885.763 M122.913 882.059 Q128.723 882.059 131.779 886.665 Q134.857 891.249 134.857 899.999 Q134.857 908.725 131.779 913.332 Q128.723 917.915 122.913 917.915 Q117.103 917.915 114.024 913.332 Q110.969 908.725 110.969 899.999 Q110.969 891.249 114.024 886.665 Q117.103 882.059 122.913 882.059 Z" fill="#000000" fill-rule="nonzero" fill-opacity="1" /><path clip-path="url(#clip220)" d="M53.3995 642.646 L61.0384 642.646 L61.0384 616.281 L52.7282 617.947 L52.7282 613.688 L60.9921 612.021 L65.668 612.021 L65.668 642.646 L73.3068 642.646 L73.3068 646.581 L53.3995 646.581 L53.3995 642.646 Z" fill="#000000" fill-rule="nonzero" fill-opacity="1" /><path clip-path="url(#clip220)" d="M82.7975 612.021 L101.154 612.021 L101.154 615.956 L87.0799 615.956 L87.0799 624.429 Q88.0984 624.081 89.1169 623.919 Q90.1354 623.734 91.1539 623.734 Q96.941 623.734 100.321 626.905 Q103.7 630.077 103.7 635.493 Q103.7 641.072 100.228 644.174 Q96.7558 647.253 90.4364 647.253 Q88.2604 647.253 85.9919 646.882 Q83.7466 646.512 81.3392 645.771 L81.3392 641.072 Q83.4225 642.206 85.6447 642.762 Q87.8669 643.317 90.3438 643.317 Q94.3484 643.317 96.6863 641.211 Q99.0243 639.105 99.0243 635.493 Q99.0243 631.882 96.6863 629.776 Q94.3484 627.669 90.3438 627.669 Q88.4688 627.669 86.5938 628.086 Q84.7419 628.503 82.7975 629.382 L82.7975 612.021 Z" fill="#000000" fill-rule="nonzero" fill-opacity="1" /><path clip-path="url(#clip220)" d="M122.913 615.1 Q119.302 615.1 117.473 618.665 Q115.668 622.206 115.668 629.336 Q115.668 636.442 117.473 640.007 Q119.302 643.549 122.913 643.549 Q126.547 643.549 128.353 640.007 Q130.182 636.442 130.182 629.336 Q130.182 622.206 128.353 618.665 Q126.547 615.1 122.913 615.1 M122.913 611.396 Q128.723 611.396 131.779 616.003 Q134.857 620.586 134.857 629.336 Q134.857 638.063 131.779 642.669 Q128.723 647.253 122.913 647.253 Q117.103 647.253 114.024 642.669 Q110.969 638.063 110.969 629.336 Q110.969 620.586 114.024 616.003 Q117.103 611.396 122.913 611.396 Z" fill="#000000" fill-rule="nonzero" fill-opacity="1" /><path clip-path="url(#clip220)" d="M56.6171 371.984 L72.9365 371.984 L72.9365 375.919 L50.9921 375.919 L50.9921 371.984 Q53.6541 369.229 58.2375 364.599 Q62.8439 359.947 64.0245 358.604 Q66.2698 356.081 67.1494 354.345 Q68.0522 352.586 68.0522 350.896 Q68.0522 348.141 66.1078 346.405 Q64.1865 344.669 61.0847 344.669 Q58.8856 344.669 56.4319 345.433 Q54.0014 346.197 51.2236 347.748 L51.2236 343.025 Q54.0477 341.891 56.5014 341.312 Q58.955 340.734 60.9921 340.734 Q66.3624 340.734 69.5568 343.419 Q72.7513 346.104 72.7513 350.595 Q72.7513 352.724 71.9411 354.646 Q71.1541 356.544 69.0476 359.136 Q68.4689 359.808 65.367 363.025 Q62.2652 366.22 56.6171 371.984 Z" fill="#000000" fill-rule="nonzero" fill-opacity="1" /><path clip-path="url(#clip220)" d="M92.7512 344.437 Q89.1401 344.437 87.3114 348.002 Q85.5058 351.544 85.5058 358.674 Q85.5058 365.78 87.3114 369.345 Q89.1401 372.886 92.7512 372.886 Q96.3854 372.886 98.1909 369.345 Q100.02 365.78 100.02 358.674 Q100.02 351.544 98.1909 348.002 Q96.3854 344.437 92.7512 344.437 M92.7512 340.734 Q98.5613 340.734 101.617 345.34 Q104.696 349.924 104.696 358.674 Q104.696 367.4 101.617 372.007 Q98.5613 376.59 92.7512 376.59 Q86.941 376.59 83.8623 372.007 Q80.8068 367.4 80.8068 358.674 Q80.8068 349.924 83.8623 345.34 Q86.941 340.734 92.7512 340.734 Z" fill="#000000" fill-rule="nonzero" fill-opacity="1" /><path clip-path="url(#clip220)" d="M122.913 344.437 Q119.302 344.437 117.473 348.002 Q115.668 351.544 115.668 358.674 Q115.668 365.78 117.473 369.345 Q119.302 372.886 122.913 372.886 Q126.547 372.886 128.353 369.345 Q130.182 365.78 130.182 358.674 Q130.182 351.544 128.353 348.002 Q126.547 344.437 122.913 344.437 M122.913 340.734 Q128.723 340.734 131.779 345.34 Q134.857 349.924 134.857 358.674 Q134.857 367.4 131.779 372.007 Q128.723 376.59 122.913 376.59 Q117.103 376.59 114.024 372.007 Q110.969 367.4 110.969 358.674 Q110.969 349.924 114.024 345.34 Q117.103 340.734 122.913 340.734 Z" fill="#000000" fill-rule="nonzero" fill-opacity="1" /><path clip-path="url(#clip220)" d="M56.6171 101.321 L72.9365 101.321 L72.9365 105.256 L50.9921 105.256 L50.9921 101.321 Q53.6541 98.5665 58.2375 93.9369 Q62.8439 89.2841 64.0245 87.9416 Q66.2698 85.4184 67.1494 83.6823 Q68.0522 81.9231 68.0522 80.2333 Q68.0522 77.4786 66.1078 75.7425 Q64.1865 74.0064 61.0847 74.0064 Q58.8856 74.0064 56.4319 74.7703 Q54.0014 75.5342 51.2236 77.0851 L51.2236 72.3629 Q54.0477 71.2287 56.5014 70.65 Q58.955 70.0713 60.9921 70.0713 Q66.3624 70.0713 69.5568 72.7565 Q72.7513 75.4416 72.7513 79.9323 Q72.7513 82.062 71.9411 83.9832 Q71.1541 85.8814 69.0476 88.474 Q68.4689 89.1453 65.367 92.3628 Q62.2652 95.5573 56.6171 101.321 Z" fill="#000000" fill-rule="nonzero" fill-opacity="1" /><path clip-path="url(#clip220)" d="M82.7975 70.6963 L101.154 70.6963 L101.154 74.6314 L87.0799 74.6314 L87.0799 83.1036 Q88.0984 82.7564 89.1169 82.5944 Q90.1354 82.4092 91.1539 82.4092 Q96.941 82.4092 100.321 85.5805 Q103.7 88.7517 103.7 94.1684 Q103.7 99.747 100.228 102.849 Q96.7558 105.928 90.4364 105.928 Q88.2604 105.928 85.9919 105.557 Q83.7466 105.187 81.3392 104.446 L81.3392 99.747 Q83.4225 100.881 85.6447 101.437 Q87.8669 101.992 90.3438 101.992 Q94.3484 101.992 96.6863 99.8859 Q99.0243 97.7795 99.0243 94.1684 Q99.0243 90.5573 96.6863 88.4508 Q94.3484 86.3443 90.3438 86.3443 Q88.4688 86.3443 86.5938 86.761 Q84.7419 87.1777 82.7975 88.0573 L82.7975 70.6963 Z" fill="#000000" fill-rule="nonzero" fill-opacity="1" /><path clip-path="url(#clip220)" d="M122.913 73.775 Q119.302 73.775 117.473 77.3398 Q115.668 80.8814 115.668 88.011 Q115.668 95.1174 117.473 98.6822 Q119.302 102.224 122.913 102.224 Q126.547 102.224 128.353 98.6822 Q130.182 95.1174 130.182 88.011 Q130.182 80.8814 128.353 77.3398 Q126.547 73.775 122.913 73.775 M122.913 70.0713 Q128.723 70.0713 131.779 74.6777 Q134.857 79.261 134.857 88.011 Q134.857 96.7378 131.779 101.344 Q128.723 105.928 122.913 105.928 Q117.103 105.928 114.024 101.344 Q110.969 96.7378 110.969 88.011 Q110.969 79.261 114.024 74.6777 Q117.103 70.0713 122.913 70.0713 Z" fill="#000000" fill-rule="nonzero" fill-opacity="1" /><polyline clip-path="url(#clip222)" style="stroke:#009af9; stroke-linecap:round; stroke-linejoin:round; stroke-width:4; stroke-opacity:1; fill:none" points="233.071,1439.7 238.173,1441.04 240.275,1440.35 246.027,1443.23 247.58,1441.2 248.166,1440.56 248.587,1437.25 250.154,1439.14 250.523,1439.52 252.297,1441.36 253.148,1438.64 256.519,1444.31 256.579,1439.94 259.502,1440.79 263.686,1438.19 263.755,1441.19 264.53,1444.68 265.149,1437.87 265.972,1440.62 266.51,1441.18 273.143,1441.27 273.462,1438.8 276.093,1441.97 276.638,1441.22 277.533,1437.84 282.531,1439.46 285.599,1440 288.272,1441.1 291.366,1439.66 300.267,1440.84 300.972,1436.92 301.045,1441.71 301.446,1436.97 301.518,1437.3 303.037,1438.38 304.219,1439.98 304.303,1441.58 314.288,1440.08 316.714,1440.13 317.162,1439.59 317.232,1434.84 317.555,1445.72 319.435,1436.24 326.014,1436.35 329.403,1435.49 331.282,1443.7 333.695,1440.17 336.405,1435.3 338.305,1432.58 345.143,1437.92 349.113,1439.61 355.617,1437.34 358.562,1436.66 359.939,1440.62 361.25,1442.59 362.11,1439.43 364.021,1433.24 366.141,1437.37 367.026,1433.3 369.849,1439.36 373.317,1436.09 376.194,1440.51 377.029,1439.72 379.201,1437.93 384.439,1436.34 386.163,1436.45 386.516,1441.63 386.694,1435.13 386.873,1435.94 387.103,1438.26 388.816,1435.45 389.154,1440.32 390.535,1436.27 391.938,1437.48 392.122,1436.35 393.154,1438.19 395.094,1440.83 395.699,1435.67 398.129,1440.13 403.178,1436.58 407.088,1440.76 407.938,1439.69 412.062,1435.12 412.334,1434.72 414.973,1437.85 418.166,1431.22 418.277,1434.09 419.092,1432.25 421.13,1439.34 421.156,1438.52 425.724,1434.49 426.936,1437.38 427.981,1439.81 428.065,1437.14 430.917,1437.7 434.525,1436.49 439.244,1439.98 440.152,1436.82 440.537,1440.2 443.836,1439.94 443.893,1433.73 445.948,1435.81 447.376,1435.17 448.754,1438.15 449.016,1435.78 452.975,1438.64 454.442,1437.07 456.941,1436.75 461.748,1439.32 462.014,1441.52 462.138,1437.46 467.306,1432.91 469.931,1441.31 470.149,1432.82 473.941,1430.03 476.301,1438.29 480.133,1436.08 480.392,1433.34 485.715,1439.37 487.765,1439.99 495.334,1436.29 497.795,1434.67 511.069,1434.91 511.448,1435 515.095,1434.56 516.998,1439.81 517.247,1435.56 521.816,1431.06 523.319,1428.65 525.028,1434.42 527.787,1436.15 528.848,1436.65 532.9,1435.64 534.362,1432.65 535.518,1434.75 536.551,1434.04 537.719,1433.94 537.85,1437.01 538.698,1438.05 539.548,1438.5 540.263,1439.28 542.596,1433.05 543.305,1436.9 547.814,1432.08 549.015,1427.1 550.285,1436.72 550.653,1426.84 553.597,1435.48 556.778,1435.42 561.132,1431.76 563.849,1432.07 565.571,1434.98 566.051,1435.19 568.129,1436.37 570,1434.76 572.859,1436.26 575.113,1431.39 576.735,1437.31 579.892,1436.45 583.461,1437.83 585.06,1431.87 588.258,1434.46 589.252,1437.09 589.901,1435.28 590.985,1435.07 602.674,1430.65 603.982,1435.36 605.612,1429.12 608.55,1435.65 608.959,1431.73 610.402,1432.29 610.548,1432.55 610.696,1438.67 613.118,1434.23 614.179,1431.16 614.544,1430.41 619.728,1436.96 620.538,1432.42 622.93,1433.52 624.609,1429.91 628.003,1435.01 630.17,1430.78 631.983,1434.87 643.426,1434.22 645.101,1434.45 645.106,1430.41 646,1433.47 656.023,1435.82 656.67,1434.04 657.108,1433.32 658.451,1434.88 659.885,1434.15 660.927,1430.88 661.553,1439.56 662.167,1433.98 662.837,1438.95 663.701,1432.59 664.399,1434.64 666.078,1432.8 666.116,1432.77 666.907,1438.02 667.846,1426.96 668.043,1433.11 671.952,1431.37 672.814,1432.47 675.086,1430.41 677.293,1429.06 677.845,1428.77 678.818,1432.89 680.285,1430.02 680.331,1428.65 690.569,1434.52 691.913,1431.05 692.359,1429.76 693.586,1433.06 696.202,1430.11 697.481,1432.64 698.915,1430.87 704.139,1427.17 710.571,1433.87 719.94,1430.3 720.702,1433.85 721.003,1432.7 721.77,1428.8 722.029,1428.57 722.92,1432.31 727.498,1429.32 730.32,1433.42 732.732,1434.83 735.286,1429.24 738.016,1425.83 739.521,1432.42 739.583,1433.31 741.289,1430.67 741.704,1426.94 742.175,1431.97 743.31,1431.3 743.928,1428.9 750.012,1430.89 754.001,1430.81 756.291,1430.84 764.333,1430.91 764.879,1432.09 765.664,1433.33 769.126,1427.33 772.301,1431.03 774.256,1436.76 774.598,1427.51 775.293,1422.82 780.094,1433.94 781.007,1427.73 783.112,1431.6 785.088,1425.89 788.907,1428.5 789.402,1430.65 790.198,1425.51 795.215,1431.43 795.68,1431.5 801.018,1428.62 802.119,1428.01 803.243,1427.39 806.802,1427.72 808.118,1430.82 808.809,1423.29 810.072,1428.21 815.037,1418.69 815.966,1427.87 817.308,1423.61 819.745,1431.09 829.941,1428.12 834.334,1423.78 834.512,1433.78 835.878,1424.5 836.301,1425.66 837.651,1428.81 837.892,1426.54 838.811,1430.26 842.34,1425.43 843.458,1422.82 851.754,1420.98 856.315,1419.27 858.569,1422.39 859.377,1420.57 859.56,1425.44 860.053,1418.09 860.122,1422.48 860.378,1426.29 860.722,1424.81 861.052,1425.67 861.594,1423.6 864.69,1426.15 865.518,1421.69 867.209,1424.88 867.938,1425.58 869.614,1423.58 869.915,1421.6 870.73,1427.09 870.95,1423.72 873.686,1418.4 878.373,1424.89 879.549,1418.68 879.623,1421.52 881.526,1420.4 885.491,1422.64 887.187,1420.6 889.011,1419.59 892.002,1420.45 893.191,1418.43 896.351,1416.76 897.488,1414.57 897.78,1413.95 901.077,1419.88 901.256,1417.87 904.28,1415.82 904.918,1411.24 906.821,1417.93 908.743,1411.4 909.506,1412.04 909.773,1417.36 911.345,1412.93 911.633,1412.15 911.753,1411.59 912.076,1412.35 912.451,1411.42 913.033,1413.33 916.444,1407.79 920.616,1409.1 921.649,1407.43 927.328,1406.51 927.364,1412.46 927.97,1409.21 929.218,1405.89 929.407,1403.77 937.116,1406.21 941.244,1409.52 941.777,1401.49 944.418,1401.26 948.4,1404.2 949.514,1402.94 950.842,1397.96 953.076,1399.38 954.482,1396.79 959.787,1396.72 960.379,1395.33 963.741,1397.41 969.265,1390 970.967,1389.05 971.343,1396.17 973.148,1388.35 973.675,1392.24 974.305,1391.2 985.725,1385.43 986.898,1381.64 987.336,1384.1 990.793,1386.9 990.805,1382.92 993.602,1378.55 994.926,1383.66 997.066,1383.26 997.248,1386.11 997.967,1380.39 1000.71,1382 1002.15,1381.35 1002.67,1379.21 1002.76,1382.02 1002.94,1380.24 1004.13,1381.63 1004.42,1378.3 1004.65,1380.2 1005.05,1379.69 1006.19,1375.34 1007.04,1379.72 1007.18,1379.49 1009.37,1375.09 1011.87,1374.31 1014.88,1378.82 1016,1375.19 1016.95,1372.96 1018.39,1376.77 1019.15,1378.76 1024.03,1367.75 1024.93,1373.03 1032.14,1372.74 1038.22,1370.22 1042.71,1367.09 1043.29,1369.05 1044.13,1370.62 1044.83,1373.4 1045.09,1373.9 1045.13,1370.76 1048.4,1369.72 1048.47,1370.71 1049.14,1368.67 1049.35,1370.23 1052.34,1373.33 1054.45,87.9763 1054.54,1369.66 1056.53,1369.51 1057.58,1374.27 1058.4,1371.77 1058.46,1370.37 1058.68,1368.53 1062.22,1368.82 1062.49,1372.33 1064.48,1375.03 1065.83,1369.76 1066.99,1371.09 1067.4,1371.79 1069.6,1370.59 1069.72,1371.8 1071.7,1374.61 1073.03,1370.52 1075,1369.73 1078.19,1368.54 1079.26,1369.52 1081.06,1369.66 1081.86,1369.31 1082.21,1374.89 1082.37,1368.25 1086.85,1369.33 1090.22,1376.53 1094.69,1373.7 1095.28,1374.24 1096.29,1371.75 1097.63,1381.61 1102.93,1377.31 1105.17,1378.9 1107.93,1378.75 1108.8,1380.5 1109.14,1376.38 1110.69,1376.69 1111.2,1377.62 1113.25,1377.78 1113.78,1378.67 1115.24,1383.57 1120.15,1381.26 1120.91,1378.05 1122.38,1382.82 1123.64,1381.22 1125.63,1385.99 1129.99,1386.21 1134.61,1386.64 1135.93,1386.51 1138,1388.99 1138.13,1389.09 1139.17,1386.54 1141.3,1389.28 1142.91,1389.33 1144.36,1383.53 1145.87,1388.13 1148.69,1393.13 1150.51,1388.63 1154.53,1391.83 1157.2,1391.99 1157.72,1398.36 1158.16,1395.03 1159.19,1398.85 1161.57,1396.07 1162.32,1394.59 1165.94,1395.18 1168.98,1392.18 1171.45,1399.08 1173.23,1398.34 1183.1,1404.55 1184.94,1396.52 1186.15,1402.31 1187.83,1405.04 1190.83,1404.02 1191.61,1404.7 1192.62,1404.52 1194.82,1404.96 1195.03,1403.97 1195.5,1408.01 1195.58,1404.96 1196.79,1404.15 1197.68,1406.46 1198.71,1403.21 1199.36,1406.91 1205.93,1412.66 1210.61,1408.54 1218.07,1409.67 1222.13,1415.47 1222.8,1412.22 1223.36,1410.1 1227.31,1409.65 1228.99,1412.12 1229.07,1411.77 1229.23,1415.39 1230.12,1409.76 1232.36,1413.12 1240.59,1412.4 1246.03,1422.49 1248.52,1418.52 1252.4,1415.37 1252.96,1418.04 1256.74,1413.15 1259.05,1421.53 1259.34,1419.88 1261.34,1412.99 1262.25,1413.56 1264.29,1417.15 1265.63,1415.85 1265.97,1418.69 1266.92,1419.19 1268.12,1415.96 1273.08,1417.07 1275.44,1419.35 1279.44,1418.54 1281.21,1419.12 1282.05,1417.04 1282.63,1422.41 1287.42,1416.4 1287.76,1418.2 1288.02,1420.87 1288.65,1414.72 1292.83,1422.17 1293.5,1422.27 1293.83,1413.42 1294.41,1415.6 1295.81,1417.76 1297.24,1416.27 1298.64,1417.64 1300.37,1418.58 1300.71,1419.6 1303.43,1417.92 1304.73,1417.77 1307.7,1420.11 1309.33,1421.49 1310.36,1418.51 1314.22,1421.85 1317.69,1420.33 1317.93,1419.52 1318.41,1420.5 1330.43,1418.7 1330.71,1421.99 1333.23,1419.13 1336.59,1416.05 1336.75,1411.86 1337.03,1417.11 1345.28,1418.08 1345.5,1420.09 1351.21,1418.03 1352.81,1418.73 1357.11,1412.79 1359.91,1422.57 1361.04,1417.18 1363.39,1419.09 1366,1416.34 1367.3,1411.48 1367.78,1419.29 1368.99,1415.92 1369.86,1414.19 1380.76,1416.31 1381.17,1418.77 1382.19,1418.69 1385.62,1416.76 1385.98,1417.02 1387.97,1419.15 1388.61,1419.03 1391.07,1417.63 1396.49,1418.17 1396.86,1417.03 1397.1,1416.24 1400.88,1418.87 1408.07,1414.8 1414.37,1415.31 1414.52,1420.4 1415.26,1415.3 1419.94,1412.32 1420.31,1416.97 1421.24,1418.05 1421.89,1414.25 1428.33,1418.84 1429.34,1414.19 1430.25,1412.81 1434.99,1414.92 1435.53,1416.31 1436.3,1412.8 1438.34,1418.49 1440.91,1422.18 1441.58,1414.63 1444.76,1418.02 1445.08,1415.19 1446.27,1416.62 1447.68,1416.43 1452.92,1416.02 1452.98,1413.15 1458.44,1416.28 1459.27,1413.63 1461.11,1417.57 1465.98,1417.67 1472.73,1416.8 1474.29,1418.32 1475.59,1414.72 1477.82,1412.31 1480.85,1412.31 1480.97,1413.87 1481.24,1410.2 1481.75,1413.1 1482.73,1413.65 1483.94,1414.57 1487.02,1421.02 1487.81,1413.46 1487.82,1414.57 1490.3,1417.79 1490.68,1413.14 1495.98,1413.61 1497.99,1416.04 1501.41,1413.91 1501.51,1414.87 1501.53,1418.19 1501.73,1411.87 1502.34,1412.6 1503.81,1417.89 1508.16,1413.65 1512.39,1420.6 1512.67,1405.35 1516.38,1411.01 1518.53,1415.13 1522.53,1410.03 1522.68,1412.3 1528.34,1414.52 1530.44,1418.02 1530.57,1415.75 1536.5,1409.7 1536.71,1415.62 1539.18,1411.69 1544.01,1417.21 1546.1,1412 1546.5,1414.94 1552.56,1410.71 1555.54,1416.39 1557.49,1411.14 1562.14,1416.82 1567.73,1412.61 1572.52,1412.54 1573.43,1411.71 1573.63,1414.47 1573.71,1411.26 1575.07,1412.26 1575.68,1411.4 1576.12,1409.18 1576.88,1410.95 1578.45,1417.83 1579.83,1412.32 1580.55,1410.89 1582.22,1408.79 1586.55,1413.17 1588.5,1413.85 1591.03,1412.23 1592.58,1410.87 1595.79,1414.84 1597.1,1412.61 1599.37,1412.46 1606.51,1407.61 1610.19,1414.97 1614.07,1417.29 1614.59,1415.19 1615.12,1411.45 1616.78,1408.53 1617.04,1407.6 1619.68,1412.04 1624.21,1412.06 1626.52,1411.98 1626.95,1419.49 1631.93,1411.52 1632.82,1411.69 1640.33,1410.66 1643.66,1410.69 1643.84,1408.1 1644.03,1407.61 1649.86,1417.89 1650.19,1409.78 1650.87,1407.05 1653.01,1412.93 1653.58,1406.25 1653.96,1413.43 1656.08,1412.64 1656.58,1412.03 1659.1,1407.87 1659.1,1412.99 1660.44,1412.08 1661.07,1414.35 1664.11,1404.26 1665.25,1416.62 1667.95,1412.73 1668.41,1407.56 1670.55,1413.14 1674.64,1414.13 1676.39,1413.18 1676.63,1412.09 1677.23,1414.84 1677.78,1407.76 1678.88,1415.19 1679.32,1415.35 1682.64,1407.37 1682.81,1411.61 1684.35,1413.55 1687.23,1408.14 1688.56,1408.97 1692.41,1411.1 1693.45,1412.21 1694.51,1406.17 1695.75,1405.35 1695.97,1415.15 1698.43,1409.4 1699.87,1407.01 1701.5,1410.64 1703.42,1409.04 1704.91,1407.6 1710.17,1409.63 1710.26,1406.58 1711.16,1413.73 1713.54,1408.01 1715.6,1411.62 1715.8,1414.79 1718.1,1411.56 1719.04,1407.46 1720.36,1411.49 1721.58,1407.98 1723.05,1406.73 1724.38,1409.22 1725.03,1408.77 1726.17,1414.91 1728.11,1409.84 1729.39,1411.93 1733.11,1406.28 1737.44,1408.97 1740.58,1410.34 1746.22,1410.81 1746.23,1411.13 1755.6,1405 1757.63,1407.84 1761.6,1411.26 1763.46,1411.71 1766.47,1411.95 1767.6,1408.69 1767.71,1404.37 1773.09,1406.67 1774.37,1409.65 1777.31,1404.95 1778.12,1404.42 1778.73,1406.64 1780.96,1403.64 1783.06,1407.94 1784.66,1407.31 1785.14,1410.46 1787.15,1415.19 1791.58,1407.81 1798.31,1410.48 1804.3,1409.8 1805.65,1409.72 1810.39,1406.36 1811,1403.04 1811.83,1409.62 1813.96,1406.29 1815.43,1405.42 1816.63,1408.77 1818.76,1407.53 1821.68,1411.27 1825.53,1407.18 1831.41,1404.8 1831.51,1405.32 1837.58,1406.67 1840.04,1408.21 1840.95,1406.07 1843.5,1410.06 1844.14,1406.88 1845.62,1410.77 1845.94,1403.54 1846.53,1412.49 1847.01,1407.08 1847.18,1410.45 1847.77,1410.15 1850.81,1408.95 1851.81,1410.42 1851.99,1404.96 1854.52,1406.01 1856.47,1403.14 1863.29,1406.68 1864.63,1406.43 1875.22,1404.23 1878.5,1408.81 1880.35,1407.54 1880.36,1408.69 1887.46,1412.44 1892.37,1402.14 1894.68,1406.71 1895.14,1411.54 1896.16,1406.32 1901.43,1401.85 1901.81,1402.17 1903.1,1406.67 1903.88,1401.82 1905.91,1407.15 1908.07,1407.2 1909.75,1401.57 1910.92,1407.35 1911.55,1402.09 1915.18,1405.77 1915.23,1410.69 1915.7,1400.53 1917.28,1406.71 1918.06,1408.22 1918.13,1403.15 1918.58,1404.1 1920.51,1408.66 1920.63,1400.74 1922.02,1403.84 1922.67,1400.8 1924.87,1407.31 1928.56,1404.21 1930.51,1406.34 1933.25,1407.17 1934.98,1402.67 1936.16,1403.04 1936.27,1405.82 1937.71,1407.22 1939.76,1403.66 1943.64,1405.69 1944.46,1400.9 1944.94,1400.53 1945.38,1410.62 1946.56,1402.85 1946.61,1401.96 1949.13,1401.59 1949.31,1401.16 1953.32,1403.74 1955.84,1409.87 1958,1406.41 1958.14,1406.6 1959.16,1405.75 1959.33,1406.62 1962.62,1400.89 1964.06,1406.57 1967.51,1404.46 1969.9,1403.73 1971.3,1405.25 1972.4,1406.24 1974.77,1404.64 1977.92,1406.04 1978.68,1406.27 1983.45,1402.68 1984.36,1406.85 1984.43,1407.19 1984.88,1402.8 1985.66,1403.43 1986.34,1402.87 1987.68,1401.01 1988.62,1404.87 1992.34,1402.11 1996.19,1402.48 2000.42,1406.58 2000.75,1407.03 2002.29,1403.21 2003.12,1405.13 2003.22,1401.53 2003.83,1402.22 2003.97,1403.74 2005.55,1403.71 2008.41,1405.52 2008.71,1402.79 2009.93,1406.98 2015.5,1397.49 2016.52,1402.15 2020.59,1399.87 2021.66,1403.7 2022.59,1404.38 2023.7,1408.35 2024.47,1400.62 2024.62,1406.64 2028.93,1403.42 2029.1,1401.33 2030.39,1404.4 2036.15,1403.21 2038.58,1399.47 2041.27,1402.19 2041.97,1404.64 2043.37,1401.4 2044.1,1401.93 2051.53,1401.84 2051.81,1402.94 2051.9,1404.28 2056.69,1403.29 2060.42,1403.82 2061.19,1400.81 2063.75,1408.77 2063.76,1401.91 2064.24,1405.21 2066.74,1400.64 2070.31,1404.78 2070.57,1402.24 2072.61,1404.23 2073.07,1409.05 2076.45,1405.52 2076.93,1399.77 2079.84,1401.33 2079.85,1406.7 2088.2,1401.94 2088.53,1398.57 2089.4,1406.18 2092.16,1399.2 2093.71,1404.5 2094.35,1403.19 2094.55,1404.9 2094.82,1401.47 2095.37,1403.87 2095.39,1403.92 2095.55,1401.91 2096.23,1401.61 2097,1403.13 2097.15,1404.56 2099.46,1401.22 2099.93,1402.52 2100.24,1399.86 2102.85,1399.93 2108.98,1402.28 2110.16,1399.37 2114.05,1403.85 2114.54,1400.36 2115.65,1396.84 2126.67,1403.06 2134.05,1399.73 2136.03,1401.71 2138.05,1402.76 2139.49,1399.71 2139.58,1401.08 2141.7,1402.92 2148.91,1402.1 2150.68,1398.61 2151.14,1404.11 2152.55,1399.91 2152.78,1401.84 2153.39,1404.62 2155.37,1401.69 2155.92,1397.71 2158.21,1397.05 2159.23,1407.04 2161.86,1397.64 2163,1401.3 2166.55,1397.59 2167.82,1404.91 2168.82,1402.25 2169.21,1395.64 2176.42,1405.41 2177.03,1403.6 2178.37,1399.89 2180.01,1403.72 2186.51,1399.25 2194.17,1398.74 2195.45,1402.1 2202.51,1402.89 2205.29,1402.04 2206.31,1402.79 2206.63,1400.38 2207.41,1396.99 2207.55,1402.21 2209.15,1404.73 2209.51,1403.48 2211.36,1403.4 2211.63,1398.25 2212.34,1401.4 2215.22,1401.21 2216.81,1401.51 2219.82,1397.36 2220.22,1396.9 2220.6,1403.87 2222.81,1404.2 2223.1,1399.42 2225.19,1393.5 2225.6,1401.4 2227.92,1398.21 2234.3,1396.25 2235.61,1398.87 2236.25,1399.29 2237.31,1403.45 2238.43,1401.1 2239.06,1399.63 2241.49,1398.47 2242,1389.73 2242.08,1400.06 2242.26,1403.66 2242.43,1402.13 2249.97,1393.14 2250.76,1396.93 2251.76,1397.19 2256.35,1403.02 2260.69,1395.13 2261.87,1399.19 2264.28,1394.66 2265.13,1399.45 2268.33,1400.9 2272.42,1396.8 2277.34,1398.96 2277.7,1396.76 2278.12,1394.29 2278.13,1398.63 2285.02,1395.42 2287.45,1404.44 2290.09,1398.14 "/>
<polyline clip-path="url(#clip222)" style="stroke:#e26f46; stroke-linecap:round; stroke-linejoin:round; stroke-width:4; stroke-opacity:1; fill:none" points="232.609,1440.74 233.211,1440.31 233.252,1440.21 236.597,1441.19 239.226,1440.05 240.435,1441.1 240.743,1441.51 241.14,1440.82 242.557,1441.9 256.289,1441.21 264.739,1440.15 266.08,1442.37 270.571,1439.83 271.027,1439.82 274.028,1441.22 274.043,1440.84 274.922,1441.65 275.304,1441.55 276.714,1438.53 281.454,1442.33 282.281,1440.47 289.23,1438.88 289.594,1441.3 291.291,1439.16 292.908,1440.72 292.942,1440.44 295.707,1440.3 297.949,1441.43 300.366,1440.96 302.504,1441.62 303.935,1441.03 304.031,1441.92 312.125,1439.83 314.663,1440.06 320.156,1440.17 320.359,1438.71 321.021,1439.32 322.124,1441.2 324.538,1440.76 326.749,1443.14 329.583,1440.74 331.355,1439.62 331.833,1438.92 332.8,1438.12 333.618,1440.46 333.708,1441.24 335.282,1440.8 336.694,1439.74 339.512,1442.65 342.295,1439.15 343.323,1441.43 344.1,1442.48 346.417,1442.41 346.669,1441.8 348.964,1438.02 350.302,1440.49 352.075,1438.73 352.136,1438.57 353.748,1441.92 354.69,1440.94 357.184,1440.19 359.842,1440.72 359.846,1436.5 363.845,1444.12 366.507,1436.56 367.874,1438.17 370.791,1441.48 375.122,1440.31 379.561,1439.44 382.454,1440.34 382.519,1439.57 383.539,1440.78 385.287,1439.74 390.46,1442.68 390.628,1442.07 394.103,1441.99 394.241,1436.57 398.003,1435.93 401.054,1439.56 401.064,1438.81 405.526,1439.99 406.841,1440.24 406.935,1440.03 409.22,1442.95 409.761,1441.41 414.215,1441.97 414.577,1438.93 417.108,1441.35 418.25,1440.52 418.934,1438.45 429.488,1441.97 431.771,1437.58 435.29,1436.21 435.817,1439.51 440.564,1440.02 442.908,1439.15 446.157,1440.77 450.612,1439.86 451.706,1435.02 455.612,1439 456.738,1439.94 473.98,1439.45 477.364,1440.47 478.905,1442.39 479.344,1440.8 479.96,1438.42 481.73,1440.6 482.569,1440.56 483.95,1438.38 483.973,1436.86 484.883,1439.18 485.211,1439.68 485.402,1441.59 485.496,1440.53 487.664,1440.05 492.764,1438.96 493.225,1441.25 495.186,1440.86 495.247,1440.6 496.084,1439.79 499.36,1439.52 499.78,1437.18 504.58,1440.87 507.319,1440.98 508.17,1440.25 509.715,1438.92 511.188,1440.82 514.903,1440.45 515.668,1438.07 517.621,1439.86 519.444,1441.05 520.432,1440.76 520.716,1439.7 520.806,1437.28 521.136,1437.05 521.765,1436.71 524.738,1437.14 527.769,1440.35 528.378,1437.55 528.5,1438.08 529.251,1440.35 529.737,1436.43 531.516,1438.87 534.111,1437.66 535.171,1437.38 536.33,1440.07 538.677,1438.37 539.127,1440.3 545.722,1441.09 546.322,1440.29 546.758,1439.35 547.518,1439.01 551.9,1439.61 552.437,1437.9 552.907,1438.83 554.278,1440.45 554.336,1436.7 555.639,1439.23 558.096,1440.94 558.633,1438.56 562.679,1436.48 562.815,1440.2 565.519,1436.28 566.373,1441.07 573.985,1440.29 574.874,1438.91 575.215,1438.23 577.316,1438.79 581.322,1437.67 582.716,1442.93 583.027,1439.45 587.513,1439.83 590.935,1441.57 591.848,1438.91 592.629,1438.69 599.746,1439.21 600.234,1437.72 600.984,1439.93 601.63,1438.12 605.983,1436.99 606.32,1437.21 609.825,1437.01 611.487,1434.08 612.912,1439.29 613.66,1440.59 619.195,1437.45 622.844,1439.07 623.867,1438.13 624.546,1438.82 627.123,1438.86 627.436,1436.95 631.377,1438.2 631.584,1440.18 632.599,1438.39 635.403,1435.82 635.427,1435.31 638.823,1440.98 640.691,1437.72 641.936,1440.76 644.199,1437.99 649.544,1437.37 651.233,1437.76 652.148,1437.83 657.126,1438.59 660.778,1437.95 661.782,1441.98 663.37,1439.14 664.166,1437.94 664.626,1438.6 665.541,1439.3 666.086,1434.57 666.546,1436.23 669.259,1439.43 670.931,1437.97 673.742,1436.17 674.96,1437.31 675.313,1440.46 675.679,1438.97 680.244,1438.9 681.463,1438.5 683.91,1436.46 685.687,1439.63 686.32,1438.69 687.034,1435.54 697.567,1435.04 697.617,1441.33 697.945,1435.89 699.439,1438.88 702.846,1437.7 703.625,1435.49 704.566,1437.1 704.696,1435.32 704.908,1436.77 705.281,1435.91 707.214,1436.17 708.503,1439.11 709.173,1437.47 716.075,1437.36 716.397,1438.61 718.973,1438.25 722.577,1438.31 723.987,1436.91 730.361,1440.72 732.833,1440.04 733.004,1438.08 733.894,1439.28 735.136,1434.63 739.737,1437.37 741.153,1433.9 743.922,1437.13 747.856,1437.65 748.997,1438.03 754.26,1435.21 757.636,1437.67 759.263,1438.12 762.928,1438.35 763.173,1435.14 763.968,1439.54 768.504,1433.47 768.858,1440.54 769.29,1434.99 771.21,1440.78 776.481,1438.08 777.175,1434.85 779.747,1435.75 782.492,1437.1 789.834,1436.84 790.137,1436.48 791.644,1437.58 803.1,1437.55 804.964,1436.92 805.625,1436.62 805.78,1434.63 806.037,1435.44 808.409,1435.4 811.321,1432.75 811.771,1438.14 813.318,1437.83 814.826,1437.35 815.611,1437.39 817.178,1434.35 817.69,1438.52 818.326,1436.25 825.587,1436.86 826.442,1434.34 830.929,1434.29 831.729,1438.54 832.337,1436.44 832.48,1434.85 834.908,1438.39 836.188,1438.62 836.348,1434.15 836.495,1434.08 836.663,1433.59 838.712,1433.42 839.323,1438.19 848.057,1437.31 848.936,1435.56 849.015,1437.77 850.684,1437.58 850.97,1436.99 852.034,1437.09 852.2,1436.75 856.9,1436.94 857.818,1435.13 858.013,1435.19 862.1,1434.35 862.247,1436.09 867.031,1434.54 869.226,1436.65 870.01,1435.47 870.065,1437.76 871.031,1437.57 872.842,1437.27 875.798,1438.11 879.944,1436.76 881.74,1434.62 881.79,1435.58 882.722,1435.43 884.227,1431.81 885.306,1434.69 885.976,1436.83 888.793,1435.82 890.355,1435.82 894.742,1437.59 895.95,1435.59 897.895,1434.5 898.243,1435.72 903.432,1438.68 903.507,1435.33 903.779,1438.07 907.981,1436.86 908.145,1438.5 908.778,1435.73 910.112,1434.51 911.92,1436.68 912.454,1436.22 917.377,1437.55 921.168,1435.22 922.348,1432.81 925.036,1436.91 926.359,1435.4 928.489,1435.7 931.451,1436.21 932.697,1435.72 932.876,1436.22 941.527,1433.65 941.716,1434.05 942.945,1434.17 945.742,1437.81 947.423,1433.88 947.506,1432.89 949.651,1431.11 950.138,1433.7 958.609,1435.93 959.5,1434.8 959.552,1438.43 963.881,1434.31 965.26,1434.18 969.808,1435.63 970.485,1433.3 971.373,1434.21 972.225,1434.29 973.443,1433.84 975.864,1436.17 976.556,1432.38 977.822,1435.67 979.7,1434.69 979.867,1435.05 983.273,1433.47 984.723,1436.15 984.725,1434.34 988.239,1431.98 990.877,1434.47 991.515,1434.66 992.46,1433.46 992.522,1434.31 993.116,1433.7 994.341,1433.24 994.598,1437.1 994.685,1433.61 997.867,1434.78 998.041,1433.66 998.88,1431.51 999.42,1430.55 1000.14,1435.57 1001.74,1431.4 1002.86,1436.39 1004.64,1432.76 1005.25,1430.58 1005.36,1432.41 1007.39,1431.58 1008.49,1435.51 1008.79,1431.95 1010.76,1432.65 1015.97,1429.68 1016.8,1436.28 1018.03,1432.87 1018.72,1433.64 1019.66,1432.56 1020.55,1432.35 1026.4,1434.54 1027.46,1432.2 1030.93,1430.92 1032.81,1433.24 1034.78,1434.73 1035.07,1437.29 1035.37,1431.91 1036.29,1436.24 1038.03,1431.75 1040.1,1432 1040.11,1433.17 1042.92,1432.37 1046.09,1431.68 1050.63,1428.48 1051.9,1430.59 1055.83,1432.6 1056.14,1432.5 1057.95,1432.98 1060.95,1429.74 1062.55,1432.64 1065.1,1430.42 1068.68,1431.23 1071.04,1429.61 1073.4,1426.72 1075.28,1430.34 1080.97,1426.41 1083.83,1428.72 1084.45,1429.51 1088.63,1426.32 1089,1426.6 1091.42,1428.02 1098.43,1426.65 1100.47,1426.8 1105.52,1425.07 1105.74,1424.29 1106.32,1428.26 1108.69,1426.28 1109.6,1427.89 1111.01,1427.52 1111.47,1423.7 1111.8,1424.35 1111.91,1428.78 1112.56,1425.15 1112.91,1425.84 1113.34,1425.22 1113.54,1427.04 1113.89,1425 1117.85,1424.56 1119.34,1425.2 1121.8,1422.76 1122.12,1426.43 1123.13,1425.6 1126.35,1422.45 1127.93,1422.08 1127.98,1421.61 1129.43,1423.21 1133.37,1426.01 1136.06,1421.77 1137.24,1423.44 1137.49,1421.79 1139.67,1423.16 1140.91,1421.18 1141.71,1420.04 1143.02,1422.17 1146.41,1420.63 1147.54,1421.07 1148.38,1418.99 1149.79,1421.12 1152.53,1420.38 1152.7,1418.91 1153.3,1418.69 1154.38,1421.49 1161.13,1417.78 1162.17,1417.18 1166.17,1416.04 1167.3,1416.24 1167.91,1416.38 1168.03,1419.06 1170.01,1414.57 1171.38,1416.51 1171.38,1414.98 1172.25,1415.01 1178.54,1415.61 1178.78,1412.85 1180.16,1412.05 1181.08,1414.3 1181.53,1411.99 1184.29,1414.62 1185.71,1409.52 1185.96,1408.92 1186.6,1410.11 1188.52,1411.39 1188.66,1411.22 1194.45,1410.87 1195.11,1410.45 1195.15,1406.27 1199.13,1409.79 1200.51,1408.35 1201.5,1411.96 1205.45,1409.06 1206.17,1407.56 1210.93,1403.99 1211.14,1405.6 1211.54,1404.67 1211.58,1404.13 1213.04,1403.44 1217.03,1403.68 1220.27,1397.84 1220.47,1400.99 1224.74,1399.61 1229.11,1398.2 1230.75,1397.56 1234.52,1396.18 1238.87,1394.94 1238.96,1394.66 1240.83,1397.04 1241.66,1398.13 1244.19,1392.4 1246.23,1395.71 1247.63,1394.85 1251.93,1387.91 1254.7,1393.02 1255.95,1389.74 1258.66,1386.53 1266.18,1384.88 1271.17,1382.08 1275.26,1381.79 1289.06,1377.48 1289.42,1376.73 1290.77,1372.93 1292.55,1374.61 1293.87,1373.66 1294.16,1373.71 1294.74,1372.06 1299.02,1372.43 1302.3,1371.22 1307.6,1366.62 1310.19,1367.66 1310.65,1366.53 1315.21,1365.49 1316.2,1365.81 1317.1,1365.61 1318.92,1364.17 1321.02,1361.02 1323.1,1360.21 1325.05,1359.55 1333.45,1358.32 1337.67,1356.18 1339.89,1355.46 1340.18,1354.4 1342.64,1351.37 1350.34,1350.63 1351.95,1349.53 1352.16,1351.74 1352.31,1350.39 1357.07,1345.92 1359.77,1347.79 1360.77,1347.1 1362.04,1345.94 1363.82,1344.91 1367.64,1344.32 1369.46,1342.99 1372.15,1340.58 1376.17,1338.79 1378.62,1338.5 1384.84,1338.94 1387.84,1336.25 1390.03,1334.65 1390.98,1336.51 1392.27,1331.81 1392.29,1333.92 1392.39,1335.47 1394.17,1334.89 1394.82,1337.45 1395,1334.07 1400.36,1330.71 1404.47,1333.16 1406.33,1333.58 1407.51,1332.22 1408.54,1331.54 1411.63,1330.54 1411.98,1328.65 1412.06,1327.96 1417.57,1330.21 1419.67,1329.35 1422.6,1330.1 1422.92,1328.42 1423.47,1325.57 1427.27,1328.82 1429.93,1323.97 1431.08,1325.39 1434.56,1326.07 1439.35,1324.24 1439.86,1325.45 1442.98,1326.22 1449.07,1323.52 1453.55,1323.95 1455.84,1323.71 1456.81,1323.5 1459,1325.95 1460.77,1324.73 1460.89,1327.22 1463.66,1324.79 1465.39,1320.16 1466.95,1323.2 1467.13,1325.95 1469.15,1327.95 1474.77,1323.56 1477.28,1324.53 1477.79,1322.17 1479.05,1327.24 1479.24,1323.13 1479.54,1323.46 1479.91,1325.54 1480.58,1324.05 1484.71,1323.73 1488.86,1322.9 1489.51,1324.32 1492.68,1324.53 1492.75,1322.36 1495.56,1321.59 1496.14,1324.49 1497.07,1323.5 1498.4,1326.82 1498.49,1324.5 1500.04,1326.73 1503.33,1327.27 1503.93,1326.03 1506.18,1329.72 1508.13,1327.14 1509.28,1326.31 1512.71,1328.25 1512.96,1331.4 1514.61,1330.29 1515.65,1329.3 1516.29,1328.2 1516.51,1328.97 1517.19,1325.65 1517.58,1327.65 1524.15,1329.2 1525.36,1327.67 1526.87,1328.69 1531.24,1330.94 1531.89,1331.89 1535.09,1331 1535.69,1333.59 1537.82,1332.17 1539.57,1334.64 1541.4,1334.11 1545.69,1334.81 1549.71,1336.76 1550.11,1337.04 1550.52,1337.76 1555.93,1338.76 1556.42,1338.24 1560.22,1338.57 1560.71,1339.41 1560.9,1342.86 1562.38,1339.4 1562.81,1341 1568.49,1339.3 1570.27,1343.06 1572.57,1345.1 1576.79,1346.81 1577.16,1345.02 1583.58,1348.06 1583.93,1346.21 1584.54,1352.14 1588.07,1351.8 1592.32,1354.56 1594.55,1353.12 1595.33,1353.11 1597.54,1357.12 1600.76,1357.66 1600.93,1356.5 1601.4,1354.96 1602.7,1358.32 1606.73,1359.65 1609.18,1360.14 1611.57,1362.94 1613.42,1358.21 1615.47,1360.32 1616.37,1362.04 1619.26,1360.96 1623.24,1365.77 1624.45,1364.06 1625.13,1359.82 1626.27,1361.98 1630.37,1365.9 1634.33,1367.61 1640.06,1370.62 1641.91,1372.13 1647.4,1371.24 1648.46,1373.6 1650,1376.79 1650.06,1376.57 1653.05,1376.27 1653.35,1375.09 1656.07,1378.14 1660.42,1378.59 1660.84,1379.01 1661.67,1378.61 1662.14,1378.98 1662.88,1376.79 1663.75,1379.43 1664.03,1379.9 1665.1,1381.97 1667.08,1379.87 1668.07,1378.7 1669.79,1383.29 1670.77,1378.77 1672.09,1385.69 1677.4,1385.85 1679.92,1384.45 1690.22,1388.32 1693.54,1391.56 1694.22,1392.09 1699.67,1394.49 1700.74,1393.15 1702.93,1392.77 1704.5,1395.24 1704.8,1393.29 1709.87,1396.71 1710.88,1398.92 1711.5,1395.35 1713.17,1398.1 1714.42,1397.22 1718.83,1397.48 1721.23,1399.13 1729.43,1403.71 1730.16,1400.46 1730.55,1402.54 1731.71,1402.14 1733.97,1404.06 1736.08,1407.06 1738.5,1403.51 1748.32,1408.07 1748.86,1407.76 1749.69,1405.12 1751.74,1407.3 1751.93,1409.87 1755.35,1407.51 1757.34,1408.49 1758.9,1409.64 1758.98,1409.96 1761.2,1410.44 1761.29,1412.76 1762.22,1411.4 1765.32,1409.21 1766.65,1410.98 1767.4,1410.59 1767.54,1412.52 1773.35,1413.65 1774.98,1415.96 1775.19,1416.41 1778.5,1411.63 1781.13,1415.43 1781.82,1414.35 1782.03,1415.59 1782.65,1416.32 1796.97,1416.74 1798.97,1417.72 1802.65,1416.87 1805.04,1415.88 1805.81,1418.65 1808.43,1416.91 1812.66,1420.64 1812.99,1418.22 1815.36,1420.93 1816.43,1418.83 1816.86,1418.15 1821.57,1419.51 1822.88,1420.49 1825.72,1421.54 1826.76,1420.76 1827.79,1419.57 1828.28,1420.46 1828.98,1421.28 1831.29,1422.35 1831.4,1420.45 1832.71,1420.59 1833.56,1421.4 1835.58,1421.54 1836.47,1421.83 1839.1,1420.99 1840.4,1422.86 1840.96,1419.01 1842.65,1424.42 1844.05,1423.88 1844.65,1421.74 1846.43,1418.93 1846.63,1422.55 1847.06,1423.51 1848.31,1420.47 1850.33,1421.74 1851.96,1421.21 1852.12,1424.43 1855.2,1423.16 1859.48,1424.31 1860.27,1425.71 1860.43,1423.45 1864.05,1419.95 1865.16,1423.54 1867.63,1423.01 1869.07,1427.28 1869.69,1423.73 1881.03,1424.82 1881.58,1425.45 1885.52,1423.84 1888.23,1425.93 1897.45,1422.97 1898.07,1425.78 1900.28,1423.42 1905.56,1424.2 1908.87,1426.02 1919.47,1426.57 1923.42,1426.49 1923.52,1425.73 1926.59,1428.15 1927.07,1426.19 1934.76,1427.32 1935.29,1427.49 1935.71,1426.96 1938.02,1427.17 1938.91,1424.63 1939.44,1428.89 1941.1,1426.2 1943.14,1426.16 1956.43,1426.19 1956.66,1426.99 1956.83,1427.12 1959.12,1425.6 1960.84,1426.04 1961.8,1430.28 1968.25,1424.71 1968.73,1426.22 1974.53,1428.64 1976.34,1427.87 1977.95,1424.42 1978.08,1425.73 1980.49,1424.62 1982.74,1424.58 1983.15,1425.92 1983.46,1430.76 1986.77,1428.12 1987.08,1428.92 1987.36,1428.59 1987.88,1427.17 1996,1429.94 2001.69,1429.01 2005.27,1427.14 2006.31,1424.32 2006.31,1427.5 2006.82,1425.09 2008.28,1428.88 2009.86,1426.61 2011.76,1427.91 2014.14,1426.28 2015.89,1427.61 2016.56,1425.45 2016.7,1429.17 2018.47,1426.43 2018.84,1427.04 2019.73,1428.93 2022.35,1427.47 2022.35,1429.23 2024.46,1428.9 2026.59,1427.55 2030.74,1424.18 2031.34,1430.46 2033.08,1427.6 2039.61,1428.54 2042.04,1424.06 2042.5,1423.9 2046.09,1423.43 2046.29,1426.05 2046.54,1425.02 2049.27,1426.4 2049.59,1424.95 2056.92,1421.18 2058.37,1426.99 2059.31,1426.86 2060.79,1428.33 2064.31,1426.58 2067.27,1425.43 2068.59,1428.75 2069.45,1427.93 2073.33,1425.2 2074.58,1426.2 2076.88,1424.62 2076.93,1422.63 2080.19,1427.15 2082.2,1429.49 2083.97,1427.17 2088.04,1428.25 2092.94,1427.97 2095.28,1425.96 2097.04,1427.35 2097.95,1428.53 2100.74,1429.67 2104.19,1428.21 2104.35,1425.81 2105.76,1428.18 2106.92,1426.38 2108.42,1426.59 2109.6,1424.6 2113.24,1425.68 2114.13,1427.06 2114.32,1425.98 2114.86,1427.07 2122.66,1424.57 2123.03,1425.05 2123.62,1428.76 2126.26,1426.17 2127.64,1427.23 2128.25,1424.6 2131.62,1424.9 2132.54,1425.87 2136.28,1426.12 2140.92,1428.25 2143.66,1429.22 2144.39,1427.46 2144.9,1424.2 2146.73,1426.06 2147.9,1425.53 2151.02,1427.2 2151.18,1426.22 2151.77,1428.15 2151.94,1427.8 2152.75,1426.11 2152.85,1427.67 2153.86,1425.21 2160.63,1426.49 2161.2,1423.08 2163.02,1426.53 2163.17,1425.96 2171.14,1424.93 2171.48,1425.75 2172.73,1424.84 2173.26,1426.44 2173.56,1425.55 2176.8,1424.31 2178.08,1425 2182.43,1424.5 2183.18,1424.87 2188.69,1425.75 2189.95,1428.28 2190.64,1425.15 2192.38,1425.58 2193.95,1423.37 2196,1427.32 2199.88,1424.51 2200.91,1426.14 2204.82,1422.73 2205.26,1424.45 2207.42,1428.59 2215.38,1424.88 2217.09,1426.53 2217.35,1427.12 2217.45,1427.79 2217.91,1424.45 2224.68,1424.15 2224.87,1425.34 2228.85,1424.19 2232.96,1426.24 2233.84,1425 2236.08,1423.66 2236.62,1425.5 2236.69,1422.22 2237.49,1425.68 2238.4,1423.43 2241.1,1425.53 2242.8,1426.97 2245.7,1423.8 2249.66,1425.27 2252.11,1423.7 2255.08,1425.83 2256.83,1425.82 2257.31,1426.25 2259.11,1425.79 2259.32,1425.16 2259.7,1424.18 2262.53,1423.61 2264.46,1425.77 2268.77,1422.68 2271.86,1424.11 2274,1427 2276.07,1427.48 2276.17,1425.52 2278.9,1425.46 2279.84,1423.18 2280.69,1426.88 2288.3,1423.24 2289.22,1425.62 2289.43,1424.11 2289.55,1425.22 2290.1,1422.2 2290.74,1426.9 2291,1427.48 "/>
<path clip-path="url(#clip220)" d="M2009.41 250.738 L2280.03 250.738 L2280.03 95.2176 L2009.41 95.2176  Z" fill="#ffffff" fill-rule="evenodd" fill-opacity="1"/>
<polyline clip-path="url(#clip220)" style="stroke:#000000; stroke-linecap:round; stroke-linejoin:round; stroke-width:4; stroke-opacity:1; fill:none" points="2009.41,250.738 2280.03,250.738 2280.03,95.2176 2009.41,95.2176 2009.41,250.738 "/>
<polyline clip-path="url(#clip220)" style="stroke:#009af9; stroke-linecap:round; stroke-linejoin:round; stroke-width:4; stroke-opacity:1; fill:none" points="2033.65,147.058 2179.11,147.058 "/>
<path clip-path="url(#clip220)" d="M2217.19 166.745 Q2215.39 171.375 2213.68 172.787 Q2211.96 174.199 2209.09 174.199 L2205.69 174.199 L2205.69 170.634 L2208.19 170.634 Q2209.95 170.634 2210.92 169.8 Q2211.89 168.967 2213.07 165.865 L2213.84 163.921 L2203.35 138.412 L2207.87 138.412 L2215.97 158.689 L2224.07 138.412 L2228.58 138.412 L2217.19 166.745 Z" fill="#000000" fill-rule="nonzero" fill-opacity="1" /><path clip-path="url(#clip220)" d="M2235.88 160.402 L2243.51 160.402 L2243.51 134.037 L2235.2 135.703 L2235.2 131.444 L2243.47 129.778 L2248.14 129.778 L2248.14 160.402 L2255.78 160.402 L2255.78 164.338 L2235.88 164.338 L2235.88 160.402 Z" fill="#000000" fill-rule="nonzero" fill-opacity="1" /><polyline clip-path="url(#clip220)" style="stroke:#e26f46; stroke-linecap:round; stroke-linejoin:round; stroke-width:4; stroke-opacity:1; fill:none" points="2033.65,198.898 2179.11,198.898 "/>
<path clip-path="url(#clip220)" d="M2217.19 218.585 Q2215.39 223.215 2213.68 224.627 Q2211.96 226.039 2209.09 226.039 L2205.69 226.039 L2205.69 222.474 L2208.19 222.474 Q2209.95 222.474 2210.92 221.64 Q2211.89 220.807 2213.07 217.705 L2213.84 215.761 L2203.35 190.252 L2207.87 190.252 L2215.97 210.529 L2224.07 190.252 L2228.58 190.252 L2217.19 218.585 Z" fill="#000000" fill-rule="nonzero" fill-opacity="1" /><path clip-path="url(#clip220)" d="M2239.09 212.242 L2255.41 212.242 L2255.41 216.178 L2233.47 216.178 L2233.47 212.242 Q2236.13 209.488 2240.71 204.858 Q2245.32 200.205 2246.5 198.863 Q2248.75 196.34 2249.63 194.604 Q2250.53 192.844 2250.53 191.155 Q2250.53 188.4 2248.58 186.664 Q2246.66 184.928 2243.56 184.928 Q2241.36 184.928 2238.91 185.692 Q2236.48 186.455 2233.7 188.006 L2233.7 183.284 Q2236.52 182.15 2238.98 181.571 Q2241.43 180.993 2243.47 180.993 Q2248.84 180.993 2252.03 183.678 Q2255.23 186.363 2255.23 190.854 Q2255.23 192.983 2254.42 194.905 Q2253.63 196.803 2251.52 199.395 Q2250.94 200.067 2247.84 203.284 Q2244.74 206.479 2239.09 212.242 Z" fill="#000000" fill-rule="nonzero" fill-opacity="1" /></svg>
