<?xml version="1.0" encoding="utf-8"?>
<svg xmlns="http://www.w3.org/2000/svg" xmlns:xlink="http://www.w3.org/1999/xlink" width="600" height="400" viewBox="0 0 2400 1600">
<defs>
  <clipPath id="clip280">
    <rect x="0" y="0" width="2400" height="1600"/>
  </clipPath>
</defs>
<path clip-path="url(#clip280)" d="M0 1600 L2400 1600 L2400 0 L0 0  Z" fill="#ffffff" fill-rule="evenodd" fill-opacity="1"/>
<defs>
  <clipPath id="clip281">
    <rect x="480" y="0" width="1681" height="1600"/>
  </clipPath>
</defs>
<path clip-path="url(#clip280)" d="M140.696 1486.45 L2352.76 1486.45 L2352.76 47.2441 L140.696 47.2441  Z" fill="#ffffff" fill-rule="evenodd" fill-opacity="1"/>
<defs>
  <clipPath id="clip282">
    <rect x="140" y="47" width="2213" height="1440"/>
  </clipPath>
</defs>
<polyline clip-path="url(#clip282)" style="stroke:#000000; stroke-linecap:round; stroke-linejoin:round; stroke-width:2; stroke-opacity:0.1; fill:none" points="203.301,1486.45 203.301,47.2441 "/>
<polyline clip-path="url(#clip282)" style="stroke:#000000; stroke-linecap:round; stroke-linejoin:round; stroke-width:2; stroke-opacity:0.1; fill:none" points="725.013,1486.45 725.013,47.2441 "/>
<polyline clip-path="url(#clip282)" style="stroke:#000000; stroke-linecap:round; stroke-linejoin:round; stroke-width:2; stroke-opacity:0.1; fill:none" points="1246.73,1486.45 1246.73,47.2441 "/>
<polyline clip-path="url(#clip282)" style="stroke:#000000; stroke-linecap:round; stroke-linejoin:round; stroke-width:2; stroke-opacity:0.1; fill:none" points="1768.44,1486.45 1768.44,47.2441 "/>
<polyline clip-path="url(#clip282)" style="stroke:#000000; stroke-linecap:round; stroke-linejoin:round; stroke-width:2; stroke-opacity:0.1; fill:none" points="2290.15,1486.45 2290.15,47.2441 "/>
<polyline clip-path="url(#clip282)" style="stroke:#000000; stroke-linecap:round; stroke-linejoin:round; stroke-width:2; stroke-opacity:0.1; fill:none" points="140.696,1432.68 2352.76,1432.68 "/>
<polyline clip-path="url(#clip282)" style="stroke:#000000; stroke-linecap:round; stroke-linejoin:round; stroke-width:2; stroke-opacity:0.1; fill:none" points="140.696,1125.8 2352.76,1125.8 "/>
<polyline clip-path="url(#clip282)" style="stroke:#000000; stroke-linecap:round; stroke-linejoin:round; stroke-width:2; stroke-opacity:0.1; fill:none" points="140.696,818.926 2352.76,818.926 "/>
<polyline clip-path="url(#clip282)" style="stroke:#000000; stroke-linecap:round; stroke-linejoin:round; stroke-width:2; stroke-opacity:0.1; fill:none" points="140.696,512.047 2352.76,512.047 "/>
<polyline clip-path="url(#clip282)" style="stroke:#000000; stroke-linecap:round; stroke-linejoin:round; stroke-width:2; stroke-opacity:0.1; fill:none" points="140.696,205.169 2352.76,205.169 "/>
<polyline clip-path="url(#clip280)" style="stroke:#000000; stroke-linecap:round; stroke-linejoin:round; stroke-width:4; stroke-opacity:1; fill:none" points="140.696,1486.45 2352.76,1486.45 "/>
<polyline clip-path="url(#clip280)" style="stroke:#000000; stroke-linecap:round; stroke-linejoin:round; stroke-width:4; stroke-opacity:1; fill:none" points="203.301,1486.45 203.301,1467.55 "/>
<polyline clip-path="url(#clip280)" style="stroke:#000000; stroke-linecap:round; stroke-linejoin:round; stroke-width:4; stroke-opacity:1; fill:none" points="725.013,1486.45 725.013,1467.55 "/>
<polyline clip-path="url(#clip280)" style="stroke:#000000; stroke-linecap:round; stroke-linejoin:round; stroke-width:4; stroke-opacity:1; fill:none" points="1246.73,1486.45 1246.73,1467.55 "/>
<polyline clip-path="url(#clip280)" style="stroke:#000000; stroke-linecap:round; stroke-linejoin:round; stroke-width:4; stroke-opacity:1; fill:none" points="1768.44,1486.45 1768.44,1467.55 "/>
<polyline clip-path="url(#clip280)" style="stroke:#000000; stroke-linecap:round; stroke-linejoin:round; stroke-width:4; stroke-opacity:1; fill:none" points="2290.15,1486.45 2290.15,1467.55 "/>
<path clip-path="url(#clip280)" d="M203.301 1517.37 Q199.69 1517.37 197.861 1520.93 Q196.056 1524.47 196.056 1531.6 Q196.056 1538.71 197.861 1542.27 Q199.69 1545.82 203.301 1545.82 Q206.935 1545.82 208.741 1542.27 Q210.57 1538.71 210.57 1531.6 Q210.57 1524.47 208.741 1520.93 Q206.935 1517.37 203.301 1517.37 M203.301 1513.66 Q209.111 1513.66 212.167 1518.27 Q215.245 1522.85 215.245 1531.6 Q215.245 1540.33 212.167 1544.94 Q209.111 1549.52 203.301 1549.52 Q197.491 1549.52 194.412 1544.94 Q191.357 1540.33 191.357 1531.6 Q191.357 1522.85 194.412 1518.27 Q197.491 1513.66 203.301 1513.66 Z" fill="#000000" fill-rule="nonzero" fill-opacity="1" /><path clip-path="url(#clip280)" d="M704.284 1544.91 L720.604 1544.91 L720.604 1548.85 L698.659 1548.85 L698.659 1544.91 Q701.321 1542.16 705.905 1537.53 Q710.511 1532.88 711.692 1531.53 Q713.937 1529.01 714.817 1527.27 Q715.719 1525.51 715.719 1523.82 Q715.719 1521.07 713.775 1519.33 Q711.854 1517.6 708.752 1517.6 Q706.553 1517.6 704.099 1518.36 Q701.669 1519.13 698.891 1520.68 L698.891 1515.95 Q701.715 1514.82 704.169 1514.24 Q706.622 1513.66 708.659 1513.66 Q714.03 1513.66 717.224 1516.35 Q720.418 1519.03 720.418 1523.52 Q720.418 1525.65 719.608 1527.57 Q718.821 1529.47 716.715 1532.07 Q716.136 1532.74 713.034 1535.95 Q709.932 1539.15 704.284 1544.91 Z" fill="#000000" fill-rule="nonzero" fill-opacity="1" /><path clip-path="url(#clip280)" d="M730.465 1514.29 L748.821 1514.29 L748.821 1518.22 L734.747 1518.22 L734.747 1526.7 Q735.766 1526.35 736.784 1526.19 Q737.803 1526 738.821 1526 Q744.608 1526 747.988 1529.17 Q751.367 1532.34 751.367 1537.76 Q751.367 1543.34 747.895 1546.44 Q744.423 1549.52 738.104 1549.52 Q735.928 1549.52 733.659 1549.15 Q731.414 1548.78 729.006 1548.04 L729.006 1543.34 Q731.09 1544.47 733.312 1545.03 Q735.534 1545.58 738.011 1545.58 Q742.016 1545.58 744.354 1543.48 Q746.691 1541.37 746.691 1537.76 Q746.691 1534.15 744.354 1532.04 Q742.016 1529.94 738.011 1529.94 Q736.136 1529.94 734.261 1530.35 Q732.409 1530.77 730.465 1531.65 L730.465 1514.29 Z" fill="#000000" fill-rule="nonzero" fill-opacity="1" /><path clip-path="url(#clip280)" d="M1221.42 1514.29 L1239.78 1514.29 L1239.78 1518.22 L1225.71 1518.22 L1225.71 1526.7 Q1226.73 1526.35 1227.74 1526.19 Q1228.76 1526 1229.78 1526 Q1235.57 1526 1238.95 1529.17 Q1242.33 1532.34 1242.33 1537.76 Q1242.33 1543.34 1238.86 1546.44 Q1235.38 1549.52 1229.06 1549.52 Q1226.89 1549.52 1224.62 1549.15 Q1222.37 1548.78 1219.97 1548.04 L1219.97 1543.34 Q1222.05 1544.47 1224.27 1545.03 Q1226.49 1545.58 1228.97 1545.58 Q1232.98 1545.58 1235.31 1543.48 Q1237.65 1541.37 1237.65 1537.76 Q1237.65 1534.15 1235.31 1532.04 Q1232.98 1529.94 1228.97 1529.94 Q1227.1 1529.94 1225.22 1530.35 Q1223.37 1530.77 1221.42 1531.65 L1221.42 1514.29 Z" fill="#000000" fill-rule="nonzero" fill-opacity="1" /><path clip-path="url(#clip280)" d="M1261.54 1517.37 Q1257.93 1517.37 1256.1 1520.93 Q1254.3 1524.47 1254.3 1531.6 Q1254.3 1538.71 1256.1 1542.27 Q1257.93 1545.82 1261.54 1545.82 Q1265.17 1545.82 1266.98 1542.27 Q1268.81 1538.71 1268.81 1531.6 Q1268.81 1524.47 1266.98 1520.93 Q1265.17 1517.37 1261.54 1517.37 M1261.54 1513.66 Q1267.35 1513.66 1270.41 1518.27 Q1273.48 1522.85 1273.48 1531.6 Q1273.48 1540.33 1270.41 1544.94 Q1267.35 1549.52 1261.54 1549.52 Q1255.73 1549.52 1252.65 1544.94 Q1249.6 1540.33 1249.6 1531.6 Q1249.6 1522.85 1252.65 1518.27 Q1255.73 1513.66 1261.54 1513.66 Z" fill="#000000" fill-rule="nonzero" fill-opacity="1" /><path clip-path="url(#clip280)" d="M1742.29 1514.29 L1764.51 1514.29 L1764.51 1516.28 L1751.97 1548.85 L1747.08 1548.85 L1758.89 1518.22 L1742.29 1518.22 L1742.29 1514.29 Z" fill="#000000" fill-rule="nonzero" fill-opacity="1" /><path clip-path="url(#clip280)" d="M1773.68 1514.29 L1792.04 1514.29 L1792.04 1518.22 L1777.96 1518.22 L1777.96 1526.7 Q1778.98 1526.35 1780 1526.19 Q1781.02 1526 1782.04 1526 Q1787.82 1526 1791.2 1529.17 Q1794.58 1532.34 1794.58 1537.76 Q1794.58 1543.34 1791.11 1546.44 Q1787.64 1549.52 1781.32 1549.52 Q1779.14 1549.52 1776.88 1549.15 Q1774.63 1548.78 1772.22 1548.04 L1772.22 1543.34 Q1774.31 1544.47 1776.53 1545.03 Q1778.75 1545.58 1781.23 1545.58 Q1785.23 1545.58 1787.57 1543.48 Q1789.91 1541.37 1789.91 1537.76 Q1789.91 1534.15 1787.57 1532.04 Q1785.23 1529.94 1781.23 1529.94 Q1779.35 1529.94 1777.48 1530.35 Q1775.63 1530.77 1773.68 1531.65 L1773.68 1514.29 Z" fill="#000000" fill-rule="nonzero" fill-opacity="1" /><path clip-path="url(#clip280)" d="M2249.76 1544.91 L2257.4 1544.91 L2257.4 1518.55 L2249.09 1520.21 L2249.09 1515.95 L2257.35 1514.29 L2262.03 1514.29 L2262.03 1544.91 L2269.66 1544.91 L2269.66 1548.85 L2249.76 1548.85 L2249.76 1544.91 Z" fill="#000000" fill-rule="nonzero" fill-opacity="1" /><path clip-path="url(#clip280)" d="M2289.11 1517.37 Q2285.5 1517.37 2283.67 1520.93 Q2281.86 1524.47 2281.86 1531.6 Q2281.86 1538.71 2283.67 1542.27 Q2285.5 1545.82 2289.11 1545.82 Q2292.74 1545.82 2294.55 1542.27 Q2296.38 1538.71 2296.38 1531.6 Q2296.38 1524.47 2294.55 1520.93 Q2292.74 1517.37 2289.11 1517.37 M2289.11 1513.66 Q2294.92 1513.66 2297.97 1518.27 Q2301.05 1522.85 2301.05 1531.6 Q2301.05 1540.33 2297.97 1544.94 Q2294.92 1549.52 2289.11 1549.52 Q2283.3 1549.52 2280.22 1544.94 Q2277.16 1540.33 2277.16 1531.6 Q2277.16 1522.85 2280.22 1518.27 Q2283.3 1513.66 2289.11 1513.66 Z" fill="#000000" fill-rule="nonzero" fill-opacity="1" /><path clip-path="url(#clip280)" d="M2319.27 1517.37 Q2315.66 1517.37 2313.83 1520.93 Q2312.03 1524.47 2312.03 1531.6 Q2312.03 1538.71 2313.83 1542.27 Q2315.66 1545.82 2319.27 1545.82 Q2322.9 1545.82 2324.71 1542.27 Q2326.54 1538.71 2326.54 1531.6 Q2326.54 1524.47 2324.71 1520.93 Q2322.9 1517.37 2319.27 1517.37 M2319.27 1513.66 Q2325.08 1513.66 2328.14 1518.27 Q2331.22 1522.85 2331.22 1531.6 Q2331.22 1540.33 2328.14 1544.94 Q2325.08 1549.52 2319.27 1549.52 Q2313.46 1549.52 2310.38 1544.94 Q2307.33 1540.33 2307.33 1531.6 Q2307.33 1522.85 2310.38 1518.27 Q2313.46 1513.66 2319.27 1513.66 Z" fill="#000000" fill-rule="nonzero" fill-opacity="1" /><polyline clip-path="url(#clip280)" style="stroke:#000000; stroke-linecap:round; stroke-linejoin:round; stroke-width:4; stroke-opacity:1; fill:none" points="140.696,1486.45 140.696,47.2441 "/>
<polyline clip-path="url(#clip280)" style="stroke:#000000; stroke-linecap:round; stroke-linejoin:round; stroke-width:4; stroke-opacity:1; fill:none" points="140.696,1432.68 159.593,1432.68 "/>
<polyline clip-path="url(#clip280)" style="stroke:#000000; stroke-linecap:round; stroke-linejoin:round; stroke-width:4; stroke-opacity:1; fill:none" points="140.696,1125.8 159.593,1125.8 "/>
<polyline clip-path="url(#clip280)" style="stroke:#000000; stroke-linecap:round; stroke-linejoin:round; stroke-width:4; stroke-opacity:1; fill:none" points="140.696,818.926 159.593,818.926 "/>
<polyline clip-path="url(#clip280)" style="stroke:#000000; stroke-linecap:round; stroke-linejoin:round; stroke-width:4; stroke-opacity:1; fill:none" points="140.696,512.047 159.593,512.047 "/>
<polyline clip-path="url(#clip280)" style="stroke:#000000; stroke-linecap:round; stroke-linejoin:round; stroke-width:4; stroke-opacity:1; fill:none" points="140.696,205.169 159.593,205.169 "/>
<path clip-path="url(#clip280)" d="M92.7512 1418.48 Q89.1401 1418.48 87.3114 1422.05 Q85.5058 1425.59 85.5058 1432.72 Q85.5058 1439.82 87.3114 1443.39 Q89.1401 1446.93 92.7512 1446.93 Q96.3854 1446.93 98.1909 1443.39 Q100.02 1439.82 100.02 1432.72 Q100.02 1425.59 98.1909 1422.05 Q96.3854 1418.48 92.7512 1418.48 M92.7512 1414.78 Q98.5613 1414.78 101.617 1419.38 Q104.696 1423.97 104.696 1432.72 Q104.696 1441.44 101.617 1446.05 Q98.5613 1450.63 92.7512 1450.63 Q86.941 1450.63 83.8623 1446.05 Q80.8068 1441.44 80.8068 1432.72 Q80.8068 1423.97 83.8623 1419.38 Q86.941 1414.78 92.7512 1414.78 Z" fill="#000000" fill-rule="nonzero" fill-opacity="1" /><path clip-path="url(#clip280)" d="M83.7929 1108.52 L102.149 1108.52 L102.149 1112.46 L88.0753 1112.46 L88.0753 1120.93 Q89.0938 1120.58 90.1123 1120.42 Q91.1308 1120.24 92.1493 1120.24 Q97.9363 1120.24 101.316 1123.41 Q104.696 1126.58 104.696 1132 Q104.696 1137.58 101.223 1140.68 Q97.7511 1143.76 91.4317 1143.76 Q89.2558 1143.76 86.9873 1143.39 Q84.7419 1143.02 82.3346 1142.27 L82.3346 1137.58 Q84.4179 1138.71 86.6401 1139.27 Q88.8623 1139.82 91.3391 1139.82 Q95.3437 1139.82 97.6817 1137.71 Q100.02 1135.61 100.02 1132 Q100.02 1128.39 97.6817 1126.28 Q95.3437 1124.17 91.3391 1124.17 Q89.4641 1124.17 87.5892 1124.59 Q85.7373 1125.01 83.7929 1125.89 L83.7929 1108.52 Z" fill="#000000" fill-rule="nonzero" fill-opacity="1" /><path clip-path="url(#clip280)" d="M53.3995 832.271 L61.0384 832.271 L61.0384 805.905 L52.7282 807.572 L52.7282 803.313 L60.9921 801.646 L65.668 801.646 L65.668 832.271 L73.3068 832.271 L73.3068 836.206 L53.3995 836.206 L53.3995 832.271 Z" fill="#000000" fill-rule="nonzero" fill-opacity="1" /><path clip-path="url(#clip280)" d="M92.7512 804.725 Q89.1401 804.725 87.3114 808.289 Q85.5058 811.831 85.5058 818.961 Q85.5058 826.067 87.3114 829.632 Q89.1401 833.173 92.7512 833.173 Q96.3854 833.173 98.1909 829.632 Q100.02 826.067 100.02 818.961 Q100.02 811.831 98.1909 808.289 Q96.3854 804.725 92.7512 804.725 M92.7512 801.021 Q98.5613 801.021 101.617 805.627 Q104.696 810.211 104.696 818.961 Q104.696 827.687 101.617 832.294 Q98.5613 836.877 92.7512 836.877 Q86.941 836.877 83.8623 832.294 Q80.8068 827.687 80.8068 818.961 Q80.8068 810.211 83.8623 805.627 Q86.941 801.021 92.7512 801.021 Z" fill="#000000" fill-rule="nonzero" fill-opacity="1" /><path clip-path="url(#clip280)" d="M54.3949 525.392 L62.0337 525.392 L62.0337 499.026 L53.7236 500.693 L53.7236 496.434 L61.9874 494.767 L66.6633 494.767 L66.6633 525.392 L74.3022 525.392 L74.3022 529.327 L54.3949 529.327 L54.3949 525.392 Z" fill="#000000" fill-rule="nonzero" fill-opacity="1" /><path clip-path="url(#clip280)" d="M83.7929 494.767 L102.149 494.767 L102.149 498.702 L88.0753 498.702 L88.0753 507.175 Q89.0938 506.827 90.1123 506.665 Q91.1308 506.48 92.1493 506.48 Q97.9363 506.48 101.316 509.651 Q104.696 512.823 104.696 518.239 Q104.696 523.818 101.223 526.92 Q97.7511 529.998 91.4317 529.998 Q89.2558 529.998 86.9873 529.628 Q84.7419 529.258 82.3346 528.517 L82.3346 523.818 Q84.4179 524.952 86.6401 525.508 Q88.8623 526.063 91.3391 526.063 Q95.3437 526.063 97.6817 523.957 Q100.02 521.85 100.02 518.239 Q100.02 514.628 97.6817 512.522 Q95.3437 510.415 91.3391 510.415 Q89.4641 510.415 87.5892 510.832 Q85.7373 511.249 83.7929 512.128 L83.7929 494.767 Z" fill="#000000" fill-rule="nonzero" fill-opacity="1" /><path clip-path="url(#clip280)" d="M56.6171 218.513 L72.9365 218.513 L72.9365 222.449 L50.9921 222.449 L50.9921 218.513 Q53.6541 215.759 58.2375 211.129 Q62.8439 206.476 64.0245 205.134 Q66.2698 202.611 67.1494 200.875 Q68.0522 199.115 68.0522 197.426 Q68.0522 194.671 66.1078 192.935 Q64.1865 191.199 61.0847 191.199 Q58.8856 191.199 56.4319 191.963 Q54.0014 192.726 51.2236 194.277 L51.2236 189.555 Q54.0477 188.421 56.5014 187.842 Q58.955 187.264 60.9921 187.264 Q66.3624 187.264 69.5568 189.949 Q72.7513 192.634 72.7513 197.125 Q72.7513 199.254 71.9411 201.176 Q71.1541 203.074 69.0476 205.666 Q68.4689 206.338 65.367 209.555 Q62.2652 212.75 56.6171 218.513 Z" fill="#000000" fill-rule="nonzero" fill-opacity="1" /><path clip-path="url(#clip280)" d="M92.7512 190.967 Q89.1401 190.967 87.3114 194.532 Q85.5058 198.074 85.5058 205.203 Q85.5058 212.31 87.3114 215.875 Q89.1401 219.416 92.7512 219.416 Q96.3854 219.416 98.1909 215.875 Q100.02 212.31 100.02 205.203 Q100.02 198.074 98.1909 194.532 Q96.3854 190.967 92.7512 190.967 M92.7512 187.264 Q98.5613 187.264 101.617 191.87 Q104.696 196.453 104.696 205.203 Q104.696 213.93 101.617 218.537 Q98.5613 223.12 92.7512 223.12 Q86.941 223.12 83.8623 218.537 Q80.8068 213.93 80.8068 205.203 Q80.8068 196.453 83.8623 191.87 Q86.941 187.264 92.7512 187.264 Z" fill="#000000" fill-rule="nonzero" fill-opacity="1" /><polyline clip-path="url(#clip282)" style="stroke:#009af9; stroke-linecap:round; stroke-linejoin:round; stroke-width:4; stroke-opacity:1; fill:none" points="203.301,1414.65 213.735,1435.24 224.17,1411.72 234.604,1401.08 245.038,1404.77 255.472,1414.43 265.907,1418.28 276.341,1435.86 286.775,1419.04 297.209,1376.48 307.643,1388.27 318.078,1396.44 328.512,1387.37 338.946,1388.11 349.38,1421.3 359.815,1364.35 370.249,1396.45 380.683,1423.46 391.117,1331.64 401.552,1413.76 411.986,1409.08 422.42,1390.66 432.854,1392.41 443.289,1402.03 453.723,1378.63 464.157,1407.4 474.591,1358.13 485.026,1360.22 495.46,1330.86 505.894,1374.42 516.328,1383.42 526.763,1294.8 537.197,1325.44 547.631,1370.71 558.065,1388.42 568.5,1355.2 578.934,1321.49 589.368,1349.97 599.802,1330.9 610.237,1358.74 620.671,1353.55 631.105,1366.34 641.539,1353.95 651.974,1310.55 662.408,1321.42 672.842,1314.23 683.276,1292.8 693.711,1324.51 704.145,1304.87 714.579,1275.63 725.013,1303.72 735.448,1314.28 745.882,1304.15 756.316,1291.96 766.75,1282.17 777.185,1304.43 787.619,1230.92 798.053,1294.05 808.487,1285.18 818.922,1294.27 829.356,1206.89 839.79,1242.99 850.224,1258.38 860.659,1200.35 871.093,1193.62 881.527,1165.77 891.961,1097.03 902.396,1048.06 912.83,1017.78 923.264,980.611 933.698,956.276 944.133,931.461 954.567,861.858 965.001,810.382 975.435,742.599 985.87,724.02 996.304,721 1006.74,658.687 1017.17,640.787 1027.61,631.519 1038.04,619.419 1048.48,625.841 1058.91,615.191 1069.34,616.524 1079.78,706.116 1090.21,724 1100.65,765.569 1111.08,807.021 1121.51,838.733 1131.95,882.908 1142.38,934.894 1152.82,879.453 1163.25,989.624 1173.69,1014.54 1184.12,1049.05 1194.55,1064.72 1204.99,1114.56 1215.42,1087.78 1225.86,1116.91 1236.29,1147.59 1246.73,1114.7 1257.16,1155.46 1267.59,1186.94 1278.03,1211.7 1288.46,1171.3 1298.9,1202.39 1309.33,1188.29 1319.77,1175.53 1330.2,1167.97 1340.63,1152.2 1351.07,1165.59 1361.5,1136.71 1371.94,1156.8 1382.37,1169.48 1392.81,1146.53 1403.24,1131.57 1413.67,1162.98 1424.11,1123.73 1434.54,1151.82 1444.98,1141.93 1455.41,1162.51 1465.84,1104.07 1476.28,1135.43 1486.71,1142.8 1497.15,1131.33 1507.58,1127.93 1518.02,1149.01 1528.45,1103.69 1538.88,1106.37 1549.32,1129.41 1559.75,1107.02 1570.19,1083.59 1580.62,1101.88 1591.06,1089.82 1601.49,1144.82 1611.92,1101.16 1622.36,1096.07 1632.79,1085.62 1643.23,1108.57 1653.66,1046.51 1664.1,1121.65 1674.53,1110.41 1684.96,1061.22 1695.4,1056.35 1705.83,1078.2 1716.27,1064.37 1726.7,1051 1737.14,1086.54 1747.57,1025.44 1758,1099.72 1768.44,1036.16 1778.87,1126.05 1789.31,1077.68 1799.74,1061.18 1810.18,1057.32 1820.61,1034.98 1831.04,1044.72 1841.48,1076.29 1851.91,1013.89 1862.35,1026.96 1872.78,1057.44 1883.21,1052.53 1893.65,999.419 1904.08,1012.19 1914.52,1015.55 1924.95,1037.66 1935.39,1014.33 1945.82,993.356 1956.25,991.763 1966.69,1031.72 1977.12,1004.38 1987.56,988.794 1997.99,1017.77 2008.43,980.121 2018.86,1051.89 2029.29,1006.42 2039.73,986.438 2050.16,1007.21 2060.6,1014.16 2071.03,1044.42 2081.47,1005.42 2091.9,986.129 2102.33,976.9 2112.77,932.03 2123.2,997.898 2133.64,988.245 2144.07,990.751 2154.51,933.967 2164.94,1008.53 2175.37,977.135 2185.81,954.736 2196.24,992.222 2206.68,1012.21 2217.11,945.647 2227.54,939.1 2237.98,956.894 2248.41,888.194 2258.85,917.807 2269.28,949.192 2279.72,934.493 2290.15,943.479 "/>
<polyline clip-path="url(#clip282)" style="stroke:#e26f46; stroke-linecap:round; stroke-linejoin:round; stroke-width:4; stroke-opacity:1; fill:none" points="203.301,1426.5 213.735,1439.64 224.17,1433.76 234.604,1421.98 245.038,1429.06 255.472,1419.5 265.907,1422.42 276.341,1438.84 286.775,1418.79 297.209,1431.82 307.643,1427.21 318.078,1445.72 328.512,1424.77 338.946,1391.01 349.38,1418.66 359.815,1424.36 370.249,1373.85 380.683,1423.9 391.117,1429.26 401.552,1434.37 411.986,1415.41 422.42,1421.44 432.854,1416.69 443.289,1413.4 453.723,1425.92 464.157,1413.79 474.591,1387.68 485.026,1413.71 495.46,1421.66 505.894,1394.78 516.328,1424.25 526.763,1412.94 537.197,1383.68 547.631,1423.63 558.065,1434.14 568.5,1403.23 578.934,1393.02 589.368,1415.65 599.802,1400.77 610.237,1387.44 620.671,1396.9 631.105,1397.32 641.539,1402.62 651.974,1388.01 662.408,1405.21 672.842,1362.95 683.276,1372.56 693.711,1391.1 704.145,1399.65 714.579,1367.97 725.013,1390.16 735.448,1388.98 745.882,1357.55 756.316,1362.62 766.75,1382.87 777.185,1390.48 787.619,1361.99 798.053,1376.32 808.487,1353.51 818.922,1397.2 829.356,1391.56 839.79,1358.33 850.224,1391.58 860.659,1369.04 871.093,1374.32 881.527,1390.22 891.961,1377.88 902.396,1343.98 912.83,1371.2 923.264,1351.57 933.698,1354.92 944.133,1360.87 954.567,1348.8 965.001,1354.96 975.435,1342.49 985.87,1341.92 996.304,1309.43 1006.74,1350.11 1017.17,1347.61 1027.61,1325.04 1038.04,1334.08 1048.48,1312.17 1058.91,1299.45 1069.34,1279.32 1079.78,1269.82 1090.21,1275.41 1100.65,1243.27 1111.08,1214.98 1121.51,1216.71 1131.95,1181.85 1142.38,1180.7 1152.82,1153.39 1163.25,1106.27 1173.69,1091.06 1184.12,1065.62 1194.55,1015.45 1204.99,975.433 1215.42,936.452 1225.86,935.797 1236.29,836.282 1246.73,804.188 1257.16,760.704 1267.59,733.045 1278.03,676.052 1288.46,632.209 1298.9,578.426 1309.33,511.819 1319.77,489.947 1330.2,411.559 1340.63,379.919 1351.07,338.398 1361.5,276.552 1371.94,267.83 1382.37,213.015 1392.81,210.211 1403.24,166.673 1413.67,149.481 1424.11,116.89 1434.54,107.635 1444.98,103.726 1455.41,130.487 1465.84,87.9763 1476.28,91.8739 1486.71,108.793 1497.15,132.926 1507.58,148.266 1518.02,170.731 1528.45,223.158 1538.88,249.673 1549.32,269.15 1559.75,321.919 1570.19,361.024 1580.62,440.747 1591.06,455.486 1601.49,539.292 1611.92,560.025 1622.36,587.536 1632.79,647.281 1643.23,695.682 1653.66,712.858 1664.1,802.816 1674.53,804.841 1684.96,873.798 1695.4,908.654 1705.83,933.179 1716.27,978.416 1726.7,1031.6 1737.14,1041.6 1747.57,1052.59 1758,1081.66 1768.44,1129.89 1778.87,1150.96 1789.31,1154.75 1799.74,1164.52 1810.18,1172.89 1820.61,1189.26 1831.04,1205.73 1841.48,1198.06 1851.91,1238.16 1862.35,1271.83 1872.78,1244.19 1883.21,1253.23 1893.65,1233.65 1904.08,1260.36 1914.52,1265.58 1924.95,1267.84 1935.39,1261.62 1945.82,1261.32 1956.25,1305.14 1966.69,1277.54 1977.12,1243.35 1987.56,1290.98 1997.99,1286.12 2008.43,1269.63 2018.86,1293.93 2029.29,1278.65 2039.73,1233.13 2050.16,1219.34 2060.6,1264.26 2071.03,1258.44 2081.47,1276.54 2091.9,1261.47 2102.33,1282.06 2112.77,1266.72 2123.2,1263.07 2133.64,1263.18 2144.07,1258.34 2154.51,1257.81 2164.94,1252.32 2175.37,1247.11 2185.81,1255.62 2196.24,1253.56 2206.68,1281.34 2217.11,1241.18 2227.54,1241.95 2237.98,1241.65 2248.41,1248.6 2258.85,1237.35 2269.28,1231.19 2279.72,1268.31 2290.15,1276.06 "/>
<path clip-path="url(#clip280)" d="M2005.38 250.738 L2279.02 250.738 L2279.02 95.2176 L2005.38 95.2176  Z" fill="#ffffff" fill-rule="evenodd" fill-opacity="1"/>
<polyline clip-path="url(#clip280)" style="stroke:#000000; stroke-linecap:round; stroke-linejoin:round; stroke-width:4; stroke-opacity:1; fill:none" points="2005.38,250.738 2279.02,250.738 2279.02,95.2176 2005.38,95.2176 2005.38,250.738 "/>
<polyline clip-path="url(#clip280)" style="stroke:#009af9; stroke-linecap:round; stroke-linejoin:round; stroke-width:4; stroke-opacity:1; fill:none" points="2029.96,147.058 2177.43,147.058 "/>
<path clip-path="url(#clip280)" d="M2215.85 166.745 Q2214.05 171.375 2212.34 172.787 Q2210.62 174.199 2207.75 174.199 L2204.35 174.199 L2204.35 170.634 L2206.85 170.634 Q2208.61 170.634 2209.58 169.8 Q2210.55 168.967 2211.73 165.865 L2212.5 163.921 L2202.01 138.412 L2206.53 138.412 L2214.63 158.689 L2222.73 138.412 L2227.24 138.412 L2215.85 166.745 Z" fill="#000000" fill-rule="nonzero" fill-opacity="1" /><path clip-path="url(#clip280)" d="M2234.53 160.402 L2242.17 160.402 L2242.17 134.037 L2233.86 135.703 L2233.86 131.444 L2242.13 129.778 L2246.8 129.778 L2246.8 160.402 L2254.44 160.402 L2254.44 164.338 L2234.53 164.338 L2234.53 160.402 Z" fill="#000000" fill-rule="nonzero" fill-opacity="1" /><polyline clip-path="url(#clip280)" style="stroke:#e26f46; stroke-linecap:round; stroke-linejoin:round; stroke-width:4; stroke-opacity:1; fill:none" points="2029.96,198.898 2177.43,198.898 "/>
<path clip-path="url(#clip280)" d="M2215.85 218.585 Q2214.05 223.215 2212.34 224.627 Q2210.62 226.039 2207.75 226.039 L2204.35 226.039 L2204.35 222.474 L2206.85 222.474 Q2208.61 222.474 2209.58 221.64 Q2210.55 220.807 2211.73 217.705 L2212.5 215.761 L2202.01 190.252 L2206.53 190.252 L2214.63 210.529 L2222.73 190.252 L2227.24 190.252 L2215.85 218.585 Z" fill="#000000" fill-rule="nonzero" fill-opacity="1" /><path clip-path="url(#clip280)" d="M2237.75 212.242 L2254.07 212.242 L2254.07 216.178 L2232.13 216.178 L2232.13 212.242 Q2234.79 209.488 2239.37 204.858 Q2243.98 200.205 2245.16 198.863 Q2247.41 196.34 2248.28 194.604 Q2249.19 192.844 2249.19 191.155 Q2249.19 188.4 2247.24 186.664 Q2245.32 184.928 2242.22 184.928 Q2240.02 184.928 2237.57 185.692 Q2235.14 186.455 2232.36 188.006 L2232.36 183.284 Q2235.18 182.15 2237.64 181.571 Q2240.09 180.993 2242.13 180.993 Q2247.5 180.993 2250.69 183.678 Q2253.89 186.363 2253.89 190.854 Q2253.89 192.983 2253.08 194.905 Q2252.29 196.803 2250.18 199.395 Q2249.6 200.067 2246.5 203.284 Q2243.4 206.479 2237.75 212.242 Z" fill="#000000" fill-rule="nonzero" fill-opacity="1" /></svg>
