<?xml version="1.0" encoding="utf-8"?>
<svg xmlns="http://www.w3.org/2000/svg" xmlns:xlink="http://www.w3.org/1999/xlink" width="600" height="400" viewBox="0 0 2400 1600">
<defs>
  <clipPath id="clip310">
    <rect x="0" y="0" width="2400" height="1600"/>
  </clipPath>
</defs>
<path clip-path="url(#clip310)" d="M0 1600 L2400 1600 L2400 0 L0 0  Z" fill="#ffffff" fill-rule="evenodd" fill-opacity="1"/>
<defs>
  <clipPath id="clip311">
    <rect x="480" y="0" width="1681" height="1600"/>
  </clipPath>
</defs>
<path clip-path="url(#clip310)" d="M140.696 1486.45 L2352.76 1486.45 L2352.76 47.2441 L140.696 47.2441  Z" fill="#ffffff" fill-rule="evenodd" fill-opacity="1"/>
<defs>
  <clipPath id="clip312">
    <rect x="140" y="47" width="2213" height="1440"/>
  </clipPath>
</defs>
<polyline clip-path="url(#clip312)" style="stroke:#000000; stroke-linecap:round; stroke-linejoin:round; stroke-width:2; stroke-opacity:0.1; fill:none" points="203.301,1486.45 203.301,47.2441 "/>
<polyline clip-path="url(#clip312)" style="stroke:#000000; stroke-linecap:round; stroke-linejoin:round; stroke-width:2; stroke-opacity:0.1; fill:none" points="725.013,1486.45 725.013,47.2441 "/>
<polyline clip-path="url(#clip312)" style="stroke:#000000; stroke-linecap:round; stroke-linejoin:round; stroke-width:2; stroke-opacity:0.1; fill:none" points="1246.73,1486.45 1246.73,47.2441 "/>
<polyline clip-path="url(#clip312)" style="stroke:#000000; stroke-linecap:round; stroke-linejoin:round; stroke-width:2; stroke-opacity:0.1; fill:none" points="1768.44,1486.45 1768.44,47.2441 "/>
<polyline clip-path="url(#clip312)" style="stroke:#000000; stroke-linecap:round; stroke-linejoin:round; stroke-width:2; stroke-opacity:0.1; fill:none" points="2290.15,1486.45 2290.15,47.2441 "/>
<polyline clip-path="url(#clip312)" style="stroke:#000000; stroke-linecap:round; stroke-linejoin:round; stroke-width:2; stroke-opacity:0.1; fill:none" points="140.696,1432.68 2352.76,1432.68 "/>
<polyline clip-path="url(#clip312)" style="stroke:#000000; stroke-linecap:round; stroke-linejoin:round; stroke-width:2; stroke-opacity:0.1; fill:none" points="140.696,1125.8 2352.76,1125.8 "/>
<polyline clip-path="url(#clip312)" style="stroke:#000000; stroke-linecap:round; stroke-linejoin:round; stroke-width:2; stroke-opacity:0.1; fill:none" points="140.696,818.926 2352.76,818.926 "/>
<polyline clip-path="url(#clip312)" style="stroke:#000000; stroke-linecap:round; stroke-linejoin:round; stroke-width:2; stroke-opacity:0.1; fill:none" points="140.696,512.047 2352.76,512.047 "/>
<polyline clip-path="url(#clip312)" style="stroke:#000000; stroke-linecap:round; stroke-linejoin:round; stroke-width:2; stroke-opacity:0.1; fill:none" points="140.696,205.169 2352.76,205.169 "/>
<polyline clip-path="url(#clip310)" style="stroke:#000000; stroke-linecap:round; stroke-linejoin:round; stroke-width:4; stroke-opacity:1; fill:none" points="140.696,1486.45 2352.76,1486.45 "/>
<polyline clip-path="url(#clip310)" style="stroke:#000000; stroke-linecap:round; stroke-linejoin:round; stroke-width:4; stroke-opacity:1; fill:none" points="203.301,1486.45 203.301,1467.55 "/>
<polyline clip-path="url(#clip310)" style="stroke:#000000; stroke-linecap:round; stroke-linejoin:round; stroke-width:4; stroke-opacity:1; fill:none" points="725.013,1486.45 725.013,1467.55 "/>
<polyline clip-path="url(#clip310)" style="stroke:#000000; stroke-linecap:round; stroke-linejoin:round; stroke-width:4; stroke-opacity:1; fill:none" points="1246.73,1486.45 1246.73,1467.55 "/>
<polyline clip-path="url(#clip310)" style="stroke:#000000; stroke-linecap:round; stroke-linejoin:round; stroke-width:4; stroke-opacity:1; fill:none" points="1768.44,1486.45 1768.44,1467.55 "/>
<polyline clip-path="url(#clip310)" style="stroke:#000000; stroke-linecap:round; stroke-linejoin:round; stroke-width:4; stroke-opacity:1; fill:none" points="2290.15,1486.45 2290.15,1467.55 "/>
<path clip-path="url(#clip310)" d="M203.301 1517.37 Q199.69 1517.37 197.861 1520.93 Q196.056 1524.47 196.056 1531.6 Q196.056 1538.71 197.861 1542.27 Q199.69 1545.82 203.301 1545.82 Q206.935 1545.82 208.741 1542.27 Q210.57 1538.71 210.57 1531.6 Q210.57 1524.47 208.741 1520.93 Q206.935 1517.37 203.301 1517.37 M203.301 1513.66 Q209.111 1513.66 212.167 1518.27 Q215.245 1522.85 215.245 1531.6 Q215.245 1540.33 212.167 1544.94 Q209.111 1549.52 203.301 1549.52 Q197.491 1549.52 194.412 1544.94 Q191.357 1540.33 191.357 1531.6 Q191.357 1522.85 194.412 1518.27 Q197.491 1513.66 203.301 1513.66 Z" fill="#000000" fill-rule="nonzero" fill-opacity="1" /><path clip-path="url(#clip310)" d="M704.284 1544.91 L720.604 1544.91 L720.604 1548.85 L698.659 1548.85 L698.659 1544.91 Q701.321 1542.16 705.905 1537.53 Q710.511 1532.88 711.692 1531.53 Q713.937 1529.01 714.817 1527.27 Q715.719 1525.51 715.719 1523.82 Q715.719 1521.07 713.775 1519.33 Q711.854 1517.6 708.752 1517.6 Q706.553 1517.6 704.099 1518.36 Q701.669 1519.13 698.891 1520.68 L698.891 1515.95 Q701.715 1514.82 704.169 1514.24 Q706.622 1513.66 708.659 1513.66 Q714.03 1513.66 717.224 1516.35 Q720.418 1519.03 720.418 1523.52 Q720.418 1525.65 719.608 1527.57 Q718.821 1529.47 716.715 1532.07 Q716.136 1532.74 713.034 1535.95 Q709.932 1539.15 704.284 1544.91 Z" fill="#000000" fill-rule="nonzero" fill-opacity="1" /><path clip-path="url(#clip310)" d="M730.465 1514.29 L748.821 1514.29 L748.821 1518.22 L734.747 1518.22 L734.747 1526.7 Q735.766 1526.35 736.784 1526.19 Q737.803 1526 738.821 1526 Q744.608 1526 747.988 1529.17 Q751.367 1532.34 751.367 1537.76 Q751.367 1543.34 747.895 1546.44 Q744.423 1549.52 738.104 1549.52 Q735.928 1549.52 733.659 1549.15 Q731.414 1548.78 729.006 1548.04 L729.006 1543.34 Q731.09 1544.47 733.312 1545.03 Q735.534 1545.58 738.011 1545.58 Q742.016 1545.58 744.354 1543.48 Q746.691 1541.37 746.691 1537.76 Q746.691 1534.15 744.354 1532.04 Q742.016 1529.94 738.011 1529.94 Q736.136 1529.94 734.261 1530.35 Q732.409 1530.77 730.465 1531.65 L730.465 1514.29 Z" fill="#000000" fill-rule="nonzero" fill-opacity="1" /><path clip-path="url(#clip310)" d="M1221.42 1514.29 L1239.78 1514.29 L1239.78 1518.22 L1225.71 1518.22 L1225.71 1526.7 Q1226.73 1526.35 1227.74 1526.19 Q1228.76 1526 1229.78 1526 Q1235.57 1526 1238.95 1529.17 Q1242.33 1532.34 1242.33 1537.76 Q1242.33 1543.34 1238.86 1546.44 Q1235.38 1549.52 1229.06 1549.52 Q1226.89 1549.52 1224.62 1549.15 Q1222.37 1548.78 1219.97 1548.04 L1219.97 1543.34 Q1222.05 1544.47 1224.27 1545.03 Q1226.49 1545.58 1228.97 1545.58 Q1232.98 1545.58 1235.31 1543.48 Q1237.65 1541.37 1237.65 1537.76 Q1237.65 1534.15 1235.31 1532.04 Q1232.98 1529.94 1228.97 1529.94 Q1227.1 1529.94 1225.22 1530.35 Q1223.37 1530.77 1221.42 1531.65 L1221.42 1514.29 Z" fill="#000000" fill-rule="nonzero" fill-opacity="1" /><path clip-path="url(#clip310)" d="M1261.54 1517.37 Q1257.93 1517.37 1256.1 1520.93 Q1254.3 1524.47 1254.3 1531.6 Q1254.3 1538.71 1256.1 1542.27 Q1257.93 1545.82 1261.54 1545.82 Q1265.17 1545.82 1266.98 1542.27 Q1268.81 1538.71 1268.81 1531.6 Q1268.81 1524.47 1266.98 1520.93 Q1265.17 1517.37 1261.54 1517.37 M1261.54 1513.66 Q1267.35 1513.66 1270.41 1518.27 Q1273.48 1522.85 1273.48 1531.6 Q1273.48 1540.33 1270.41 1544.94 Q1267.35 1549.52 1261.54 1549.52 Q1255.73 1549.52 1252.65 1544.94 Q1249.6 1540.33 1249.6 1531.6 Q1249.6 1522.85 1252.65 1518.27 Q1255.73 1513.66 1261.54 1513.66 Z" fill="#000000" fill-rule="nonzero" fill-opacity="1" /><path clip-path="url(#clip310)" d="M1742.29 1514.29 L1764.51 1514.29 L1764.51 1516.28 L1751.97 1548.85 L1747.08 1548.85 L1758.89 1518.22 L1742.29 1518.22 L1742.29 1514.29 Z" fill="#000000" fill-rule="nonzero" fill-opacity="1" /><path clip-path="url(#clip310)" d="M1773.68 1514.29 L1792.04 1514.29 L1792.04 1518.22 L1777.96 1518.22 L1777.96 1526.7 Q1778.98 1526.35 1780 1526.19 Q1781.02 1526 1782.04 1526 Q1787.82 1526 1791.2 1529.17 Q1794.58 1532.34 1794.58 1537.76 Q1794.58 1543.34 1791.11 1546.44 Q1787.64 1549.52 1781.32 1549.52 Q1779.14 1549.52 1776.88 1549.15 Q1774.63 1548.78 1772.22 1548.04 L1772.22 1543.34 Q1774.31 1544.47 1776.53 1545.03 Q1778.75 1545.58 1781.23 1545.58 Q1785.23 1545.58 1787.57 1543.48 Q1789.91 1541.37 1789.91 1537.76 Q1789.91 1534.15 1787.57 1532.04 Q1785.23 1529.94 1781.23 1529.94 Q1779.35 1529.94 1777.48 1530.35 Q1775.63 1530.77 1773.68 1531.65 L1773.68 1514.29 Z" fill="#000000" fill-rule="nonzero" fill-opacity="1" /><path clip-path="url(#clip310)" d="M2249.76 1544.91 L2257.4 1544.91 L2257.4 1518.55 L2249.09 1520.21 L2249.09 1515.95 L2257.35 1514.29 L2262.03 1514.29 L2262.03 1544.91 L2269.66 1544.91 L2269.66 1548.85 L2249.76 1548.85 L2249.76 1544.91 Z" fill="#000000" fill-rule="nonzero" fill-opacity="1" /><path clip-path="url(#clip310)" d="M2289.11 1517.37 Q2285.5 1517.37 2283.67 1520.93 Q2281.86 1524.47 2281.86 1531.6 Q2281.86 1538.71 2283.67 1542.27 Q2285.5 1545.82 2289.11 1545.82 Q2292.74 1545.82 2294.55 1542.27 Q2296.38 1538.71 2296.38 1531.6 Q2296.38 1524.47 2294.55 1520.93 Q2292.74 1517.37 2289.11 1517.37 M2289.11 1513.66 Q2294.92 1513.66 2297.97 1518.27 Q2301.05 1522.85 2301.05 1531.6 Q2301.05 1540.33 2297.97 1544.94 Q2294.92 1549.52 2289.11 1549.52 Q2283.3 1549.52 2280.22 1544.94 Q2277.16 1540.33 2277.16 1531.6 Q2277.16 1522.85 2280.22 1518.27 Q2283.3 1513.66 2289.11 1513.66 Z" fill="#000000" fill-rule="nonzero" fill-opacity="1" /><path clip-path="url(#clip310)" d="M2319.27 1517.37 Q2315.66 1517.37 2313.83 1520.93 Q2312.03 1524.47 2312.03 1531.6 Q2312.03 1538.71 2313.83 1542.27 Q2315.66 1545.82 2319.27 1545.82 Q2322.9 1545.82 2324.71 1542.27 Q2326.54 1538.71 2326.54 1531.6 Q2326.54 1524.47 2324.71 1520.93 Q2322.9 1517.37 2319.27 1517.37 M2319.27 1513.66 Q2325.08 1513.66 2328.14 1518.27 Q2331.22 1522.85 2331.22 1531.6 Q2331.22 1540.33 2328.14 1544.94 Q2325.08 1549.52 2319.27 1549.52 Q2313.46 1549.52 2310.38 1544.94 Q2307.33 1540.33 2307.33 1531.6 Q2307.33 1522.85 2310.38 1518.27 Q2313.46 1513.66 2319.27 1513.66 Z" fill="#000000" fill-rule="nonzero" fill-opacity="1" /><polyline clip-path="url(#clip310)" style="stroke:#000000; stroke-linecap:round; stroke-linejoin:round; stroke-width:4; stroke-opacity:1; fill:none" points="140.696,1486.45 140.696,47.2441 "/>
<polyline clip-path="url(#clip310)" style="stroke:#000000; stroke-linecap:round; stroke-linejoin:round; stroke-width:4; stroke-opacity:1; fill:none" points="140.696,1432.68 159.593,1432.68 "/>
<polyline clip-path="url(#clip310)" style="stroke:#000000; stroke-linecap:round; stroke-linejoin:round; stroke-width:4; stroke-opacity:1; fill:none" points="140.696,1125.8 159.593,1125.8 "/>
<polyline clip-path="url(#clip310)" style="stroke:#000000; stroke-linecap:round; stroke-linejoin:round; stroke-width:4; stroke-opacity:1; fill:none" points="140.696,818.926 159.593,818.926 "/>
<polyline clip-path="url(#clip310)" style="stroke:#000000; stroke-linecap:round; stroke-linejoin:round; stroke-width:4; stroke-opacity:1; fill:none" points="140.696,512.047 159.593,512.047 "/>
<polyline clip-path="url(#clip310)" style="stroke:#000000; stroke-linecap:round; stroke-linejoin:round; stroke-width:4; stroke-opacity:1; fill:none" points="140.696,205.169 159.593,205.169 "/>
<path clip-path="url(#clip310)" d="M92.7512 1418.48 Q89.1401 1418.48 87.3114 1422.05 Q85.5058 1425.59 85.5058 1432.72 Q85.5058 1439.82 87.3114 1443.39 Q89.1401 1446.93 92.7512 1446.93 Q96.3854 1446.93 98.1909 1443.39 Q100.02 1439.82 100.02 1432.72 Q100.02 1425.59 98.1909 1422.05 Q96.3854 1418.48 92.7512 1418.48 M92.7512 1414.78 Q98.5613 1414.78 101.617 1419.38 Q104.696 1423.97 104.696 1432.72 Q104.696 1441.44 101.617 1446.05 Q98.5613 1450.63 92.7512 1450.63 Q86.941 1450.63 83.8623 1446.05 Q80.8068 1441.44 80.8068 1432.72 Q80.8068 1423.97 83.8623 1419.38 Q86.941 1414.78 92.7512 1414.78 Z" fill="#000000" fill-rule="nonzero" fill-opacity="1" /><path clip-path="url(#clip310)" d="M83.7929 1108.52 L102.149 1108.52 L102.149 1112.46 L88.0753 1112.46 L88.0753 1120.93 Q89.0938 1120.58 90.1123 1120.42 Q91.1308 1120.24 92.1493 1120.24 Q97.9363 1120.24 101.316 1123.41 Q104.696 1126.58 104.696 1132 Q104.696 1137.58 101.223 1140.68 Q97.7511 1143.76 91.4317 1143.76 Q89.2558 1143.76 86.9873 1143.39 Q84.7419 1143.02 82.3346 1142.27 L82.3346 1137.58 Q84.4179 1138.71 86.6401 1139.27 Q88.8623 1139.82 91.3391 1139.82 Q95.3437 1139.82 97.6817 1137.71 Q100.02 1135.61 100.02 1132 Q100.02 1128.39 97.6817 1126.28 Q95.3437 1124.17 91.3391 1124.17 Q89.4641 1124.17 87.5892 1124.59 Q85.7373 1125.01 83.7929 1125.89 L83.7929 1108.52 Z" fill="#000000" fill-rule="nonzero" fill-opacity="1" /><path clip-path="url(#clip310)" d="M53.3995 832.271 L61.0384 832.271 L61.0384 805.905 L52.7282 807.572 L52.7282 803.313 L60.9921 801.646 L65.668 801.646 L65.668 832.271 L73.3068 832.271 L73.3068 836.206 L53.3995 836.206 L53.3995 832.271 Z" fill="#000000" fill-rule="nonzero" fill-opacity="1" /><path clip-path="url(#clip310)" d="M92.7512 804.725 Q89.1401 804.725 87.3114 808.289 Q85.5058 811.831 85.5058 818.961 Q85.5058 826.067 87.3114 829.632 Q89.1401 833.173 92.7512 833.173 Q96.3854 833.173 98.1909 829.632 Q100.02 826.067 100.02 818.961 Q100.02 811.831 98.1909 808.289 Q96.3854 804.725 92.7512 804.725 M92.7512 801.021 Q98.5613 801.021 101.617 805.627 Q104.696 810.211 104.696 818.961 Q104.696 827.687 101.617 832.294 Q98.5613 836.877 92.7512 836.877 Q86.941 836.877 83.8623 832.294 Q80.8068 827.687 80.8068 818.961 Q80.8068 810.211 83.8623 805.627 Q86.941 801.021 92.7512 801.021 Z" fill="#000000" fill-rule="nonzero" fill-opacity="1" /><path clip-path="url(#clip310)" d="M54.3949 525.392 L62.0337 525.392 L62.0337 499.026 L53.7236 500.693 L53.7236 496.434 L61.9874 494.767 L66.6633 494.767 L66.6633 525.392 L74.3022 525.392 L74.3022 529.327 L54.3949 529.327 L54.3949 525.392 Z" fill="#000000" fill-rule="nonzero" fill-opacity="1" /><path clip-path="url(#clip310)" d="M83.7929 494.767 L102.149 494.767 L102.149 498.702 L88.0753 498.702 L88.0753 507.175 Q89.0938 506.827 90.1123 506.665 Q91.1308 506.48 92.1493 506.48 Q97.9363 506.48 101.316 509.651 Q104.696 512.823 104.696 518.239 Q104.696 523.818 101.223 526.92 Q97.7511 529.998 91.4317 529.998 Q89.2558 529.998 86.9873 529.628 Q84.7419 529.258 82.3346 528.517 L82.3346 523.818 Q84.4179 524.952 86.6401 525.508 Q88.8623 526.063 91.3391 526.063 Q95.3437 526.063 97.6817 523.957 Q100.02 521.85 100.02 518.239 Q100.02 514.628 97.6817 512.522 Q95.3437 510.415 91.3391 510.415 Q89.4641 510.415 87.5892 510.832 Q85.7373 511.249 83.7929 512.128 L83.7929 494.767 Z" fill="#000000" fill-rule="nonzero" fill-opacity="1" /><path clip-path="url(#clip310)" d="M56.6171 218.513 L72.9365 218.513 L72.9365 222.449 L50.9921 222.449 L50.9921 218.513 Q53.6541 215.759 58.2375 211.129 Q62.8439 206.476 64.0245 205.134 Q66.2698 202.611 67.1494 200.875 Q68.0522 199.115 68.0522 197.426 Q68.0522 194.671 66.1078 192.935 Q64.1865 191.199 61.0847 191.199 Q58.8856 191.199 56.4319 191.963 Q54.0014 192.726 51.2236 194.277 L51.2236 189.555 Q54.0477 188.421 56.5014 187.842 Q58.955 187.264 60.9921 187.264 Q66.3624 187.264 69.5568 189.949 Q72.7513 192.634 72.7513 197.125 Q72.7513 199.254 71.9411 201.176 Q71.1541 203.074 69.0476 205.666 Q68.4689 206.338 65.367 209.555 Q62.2652 212.75 56.6171 218.513 Z" fill="#000000" fill-rule="nonzero" fill-opacity="1" /><path clip-path="url(#clip310)" d="M92.7512 190.967 Q89.1401 190.967 87.3114 194.532 Q85.5058 198.074 85.5058 205.203 Q85.5058 212.31 87.3114 215.875 Q89.1401 219.416 92.7512 219.416 Q96.3854 219.416 98.1909 215.875 Q100.02 212.31 100.02 205.203 Q100.02 198.074 98.1909 194.532 Q96.3854 190.967 92.7512 190.967 M92.7512 187.264 Q98.5613 187.264 101.617 191.87 Q104.696 196.453 104.696 205.203 Q104.696 213.93 101.617 218.537 Q98.5613 223.12 92.7512 223.12 Q86.941 223.12 83.8623 218.537 Q80.8068 213.93 80.8068 205.203 Q80.8068 196.453 83.8623 191.87 Q86.941 187.264 92.7512 187.264 Z" fill="#000000" fill-rule="nonzero" fill-opacity="1" /><polyline clip-path="url(#clip312)" style="stroke:#009af9; stroke-linecap:round; stroke-linejoin:round; stroke-width:4; stroke-opacity:1; fill:none" points="203.301,1414.65 213.735,1435.24 224.17,1411.72 234.604,1401.08 245.038,1404.77 255.472,1414.43 265.907,1418.28 276.341,1435.86 286.775,1419.04 297.209,1376.48 307.643,1388.27 318.078,1396.44 328.512,1387.37 338.946,1388.11 349.38,1421.3 359.815,1364.35 370.249,1396.45 380.683,1423.46 391.117,1331.64 401.552,1413.76 411.986,1409.08 422.42,1390.66 432.854,1392.41 443.289,1402.03 453.723,1378.63 464.157,1407.4 474.591,1358.13 485.026,1360.22 495.46,1330.86 505.894,1374.42 516.328,1383.42 526.763,1294.8 537.197,1325.44 547.631,1370.71 558.065,1388.42 568.5,1355.2 578.934,1321.49 589.368,1349.97 599.802,1330.9 610.237,1358.74 620.671,1353.55 631.105,1366.34 641.539,1353.95 651.974,1310.55 662.408,1321.42 672.842,1314.23 683.276,1292.8 693.711,1324.51 704.145,1304.87 714.579,1275.63 725.013,1303.72 735.448,1314.28 745.882,1304.15 756.316,1291.96 766.75,1282.17 777.185,1304.43 787.619,1230.92 798.053,1294.05 808.487,1285.18 818.922,1294.27 829.356,1206.89 839.79,1242.99 850.224,1258.38 860.659,1200.35 871.093,1193.62 881.527,1165.77 891.961,1097.03 902.396,1048.06 912.83,1017.78 923.264,980.611 933.698,956.276 944.133,931.461 954.567,861.858 965.001,810.382 975.435,742.599 985.87,724.02 996.304,721 1006.74,658.687 1017.17,640.787 1027.61,631.519 1038.04,619.419 1048.48,625.841 1058.91,615.191 1069.34,616.524 1079.78,706.116 1090.21,724 1100.65,765.569 1111.08,807.021 1121.51,838.733 1131.95,882.908 1142.38,934.894 1152.82,879.453 1163.25,989.624 1173.69,1014.54 1184.12,1049.05 1194.55,1064.72 1204.99,1114.56 1215.42,1087.78 1225.86,1116.91 1236.29,1147.59 1246.73,1114.7 1257.16,1155.46 1267.59,1186.94 1278.03,1211.7 1288.46,1171.3 1298.9,1202.39 1309.33,1188.29 1319.77,1175.53 1330.2,1167.97 1340.63,1152.2 1351.07,1165.59 1361.5,1136.71 1371.94,1156.8 1382.37,1169.48 1392.81,1146.53 1403.24,1131.57 1413.67,1162.98 1424.11,1123.73 1434.54,1151.82 1444.98,1141.93 1455.41,1162.51 1465.84,1104.07 1476.28,1135.43 1486.71,1142.8 1497.15,1131.33 1507.58,1127.93 1518.02,1149.01 1528.45,1103.69 1538.88,1106.37 1549.32,1129.41 1559.75,1107.02 1570.19,1083.59 1580.62,1101.88 1591.06,1089.82 1601.49,1144.82 1611.92,1101.16 1622.36,1096.07 1632.79,1085.62 1643.23,1108.57 1653.66,1046.51 1664.1,1121.65 1674.53,1110.41 1684.96,1061.22 1695.4,1056.35 1705.83,1078.2 1716.27,1064.37 1726.7,1051 1737.14,1086.54 1747.57,1025.44 1758,1099.72 1768.44,1036.16 1778.87,1126.05 1789.31,1077.68 1799.74,1061.18 1810.18,1057.32 1820.61,1034.98 1831.04,1044.72 1841.48,1076.29 1851.91,1013.89 1862.35,1026.96 1872.78,1057.44 1883.21,1052.53 1893.65,999.419 1904.08,1012.19 1914.52,1015.55 1924.95,1037.66 1935.39,1014.33 1945.82,993.356 1956.25,991.763 1966.69,1031.72 1977.12,1004.38 1987.56,988.794 1997.99,1017.77 2008.43,980.121 2018.86,1051.89 2029.29,1006.42 2039.73,986.438 2050.16,1007.21 2060.6,1014.16 2071.03,1044.42 2081.47,1005.42 2091.9,986.129 2102.33,976.9 2112.77,932.03 2123.2,997.898 2133.64,988.245 2144.07,990.751 2154.51,933.967 2164.94,1008.53 2175.37,977.135 2185.81,954.736 2196.24,992.222 2206.68,1012.21 2217.11,945.647 2227.54,939.1 2237.98,956.894 2248.41,888.194 2258.85,917.807 2269.28,949.192 2279.72,934.493 2290.15,943.479 "/>
<polyline clip-path="url(#clip312)" style="stroke:#e26f46; stroke-linecap:round; stroke-linejoin:round; stroke-width:4; stroke-opacity:1; fill:none" points="203.301,1426.5 213.735,1439.64 224.17,1433.76 234.604,1421.98 245.038,1429.06 255.472,1419.5 265.907,1422.42 276.341,1438.84 286.775,1418.79 297.209,1431.82 307.643,1427.21 318.078,1445.72 328.512,1424.77 338.946,1391.01 349.38,1418.66 359.815,1424.36 370.249,1373.85 380.683,1423.9 391.117,1429.26 401.552,1434.37 411.986,1415.41 422.42,1421.44 432.854,1416.69 443.289,1413.4 453.723,1425.92 464.157,1413.79 474.591,1387.68 485.026,1413.71 495.46,1421.66 505.894,1394.78 516.328,1424.25 526.763,1412.94 537.197,1383.68 547.631,1423.63 558.065,1434.14 568.5,1403.23 578.934,1393.02 589.368,1415.65 599.802,1400.77 610.237,1387.44 620.671,1396.9 631.105,1397.32 641.539,1402.62 651.974,1388.01 662.408,1405.21 672.842,1362.95 683.276,1372.56 693.711,1391.1 704.145,1399.65 714.579,1367.97 725.013,1390.16 735.448,1388.98 745.882,1357.55 756.316,1362.62 766.75,1382.87 777.185,1390.48 787.619,1361.99 798.053,1376.32 808.487,1353.51 818.922,1397.2 829.356,1391.56 839.79,1358.33 850.224,1391.58 860.659,1369.04 871.093,1374.32 881.527,1390.22 891.961,1377.88 902.396,1343.98 912.83,1371.2 923.264,1351.57 933.698,1354.92 944.133,1360.87 954.567,1348.8 965.001,1354.96 975.435,1342.49 985.87,1341.92 996.304,1309.43 1006.74,1350.11 1017.17,1347.61 1027.61,1325.04 1038.04,1334.08 1048.48,1312.17 1058.91,1299.45 1069.34,1279.32 1079.78,1269.82 1090.21,1275.41 1100.65,1243.27 1111.08,1214.98 1121.51,1216.71 1131.95,1181.85 1142.38,1180.7 1152.82,1153.39 1163.25,1106.27 1173.69,1091.06 1184.12,1065.62 1194.55,1015.45 1204.99,975.433 1215.42,936.452 1225.86,935.797 1236.29,836.282 1246.73,804.188 1257.16,760.704 1267.59,733.045 1278.03,676.052 1288.46,632.209 1298.9,578.426 1309.33,511.819 1319.77,489.947 1330.2,411.559 1340.63,379.919 1351.07,338.398 1361.5,276.552 1371.94,267.83 1382.37,213.015 1392.81,210.211 1403.24,166.673 1413.67,149.481 1424.11,116.89 1434.54,107.635 1444.98,103.726 1455.41,130.487 1465.84,87.9763 1476.28,91.8739 1486.71,108.793 1497.15,132.926 1507.58,148.266 1518.02,170.731 1528.45,223.158 1538.88,249.673 1549.32,269.15 1559.75,321.919 1570.19,361.024 1580.62,440.747 1591.06,455.486 1601.49,539.292 1611.92,560.025 1622.36,587.536 1632.79,647.281 1643.23,695.682 1653.66,712.858 1664.1,802.816 1674.53,804.841 1684.96,873.798 1695.4,908.654 1705.83,933.179 1716.27,978.416 1726.7,1031.6 1737.14,1041.6 1747.57,1052.59 1758,1081.66 1768.44,1129.89 1778.87,1150.96 1789.31,1154.75 1799.74,1164.52 1810.18,1172.89 1820.61,1189.26 1831.04,1205.73 1841.48,1198.06 1851.91,1238.16 1862.35,1271.83 1872.78,1244.19 1883.21,1253.23 1893.65,1233.65 1904.08,1260.36 1914.52,1265.58 1924.95,1267.84 1935.39,1261.62 1945.82,1261.32 1956.25,1305.14 1966.69,1277.54 1977.12,1243.35 1987.56,1290.98 1997.99,1286.12 2008.43,1269.63 2018.86,1293.93 2029.29,1278.65 2039.73,1233.13 2050.16,1219.34 2060.6,1264.26 2071.03,1258.44 2081.47,1276.54 2091.9,1261.47 2102.33,1282.06 2112.77,1266.72 2123.2,1263.07 2133.64,1263.18 2144.07,1258.34 2154.51,1257.81 2164.94,1252.32 2175.37,1247.11 2185.81,1255.62 2196.24,1253.56 2206.68,1281.34 2217.11,1241.18 2227.54,1241.95 2237.98,1241.65 2248.41,1248.6 2258.85,1237.35 2269.28,1231.19 2279.72,1268.31 2290.15,1276.06 "/>
<polyline clip-path="url(#clip312)" style="stroke:#3da44d; stroke-linecap:round; stroke-linejoin:round; stroke-width:4; stroke-opacity:1; fill:none" points="203.301,1429.54 213.735,1427.31 224.17,1425.09 234.604,1422.86 245.038,1420.64 255.472,1418.41 265.907,1416.18 276.341,1413.95 286.775,1411.72 297.209,1409.48 307.643,1407.24 318.078,1405 328.512,1402.75 338.946,1400.5 349.38,1398.24 359.815,1395.98 370.249,1393.7 380.683,1391.42 391.117,1389.12 401.552,1386.81 411.986,1384.5 422.42,1382.16 432.854,1379.82 443.289,1377.46 453.723,1375.09 464.157,1372.7 474.591,1370.3 485.026,1367.89 495.46,1365.46 505.894,1363.03 516.328,1360.58 526.763,1358.11 537.197,1355.64 547.631,1353.15 558.065,1350.66 568.5,1348.15 578.934,1345.63 589.368,1343.1 599.802,1340.56 610.237,1338.01 620.671,1335.46 631.105,1332.89 641.539,1330.32 651.974,1327.74 662.408,1325.16 672.842,1322.57 683.276,1319.98 693.711,1317.39 704.145,1314.8 714.579,1312.21 725.013,1309.62 735.448,1307.04 745.882,1304.45 756.316,1301.87 766.75,1299.29 777.185,1296.71 787.619,1294.14 798.053,1291.58 808.487,1289.01 818.922,1286.45 829.356,1283.9 839.79,1281.36 850.224,1278.81 860.659,1276.28 871.093,1273.75 881.527,1271.23 891.961,1268.71 902.396,1266.2 912.83,1263.69 923.264,1261.19 933.698,1258.69 944.133,1256.2 954.567,1253.71 965.001,1251.23 975.435,1248.75 985.87,1246.28 996.304,1243.81 1006.74,1241.35 1017.17,1238.89 1027.61,1236.43 1038.04,1233.98 1048.48,1231.53 1058.91,1229.09 1069.34,1226.65 1079.78,1224.21 1090.21,1221.77 1100.65,1219.34 1111.08,1216.91 1121.51,1214.49 1131.95,1212.06 1142.38,1209.64 1152.82,1207.22 1163.25,1204.81 1173.69,1202.39 1184.12,1199.98 1194.55,1197.57 1204.99,1195.16 1215.42,1192.75 1225.86,1190.35 1236.29,1187.95 1246.73,1185.54 1257.16,1183.14 1267.59,1180.74 1278.03,1178.34 1288.46,1175.94 1298.9,1173.53 1309.33,1171.13 1319.77,1168.72 1330.2,1166.31 1340.63,1163.9 1351.07,1161.49 1361.5,1159.08 1371.94,1156.67 1382.37,1154.26 1392.81,1151.85 1403.24,1149.43 1413.67,1147.02 1424.11,1144.6 1434.54,1142.19 1444.98,1139.77 1455.41,1137.35 1465.84,1134.93 1476.28,1132.51 1486.71,1130.08 1497.15,1127.66 1507.58,1125.24 1518.02,1122.81 1528.45,1120.38 1538.88,1117.96 1549.32,1115.53 1559.75,1113.1 1570.19,1110.67 1580.62,1108.24 1591.06,1105.82 1601.49,1103.39 1611.92,1100.96 1622.36,1098.53 1632.79,1096.1 1643.23,1093.68 1653.66,1091.25 1664.1,1088.82 1674.53,1086.39 1684.96,1083.97 1695.4,1081.54 1705.83,1079.12 1716.27,1076.69 1726.7,1074.27 1737.14,1071.85 1747.57,1069.43 1758,1067.01 1768.44,1064.59 1778.87,1062.17 1789.31,1059.76 1799.74,1057.34 1810.18,1054.92 1820.61,1052.51 1831.04,1050.1 1841.48,1047.69 1851.91,1045.28 1862.35,1042.87 1872.78,1040.47 1883.21,1038.08 1893.65,1035.69 1904.08,1033.3 1914.52,1030.92 1924.95,1028.54 1935.39,1026.17 1945.82,1023.81 1956.25,1021.45 1966.69,1019.09 1977.12,1016.74 1987.56,1014.39 1997.99,1012.05 2008.43,1009.7 2018.86,1007.36 2029.29,1005.02 2039.73,1002.67 2050.16,1000.33 2060.6,997.983 2071.03,995.633 2081.47,993.279 2091.9,990.922 2102.33,988.561 2112.77,986.197 2123.2,983.828 2133.64,981.456 2144.07,979.08 2154.51,976.7 2164.94,974.315 2175.37,971.927 2185.81,969.534 2196.24,967.138 2206.68,964.739 2217.11,962.336 2227.54,959.93 2237.98,957.523 2248.41,955.115 2258.85,952.706 2269.28,950.297 2279.72,947.887 2290.15,945.478 "/>
<polyline clip-path="url(#clip312)" style="stroke:#c271d2; stroke-linecap:round; stroke-linejoin:round; stroke-width:4; stroke-opacity:1; fill:none" points="203.301,1437.67 213.735,1436.71 224.17,1435.76 234.604,1434.8 245.038,1433.84 255.472,1432.89 265.907,1431.93 276.341,1430.97 286.775,1430.01 297.209,1429.05 307.643,1428.08 318.078,1427.11 328.512,1426.14 338.946,1425.16 349.38,1424.18 359.815,1423.2 370.249,1422.21 380.683,1421.21 391.117,1420.21 401.552,1419.2 411.986,1418.19 422.42,1417.16 432.854,1416.13 443.289,1415.1 453.723,1414.05 464.157,1413 474.591,1411.94 485.026,1410.87 495.46,1409.79 505.894,1408.7 516.328,1407.61 526.763,1406.51 537.197,1405.39 547.631,1404.27 558.065,1403.14 568.5,1402 578.934,1400.85 589.368,1399.7 599.802,1398.53 610.237,1397.36 620.671,1396.18 631.105,1394.99 641.539,1393.8 651.974,1392.6 662.408,1391.39 672.842,1390.18 683.276,1388.96 693.711,1387.74 704.145,1386.52 714.579,1385.29 725.013,1384.05 735.448,1382.82 745.882,1381.58 756.316,1380.34 766.75,1379.09 777.185,1377.84 787.619,1376.59 798.053,1375.34 808.487,1374.09 818.922,1372.83 829.356,1371.57 839.79,1370.31 850.224,1369.04 860.659,1367.78 871.093,1366.51 881.527,1365.24 891.961,1363.97 902.396,1362.71 912.83,1361.44 923.264,1360.17 933.698,1358.91 944.133,1357.65 954.567,1356.4 965.001,1355.15 975.435,1353.9 985.87,1352.66 996.304,1351.43 1006.74,1350.21 1017.17,1348.99 1027.61,1347.78 1038.04,1346.58 1048.48,1345.39 1058.91,1344.2 1069.34,1343.03 1079.78,1341.86 1090.21,1340.7 1100.65,1339.56 1111.08,1338.41 1121.51,1337.28 1131.95,1336.16 1142.38,1335.04 1152.82,1333.93 1163.25,1332.84 1173.69,1331.74 1184.12,1330.66 1194.55,1329.59 1204.99,1328.52 1215.42,1327.46 1225.86,1326.41 1236.29,1325.37 1246.73,1324.33 1257.16,1323.31 1267.59,1322.29 1278.03,1321.28 1288.46,1320.28 1298.9,1319.28 1309.33,1318.29 1319.77,1317.32 1330.2,1316.34 1340.63,1315.38 1351.07,1314.42 1361.5,1313.47 1371.94,1312.53 1382.37,1311.6 1392.81,1310.67 1403.24,1309.75 1413.67,1308.84 1424.11,1307.94 1434.54,1307.04 1444.98,1306.15 1455.41,1305.27 1465.84,1304.39 1476.28,1303.53 1486.71,1302.67 1497.15,1301.81 1507.58,1300.97 1518.02,1300.13 1528.45,1299.29 1538.88,1298.47 1549.32,1297.65 1559.75,1296.84 1570.19,1296.03 1580.62,1295.23 1591.06,1294.44 1601.49,1293.66 1611.92,1292.88 1622.36,1292.11 1632.79,1291.35 1643.23,1290.59 1653.66,1289.84 1664.1,1289.09 1674.53,1288.35 1684.96,1287.62 1695.4,1286.9 1705.83,1286.18 1716.27,1285.46 1726.7,1284.76 1737.14,1284.06 1747.57,1283.36 1758,1282.67 1768.44,1281.99 1778.87,1281.32 1789.31,1280.65 1799.74,1279.98 1810.18,1279.33 1820.61,1278.68 1831.04,1278.03 1841.48,1277.39 1851.91,1276.76 1862.35,1276.13 1872.78,1275.51 1883.21,1274.89 1893.65,1274.28 1904.08,1273.67 1914.52,1273.07 1924.95,1272.47 1935.39,1271.88 1945.82,1271.29 1956.25,1270.7 1966.69,1270.1 1977.12,1269.51 1987.56,1268.92 1997.99,1268.33 2008.43,1267.74 2018.86,1267.14 2029.29,1266.54 2039.73,1265.94 2050.16,1265.34 2060.6,1264.74 2071.03,1264.13 2081.47,1263.52 2091.9,1262.91 2102.33,1262.3 2112.77,1261.68 2123.2,1261.07 2133.64,1260.45 2144.07,1259.83 2154.51,1259.21 2164.94,1258.59 2175.37,1257.97 2185.81,1257.34 2196.24,1256.72 2206.68,1256.1 2217.11,1255.48 2227.54,1254.86 2237.98,1254.24 2248.41,1253.63 2258.85,1253.01 2269.28,1252.39 2279.72,1251.78 2290.15,1251.16 "/>
<path clip-path="url(#clip310)" d="M1740.87 354.418 L2279.02 354.418 L2279.02 95.2176 L1740.87 95.2176  Z" fill="#ffffff" fill-rule="evenodd" fill-opacity="1"/>
<polyline clip-path="url(#clip310)" style="stroke:#000000; stroke-linecap:round; stroke-linejoin:round; stroke-width:4; stroke-opacity:1; fill:none" points="1740.87,354.418 2279.02,354.418 2279.02,95.2176 1740.87,95.2176 1740.87,354.418 "/>
<polyline clip-path="url(#clip310)" style="stroke:#009af9; stroke-linecap:round; stroke-linejoin:round; stroke-width:4; stroke-opacity:1; fill:none" points="1765.45,147.058 1912.92,147.058 "/>
<path clip-path="url(#clip310)" d="M1951.34 166.745 Q1949.54 171.375 1947.82 172.787 Q1946.11 174.199 1943.24 174.199 L1939.84 174.199 L1939.84 170.634 L1942.34 170.634 Q1944.1 170.634 1945.07 169.8 Q1946.04 168.967 1947.22 165.865 L1947.99 163.921 L1937.5 138.412 L1942.01 138.412 L1950.12 158.689 L1958.22 138.412 L1962.73 138.412 L1951.34 166.745 Z" fill="#000000" fill-rule="nonzero" fill-opacity="1" /><path clip-path="url(#clip310)" d="M1970.02 160.402 L1977.66 160.402 L1977.66 134.037 L1969.35 135.703 L1969.35 131.444 L1977.61 129.778 L1982.29 129.778 L1982.29 160.402 L1989.93 160.402 L1989.93 164.338 L1970.02 164.338 L1970.02 160.402 Z" fill="#000000" fill-rule="nonzero" fill-opacity="1" /><polyline clip-path="url(#clip310)" style="stroke:#e26f46; stroke-linecap:round; stroke-linejoin:round; stroke-width:4; stroke-opacity:1; fill:none" points="1765.45,198.898 1912.92,198.898 "/>
<path clip-path="url(#clip310)" d="M1951.34 218.585 Q1949.54 223.215 1947.82 224.627 Q1946.11 226.039 1943.24 226.039 L1939.84 226.039 L1939.84 222.474 L1942.34 222.474 Q1944.1 222.474 1945.07 221.64 Q1946.04 220.807 1947.22 217.705 L1947.99 215.761 L1937.5 190.252 L1942.01 190.252 L1950.12 210.529 L1958.22 190.252 L1962.73 190.252 L1951.34 218.585 Z" fill="#000000" fill-rule="nonzero" fill-opacity="1" /><path clip-path="url(#clip310)" d="M1973.24 212.242 L1989.56 212.242 L1989.56 216.178 L1967.61 216.178 L1967.61 212.242 Q1970.28 209.488 1974.86 204.858 Q1979.47 200.205 1980.65 198.863 Q1982.89 196.34 1983.77 194.604 Q1984.68 192.844 1984.68 191.155 Q1984.68 188.4 1982.73 186.664 Q1980.81 184.928 1977.71 184.928 Q1975.51 184.928 1973.05 185.692 Q1970.62 186.455 1967.85 188.006 L1967.85 183.284 Q1970.67 182.15 1973.12 181.571 Q1975.58 180.993 1977.61 180.993 Q1982.99 180.993 1986.18 183.678 Q1989.37 186.363 1989.37 190.854 Q1989.37 192.983 1988.56 194.905 Q1987.78 196.803 1985.67 199.395 Q1985.09 200.067 1981.99 203.284 Q1978.89 206.479 1973.24 212.242 Z" fill="#000000" fill-rule="nonzero" fill-opacity="1" /><polyline clip-path="url(#clip310)" style="stroke:#3da44d; stroke-linecap:round; stroke-linejoin:round; stroke-width:4; stroke-opacity:1; fill:none" points="1765.45,250.738 1912.92,250.738 "/>
<path clip-path="url(#clip310)" d="M1956.27 255.078 Q1956.27 250.379 1954.33 247.717 Q1952.41 245.032 1949.03 245.032 Q1945.65 245.032 1943.7 247.717 Q1941.78 250.379 1941.78 255.078 Q1941.78 259.777 1943.7 262.462 Q1945.65 265.124 1949.03 265.124 Q1952.41 265.124 1954.33 262.462 Q1956.27 259.777 1956.27 255.078 M1941.78 246.027 Q1943.12 243.712 1945.16 242.601 Q1947.22 241.467 1950.07 241.467 Q1954.79 241.467 1957.73 245.217 Q1960.69 248.967 1960.69 255.078 Q1960.69 261.189 1957.73 264.939 Q1954.79 268.689 1950.07 268.689 Q1947.22 268.689 1945.16 267.578 Q1943.12 266.443 1941.78 264.129 L1941.78 268.018 L1937.5 268.018 L1937.5 231.999 L1941.78 231.999 L1941.78 246.027 Z" fill="#000000" fill-rule="nonzero" fill-opacity="1" /><path clip-path="url(#clip310)" d="M1979.54 254.985 Q1974.37 254.985 1972.38 256.166 Q1970.39 257.346 1970.39 260.194 Q1970.39 262.462 1971.87 263.805 Q1973.38 265.124 1975.95 265.124 Q1979.49 265.124 1981.62 262.624 Q1983.77 260.101 1983.77 255.934 L1983.77 254.985 L1979.54 254.985 M1988.03 253.226 L1988.03 268.018 L1983.77 268.018 L1983.77 264.082 Q1982.31 266.443 1980.14 267.578 Q1977.96 268.689 1974.81 268.689 Q1970.83 268.689 1968.47 266.467 Q1966.13 264.221 1966.13 260.471 Q1966.13 256.096 1969.05 253.874 Q1971.99 251.652 1977.8 251.652 L1983.77 251.652 L1983.77 251.235 Q1983.77 248.295 1981.83 246.698 Q1979.91 245.078 1976.41 245.078 Q1974.19 245.078 1972.08 245.61 Q1969.98 246.143 1968.03 247.207 L1968.03 243.272 Q1970.37 242.37 1972.57 241.93 Q1974.77 241.467 1976.85 241.467 Q1982.48 241.467 1985.25 244.383 Q1988.03 247.3 1988.03 253.226 Z" fill="#000000" fill-rule="nonzero" fill-opacity="1" /><path clip-path="url(#clip310)" d="M2015.46 243.087 L2015.46 247.069 Q2013.66 246.073 2011.83 245.587 Q2010.02 245.078 2008.17 245.078 Q2004.03 245.078 2001.74 247.717 Q1999.44 250.332 1999.44 255.078 Q1999.44 259.823 2001.74 262.462 Q2004.03 265.078 2008.17 265.078 Q2010.02 265.078 2011.83 264.592 Q2013.66 264.082 2015.46 263.087 L2015.46 267.022 Q2013.68 267.856 2011.76 268.272 Q2009.86 268.689 2007.71 268.689 Q2001.85 268.689 1998.4 265.008 Q1994.95 261.328 1994.95 255.078 Q1994.95 248.735 1998.42 245.101 Q2001.92 241.467 2007.99 241.467 Q2009.95 241.467 2011.83 241.883 Q2013.7 242.277 2015.46 243.087 Z" fill="#000000" fill-rule="nonzero" fill-opacity="1" /><path clip-path="url(#clip310)" d="M2022.71 231.999 L2026.99 231.999 L2026.99 253.272 L2039.7 242.092 L2045.14 242.092 L2031.39 254.221 L2045.72 268.018 L2040.16 268.018 L2026.99 255.356 L2026.99 268.018 L2022.71 268.018 L2022.71 231.999 Z" fill="#000000" fill-rule="nonzero" fill-opacity="1" /><path clip-path="url(#clip310)" d="M2067.38 254.754 Q2067.38 250.124 2065.46 247.578 Q2063.56 245.032 2060.11 245.032 Q2056.69 245.032 2054.77 247.578 Q2052.87 250.124 2052.87 254.754 Q2052.87 259.36 2054.77 261.906 Q2056.69 264.453 2060.11 264.453 Q2063.56 264.453 2065.46 261.906 Q2067.38 259.36 2067.38 254.754 M2071.64 264.8 Q2071.64 271.42 2068.7 274.638 Q2065.76 277.879 2059.7 277.879 Q2057.45 277.879 2055.46 277.531 Q2053.47 277.207 2051.6 276.513 L2051.6 272.369 Q2053.47 273.388 2055.3 273.874 Q2057.13 274.36 2059.03 274.36 Q2063.22 274.36 2065.3 272.161 Q2067.38 269.985 2067.38 265.564 L2067.38 263.457 Q2066.06 265.749 2064 266.883 Q2061.94 268.018 2059.07 268.018 Q2054.3 268.018 2051.39 264.383 Q2048.47 260.749 2048.47 254.754 Q2048.47 248.735 2051.39 245.101 Q2054.3 241.467 2059.07 241.467 Q2061.94 241.467 2064 242.601 Q2066.06 243.735 2067.38 246.027 L2067.38 242.092 L2071.64 242.092 L2071.64 264.8 Z" fill="#000000" fill-rule="nonzero" fill-opacity="1" /><path clip-path="url(#clip310)" d="M2095.44 246.073 Q2094.72 245.657 2093.86 245.471 Q2093.03 245.263 2092.01 245.263 Q2088.4 245.263 2086.46 247.624 Q2084.54 249.962 2084.54 254.36 L2084.54 268.018 L2080.25 268.018 L2080.25 242.092 L2084.54 242.092 L2084.54 246.12 Q2085.88 243.758 2088.03 242.624 Q2090.18 241.467 2093.26 241.467 Q2093.7 241.467 2094.23 241.536 Q2094.77 241.583 2095.42 241.698 L2095.44 246.073 Z" fill="#000000" fill-rule="nonzero" fill-opacity="1" /><path clip-path="url(#clip310)" d="M2108.91 245.078 Q2105.48 245.078 2103.49 247.763 Q2101.5 250.425 2101.5 255.078 Q2101.5 259.731 2103.47 262.416 Q2105.46 265.078 2108.91 265.078 Q2112.31 265.078 2114.3 262.393 Q2116.29 259.707 2116.29 255.078 Q2116.29 250.471 2114.3 247.786 Q2112.31 245.078 2108.91 245.078 M2108.91 241.467 Q2114.47 241.467 2117.64 245.078 Q2120.81 248.689 2120.81 255.078 Q2120.81 261.444 2117.64 265.078 Q2114.47 268.689 2108.91 268.689 Q2103.33 268.689 2100.16 265.078 Q2097.01 261.444 2097.01 255.078 Q2097.01 248.689 2100.16 245.078 Q2103.33 241.467 2108.91 241.467 Z" fill="#000000" fill-rule="nonzero" fill-opacity="1" /><path clip-path="url(#clip310)" d="M2127.43 257.786 L2127.43 242.092 L2131.69 242.092 L2131.69 257.624 Q2131.69 261.305 2133.12 263.156 Q2134.56 264.985 2137.43 264.985 Q2140.88 264.985 2142.87 262.786 Q2144.88 260.587 2144.88 256.791 L2144.88 242.092 L2149.14 242.092 L2149.14 268.018 L2144.88 268.018 L2144.88 264.036 Q2143.33 266.397 2141.27 267.555 Q2139.23 268.689 2136.53 268.689 Q2132.06 268.689 2129.74 265.911 Q2127.43 263.133 2127.43 257.786 M2138.15 241.467 L2138.15 241.467 Z" fill="#000000" fill-rule="nonzero" fill-opacity="1" /><path clip-path="url(#clip310)" d="M2179.47 252.369 L2179.47 268.018 L2175.21 268.018 L2175.21 252.508 Q2175.21 248.828 2173.77 246.999 Q2172.34 245.17 2169.47 245.17 Q2166.02 245.17 2164.03 247.37 Q2162.04 249.569 2162.04 253.365 L2162.04 268.018 L2157.75 268.018 L2157.75 242.092 L2162.04 242.092 L2162.04 246.12 Q2163.56 243.782 2165.62 242.624 Q2167.71 241.467 2170.41 241.467 Q2174.88 241.467 2177.17 244.245 Q2179.47 246.999 2179.47 252.369 Z" fill="#000000" fill-rule="nonzero" fill-opacity="1" /><path clip-path="url(#clip310)" d="M2205.02 246.027 L2205.02 231.999 L2209.28 231.999 L2209.28 268.018 L2205.02 268.018 L2205.02 264.129 Q2203.68 266.443 2201.62 267.578 Q2199.58 268.689 2196.71 268.689 Q2192.01 268.689 2189.05 264.939 Q2186.11 261.189 2186.11 255.078 Q2186.11 248.967 2189.05 245.217 Q2192.01 241.467 2196.71 241.467 Q2199.58 241.467 2201.62 242.601 Q2203.68 243.712 2205.02 246.027 M2190.51 255.078 Q2190.51 259.777 2192.43 262.462 Q2194.37 265.124 2197.75 265.124 Q2201.13 265.124 2203.08 262.462 Q2205.02 259.777 2205.02 255.078 Q2205.02 250.379 2203.08 247.717 Q2201.13 245.032 2197.75 245.032 Q2194.37 245.032 2192.43 247.717 Q2190.51 250.379 2190.51 255.078 Z" fill="#000000" fill-rule="nonzero" fill-opacity="1" /><path clip-path="url(#clip310)" d="M2234.53 264.082 L2242.17 264.082 L2242.17 237.717 L2233.86 239.383 L2233.86 235.124 L2242.13 233.458 L2246.8 233.458 L2246.8 264.082 L2254.44 264.082 L2254.44 268.018 L2234.53 268.018 L2234.53 264.082 Z" fill="#000000" fill-rule="nonzero" fill-opacity="1" /><polyline clip-path="url(#clip310)" style="stroke:#c271d2; stroke-linecap:round; stroke-linejoin:round; stroke-width:4; stroke-opacity:1; fill:none" points="1765.45,302.578 1912.92,302.578 "/>
<path clip-path="url(#clip310)" d="M1956.27 306.918 Q1956.27 302.219 1954.33 299.557 Q1952.41 296.872 1949.03 296.872 Q1945.65 296.872 1943.7 299.557 Q1941.78 302.219 1941.78 306.918 Q1941.78 311.617 1943.7 314.302 Q1945.65 316.964 1949.03 316.964 Q1952.41 316.964 1954.33 314.302 Q1956.27 311.617 1956.27 306.918 M1941.78 297.867 Q1943.12 295.552 1945.16 294.441 Q1947.22 293.307 1950.07 293.307 Q1954.79 293.307 1957.73 297.057 Q1960.69 300.807 1960.69 306.918 Q1960.69 313.029 1957.73 316.779 Q1954.79 320.529 1950.07 320.529 Q1947.22 320.529 1945.16 319.418 Q1943.12 318.283 1941.78 315.969 L1941.78 319.858 L1937.5 319.858 L1937.5 283.839 L1941.78 283.839 L1941.78 297.867 Z" fill="#000000" fill-rule="nonzero" fill-opacity="1" /><path clip-path="url(#clip310)" d="M1979.54 306.825 Q1974.37 306.825 1972.38 308.006 Q1970.39 309.186 1970.39 312.034 Q1970.39 314.302 1971.87 315.645 Q1973.38 316.964 1975.95 316.964 Q1979.49 316.964 1981.62 314.464 Q1983.77 311.941 1983.77 307.774 L1983.77 306.825 L1979.54 306.825 M1988.03 305.066 L1988.03 319.858 L1983.77 319.858 L1983.77 315.922 Q1982.31 318.283 1980.14 319.418 Q1977.96 320.529 1974.81 320.529 Q1970.83 320.529 1968.47 318.307 Q1966.13 316.061 1966.13 312.311 Q1966.13 307.936 1969.05 305.714 Q1971.99 303.492 1977.8 303.492 L1983.77 303.492 L1983.77 303.075 Q1983.77 300.135 1981.83 298.538 Q1979.91 296.918 1976.41 296.918 Q1974.19 296.918 1972.08 297.45 Q1969.98 297.983 1968.03 299.047 L1968.03 295.112 Q1970.37 294.21 1972.57 293.77 Q1974.77 293.307 1976.85 293.307 Q1982.48 293.307 1985.25 296.223 Q1988.03 299.14 1988.03 305.066 Z" fill="#000000" fill-rule="nonzero" fill-opacity="1" /><path clip-path="url(#clip310)" d="M2015.46 294.927 L2015.46 298.909 Q2013.66 297.913 2011.83 297.427 Q2010.02 296.918 2008.17 296.918 Q2004.03 296.918 2001.74 299.557 Q1999.44 302.172 1999.44 306.918 Q1999.44 311.663 2001.74 314.302 Q2004.03 316.918 2008.17 316.918 Q2010.02 316.918 2011.83 316.432 Q2013.66 315.922 2015.46 314.927 L2015.46 318.862 Q2013.68 319.696 2011.76 320.112 Q2009.86 320.529 2007.71 320.529 Q2001.85 320.529 1998.4 316.848 Q1994.95 313.168 1994.95 306.918 Q1994.95 300.575 1998.42 296.941 Q2001.92 293.307 2007.99 293.307 Q2009.95 293.307 2011.83 293.723 Q2013.7 294.117 2015.46 294.927 Z" fill="#000000" fill-rule="nonzero" fill-opacity="1" /><path clip-path="url(#clip310)" d="M2022.71 283.839 L2026.99 283.839 L2026.99 305.112 L2039.7 293.932 L2045.14 293.932 L2031.39 306.061 L2045.72 319.858 L2040.16 319.858 L2026.99 307.196 L2026.99 319.858 L2022.71 319.858 L2022.71 283.839 Z" fill="#000000" fill-rule="nonzero" fill-opacity="1" /><path clip-path="url(#clip310)" d="M2067.38 306.594 Q2067.38 301.964 2065.46 299.418 Q2063.56 296.872 2060.11 296.872 Q2056.69 296.872 2054.77 299.418 Q2052.87 301.964 2052.87 306.594 Q2052.87 311.2 2054.77 313.746 Q2056.69 316.293 2060.11 316.293 Q2063.56 316.293 2065.46 313.746 Q2067.38 311.2 2067.38 306.594 M2071.64 316.64 Q2071.64 323.26 2068.7 326.478 Q2065.76 329.719 2059.7 329.719 Q2057.45 329.719 2055.46 329.371 Q2053.47 329.047 2051.6 328.353 L2051.6 324.209 Q2053.47 325.228 2055.3 325.714 Q2057.13 326.2 2059.03 326.2 Q2063.22 326.2 2065.3 324.001 Q2067.38 321.825 2067.38 317.404 L2067.38 315.297 Q2066.06 317.589 2064 318.723 Q2061.94 319.858 2059.07 319.858 Q2054.3 319.858 2051.39 316.223 Q2048.47 312.589 2048.47 306.594 Q2048.47 300.575 2051.39 296.941 Q2054.3 293.307 2059.07 293.307 Q2061.94 293.307 2064 294.441 Q2066.06 295.575 2067.38 297.867 L2067.38 293.932 L2071.64 293.932 L2071.64 316.64 Z" fill="#000000" fill-rule="nonzero" fill-opacity="1" /><path clip-path="url(#clip310)" d="M2095.44 297.913 Q2094.72 297.497 2093.86 297.311 Q2093.03 297.103 2092.01 297.103 Q2088.4 297.103 2086.46 299.464 Q2084.54 301.802 2084.54 306.2 L2084.54 319.858 L2080.25 319.858 L2080.25 293.932 L2084.54 293.932 L2084.54 297.96 Q2085.88 295.598 2088.03 294.464 Q2090.18 293.307 2093.26 293.307 Q2093.7 293.307 2094.23 293.376 Q2094.77 293.423 2095.42 293.538 L2095.44 297.913 Z" fill="#000000" fill-rule="nonzero" fill-opacity="1" /><path clip-path="url(#clip310)" d="M2108.91 296.918 Q2105.48 296.918 2103.49 299.603 Q2101.5 302.265 2101.5 306.918 Q2101.5 311.571 2103.47 314.256 Q2105.46 316.918 2108.91 316.918 Q2112.31 316.918 2114.3 314.233 Q2116.29 311.547 2116.29 306.918 Q2116.29 302.311 2114.3 299.626 Q2112.31 296.918 2108.91 296.918 M2108.91 293.307 Q2114.47 293.307 2117.64 296.918 Q2120.81 300.529 2120.81 306.918 Q2120.81 313.284 2117.64 316.918 Q2114.47 320.529 2108.91 320.529 Q2103.33 320.529 2100.16 316.918 Q2097.01 313.284 2097.01 306.918 Q2097.01 300.529 2100.16 296.918 Q2103.33 293.307 2108.91 293.307 Z" fill="#000000" fill-rule="nonzero" fill-opacity="1" /><path clip-path="url(#clip310)" d="M2127.43 309.626 L2127.43 293.932 L2131.69 293.932 L2131.69 309.464 Q2131.69 313.145 2133.12 314.996 Q2134.56 316.825 2137.43 316.825 Q2140.88 316.825 2142.87 314.626 Q2144.88 312.427 2144.88 308.631 L2144.88 293.932 L2149.14 293.932 L2149.14 319.858 L2144.88 319.858 L2144.88 315.876 Q2143.33 318.237 2141.27 319.395 Q2139.23 320.529 2136.53 320.529 Q2132.06 320.529 2129.74 317.751 Q2127.43 314.973 2127.43 309.626 M2138.15 293.307 L2138.15 293.307 Z" fill="#000000" fill-rule="nonzero" fill-opacity="1" /><path clip-path="url(#clip310)" d="M2179.47 304.209 L2179.47 319.858 L2175.21 319.858 L2175.21 304.348 Q2175.21 300.668 2173.77 298.839 Q2172.34 297.01 2169.47 297.01 Q2166.02 297.01 2164.03 299.21 Q2162.04 301.409 2162.04 305.205 L2162.04 319.858 L2157.75 319.858 L2157.75 293.932 L2162.04 293.932 L2162.04 297.96 Q2163.56 295.622 2165.62 294.464 Q2167.71 293.307 2170.41 293.307 Q2174.88 293.307 2177.17 296.085 Q2179.47 298.839 2179.47 304.209 Z" fill="#000000" fill-rule="nonzero" fill-opacity="1" /><path clip-path="url(#clip310)" d="M2205.02 297.867 L2205.02 283.839 L2209.28 283.839 L2209.28 319.858 L2205.02 319.858 L2205.02 315.969 Q2203.68 318.283 2201.62 319.418 Q2199.58 320.529 2196.71 320.529 Q2192.01 320.529 2189.05 316.779 Q2186.11 313.029 2186.11 306.918 Q2186.11 300.807 2189.05 297.057 Q2192.01 293.307 2196.71 293.307 Q2199.58 293.307 2201.62 294.441 Q2203.68 295.552 2205.02 297.867 M2190.51 306.918 Q2190.51 311.617 2192.43 314.302 Q2194.37 316.964 2197.75 316.964 Q2201.13 316.964 2203.08 314.302 Q2205.02 311.617 2205.02 306.918 Q2205.02 302.219 2203.08 299.557 Q2201.13 296.872 2197.75 296.872 Q2194.37 296.872 2192.43 299.557 Q2190.51 302.219 2190.51 306.918 Z" fill="#000000" fill-rule="nonzero" fill-opacity="1" /><path clip-path="url(#clip310)" d="M2237.75 315.922 L2254.07 315.922 L2254.07 319.858 L2232.13 319.858 L2232.13 315.922 Q2234.79 313.168 2239.37 308.538 Q2243.98 303.885 2245.16 302.543 Q2247.41 300.02 2248.28 298.284 Q2249.19 296.524 2249.19 294.835 Q2249.19 292.08 2247.24 290.344 Q2245.32 288.608 2242.22 288.608 Q2240.02 288.608 2237.57 289.372 Q2235.14 290.135 2232.36 291.686 L2232.36 286.964 Q2235.18 285.83 2237.64 285.251 Q2240.09 284.673 2242.13 284.673 Q2247.5 284.673 2250.69 287.358 Q2253.89 290.043 2253.89 294.534 Q2253.89 296.663 2253.08 298.585 Q2252.29 300.483 2250.18 303.075 Q2249.6 303.747 2246.5 306.964 Q2243.4 310.159 2237.75 315.922 Z" fill="#000000" fill-rule="nonzero" fill-opacity="1" /></svg>
