<?xml version="1.0" encoding="utf-8"?>
<svg xmlns="http://www.w3.org/2000/svg" xmlns:xlink="http://www.w3.org/1999/xlink" width="600" height="400" viewBox="0 0 2400 1600">
<defs>
  <clipPath id="clip370">
    <rect x="0" y="0" width="2400" height="1600"/>
  </clipPath>
</defs>
<path clip-path="url(#clip370)" d="M0 1600 L2400 1600 L2400 0 L0 0  Z" fill="#ffffff" fill-rule="evenodd" fill-opacity="1"/>
<defs>
  <clipPath id="clip371">
    <rect x="480" y="0" width="1681" height="1600"/>
  </clipPath>
</defs>
<path clip-path="url(#clip370)" d="M184.191 1486.45 L2352.76 1486.45 L2352.76 47.2441 L184.191 47.2441  Z" fill="#ffffff" fill-rule="evenodd" fill-opacity="1"/>
<defs>
  <clipPath id="clip372">
    <rect x="184" y="47" width="2170" height="1440"/>
  </clipPath>
</defs>
<polyline clip-path="url(#clip372)" style="stroke:#000000; stroke-linecap:round; stroke-linejoin:round; stroke-width:2; stroke-opacity:0.1; fill:none" points="245.565,1486.45 245.565,47.2441 "/>
<polyline clip-path="url(#clip372)" style="stroke:#000000; stroke-linecap:round; stroke-linejoin:round; stroke-width:2; stroke-opacity:0.1; fill:none" points="757.019,1486.45 757.019,47.2441 "/>
<polyline clip-path="url(#clip372)" style="stroke:#000000; stroke-linecap:round; stroke-linejoin:round; stroke-width:2; stroke-opacity:0.1; fill:none" points="1268.47,1486.45 1268.47,47.2441 "/>
<polyline clip-path="url(#clip372)" style="stroke:#000000; stroke-linecap:round; stroke-linejoin:round; stroke-width:2; stroke-opacity:0.1; fill:none" points="1779.93,1486.45 1779.93,47.2441 "/>
<polyline clip-path="url(#clip372)" style="stroke:#000000; stroke-linecap:round; stroke-linejoin:round; stroke-width:2; stroke-opacity:0.1; fill:none" points="2291.38,1486.45 2291.38,47.2441 "/>
<polyline clip-path="url(#clip372)" style="stroke:#000000; stroke-linecap:round; stroke-linejoin:round; stroke-width:2; stroke-opacity:0.1; fill:none" points="184.191,1425.25 2352.76,1425.25 "/>
<polyline clip-path="url(#clip372)" style="stroke:#000000; stroke-linecap:round; stroke-linejoin:round; stroke-width:2; stroke-opacity:0.1; fill:none" points="184.191,1085.66 2352.76,1085.66 "/>
<polyline clip-path="url(#clip372)" style="stroke:#000000; stroke-linecap:round; stroke-linejoin:round; stroke-width:2; stroke-opacity:0.1; fill:none" points="184.191,746.06 2352.76,746.06 "/>
<polyline clip-path="url(#clip372)" style="stroke:#000000; stroke-linecap:round; stroke-linejoin:round; stroke-width:2; stroke-opacity:0.1; fill:none" points="184.191,406.463 2352.76,406.463 "/>
<polyline clip-path="url(#clip372)" style="stroke:#000000; stroke-linecap:round; stroke-linejoin:round; stroke-width:2; stroke-opacity:0.1; fill:none" points="184.191,66.8656 2352.76,66.8656 "/>
<polyline clip-path="url(#clip370)" style="stroke:#000000; stroke-linecap:round; stroke-linejoin:round; stroke-width:4; stroke-opacity:1; fill:none" points="184.191,1486.45 2352.76,1486.45 "/>
<polyline clip-path="url(#clip370)" style="stroke:#000000; stroke-linecap:round; stroke-linejoin:round; stroke-width:4; stroke-opacity:1; fill:none" points="245.565,1486.45 245.565,1467.55 "/>
<polyline clip-path="url(#clip370)" style="stroke:#000000; stroke-linecap:round; stroke-linejoin:round; stroke-width:4; stroke-opacity:1; fill:none" points="757.019,1486.45 757.019,1467.55 "/>
<polyline clip-path="url(#clip370)" style="stroke:#000000; stroke-linecap:round; stroke-linejoin:round; stroke-width:4; stroke-opacity:1; fill:none" points="1268.47,1486.45 1268.47,1467.55 "/>
<polyline clip-path="url(#clip370)" style="stroke:#000000; stroke-linecap:round; stroke-linejoin:round; stroke-width:4; stroke-opacity:1; fill:none" points="1779.93,1486.45 1779.93,1467.55 "/>
<polyline clip-path="url(#clip370)" style="stroke:#000000; stroke-linecap:round; stroke-linejoin:round; stroke-width:4; stroke-opacity:1; fill:none" points="2291.38,1486.45 2291.38,1467.55 "/>
<path clip-path="url(#clip370)" d="M245.565 1517.37 Q241.954 1517.37 240.125 1520.93 Q238.32 1524.47 238.32 1531.6 Q238.32 1538.71 240.125 1542.27 Q241.954 1545.82 245.565 1545.82 Q249.199 1545.82 251.005 1542.27 Q252.834 1538.71 252.834 1531.6 Q252.834 1524.47 251.005 1520.93 Q249.199 1517.37 245.565 1517.37 M245.565 1513.66 Q251.375 1513.66 254.431 1518.27 Q257.51 1522.85 257.51 1531.6 Q257.51 1540.33 254.431 1544.94 Q251.375 1549.52 245.565 1549.52 Q239.755 1549.52 236.676 1544.94 Q233.621 1540.33 233.621 1531.6 Q233.621 1522.85 236.676 1518.27 Q239.755 1513.66 245.565 1513.66 Z" fill="#000000" fill-rule="nonzero" fill-opacity="1" /><path clip-path="url(#clip370)" d="M736.29 1544.91 L752.61 1544.91 L752.61 1548.85 L730.665 1548.85 L730.665 1544.91 Q733.327 1542.16 737.911 1537.53 Q742.517 1532.88 743.698 1531.53 Q745.943 1529.01 746.823 1527.27 Q747.725 1525.51 747.725 1523.82 Q747.725 1521.07 745.781 1519.33 Q743.86 1517.6 740.758 1517.6 Q738.559 1517.6 736.105 1518.36 Q733.674 1519.13 730.897 1520.68 L730.897 1515.95 Q733.721 1514.82 736.174 1514.24 Q738.628 1513.66 740.665 1513.66 Q746.035 1513.66 749.23 1516.35 Q752.424 1519.03 752.424 1523.52 Q752.424 1525.65 751.614 1527.57 Q750.827 1529.47 748.721 1532.07 Q748.142 1532.74 745.04 1535.95 Q741.938 1539.15 736.29 1544.91 Z" fill="#000000" fill-rule="nonzero" fill-opacity="1" /><path clip-path="url(#clip370)" d="M762.471 1514.29 L780.827 1514.29 L780.827 1518.22 L766.753 1518.22 L766.753 1526.7 Q767.771 1526.35 768.79 1526.19 Q769.809 1526 770.827 1526 Q776.614 1526 779.994 1529.17 Q783.373 1532.34 783.373 1537.76 Q783.373 1543.34 779.901 1546.44 Q776.429 1549.52 770.109 1549.52 Q767.934 1549.52 765.665 1549.15 Q763.42 1548.78 761.012 1548.04 L761.012 1543.34 Q763.096 1544.47 765.318 1545.03 Q767.54 1545.58 770.017 1545.58 Q774.021 1545.58 776.359 1543.48 Q778.697 1541.37 778.697 1537.76 Q778.697 1534.15 776.359 1532.04 Q774.021 1529.94 770.017 1529.94 Q768.142 1529.94 766.267 1530.35 Q764.415 1530.77 762.471 1531.65 L762.471 1514.29 Z" fill="#000000" fill-rule="nonzero" fill-opacity="1" /><path clip-path="url(#clip370)" d="M1243.17 1514.29 L1261.53 1514.29 L1261.53 1518.22 L1247.45 1518.22 L1247.45 1526.7 Q1248.47 1526.35 1249.49 1526.19 Q1250.51 1526 1251.53 1526 Q1257.32 1526 1260.7 1529.17 Q1264.08 1532.34 1264.08 1537.76 Q1264.08 1543.34 1260.6 1546.44 Q1257.13 1549.52 1250.81 1549.52 Q1248.64 1549.52 1246.37 1549.15 Q1244.12 1548.78 1241.71 1548.04 L1241.71 1543.34 Q1243.8 1544.47 1246.02 1545.03 Q1248.24 1545.58 1250.72 1545.58 Q1254.72 1545.58 1257.06 1543.48 Q1259.4 1541.37 1259.4 1537.76 Q1259.4 1534.15 1257.06 1532.04 Q1254.72 1529.94 1250.72 1529.94 Q1248.84 1529.94 1246.97 1530.35 Q1245.12 1530.77 1243.17 1531.65 L1243.17 1514.29 Z" fill="#000000" fill-rule="nonzero" fill-opacity="1" /><path clip-path="url(#clip370)" d="M1283.29 1517.37 Q1279.68 1517.37 1277.85 1520.93 Q1276.04 1524.47 1276.04 1531.6 Q1276.04 1538.71 1277.85 1542.27 Q1279.68 1545.82 1283.29 1545.82 Q1286.92 1545.82 1288.73 1542.27 Q1290.56 1538.71 1290.56 1531.6 Q1290.56 1524.47 1288.73 1520.93 Q1286.92 1517.37 1283.29 1517.37 M1283.29 1513.66 Q1289.1 1513.66 1292.15 1518.27 Q1295.23 1522.85 1295.23 1531.6 Q1295.23 1540.33 1292.15 1544.94 Q1289.1 1549.52 1283.29 1549.52 Q1277.48 1549.52 1274.4 1544.94 Q1271.34 1540.33 1271.34 1531.6 Q1271.34 1522.85 1274.4 1518.27 Q1277.48 1513.66 1283.29 1513.66 Z" fill="#000000" fill-rule="nonzero" fill-opacity="1" /><path clip-path="url(#clip370)" d="M1753.78 1514.29 L1776 1514.29 L1776 1516.28 L1763.46 1548.85 L1758.57 1548.85 L1770.38 1518.22 L1753.78 1518.22 L1753.78 1514.29 Z" fill="#000000" fill-rule="nonzero" fill-opacity="1" /><path clip-path="url(#clip370)" d="M1785.17 1514.29 L1803.53 1514.29 L1803.53 1518.22 L1789.45 1518.22 L1789.45 1526.7 Q1790.47 1526.35 1791.49 1526.19 Q1792.51 1526 1793.53 1526 Q1799.31 1526 1802.69 1529.17 Q1806.07 1532.34 1806.07 1537.76 Q1806.07 1543.34 1802.6 1546.44 Q1799.13 1549.52 1792.81 1549.52 Q1790.63 1549.52 1788.36 1549.15 Q1786.12 1548.78 1783.71 1548.04 L1783.71 1543.34 Q1785.8 1544.47 1788.02 1545.03 Q1790.24 1545.58 1792.72 1545.58 Q1796.72 1545.58 1799.06 1543.48 Q1801.4 1541.37 1801.4 1537.76 Q1801.4 1534.15 1799.06 1532.04 Q1796.72 1529.94 1792.72 1529.94 Q1790.84 1529.94 1788.97 1530.35 Q1787.11 1530.77 1785.17 1531.65 L1785.17 1514.29 Z" fill="#000000" fill-rule="nonzero" fill-opacity="1" /><path clip-path="url(#clip370)" d="M2250.99 1544.91 L2258.63 1544.91 L2258.63 1518.55 L2250.32 1520.21 L2250.32 1515.95 L2258.58 1514.29 L2263.26 1514.29 L2263.26 1544.91 L2270.9 1544.91 L2270.9 1548.85 L2250.99 1548.85 L2250.99 1544.91 Z" fill="#000000" fill-rule="nonzero" fill-opacity="1" /><path clip-path="url(#clip370)" d="M2290.34 1517.37 Q2286.73 1517.37 2284.9 1520.93 Q2283.09 1524.47 2283.09 1531.6 Q2283.09 1538.71 2284.9 1542.27 Q2286.73 1545.82 2290.34 1545.82 Q2293.97 1545.82 2295.78 1542.27 Q2297.61 1538.71 2297.61 1531.6 Q2297.61 1524.47 2295.78 1520.93 Q2293.97 1517.37 2290.34 1517.37 M2290.34 1513.66 Q2296.15 1513.66 2299.21 1518.27 Q2302.28 1522.85 2302.28 1531.6 Q2302.28 1540.33 2299.21 1544.94 Q2296.15 1549.52 2290.34 1549.52 Q2284.53 1549.52 2281.45 1544.94 Q2278.4 1540.33 2278.4 1531.6 Q2278.4 1522.85 2281.45 1518.27 Q2284.53 1513.66 2290.34 1513.66 Z" fill="#000000" fill-rule="nonzero" fill-opacity="1" /><path clip-path="url(#clip370)" d="M2320.5 1517.37 Q2316.89 1517.37 2315.06 1520.93 Q2313.26 1524.47 2313.26 1531.6 Q2313.26 1538.71 2315.06 1542.27 Q2316.89 1545.82 2320.5 1545.82 Q2324.14 1545.82 2325.94 1542.27 Q2327.77 1538.71 2327.77 1531.6 Q2327.77 1524.47 2325.94 1520.93 Q2324.14 1517.37 2320.5 1517.37 M2320.5 1513.66 Q2326.31 1513.66 2329.37 1518.27 Q2332.45 1522.85 2332.45 1531.6 Q2332.45 1540.33 2329.37 1544.94 Q2326.31 1549.52 2320.5 1549.52 Q2314.69 1549.52 2311.61 1544.94 Q2308.56 1540.33 2308.56 1531.6 Q2308.56 1522.85 2311.61 1518.27 Q2314.69 1513.66 2320.5 1513.66 Z" fill="#000000" fill-rule="nonzero" fill-opacity="1" /><polyline clip-path="url(#clip370)" style="stroke:#000000; stroke-linecap:round; stroke-linejoin:round; stroke-width:4; stroke-opacity:1; fill:none" points="184.191,1486.45 184.191,47.2441 "/>
<polyline clip-path="url(#clip370)" style="stroke:#000000; stroke-linecap:round; stroke-linejoin:round; stroke-width:4; stroke-opacity:1; fill:none" points="184.191,1425.25 203.088,1425.25 "/>
<polyline clip-path="url(#clip370)" style="stroke:#000000; stroke-linecap:round; stroke-linejoin:round; stroke-width:4; stroke-opacity:1; fill:none" points="184.191,1085.66 203.088,1085.66 "/>
<polyline clip-path="url(#clip370)" style="stroke:#000000; stroke-linecap:round; stroke-linejoin:round; stroke-width:4; stroke-opacity:1; fill:none" points="184.191,746.06 203.088,746.06 "/>
<polyline clip-path="url(#clip370)" style="stroke:#000000; stroke-linecap:round; stroke-linejoin:round; stroke-width:4; stroke-opacity:1; fill:none" points="184.191,406.463 203.088,406.463 "/>
<polyline clip-path="url(#clip370)" style="stroke:#000000; stroke-linecap:round; stroke-linejoin:round; stroke-width:4; stroke-opacity:1; fill:none" points="184.191,66.8656 203.088,66.8656 "/>
<path clip-path="url(#clip370)" d="M91.0151 1411.05 Q87.404 1411.05 85.5753 1414.62 Q83.7697 1418.16 83.7697 1425.29 Q83.7697 1432.4 85.5753 1435.96 Q87.404 1439.5 91.0151 1439.5 Q94.6493 1439.5 96.4548 1435.96 Q98.2835 1432.4 98.2835 1425.29 Q98.2835 1418.16 96.4548 1414.62 Q94.6493 1411.05 91.0151 1411.05 M91.0151 1407.35 Q96.8252 1407.35 99.8808 1411.96 Q102.959 1416.54 102.959 1425.29 Q102.959 1434.02 99.8808 1438.62 Q96.8252 1443.21 91.0151 1443.21 Q85.2049 1443.21 82.1262 1438.62 Q79.0707 1434.02 79.0707 1425.29 Q79.0707 1416.54 82.1262 1411.96 Q85.2049 1407.35 91.0151 1407.35 Z" fill="#000000" fill-rule="nonzero" fill-opacity="1" /><path clip-path="url(#clip370)" d="M111.177 1436.65 L116.061 1436.65 L116.061 1442.53 L111.177 1442.53 L111.177 1436.65 Z" fill="#000000" fill-rule="nonzero" fill-opacity="1" /><path clip-path="url(#clip370)" d="M136.246 1411.05 Q132.635 1411.05 130.807 1414.62 Q129.001 1418.16 129.001 1425.29 Q129.001 1432.4 130.807 1435.96 Q132.635 1439.5 136.246 1439.5 Q139.881 1439.5 141.686 1435.96 Q143.515 1432.4 143.515 1425.29 Q143.515 1418.16 141.686 1414.62 Q139.881 1411.05 136.246 1411.05 M136.246 1407.35 Q142.056 1407.35 145.112 1411.96 Q148.191 1416.54 148.191 1425.29 Q148.191 1434.02 145.112 1438.62 Q142.056 1443.21 136.246 1443.21 Q130.436 1443.21 127.357 1438.62 Q124.302 1434.02 124.302 1425.29 Q124.302 1416.54 127.357 1411.96 Q130.436 1407.35 136.246 1407.35 Z" fill="#000000" fill-rule="nonzero" fill-opacity="1" /><path clip-path="url(#clip370)" d="M86.0382 1099 L102.358 1099 L102.358 1102.94 L80.4133 1102.94 L80.4133 1099 Q83.0753 1096.25 87.6586 1091.62 Q92.2651 1086.96 93.4456 1085.62 Q95.691 1083.1 96.5706 1081.36 Q97.4734 1079.6 97.4734 1077.91 Q97.4734 1075.16 95.5289 1073.42 Q93.6076 1071.69 90.5058 1071.69 Q88.3067 1071.69 85.8531 1072.45 Q83.4225 1073.22 80.6447 1074.77 L80.6447 1070.04 Q83.4688 1068.91 85.9225 1068.33 Q88.3762 1067.75 90.4132 1067.75 Q95.7836 1067.75 98.978 1070.44 Q102.172 1073.12 102.172 1077.61 Q102.172 1079.74 101.362 1081.66 Q100.575 1083.56 98.4687 1086.15 Q97.89 1086.83 94.7882 1090.04 Q91.6864 1093.24 86.0382 1099 Z" fill="#000000" fill-rule="nonzero" fill-opacity="1" /><path clip-path="url(#clip370)" d="M112.172 1097.06 L117.057 1097.06 L117.057 1102.94 L112.172 1102.94 L112.172 1097.06 Z" fill="#000000" fill-rule="nonzero" fill-opacity="1" /><path clip-path="url(#clip370)" d="M127.288 1068.38 L145.644 1068.38 L145.644 1072.31 L131.57 1072.31 L131.57 1080.78 Q132.589 1080.44 133.607 1080.28 Q134.626 1080.09 135.644 1080.09 Q141.431 1080.09 144.811 1083.26 Q148.191 1086.43 148.191 1091.85 Q148.191 1097.43 144.718 1100.53 Q141.246 1103.61 134.927 1103.61 Q132.751 1103.61 130.482 1103.24 Q128.237 1102.87 125.83 1102.13 L125.83 1097.43 Q127.913 1098.56 130.135 1099.12 Q132.357 1099.67 134.834 1099.67 Q138.839 1099.67 141.177 1097.57 Q143.515 1095.46 143.515 1091.85 Q143.515 1088.24 141.177 1086.13 Q138.839 1084.03 134.834 1084.03 Q132.959 1084.03 131.084 1084.44 Q129.232 1084.86 127.288 1085.74 L127.288 1068.38 Z" fill="#000000" fill-rule="nonzero" fill-opacity="1" /><path clip-path="url(#clip370)" d="M81.0614 728.78 L99.4178 728.78 L99.4178 732.715 L85.3438 732.715 L85.3438 741.187 Q86.3623 740.84 87.3808 740.678 Q88.3993 740.493 89.4178 740.493 Q95.2049 740.493 98.5845 743.664 Q101.964 746.835 101.964 752.252 Q101.964 757.831 98.4919 760.933 Q95.0197 764.011 88.7003 764.011 Q86.5243 764.011 84.2558 763.641 Q82.0105 763.27 79.6031 762.53 L79.6031 757.831 Q81.6864 758.965 83.9086 759.521 Q86.1308 760.076 88.6077 760.076 Q92.6123 760.076 94.9502 757.97 Q97.2882 755.863 97.2882 752.252 Q97.2882 748.641 94.9502 746.534 Q92.6123 744.428 88.6077 744.428 Q86.7327 744.428 84.8577 744.845 Q83.0058 745.261 81.0614 746.141 L81.0614 728.78 Z" fill="#000000" fill-rule="nonzero" fill-opacity="1" /><path clip-path="url(#clip370)" d="M111.177 757.46 L116.061 757.46 L116.061 763.34 L111.177 763.34 L111.177 757.46 Z" fill="#000000" fill-rule="nonzero" fill-opacity="1" /><path clip-path="url(#clip370)" d="M136.246 731.859 Q132.635 731.859 130.807 735.423 Q129.001 738.965 129.001 746.095 Q129.001 753.201 130.807 756.766 Q132.635 760.308 136.246 760.308 Q139.881 760.308 141.686 756.766 Q143.515 753.201 143.515 746.095 Q143.515 738.965 141.686 735.423 Q139.881 731.859 136.246 731.859 M136.246 728.155 Q142.056 728.155 145.112 732.761 Q148.191 737.345 148.191 746.095 Q148.191 754.821 145.112 759.428 Q142.056 764.011 136.246 764.011 Q130.436 764.011 127.357 759.428 Q124.302 754.821 124.302 746.095 Q124.302 737.345 127.357 732.761 Q130.436 728.155 136.246 728.155 Z" fill="#000000" fill-rule="nonzero" fill-opacity="1" /><path clip-path="url(#clip370)" d="M80.8299 389.183 L103.052 389.183 L103.052 391.174 L90.5058 423.743 L85.6216 423.743 L97.4271 393.118 L80.8299 393.118 L80.8299 389.183 Z" fill="#000000" fill-rule="nonzero" fill-opacity="1" /><path clip-path="url(#clip370)" d="M112.172 417.863 L117.057 417.863 L117.057 423.743 L112.172 423.743 L112.172 417.863 Z" fill="#000000" fill-rule="nonzero" fill-opacity="1" /><path clip-path="url(#clip370)" d="M127.288 389.183 L145.644 389.183 L145.644 393.118 L131.57 393.118 L131.57 401.59 Q132.589 401.243 133.607 401.081 Q134.626 400.896 135.644 400.896 Q141.431 400.896 144.811 404.067 Q148.191 407.238 148.191 412.655 Q148.191 418.234 144.718 421.335 Q141.246 424.414 134.927 424.414 Q132.751 424.414 130.482 424.044 Q128.237 423.673 125.83 422.933 L125.83 418.234 Q127.913 419.368 130.135 419.923 Q132.357 420.479 134.834 420.479 Q138.839 420.479 141.177 418.372 Q143.515 416.266 143.515 412.655 Q143.515 409.044 141.177 406.937 Q138.839 404.831 134.834 404.831 Q132.959 404.831 131.084 405.248 Q129.232 405.664 127.288 406.544 L127.288 389.183 Z" fill="#000000" fill-rule="nonzero" fill-opacity="1" /><path clip-path="url(#clip370)" d="M51.6634 80.2105 L59.3023 80.2105 L59.3023 53.8449 L50.9921 55.5115 L50.9921 51.2523 L59.256 49.5856 L63.9319 49.5856 L63.9319 80.2105 L71.5707 80.2105 L71.5707 84.1456 L51.6634 84.1456 L51.6634 80.2105 Z" fill="#000000" fill-rule="nonzero" fill-opacity="1" /><path clip-path="url(#clip370)" d="M91.0151 52.6643 Q87.404 52.6643 85.5753 56.2291 Q83.7697 59.7708 83.7697 66.9004 Q83.7697 74.0068 85.5753 77.5716 Q87.404 81.1132 91.0151 81.1132 Q94.6493 81.1132 96.4548 77.5716 Q98.2835 74.0068 98.2835 66.9004 Q98.2835 59.7708 96.4548 56.2291 Q94.6493 52.6643 91.0151 52.6643 M91.0151 48.9606 Q96.8252 48.9606 99.8808 53.5671 Q102.959 58.1504 102.959 66.9004 Q102.959 75.6272 99.8808 80.2336 Q96.8252 84.8169 91.0151 84.8169 Q85.2049 84.8169 82.1262 80.2336 Q79.0707 75.6272 79.0707 66.9004 Q79.0707 58.1504 82.1262 53.5671 Q85.2049 48.9606 91.0151 48.9606 Z" fill="#000000" fill-rule="nonzero" fill-opacity="1" /><path clip-path="url(#clip370)" d="M111.177 78.266 L116.061 78.266 L116.061 84.1456 L111.177 84.1456 L111.177 78.266 Z" fill="#000000" fill-rule="nonzero" fill-opacity="1" /><path clip-path="url(#clip370)" d="M136.246 52.6643 Q132.635 52.6643 130.807 56.2291 Q129.001 59.7708 129.001 66.9004 Q129.001 74.0068 130.807 77.5716 Q132.635 81.1132 136.246 81.1132 Q139.881 81.1132 141.686 77.5716 Q143.515 74.0068 143.515 66.9004 Q143.515 59.7708 141.686 56.2291 Q139.881 52.6643 136.246 52.6643 M136.246 48.9606 Q142.056 48.9606 145.112 53.5671 Q148.191 58.1504 148.191 66.9004 Q148.191 75.6272 145.112 80.2336 Q142.056 84.8169 136.246 84.8169 Q130.436 84.8169 127.357 80.2336 Q124.302 75.6272 124.302 66.9004 Q124.302 58.1504 127.357 53.5671 Q130.436 48.9606 136.246 48.9606 Z" fill="#000000" fill-rule="nonzero" fill-opacity="1" /><polyline clip-path="url(#clip372)" style="stroke:#000000; stroke-linecap:round; stroke-linejoin:round; stroke-width:8; stroke-opacity:1; fill:none" points="245.565,1404.46 255.794,1406.6 266.023,1408.26 276.252,1409.49 286.481,1410.27 296.711,1410.56 306.94,1410.3 317.169,1409.53 327.398,1408.43 337.627,1407.36 347.856,1406.78 358.085,1407.05 368.314,1408.4 378.543,1410.92 388.772,1414.55 399.001,1419.09 409.23,1424.32 419.46,1429.84 429.689,1435.23 439.918,1440.03 450.147,1443.66 460.376,1445.66 470.605,1445.72 480.834,1443.77 491.063,1439.98 501.292,1434.8 511.521,1428.85 521.75,1422.93 531.979,1417.82 542.209,1414.13 552.438,1412.26 562.667,1412.4 572.896,1414.56 583.125,1418.36 593.354,1423.19 603.583,1428.4 613.812,1433.46 624.041,1437.89 634.27,1441.19 644.499,1442.92 654.728,1442.73 664.957,1440.48 675.187,1436.32 685.416,1430.72 695.645,1424.37 705.874,1417.97 716.103,1412.16 726.332,1407.43 736.561,1404.07 746.79,1402.21 757.019,1401.78 767.248,1402.51 777.477,1403.98 787.706,1405.73 797.936,1407.24 808.165,1407.89 818.394,1406.87 828.623,1403.23 838.852,1395.77 849.081,1383.23 859.31,1364.4 869.539,1338.2 879.768,1303.62 889.997,1259.93 900.226,1206.8 910.455,1144.39 920.685,1073.3 930.914,994.559 941.143,909.431 951.372,819.327 961.601,725.804 971.83,630.631 982.059,535.881 992.288,443.964 1002.52,357.502 1012.75,279.156 1022.98,211.446 1033.2,156.675 1043.43,116.874 1053.66,93.6344 1063.89,87.9763 1074.12,100.255 1084.35,130.079 1094.58,176.276 1104.81,236.895 1115.04,309.331 1125.27,390.67 1135.5,477.945 1145.72,568.354 1155.95,659.431 1166.18,749.116 1176.41,835.787 1186.64,918.209 1196.87,995.335 1207.1,1066.41 1217.33,1130.97 1227.56,1188.87 1237.79,1240.21 1248.02,1285.29 1258.24,1324.41 1268.47,1357.84 1278.7,1385.73 1288.93,1408.1 1299.16,1424.95 1309.39,1436.45 1319.62,1443.03 1329.85,1445.35 1340.08,1444.31 1350.31,1440.96 1360.54,1436.33 1370.76,1431.37 1380.99,1426.8 1391.22,1423.11 1401.45,1420.54 1411.68,1419.15 1421.91,1418.9 1432.14,1419.64 1442.37,1421.1 1452.6,1423.02 1462.83,1425.07 1473.05,1426.97 1483.28,1428.53 1493.51,1429.61 1503.74,1430.1 1513.97,1429.92 1524.2,1429.09 1534.43,1427.74 1544.66,1426.09 1554.89,1424.44 1565.12,1423.08 1575.35,1422.17 1585.57,1421.84 1595.8,1422.04 1606.03,1422.56 1616.26,1423.07 1626.49,1423.24 1636.72,1422.88 1646.95,1421.94 1657.18,1420.47 1667.41,1418.58 1677.64,1416.44 1687.87,1414.28 1698.09,1412.43 1708.32,1411.34 1718.55,1411.39 1728.78,1412.79 1739.01,1415.55 1749.24,1419.49 1759.47,1424.18 1769.7,1429.09 1779.93,1433.51 1790.16,1436.83 1800.39,1438.57 1810.61,1438.57 1820.84,1436.95 1831.07,1434.01 1841.3,1430.08 1851.53,1425.46 1861.76,1420.45 1871.99,1415.31 1882.22,1410.25 1892.45,1405.45 1902.68,1401.13 1912.91,1397.58 1923.13,1395.01 1933.36,1393.55 1943.59,1393.32 1953.82,1394.4 1964.05,1396.87 1974.28,1400.62 1984.51,1405.45 1994.74,1411.08 2004.97,1417.18 2015.2,1423.27 2025.43,1428.89 2035.65,1433.54 2045.88,1436.9 2056.11,1438.8 2066.34,1439.12 2076.57,1437.96 2086.8,1435.65 2097.03,1432.79 2107.26,1430.08 2117.49,1428.1 2127.72,1427.17 2137.95,1427.21 2148.17,1427.91 2158.4,1428.81 2168.63,1429.37 2178.86,1428.96 2189.09,1427.11 2199.32,1423.55 2209.55,1418.27 2219.78,1411.66 2230.01,1404.48 2240.24,1397.66 2250.47,1392.13 2260.69,1388.65 2270.92,1387.67 2281.15,1389.38 2291.38,1393.82 "/>
<polyline clip-path="url(#clip372)" style="stroke:#0000ff; stroke-linecap:round; stroke-linejoin:round; stroke-width:4; stroke-opacity:1; fill:none" points="1063.89,1445.35 1063.89,87.9763 "/>
<polyline clip-path="url(#clip372)" style="stroke:#0000ff; stroke-linecap:round; stroke-linejoin:round; stroke-width:4; stroke-opacity:0.5; fill:none" stroke-dasharray="16, 10" points="472.548,1445.35 1329.85,1445.35 "/>
<polyline clip-path="url(#clip372)" style="stroke:#808080; stroke-linecap:round; stroke-linejoin:round; stroke-width:4; stroke-opacity:1; fill:none" stroke-dasharray="16, 10" points="957.132,766.661 1168.25,766.661 "/>
<circle clip-path="url(#clip372)" cx="957.132" cy="766.661" r="14.4" fill="#808080" fill-rule="evenodd" fill-opacity="1" stroke="#000000" stroke-opacity="1" stroke-width="3.2"/>
<circle clip-path="url(#clip372)" cx="1168.25" cy="766.661" r="14.4" fill="#808080" fill-rule="evenodd" fill-opacity="1" stroke="#000000" stroke-opacity="1" stroke-width="3.2"/>
<circle clip-path="url(#clip372)" cx="1063.89" cy="87.9763" r="14.4" fill="#ff0000" fill-rule="evenodd" fill-opacity="1" stroke="#000000" stroke-opacity="1" stroke-width="3.2"/>
<path clip-path="url(#clip370)" d="M1789.06 354.418 L2280.47 354.418 L2280.47 95.2176 L1789.06 95.2176  Z" fill="#ffffff" fill-rule="evenodd" fill-opacity="1"/>
<polyline clip-path="url(#clip370)" style="stroke:#000000; stroke-linecap:round; stroke-linejoin:round; stroke-width:4; stroke-opacity:1; fill:none" points="1789.06,354.418 2280.47,354.418 2280.47,95.2176 1789.06,95.2176 1789.06,354.418 "/>
<polyline clip-path="url(#clip370)" style="stroke:#000000; stroke-linecap:round; stroke-linejoin:round; stroke-width:8; stroke-opacity:1; fill:none" points="1813.15,147.058 1957.72,147.058 "/>
<path clip-path="url(#clip370)" d="M2000.24 139.176 L2000.24 143.203 Q1998.44 142.277 1996.49 141.815 Q1994.55 141.352 1992.46 141.352 Q1989.29 141.352 1987.7 142.324 Q1986.12 143.296 1986.12 145.24 Q1986.12 146.722 1987.26 147.578 Q1988.39 148.412 1991.82 149.176 L1993.27 149.5 Q1997.81 150.472 1999.71 152.254 Q2001.63 154.014 2001.63 157.185 Q2001.63 160.796 1998.76 162.902 Q1995.91 165.009 1990.91 165.009 Q1988.83 165.009 1986.56 164.592 Q1984.32 164.199 1981.82 163.388 L1981.82 158.99 Q1984.18 160.217 1986.47 160.842 Q1988.76 161.444 1991.01 161.444 Q1994.02 161.444 1995.64 160.426 Q1997.26 159.384 1997.26 157.509 Q1997.26 155.773 1996.08 154.847 Q1994.92 153.921 1990.96 153.064 L1989.48 152.717 Q1985.52 151.884 1983.76 150.171 Q1982 148.435 1982 145.426 Q1982 141.768 1984.59 139.778 Q1987.19 137.787 1991.96 137.787 Q1994.32 137.787 1996.4 138.134 Q1998.48 138.481 2000.24 139.176 Z" fill="#000000" fill-rule="nonzero" fill-opacity="1" /><path clip-path="url(#clip370)" d="M2008.41 138.412 L2012.67 138.412 L2012.67 164.338 L2008.41 164.338 L2008.41 138.412 M2008.41 128.319 L2012.67 128.319 L2012.67 133.713 L2008.41 133.713 L2008.41 128.319 Z" fill="#000000" fill-rule="nonzero" fill-opacity="1" /><path clip-path="url(#clip370)" d="M2038.64 151.074 Q2038.64 146.444 2036.72 143.898 Q2034.83 141.352 2031.38 141.352 Q2027.95 141.352 2026.03 143.898 Q2024.13 146.444 2024.13 151.074 Q2024.13 155.68 2026.03 158.226 Q2027.95 160.773 2031.38 160.773 Q2034.83 160.773 2036.72 158.226 Q2038.64 155.68 2038.64 151.074 M2042.9 161.12 Q2042.9 167.74 2039.96 170.958 Q2037.02 174.199 2030.96 174.199 Q2028.71 174.199 2026.72 173.851 Q2024.73 173.527 2022.86 172.833 L2022.86 168.689 Q2024.73 169.708 2026.56 170.194 Q2028.39 170.68 2030.29 170.68 Q2034.48 170.68 2036.56 168.481 Q2038.64 166.305 2038.64 161.884 L2038.64 159.777 Q2037.33 162.069 2035.27 163.203 Q2033.21 164.338 2030.33 164.338 Q2025.57 164.338 2022.65 160.703 Q2019.73 157.069 2019.73 151.074 Q2019.73 145.055 2022.65 141.421 Q2025.57 137.787 2030.33 137.787 Q2033.21 137.787 2035.27 138.921 Q2037.33 140.055 2038.64 142.347 L2038.64 138.412 L2042.9 138.412 L2042.9 161.12 Z" fill="#000000" fill-rule="nonzero" fill-opacity="1" /><path clip-path="url(#clip370)" d="M2073.23 148.689 L2073.23 164.338 L2068.97 164.338 L2068.97 148.828 Q2068.97 145.148 2067.53 143.319 Q2066.1 141.49 2063.23 141.49 Q2059.78 141.49 2057.79 143.69 Q2055.8 145.889 2055.8 149.685 L2055.8 164.338 L2051.52 164.338 L2051.52 138.412 L2055.8 138.412 L2055.8 142.44 Q2057.33 140.102 2059.39 138.944 Q2061.47 137.787 2064.18 137.787 Q2068.64 137.787 2070.94 140.565 Q2073.23 143.319 2073.23 148.689 Z" fill="#000000" fill-rule="nonzero" fill-opacity="1" /><path clip-path="url(#clip370)" d="M2093.51 151.305 Q2088.34 151.305 2086.35 152.486 Q2084.36 153.666 2084.36 156.514 Q2084.36 158.782 2085.84 160.125 Q2087.35 161.444 2089.92 161.444 Q2093.46 161.444 2095.59 158.944 Q2097.74 156.421 2097.74 152.254 L2097.74 151.305 L2093.51 151.305 M2102 149.546 L2102 164.338 L2097.74 164.338 L2097.74 160.402 Q2096.28 162.763 2094.11 163.898 Q2091.93 165.009 2088.78 165.009 Q2084.8 165.009 2082.44 162.787 Q2080.1 160.541 2080.1 156.791 Q2080.1 152.416 2083.02 150.194 Q2085.96 147.972 2091.77 147.972 L2097.74 147.972 L2097.74 147.555 Q2097.74 144.615 2095.8 143.018 Q2093.88 141.398 2090.38 141.398 Q2088.16 141.398 2086.05 141.93 Q2083.95 142.463 2082 143.527 L2082 139.592 Q2084.34 138.69 2086.54 138.25 Q2088.74 137.787 2090.82 137.787 Q2096.45 137.787 2099.22 140.703 Q2102 143.62 2102 149.546 Z" fill="#000000" fill-rule="nonzero" fill-opacity="1" /><path clip-path="url(#clip370)" d="M2110.77 128.319 L2115.03 128.319 L2115.03 164.338 L2110.77 164.338 L2110.77 128.319 Z" fill="#000000" fill-rule="nonzero" fill-opacity="1" /><polyline clip-path="url(#clip370)" style="stroke:#0000ff; stroke-linecap:round; stroke-linejoin:round; stroke-width:4; stroke-opacity:1; fill:none" points="1813.15,198.898 1957.72,198.898 "/>
<path clip-path="url(#clip370)" d="M1986.1 212.289 L1986.1 226.039 L1981.82 226.039 L1981.82 190.252 L1986.1 190.252 L1986.1 194.187 Q1987.44 191.872 1989.48 190.761 Q1991.54 189.627 1994.39 189.627 Q1999.11 189.627 2002.05 193.377 Q2005.01 197.127 2005.01 203.238 Q2005.01 209.349 2002.05 213.099 Q1999.11 216.849 1994.39 216.849 Q1991.54 216.849 1989.48 215.738 Q1987.44 214.603 1986.1 212.289 M2000.59 203.238 Q2000.59 198.539 1998.65 195.877 Q1996.72 193.192 1993.34 193.192 Q1989.96 193.192 1988.02 195.877 Q1986.1 198.539 1986.1 203.238 Q1986.1 207.937 1988.02 210.622 Q1989.96 213.284 1993.34 213.284 Q1996.72 213.284 1998.65 210.622 Q2000.59 207.937 2000.59 203.238 Z" fill="#000000" fill-rule="nonzero" fill-opacity="1" /><path clip-path="url(#clip370)" d="M2027.09 194.233 Q2026.38 193.817 2025.52 193.631 Q2024.69 193.423 2023.67 193.423 Q2020.06 193.423 2018.11 195.784 Q2016.19 198.122 2016.19 202.52 L2016.19 216.178 L2011.91 216.178 L2011.91 190.252 L2016.19 190.252 L2016.19 194.28 Q2017.53 191.918 2019.69 190.784 Q2021.84 189.627 2024.92 189.627 Q2025.36 189.627 2025.89 189.696 Q2026.42 189.743 2027.07 189.858 L2027.09 194.233 Z" fill="#000000" fill-rule="nonzero" fill-opacity="1" /><path clip-path="url(#clip370)" d="M2040.57 193.238 Q2037.14 193.238 2035.15 195.923 Q2033.16 198.585 2033.16 203.238 Q2033.16 207.891 2035.13 210.576 Q2037.12 213.238 2040.57 213.238 Q2043.97 213.238 2045.96 210.553 Q2047.95 207.867 2047.95 203.238 Q2047.95 198.631 2045.96 195.946 Q2043.97 193.238 2040.57 193.238 M2040.57 189.627 Q2046.12 189.627 2049.29 193.238 Q2052.46 196.849 2052.46 203.238 Q2052.46 209.604 2049.29 213.238 Q2046.12 216.849 2040.57 216.849 Q2034.99 216.849 2031.82 213.238 Q2028.67 209.604 2028.67 203.238 Q2028.67 196.849 2031.82 193.238 Q2034.99 189.627 2040.57 189.627 Z" fill="#000000" fill-rule="nonzero" fill-opacity="1" /><path clip-path="url(#clip370)" d="M2079.71 195.229 Q2081.31 192.358 2083.53 190.993 Q2085.75 189.627 2088.76 189.627 Q2092.81 189.627 2095.01 192.474 Q2097.21 195.298 2097.21 200.529 L2097.21 216.178 L2092.93 216.178 L2092.93 200.668 Q2092.93 196.942 2091.61 195.136 Q2090.29 193.33 2087.58 193.33 Q2084.27 193.33 2082.35 195.53 Q2080.43 197.729 2080.43 201.525 L2080.43 216.178 L2076.14 216.178 L2076.14 200.668 Q2076.14 196.918 2074.83 195.136 Q2073.51 193.33 2070.75 193.33 Q2067.49 193.33 2065.57 195.553 Q2063.64 197.752 2063.64 201.525 L2063.64 216.178 L2059.36 216.178 L2059.36 190.252 L2063.64 190.252 L2063.64 194.28 Q2065.1 191.895 2067.14 190.761 Q2069.18 189.627 2071.98 189.627 Q2074.8 189.627 2076.77 191.062 Q2078.76 192.497 2079.71 195.229 Z" fill="#000000" fill-rule="nonzero" fill-opacity="1" /><path clip-path="url(#clip370)" d="M2105.7 190.252 L2109.96 190.252 L2109.96 216.178 L2105.7 216.178 L2105.7 190.252 M2105.7 180.159 L2109.96 180.159 L2109.96 185.553 L2105.7 185.553 L2105.7 180.159 Z" fill="#000000" fill-rule="nonzero" fill-opacity="1" /><path clip-path="url(#clip370)" d="M2140.43 200.529 L2140.43 216.178 L2136.17 216.178 L2136.17 200.668 Q2136.17 196.988 2134.73 195.159 Q2133.3 193.33 2130.43 193.33 Q2126.98 193.33 2124.99 195.53 Q2123 197.729 2123 201.525 L2123 216.178 L2118.71 216.178 L2118.71 190.252 L2123 190.252 L2123 194.28 Q2124.52 191.942 2126.58 190.784 Q2128.67 189.627 2131.38 189.627 Q2135.84 189.627 2138.14 192.405 Q2140.43 195.159 2140.43 200.529 Z" fill="#000000" fill-rule="nonzero" fill-opacity="1" /><path clip-path="url(#clip370)" d="M2171.1 202.15 L2171.1 204.233 L2151.51 204.233 Q2151.79 208.631 2154.15 210.946 Q2156.54 213.238 2160.77 213.238 Q2163.23 213.238 2165.52 212.636 Q2167.83 212.034 2170.1 210.83 L2170.1 214.858 Q2167.81 215.83 2165.4 216.34 Q2163 216.849 2160.52 216.849 Q2154.32 216.849 2150.68 213.238 Q2147.07 209.627 2147.07 203.469 Q2147.07 197.104 2150.5 193.377 Q2153.95 189.627 2159.78 189.627 Q2165.01 189.627 2168.04 193.006 Q2171.1 196.363 2171.1 202.15 M2166.84 200.9 Q2166.79 197.405 2164.87 195.321 Q2162.97 193.238 2159.82 193.238 Q2156.26 193.238 2154.11 195.252 Q2151.98 197.266 2151.65 200.923 L2166.84 200.9 Z" fill="#000000" fill-rule="nonzero" fill-opacity="1" /><path clip-path="url(#clip370)" d="M2199.64 200.529 L2199.64 216.178 L2195.38 216.178 L2195.38 200.668 Q2195.38 196.988 2193.95 195.159 Q2192.51 193.33 2189.64 193.33 Q2186.19 193.33 2184.2 195.53 Q2182.21 197.729 2182.21 201.525 L2182.21 216.178 L2177.93 216.178 L2177.93 190.252 L2182.21 190.252 L2182.21 194.28 Q2183.74 191.942 2185.8 190.784 Q2187.88 189.627 2190.59 189.627 Q2195.06 189.627 2197.35 192.405 Q2199.64 195.159 2199.64 200.529 Z" fill="#000000" fill-rule="nonzero" fill-opacity="1" /><path clip-path="url(#clip370)" d="M2226.79 191.247 L2226.79 195.229 Q2224.99 194.233 2223.16 193.747 Q2221.35 193.238 2219.5 193.238 Q2215.36 193.238 2213.07 195.877 Q2210.77 198.492 2210.77 203.238 Q2210.77 207.983 2213.07 210.622 Q2215.36 213.238 2219.5 213.238 Q2221.35 213.238 2223.16 212.752 Q2224.99 212.242 2226.79 211.247 L2226.79 215.182 Q2225.01 216.016 2223.09 216.432 Q2221.19 216.849 2219.04 216.849 Q2213.18 216.849 2209.73 213.168 Q2206.28 209.488 2206.28 203.238 Q2206.28 196.895 2209.76 193.261 Q2213.25 189.627 2219.32 189.627 Q2221.28 189.627 2223.16 190.043 Q2225.03 190.437 2226.79 191.247 Z" fill="#000000" fill-rule="nonzero" fill-opacity="1" /><path clip-path="url(#clip370)" d="M2256.38 202.15 L2256.38 204.233 L2236.79 204.233 Q2237.07 208.631 2239.43 210.946 Q2241.82 213.238 2246.05 213.238 Q2248.5 213.238 2250.8 212.636 Q2253.11 212.034 2255.38 210.83 L2255.38 214.858 Q2253.09 215.83 2250.68 216.34 Q2248.27 216.849 2245.8 216.849 Q2239.59 216.849 2235.96 213.238 Q2232.35 209.627 2232.35 203.469 Q2232.35 197.104 2235.77 193.377 Q2239.22 189.627 2245.06 189.627 Q2250.29 189.627 2253.32 193.006 Q2256.38 196.363 2256.38 202.15 M2252.12 200.9 Q2252.07 197.405 2250.15 195.321 Q2248.25 193.238 2245.1 193.238 Q2241.54 193.238 2239.38 195.252 Q2237.25 197.266 2236.93 200.923 L2252.12 200.9 Z" fill="#000000" fill-rule="nonzero" fill-opacity="1" /><polyline clip-path="url(#clip370)" style="stroke:#808080; stroke-linecap:round; stroke-linejoin:round; stroke-width:4; stroke-opacity:1; fill:none" stroke-dasharray="16, 10" points="1813.15,250.738 1957.72,250.738 "/>
<path clip-path="url(#clip370)" d="M1981.82 242.092 L1986.08 242.092 L1991.4 262.323 L1996.7 242.092 L2001.72 242.092 L2007.05 262.323 L2012.35 242.092 L2016.61 242.092 L2009.83 268.018 L2004.8 268.018 L1999.22 246.768 L1993.62 268.018 L1988.6 268.018 L1981.82 242.092 Z" fill="#000000" fill-rule="nonzero" fill-opacity="1" /><path clip-path="url(#clip370)" d="M2023.07 242.092 L2027.33 242.092 L2027.33 268.018 L2023.07 268.018 L2023.07 242.092 M2023.07 231.999 L2027.33 231.999 L2027.33 237.393 L2023.07 237.393 L2023.07 231.999 Z" fill="#000000" fill-rule="nonzero" fill-opacity="1" /><path clip-path="url(#clip370)" d="M2053.3 246.027 L2053.3 231.999 L2057.56 231.999 L2057.56 268.018 L2053.3 268.018 L2053.3 264.129 Q2051.96 266.443 2049.89 267.578 Q2047.86 268.689 2044.99 268.689 Q2040.29 268.689 2037.33 264.939 Q2034.39 261.189 2034.39 255.078 Q2034.39 248.967 2037.33 245.217 Q2040.29 241.467 2044.99 241.467 Q2047.86 241.467 2049.89 242.601 Q2051.96 243.712 2053.3 246.027 M2038.78 255.078 Q2038.78 259.777 2040.71 262.462 Q2042.65 265.124 2046.03 265.124 Q2049.41 265.124 2051.35 262.462 Q2053.3 259.777 2053.3 255.078 Q2053.3 250.379 2051.35 247.717 Q2049.41 245.032 2046.03 245.032 Q2042.65 245.032 2040.71 247.717 Q2038.78 250.379 2038.78 255.078 Z" fill="#000000" fill-rule="nonzero" fill-opacity="1" /><path clip-path="url(#clip370)" d="M2070.54 234.731 L2070.54 242.092 L2079.32 242.092 L2079.32 245.402 L2070.54 245.402 L2070.54 259.476 Q2070.54 262.647 2071.4 263.55 Q2072.28 264.453 2074.94 264.453 L2079.32 264.453 L2079.32 268.018 L2074.94 268.018 Q2070.01 268.018 2068.14 266.189 Q2066.26 264.337 2066.26 259.476 L2066.26 245.402 L2063.14 245.402 L2063.14 242.092 L2066.26 242.092 L2066.26 234.731 L2070.54 234.731 Z" fill="#000000" fill-rule="nonzero" fill-opacity="1" /><path clip-path="url(#clip370)" d="M2106.47 252.369 L2106.47 268.018 L2102.21 268.018 L2102.21 252.508 Q2102.21 248.828 2100.77 246.999 Q2099.34 245.17 2096.47 245.17 Q2093.02 245.17 2091.03 247.37 Q2089.04 249.569 2089.04 253.365 L2089.04 268.018 L2084.76 268.018 L2084.76 231.999 L2089.04 231.999 L2089.04 246.12 Q2090.57 243.782 2092.63 242.624 Q2094.71 241.467 2097.42 241.467 Q2101.89 241.467 2104.18 244.245 Q2106.47 246.999 2106.47 252.369 Z" fill="#000000" fill-rule="nonzero" fill-opacity="1" /><circle clip-path="url(#clip370)" cx="1885.44" cy="302.578" r="20.48" fill="#ff0000" fill-rule="evenodd" fill-opacity="1" stroke="#000000" stroke-opacity="1" stroke-width="4.55111"/>
<path clip-path="url(#clip370)" d="M2002.16 298.909 Q2003.76 296.038 2005.98 294.673 Q2008.21 293.307 2011.21 293.307 Q2015.27 293.307 2017.46 296.154 Q2019.66 298.978 2019.66 304.209 L2019.66 319.858 L2015.38 319.858 L2015.38 304.348 Q2015.38 300.622 2014.06 298.816 Q2012.74 297.01 2010.03 297.01 Q2006.72 297.01 2004.8 299.21 Q2002.88 301.409 2002.88 305.205 L2002.88 319.858 L1998.6 319.858 L1998.6 304.348 Q1998.6 300.598 1997.28 298.816 Q1995.96 297.01 1993.21 297.01 Q1989.94 297.01 1988.02 299.233 Q1986.1 301.432 1986.1 305.205 L1986.1 319.858 L1981.82 319.858 L1981.82 293.932 L1986.1 293.932 L1986.1 297.96 Q1987.56 295.575 1989.59 294.441 Q1991.63 293.307 1994.43 293.307 Q1997.26 293.307 1999.22 294.742 Q2001.21 296.177 2002.16 298.909 Z" fill="#000000" fill-rule="nonzero" fill-opacity="1" /><path clip-path="url(#clip370)" d="M2039.94 306.825 Q2034.78 306.825 2032.79 308.006 Q2030.8 309.186 2030.8 312.034 Q2030.8 314.302 2032.28 315.645 Q2033.78 316.964 2036.35 316.964 Q2039.89 316.964 2042.02 314.464 Q2044.18 311.941 2044.18 307.774 L2044.18 306.825 L2039.94 306.825 M2048.44 305.066 L2048.44 319.858 L2044.18 319.858 L2044.18 315.922 Q2042.72 318.283 2040.54 319.418 Q2038.37 320.529 2035.22 320.529 Q2031.24 320.529 2028.88 318.307 Q2026.54 316.061 2026.54 312.311 Q2026.54 307.936 2029.46 305.714 Q2032.39 303.492 2038.21 303.492 L2044.18 303.492 L2044.18 303.075 Q2044.18 300.135 2042.23 298.538 Q2040.31 296.918 2036.82 296.918 Q2034.59 296.918 2032.49 297.45 Q2030.38 297.983 2028.44 299.047 L2028.44 295.112 Q2030.77 294.21 2032.97 293.77 Q2035.17 293.307 2037.26 293.307 Q2042.88 293.307 2045.66 296.223 Q2048.44 299.14 2048.44 305.066 Z" fill="#000000" fill-rule="nonzero" fill-opacity="1" /><path clip-path="url(#clip370)" d="M2078.76 293.932 L2069.39 306.547 L2079.25 319.858 L2074.22 319.858 L2066.68 309.672 L2059.13 319.858 L2054.11 319.858 L2064.18 306.293 L2054.96 293.932 L2059.99 293.932 L2066.86 303.168 L2073.74 293.932 L2078.76 293.932 Z" fill="#000000" fill-rule="nonzero" fill-opacity="1" /><path clip-path="url(#clip370)" d="M2085.27 293.932 L2089.52 293.932 L2089.52 319.858 L2085.27 319.858 L2085.27 293.932 M2085.27 283.839 L2089.52 283.839 L2089.52 289.233 L2085.27 289.233 L2085.27 283.839 Z" fill="#000000" fill-rule="nonzero" fill-opacity="1" /><path clip-path="url(#clip370)" d="M2118.62 298.909 Q2120.22 296.038 2122.44 294.673 Q2124.66 293.307 2127.67 293.307 Q2131.72 293.307 2133.92 296.154 Q2136.12 298.978 2136.12 304.209 L2136.12 319.858 L2131.84 319.858 L2131.84 304.348 Q2131.84 300.622 2130.52 298.816 Q2129.2 297.01 2126.49 297.01 Q2123.18 297.01 2121.26 299.21 Q2119.34 301.409 2119.34 305.205 L2119.34 319.858 L2115.06 319.858 L2115.06 304.348 Q2115.06 300.598 2113.74 298.816 Q2112.42 297.01 2109.66 297.01 Q2106.4 297.01 2104.48 299.233 Q2102.56 301.432 2102.56 305.205 L2102.56 319.858 L2098.27 319.858 L2098.27 293.932 L2102.56 293.932 L2102.56 297.96 Q2104.01 295.575 2106.05 294.441 Q2108.09 293.307 2110.89 293.307 Q2113.71 293.307 2115.68 294.742 Q2117.67 296.177 2118.62 298.909 Z" fill="#000000" fill-rule="nonzero" fill-opacity="1" /><path clip-path="url(#clip370)" d="M2156.4 306.825 Q2151.24 306.825 2149.25 308.006 Q2147.26 309.186 2147.26 312.034 Q2147.26 314.302 2148.74 315.645 Q2150.24 316.964 2152.81 316.964 Q2156.35 316.964 2158.48 314.464 Q2160.64 311.941 2160.64 307.774 L2160.64 306.825 L2156.4 306.825 M2164.89 305.066 L2164.89 319.858 L2160.64 319.858 L2160.64 315.922 Q2159.18 318.283 2157 319.418 Q2154.82 320.529 2151.68 320.529 Q2147.7 320.529 2145.33 318.307 Q2143 316.061 2143 312.311 Q2143 307.936 2145.91 305.714 Q2148.85 303.492 2154.66 303.492 L2160.64 303.492 L2160.64 303.075 Q2160.64 300.135 2158.69 298.538 Q2156.77 296.918 2153.27 296.918 Q2151.05 296.918 2148.95 297.45 Q2146.84 297.983 2144.89 299.047 L2144.89 295.112 Q2147.23 294.21 2149.43 293.77 Q2151.63 293.307 2153.71 293.307 Q2159.34 293.307 2162.12 296.223 Q2164.89 299.14 2164.89 305.066 Z" fill="#000000" fill-rule="nonzero" fill-opacity="1" /></svg>
