<?xml version="1.0" encoding="utf-8"?>
<svg xmlns="http://www.w3.org/2000/svg" xmlns:xlink="http://www.w3.org/1999/xlink" width="600" height="400" viewBox="0 0 2400 1600">
<defs>
  <clipPath id="clip670">
    <rect x="0" y="0" width="2400" height="1600"/>
  </clipPath>
</defs>
<path clip-path="url(#clip670)" d="M0 1600 L2400 1600 L2400 0 L0 0  Z" fill="#ffffff" fill-rule="evenodd" fill-opacity="1"/>
<defs>
  <clipPath id="clip671">
    <rect x="480" y="0" width="1681" height="1600"/>
  </clipPath>
</defs>
<path clip-path="url(#clip670)" d="M205.121 1423.18 L2352.76 1423.18 L2352.76 47.2441 L205.121 47.2441  Z" fill="#ffffff" fill-rule="evenodd" fill-opacity="1"/>
<defs>
  <clipPath id="clip672">
    <rect x="205" y="47" width="2149" height="1377"/>
  </clipPath>
</defs>
<polyline clip-path="url(#clip672)" style="stroke:#000000; stroke-linecap:round; stroke-linejoin:round; stroke-width:2; stroke-opacity:0.1; fill:none" points="265.903,1423.18 265.903,47.2441 "/>
<polyline clip-path="url(#clip672)" style="stroke:#000000; stroke-linecap:round; stroke-linejoin:round; stroke-width:2; stroke-opacity:0.1; fill:none" points="772.421,1423.18 772.421,47.2441 "/>
<polyline clip-path="url(#clip672)" style="stroke:#000000; stroke-linecap:round; stroke-linejoin:round; stroke-width:2; stroke-opacity:0.1; fill:none" points="1278.94,1423.18 1278.94,47.2441 "/>
<polyline clip-path="url(#clip672)" style="stroke:#000000; stroke-linecap:round; stroke-linejoin:round; stroke-width:2; stroke-opacity:0.1; fill:none" points="1785.46,1423.18 1785.46,47.2441 "/>
<polyline clip-path="url(#clip672)" style="stroke:#000000; stroke-linecap:round; stroke-linejoin:round; stroke-width:2; stroke-opacity:0.1; fill:none" points="2291.97,1423.18 2291.97,47.2441 "/>
<polyline clip-path="url(#clip672)" style="stroke:#000000; stroke-linecap:round; stroke-linejoin:round; stroke-width:2; stroke-opacity:0.1; fill:none" points="205.121,1295.87 2352.76,1295.87 "/>
<polyline clip-path="url(#clip672)" style="stroke:#000000; stroke-linecap:round; stroke-linejoin:round; stroke-width:2; stroke-opacity:0.1; fill:none" points="205.121,985.199 2352.76,985.199 "/>
<polyline clip-path="url(#clip672)" style="stroke:#000000; stroke-linecap:round; stroke-linejoin:round; stroke-width:2; stroke-opacity:0.1; fill:none" points="205.121,674.529 2352.76,674.529 "/>
<polyline clip-path="url(#clip672)" style="stroke:#000000; stroke-linecap:round; stroke-linejoin:round; stroke-width:2; stroke-opacity:0.1; fill:none" points="205.121,363.859 2352.76,363.859 "/>
<polyline clip-path="url(#clip672)" style="stroke:#000000; stroke-linecap:round; stroke-linejoin:round; stroke-width:2; stroke-opacity:0.1; fill:none" points="205.121,53.1897 2352.76,53.1897 "/>
<polyline clip-path="url(#clip670)" style="stroke:#000000; stroke-linecap:round; stroke-linejoin:round; stroke-width:4; stroke-opacity:1; fill:none" points="205.121,1423.18 2352.76,1423.18 "/>
<polyline clip-path="url(#clip670)" style="stroke:#000000; stroke-linecap:round; stroke-linejoin:round; stroke-width:4; stroke-opacity:1; fill:none" points="265.903,1423.18 265.903,1404.28 "/>
<polyline clip-path="url(#clip670)" style="stroke:#000000; stroke-linecap:round; stroke-linejoin:round; stroke-width:4; stroke-opacity:1; fill:none" points="772.421,1423.18 772.421,1404.28 "/>
<polyline clip-path="url(#clip670)" style="stroke:#000000; stroke-linecap:round; stroke-linejoin:round; stroke-width:4; stroke-opacity:1; fill:none" points="1278.94,1423.18 1278.94,1404.28 "/>
<polyline clip-path="url(#clip670)" style="stroke:#000000; stroke-linecap:round; stroke-linejoin:round; stroke-width:4; stroke-opacity:1; fill:none" points="1785.46,1423.18 1785.46,1404.28 "/>
<polyline clip-path="url(#clip670)" style="stroke:#000000; stroke-linecap:round; stroke-linejoin:round; stroke-width:4; stroke-opacity:1; fill:none" points="2291.97,1423.18 2291.97,1404.28 "/>
<path clip-path="url(#clip670)" d="M265.903 1454.1 Q262.292 1454.1 260.463 1457.66 Q258.658 1461.2 258.658 1468.33 Q258.658 1475.44 260.463 1479.01 Q262.292 1482.55 265.903 1482.55 Q269.537 1482.55 271.343 1479.01 Q273.172 1475.44 273.172 1468.33 Q273.172 1461.2 271.343 1457.66 Q269.537 1454.1 265.903 1454.1 M265.903 1450.39 Q271.713 1450.39 274.769 1455 Q277.847 1459.58 277.847 1468.33 Q277.847 1477.06 274.769 1481.67 Q271.713 1486.25 265.903 1486.25 Q260.093 1486.25 257.014 1481.67 Q253.959 1477.06 253.959 1468.33 Q253.959 1459.58 257.014 1455 Q260.093 1450.39 265.903 1450.39 Z" fill="#000000" fill-rule="nonzero" fill-opacity="1" /><path clip-path="url(#clip670)" d="M751.692 1481.64 L768.011 1481.64 L768.011 1485.58 L746.067 1485.58 L746.067 1481.64 Q748.729 1478.89 753.312 1474.26 Q757.919 1469.61 759.099 1468.27 Q761.344 1465.74 762.224 1464.01 Q763.127 1462.25 763.127 1460.56 Q763.127 1457.8 761.182 1456.07 Q759.261 1454.33 756.159 1454.33 Q753.96 1454.33 751.507 1455.09 Q749.076 1455.86 746.298 1457.41 L746.298 1452.69 Q749.122 1451.55 751.576 1450.97 Q754.03 1450.39 756.067 1450.39 Q761.437 1450.39 764.631 1453.08 Q767.826 1455.77 767.826 1460.26 Q767.826 1462.39 767.016 1464.31 Q766.229 1466.2 764.122 1468.8 Q763.544 1469.47 760.442 1472.69 Q757.34 1475.88 751.692 1481.64 Z" fill="#000000" fill-rule="nonzero" fill-opacity="1" /><path clip-path="url(#clip670)" d="M777.872 1451.02 L796.229 1451.02 L796.229 1454.96 L782.155 1454.96 L782.155 1463.43 Q783.173 1463.08 784.192 1462.92 Q785.21 1462.73 786.229 1462.73 Q792.016 1462.73 795.395 1465.9 Q798.775 1469.08 798.775 1474.49 Q798.775 1480.07 795.303 1483.17 Q791.83 1486.25 785.511 1486.25 Q783.335 1486.25 781.067 1485.88 Q778.821 1485.51 776.414 1484.77 L776.414 1480.07 Q778.497 1481.2 780.719 1481.76 Q782.942 1482.32 785.418 1482.32 Q789.423 1482.32 791.761 1480.21 Q794.099 1478.1 794.099 1474.49 Q794.099 1470.88 791.761 1468.77 Q789.423 1466.67 785.418 1466.67 Q783.543 1466.67 781.668 1467.08 Q779.817 1467.5 777.872 1468.38 L777.872 1451.02 Z" fill="#000000" fill-rule="nonzero" fill-opacity="1" /><path clip-path="url(#clip670)" d="M1253.64 1451.02 L1271.99 1451.02 L1271.99 1454.96 L1257.92 1454.96 L1257.92 1463.43 Q1258.94 1463.08 1259.96 1462.92 Q1260.98 1462.73 1261.99 1462.73 Q1267.78 1462.73 1271.16 1465.9 Q1274.54 1469.08 1274.54 1474.49 Q1274.54 1480.07 1271.07 1483.17 Q1267.6 1486.25 1261.28 1486.25 Q1259.1 1486.25 1256.83 1485.88 Q1254.59 1485.51 1252.18 1484.77 L1252.18 1480.07 Q1254.26 1481.2 1256.48 1481.76 Q1258.71 1482.32 1261.18 1482.32 Q1265.19 1482.32 1267.53 1480.21 Q1269.86 1478.1 1269.86 1474.49 Q1269.86 1470.88 1267.53 1468.77 Q1265.19 1466.67 1261.18 1466.67 Q1259.31 1466.67 1257.43 1467.08 Q1255.58 1467.5 1253.64 1468.38 L1253.64 1451.02 Z" fill="#000000" fill-rule="nonzero" fill-opacity="1" /><path clip-path="url(#clip670)" d="M1293.75 1454.1 Q1290.14 1454.1 1288.31 1457.66 Q1286.51 1461.2 1286.51 1468.33 Q1286.51 1475.44 1288.31 1479.01 Q1290.14 1482.55 1293.75 1482.55 Q1297.39 1482.55 1299.19 1479.01 Q1301.02 1475.44 1301.02 1468.33 Q1301.02 1461.2 1299.19 1457.66 Q1297.39 1454.1 1293.75 1454.1 M1293.75 1450.39 Q1299.56 1450.39 1302.62 1455 Q1305.7 1459.58 1305.7 1468.33 Q1305.7 1477.06 1302.62 1481.67 Q1299.56 1486.25 1293.75 1486.25 Q1287.94 1486.25 1284.86 1481.67 Q1281.81 1477.06 1281.81 1468.33 Q1281.81 1459.58 1284.86 1455 Q1287.94 1450.39 1293.75 1450.39 Z" fill="#000000" fill-rule="nonzero" fill-opacity="1" /><path clip-path="url(#clip670)" d="M1759.31 1451.02 L1781.53 1451.02 L1781.53 1453.01 L1768.99 1485.58 L1764.1 1485.58 L1775.91 1454.96 L1759.31 1454.96 L1759.31 1451.02 Z" fill="#000000" fill-rule="nonzero" fill-opacity="1" /><path clip-path="url(#clip670)" d="M1790.7 1451.02 L1809.06 1451.02 L1809.06 1454.96 L1794.98 1454.96 L1794.98 1463.43 Q1796 1463.08 1797.02 1462.92 Q1798.04 1462.73 1799.06 1462.73 Q1804.84 1462.73 1808.22 1465.9 Q1811.6 1469.08 1811.6 1474.49 Q1811.6 1480.07 1808.13 1483.17 Q1804.66 1486.25 1798.34 1486.25 Q1796.16 1486.25 1793.89 1485.88 Q1791.65 1485.51 1789.24 1484.77 L1789.24 1480.07 Q1791.32 1481.2 1793.55 1481.76 Q1795.77 1482.32 1798.25 1482.32 Q1802.25 1482.32 1804.59 1480.21 Q1806.93 1478.1 1806.93 1474.49 Q1806.93 1470.88 1804.59 1468.77 Q1802.25 1466.67 1798.25 1466.67 Q1796.37 1466.67 1794.5 1467.08 Q1792.64 1467.5 1790.7 1468.38 L1790.7 1451.02 Z" fill="#000000" fill-rule="nonzero" fill-opacity="1" /><path clip-path="url(#clip670)" d="M2251.58 1481.64 L2259.22 1481.64 L2259.22 1455.28 L2250.91 1456.95 L2250.91 1452.69 L2259.17 1451.02 L2263.85 1451.02 L2263.85 1481.64 L2271.49 1481.64 L2271.49 1485.58 L2251.58 1485.58 L2251.58 1481.64 Z" fill="#000000" fill-rule="nonzero" fill-opacity="1" /><path clip-path="url(#clip670)" d="M2290.93 1454.1 Q2287.32 1454.1 2285.49 1457.66 Q2283.69 1461.2 2283.69 1468.33 Q2283.69 1475.44 2285.49 1479.01 Q2287.32 1482.55 2290.93 1482.55 Q2294.57 1482.55 2296.37 1479.01 Q2298.2 1475.44 2298.2 1468.33 Q2298.2 1461.2 2296.37 1457.66 Q2294.57 1454.1 2290.93 1454.1 M2290.93 1450.39 Q2296.74 1450.39 2299.8 1455 Q2302.88 1459.58 2302.88 1468.33 Q2302.88 1477.06 2299.8 1481.67 Q2296.74 1486.25 2290.93 1486.25 Q2285.12 1486.25 2282.04 1481.67 Q2278.99 1477.06 2278.99 1468.33 Q2278.99 1459.58 2282.04 1455 Q2285.12 1450.39 2290.93 1450.39 Z" fill="#000000" fill-rule="nonzero" fill-opacity="1" /><path clip-path="url(#clip670)" d="M2321.09 1454.1 Q2317.48 1454.1 2315.65 1457.66 Q2313.85 1461.2 2313.85 1468.33 Q2313.85 1475.44 2315.65 1479.01 Q2317.48 1482.55 2321.09 1482.55 Q2324.73 1482.55 2326.53 1479.01 Q2328.36 1475.44 2328.36 1468.33 Q2328.36 1461.2 2326.53 1457.66 Q2324.73 1454.1 2321.09 1454.1 M2321.09 1450.39 Q2326.9 1450.39 2329.96 1455 Q2333.04 1459.58 2333.04 1468.33 Q2333.04 1477.06 2329.96 1481.67 Q2326.9 1486.25 2321.09 1486.25 Q2315.28 1486.25 2312.21 1481.67 Q2309.15 1477.06 2309.15 1468.33 Q2309.15 1459.58 2312.21 1455 Q2315.28 1450.39 2321.09 1450.39 Z" fill="#000000" fill-rule="nonzero" fill-opacity="1" /><path clip-path="url(#clip670)" d="M1260.76 1520.52 L1267.67 1520.52 L1279.48 1538.19 L1291.35 1520.52 L1298.26 1520.52 L1282.98 1543.34 L1299.28 1568.04 L1292.37 1568.04 L1279 1547.83 L1265.54 1568.04 L1258.6 1568.04 L1275.56 1542.68 L1260.76 1520.52 Z" fill="#000000" fill-rule="nonzero" fill-opacity="1" /><polyline clip-path="url(#clip670)" style="stroke:#000000; stroke-linecap:round; stroke-linejoin:round; stroke-width:4; stroke-opacity:1; fill:none" points="205.121,1423.18 205.121,47.2441 "/>
<polyline clip-path="url(#clip670)" style="stroke:#000000; stroke-linecap:round; stroke-linejoin:round; stroke-width:4; stroke-opacity:1; fill:none" points="205.121,1295.87 224.019,1295.87 "/>
<polyline clip-path="url(#clip670)" style="stroke:#000000; stroke-linecap:round; stroke-linejoin:round; stroke-width:4; stroke-opacity:1; fill:none" points="205.121,985.199 224.019,985.199 "/>
<polyline clip-path="url(#clip670)" style="stroke:#000000; stroke-linecap:round; stroke-linejoin:round; stroke-width:4; stroke-opacity:1; fill:none" points="205.121,674.529 224.019,674.529 "/>
<polyline clip-path="url(#clip670)" style="stroke:#000000; stroke-linecap:round; stroke-linejoin:round; stroke-width:4; stroke-opacity:1; fill:none" points="205.121,363.859 224.019,363.859 "/>
<polyline clip-path="url(#clip670)" style="stroke:#000000; stroke-linecap:round; stroke-linejoin:round; stroke-width:4; stroke-opacity:1; fill:none" points="205.121,53.1897 224.019,53.1897 "/>
<path clip-path="url(#clip670)" d="M157.177 1281.67 Q153.566 1281.67 151.737 1285.23 Q149.931 1288.77 149.931 1295.9 Q149.931 1303.01 151.737 1306.57 Q153.566 1310.12 157.177 1310.12 Q160.811 1310.12 162.616 1306.57 Q164.445 1303.01 164.445 1295.9 Q164.445 1288.77 162.616 1285.23 Q160.811 1281.67 157.177 1281.67 M157.177 1277.96 Q162.987 1277.96 166.042 1282.57 Q169.121 1287.15 169.121 1295.9 Q169.121 1304.63 166.042 1309.24 Q162.987 1313.82 157.177 1313.82 Q151.366 1313.82 148.288 1309.24 Q145.232 1304.63 145.232 1295.9 Q145.232 1287.15 148.288 1282.57 Q151.366 1277.96 157.177 1277.96 Z" fill="#000000" fill-rule="nonzero" fill-opacity="1" /><path clip-path="url(#clip670)" d="M117.825 998.544 L125.464 998.544 L125.464 972.178 L117.154 973.845 L117.154 969.586 L125.418 967.919 L130.093 967.919 L130.093 998.544 L137.732 998.544 L137.732 1002.48 L117.825 1002.48 L117.825 998.544 Z" fill="#000000" fill-rule="nonzero" fill-opacity="1" /><path clip-path="url(#clip670)" d="M157.177 970.998 Q153.566 970.998 151.737 974.562 Q149.931 978.104 149.931 985.234 Q149.931 992.34 151.737 995.905 Q153.566 999.446 157.177 999.446 Q160.811 999.446 162.616 995.905 Q164.445 992.34 164.445 985.234 Q164.445 978.104 162.616 974.562 Q160.811 970.998 157.177 970.998 M157.177 967.294 Q162.987 967.294 166.042 971.9 Q169.121 976.484 169.121 985.234 Q169.121 993.96 166.042 998.567 Q162.987 1003.15 157.177 1003.15 Q151.366 1003.15 148.288 998.567 Q145.232 993.96 145.232 985.234 Q145.232 976.484 148.288 971.9 Q151.366 967.294 157.177 967.294 Z" fill="#000000" fill-rule="nonzero" fill-opacity="1" /><path clip-path="url(#clip670)" d="M121.043 687.874 L137.362 687.874 L137.362 691.809 L115.418 691.809 L115.418 687.874 Q118.08 685.119 122.663 680.49 Q127.269 675.837 128.45 674.494 Q130.695 671.971 131.575 670.235 Q132.478 668.476 132.478 666.786 Q132.478 664.032 130.533 662.295 Q128.612 660.559 125.51 660.559 Q123.311 660.559 120.857 661.323 Q118.427 662.087 115.649 663.638 L115.649 658.916 Q118.473 657.782 120.927 657.203 Q123.38 656.624 125.418 656.624 Q130.788 656.624 133.982 659.309 Q137.177 661.994 137.177 666.485 Q137.177 668.615 136.367 670.536 Q135.579 672.434 133.473 675.027 Q132.894 675.698 129.792 678.916 Q126.691 682.11 121.043 687.874 Z" fill="#000000" fill-rule="nonzero" fill-opacity="1" /><path clip-path="url(#clip670)" d="M157.177 660.328 Q153.566 660.328 151.737 663.893 Q149.931 667.434 149.931 674.564 Q149.931 681.67 151.737 685.235 Q153.566 688.777 157.177 688.777 Q160.811 688.777 162.616 685.235 Q164.445 681.67 164.445 674.564 Q164.445 667.434 162.616 663.893 Q160.811 660.328 157.177 660.328 M157.177 656.624 Q162.987 656.624 166.042 661.231 Q169.121 665.814 169.121 674.564 Q169.121 683.291 166.042 687.897 Q162.987 692.48 157.177 692.48 Q151.366 692.48 148.288 687.897 Q145.232 683.291 145.232 674.564 Q145.232 665.814 148.288 661.231 Q151.366 656.624 157.177 656.624 Z" fill="#000000" fill-rule="nonzero" fill-opacity="1" /><path clip-path="url(#clip670)" d="M131.181 362.505 Q134.538 363.223 136.413 365.491 Q138.311 367.76 138.311 371.093 Q138.311 376.209 134.792 379.01 Q131.274 381.811 124.793 381.811 Q122.617 381.811 120.302 381.371 Q118.01 380.954 115.556 380.098 L115.556 375.584 Q117.501 376.718 119.816 377.297 Q122.13 377.876 124.654 377.876 Q129.052 377.876 131.343 376.139 Q133.658 374.403 133.658 371.093 Q133.658 368.038 131.505 366.325 Q129.376 364.589 125.556 364.589 L121.529 364.589 L121.529 360.746 L125.742 360.746 Q129.191 360.746 131.019 359.38 Q132.848 357.991 132.848 355.399 Q132.848 352.737 130.95 351.325 Q129.075 349.89 125.556 349.89 Q123.635 349.89 121.436 350.306 Q119.237 350.723 116.598 351.603 L116.598 347.436 Q119.26 346.695 121.575 346.325 Q123.913 345.954 125.973 345.954 Q131.297 345.954 134.399 348.385 Q137.501 350.792 137.501 354.913 Q137.501 357.783 135.857 359.774 Q134.214 361.741 131.181 362.505 Z" fill="#000000" fill-rule="nonzero" fill-opacity="1" /><path clip-path="url(#clip670)" d="M157.177 349.658 Q153.566 349.658 151.737 353.223 Q149.931 356.765 149.931 363.894 Q149.931 371.001 151.737 374.565 Q153.566 378.107 157.177 378.107 Q160.811 378.107 162.616 374.565 Q164.445 371.001 164.445 363.894 Q164.445 356.765 162.616 353.223 Q160.811 349.658 157.177 349.658 M157.177 345.954 Q162.987 345.954 166.042 350.561 Q169.121 355.144 169.121 363.894 Q169.121 372.621 166.042 377.227 Q162.987 381.811 157.177 381.811 Q151.366 381.811 148.288 377.227 Q145.232 372.621 145.232 363.894 Q145.232 355.144 148.288 350.561 Q151.366 345.954 157.177 345.954 Z" fill="#000000" fill-rule="nonzero" fill-opacity="1" /><path clip-path="url(#clip670)" d="M129.862 39.9837 L118.056 58.4327 L129.862 58.4327 L129.862 39.9837 M128.635 35.9097 L134.515 35.9097 L134.515 58.4327 L139.445 58.4327 L139.445 62.3216 L134.515 62.3216 L134.515 70.4697 L129.862 70.4697 L129.862 62.3216 L114.26 62.3216 L114.26 57.8077 L128.635 35.9097 Z" fill="#000000" fill-rule="nonzero" fill-opacity="1" /><path clip-path="url(#clip670)" d="M157.177 38.9884 Q153.566 38.9884 151.737 42.5532 Q149.931 46.0948 149.931 53.2244 Q149.931 60.3308 151.737 63.8956 Q153.566 67.4373 157.177 67.4373 Q160.811 67.4373 162.616 63.8956 Q164.445 60.3308 164.445 53.2244 Q164.445 46.0948 162.616 42.5532 Q160.811 38.9884 157.177 38.9884 M157.177 35.2847 Q162.987 35.2847 166.042 39.8911 Q169.121 44.4744 169.121 53.2244 Q169.121 61.9512 166.042 66.5577 Q162.987 71.141 157.177 71.141 Q151.366 71.141 148.288 66.5577 Q145.232 61.9512 145.232 53.2244 Q145.232 44.4744 148.288 39.8911 Q151.366 35.2847 157.177 35.2847 Z" fill="#000000" fill-rule="nonzero" fill-opacity="1" /><path clip-path="url(#clip670)" d="M16.4842 755.248 L16.4842 748.341 L36.0269 735.164 L16.4842 722.083 L16.4842 715.176 L41.3741 731.981 L64.0042 731.981 L64.0042 738.443 L41.3741 738.443 L16.4842 755.248 Z" fill="#000000" fill-rule="nonzero" fill-opacity="1" /><circle clip-path="url(#clip672)" cx="265.903" cy="1322.8" r="14.4" fill="#009af9" fill-rule="evenodd" fill-opacity="1" stroke="#000000" stroke-opacity="1" stroke-width="3.2"/>
<circle clip-path="url(#clip672)" cx="276.033" cy="1341.95" r="14.4" fill="#009af9" fill-rule="evenodd" fill-opacity="1" stroke="#000000" stroke-opacity="1" stroke-width="3.2"/>
<circle clip-path="url(#clip672)" cx="286.164" cy="1248.22" r="14.4" fill="#009af9" fill-rule="evenodd" fill-opacity="1" stroke="#000000" stroke-opacity="1" stroke-width="3.2"/>
<circle clip-path="url(#clip672)" cx="296.294" cy="1384.24" r="14.4" fill="#009af9" fill-rule="evenodd" fill-opacity="1" stroke="#000000" stroke-opacity="1" stroke-width="3.2"/>
<circle clip-path="url(#clip672)" cx="306.425" cy="1262.31" r="14.4" fill="#009af9" fill-rule="evenodd" fill-opacity="1" stroke="#000000" stroke-opacity="1" stroke-width="3.2"/>
<circle clip-path="url(#clip672)" cx="316.555" cy="1188.13" r="14.4" fill="#009af9" fill-rule="evenodd" fill-opacity="1" stroke="#000000" stroke-opacity="1" stroke-width="3.2"/>
<circle clip-path="url(#clip672)" cx="326.685" cy="1237.43" r="14.4" fill="#009af9" fill-rule="evenodd" fill-opacity="1" stroke="#000000" stroke-opacity="1" stroke-width="3.2"/>
<circle clip-path="url(#clip672)" cx="336.816" cy="1216.37" r="14.4" fill="#009af9" fill-rule="evenodd" fill-opacity="1" stroke="#000000" stroke-opacity="1" stroke-width="3.2"/>
<circle clip-path="url(#clip672)" cx="346.946" cy="1286.08" r="14.4" fill="#009af9" fill-rule="evenodd" fill-opacity="1" stroke="#000000" stroke-opacity="1" stroke-width="3.2"/>
<circle clip-path="url(#clip672)" cx="357.076" cy="1239.36" r="14.4" fill="#009af9" fill-rule="evenodd" fill-opacity="1" stroke="#000000" stroke-opacity="1" stroke-width="3.2"/>
<circle clip-path="url(#clip672)" cx="367.207" cy="1228.57" r="14.4" fill="#009af9" fill-rule="evenodd" fill-opacity="1" stroke="#000000" stroke-opacity="1" stroke-width="3.2"/>
<circle clip-path="url(#clip672)" cx="377.337" cy="1278.12" r="14.4" fill="#009af9" fill-rule="evenodd" fill-opacity="1" stroke="#000000" stroke-opacity="1" stroke-width="3.2"/>
<circle clip-path="url(#clip672)" cx="387.467" cy="1279.76" r="14.4" fill="#009af9" fill-rule="evenodd" fill-opacity="1" stroke="#000000" stroke-opacity="1" stroke-width="3.2"/>
<circle clip-path="url(#clip672)" cx="397.598" cy="1155.52" r="14.4" fill="#009af9" fill-rule="evenodd" fill-opacity="1" stroke="#000000" stroke-opacity="1" stroke-width="3.2"/>
<circle clip-path="url(#clip672)" cx="407.728" cy="1329.52" r="14.4" fill="#009af9" fill-rule="evenodd" fill-opacity="1" stroke="#000000" stroke-opacity="1" stroke-width="3.2"/>
<circle clip-path="url(#clip672)" cx="417.858" cy="1202.6" r="14.4" fill="#009af9" fill-rule="evenodd" fill-opacity="1" stroke="#000000" stroke-opacity="1" stroke-width="3.2"/>
<circle clip-path="url(#clip672)" cx="427.989" cy="1211.93" r="14.4" fill="#009af9" fill-rule="evenodd" fill-opacity="1" stroke="#000000" stroke-opacity="1" stroke-width="3.2"/>
<circle clip-path="url(#clip672)" cx="438.119" cy="1137.75" r="14.4" fill="#009af9" fill-rule="evenodd" fill-opacity="1" stroke="#000000" stroke-opacity="1" stroke-width="3.2"/>
<circle clip-path="url(#clip672)" cx="448.249" cy="1178.68" r="14.4" fill="#009af9" fill-rule="evenodd" fill-opacity="1" stroke="#000000" stroke-opacity="1" stroke-width="3.2"/>
<circle clip-path="url(#clip672)" cx="458.38" cy="1219.2" r="14.4" fill="#009af9" fill-rule="evenodd" fill-opacity="1" stroke="#000000" stroke-opacity="1" stroke-width="3.2"/>
<circle clip-path="url(#clip672)" cx="468.51" cy="1229.33" r="14.4" fill="#009af9" fill-rule="evenodd" fill-opacity="1" stroke="#000000" stroke-opacity="1" stroke-width="3.2"/>
<circle clip-path="url(#clip672)" cx="478.641" cy="1134.96" r="14.4" fill="#009af9" fill-rule="evenodd" fill-opacity="1" stroke="#000000" stroke-opacity="1" stroke-width="3.2"/>
<circle clip-path="url(#clip672)" cx="488.771" cy="1204.11" r="14.4" fill="#009af9" fill-rule="evenodd" fill-opacity="1" stroke="#000000" stroke-opacity="1" stroke-width="3.2"/>
<circle clip-path="url(#clip672)" cx="498.901" cy="1255.86" r="14.4" fill="#009af9" fill-rule="evenodd" fill-opacity="1" stroke="#000000" stroke-opacity="1" stroke-width="3.2"/>
<circle clip-path="url(#clip672)" cx="509.032" cy="1027.26" r="14.4" fill="#009af9" fill-rule="evenodd" fill-opacity="1" stroke="#000000" stroke-opacity="1" stroke-width="3.2"/>
<circle clip-path="url(#clip672)" cx="519.162" cy="1177.21" r="14.4" fill="#009af9" fill-rule="evenodd" fill-opacity="1" stroke="#000000" stroke-opacity="1" stroke-width="3.2"/>
<circle clip-path="url(#clip672)" cx="529.292" cy="1136.57" r="14.4" fill="#009af9" fill-rule="evenodd" fill-opacity="1" stroke="#000000" stroke-opacity="1" stroke-width="3.2"/>
<circle clip-path="url(#clip672)" cx="539.423" cy="1188.45" r="14.4" fill="#009af9" fill-rule="evenodd" fill-opacity="1" stroke="#000000" stroke-opacity="1" stroke-width="3.2"/>
<circle clip-path="url(#clip672)" cx="549.553" cy="1155.38" r="14.4" fill="#009af9" fill-rule="evenodd" fill-opacity="1" stroke="#000000" stroke-opacity="1" stroke-width="3.2"/>
<circle clip-path="url(#clip672)" cx="559.683" cy="1197.91" r="14.4" fill="#009af9" fill-rule="evenodd" fill-opacity="1" stroke="#000000" stroke-opacity="1" stroke-width="3.2"/>
<circle clip-path="url(#clip672)" cx="569.814" cy="1104.58" r="14.4" fill="#009af9" fill-rule="evenodd" fill-opacity="1" stroke="#000000" stroke-opacity="1" stroke-width="3.2"/>
<circle clip-path="url(#clip672)" cx="579.944" cy="1123.91" r="14.4" fill="#009af9" fill-rule="evenodd" fill-opacity="1" stroke="#000000" stroke-opacity="1" stroke-width="3.2"/>
<circle clip-path="url(#clip672)" cx="590.074" cy="1089.01" r="14.4" fill="#009af9" fill-rule="evenodd" fill-opacity="1" stroke="#000000" stroke-opacity="1" stroke-width="3.2"/>
<circle clip-path="url(#clip672)" cx="600.205" cy="1131.15" r="14.4" fill="#009af9" fill-rule="evenodd" fill-opacity="1" stroke="#000000" stroke-opacity="1" stroke-width="3.2"/>
<circle clip-path="url(#clip672)" cx="610.335" cy="1022.83" r="14.4" fill="#009af9" fill-rule="evenodd" fill-opacity="1" stroke="#000000" stroke-opacity="1" stroke-width="3.2"/>
<circle clip-path="url(#clip672)" cx="620.465" cy="1194.69" r="14.4" fill="#009af9" fill-rule="evenodd" fill-opacity="1" stroke="#000000" stroke-opacity="1" stroke-width="3.2"/>
<circle clip-path="url(#clip672)" cx="630.596" cy="1168.67" r="14.4" fill="#009af9" fill-rule="evenodd" fill-opacity="1" stroke="#000000" stroke-opacity="1" stroke-width="3.2"/>
<circle clip-path="url(#clip672)" cx="640.726" cy="1064.75" r="14.4" fill="#009af9" fill-rule="evenodd" fill-opacity="1" stroke="#000000" stroke-opacity="1" stroke-width="3.2"/>
<circle clip-path="url(#clip672)" cx="650.857" cy="1206.94" r="14.4" fill="#009af9" fill-rule="evenodd" fill-opacity="1" stroke="#000000" stroke-opacity="1" stroke-width="3.2"/>
<circle clip-path="url(#clip672)" cx="660.987" cy="1112.47" r="14.4" fill="#009af9" fill-rule="evenodd" fill-opacity="1" stroke="#000000" stroke-opacity="1" stroke-width="3.2"/>
<circle clip-path="url(#clip672)" cx="671.117" cy="1139.45" r="14.4" fill="#009af9" fill-rule="evenodd" fill-opacity="1" stroke="#000000" stroke-opacity="1" stroke-width="3.2"/>
<circle clip-path="url(#clip672)" cx="681.248" cy="1075.12" r="14.4" fill="#009af9" fill-rule="evenodd" fill-opacity="1" stroke="#000000" stroke-opacity="1" stroke-width="3.2"/>
<circle clip-path="url(#clip672)" cx="691.378" cy="1032.88" r="14.4" fill="#009af9" fill-rule="evenodd" fill-opacity="1" stroke="#000000" stroke-opacity="1" stroke-width="3.2"/>
<circle clip-path="url(#clip672)" cx="701.508" cy="1064.45" r="14.4" fill="#009af9" fill-rule="evenodd" fill-opacity="1" stroke="#000000" stroke-opacity="1" stroke-width="3.2"/>
<circle clip-path="url(#clip672)" cx="711.639" cy="1099.75" r="14.4" fill="#009af9" fill-rule="evenodd" fill-opacity="1" stroke="#000000" stroke-opacity="1" stroke-width="3.2"/>
<circle clip-path="url(#clip672)" cx="721.769" cy="1084.62" r="14.4" fill="#009af9" fill-rule="evenodd" fill-opacity="1" stroke="#000000" stroke-opacity="1" stroke-width="3.2"/>
<circle clip-path="url(#clip672)" cx="731.899" cy="1048.89" r="14.4" fill="#009af9" fill-rule="evenodd" fill-opacity="1" stroke="#000000" stroke-opacity="1" stroke-width="3.2"/>
<circle clip-path="url(#clip672)" cx="742.03" cy="1105.37" r="14.4" fill="#009af9" fill-rule="evenodd" fill-opacity="1" stroke="#000000" stroke-opacity="1" stroke-width="3.2"/>
<circle clip-path="url(#clip672)" cx="752.16" cy="1062.38" r="14.4" fill="#009af9" fill-rule="evenodd" fill-opacity="1" stroke="#000000" stroke-opacity="1" stroke-width="3.2"/>
<circle clip-path="url(#clip672)" cx="762.29" cy="1034.85" r="14.4" fill="#009af9" fill-rule="evenodd" fill-opacity="1" stroke="#000000" stroke-opacity="1" stroke-width="3.2"/>
<circle clip-path="url(#clip672)" cx="772.421" cy="1092.89" r="14.4" fill="#009af9" fill-rule="evenodd" fill-opacity="1" stroke="#000000" stroke-opacity="1" stroke-width="3.2"/>
<circle clip-path="url(#clip672)" cx="782.551" cy="1048.92" r="14.4" fill="#009af9" fill-rule="evenodd" fill-opacity="1" stroke="#000000" stroke-opacity="1" stroke-width="3.2"/>
<circle clip-path="url(#clip672)" cx="792.681" cy="1097.38" r="14.4" fill="#009af9" fill-rule="evenodd" fill-opacity="1" stroke="#000000" stroke-opacity="1" stroke-width="3.2"/>
<circle clip-path="url(#clip672)" cx="802.812" cy="1063.02" r="14.4" fill="#009af9" fill-rule="evenodd" fill-opacity="1" stroke="#000000" stroke-opacity="1" stroke-width="3.2"/>
<circle clip-path="url(#clip672)" cx="812.942" cy="941.531" r="14.4" fill="#009af9" fill-rule="evenodd" fill-opacity="1" stroke="#000000" stroke-opacity="1" stroke-width="3.2"/>
<circle clip-path="url(#clip672)" cx="823.073" cy="1082.71" r="14.4" fill="#009af9" fill-rule="evenodd" fill-opacity="1" stroke="#000000" stroke-opacity="1" stroke-width="3.2"/>
<circle clip-path="url(#clip672)" cx="833.203" cy="1071.8" r="14.4" fill="#009af9" fill-rule="evenodd" fill-opacity="1" stroke="#000000" stroke-opacity="1" stroke-width="3.2"/>
<circle clip-path="url(#clip672)" cx="843.333" cy="981.784" r="14.4" fill="#009af9" fill-rule="evenodd" fill-opacity="1" stroke="#000000" stroke-opacity="1" stroke-width="3.2"/>
<circle clip-path="url(#clip672)" cx="853.464" cy="1095.78" r="14.4" fill="#009af9" fill-rule="evenodd" fill-opacity="1" stroke="#000000" stroke-opacity="1" stroke-width="3.2"/>
<circle clip-path="url(#clip672)" cx="863.594" cy="942.933" r="14.4" fill="#009af9" fill-rule="evenodd" fill-opacity="1" stroke="#000000" stroke-opacity="1" stroke-width="3.2"/>
<circle clip-path="url(#clip672)" cx="873.724" cy="1026.75" r="14.4" fill="#009af9" fill-rule="evenodd" fill-opacity="1" stroke="#000000" stroke-opacity="1" stroke-width="3.2"/>
<circle clip-path="url(#clip672)" cx="883.855" cy="931.846" r="14.4" fill="#009af9" fill-rule="evenodd" fill-opacity="1" stroke="#000000" stroke-opacity="1" stroke-width="3.2"/>
<circle clip-path="url(#clip672)" cx="893.985" cy="916.652" r="14.4" fill="#009af9" fill-rule="evenodd" fill-opacity="1" stroke="#000000" stroke-opacity="1" stroke-width="3.2"/>
<circle clip-path="url(#clip672)" cx="904.115" cy="867.569" r="14.4" fill="#009af9" fill-rule="evenodd" fill-opacity="1" stroke="#000000" stroke-opacity="1" stroke-width="3.2"/>
<circle clip-path="url(#clip672)" cx="914.246" cy="832.822" r="14.4" fill="#009af9" fill-rule="evenodd" fill-opacity="1" stroke="#000000" stroke-opacity="1" stroke-width="3.2"/>
<circle clip-path="url(#clip672)" cx="924.376" cy="882.023" r="14.4" fill="#009af9" fill-rule="evenodd" fill-opacity="1" stroke="#000000" stroke-opacity="1" stroke-width="3.2"/>
<circle clip-path="url(#clip672)" cx="934.506" cy="743.178" r="14.4" fill="#009af9" fill-rule="evenodd" fill-opacity="1" stroke="#000000" stroke-opacity="1" stroke-width="3.2"/>
<circle clip-path="url(#clip672)" cx="944.637" cy="815.966" r="14.4" fill="#009af9" fill-rule="evenodd" fill-opacity="1" stroke="#000000" stroke-opacity="1" stroke-width="3.2"/>
<circle clip-path="url(#clip672)" cx="954.767" cy="843.642" r="14.4" fill="#009af9" fill-rule="evenodd" fill-opacity="1" stroke="#000000" stroke-opacity="1" stroke-width="3.2"/>
<circle clip-path="url(#clip672)" cx="964.897" cy="766.15" r="14.4" fill="#009af9" fill-rule="evenodd" fill-opacity="1" stroke="#000000" stroke-opacity="1" stroke-width="3.2"/>
<circle clip-path="url(#clip672)" cx="975.028" cy="710.878" r="14.4" fill="#009af9" fill-rule="evenodd" fill-opacity="1" stroke="#000000" stroke-opacity="1" stroke-width="3.2"/>
<circle clip-path="url(#clip672)" cx="985.158" cy="641.751" r="14.4" fill="#009af9" fill-rule="evenodd" fill-opacity="1" stroke="#000000" stroke-opacity="1" stroke-width="3.2"/>
<circle clip-path="url(#clip672)" cx="995.289" cy="550.997" r="14.4" fill="#009af9" fill-rule="evenodd" fill-opacity="1" stroke="#000000" stroke-opacity="1" stroke-width="3.2"/>
<circle clip-path="url(#clip672)" cx="1005.42" cy="793.283" r="14.4" fill="#009af9" fill-rule="evenodd" fill-opacity="1" stroke="#000000" stroke-opacity="1" stroke-width="3.2"/>
<circle clip-path="url(#clip672)" cx="1015.55" cy="637.506" r="14.4" fill="#009af9" fill-rule="evenodd" fill-opacity="1" stroke="#000000" stroke-opacity="1" stroke-width="3.2"/>
<circle clip-path="url(#clip672)" cx="1025.68" cy="513.959" r="14.4" fill="#009af9" fill-rule="evenodd" fill-opacity="1" stroke="#000000" stroke-opacity="1" stroke-width="3.2"/>
<circle clip-path="url(#clip672)" cx="1035.81" cy="507.045" r="14.4" fill="#009af9" fill-rule="evenodd" fill-opacity="1" stroke="#000000" stroke-opacity="1" stroke-width="3.2"/>
<circle clip-path="url(#clip672)" cx="1045.94" cy="583.073" r="14.4" fill="#009af9" fill-rule="evenodd" fill-opacity="1" stroke="#000000" stroke-opacity="1" stroke-width="3.2"/>
<circle clip-path="url(#clip672)" cx="1056.07" cy="483.54" r="14.4" fill="#009af9" fill-rule="evenodd" fill-opacity="1" stroke="#000000" stroke-opacity="1" stroke-width="3.2"/>
<circle clip-path="url(#clip672)" cx="1066.2" cy="490.183" r="14.4" fill="#009af9" fill-rule="evenodd" fill-opacity="1" stroke="#000000" stroke-opacity="1" stroke-width="3.2"/>
<circle clip-path="url(#clip672)" cx="1076.33" cy="622.389" r="14.4" fill="#009af9" fill-rule="evenodd" fill-opacity="1" stroke="#000000" stroke-opacity="1" stroke-width="3.2"/>
<circle clip-path="url(#clip672)" cx="1086.46" cy="323.433" r="14.4" fill="#009af9" fill-rule="evenodd" fill-opacity="1" stroke="#000000" stroke-opacity="1" stroke-width="3.2"/>
<circle clip-path="url(#clip672)" cx="1096.59" cy="496.534" r="14.4" fill="#009af9" fill-rule="evenodd" fill-opacity="1" stroke="#000000" stroke-opacity="1" stroke-width="3.2"/>
<circle clip-path="url(#clip672)" cx="1106.72" cy="448.675" r="14.4" fill="#009af9" fill-rule="evenodd" fill-opacity="1" stroke="#000000" stroke-opacity="1" stroke-width="3.2"/>
<circle clip-path="url(#clip672)" cx="1116.85" cy="563.141" r="14.4" fill="#009af9" fill-rule="evenodd" fill-opacity="1" stroke="#000000" stroke-opacity="1" stroke-width="3.2"/>
<circle clip-path="url(#clip672)" cx="1126.98" cy="269.584" r="14.4" fill="#009af9" fill-rule="evenodd" fill-opacity="1" stroke="#000000" stroke-opacity="1" stroke-width="3.2"/>
<circle clip-path="url(#clip672)" cx="1137.11" cy="405.577" r="14.4" fill="#009af9" fill-rule="evenodd" fill-opacity="1" stroke="#000000" stroke-opacity="1" stroke-width="3.2"/>
<circle clip-path="url(#clip672)" cx="1147.24" cy="354.57" r="14.4" fill="#009af9" fill-rule="evenodd" fill-opacity="1" stroke="#000000" stroke-opacity="1" stroke-width="3.2"/>
<circle clip-path="url(#clip672)" cx="1157.37" cy="425.502" r="14.4" fill="#009af9" fill-rule="evenodd" fill-opacity="1" stroke="#000000" stroke-opacity="1" stroke-width="3.2"/>
<circle clip-path="url(#clip672)" cx="1167.5" cy="487.856" r="14.4" fill="#009af9" fill-rule="evenodd" fill-opacity="1" stroke="#000000" stroke-opacity="1" stroke-width="3.2"/>
<circle clip-path="url(#clip672)" cx="1177.63" cy="345.022" r="14.4" fill="#009af9" fill-rule="evenodd" fill-opacity="1" stroke="#000000" stroke-opacity="1" stroke-width="3.2"/>
<circle clip-path="url(#clip672)" cx="1187.77" cy="352.338" r="14.4" fill="#009af9" fill-rule="evenodd" fill-opacity="1" stroke="#000000" stroke-opacity="1" stroke-width="3.2"/>
<circle clip-path="url(#clip672)" cx="1197.9" cy="453.926" r="14.4" fill="#009af9" fill-rule="evenodd" fill-opacity="1" stroke="#000000" stroke-opacity="1" stroke-width="3.2"/>
<circle clip-path="url(#clip672)" cx="1208.03" cy="436.508" r="14.4" fill="#009af9" fill-rule="evenodd" fill-opacity="1" stroke="#000000" stroke-opacity="1" stroke-width="3.2"/>
<circle clip-path="url(#clip672)" cx="1218.16" cy="484.707" r="14.4" fill="#009af9" fill-rule="evenodd" fill-opacity="1" stroke="#000000" stroke-opacity="1" stroke-width="3.2"/>
<circle clip-path="url(#clip672)" cx="1228.29" cy="520.381" r="14.4" fill="#009af9" fill-rule="evenodd" fill-opacity="1" stroke="#000000" stroke-opacity="1" stroke-width="3.2"/>
<circle clip-path="url(#clip672)" cx="1238.42" cy="465.19" r="14.4" fill="#009af9" fill-rule="evenodd" fill-opacity="1" stroke="#000000" stroke-opacity="1" stroke-width="3.2"/>
<circle clip-path="url(#clip672)" cx="1248.55" cy="435.274" r="14.4" fill="#009af9" fill-rule="evenodd" fill-opacity="1" stroke="#000000" stroke-opacity="1" stroke-width="3.2"/>
<circle clip-path="url(#clip672)" cx="1258.68" cy="432.34" r="14.4" fill="#009af9" fill-rule="evenodd" fill-opacity="1" stroke="#000000" stroke-opacity="1" stroke-width="3.2"/>
<circle clip-path="url(#clip672)" cx="1268.81" cy="367.884" r="14.4" fill="#009af9" fill-rule="evenodd" fill-opacity="1" stroke="#000000" stroke-opacity="1" stroke-width="3.2"/>
<circle clip-path="url(#clip672)" cx="1278.94" cy="375.8" r="14.4" fill="#009af9" fill-rule="evenodd" fill-opacity="1" stroke="#000000" stroke-opacity="1" stroke-width="3.2"/>
<circle clip-path="url(#clip672)" cx="1289.07" cy="372.114" r="14.4" fill="#009af9" fill-rule="evenodd" fill-opacity="1" stroke="#000000" stroke-opacity="1" stroke-width="3.2"/>
<circle clip-path="url(#clip672)" cx="1299.2" cy="370.951" r="14.4" fill="#009af9" fill-rule="evenodd" fill-opacity="1" stroke="#000000" stroke-opacity="1" stroke-width="3.2"/>
<circle clip-path="url(#clip672)" cx="1309.33" cy="462.148" r="14.4" fill="#009af9" fill-rule="evenodd" fill-opacity="1" stroke="#000000" stroke-opacity="1" stroke-width="3.2"/>
<circle clip-path="url(#clip672)" cx="1319.46" cy="424.272" r="14.4" fill="#009af9" fill-rule="evenodd" fill-opacity="1" stroke="#000000" stroke-opacity="1" stroke-width="3.2"/>
<circle clip-path="url(#clip672)" cx="1329.59" cy="410.817" r="14.4" fill="#009af9" fill-rule="evenodd" fill-opacity="1" stroke="#000000" stroke-opacity="1" stroke-width="3.2"/>
<circle clip-path="url(#clip672)" cx="1339.72" cy="275.62" r="14.4" fill="#009af9" fill-rule="evenodd" fill-opacity="1" stroke="#000000" stroke-opacity="1" stroke-width="3.2"/>
<circle clip-path="url(#clip672)" cx="1349.85" cy="367.805" r="14.4" fill="#009af9" fill-rule="evenodd" fill-opacity="1" stroke="#000000" stroke-opacity="1" stroke-width="3.2"/>
<circle clip-path="url(#clip672)" cx="1359.98" cy="241.123" r="14.4" fill="#009af9" fill-rule="evenodd" fill-opacity="1" stroke="#000000" stroke-opacity="1" stroke-width="3.2"/>
<circle clip-path="url(#clip672)" cx="1370.11" cy="294.251" r="14.4" fill="#009af9" fill-rule="evenodd" fill-opacity="1" stroke="#000000" stroke-opacity="1" stroke-width="3.2"/>
<circle clip-path="url(#clip672)" cx="1380.24" cy="258.614" r="14.4" fill="#009af9" fill-rule="evenodd" fill-opacity="1" stroke="#000000" stroke-opacity="1" stroke-width="3.2"/>
<circle clip-path="url(#clip672)" cx="1390.37" cy="155.334" r="14.4" fill="#009af9" fill-rule="evenodd" fill-opacity="1" stroke="#000000" stroke-opacity="1" stroke-width="3.2"/>
<circle clip-path="url(#clip672)" cx="1400.5" cy="283.89" r="14.4" fill="#009af9" fill-rule="evenodd" fill-opacity="1" stroke="#000000" stroke-opacity="1" stroke-width="3.2"/>
<circle clip-path="url(#clip672)" cx="1410.63" cy="223.318" r="14.4" fill="#009af9" fill-rule="evenodd" fill-opacity="1" stroke="#000000" stroke-opacity="1" stroke-width="3.2"/>
<circle clip-path="url(#clip672)" cx="1420.76" cy="214.648" r="14.4" fill="#009af9" fill-rule="evenodd" fill-opacity="1" stroke="#000000" stroke-opacity="1" stroke-width="3.2"/>
<circle clip-path="url(#clip672)" cx="1430.89" cy="86.1857" r="14.4" fill="#009af9" fill-rule="evenodd" fill-opacity="1" stroke="#000000" stroke-opacity="1" stroke-width="3.2"/>
<circle clip-path="url(#clip672)" cx="1441.02" cy="179.758" r="14.4" fill="#009af9" fill-rule="evenodd" fill-opacity="1" stroke="#000000" stroke-opacity="1" stroke-width="3.2"/>
<circle clip-path="url(#clip672)" cx="1451.15" cy="156.985" r="14.4" fill="#009af9" fill-rule="evenodd" fill-opacity="1" stroke="#000000" stroke-opacity="1" stroke-width="3.2"/>
<circle clip-path="url(#clip672)" cx="1461.28" cy="297.775" r="14.4" fill="#009af9" fill-rule="evenodd" fill-opacity="1" stroke="#000000" stroke-opacity="1" stroke-width="3.2"/>
<circle clip-path="url(#clip672)" cx="1471.42" cy="249.528" r="14.4" fill="#009af9" fill-rule="evenodd" fill-opacity="1" stroke="#000000" stroke-opacity="1" stroke-width="3.2"/>
<circle clip-path="url(#clip672)" cx="1481.55" cy="155.8" r="14.4" fill="#009af9" fill-rule="evenodd" fill-opacity="1" stroke="#000000" stroke-opacity="1" stroke-width="3.2"/>
<circle clip-path="url(#clip672)" cx="1491.68" cy="171.935" r="14.4" fill="#009af9" fill-rule="evenodd" fill-opacity="1" stroke="#000000" stroke-opacity="1" stroke-width="3.2"/>
<circle clip-path="url(#clip672)" cx="1501.81" cy="186.651" r="14.4" fill="#009af9" fill-rule="evenodd" fill-opacity="1" stroke="#000000" stroke-opacity="1" stroke-width="3.2"/>
<circle clip-path="url(#clip672)" cx="1511.94" cy="298.94" r="14.4" fill="#009af9" fill-rule="evenodd" fill-opacity="1" stroke="#000000" stroke-opacity="1" stroke-width="3.2"/>
<circle clip-path="url(#clip672)" cx="1522.07" cy="179.156" r="14.4" fill="#009af9" fill-rule="evenodd" fill-opacity="1" stroke="#000000" stroke-opacity="1" stroke-width="3.2"/>
<circle clip-path="url(#clip672)" cx="1532.2" cy="163.454" r="14.4" fill="#009af9" fill-rule="evenodd" fill-opacity="1" stroke="#000000" stroke-opacity="1" stroke-width="3.2"/>
<circle clip-path="url(#clip672)" cx="1542.33" cy="180.366" r="14.4" fill="#009af9" fill-rule="evenodd" fill-opacity="1" stroke="#000000" stroke-opacity="1" stroke-width="3.2"/>
<circle clip-path="url(#clip672)" cx="1552.46" cy="132.234" r="14.4" fill="#009af9" fill-rule="evenodd" fill-opacity="1" stroke="#000000" stroke-opacity="1" stroke-width="3.2"/>
<circle clip-path="url(#clip672)" cx="1562.59" cy="228.663" r="14.4" fill="#009af9" fill-rule="evenodd" fill-opacity="1" stroke="#000000" stroke-opacity="1" stroke-width="3.2"/>
<circle clip-path="url(#clip672)" cx="1572.72" cy="266.807" r="14.4" fill="#009af9" fill-rule="evenodd" fill-opacity="1" stroke="#000000" stroke-opacity="1" stroke-width="3.2"/>
<circle clip-path="url(#clip672)" cx="1582.85" cy="353.056" r="14.4" fill="#009af9" fill-rule="evenodd" fill-opacity="1" stroke="#000000" stroke-opacity="1" stroke-width="3.2"/>
<circle clip-path="url(#clip672)" cx="1592.98" cy="223.311" r="14.4" fill="#009af9" fill-rule="evenodd" fill-opacity="1" stroke="#000000" stroke-opacity="1" stroke-width="3.2"/>
<circle clip-path="url(#clip672)" cx="1603.11" cy="119.621" r="14.4" fill="#009af9" fill-rule="evenodd" fill-opacity="1" stroke="#000000" stroke-opacity="1" stroke-width="3.2"/>
<circle clip-path="url(#clip672)" cx="1613.24" cy="308.007" r="14.4" fill="#009af9" fill-rule="evenodd" fill-opacity="1" stroke="#000000" stroke-opacity="1" stroke-width="3.2"/>
<circle clip-path="url(#clip672)" cx="1623.37" cy="288.018" r="14.4" fill="#009af9" fill-rule="evenodd" fill-opacity="1" stroke="#000000" stroke-opacity="1" stroke-width="3.2"/>
<circle clip-path="url(#clip672)" cx="1633.5" cy="178.737" r="14.4" fill="#009af9" fill-rule="evenodd" fill-opacity="1" stroke="#000000" stroke-opacity="1" stroke-width="3.2"/>
<circle clip-path="url(#clip672)" cx="1643.63" cy="227.188" r="14.4" fill="#009af9" fill-rule="evenodd" fill-opacity="1" stroke="#000000" stroke-opacity="1" stroke-width="3.2"/>
<circle clip-path="url(#clip672)" cx="1653.76" cy="307.668" r="14.4" fill="#009af9" fill-rule="evenodd" fill-opacity="1" stroke="#000000" stroke-opacity="1" stroke-width="3.2"/>
<circle clip-path="url(#clip672)" cx="1663.89" cy="408.749" r="14.4" fill="#009af9" fill-rule="evenodd" fill-opacity="1" stroke="#000000" stroke-opacity="1" stroke-width="3.2"/>
<circle clip-path="url(#clip672)" cx="1674.02" cy="275.558" r="14.4" fill="#009af9" fill-rule="evenodd" fill-opacity="1" stroke="#000000" stroke-opacity="1" stroke-width="3.2"/>
<circle clip-path="url(#clip672)" cx="1684.15" cy="255.929" r="14.4" fill="#009af9" fill-rule="evenodd" fill-opacity="1" stroke="#000000" stroke-opacity="1" stroke-width="3.2"/>
<circle clip-path="url(#clip672)" cx="1694.28" cy="398.31" r="14.4" fill="#009af9" fill-rule="evenodd" fill-opacity="1" stroke="#000000" stroke-opacity="1" stroke-width="3.2"/>
<circle clip-path="url(#clip672)" cx="1704.41" cy="282.353" r="14.4" fill="#009af9" fill-rule="evenodd" fill-opacity="1" stroke="#000000" stroke-opacity="1" stroke-width="3.2"/>
<circle clip-path="url(#clip672)" cx="1714.54" cy="429.557" r="14.4" fill="#009af9" fill-rule="evenodd" fill-opacity="1" stroke="#000000" stroke-opacity="1" stroke-width="3.2"/>
<circle clip-path="url(#clip672)" cx="1724.67" cy="405.723" r="14.4" fill="#009af9" fill-rule="evenodd" fill-opacity="1" stroke="#000000" stroke-opacity="1" stroke-width="3.2"/>
<circle clip-path="url(#clip672)" cx="1734.8" cy="249.06" r="14.4" fill="#009af9" fill-rule="evenodd" fill-opacity="1" stroke="#000000" stroke-opacity="1" stroke-width="3.2"/>
<circle clip-path="url(#clip672)" cx="1744.93" cy="408.633" r="14.4" fill="#009af9" fill-rule="evenodd" fill-opacity="1" stroke="#000000" stroke-opacity="1" stroke-width="3.2"/>
<circle clip-path="url(#clip672)" cx="1755.07" cy="381.561" r="14.4" fill="#009af9" fill-rule="evenodd" fill-opacity="1" stroke="#000000" stroke-opacity="1" stroke-width="3.2"/>
<circle clip-path="url(#clip672)" cx="1765.2" cy="351.378" r="14.4" fill="#009af9" fill-rule="evenodd" fill-opacity="1" stroke="#000000" stroke-opacity="1" stroke-width="3.2"/>
<circle clip-path="url(#clip672)" cx="1775.33" cy="441.786" r="14.4" fill="#009af9" fill-rule="evenodd" fill-opacity="1" stroke="#000000" stroke-opacity="1" stroke-width="3.2"/>
<circle clip-path="url(#clip672)" cx="1785.46" cy="543.477" r="14.4" fill="#009af9" fill-rule="evenodd" fill-opacity="1" stroke="#000000" stroke-opacity="1" stroke-width="3.2"/>
<circle clip-path="url(#clip672)" cx="1795.59" cy="384.588" r="14.4" fill="#009af9" fill-rule="evenodd" fill-opacity="1" stroke="#000000" stroke-opacity="1" stroke-width="3.2"/>
<circle clip-path="url(#clip672)" cx="1805.72" cy="583.182" r="14.4" fill="#009af9" fill-rule="evenodd" fill-opacity="1" stroke="#000000" stroke-opacity="1" stroke-width="3.2"/>
<circle clip-path="url(#clip672)" cx="1815.85" cy="420.494" r="14.4" fill="#009af9" fill-rule="evenodd" fill-opacity="1" stroke="#000000" stroke-opacity="1" stroke-width="3.2"/>
<circle clip-path="url(#clip672)" cx="1825.98" cy="625.455" r="14.4" fill="#009af9" fill-rule="evenodd" fill-opacity="1" stroke="#000000" stroke-opacity="1" stroke-width="3.2"/>
<circle clip-path="url(#clip672)" cx="1836.11" cy="507.483" r="14.4" fill="#009af9" fill-rule="evenodd" fill-opacity="1" stroke="#000000" stroke-opacity="1" stroke-width="3.2"/>
<circle clip-path="url(#clip672)" cx="1846.24" cy="624.914" r="14.4" fill="#009af9" fill-rule="evenodd" fill-opacity="1" stroke="#000000" stroke-opacity="1" stroke-width="3.2"/>
<circle clip-path="url(#clip672)" cx="1856.37" cy="617.653" r="14.4" fill="#009af9" fill-rule="evenodd" fill-opacity="1" stroke="#000000" stroke-opacity="1" stroke-width="3.2"/>
<circle clip-path="url(#clip672)" cx="1866.5" cy="465.611" r="14.4" fill="#009af9" fill-rule="evenodd" fill-opacity="1" stroke="#000000" stroke-opacity="1" stroke-width="3.2"/>
<circle clip-path="url(#clip672)" cx="1876.63" cy="480.72" r="14.4" fill="#009af9" fill-rule="evenodd" fill-opacity="1" stroke="#000000" stroke-opacity="1" stroke-width="3.2"/>
<circle clip-path="url(#clip672)" cx="1886.76" cy="635.412" r="14.4" fill="#009af9" fill-rule="evenodd" fill-opacity="1" stroke="#000000" stroke-opacity="1" stroke-width="3.2"/>
<circle clip-path="url(#clip672)" cx="1896.89" cy="640.797" r="14.4" fill="#009af9" fill-rule="evenodd" fill-opacity="1" stroke="#000000" stroke-opacity="1" stroke-width="3.2"/>
<circle clip-path="url(#clip672)" cx="1907.02" cy="643.723" r="14.4" fill="#009af9" fill-rule="evenodd" fill-opacity="1" stroke="#000000" stroke-opacity="1" stroke-width="3.2"/>
<circle clip-path="url(#clip672)" cx="1917.15" cy="601.59" r="14.4" fill="#009af9" fill-rule="evenodd" fill-opacity="1" stroke="#000000" stroke-opacity="1" stroke-width="3.2"/>
<circle clip-path="url(#clip672)" cx="1927.28" cy="639.385" r="14.4" fill="#009af9" fill-rule="evenodd" fill-opacity="1" stroke="#000000" stroke-opacity="1" stroke-width="3.2"/>
<circle clip-path="url(#clip672)" cx="1937.41" cy="557.135" r="14.4" fill="#009af9" fill-rule="evenodd" fill-opacity="1" stroke="#000000" stroke-opacity="1" stroke-width="3.2"/>
<circle clip-path="url(#clip672)" cx="1947.54" cy="546.099" r="14.4" fill="#009af9" fill-rule="evenodd" fill-opacity="1" stroke="#000000" stroke-opacity="1" stroke-width="3.2"/>
<circle clip-path="url(#clip672)" cx="1957.67" cy="657.032" r="14.4" fill="#009af9" fill-rule="evenodd" fill-opacity="1" stroke="#000000" stroke-opacity="1" stroke-width="3.2"/>
<circle clip-path="url(#clip672)" cx="1967.8" cy="548.763" r="14.4" fill="#009af9" fill-rule="evenodd" fill-opacity="1" stroke="#000000" stroke-opacity="1" stroke-width="3.2"/>
<circle clip-path="url(#clip672)" cx="1977.93" cy="545.387" r="14.4" fill="#009af9" fill-rule="evenodd" fill-opacity="1" stroke="#000000" stroke-opacity="1" stroke-width="3.2"/>
<circle clip-path="url(#clip672)" cx="1988.06" cy="777.293" r="14.4" fill="#009af9" fill-rule="evenodd" fill-opacity="1" stroke="#000000" stroke-opacity="1" stroke-width="3.2"/>
<circle clip-path="url(#clip672)" cx="1998.19" cy="591.429" r="14.4" fill="#009af9" fill-rule="evenodd" fill-opacity="1" stroke="#000000" stroke-opacity="1" stroke-width="3.2"/>
<circle clip-path="url(#clip672)" cx="2008.32" cy="638.407" r="14.4" fill="#009af9" fill-rule="evenodd" fill-opacity="1" stroke="#000000" stroke-opacity="1" stroke-width="3.2"/>
<circle clip-path="url(#clip672)" cx="2018.45" cy="624.479" r="14.4" fill="#009af9" fill-rule="evenodd" fill-opacity="1" stroke="#000000" stroke-opacity="1" stroke-width="3.2"/>
<circle clip-path="url(#clip672)" cx="2028.58" cy="754.412" r="14.4" fill="#009af9" fill-rule="evenodd" fill-opacity="1" stroke="#000000" stroke-opacity="1" stroke-width="3.2"/>
<circle clip-path="url(#clip672)" cx="2038.71" cy="744.166" r="14.4" fill="#009af9" fill-rule="evenodd" fill-opacity="1" stroke="#000000" stroke-opacity="1" stroke-width="3.2"/>
<circle clip-path="url(#clip672)" cx="2048.85" cy="725.902" r="14.4" fill="#009af9" fill-rule="evenodd" fill-opacity="1" stroke="#000000" stroke-opacity="1" stroke-width="3.2"/>
<circle clip-path="url(#clip672)" cx="2058.98" cy="663.989" r="14.4" fill="#009af9" fill-rule="evenodd" fill-opacity="1" stroke="#000000" stroke-opacity="1" stroke-width="3.2"/>
<circle clip-path="url(#clip672)" cx="2069.11" cy="801.583" r="14.4" fill="#009af9" fill-rule="evenodd" fill-opacity="1" stroke="#000000" stroke-opacity="1" stroke-width="3.2"/>
<circle clip-path="url(#clip672)" cx="2079.24" cy="669.404" r="14.4" fill="#009af9" fill-rule="evenodd" fill-opacity="1" stroke="#000000" stroke-opacity="1" stroke-width="3.2"/>
<circle clip-path="url(#clip672)" cx="2089.37" cy="687.381" r="14.4" fill="#009af9" fill-rule="evenodd" fill-opacity="1" stroke="#000000" stroke-opacity="1" stroke-width="3.2"/>
<circle clip-path="url(#clip672)" cx="2099.5" cy="650.997" r="14.4" fill="#009af9" fill-rule="evenodd" fill-opacity="1" stroke="#000000" stroke-opacity="1" stroke-width="3.2"/>
<circle clip-path="url(#clip672)" cx="2109.63" cy="601.954" r="14.4" fill="#009af9" fill-rule="evenodd" fill-opacity="1" stroke="#000000" stroke-opacity="1" stroke-width="3.2"/>
<circle clip-path="url(#clip672)" cx="2119.76" cy="710.079" r="14.4" fill="#009af9" fill-rule="evenodd" fill-opacity="1" stroke="#000000" stroke-opacity="1" stroke-width="3.2"/>
<circle clip-path="url(#clip672)" cx="2129.89" cy="644.775" r="14.4" fill="#009af9" fill-rule="evenodd" fill-opacity="1" stroke="#000000" stroke-opacity="1" stroke-width="3.2"/>
<circle clip-path="url(#clip672)" cx="2140.02" cy="688.587" r="14.4" fill="#009af9" fill-rule="evenodd" fill-opacity="1" stroke="#000000" stroke-opacity="1" stroke-width="3.2"/>
<circle clip-path="url(#clip672)" cx="2150.15" cy="696.258" r="14.4" fill="#009af9" fill-rule="evenodd" fill-opacity="1" stroke="#000000" stroke-opacity="1" stroke-width="3.2"/>
<circle clip-path="url(#clip672)" cx="2160.28" cy="705.956" r="14.4" fill="#009af9" fill-rule="evenodd" fill-opacity="1" stroke="#000000" stroke-opacity="1" stroke-width="3.2"/>
<circle clip-path="url(#clip672)" cx="2170.41" cy="690.216" r="14.4" fill="#009af9" fill-rule="evenodd" fill-opacity="1" stroke="#000000" stroke-opacity="1" stroke-width="3.2"/>
<circle clip-path="url(#clip672)" cx="2180.54" cy="662.381" r="14.4" fill="#009af9" fill-rule="evenodd" fill-opacity="1" stroke="#000000" stroke-opacity="1" stroke-width="3.2"/>
<circle clip-path="url(#clip672)" cx="2190.67" cy="716.309" r="14.4" fill="#009af9" fill-rule="evenodd" fill-opacity="1" stroke="#000000" stroke-opacity="1" stroke-width="3.2"/>
<circle clip-path="url(#clip672)" cx="2200.8" cy="665.718" r="14.4" fill="#009af9" fill-rule="evenodd" fill-opacity="1" stroke="#000000" stroke-opacity="1" stroke-width="3.2"/>
<circle clip-path="url(#clip672)" cx="2210.93" cy="662.451" r="14.4" fill="#009af9" fill-rule="evenodd" fill-opacity="1" stroke="#000000" stroke-opacity="1" stroke-width="3.2"/>
<circle clip-path="url(#clip672)" cx="2221.06" cy="697.183" r="14.4" fill="#009af9" fill-rule="evenodd" fill-opacity="1" stroke="#000000" stroke-opacity="1" stroke-width="3.2"/>
<circle clip-path="url(#clip672)" cx="2231.19" cy="719.122" r="14.4" fill="#009af9" fill-rule="evenodd" fill-opacity="1" stroke="#000000" stroke-opacity="1" stroke-width="3.2"/>
<circle clip-path="url(#clip672)" cx="2241.32" cy="659.025" r="14.4" fill="#009af9" fill-rule="evenodd" fill-opacity="1" stroke="#000000" stroke-opacity="1" stroke-width="3.2"/>
<circle clip-path="url(#clip672)" cx="2251.45" cy="739.513" r="14.4" fill="#009af9" fill-rule="evenodd" fill-opacity="1" stroke="#000000" stroke-opacity="1" stroke-width="3.2"/>
<circle clip-path="url(#clip672)" cx="2261.58" cy="647.298" r="14.4" fill="#009af9" fill-rule="evenodd" fill-opacity="1" stroke="#000000" stroke-opacity="1" stroke-width="3.2"/>
<circle clip-path="url(#clip672)" cx="2271.71" cy="701.824" r="14.4" fill="#009af9" fill-rule="evenodd" fill-opacity="1" stroke="#000000" stroke-opacity="1" stroke-width="3.2"/>
<circle clip-path="url(#clip672)" cx="2281.84" cy="757.238" r="14.4" fill="#009af9" fill-rule="evenodd" fill-opacity="1" stroke="#000000" stroke-opacity="1" stroke-width="3.2"/>
<circle clip-path="url(#clip672)" cx="2291.97" cy="833.728" r="14.4" fill="#009af9" fill-rule="evenodd" fill-opacity="1" stroke="#000000" stroke-opacity="1" stroke-width="3.2"/>
<polyline clip-path="url(#clip672)" style="stroke:#e26f46; stroke-linecap:round; stroke-linejoin:round; stroke-width:4; stroke-opacity:1; fill:none" points="265.903,1270.05 276.033,1269.48 286.164,1269.06 296.294,1272.4 306.425,1268.09 316.555,1275.53 326.685,1272.39 336.816,1263.32 346.946,1257.51 357.076,1248.91 367.207,1243.46 377.337,1237.53 387.467,1231.57 397.598,1222.09 407.728,1221.75 417.858,1213.29 427.989,1210.12 438.119,1205.92 448.249,1200.78 458.38,1196.36 468.51,1194.74 478.641,1185.61 488.771,1177.41 498.901,1173.91 509.032,1163.47 519.162,1154.01 529.292,1153.1 539.423,1154.73 549.553,1148.73 559.683,1148.08 569.814,1141.93 579.944,1142.17 590.074,1135.38 600.205,1123.64 610.335,1125.6 620.465,1121.53 630.596,1118.79 640.726,1111.45 650.857,1108.81 660.987,1101.68 671.117,1098.01 681.248,1096.38 691.378,1094.27 701.508,1092.49 711.639,1094.61 721.769,1081.28 731.899,1076.76 742.03,1077.13 752.16,1065.28 762.29,1064.4 772.421,1054.06 782.551,1051.51 792.681,1046.19 802.812,1038.41 812.942,1026.19 823.073,1012.94 833.203,1004.16 843.333,985.096 853.464,972.127 863.594,962.063 873.724,944.866 883.855,927.074 893.985,903.094 904.115,876.145 914.246,868.343 924.376,844.911 934.506,815.551 944.637,790.565 954.767,763.58 964.897,739.401 975.028,711.161 985.158,694.874 995.289,663.652 1005.42,644.124 1015.55,623.905 1025.68,607.122 1035.81,582.196 1045.94,560.597 1056.07,534.856 1066.2,516.927 1076.33,505.189 1086.46,489.572 1096.59,479.116 1106.72,461.255 1116.85,450.676 1126.98,449.137 1137.11,449.839 1147.24,443.634 1157.37,441.094 1167.5,438.05 1177.63,424.655 1187.77,427.411 1197.9,420.862 1208.03,416.772 1218.16,411.456 1228.29,419.598 1238.42,419.874 1248.55,415.718 1258.68,412.682 1268.81,399.696 1278.94,397.024 1289.07,392.091 1299.2,376.375 1309.33,368.343 1319.46,354.586 1329.59,338.494 1339.72,318.547 1349.85,305.099 1359.98,290.606 1370.11,286.916 1380.24,280.27 1390.37,268.885 1400.5,258.411 1410.63,243.911 1420.76,237.315 1430.89,225.122 1441.02,219.218 1451.15,209.353 1461.28,203.622 1471.42,200.17 1481.55,200.602 1491.68,211.008 1501.81,207.82 1511.94,202.362 1522.07,207.275 1532.2,217.898 1542.33,217.844 1552.46,221.539 1562.59,222.06 1572.72,230.44 1582.85,236.743 1592.98,241.164 1603.11,252.304 1613.24,251.431 1623.37,264.61 1633.5,277.361 1643.63,280.976 1653.76,295.523 1663.89,303.571 1674.02,308.022 1684.15,312.692 1694.28,329.543 1704.41,343.488 1714.54,357.971 1724.67,364.944 1734.8,388.455 1744.93,403.208 1755.07,419.905 1765.2,430.9 1775.33,440.902 1785.46,452.734 1795.59,465.213 1805.72,484.078 1815.85,495.35 1825.98,505.659 1836.11,526.202 1846.24,534.018 1856.37,542.678 1866.5,558.765 1876.63,564.396 1886.76,564.496 1896.89,585.165 1907.02,585.599 1917.15,597.068 1927.28,597.017 1937.41,610.013 1947.54,616.289 1957.67,621.987 1967.8,632.427 1977.93,649.315 1988.06,651.104 1998.19,653.556 2008.32,653.939 2018.45,653.958 2028.58,657.679 2038.71,662.291 2048.85,669.791 2058.98,671.855 2069.11,680.128 2079.24,687.751 2089.37,681.703 2099.5,688.276 2109.63,689.713 2119.76,691.712 2129.89,688.699 2140.02,687.381 2150.15,683.862 2160.28,687.836 2170.41,679.716 2180.54,681.423 2190.67,685.099 2200.8,694.717 2210.93,702.889 2221.06,702.455 2231.19,702.588 2241.32,705.268 2251.45,703.308 2261.58,704.001 2271.71,704.368 2281.84,704.372 2291.97,701.709 "/>
<polyline clip-path="url(#clip672)" style="stroke:#3da44d; stroke-linecap:round; stroke-linejoin:round; stroke-width:4; stroke-opacity:1; fill:none" points="265.903,1294.52 276.033,1293.15 286.164,1289 296.294,1282.6 306.425,1275.06 316.555,1267.32 326.685,1260.43 336.816,1254.85 346.946,1250.51 357.076,1247.14 367.207,1243.96 377.337,1240.48 387.467,1236.63 397.598,1231.98 407.728,1226.07 417.858,1219.64 427.989,1212.98 438.119,1206.06 448.249,1199.09 458.38,1192.24 468.51,1185.91 478.641,1180.36 488.771,1175.4 498.901,1170.93 509.032,1166.58 519.162,1161.84 529.292,1156.4 539.423,1150.47 549.553,1144.92 559.683,1139.88 569.814,1135.37 579.944,1131.76 590.074,1129.21 600.205,1127.21 610.335,1125.4 620.465,1123.65 630.596,1121.66 640.726,1119.21 650.857,1115.89 660.987,1111.42 671.117,1105.9 681.248,1099.56 691.378,1092.87 701.508,1086.37 711.639,1080.83 721.769,1076.72 731.899,1073.34 742.03,1070.39 752.16,1067.83 762.29,1065.09 772.421,1061.91 782.551,1058.08 792.681,1053.61 802.812,1048.56 812.942,1042.49 823.073,1034.79 833.203,1024.94 843.333,1012.65 853.464,997.593 863.594,979.774 873.724,959.778 883.855,938.233 893.985,915.496 904.115,891.603 914.246,866.716 924.376,841.558 934.506,816.74 944.637,792.231 954.767,767.449 964.897,742.204 975.028,716.516 985.158,690.183 995.289,663.915 1005.42,638.072 1015.55,612.822 1025.68,588.63 1035.81,566.361 1045.94,546.265 1056.07,527.47 1066.2,509.394 1076.33,491.883 1086.46,475.578 1096.59,461.239 1106.72,448.429 1116.85,436.6 1126.98,426.304 1137.11,418.448 1147.24,413.697 1157.37,412.35 1167.5,414.325 1177.63,418.563 1187.77,424.066 1197.9,429.913 1208.03,434.739 1218.16,437.06 1228.29,436.599 1238.42,434.119 1248.55,430.17 1258.68,424.914 1268.81,418.081 1278.94,409.745 1289.07,400.369 1299.2,390.235 1309.33,378.967 1319.46,366.312 1329.59,352.126 1339.72,336.287 1349.85,318.695 1359.98,299.457 1370.11,279.341 1380.24,259.803 1390.37,242.53 1400.5,228.472 1410.63,217.633 1420.76,209.551 1430.89,204.029 1441.02,201.037 1451.15,199.926 1461.28,199.944 1471.42,200.34 1481.55,200.425 1491.68,200.461 1501.81,201.049 1511.94,202.349 1522.07,203.888 1532.2,205.903 1542.33,209.258 1552.46,213.983 1562.59,219.346 1572.72,224.657 1582.85,230.318 1592.98,236.841 1603.11,244.019 1613.24,251.551 1623.37,259.206 1633.5,267.3 1643.63,276.502 1653.76,286.849 1663.89,298.088 1674.02,309.849 1684.15,321.094 1694.28,331.192 1704.41,341.079 1714.54,351.236 1724.67,361.686 1734.8,372.967 1744.93,385.862 1755.07,400.82 1765.2,417.43 1775.33,435.56 1785.46,454.871 1795.59,474.013 1805.72,492.135 1815.85,508.944 1825.98,523.916 1836.11,537.224 1846.24,549.218 1856.37,559.812 1866.5,568.968 1876.63,576.957 1886.76,583.553 1896.89,588.517 1907.02,592.44 1917.15,596.071 1927.28,599.589 1937.41,603.005 1947.54,606.732 1957.67,611.179 1967.8,617.105 1977.93,625.282 1988.06,635.894 1998.19,648.314 2008.32,661.286 2018.45,673.556 2028.58,683.686 2038.71,690.841 2048.85,694.999 2058.98,696.097 2069.11,694.602 2079.24,691.726 2089.37,688.062 2099.5,683.999 2109.63,680.524 2119.76,678.457 2129.89,677.876 2140.02,678.386 2150.15,679.747 2160.28,681.753 2170.41,683.939 2180.54,685.758 2190.67,686.967 2200.8,687.822 2210.93,689.355 2221.06,692.313 2231.19,696.691 2241.32,702.011 2251.45,707.64 2261.58,712.886 2271.71,717.056 2281.84,719.86 2291.97,720.897 "/>
<polyline clip-path="url(#clip672)" style="stroke:#c271d2; stroke-linecap:round; stroke-linejoin:round; stroke-width:4; stroke-opacity:1; fill:none" points="265.903,1290.73 276.033,1289.48 286.164,1285.91 296.294,1281.02 306.425,1273.98 316.555,1268.59 326.685,1262.29 336.816,1256.16 346.946,1251.6 357.076,1247.41 367.207,1243.88 377.337,1240.02 387.467,1235.84 397.598,1230.45 407.728,1225.4 417.858,1218.65 427.989,1212.53 438.119,1206.04 448.249,1199.35 458.38,1192.88 468.51,1187.28 478.641,1181.18 488.771,1175.71 498.901,1171.39 509.032,1166.1 519.162,1160.63 529.292,1155.88 539.423,1151.13 549.553,1145.51 559.683,1141.16 569.814,1136.38 579.944,1133.37 590.074,1130.17 600.205,1126.65 610.335,1125.43 620.465,1123.32 630.596,1121.22 640.726,1118.01 650.857,1114.79 660.987,1109.91 671.117,1104.68 681.248,1099.07 691.378,1093.08 701.508,1087.32 711.639,1082.97 721.769,1077.43 731.899,1073.87 742.03,1071.43 752.16,1067.44 762.29,1064.98 772.421,1060.69 782.551,1057.06 792.681,1052.46 802.812,1046.99 812.942,1039.96 823.073,1031.4 833.203,1021.72 843.333,1008.38 853.464,993.643 863.594,977.027 873.724,957.465 883.855,936.502 893.985,913.572 904.115,889.205 914.246,866.968 924.376,842.078 934.506,816.555 944.637,791.973 954.767,766.849 964.897,741.77 975.028,715.685 985.158,690.91 995.289,663.874 1005.42,639.011 1015.55,614.541 1025.68,591.498 1035.81,568.817 1045.94,548.488 1056.07,528.615 1066.2,510.562 1076.33,493.947 1086.46,477.749 1096.59,464.012 1106.72,450.418 1116.85,438.783 1126.98,429.845 1137.11,423.317 1147.24,418.34 1157.37,416.808 1167.5,418.005 1177.63,419.508 1187.77,424.585 1197.9,428.509 1208.03,431.952 1218.16,433.089 1228.29,433.962 1238.42,431.909 1248.55,427.928 1258.68,423.016 1268.81,415.229 1278.94,407.772 1289.07,399.085 1299.2,388.085 1309.33,377.32 1319.46,364.493 1329.59,350.012 1339.72,333.535 1349.85,316.586 1359.98,298.084 1370.11,280.516 1380.24,262.978 1390.37,246.618 1400.5,233.116 1410.63,221.709 1420.76,213.857 1430.89,207.301 1441.02,203.857 1451.15,201.388 1461.28,200.514 1471.42,200.314 1481.55,200.452 1491.68,202.097 1501.81,202.099 1511.94,202.351 1522.07,204.413 1532.2,207.763 1542.33,210.589 1552.46,215.155 1562.59,219.767 1572.72,225.554 1582.85,231.314 1592.98,237.512 1603.11,245.304 1613.24,251.532 1623.37,260.045 1633.5,268.861 1643.63,277.196 1653.76,288.195 1663.89,298.938 1674.02,309.566 1684.15,319.791 1694.28,330.937 1704.41,341.452 1714.54,352.281 1724.67,362.192 1734.8,375.369 1744.93,388.552 1755.07,403.78 1765.2,419.519 1775.33,436.389 1785.46,454.539 1795.59,472.648 1805.72,490.886 1815.85,506.836 1825.98,521.084 1836.11,535.515 1846.24,546.86 1856.37,557.154 1866.5,567.386 1876.63,575.008 1886.76,580.597 1896.89,587.997 1907.02,591.379 1917.15,596.226 1927.28,599.19 1937.41,604.092 1947.54,608.214 1957.67,612.855 1967.8,619.482 1977.93,629.01 1988.06,638.253 1998.19,649.127 2008.32,660.146 2018.45,670.517 2028.58,679.652 2038.71,686.413 2048.85,691.089 2058.98,692.337 2069.11,692.357 2079.24,691.11 2089.37,687.076 2099.5,684.662 2109.63,681.949 2119.76,680.512 2129.89,679.555 2140.02,679.782 2150.15,680.385 2160.28,682.696 2170.41,683.284 2180.54,685.086 2190.67,686.677 2200.8,688.892 2210.93,691.454 2221.06,693.886 2231.19,697.605 2241.32,702.516 2251.45,706.968 2261.58,711.508 2271.71,715.088 2281.84,717.458 2291.97,717.921 "/>
<polyline clip-path="url(#clip672)" style="stroke:#ac8d18; stroke-linecap:round; stroke-linejoin:round; stroke-width:4; stroke-opacity:1; fill:none" points="265.903,1289.54 276.033,1288.51 286.164,1285.39 296.294,1282.25 306.425,1276 316.555,1267.52 326.685,1261.7 336.816,1257.26 346.946,1253.17 357.076,1247.93 367.207,1242.97 377.337,1239.29 387.467,1234.65 397.598,1229.5 407.728,1226.28 417.858,1220.4 427.989,1212.78 438.119,1204.8 448.249,1198.62 458.38,1193.32 468.51,1187.35 478.641,1181.59 488.771,1177.24 498.901,1171.3 509.032,1164.21 519.162,1160.57 529.292,1155.45 539.423,1151.07 549.553,1146.32 559.683,1141.23 569.814,1136.65 579.944,1132.54 590.074,1129.61 600.205,1128.57 610.335,1125.04 620.465,1123.92 630.596,1120.92 640.726,1117.12 650.857,1114.24 660.987,1110 671.117,1105.05 681.248,1098.61 691.378,1092.56 701.508,1087.92 711.639,1083.17 721.769,1079.15 731.899,1074.39 742.03,1070.25 752.16,1066.95 762.29,1063.27 772.421,1061.63 782.551,1057.92 792.681,1053.75 802.812,1047.12 812.942,1039.14 823.073,1032.01 833.203,1021.38 843.333,1008.82 853.464,994.306 863.594,975.589 873.724,957.497 883.855,936.462 893.985,914.743 904.115,891.437 914.246,865.135 924.376,841.431 934.506,817.05 944.637,792.786 954.767,768.162 964.897,741.547 975.028,714.66 985.158,687.777 995.289,664.049 1005.42,641.419 1015.55,615.614 1025.68,590.497 1035.81,568.816 1045.94,548.018 1056.07,528.245 1066.2,510.369 1076.33,494.42 1086.46,477.048 1096.59,462.752 1106.72,450.34 1116.85,440.324 1126.98,428.137 1137.11,421.538 1147.24,418.547 1157.37,418.514 1167.5,419.4 1177.63,421.262 1187.77,423.14 1197.9,427.087 1208.03,429.96 1218.16,433.587 1228.29,434.279 1238.42,432.367 1248.55,428.419 1258.68,422.379 1268.81,416.227 1278.94,408.229 1289.07,398.933 1299.2,389.247 1309.33,377.708 1319.46,364.247 1329.59,349.491 1339.72,332.985 1349.85,316.111 1359.98,297.713 1370.11,279.84 1380.24,263.018 1390.37,247.485 1400.5,234.62 1410.63,222.573 1420.76,212.554 1430.89,205.998 1441.02,202.929 1451.15,201.979 1461.28,202.357 1471.42,200.648 1481.55,198.793 1491.68,198.304 1501.81,201.432 1511.94,205.465 1522.07,206.245 1532.2,207.467 1542.33,210.428 1552.46,213.08 1562.59,218.949 1572.72,226.05 1582.85,233.533 1592.98,237.824 1603.11,242.064 1613.24,251.959 1623.37,259.947 1633.5,268.144 1643.63,279.164 1653.76,289.281 1663.89,299.669 1674.02,307.97 1684.15,318.163 1694.28,330.248 1704.41,340.684 1714.54,352.7 1724.67,364.865 1734.8,374.409 1744.93,388.331 1755.07,402.226 1765.2,419.462 1775.33,439.049 1785.46,456.635 1795.59,471.655 1805.72,488.508 1815.85,504.177 1825.98,522.419 1836.11,535.72 1846.24,549.428 1856.37,559.296 1866.5,564.993 1876.63,572.759 1886.76,582.139 1896.89,587.312 1907.02,593.458 1917.15,596.203 1927.28,599.698 1937.41,601.379 1947.54,606.333 1957.67,614.616 1967.8,621.386 1977.93,628.738 1988.06,640.364 1998.19,648.974 2008.32,659.413 2018.45,669.554 2028.58,679.6 2038.71,686.664 2048.85,690.055 2058.98,692.136 2069.11,693.192 2079.24,689.905 2089.37,688.206 2099.5,685.015 2109.63,682.474 2119.76,680.999 2129.89,679.482 2140.02,679.84 2150.15,681.036 2160.28,681.374 2170.41,683.306 2180.54,684.452 2190.67,686.393 2200.8,688.033 2210.93,690.96 2221.06,695.646 2231.19,699.741 2241.32,702.573 2251.45,706.859 2261.58,709.736 2271.71,714.03 2281.84,717.78 2291.97,719.854 "/>
<polyline clip-path="url(#clip672)" style="stroke:#00a9ad; stroke-linecap:round; stroke-linejoin:round; stroke-width:4; stroke-opacity:1; fill:none" points="265.903,1301.16 276.033,1298.99 286.164,1292.83 296.294,1283.86 306.425,1273.79 316.555,1264.22 326.685,1256.49 336.816,1251.19 346.946,1248.16 357.076,1246.67 367.207,1245.49 377.337,1243.45 387.467,1239.86 397.598,1234.39 407.728,1227.23 417.858,1219.28 427.989,1211.41 438.119,1204.15 448.249,1197.76 458.38,1192.05 468.51,1186.66 478.641,1181.28 488.771,1175.73 498.901,1170.25 509.032,1165.14 519.162,1160.53 529.292,1156.22 539.423,1151.77 549.553,1146.88 559.683,1141.31 569.814,1135.31 579.944,1129.74 590.074,1125.6 600.205,1123.39 610.335,1123.06 620.465,1123.85 630.596,1124.43 640.726,1123.51 650.857,1120.19 660.987,1114.33 671.117,1106.64 681.248,1098.23 691.378,1090.29 701.508,1083.64 711.639,1078.7 721.769,1075.41 731.899,1073.06 742.03,1071.03 752.16,1068.89 762.29,1066.17 772.421,1062.74 782.551,1058.64 792.681,1053.98 802.812,1048.89 812.942,1043.19 823.073,1036.42 833.203,1027.92 843.333,1016.93 853.464,1002.68 863.594,984.81 873.724,963.599 883.855,939.901 893.985,914.884 904.115,889.631 914.246,864.852 924.376,840.823 934.506,817.291 944.637,793.641 954.767,769.208 964.897,743.743 975.028,717.358 985.158,690.288 995.289,663.198 1005.42,636.636 1015.55,611.013 1025.68,586.715 1035.81,564.181 1045.94,543.648 1056.07,524.927 1066.2,507.721 1076.33,491.553 1086.46,476.083 1096.59,461.265 1106.72,447.125 1116.85,434.038 1126.98,422.842 1137.11,414.368 1147.24,409.204 1157.37,407.68 1167.5,409.841 1177.63,415.122 1187.77,422.584 1197.9,430.895 1208.03,438.285 1218.16,442.885 1228.29,443.503 1238.42,439.979 1248.55,433.049 1258.68,424.182 1268.81,414.946 1278.94,406.498 1289.07,399.099 1299.2,391.953 1309.33,383.491 1319.46,372.285 1329.59,357.594 1339.72,339.598 1349.85,319.261 1359.98,297.916 1370.11,276.896 1380.24,257.281 1390.37,239.869 1400.5,225.154 1410.63,213.445 1420.76,204.941 1430.89,199.75 1441.02,197.703 1451.15,198.067 1461.28,199.809 1471.42,201.786 1481.55,202.945 1491.68,202.903 1501.81,201.968 1511.94,200.924 1522.07,200.654 1532.2,202.113 1542.33,205.95 1552.46,211.953 1562.59,219.194 1572.72,226.483 1582.85,233.075 1592.98,238.766 1603.11,243.852 1613.24,249.176 1623.37,255.667 1633.5,264.012 1643.63,274.396 1653.76,286.282 1663.89,298.837 1674.02,311.277 1684.15,322.815 1694.28,333.031 1704.41,342.29 1714.54,351.106 1724.67,360.114 1734.8,370.233 1744.93,382.36 1755.07,397.058 1765.2,414.262 1775.33,433.634 1785.46,454.441 1795.59,475.373 1805.72,495.208 1815.85,513.012 1825.98,528.083 1836.11,540.453 1846.24,550.719 1856.37,559.65 1866.5,568.008 1876.63,576.288 1886.76,584.252 1896.89,591.152 1907.02,596.349 1917.15,599.585 1927.28,601.126 1937.41,601.902 1947.54,603.334 1957.67,606.682 1967.8,612.801 1977.93,621.951 1988.06,633.759 1998.19,647.382 2008.32,661.691 2018.45,675.493 2028.58,687.422 2038.71,696.26 2048.85,701.209 2058.98,701.871 2069.11,698.66 2079.24,692.927 2089.37,686.276 2099.5,680.281 2109.63,676.291 2119.76,674.917 2129.89,675.871 2140.02,678.255 2150.15,681.085 2160.28,683.58 2170.41,685.301 2180.54,686.22 2190.67,686.646 2200.8,687.063 2210.93,688.141 2221.06,690.431 2231.19,694.242 2241.32,699.625 2251.45,706.263 2261.58,713.373 2271.71,719.769 2281.84,724.279 2291.97,725.923 "/>
<path clip-path="url(#clip670)" d="M276.709 455.989 L714.249 455.989 L714.249 93.1086 L276.709 93.1086  Z" fill="#ffffff" fill-rule="evenodd" fill-opacity="1"/>
<polyline clip-path="url(#clip670)" style="stroke:#000000; stroke-linecap:round; stroke-linejoin:round; stroke-width:4; stroke-opacity:1; fill:none" points="276.709,455.989 714.249,455.989 714.249,93.1086 276.709,93.1086 276.709,455.989 "/>
<circle clip-path="url(#clip670)" cx="372.159" cy="144.949" r="20.48" fill="#009af9" fill-rule="evenodd" fill-opacity="1" stroke="#000000" stroke-opacity="1" stroke-width="4.55111"/>
<path clip-path="url(#clip670)" d="M486.036 137.067 L486.036 141.094 Q484.23 140.169 482.286 139.706 Q480.341 139.243 478.258 139.243 Q475.087 139.243 473.489 140.215 Q471.915 141.187 471.915 143.131 Q471.915 144.613 473.049 145.469 Q474.184 146.303 477.61 147.067 L479.068 147.391 Q483.605 148.363 485.503 150.145 Q487.424 151.905 487.424 155.076 Q487.424 158.687 484.554 160.793 Q481.707 162.9 476.707 162.9 Q474.624 162.9 472.355 162.483 Q470.11 162.09 467.61 161.28 L467.61 156.881 Q469.971 158.108 472.262 158.733 Q474.554 159.335 476.799 159.335 Q479.809 159.335 481.429 158.317 Q483.049 157.275 483.049 155.4 Q483.049 153.664 481.869 152.738 Q480.711 151.812 476.753 150.956 L475.272 150.608 Q471.313 149.775 469.554 148.062 Q467.795 146.326 467.795 143.317 Q467.795 139.659 470.387 137.669 Q472.98 135.678 477.749 135.678 Q480.11 135.678 482.193 136.025 Q484.276 136.372 486.036 137.067 Z" fill="#000000" fill-rule="nonzero" fill-opacity="1" /><path clip-path="url(#clip670)" d="M494.207 136.303 L498.466 136.303 L498.466 162.229 L494.207 162.229 L494.207 136.303 M494.207 126.21 L498.466 126.21 L498.466 131.604 L494.207 131.604 L494.207 126.21 Z" fill="#000000" fill-rule="nonzero" fill-opacity="1" /><path clip-path="url(#clip670)" d="M524.438 148.965 Q524.438 144.335 522.517 141.789 Q520.619 139.243 517.17 139.243 Q513.744 139.243 511.822 141.789 Q509.924 144.335 509.924 148.965 Q509.924 153.571 511.822 156.118 Q513.744 158.664 517.17 158.664 Q520.619 158.664 522.517 156.118 Q524.438 153.571 524.438 148.965 M528.697 159.011 Q528.697 165.631 525.758 168.849 Q522.818 172.09 516.753 172.09 Q514.508 172.09 512.517 171.742 Q510.526 171.418 508.651 170.724 L508.651 166.58 Q510.526 167.599 512.355 168.085 Q514.184 168.571 516.082 168.571 Q520.271 168.571 522.355 166.372 Q524.438 164.196 524.438 159.775 L524.438 157.668 Q523.119 159.96 521.058 161.094 Q518.998 162.229 516.128 162.229 Q511.359 162.229 508.443 158.594 Q505.526 154.96 505.526 148.965 Q505.526 142.946 508.443 139.312 Q511.359 135.678 516.128 135.678 Q518.998 135.678 521.058 136.812 Q523.119 137.946 524.438 140.238 L524.438 136.303 L528.697 136.303 L528.697 159.011 Z" fill="#000000" fill-rule="nonzero" fill-opacity="1" /><path clip-path="url(#clip670)" d="M559.021 146.581 L559.021 162.229 L554.762 162.229 L554.762 146.719 Q554.762 143.039 553.327 141.21 Q551.892 139.382 549.021 139.382 Q545.572 139.382 543.582 141.581 Q541.591 143.78 541.591 147.576 L541.591 162.229 L537.308 162.229 L537.308 136.303 L541.591 136.303 L541.591 140.331 Q543.119 137.993 545.179 136.835 Q547.262 135.678 549.97 135.678 Q554.438 135.678 556.73 138.456 Q559.021 141.21 559.021 146.581 Z" fill="#000000" fill-rule="nonzero" fill-opacity="1" /><path clip-path="url(#clip670)" d="M579.299 149.196 Q574.137 149.196 572.146 150.377 Q570.155 151.557 570.155 154.405 Q570.155 156.673 571.637 158.016 Q573.142 159.335 575.711 159.335 Q579.253 159.335 581.382 156.835 Q583.535 154.312 583.535 150.145 L583.535 149.196 L579.299 149.196 M587.794 147.437 L587.794 162.229 L583.535 162.229 L583.535 158.293 Q582.077 160.655 579.901 161.789 Q577.725 162.9 574.577 162.9 Q570.595 162.9 568.234 160.678 Q565.896 158.432 565.896 154.682 Q565.896 150.307 568.813 148.085 Q571.753 145.863 577.563 145.863 L583.535 145.863 L583.535 145.446 Q583.535 142.507 581.591 140.909 Q579.669 139.289 576.174 139.289 Q573.952 139.289 571.845 139.821 Q569.739 140.354 567.794 141.419 L567.794 137.483 Q570.132 136.581 572.331 136.141 Q574.53 135.678 576.614 135.678 Q582.239 135.678 585.016 138.594 Q587.794 141.511 587.794 147.437 Z" fill="#000000" fill-rule="nonzero" fill-opacity="1" /><path clip-path="url(#clip670)" d="M596.567 126.21 L600.827 126.21 L600.827 162.229 L596.567 162.229 L596.567 126.21 Z" fill="#000000" fill-rule="nonzero" fill-opacity="1" /><polyline clip-path="url(#clip670)" style="stroke:#e26f46; stroke-linecap:round; stroke-linejoin:round; stroke-width:4; stroke-opacity:1; fill:none" points="300.571,196.789 443.747,196.789 "/>
<path clip-path="url(#clip670)" d="M484.114 178.05 L484.114 181.592 L480.04 181.592 Q477.749 181.592 476.846 182.518 Q475.966 183.444 475.966 185.851 L475.966 188.143 L482.98 188.143 L482.98 191.453 L475.966 191.453 L475.966 214.069 L471.684 214.069 L471.684 191.453 L467.61 191.453 L467.61 188.143 L471.684 188.143 L471.684 186.337 Q471.684 182.009 473.698 180.041 Q475.711 178.05 480.086 178.05 L484.114 178.05 Z" fill="#000000" fill-rule="nonzero" fill-opacity="1" /><path clip-path="url(#clip670)" d="M487.679 178.05 L491.938 178.05 L491.938 214.069 L487.679 214.069 L487.679 178.05 Z" fill="#000000" fill-rule="nonzero" fill-opacity="1" /><path clip-path="url(#clip670)" d="M512.633 201.036 Q507.471 201.036 505.48 202.217 Q503.489 203.397 503.489 206.245 Q503.489 208.513 504.971 209.856 Q506.475 211.175 509.045 211.175 Q512.586 211.175 514.716 208.675 Q516.869 206.152 516.869 201.985 L516.869 201.036 L512.633 201.036 M521.128 199.277 L521.128 214.069 L516.869 214.069 L516.869 210.133 Q515.41 212.495 513.234 213.629 Q511.059 214.74 507.91 214.74 Q503.929 214.74 501.568 212.518 Q499.23 210.272 499.23 206.522 Q499.23 202.147 502.147 199.925 Q505.086 197.703 510.896 197.703 L516.869 197.703 L516.869 197.286 Q516.869 194.347 514.924 192.749 Q513.003 191.129 509.508 191.129 Q507.285 191.129 505.179 191.661 Q503.072 192.194 501.128 193.259 L501.128 189.323 Q503.466 188.421 505.665 187.981 Q507.864 187.518 509.947 187.518 Q515.572 187.518 518.35 190.434 Q521.128 193.351 521.128 199.277 Z" fill="#000000" fill-rule="nonzero" fill-opacity="1" /><path clip-path="url(#clip670)" d="M534.114 180.782 L534.114 188.143 L542.887 188.143 L542.887 191.453 L534.114 191.453 L534.114 205.527 Q534.114 208.698 534.97 209.601 Q535.85 210.504 538.512 210.504 L542.887 210.504 L542.887 214.069 L538.512 214.069 Q533.582 214.069 531.707 212.24 Q529.832 210.388 529.832 205.527 L529.832 191.453 L526.707 191.453 L526.707 188.143 L529.832 188.143 L529.832 180.782 L534.114 180.782 Z" fill="#000000" fill-rule="nonzero" fill-opacity="1" /><polyline clip-path="url(#clip670)" style="stroke:#3da44d; stroke-linecap:round; stroke-linejoin:round; stroke-width:4; stroke-opacity:1; fill:none" points="300.571,248.629 443.747,248.629 "/>
<path clip-path="url(#clip670)" d="M489.323 250.261 L489.323 265.909 L485.063 265.909 L485.063 250.399 Q485.063 246.719 483.628 244.89 Q482.193 243.062 479.323 243.062 Q475.874 243.062 473.883 245.261 Q471.892 247.46 471.892 251.256 L471.892 265.909 L467.61 265.909 L467.61 229.89 L471.892 229.89 L471.892 244.011 Q473.42 241.673 475.48 240.515 Q477.563 239.358 480.272 239.358 Q484.739 239.358 487.031 242.136 Q489.323 244.89 489.323 250.261 Z" fill="#000000" fill-rule="nonzero" fill-opacity="1" /><path clip-path="url(#clip670)" d="M509.6 252.876 Q504.438 252.876 502.447 254.057 Q500.457 255.237 500.457 258.085 Q500.457 260.353 501.938 261.696 Q503.443 263.015 506.012 263.015 Q509.554 263.015 511.684 260.515 Q513.836 257.992 513.836 253.825 L513.836 252.876 L509.6 252.876 M518.096 251.117 L518.096 265.909 L513.836 265.909 L513.836 261.973 Q512.378 264.335 510.202 265.469 Q508.026 266.58 504.878 266.58 Q500.897 266.58 498.535 264.358 Q496.197 262.112 496.197 258.362 Q496.197 253.987 499.114 251.765 Q502.054 249.543 507.864 249.543 L513.836 249.543 L513.836 249.126 Q513.836 246.187 511.892 244.589 Q509.971 242.969 506.475 242.969 Q504.253 242.969 502.147 243.501 Q500.04 244.034 498.096 245.099 L498.096 241.163 Q500.434 240.261 502.633 239.821 Q504.832 239.358 506.915 239.358 Q512.54 239.358 515.318 242.274 Q518.096 245.191 518.096 251.117 Z" fill="#000000" fill-rule="nonzero" fill-opacity="1" /><path clip-path="url(#clip670)" d="M548.419 250.261 L548.419 265.909 L544.16 265.909 L544.16 250.399 Q544.16 246.719 542.725 244.89 Q541.29 243.062 538.419 243.062 Q534.97 243.062 532.98 245.261 Q530.989 247.46 530.989 251.256 L530.989 265.909 L526.707 265.909 L526.707 239.983 L530.989 239.983 L530.989 244.011 Q532.517 241.673 534.577 240.515 Q536.66 239.358 539.369 239.358 Q543.836 239.358 546.128 242.136 Q548.419 244.89 548.419 250.261 Z" fill="#000000" fill-rule="nonzero" fill-opacity="1" /><path clip-path="url(#clip670)" d="M578.466 250.261 L578.466 265.909 L574.206 265.909 L574.206 250.399 Q574.206 246.719 572.771 244.89 Q571.336 243.062 568.466 243.062 Q565.017 243.062 563.026 245.261 Q561.035 247.46 561.035 251.256 L561.035 265.909 L556.753 265.909 L556.753 239.983 L561.035 239.983 L561.035 244.011 Q562.563 241.673 564.623 240.515 Q566.706 239.358 569.415 239.358 Q573.882 239.358 576.174 242.136 Q578.466 244.89 578.466 250.261 Z" fill="#000000" fill-rule="nonzero" fill-opacity="1" /><path clip-path="url(#clip670)" d="M586.961 239.983 L591.22 239.983 L591.22 265.909 L586.961 265.909 L586.961 239.983 M586.961 229.89 L591.22 229.89 L591.22 235.284 L586.961 235.284 L586.961 229.89 Z" fill="#000000" fill-rule="nonzero" fill-opacity="1" /><path clip-path="url(#clip670)" d="M621.683 250.261 L621.683 265.909 L617.424 265.909 L617.424 250.399 Q617.424 246.719 615.989 244.89 Q614.553 243.062 611.683 243.062 Q608.234 243.062 606.243 245.261 Q604.252 247.46 604.252 251.256 L604.252 265.909 L599.97 265.909 L599.97 239.983 L604.252 239.983 L604.252 244.011 Q605.78 241.673 607.84 240.515 Q609.924 239.358 612.632 239.358 Q617.1 239.358 619.391 242.136 Q621.683 244.89 621.683 250.261 Z" fill="#000000" fill-rule="nonzero" fill-opacity="1" /><path clip-path="url(#clip670)" d="M647.238 252.645 Q647.238 248.015 645.317 245.469 Q643.419 242.923 639.97 242.923 Q636.544 242.923 634.623 245.469 Q632.725 248.015 632.725 252.645 Q632.725 257.251 634.623 259.798 Q636.544 262.344 639.97 262.344 Q643.419 262.344 645.317 259.798 Q647.238 257.251 647.238 252.645 M651.498 262.691 Q651.498 269.311 648.558 272.529 Q645.618 275.77 639.553 275.77 Q637.308 275.77 635.317 275.422 Q633.326 275.098 631.451 274.404 L631.451 270.26 Q633.326 271.279 635.155 271.765 Q636.984 272.251 638.882 272.251 Q643.072 272.251 645.155 270.052 Q647.238 267.876 647.238 263.455 L647.238 261.348 Q645.919 263.64 643.859 264.774 Q641.799 265.909 638.928 265.909 Q634.16 265.909 631.243 262.274 Q628.326 258.64 628.326 252.645 Q628.326 246.626 631.243 242.992 Q634.16 239.358 638.928 239.358 Q641.799 239.358 643.859 240.492 Q645.919 241.626 647.238 243.918 L647.238 239.983 L651.498 239.983 L651.498 262.691 Z" fill="#000000" fill-rule="nonzero" fill-opacity="1" /><polyline clip-path="url(#clip670)" style="stroke:#c271d2; stroke-linecap:round; stroke-linejoin:round; stroke-width:4; stroke-opacity:1; fill:none" points="300.571,300.469 443.747,300.469 "/>
<path clip-path="url(#clip670)" d="M489.323 302.101 L489.323 317.749 L485.063 317.749 L485.063 302.239 Q485.063 298.559 483.628 296.73 Q482.193 294.902 479.323 294.902 Q475.874 294.902 473.883 297.101 Q471.892 299.3 471.892 303.096 L471.892 317.749 L467.61 317.749 L467.61 281.73 L471.892 281.73 L471.892 295.851 Q473.42 293.513 475.48 292.355 Q477.563 291.198 480.272 291.198 Q484.739 291.198 487.031 293.976 Q489.323 296.73 489.323 302.101 Z" fill="#000000" fill-rule="nonzero" fill-opacity="1" /><path clip-path="url(#clip670)" d="M509.6 304.716 Q504.438 304.716 502.447 305.897 Q500.457 307.077 500.457 309.925 Q500.457 312.193 501.938 313.536 Q503.443 314.855 506.012 314.855 Q509.554 314.855 511.684 312.355 Q513.836 309.832 513.836 305.665 L513.836 304.716 L509.6 304.716 M518.096 302.957 L518.096 317.749 L513.836 317.749 L513.836 313.813 Q512.378 316.175 510.202 317.309 Q508.026 318.42 504.878 318.42 Q500.897 318.42 498.535 316.198 Q496.197 313.952 496.197 310.202 Q496.197 305.827 499.114 303.605 Q502.054 301.383 507.864 301.383 L513.836 301.383 L513.836 300.966 Q513.836 298.027 511.892 296.429 Q509.971 294.809 506.475 294.809 Q504.253 294.809 502.147 295.341 Q500.04 295.874 498.096 296.939 L498.096 293.003 Q500.434 292.101 502.633 291.661 Q504.832 291.198 506.915 291.198 Q512.54 291.198 515.318 294.114 Q518.096 297.031 518.096 302.957 Z" fill="#000000" fill-rule="nonzero" fill-opacity="1" /><path clip-path="url(#clip670)" d="M547.054 296.8 Q548.651 293.929 550.873 292.564 Q553.095 291.198 556.105 291.198 Q560.155 291.198 562.355 294.045 Q564.554 296.869 564.554 302.101 L564.554 317.749 L560.271 317.749 L560.271 302.239 Q560.271 298.513 558.952 296.707 Q557.632 294.902 554.924 294.902 Q551.614 294.902 549.693 297.101 Q547.771 299.3 547.771 303.096 L547.771 317.749 L543.489 317.749 L543.489 302.239 Q543.489 298.489 542.169 296.707 Q540.85 294.902 538.095 294.902 Q534.832 294.902 532.91 297.124 Q530.989 299.323 530.989 303.096 L530.989 317.749 L526.707 317.749 L526.707 291.823 L530.989 291.823 L530.989 295.851 Q532.447 293.466 534.484 292.332 Q536.521 291.198 539.322 291.198 Q542.146 291.198 544.114 292.633 Q546.105 294.068 547.054 296.8 Z" fill="#000000" fill-rule="nonzero" fill-opacity="1" /><path clip-path="url(#clip670)" d="M593.234 296.8 Q594.831 293.929 597.053 292.564 Q599.276 291.198 602.285 291.198 Q606.336 291.198 608.535 294.045 Q610.734 296.869 610.734 302.101 L610.734 317.749 L606.452 317.749 L606.452 302.239 Q606.452 298.513 605.132 296.707 Q603.813 294.902 601.104 294.902 Q597.794 294.902 595.873 297.101 Q593.952 299.3 593.952 303.096 L593.952 317.749 L589.669 317.749 L589.669 302.239 Q589.669 298.489 588.35 296.707 Q587.03 294.902 584.276 294.902 Q581.012 294.902 579.091 297.124 Q577.169 299.323 577.169 303.096 L577.169 317.749 L572.887 317.749 L572.887 291.823 L577.169 291.823 L577.169 295.851 Q578.628 293.466 580.665 292.332 Q582.702 291.198 585.503 291.198 Q588.327 291.198 590.294 292.633 Q592.285 294.068 593.234 296.8 Z" fill="#000000" fill-rule="nonzero" fill-opacity="1" /><path clip-path="url(#clip670)" d="M619.229 291.823 L623.488 291.823 L623.488 317.749 L619.229 317.749 L619.229 291.823 M619.229 281.73 L623.488 281.73 L623.488 287.124 L619.229 287.124 L619.229 281.73 Z" fill="#000000" fill-rule="nonzero" fill-opacity="1" /><path clip-path="url(#clip670)" d="M653.951 302.101 L653.951 317.749 L649.692 317.749 L649.692 302.239 Q649.692 298.559 648.257 296.73 Q646.822 294.902 643.951 294.902 Q640.502 294.902 638.512 297.101 Q636.521 299.3 636.521 303.096 L636.521 317.749 L632.238 317.749 L632.238 291.823 L636.521 291.823 L636.521 295.851 Q638.049 293.513 640.109 292.355 Q642.192 291.198 644.9 291.198 Q649.368 291.198 651.66 293.976 Q653.951 296.73 653.951 302.101 Z" fill="#000000" fill-rule="nonzero" fill-opacity="1" /><path clip-path="url(#clip670)" d="M679.507 304.485 Q679.507 299.855 677.585 297.309 Q675.687 294.763 672.238 294.763 Q668.812 294.763 666.891 297.309 Q664.993 299.855 664.993 304.485 Q664.993 309.091 666.891 311.638 Q668.812 314.184 672.238 314.184 Q675.687 314.184 677.585 311.638 Q679.507 309.091 679.507 304.485 M683.766 314.531 Q683.766 321.151 680.826 324.369 Q677.886 327.61 671.822 327.61 Q669.576 327.61 667.585 327.262 Q665.595 326.938 663.72 326.244 L663.72 322.1 Q665.595 323.119 667.423 323.605 Q669.252 324.091 671.15 324.091 Q675.34 324.091 677.423 321.892 Q679.507 319.716 679.507 315.295 L679.507 313.188 Q678.187 315.48 676.127 316.614 Q674.067 317.749 671.197 317.749 Q666.428 317.749 663.511 314.114 Q660.595 310.48 660.595 304.485 Q660.595 298.466 663.511 294.832 Q666.428 291.198 671.197 291.198 Q674.067 291.198 676.127 292.332 Q678.187 293.466 679.507 295.758 L679.507 291.823 L683.766 291.823 L683.766 314.531 Z" fill="#000000" fill-rule="nonzero" fill-opacity="1" /><polyline clip-path="url(#clip670)" style="stroke:#ac8d18; stroke-linecap:round; stroke-linejoin:round; stroke-width:4; stroke-opacity:1; fill:none" points="300.571,352.309 443.747,352.309 "/>
<path clip-path="url(#clip670)" d="M486.383 356.649 Q486.383 351.95 484.438 349.288 Q482.517 346.603 479.137 346.603 Q475.758 346.603 473.813 349.288 Q471.892 351.95 471.892 356.649 Q471.892 361.348 473.813 364.033 Q475.758 366.695 479.137 366.695 Q482.517 366.695 484.438 364.033 Q486.383 361.348 486.383 356.649 M471.892 347.598 Q473.235 345.283 475.272 344.172 Q477.332 343.038 480.179 343.038 Q484.901 343.038 487.841 346.788 Q490.804 350.538 490.804 356.649 Q490.804 362.76 487.841 366.51 Q484.901 370.26 480.179 370.26 Q477.332 370.26 475.272 369.149 Q473.235 368.015 471.892 365.7 L471.892 369.589 L467.61 369.589 L467.61 333.57 L471.892 333.57 L471.892 347.598 Z" fill="#000000" fill-rule="nonzero" fill-opacity="1" /><path clip-path="url(#clip670)" d="M509.647 356.556 Q504.484 356.556 502.494 357.737 Q500.503 358.917 500.503 361.765 Q500.503 364.033 501.985 365.376 Q503.489 366.695 506.059 366.695 Q509.6 366.695 511.73 364.195 Q513.883 361.672 513.883 357.505 L513.883 356.556 L509.647 356.556 M518.142 354.797 L518.142 369.589 L513.883 369.589 L513.883 365.653 Q512.424 368.015 510.248 369.149 Q508.072 370.26 504.924 370.26 Q500.943 370.26 498.582 368.038 Q496.244 365.792 496.244 362.042 Q496.244 357.667 499.16 355.445 Q502.1 353.223 507.91 353.223 L513.883 353.223 L513.883 352.806 Q513.883 349.867 511.938 348.269 Q510.017 346.649 506.522 346.649 Q504.299 346.649 502.193 347.181 Q500.086 347.714 498.142 348.779 L498.142 344.843 Q500.48 343.941 502.679 343.501 Q504.878 343.038 506.961 343.038 Q512.586 343.038 515.364 345.954 Q518.142 348.871 518.142 354.797 Z" fill="#000000" fill-rule="nonzero" fill-opacity="1" /><path clip-path="url(#clip670)" d="M541.938 347.644 Q541.22 347.228 540.364 347.042 Q539.531 346.834 538.512 346.834 Q534.901 346.834 532.957 349.195 Q531.035 351.533 531.035 355.931 L531.035 369.589 L526.753 369.589 L526.753 343.663 L531.035 343.663 L531.035 347.691 Q532.378 345.329 534.531 344.195 Q536.683 343.038 539.762 343.038 Q540.202 343.038 540.734 343.107 Q541.267 343.154 541.915 343.269 L541.938 347.644 Z" fill="#000000" fill-rule="nonzero" fill-opacity="1" /><path clip-path="url(#clip670)" d="M550.619 336.302 L550.619 343.663 L559.392 343.663 L559.392 346.973 L550.619 346.973 L550.619 361.047 Q550.619 364.218 551.475 365.121 Q552.355 366.024 555.017 366.024 L559.392 366.024 L559.392 369.589 L555.017 369.589 Q550.086 369.589 548.211 367.76 Q546.336 365.908 546.336 361.047 L546.336 346.973 L543.211 346.973 L543.211 343.663 L546.336 343.663 L546.336 336.302 L550.619 336.302 Z" fill="#000000" fill-rule="nonzero" fill-opacity="1" /><path clip-path="url(#clip670)" d="M564.993 333.57 L569.253 333.57 L569.253 369.589 L564.993 369.589 L564.993 333.57 Z" fill="#000000" fill-rule="nonzero" fill-opacity="1" /><path clip-path="url(#clip670)" d="M600.34 355.561 L600.34 357.644 L580.757 357.644 Q581.035 362.042 583.396 364.357 Q585.78 366.649 590.016 366.649 Q592.47 366.649 594.762 366.047 Q597.077 365.445 599.345 364.241 L599.345 368.269 Q597.053 369.241 594.646 369.751 Q592.239 370.26 589.762 370.26 Q583.558 370.26 579.924 366.649 Q576.313 363.038 576.313 356.88 Q576.313 350.515 579.739 346.788 Q583.188 343.038 589.021 343.038 Q594.253 343.038 597.285 346.417 Q600.34 349.774 600.34 355.561 M596.081 354.311 Q596.035 350.816 594.114 348.732 Q592.216 346.649 589.067 346.649 Q585.503 346.649 583.35 348.663 Q581.22 350.677 580.896 354.334 L596.081 354.311 Z" fill="#000000" fill-rule="nonzero" fill-opacity="1" /><path clip-path="url(#clip670)" d="M611.544 336.302 L611.544 343.663 L620.317 343.663 L620.317 346.973 L611.544 346.973 L611.544 361.047 Q611.544 364.218 612.401 365.121 Q613.28 366.024 615.942 366.024 L620.317 366.024 L620.317 369.589 L615.942 369.589 Q611.012 369.589 609.137 367.76 Q607.262 365.908 607.262 361.047 L607.262 346.973 L604.137 346.973 L604.137 343.663 L607.262 343.663 L607.262 336.302 L611.544 336.302 Z" fill="#000000" fill-rule="nonzero" fill-opacity="1" /><path clip-path="url(#clip670)" d="M630.132 336.302 L630.132 343.663 L638.905 343.663 L638.905 346.973 L630.132 346.973 L630.132 361.047 Q630.132 364.218 630.988 365.121 Q631.868 366.024 634.53 366.024 L638.905 366.024 L638.905 369.589 L634.53 369.589 Q629.6 369.589 627.725 367.76 Q625.85 365.908 625.85 361.047 L625.85 346.973 L622.725 346.973 L622.725 343.663 L625.85 343.663 L625.85 336.302 L630.132 336.302 Z" fill="#000000" fill-rule="nonzero" fill-opacity="1" /><polyline clip-path="url(#clip670)" style="stroke:#00a9ad; stroke-linecap:round; stroke-linejoin:round; stroke-width:4; stroke-opacity:1; fill:none" points="300.571,404.149 443.747,404.149 "/>
<path clip-path="url(#clip670)" d="M486.383 408.489 Q486.383 403.79 484.438 401.128 Q482.517 398.443 479.137 398.443 Q475.758 398.443 473.813 401.128 Q471.892 403.79 471.892 408.489 Q471.892 413.188 473.813 415.873 Q475.758 418.535 479.137 418.535 Q482.517 418.535 484.438 415.873 Q486.383 413.188 486.383 408.489 M471.892 399.438 Q473.235 397.123 475.272 396.012 Q477.332 394.878 480.179 394.878 Q484.901 394.878 487.841 398.628 Q490.804 402.378 490.804 408.489 Q490.804 414.6 487.841 418.35 Q484.901 422.1 480.179 422.1 Q477.332 422.1 475.272 420.989 Q473.235 419.855 471.892 417.54 L471.892 421.429 L467.61 421.429 L467.61 385.41 L471.892 385.41 L471.892 399.438 Z" fill="#000000" fill-rule="nonzero" fill-opacity="1" /><path clip-path="url(#clip670)" d="M497.864 385.41 L502.123 385.41 L502.123 421.429 L497.864 421.429 L497.864 385.41 Z" fill="#000000" fill-rule="nonzero" fill-opacity="1" /><path clip-path="url(#clip670)" d="M522.818 408.396 Q517.656 408.396 515.665 409.577 Q513.674 410.757 513.674 413.605 Q513.674 415.873 515.156 417.216 Q516.66 418.535 519.23 418.535 Q522.771 418.535 524.901 416.035 Q527.054 413.512 527.054 409.345 L527.054 408.396 L522.818 408.396 M531.313 406.637 L531.313 421.429 L527.054 421.429 L527.054 417.493 Q525.595 419.855 523.42 420.989 Q521.244 422.1 518.096 422.1 Q514.114 422.1 511.753 419.878 Q509.415 417.632 509.415 413.882 Q509.415 409.507 512.332 407.285 Q515.271 405.063 521.082 405.063 L527.054 405.063 L527.054 404.646 Q527.054 401.707 525.109 400.109 Q523.188 398.489 519.693 398.489 Q517.471 398.489 515.364 399.021 Q513.258 399.554 511.313 400.619 L511.313 396.683 Q513.651 395.781 515.85 395.341 Q518.049 394.878 520.133 394.878 Q525.758 394.878 528.535 397.794 Q531.313 400.711 531.313 406.637 Z" fill="#000000" fill-rule="nonzero" fill-opacity="1" /><path clip-path="url(#clip670)" d="M558.743 396.498 L558.743 400.48 Q556.938 399.484 555.109 398.998 Q553.304 398.489 551.452 398.489 Q547.308 398.489 545.017 401.128 Q542.725 403.744 542.725 408.489 Q542.725 413.234 545.017 415.873 Q547.308 418.489 551.452 418.489 Q553.304 418.489 555.109 418.003 Q556.938 417.493 558.743 416.498 L558.743 420.433 Q556.961 421.267 555.04 421.683 Q553.142 422.1 550.989 422.1 Q545.132 422.1 541.683 418.419 Q538.234 414.739 538.234 408.489 Q538.234 402.146 541.707 398.512 Q545.202 394.878 551.267 394.878 Q553.234 394.878 555.109 395.295 Q556.984 395.688 558.743 396.498 Z" fill="#000000" fill-rule="nonzero" fill-opacity="1" /><path clip-path="url(#clip670)" d="M565.989 385.41 L570.271 385.41 L570.271 406.683 L582.979 395.503 L588.419 395.503 L574.669 407.632 L588.998 421.429 L583.442 421.429 L570.271 408.767 L570.271 421.429 L565.989 421.429 L565.989 385.41 Z" fill="#000000" fill-rule="nonzero" fill-opacity="1" /><path clip-path="url(#clip670)" d="M613.789 400.48 Q615.387 397.609 617.609 396.244 Q619.831 394.878 622.84 394.878 Q626.891 394.878 629.09 397.725 Q631.289 400.549 631.289 405.781 L631.289 421.429 L627.007 421.429 L627.007 405.919 Q627.007 402.193 625.688 400.387 Q624.368 398.582 621.66 398.582 Q618.35 398.582 616.428 400.781 Q614.507 402.98 614.507 406.776 L614.507 421.429 L610.225 421.429 L610.225 405.919 Q610.225 402.169 608.905 400.387 Q607.586 398.582 604.831 398.582 Q601.567 398.582 599.646 400.804 Q597.725 403.003 597.725 406.776 L597.725 421.429 L593.442 421.429 L593.442 395.503 L597.725 395.503 L597.725 399.531 Q599.183 397.146 601.22 396.012 Q603.257 394.878 606.058 394.878 Q608.882 394.878 610.85 396.313 Q612.84 397.748 613.789 400.48 Z" fill="#000000" fill-rule="nonzero" fill-opacity="1" /><path clip-path="url(#clip670)" d="M651.567 408.396 Q646.405 408.396 644.414 409.577 Q642.424 410.757 642.424 413.605 Q642.424 415.873 643.905 417.216 Q645.41 418.535 647.979 418.535 Q651.521 418.535 653.65 416.035 Q655.803 413.512 655.803 409.345 L655.803 408.396 L651.567 408.396 M660.062 406.637 L660.062 421.429 L655.803 421.429 L655.803 417.493 Q654.345 419.855 652.169 420.989 Q649.993 422.1 646.845 422.1 Q642.863 422.1 640.502 419.878 Q638.164 417.632 638.164 413.882 Q638.164 409.507 641.081 407.285 Q644.021 405.063 649.831 405.063 L655.803 405.063 L655.803 404.646 Q655.803 401.707 653.859 400.109 Q651.937 398.489 648.442 398.489 Q646.22 398.489 644.113 399.021 Q642.007 399.554 640.062 400.619 L640.062 396.683 Q642.4 395.781 644.599 395.341 Q646.799 394.878 648.882 394.878 Q654.507 394.878 657.285 397.794 Q660.062 400.711 660.062 406.637 Z" fill="#000000" fill-rule="nonzero" fill-opacity="1" /><path clip-path="url(#clip670)" d="M690.386 405.781 L690.386 421.429 L686.127 421.429 L686.127 405.919 Q686.127 402.239 684.692 400.41 Q683.257 398.582 680.386 398.582 Q676.937 398.582 674.947 400.781 Q672.956 402.98 672.956 406.776 L672.956 421.429 L668.673 421.429 L668.673 395.503 L672.956 395.503 L672.956 399.531 Q674.484 397.193 676.544 396.035 Q678.627 394.878 681.335 394.878 Q685.803 394.878 688.095 397.656 Q690.386 400.41 690.386 405.781 Z" fill="#000000" fill-rule="nonzero" fill-opacity="1" /></svg>
