<?xml version="1.0" encoding="utf-8"?>
<svg xmlns="http://www.w3.org/2000/svg" xmlns:xlink="http://www.w3.org/1999/xlink" width="600" height="400" viewBox="0 0 2400 1600">
<defs>
  <clipPath id="clip700">
    <rect x="0" y="0" width="2400" height="1600"/>
  </clipPath>
</defs>
<path clip-path="url(#clip700)" d="M0 1600 L2400 1600 L2400 0 L0 0  Z" fill="#ffffff" fill-rule="evenodd" fill-opacity="1"/>
<defs>
  <clipPath id="clip701">
    <rect x="480" y="0" width="1681" height="1600"/>
  </clipPath>
</defs>
<path clip-path="url(#clip700)" d="M205.121 1423.18 L2352.76 1423.18 L2352.76 47.2441 L205.121 47.2441  Z" fill="#ffffff" fill-rule="evenodd" fill-opacity="1"/>
<defs>
  <clipPath id="clip702">
    <rect x="205" y="47" width="2149" height="1377"/>
  </clipPath>
</defs>
<polyline clip-path="url(#clip702)" style="stroke:#000000; stroke-linecap:round; stroke-linejoin:round; stroke-width:2; stroke-opacity:0.1; fill:none" points="265.903,1423.18 265.903,47.2441 "/>
<polyline clip-path="url(#clip702)" style="stroke:#000000; stroke-linecap:round; stroke-linejoin:round; stroke-width:2; stroke-opacity:0.1; fill:none" points="772.421,1423.18 772.421,47.2441 "/>
<polyline clip-path="url(#clip702)" style="stroke:#000000; stroke-linecap:round; stroke-linejoin:round; stroke-width:2; stroke-opacity:0.1; fill:none" points="1278.94,1423.18 1278.94,47.2441 "/>
<polyline clip-path="url(#clip702)" style="stroke:#000000; stroke-linecap:round; stroke-linejoin:round; stroke-width:2; stroke-opacity:0.1; fill:none" points="1785.46,1423.18 1785.46,47.2441 "/>
<polyline clip-path="url(#clip702)" style="stroke:#000000; stroke-linecap:round; stroke-linejoin:round; stroke-width:2; stroke-opacity:0.1; fill:none" points="2291.97,1423.18 2291.97,47.2441 "/>
<polyline clip-path="url(#clip702)" style="stroke:#000000; stroke-linecap:round; stroke-linejoin:round; stroke-width:2; stroke-opacity:0.1; fill:none" points="205.121,1295.87 2352.76,1295.87 "/>
<polyline clip-path="url(#clip702)" style="stroke:#000000; stroke-linecap:round; stroke-linejoin:round; stroke-width:2; stroke-opacity:0.1; fill:none" points="205.121,985.199 2352.76,985.199 "/>
<polyline clip-path="url(#clip702)" style="stroke:#000000; stroke-linecap:round; stroke-linejoin:round; stroke-width:2; stroke-opacity:0.1; fill:none" points="205.121,674.529 2352.76,674.529 "/>
<polyline clip-path="url(#clip702)" style="stroke:#000000; stroke-linecap:round; stroke-linejoin:round; stroke-width:2; stroke-opacity:0.1; fill:none" points="205.121,363.859 2352.76,363.859 "/>
<polyline clip-path="url(#clip702)" style="stroke:#000000; stroke-linecap:round; stroke-linejoin:round; stroke-width:2; stroke-opacity:0.1; fill:none" points="205.121,53.1897 2352.76,53.1897 "/>
<polyline clip-path="url(#clip700)" style="stroke:#000000; stroke-linecap:round; stroke-linejoin:round; stroke-width:4; stroke-opacity:1; fill:none" points="205.121,1423.18 2352.76,1423.18 "/>
<polyline clip-path="url(#clip700)" style="stroke:#000000; stroke-linecap:round; stroke-linejoin:round; stroke-width:4; stroke-opacity:1; fill:none" points="265.903,1423.18 265.903,1404.28 "/>
<polyline clip-path="url(#clip700)" style="stroke:#000000; stroke-linecap:round; stroke-linejoin:round; stroke-width:4; stroke-opacity:1; fill:none" points="772.421,1423.18 772.421,1404.28 "/>
<polyline clip-path="url(#clip700)" style="stroke:#000000; stroke-linecap:round; stroke-linejoin:round; stroke-width:4; stroke-opacity:1; fill:none" points="1278.94,1423.18 1278.94,1404.28 "/>
<polyline clip-path="url(#clip700)" style="stroke:#000000; stroke-linecap:round; stroke-linejoin:round; stroke-width:4; stroke-opacity:1; fill:none" points="1785.46,1423.18 1785.46,1404.28 "/>
<polyline clip-path="url(#clip700)" style="stroke:#000000; stroke-linecap:round; stroke-linejoin:round; stroke-width:4; stroke-opacity:1; fill:none" points="2291.97,1423.18 2291.97,1404.28 "/>
<path clip-path="url(#clip700)" d="M265.903 1454.1 Q262.292 1454.1 260.463 1457.66 Q258.658 1461.2 258.658 1468.33 Q258.658 1475.44 260.463 1479.01 Q262.292 1482.55 265.903 1482.55 Q269.537 1482.55 271.343 1479.01 Q273.172 1475.44 273.172 1468.33 Q273.172 1461.2 271.343 1457.66 Q269.537 1454.1 265.903 1454.1 M265.903 1450.39 Q271.713 1450.39 274.769 1455 Q277.847 1459.58 277.847 1468.33 Q277.847 1477.06 274.769 1481.67 Q271.713 1486.25 265.903 1486.25 Q260.093 1486.25 257.014 1481.67 Q253.959 1477.06 253.959 1468.33 Q253.959 1459.58 257.014 1455 Q260.093 1450.39 265.903 1450.39 Z" fill="#000000" fill-rule="nonzero" fill-opacity="1" /><path clip-path="url(#clip700)" d="M751.692 1481.64 L768.011 1481.64 L768.011 1485.58 L746.067 1485.58 L746.067 1481.64 Q748.729 1478.89 753.312 1474.26 Q757.919 1469.61 759.099 1468.27 Q761.344 1465.74 762.224 1464.01 Q763.127 1462.25 763.127 1460.56 Q763.127 1457.8 761.182 1456.07 Q759.261 1454.33 756.159 1454.33 Q753.96 1454.33 751.507 1455.09 Q749.076 1455.86 746.298 1457.41 L746.298 1452.69 Q749.122 1451.55 751.576 1450.97 Q754.03 1450.39 756.067 1450.39 Q761.437 1450.39 764.631 1453.08 Q767.826 1455.77 767.826 1460.26 Q767.826 1462.39 767.016 1464.31 Q766.229 1466.2 764.122 1468.8 Q763.544 1469.47 760.442 1472.69 Q757.34 1475.88 751.692 1481.64 Z" fill="#000000" fill-rule="nonzero" fill-opacity="1" /><path clip-path="url(#clip700)" d="M777.872 1451.02 L796.229 1451.02 L796.229 1454.96 L782.155 1454.96 L782.155 1463.43 Q783.173 1463.08 784.192 1462.92 Q785.21 1462.73 786.229 1462.73 Q792.016 1462.73 795.395 1465.9 Q798.775 1469.08 798.775 1474.49 Q798.775 1480.07 795.303 1483.17 Q791.83 1486.25 785.511 1486.25 Q783.335 1486.25 781.067 1485.88 Q778.821 1485.51 776.414 1484.77 L776.414 1480.07 Q778.497 1481.2 780.719 1481.76 Q782.942 1482.32 785.418 1482.32 Q789.423 1482.32 791.761 1480.21 Q794.099 1478.1 794.099 1474.49 Q794.099 1470.88 791.761 1468.77 Q789.423 1466.67 785.418 1466.67 Q783.543 1466.67 781.668 1467.08 Q779.817 1467.5 777.872 1468.38 L777.872 1451.02 Z" fill="#000000" fill-rule="nonzero" fill-opacity="1" /><path clip-path="url(#clip700)" d="M1253.64 1451.02 L1271.99 1451.02 L1271.99 1454.96 L1257.92 1454.96 L1257.92 1463.43 Q1258.94 1463.08 1259.96 1462.92 Q1260.98 1462.73 1261.99 1462.73 Q1267.78 1462.73 1271.16 1465.9 Q1274.54 1469.08 1274.54 1474.49 Q1274.54 1480.07 1271.07 1483.17 Q1267.6 1486.25 1261.28 1486.25 Q1259.1 1486.25 1256.83 1485.88 Q1254.59 1485.51 1252.18 1484.77 L1252.18 1480.07 Q1254.26 1481.2 1256.48 1481.76 Q1258.71 1482.32 1261.18 1482.32 Q1265.19 1482.32 1267.53 1480.21 Q1269.86 1478.1 1269.86 1474.49 Q1269.86 1470.88 1267.53 1468.77 Q1265.19 1466.67 1261.18 1466.67 Q1259.31 1466.67 1257.43 1467.08 Q1255.58 1467.5 1253.64 1468.38 L1253.64 1451.02 Z" fill="#000000" fill-rule="nonzero" fill-opacity="1" /><path clip-path="url(#clip700)" d="M1293.75 1454.1 Q1290.14 1454.1 1288.31 1457.66 Q1286.51 1461.2 1286.51 1468.33 Q1286.51 1475.44 1288.31 1479.01 Q1290.14 1482.55 1293.75 1482.55 Q1297.39 1482.55 1299.19 1479.01 Q1301.02 1475.44 1301.02 1468.33 Q1301.02 1461.2 1299.19 1457.66 Q1297.39 1454.1 1293.75 1454.1 M1293.75 1450.39 Q1299.56 1450.39 1302.62 1455 Q1305.7 1459.58 1305.7 1468.33 Q1305.7 1477.06 1302.62 1481.67 Q1299.56 1486.25 1293.75 1486.25 Q1287.94 1486.25 1284.86 1481.67 Q1281.81 1477.06 1281.81 1468.33 Q1281.81 1459.58 1284.86 1455 Q1287.94 1450.39 1293.75 1450.39 Z" fill="#000000" fill-rule="nonzero" fill-opacity="1" /><path clip-path="url(#clip700)" d="M1759.31 1451.02 L1781.53 1451.02 L1781.53 1453.01 L1768.99 1485.58 L1764.1 1485.58 L1775.91 1454.96 L1759.31 1454.96 L1759.31 1451.02 Z" fill="#000000" fill-rule="nonzero" fill-opacity="1" /><path clip-path="url(#clip700)" d="M1790.7 1451.02 L1809.06 1451.02 L1809.06 1454.96 L1794.98 1454.96 L1794.98 1463.43 Q1796 1463.08 1797.02 1462.92 Q1798.04 1462.73 1799.06 1462.73 Q1804.84 1462.73 1808.22 1465.9 Q1811.6 1469.08 1811.6 1474.49 Q1811.6 1480.07 1808.13 1483.17 Q1804.66 1486.25 1798.34 1486.25 Q1796.16 1486.25 1793.89 1485.88 Q1791.65 1485.51 1789.24 1484.77 L1789.24 1480.07 Q1791.32 1481.2 1793.55 1481.76 Q1795.77 1482.32 1798.25 1482.32 Q1802.25 1482.32 1804.59 1480.21 Q1806.93 1478.1 1806.93 1474.49 Q1806.93 1470.88 1804.59 1468.77 Q1802.25 1466.67 1798.25 1466.67 Q1796.37 1466.67 1794.5 1467.08 Q1792.64 1467.5 1790.7 1468.38 L1790.7 1451.02 Z" fill="#000000" fill-rule="nonzero" fill-opacity="1" /><path clip-path="url(#clip700)" d="M2251.58 1481.64 L2259.22 1481.64 L2259.22 1455.28 L2250.91 1456.95 L2250.91 1452.69 L2259.17 1451.02 L2263.85 1451.02 L2263.85 1481.64 L2271.49 1481.64 L2271.49 1485.58 L2251.58 1485.58 L2251.58 1481.64 Z" fill="#000000" fill-rule="nonzero" fill-opacity="1" /><path clip-path="url(#clip700)" d="M2290.93 1454.1 Q2287.32 1454.1 2285.49 1457.66 Q2283.69 1461.2 2283.69 1468.33 Q2283.69 1475.44 2285.49 1479.01 Q2287.32 1482.55 2290.93 1482.55 Q2294.57 1482.55 2296.37 1479.01 Q2298.2 1475.44 2298.2 1468.33 Q2298.2 1461.2 2296.37 1457.66 Q2294.57 1454.1 2290.93 1454.1 M2290.93 1450.39 Q2296.74 1450.39 2299.8 1455 Q2302.88 1459.58 2302.88 1468.33 Q2302.88 1477.06 2299.8 1481.67 Q2296.74 1486.25 2290.93 1486.25 Q2285.12 1486.25 2282.04 1481.67 Q2278.99 1477.06 2278.99 1468.33 Q2278.99 1459.58 2282.04 1455 Q2285.12 1450.39 2290.93 1450.39 Z" fill="#000000" fill-rule="nonzero" fill-opacity="1" /><path clip-path="url(#clip700)" d="M2321.09 1454.1 Q2317.48 1454.1 2315.65 1457.66 Q2313.85 1461.2 2313.85 1468.33 Q2313.85 1475.44 2315.65 1479.01 Q2317.48 1482.55 2321.09 1482.55 Q2324.73 1482.55 2326.53 1479.01 Q2328.36 1475.44 2328.36 1468.33 Q2328.36 1461.2 2326.53 1457.66 Q2324.73 1454.1 2321.09 1454.1 M2321.09 1450.39 Q2326.9 1450.39 2329.96 1455 Q2333.04 1459.58 2333.04 1468.33 Q2333.04 1477.06 2329.96 1481.67 Q2326.9 1486.25 2321.09 1486.25 Q2315.28 1486.25 2312.21 1481.67 Q2309.15 1477.06 2309.15 1468.33 Q2309.15 1459.58 2312.21 1455 Q2315.28 1450.39 2321.09 1450.39 Z" fill="#000000" fill-rule="nonzero" fill-opacity="1" /><path clip-path="url(#clip700)" d="M1260.76 1520.52 L1267.67 1520.52 L1279.48 1538.19 L1291.35 1520.52 L1298.26 1520.52 L1282.98 1543.34 L1299.28 1568.04 L1292.37 1568.04 L1279 1547.83 L1265.54 1568.04 L1258.6 1568.04 L1275.56 1542.68 L1260.76 1520.52 Z" fill="#000000" fill-rule="nonzero" fill-opacity="1" /><polyline clip-path="url(#clip700)" style="stroke:#000000; stroke-linecap:round; stroke-linejoin:round; stroke-width:4; stroke-opacity:1; fill:none" points="205.121,1423.18 205.121,47.2441 "/>
<polyline clip-path="url(#clip700)" style="stroke:#000000; stroke-linecap:round; stroke-linejoin:round; stroke-width:4; stroke-opacity:1; fill:none" points="205.121,1295.87 224.019,1295.87 "/>
<polyline clip-path="url(#clip700)" style="stroke:#000000; stroke-linecap:round; stroke-linejoin:round; stroke-width:4; stroke-opacity:1; fill:none" points="205.121,985.199 224.019,985.199 "/>
<polyline clip-path="url(#clip700)" style="stroke:#000000; stroke-linecap:round; stroke-linejoin:round; stroke-width:4; stroke-opacity:1; fill:none" points="205.121,674.529 224.019,674.529 "/>
<polyline clip-path="url(#clip700)" style="stroke:#000000; stroke-linecap:round; stroke-linejoin:round; stroke-width:4; stroke-opacity:1; fill:none" points="205.121,363.859 224.019,363.859 "/>
<polyline clip-path="url(#clip700)" style="stroke:#000000; stroke-linecap:round; stroke-linejoin:round; stroke-width:4; stroke-opacity:1; fill:none" points="205.121,53.1897 224.019,53.1897 "/>
<path clip-path="url(#clip700)" d="M157.177 1281.67 Q153.566 1281.67 151.737 1285.23 Q149.931 1288.77 149.931 1295.9 Q149.931 1303.01 151.737 1306.57 Q153.566 1310.12 157.177 1310.12 Q160.811 1310.12 162.616 1306.57 Q164.445 1303.01 164.445 1295.9 Q164.445 1288.77 162.616 1285.23 Q160.811 1281.67 157.177 1281.67 M157.177 1277.96 Q162.987 1277.96 166.042 1282.57 Q169.121 1287.15 169.121 1295.9 Q169.121 1304.63 166.042 1309.24 Q162.987 1313.82 157.177 1313.82 Q151.366 1313.82 148.288 1309.24 Q145.232 1304.63 145.232 1295.9 Q145.232 1287.15 148.288 1282.57 Q151.366 1277.96 157.177 1277.96 Z" fill="#000000" fill-rule="nonzero" fill-opacity="1" /><path clip-path="url(#clip700)" d="M117.825 998.544 L125.464 998.544 L125.464 972.178 L117.154 973.845 L117.154 969.586 L125.418 967.919 L130.093 967.919 L130.093 998.544 L137.732 998.544 L137.732 1002.48 L117.825 1002.48 L117.825 998.544 Z" fill="#000000" fill-rule="nonzero" fill-opacity="1" /><path clip-path="url(#clip700)" d="M157.177 970.998 Q153.566 970.998 151.737 974.562 Q149.931 978.104 149.931 985.234 Q149.931 992.34 151.737 995.905 Q153.566 999.446 157.177 999.446 Q160.811 999.446 162.616 995.905 Q164.445 992.34 164.445 985.234 Q164.445 978.104 162.616 974.562 Q160.811 970.998 157.177 970.998 M157.177 967.294 Q162.987 967.294 166.042 971.9 Q169.121 976.484 169.121 985.234 Q169.121 993.96 166.042 998.567 Q162.987 1003.15 157.177 1003.15 Q151.366 1003.15 148.288 998.567 Q145.232 993.96 145.232 985.234 Q145.232 976.484 148.288 971.9 Q151.366 967.294 157.177 967.294 Z" fill="#000000" fill-rule="nonzero" fill-opacity="1" /><path clip-path="url(#clip700)" d="M121.043 687.874 L137.362 687.874 L137.362 691.809 L115.418 691.809 L115.418 687.874 Q118.08 685.119 122.663 680.49 Q127.269 675.837 128.45 674.494 Q130.695 671.971 131.575 670.235 Q132.478 668.476 132.478 666.786 Q132.478 664.032 130.533 662.295 Q128.612 660.559 125.51 660.559 Q123.311 660.559 120.857 661.323 Q118.427 662.087 115.649 663.638 L115.649 658.916 Q118.473 657.782 120.927 657.203 Q123.38 656.624 125.418 656.624 Q130.788 656.624 133.982 659.309 Q137.177 661.994 137.177 666.485 Q137.177 668.615 136.367 670.536 Q135.579 672.434 133.473 675.027 Q132.894 675.698 129.792 678.916 Q126.691 682.11 121.043 687.874 Z" fill="#000000" fill-rule="nonzero" fill-opacity="1" /><path clip-path="url(#clip700)" d="M157.177 660.328 Q153.566 660.328 151.737 663.893 Q149.931 667.434 149.931 674.564 Q149.931 681.67 151.737 685.235 Q153.566 688.777 157.177 688.777 Q160.811 688.777 162.616 685.235 Q164.445 681.67 164.445 674.564 Q164.445 667.434 162.616 663.893 Q160.811 660.328 157.177 660.328 M157.177 656.624 Q162.987 656.624 166.042 661.231 Q169.121 665.814 169.121 674.564 Q169.121 683.291 166.042 687.897 Q162.987 692.48 157.177 692.48 Q151.366 692.48 148.288 687.897 Q145.232 683.291 145.232 674.564 Q145.232 665.814 148.288 661.231 Q151.366 656.624 157.177 656.624 Z" fill="#000000" fill-rule="nonzero" fill-opacity="1" /><path clip-path="url(#clip700)" d="M131.181 362.505 Q134.538 363.223 136.413 365.491 Q138.311 367.76 138.311 371.093 Q138.311 376.209 134.792 379.01 Q131.274 381.811 124.793 381.811 Q122.617 381.811 120.302 381.371 Q118.01 380.954 115.556 380.098 L115.556 375.584 Q117.501 376.718 119.816 377.297 Q122.13 377.876 124.654 377.876 Q129.052 377.876 131.343 376.139 Q133.658 374.403 133.658 371.093 Q133.658 368.038 131.505 366.325 Q129.376 364.589 125.556 364.589 L121.529 364.589 L121.529 360.746 L125.742 360.746 Q129.191 360.746 131.019 359.38 Q132.848 357.991 132.848 355.399 Q132.848 352.737 130.95 351.325 Q129.075 349.89 125.556 349.89 Q123.635 349.89 121.436 350.306 Q119.237 350.723 116.598 351.603 L116.598 347.436 Q119.26 346.695 121.575 346.325 Q123.913 345.954 125.973 345.954 Q131.297 345.954 134.399 348.385 Q137.501 350.792 137.501 354.913 Q137.501 357.783 135.857 359.774 Q134.214 361.741 131.181 362.505 Z" fill="#000000" fill-rule="nonzero" fill-opacity="1" /><path clip-path="url(#clip700)" d="M157.177 349.658 Q153.566 349.658 151.737 353.223 Q149.931 356.765 149.931 363.894 Q149.931 371.001 151.737 374.565 Q153.566 378.107 157.177 378.107 Q160.811 378.107 162.616 374.565 Q164.445 371.001 164.445 363.894 Q164.445 356.765 162.616 353.223 Q160.811 349.658 157.177 349.658 M157.177 345.954 Q162.987 345.954 166.042 350.561 Q169.121 355.144 169.121 363.894 Q169.121 372.621 166.042 377.227 Q162.987 381.811 157.177 381.811 Q151.366 381.811 148.288 377.227 Q145.232 372.621 145.232 363.894 Q145.232 355.144 148.288 350.561 Q151.366 345.954 157.177 345.954 Z" fill="#000000" fill-rule="nonzero" fill-opacity="1" /><path clip-path="url(#clip700)" d="M129.862 39.9837 L118.056 58.4327 L129.862 58.4327 L129.862 39.9837 M128.635 35.9097 L134.515 35.9097 L134.515 58.4327 L139.445 58.4327 L139.445 62.3216 L134.515 62.3216 L134.515 70.4697 L129.862 70.4697 L129.862 62.3216 L114.26 62.3216 L114.26 57.8077 L128.635 35.9097 Z" fill="#000000" fill-rule="nonzero" fill-opacity="1" /><path clip-path="url(#clip700)" d="M157.177 38.9884 Q153.566 38.9884 151.737 42.5532 Q149.931 46.0948 149.931 53.2244 Q149.931 60.3308 151.737 63.8956 Q153.566 67.4373 157.177 67.4373 Q160.811 67.4373 162.616 63.8956 Q164.445 60.3308 164.445 53.2244 Q164.445 46.0948 162.616 42.5532 Q160.811 38.9884 157.177 38.9884 M157.177 35.2847 Q162.987 35.2847 166.042 39.8911 Q169.121 44.4744 169.121 53.2244 Q169.121 61.9512 166.042 66.5577 Q162.987 71.141 157.177 71.141 Q151.366 71.141 148.288 66.5577 Q145.232 61.9512 145.232 53.2244 Q145.232 44.4744 148.288 39.8911 Q151.366 35.2847 157.177 35.2847 Z" fill="#000000" fill-rule="nonzero" fill-opacity="1" /><path clip-path="url(#clip700)" d="M16.4842 755.248 L16.4842 748.341 L36.0269 735.164 L16.4842 722.083 L16.4842 715.176 L41.3741 731.981 L64.0042 731.981 L64.0042 738.443 L41.3741 738.443 L16.4842 755.248 Z" fill="#000000" fill-rule="nonzero" fill-opacity="1" /><circle clip-path="url(#clip702)" cx="265.903" cy="1322.8" r="14.4" fill="#009af9" fill-rule="evenodd" fill-opacity="1" stroke="#000000" stroke-opacity="1" stroke-width="3.2"/>
<circle clip-path="url(#clip702)" cx="276.033" cy="1341.95" r="14.4" fill="#009af9" fill-rule="evenodd" fill-opacity="1" stroke="#000000" stroke-opacity="1" stroke-width="3.2"/>
<circle clip-path="url(#clip702)" cx="286.164" cy="1248.22" r="14.4" fill="#009af9" fill-rule="evenodd" fill-opacity="1" stroke="#000000" stroke-opacity="1" stroke-width="3.2"/>
<circle clip-path="url(#clip702)" cx="296.294" cy="1384.24" r="14.4" fill="#009af9" fill-rule="evenodd" fill-opacity="1" stroke="#000000" stroke-opacity="1" stroke-width="3.2"/>
<circle clip-path="url(#clip702)" cx="306.425" cy="1262.31" r="14.4" fill="#009af9" fill-rule="evenodd" fill-opacity="1" stroke="#000000" stroke-opacity="1" stroke-width="3.2"/>
<circle clip-path="url(#clip702)" cx="316.555" cy="1188.13" r="14.4" fill="#009af9" fill-rule="evenodd" fill-opacity="1" stroke="#000000" stroke-opacity="1" stroke-width="3.2"/>
<circle clip-path="url(#clip702)" cx="326.685" cy="1237.43" r="14.4" fill="#009af9" fill-rule="evenodd" fill-opacity="1" stroke="#000000" stroke-opacity="1" stroke-width="3.2"/>
<circle clip-path="url(#clip702)" cx="336.816" cy="1216.37" r="14.4" fill="#009af9" fill-rule="evenodd" fill-opacity="1" stroke="#000000" stroke-opacity="1" stroke-width="3.2"/>
<circle clip-path="url(#clip702)" cx="346.946" cy="1286.08" r="14.4" fill="#009af9" fill-rule="evenodd" fill-opacity="1" stroke="#000000" stroke-opacity="1" stroke-width="3.2"/>
<circle clip-path="url(#clip702)" cx="357.076" cy="1239.36" r="14.4" fill="#009af9" fill-rule="evenodd" fill-opacity="1" stroke="#000000" stroke-opacity="1" stroke-width="3.2"/>
<circle clip-path="url(#clip702)" cx="367.207" cy="1228.57" r="14.4" fill="#009af9" fill-rule="evenodd" fill-opacity="1" stroke="#000000" stroke-opacity="1" stroke-width="3.2"/>
<circle clip-path="url(#clip702)" cx="377.337" cy="1278.12" r="14.4" fill="#009af9" fill-rule="evenodd" fill-opacity="1" stroke="#000000" stroke-opacity="1" stroke-width="3.2"/>
<circle clip-path="url(#clip702)" cx="387.467" cy="1279.76" r="14.4" fill="#009af9" fill-rule="evenodd" fill-opacity="1" stroke="#000000" stroke-opacity="1" stroke-width="3.2"/>
<circle clip-path="url(#clip702)" cx="397.598" cy="1155.52" r="14.4" fill="#009af9" fill-rule="evenodd" fill-opacity="1" stroke="#000000" stroke-opacity="1" stroke-width="3.2"/>
<circle clip-path="url(#clip702)" cx="407.728" cy="1329.52" r="14.4" fill="#009af9" fill-rule="evenodd" fill-opacity="1" stroke="#000000" stroke-opacity="1" stroke-width="3.2"/>
<circle clip-path="url(#clip702)" cx="417.858" cy="1202.6" r="14.4" fill="#009af9" fill-rule="evenodd" fill-opacity="1" stroke="#000000" stroke-opacity="1" stroke-width="3.2"/>
<circle clip-path="url(#clip702)" cx="427.989" cy="1211.93" r="14.4" fill="#009af9" fill-rule="evenodd" fill-opacity="1" stroke="#000000" stroke-opacity="1" stroke-width="3.2"/>
<circle clip-path="url(#clip702)" cx="438.119" cy="1137.75" r="14.4" fill="#009af9" fill-rule="evenodd" fill-opacity="1" stroke="#000000" stroke-opacity="1" stroke-width="3.2"/>
<circle clip-path="url(#clip702)" cx="448.249" cy="1178.68" r="14.4" fill="#009af9" fill-rule="evenodd" fill-opacity="1" stroke="#000000" stroke-opacity="1" stroke-width="3.2"/>
<circle clip-path="url(#clip702)" cx="458.38" cy="1219.2" r="14.4" fill="#009af9" fill-rule="evenodd" fill-opacity="1" stroke="#000000" stroke-opacity="1" stroke-width="3.2"/>
<circle clip-path="url(#clip702)" cx="468.51" cy="1229.33" r="14.4" fill="#009af9" fill-rule="evenodd" fill-opacity="1" stroke="#000000" stroke-opacity="1" stroke-width="3.2"/>
<circle clip-path="url(#clip702)" cx="478.641" cy="1134.96" r="14.4" fill="#009af9" fill-rule="evenodd" fill-opacity="1" stroke="#000000" stroke-opacity="1" stroke-width="3.2"/>
<circle clip-path="url(#clip702)" cx="488.771" cy="1204.11" r="14.4" fill="#009af9" fill-rule="evenodd" fill-opacity="1" stroke="#000000" stroke-opacity="1" stroke-width="3.2"/>
<circle clip-path="url(#clip702)" cx="498.901" cy="1255.86" r="14.4" fill="#009af9" fill-rule="evenodd" fill-opacity="1" stroke="#000000" stroke-opacity="1" stroke-width="3.2"/>
<circle clip-path="url(#clip702)" cx="509.032" cy="1027.26" r="14.4" fill="#009af9" fill-rule="evenodd" fill-opacity="1" stroke="#000000" stroke-opacity="1" stroke-width="3.2"/>
<circle clip-path="url(#clip702)" cx="519.162" cy="1177.21" r="14.4" fill="#009af9" fill-rule="evenodd" fill-opacity="1" stroke="#000000" stroke-opacity="1" stroke-width="3.2"/>
<circle clip-path="url(#clip702)" cx="529.292" cy="1136.57" r="14.4" fill="#009af9" fill-rule="evenodd" fill-opacity="1" stroke="#000000" stroke-opacity="1" stroke-width="3.2"/>
<circle clip-path="url(#clip702)" cx="539.423" cy="1188.45" r="14.4" fill="#009af9" fill-rule="evenodd" fill-opacity="1" stroke="#000000" stroke-opacity="1" stroke-width="3.2"/>
<circle clip-path="url(#clip702)" cx="549.553" cy="1155.38" r="14.4" fill="#009af9" fill-rule="evenodd" fill-opacity="1" stroke="#000000" stroke-opacity="1" stroke-width="3.2"/>
<circle clip-path="url(#clip702)" cx="559.683" cy="1197.91" r="14.4" fill="#009af9" fill-rule="evenodd" fill-opacity="1" stroke="#000000" stroke-opacity="1" stroke-width="3.2"/>
<circle clip-path="url(#clip702)" cx="569.814" cy="1104.58" r="14.4" fill="#009af9" fill-rule="evenodd" fill-opacity="1" stroke="#000000" stroke-opacity="1" stroke-width="3.2"/>
<circle clip-path="url(#clip702)" cx="579.944" cy="1123.91" r="14.4" fill="#009af9" fill-rule="evenodd" fill-opacity="1" stroke="#000000" stroke-opacity="1" stroke-width="3.2"/>
<circle clip-path="url(#clip702)" cx="590.074" cy="1089.01" r="14.4" fill="#009af9" fill-rule="evenodd" fill-opacity="1" stroke="#000000" stroke-opacity="1" stroke-width="3.2"/>
<circle clip-path="url(#clip702)" cx="600.205" cy="1131.15" r="14.4" fill="#009af9" fill-rule="evenodd" fill-opacity="1" stroke="#000000" stroke-opacity="1" stroke-width="3.2"/>
<circle clip-path="url(#clip702)" cx="610.335" cy="1022.83" r="14.4" fill="#009af9" fill-rule="evenodd" fill-opacity="1" stroke="#000000" stroke-opacity="1" stroke-width="3.2"/>
<circle clip-path="url(#clip702)" cx="620.465" cy="1194.69" r="14.4" fill="#009af9" fill-rule="evenodd" fill-opacity="1" stroke="#000000" stroke-opacity="1" stroke-width="3.2"/>
<circle clip-path="url(#clip702)" cx="630.596" cy="1168.67" r="14.4" fill="#009af9" fill-rule="evenodd" fill-opacity="1" stroke="#000000" stroke-opacity="1" stroke-width="3.2"/>
<circle clip-path="url(#clip702)" cx="640.726" cy="1064.75" r="14.4" fill="#009af9" fill-rule="evenodd" fill-opacity="1" stroke="#000000" stroke-opacity="1" stroke-width="3.2"/>
<circle clip-path="url(#clip702)" cx="650.857" cy="1206.94" r="14.4" fill="#009af9" fill-rule="evenodd" fill-opacity="1" stroke="#000000" stroke-opacity="1" stroke-width="3.2"/>
<circle clip-path="url(#clip702)" cx="660.987" cy="1112.47" r="14.4" fill="#009af9" fill-rule="evenodd" fill-opacity="1" stroke="#000000" stroke-opacity="1" stroke-width="3.2"/>
<circle clip-path="url(#clip702)" cx="671.117" cy="1139.45" r="14.4" fill="#009af9" fill-rule="evenodd" fill-opacity="1" stroke="#000000" stroke-opacity="1" stroke-width="3.2"/>
<circle clip-path="url(#clip702)" cx="681.248" cy="1075.12" r="14.4" fill="#009af9" fill-rule="evenodd" fill-opacity="1" stroke="#000000" stroke-opacity="1" stroke-width="3.2"/>
<circle clip-path="url(#clip702)" cx="691.378" cy="1032.88" r="14.4" fill="#009af9" fill-rule="evenodd" fill-opacity="1" stroke="#000000" stroke-opacity="1" stroke-width="3.2"/>
<circle clip-path="url(#clip702)" cx="701.508" cy="1064.45" r="14.4" fill="#009af9" fill-rule="evenodd" fill-opacity="1" stroke="#000000" stroke-opacity="1" stroke-width="3.2"/>
<circle clip-path="url(#clip702)" cx="711.639" cy="1099.75" r="14.4" fill="#009af9" fill-rule="evenodd" fill-opacity="1" stroke="#000000" stroke-opacity="1" stroke-width="3.2"/>
<circle clip-path="url(#clip702)" cx="721.769" cy="1084.62" r="14.4" fill="#009af9" fill-rule="evenodd" fill-opacity="1" stroke="#000000" stroke-opacity="1" stroke-width="3.2"/>
<circle clip-path="url(#clip702)" cx="731.899" cy="1048.89" r="14.4" fill="#009af9" fill-rule="evenodd" fill-opacity="1" stroke="#000000" stroke-opacity="1" stroke-width="3.2"/>
<circle clip-path="url(#clip702)" cx="742.03" cy="1105.37" r="14.4" fill="#009af9" fill-rule="evenodd" fill-opacity="1" stroke="#000000" stroke-opacity="1" stroke-width="3.2"/>
<circle clip-path="url(#clip702)" cx="752.16" cy="1062.38" r="14.4" fill="#009af9" fill-rule="evenodd" fill-opacity="1" stroke="#000000" stroke-opacity="1" stroke-width="3.2"/>
<circle clip-path="url(#clip702)" cx="762.29" cy="1034.85" r="14.4" fill="#009af9" fill-rule="evenodd" fill-opacity="1" stroke="#000000" stroke-opacity="1" stroke-width="3.2"/>
<circle clip-path="url(#clip702)" cx="772.421" cy="1092.89" r="14.4" fill="#009af9" fill-rule="evenodd" fill-opacity="1" stroke="#000000" stroke-opacity="1" stroke-width="3.2"/>
<circle clip-path="url(#clip702)" cx="782.551" cy="1048.92" r="14.4" fill="#009af9" fill-rule="evenodd" fill-opacity="1" stroke="#000000" stroke-opacity="1" stroke-width="3.2"/>
<circle clip-path="url(#clip702)" cx="792.681" cy="1097.38" r="14.4" fill="#009af9" fill-rule="evenodd" fill-opacity="1" stroke="#000000" stroke-opacity="1" stroke-width="3.2"/>
<circle clip-path="url(#clip702)" cx="802.812" cy="1063.02" r="14.4" fill="#009af9" fill-rule="evenodd" fill-opacity="1" stroke="#000000" stroke-opacity="1" stroke-width="3.2"/>
<circle clip-path="url(#clip702)" cx="812.942" cy="941.531" r="14.4" fill="#009af9" fill-rule="evenodd" fill-opacity="1" stroke="#000000" stroke-opacity="1" stroke-width="3.2"/>
<circle clip-path="url(#clip702)" cx="823.073" cy="1082.71" r="14.4" fill="#009af9" fill-rule="evenodd" fill-opacity="1" stroke="#000000" stroke-opacity="1" stroke-width="3.2"/>
<circle clip-path="url(#clip702)" cx="833.203" cy="1071.8" r="14.4" fill="#009af9" fill-rule="evenodd" fill-opacity="1" stroke="#000000" stroke-opacity="1" stroke-width="3.2"/>
<circle clip-path="url(#clip702)" cx="843.333" cy="981.784" r="14.4" fill="#009af9" fill-rule="evenodd" fill-opacity="1" stroke="#000000" stroke-opacity="1" stroke-width="3.2"/>
<circle clip-path="url(#clip702)" cx="853.464" cy="1095.78" r="14.4" fill="#009af9" fill-rule="evenodd" fill-opacity="1" stroke="#000000" stroke-opacity="1" stroke-width="3.2"/>
<circle clip-path="url(#clip702)" cx="863.594" cy="942.933" r="14.4" fill="#009af9" fill-rule="evenodd" fill-opacity="1" stroke="#000000" stroke-opacity="1" stroke-width="3.2"/>
<circle clip-path="url(#clip702)" cx="873.724" cy="1026.75" r="14.4" fill="#009af9" fill-rule="evenodd" fill-opacity="1" stroke="#000000" stroke-opacity="1" stroke-width="3.2"/>
<circle clip-path="url(#clip702)" cx="883.855" cy="931.846" r="14.4" fill="#009af9" fill-rule="evenodd" fill-opacity="1" stroke="#000000" stroke-opacity="1" stroke-width="3.2"/>
<circle clip-path="url(#clip702)" cx="893.985" cy="916.652" r="14.4" fill="#009af9" fill-rule="evenodd" fill-opacity="1" stroke="#000000" stroke-opacity="1" stroke-width="3.2"/>
<circle clip-path="url(#clip702)" cx="904.115" cy="867.569" r="14.4" fill="#009af9" fill-rule="evenodd" fill-opacity="1" stroke="#000000" stroke-opacity="1" stroke-width="3.2"/>
<circle clip-path="url(#clip702)" cx="914.246" cy="832.822" r="14.4" fill="#009af9" fill-rule="evenodd" fill-opacity="1" stroke="#000000" stroke-opacity="1" stroke-width="3.2"/>
<circle clip-path="url(#clip702)" cx="924.376" cy="882.023" r="14.4" fill="#009af9" fill-rule="evenodd" fill-opacity="1" stroke="#000000" stroke-opacity="1" stroke-width="3.2"/>
<circle clip-path="url(#clip702)" cx="934.506" cy="743.178" r="14.4" fill="#009af9" fill-rule="evenodd" fill-opacity="1" stroke="#000000" stroke-opacity="1" stroke-width="3.2"/>
<circle clip-path="url(#clip702)" cx="944.637" cy="815.966" r="14.4" fill="#009af9" fill-rule="evenodd" fill-opacity="1" stroke="#000000" stroke-opacity="1" stroke-width="3.2"/>
<circle clip-path="url(#clip702)" cx="954.767" cy="843.642" r="14.4" fill="#009af9" fill-rule="evenodd" fill-opacity="1" stroke="#000000" stroke-opacity="1" stroke-width="3.2"/>
<circle clip-path="url(#clip702)" cx="964.897" cy="766.15" r="14.4" fill="#009af9" fill-rule="evenodd" fill-opacity="1" stroke="#000000" stroke-opacity="1" stroke-width="3.2"/>
<circle clip-path="url(#clip702)" cx="975.028" cy="710.878" r="14.4" fill="#009af9" fill-rule="evenodd" fill-opacity="1" stroke="#000000" stroke-opacity="1" stroke-width="3.2"/>
<circle clip-path="url(#clip702)" cx="985.158" cy="641.751" r="14.4" fill="#009af9" fill-rule="evenodd" fill-opacity="1" stroke="#000000" stroke-opacity="1" stroke-width="3.2"/>
<circle clip-path="url(#clip702)" cx="995.289" cy="550.997" r="14.4" fill="#009af9" fill-rule="evenodd" fill-opacity="1" stroke="#000000" stroke-opacity="1" stroke-width="3.2"/>
<circle clip-path="url(#clip702)" cx="1005.42" cy="793.283" r="14.4" fill="#009af9" fill-rule="evenodd" fill-opacity="1" stroke="#000000" stroke-opacity="1" stroke-width="3.2"/>
<circle clip-path="url(#clip702)" cx="1015.55" cy="637.506" r="14.4" fill="#009af9" fill-rule="evenodd" fill-opacity="1" stroke="#000000" stroke-opacity="1" stroke-width="3.2"/>
<circle clip-path="url(#clip702)" cx="1025.68" cy="513.959" r="14.4" fill="#009af9" fill-rule="evenodd" fill-opacity="1" stroke="#000000" stroke-opacity="1" stroke-width="3.2"/>
<circle clip-path="url(#clip702)" cx="1035.81" cy="507.045" r="14.4" fill="#009af9" fill-rule="evenodd" fill-opacity="1" stroke="#000000" stroke-opacity="1" stroke-width="3.2"/>
<circle clip-path="url(#clip702)" cx="1045.94" cy="583.073" r="14.4" fill="#009af9" fill-rule="evenodd" fill-opacity="1" stroke="#000000" stroke-opacity="1" stroke-width="3.2"/>
<circle clip-path="url(#clip702)" cx="1056.07" cy="483.54" r="14.4" fill="#009af9" fill-rule="evenodd" fill-opacity="1" stroke="#000000" stroke-opacity="1" stroke-width="3.2"/>
<circle clip-path="url(#clip702)" cx="1066.2" cy="490.183" r="14.4" fill="#009af9" fill-rule="evenodd" fill-opacity="1" stroke="#000000" stroke-opacity="1" stroke-width="3.2"/>
<circle clip-path="url(#clip702)" cx="1076.33" cy="622.389" r="14.4" fill="#009af9" fill-rule="evenodd" fill-opacity="1" stroke="#000000" stroke-opacity="1" stroke-width="3.2"/>
<circle clip-path="url(#clip702)" cx="1086.46" cy="323.433" r="14.4" fill="#009af9" fill-rule="evenodd" fill-opacity="1" stroke="#000000" stroke-opacity="1" stroke-width="3.2"/>
<circle clip-path="url(#clip702)" cx="1096.59" cy="496.534" r="14.4" fill="#009af9" fill-rule="evenodd" fill-opacity="1" stroke="#000000" stroke-opacity="1" stroke-width="3.2"/>
<circle clip-path="url(#clip702)" cx="1106.72" cy="448.675" r="14.4" fill="#009af9" fill-rule="evenodd" fill-opacity="1" stroke="#000000" stroke-opacity="1" stroke-width="3.2"/>
<circle clip-path="url(#clip702)" cx="1116.85" cy="563.141" r="14.4" fill="#009af9" fill-rule="evenodd" fill-opacity="1" stroke="#000000" stroke-opacity="1" stroke-width="3.2"/>
<circle clip-path="url(#clip702)" cx="1126.98" cy="269.584" r="14.4" fill="#009af9" fill-rule="evenodd" fill-opacity="1" stroke="#000000" stroke-opacity="1" stroke-width="3.2"/>
<circle clip-path="url(#clip702)" cx="1137.11" cy="405.577" r="14.4" fill="#009af9" fill-rule="evenodd" fill-opacity="1" stroke="#000000" stroke-opacity="1" stroke-width="3.2"/>
<circle clip-path="url(#clip702)" cx="1147.24" cy="354.57" r="14.4" fill="#009af9" fill-rule="evenodd" fill-opacity="1" stroke="#000000" stroke-opacity="1" stroke-width="3.2"/>
<circle clip-path="url(#clip702)" cx="1157.37" cy="425.502" r="14.4" fill="#009af9" fill-rule="evenodd" fill-opacity="1" stroke="#000000" stroke-opacity="1" stroke-width="3.2"/>
<circle clip-path="url(#clip702)" cx="1167.5" cy="487.856" r="14.4" fill="#009af9" fill-rule="evenodd" fill-opacity="1" stroke="#000000" stroke-opacity="1" stroke-width="3.2"/>
<circle clip-path="url(#clip702)" cx="1177.63" cy="345.022" r="14.4" fill="#009af9" fill-rule="evenodd" fill-opacity="1" stroke="#000000" stroke-opacity="1" stroke-width="3.2"/>
<circle clip-path="url(#clip702)" cx="1187.77" cy="352.338" r="14.4" fill="#009af9" fill-rule="evenodd" fill-opacity="1" stroke="#000000" stroke-opacity="1" stroke-width="3.2"/>
<circle clip-path="url(#clip702)" cx="1197.9" cy="453.926" r="14.4" fill="#009af9" fill-rule="evenodd" fill-opacity="1" stroke="#000000" stroke-opacity="1" stroke-width="3.2"/>
<circle clip-path="url(#clip702)" cx="1208.03" cy="436.508" r="14.4" fill="#009af9" fill-rule="evenodd" fill-opacity="1" stroke="#000000" stroke-opacity="1" stroke-width="3.2"/>
<circle clip-path="url(#clip702)" cx="1218.16" cy="484.707" r="14.4" fill="#009af9" fill-rule="evenodd" fill-opacity="1" stroke="#000000" stroke-opacity="1" stroke-width="3.2"/>
<circle clip-path="url(#clip702)" cx="1228.29" cy="520.381" r="14.4" fill="#009af9" fill-rule="evenodd" fill-opacity="1" stroke="#000000" stroke-opacity="1" stroke-width="3.2"/>
<circle clip-path="url(#clip702)" cx="1238.42" cy="465.19" r="14.4" fill="#009af9" fill-rule="evenodd" fill-opacity="1" stroke="#000000" stroke-opacity="1" stroke-width="3.2"/>
<circle clip-path="url(#clip702)" cx="1248.55" cy="435.274" r="14.4" fill="#009af9" fill-rule="evenodd" fill-opacity="1" stroke="#000000" stroke-opacity="1" stroke-width="3.2"/>
<circle clip-path="url(#clip702)" cx="1258.68" cy="432.34" r="14.4" fill="#009af9" fill-rule="evenodd" fill-opacity="1" stroke="#000000" stroke-opacity="1" stroke-width="3.2"/>
<circle clip-path="url(#clip702)" cx="1268.81" cy="367.884" r="14.4" fill="#009af9" fill-rule="evenodd" fill-opacity="1" stroke="#000000" stroke-opacity="1" stroke-width="3.2"/>
<circle clip-path="url(#clip702)" cx="1278.94" cy="375.8" r="14.4" fill="#009af9" fill-rule="evenodd" fill-opacity="1" stroke="#000000" stroke-opacity="1" stroke-width="3.2"/>
<circle clip-path="url(#clip702)" cx="1289.07" cy="372.114" r="14.4" fill="#009af9" fill-rule="evenodd" fill-opacity="1" stroke="#000000" stroke-opacity="1" stroke-width="3.2"/>
<circle clip-path="url(#clip702)" cx="1299.2" cy="370.951" r="14.4" fill="#009af9" fill-rule="evenodd" fill-opacity="1" stroke="#000000" stroke-opacity="1" stroke-width="3.2"/>
<circle clip-path="url(#clip702)" cx="1309.33" cy="462.148" r="14.4" fill="#009af9" fill-rule="evenodd" fill-opacity="1" stroke="#000000" stroke-opacity="1" stroke-width="3.2"/>
<circle clip-path="url(#clip702)" cx="1319.46" cy="424.272" r="14.4" fill="#009af9" fill-rule="evenodd" fill-opacity="1" stroke="#000000" stroke-opacity="1" stroke-width="3.2"/>
<circle clip-path="url(#clip702)" cx="1329.59" cy="410.817" r="14.4" fill="#009af9" fill-rule="evenodd" fill-opacity="1" stroke="#000000" stroke-opacity="1" stroke-width="3.2"/>
<circle clip-path="url(#clip702)" cx="1339.72" cy="275.62" r="14.4" fill="#009af9" fill-rule="evenodd" fill-opacity="1" stroke="#000000" stroke-opacity="1" stroke-width="3.2"/>
<circle clip-path="url(#clip702)" cx="1349.85" cy="367.805" r="14.4" fill="#009af9" fill-rule="evenodd" fill-opacity="1" stroke="#000000" stroke-opacity="1" stroke-width="3.2"/>
<circle clip-path="url(#clip702)" cx="1359.98" cy="241.123" r="14.4" fill="#009af9" fill-rule="evenodd" fill-opacity="1" stroke="#000000" stroke-opacity="1" stroke-width="3.2"/>
<circle clip-path="url(#clip702)" cx="1370.11" cy="294.251" r="14.4" fill="#009af9" fill-rule="evenodd" fill-opacity="1" stroke="#000000" stroke-opacity="1" stroke-width="3.2"/>
<circle clip-path="url(#clip702)" cx="1380.24" cy="258.614" r="14.4" fill="#009af9" fill-rule="evenodd" fill-opacity="1" stroke="#000000" stroke-opacity="1" stroke-width="3.2"/>
<circle clip-path="url(#clip702)" cx="1390.37" cy="155.334" r="14.4" fill="#009af9" fill-rule="evenodd" fill-opacity="1" stroke="#000000" stroke-opacity="1" stroke-width="3.2"/>
<circle clip-path="url(#clip702)" cx="1400.5" cy="283.89" r="14.4" fill="#009af9" fill-rule="evenodd" fill-opacity="1" stroke="#000000" stroke-opacity="1" stroke-width="3.2"/>
<circle clip-path="url(#clip702)" cx="1410.63" cy="223.318" r="14.4" fill="#009af9" fill-rule="evenodd" fill-opacity="1" stroke="#000000" stroke-opacity="1" stroke-width="3.2"/>
<circle clip-path="url(#clip702)" cx="1420.76" cy="214.648" r="14.4" fill="#009af9" fill-rule="evenodd" fill-opacity="1" stroke="#000000" stroke-opacity="1" stroke-width="3.2"/>
<circle clip-path="url(#clip702)" cx="1430.89" cy="86.1857" r="14.4" fill="#009af9" fill-rule="evenodd" fill-opacity="1" stroke="#000000" stroke-opacity="1" stroke-width="3.2"/>
<circle clip-path="url(#clip702)" cx="1441.02" cy="179.758" r="14.4" fill="#009af9" fill-rule="evenodd" fill-opacity="1" stroke="#000000" stroke-opacity="1" stroke-width="3.2"/>
<circle clip-path="url(#clip702)" cx="1451.15" cy="156.985" r="14.4" fill="#009af9" fill-rule="evenodd" fill-opacity="1" stroke="#000000" stroke-opacity="1" stroke-width="3.2"/>
<circle clip-path="url(#clip702)" cx="1461.28" cy="297.775" r="14.4" fill="#009af9" fill-rule="evenodd" fill-opacity="1" stroke="#000000" stroke-opacity="1" stroke-width="3.2"/>
<circle clip-path="url(#clip702)" cx="1471.42" cy="249.528" r="14.4" fill="#009af9" fill-rule="evenodd" fill-opacity="1" stroke="#000000" stroke-opacity="1" stroke-width="3.2"/>
<circle clip-path="url(#clip702)" cx="1481.55" cy="155.8" r="14.4" fill="#009af9" fill-rule="evenodd" fill-opacity="1" stroke="#000000" stroke-opacity="1" stroke-width="3.2"/>
<circle clip-path="url(#clip702)" cx="1491.68" cy="171.935" r="14.4" fill="#009af9" fill-rule="evenodd" fill-opacity="1" stroke="#000000" stroke-opacity="1" stroke-width="3.2"/>
<circle clip-path="url(#clip702)" cx="1501.81" cy="186.651" r="14.4" fill="#009af9" fill-rule="evenodd" fill-opacity="1" stroke="#000000" stroke-opacity="1" stroke-width="3.2"/>
<circle clip-path="url(#clip702)" cx="1511.94" cy="298.94" r="14.4" fill="#009af9" fill-rule="evenodd" fill-opacity="1" stroke="#000000" stroke-opacity="1" stroke-width="3.2"/>
<circle clip-path="url(#clip702)" cx="1522.07" cy="179.156" r="14.4" fill="#009af9" fill-rule="evenodd" fill-opacity="1" stroke="#000000" stroke-opacity="1" stroke-width="3.2"/>
<circle clip-path="url(#clip702)" cx="1532.2" cy="163.454" r="14.4" fill="#009af9" fill-rule="evenodd" fill-opacity="1" stroke="#000000" stroke-opacity="1" stroke-width="3.2"/>
<circle clip-path="url(#clip702)" cx="1542.33" cy="180.366" r="14.4" fill="#009af9" fill-rule="evenodd" fill-opacity="1" stroke="#000000" stroke-opacity="1" stroke-width="3.2"/>
<circle clip-path="url(#clip702)" cx="1552.46" cy="132.234" r="14.4" fill="#009af9" fill-rule="evenodd" fill-opacity="1" stroke="#000000" stroke-opacity="1" stroke-width="3.2"/>
<circle clip-path="url(#clip702)" cx="1562.59" cy="228.663" r="14.4" fill="#009af9" fill-rule="evenodd" fill-opacity="1" stroke="#000000" stroke-opacity="1" stroke-width="3.2"/>
<circle clip-path="url(#clip702)" cx="1572.72" cy="266.807" r="14.4" fill="#009af9" fill-rule="evenodd" fill-opacity="1" stroke="#000000" stroke-opacity="1" stroke-width="3.2"/>
<circle clip-path="url(#clip702)" cx="1582.85" cy="353.056" r="14.4" fill="#009af9" fill-rule="evenodd" fill-opacity="1" stroke="#000000" stroke-opacity="1" stroke-width="3.2"/>
<circle clip-path="url(#clip702)" cx="1592.98" cy="223.311" r="14.4" fill="#009af9" fill-rule="evenodd" fill-opacity="1" stroke="#000000" stroke-opacity="1" stroke-width="3.2"/>
<circle clip-path="url(#clip702)" cx="1603.11" cy="119.621" r="14.4" fill="#009af9" fill-rule="evenodd" fill-opacity="1" stroke="#000000" stroke-opacity="1" stroke-width="3.2"/>
<circle clip-path="url(#clip702)" cx="1613.24" cy="308.007" r="14.4" fill="#009af9" fill-rule="evenodd" fill-opacity="1" stroke="#000000" stroke-opacity="1" stroke-width="3.2"/>
<circle clip-path="url(#clip702)" cx="1623.37" cy="288.018" r="14.4" fill="#009af9" fill-rule="evenodd" fill-opacity="1" stroke="#000000" stroke-opacity="1" stroke-width="3.2"/>
<circle clip-path="url(#clip702)" cx="1633.5" cy="178.737" r="14.4" fill="#009af9" fill-rule="evenodd" fill-opacity="1" stroke="#000000" stroke-opacity="1" stroke-width="3.2"/>
<circle clip-path="url(#clip702)" cx="1643.63" cy="227.188" r="14.4" fill="#009af9" fill-rule="evenodd" fill-opacity="1" stroke="#000000" stroke-opacity="1" stroke-width="3.2"/>
<circle clip-path="url(#clip702)" cx="1653.76" cy="307.668" r="14.4" fill="#009af9" fill-rule="evenodd" fill-opacity="1" stroke="#000000" stroke-opacity="1" stroke-width="3.2"/>
<circle clip-path="url(#clip702)" cx="1663.89" cy="408.749" r="14.4" fill="#009af9" fill-rule="evenodd" fill-opacity="1" stroke="#000000" stroke-opacity="1" stroke-width="3.2"/>
<circle clip-path="url(#clip702)" cx="1674.02" cy="275.558" r="14.4" fill="#009af9" fill-rule="evenodd" fill-opacity="1" stroke="#000000" stroke-opacity="1" stroke-width="3.2"/>
<circle clip-path="url(#clip702)" cx="1684.15" cy="255.929" r="14.4" fill="#009af9" fill-rule="evenodd" fill-opacity="1" stroke="#000000" stroke-opacity="1" stroke-width="3.2"/>
<circle clip-path="url(#clip702)" cx="1694.28" cy="398.31" r="14.4" fill="#009af9" fill-rule="evenodd" fill-opacity="1" stroke="#000000" stroke-opacity="1" stroke-width="3.2"/>
<circle clip-path="url(#clip702)" cx="1704.41" cy="282.353" r="14.4" fill="#009af9" fill-rule="evenodd" fill-opacity="1" stroke="#000000" stroke-opacity="1" stroke-width="3.2"/>
<circle clip-path="url(#clip702)" cx="1714.54" cy="429.557" r="14.4" fill="#009af9" fill-rule="evenodd" fill-opacity="1" stroke="#000000" stroke-opacity="1" stroke-width="3.2"/>
<circle clip-path="url(#clip702)" cx="1724.67" cy="405.723" r="14.4" fill="#009af9" fill-rule="evenodd" fill-opacity="1" stroke="#000000" stroke-opacity="1" stroke-width="3.2"/>
<circle clip-path="url(#clip702)" cx="1734.8" cy="249.06" r="14.4" fill="#009af9" fill-rule="evenodd" fill-opacity="1" stroke="#000000" stroke-opacity="1" stroke-width="3.2"/>
<circle clip-path="url(#clip702)" cx="1744.93" cy="408.633" r="14.4" fill="#009af9" fill-rule="evenodd" fill-opacity="1" stroke="#000000" stroke-opacity="1" stroke-width="3.2"/>
<circle clip-path="url(#clip702)" cx="1755.07" cy="381.561" r="14.4" fill="#009af9" fill-rule="evenodd" fill-opacity="1" stroke="#000000" stroke-opacity="1" stroke-width="3.2"/>
<circle clip-path="url(#clip702)" cx="1765.2" cy="351.378" r="14.4" fill="#009af9" fill-rule="evenodd" fill-opacity="1" stroke="#000000" stroke-opacity="1" stroke-width="3.2"/>
<circle clip-path="url(#clip702)" cx="1775.33" cy="441.786" r="14.4" fill="#009af9" fill-rule="evenodd" fill-opacity="1" stroke="#000000" stroke-opacity="1" stroke-width="3.2"/>
<circle clip-path="url(#clip702)" cx="1785.46" cy="543.477" r="14.4" fill="#009af9" fill-rule="evenodd" fill-opacity="1" stroke="#000000" stroke-opacity="1" stroke-width="3.2"/>
<circle clip-path="url(#clip702)" cx="1795.59" cy="384.588" r="14.4" fill="#009af9" fill-rule="evenodd" fill-opacity="1" stroke="#000000" stroke-opacity="1" stroke-width="3.2"/>
<circle clip-path="url(#clip702)" cx="1805.72" cy="583.182" r="14.4" fill="#009af9" fill-rule="evenodd" fill-opacity="1" stroke="#000000" stroke-opacity="1" stroke-width="3.2"/>
<circle clip-path="url(#clip702)" cx="1815.85" cy="420.494" r="14.4" fill="#009af9" fill-rule="evenodd" fill-opacity="1" stroke="#000000" stroke-opacity="1" stroke-width="3.2"/>
<circle clip-path="url(#clip702)" cx="1825.98" cy="625.455" r="14.4" fill="#009af9" fill-rule="evenodd" fill-opacity="1" stroke="#000000" stroke-opacity="1" stroke-width="3.2"/>
<circle clip-path="url(#clip702)" cx="1836.11" cy="507.483" r="14.4" fill="#009af9" fill-rule="evenodd" fill-opacity="1" stroke="#000000" stroke-opacity="1" stroke-width="3.2"/>
<circle clip-path="url(#clip702)" cx="1846.24" cy="624.914" r="14.4" fill="#009af9" fill-rule="evenodd" fill-opacity="1" stroke="#000000" stroke-opacity="1" stroke-width="3.2"/>
<circle clip-path="url(#clip702)" cx="1856.37" cy="617.653" r="14.4" fill="#009af9" fill-rule="evenodd" fill-opacity="1" stroke="#000000" stroke-opacity="1" stroke-width="3.2"/>
<circle clip-path="url(#clip702)" cx="1866.5" cy="465.611" r="14.4" fill="#009af9" fill-rule="evenodd" fill-opacity="1" stroke="#000000" stroke-opacity="1" stroke-width="3.2"/>
<circle clip-path="url(#clip702)" cx="1876.63" cy="480.72" r="14.4" fill="#009af9" fill-rule="evenodd" fill-opacity="1" stroke="#000000" stroke-opacity="1" stroke-width="3.2"/>
<circle clip-path="url(#clip702)" cx="1886.76" cy="635.412" r="14.4" fill="#009af9" fill-rule="evenodd" fill-opacity="1" stroke="#000000" stroke-opacity="1" stroke-width="3.2"/>
<circle clip-path="url(#clip702)" cx="1896.89" cy="640.797" r="14.4" fill="#009af9" fill-rule="evenodd" fill-opacity="1" stroke="#000000" stroke-opacity="1" stroke-width="3.2"/>
<circle clip-path="url(#clip702)" cx="1907.02" cy="643.723" r="14.4" fill="#009af9" fill-rule="evenodd" fill-opacity="1" stroke="#000000" stroke-opacity="1" stroke-width="3.2"/>
<circle clip-path="url(#clip702)" cx="1917.15" cy="601.59" r="14.4" fill="#009af9" fill-rule="evenodd" fill-opacity="1" stroke="#000000" stroke-opacity="1" stroke-width="3.2"/>
<circle clip-path="url(#clip702)" cx="1927.28" cy="639.385" r="14.4" fill="#009af9" fill-rule="evenodd" fill-opacity="1" stroke="#000000" stroke-opacity="1" stroke-width="3.2"/>
<circle clip-path="url(#clip702)" cx="1937.41" cy="557.135" r="14.4" fill="#009af9" fill-rule="evenodd" fill-opacity="1" stroke="#000000" stroke-opacity="1" stroke-width="3.2"/>
<circle clip-path="url(#clip702)" cx="1947.54" cy="546.099" r="14.4" fill="#009af9" fill-rule="evenodd" fill-opacity="1" stroke="#000000" stroke-opacity="1" stroke-width="3.2"/>
<circle clip-path="url(#clip702)" cx="1957.67" cy="657.032" r="14.4" fill="#009af9" fill-rule="evenodd" fill-opacity="1" stroke="#000000" stroke-opacity="1" stroke-width="3.2"/>
<circle clip-path="url(#clip702)" cx="1967.8" cy="548.763" r="14.4" fill="#009af9" fill-rule="evenodd" fill-opacity="1" stroke="#000000" stroke-opacity="1" stroke-width="3.2"/>
<circle clip-path="url(#clip702)" cx="1977.93" cy="545.387" r="14.4" fill="#009af9" fill-rule="evenodd" fill-opacity="1" stroke="#000000" stroke-opacity="1" stroke-width="3.2"/>
<circle clip-path="url(#clip702)" cx="1988.06" cy="777.293" r="14.4" fill="#009af9" fill-rule="evenodd" fill-opacity="1" stroke="#000000" stroke-opacity="1" stroke-width="3.2"/>
<circle clip-path="url(#clip702)" cx="1998.19" cy="591.429" r="14.4" fill="#009af9" fill-rule="evenodd" fill-opacity="1" stroke="#000000" stroke-opacity="1" stroke-width="3.2"/>
<circle clip-path="url(#clip702)" cx="2008.32" cy="638.407" r="14.4" fill="#009af9" fill-rule="evenodd" fill-opacity="1" stroke="#000000" stroke-opacity="1" stroke-width="3.2"/>
<circle clip-path="url(#clip702)" cx="2018.45" cy="624.479" r="14.4" fill="#009af9" fill-rule="evenodd" fill-opacity="1" stroke="#000000" stroke-opacity="1" stroke-width="3.2"/>
<circle clip-path="url(#clip702)" cx="2028.58" cy="754.412" r="14.4" fill="#009af9" fill-rule="evenodd" fill-opacity="1" stroke="#000000" stroke-opacity="1" stroke-width="3.2"/>
<circle clip-path="url(#clip702)" cx="2038.71" cy="744.166" r="14.4" fill="#009af9" fill-rule="evenodd" fill-opacity="1" stroke="#000000" stroke-opacity="1" stroke-width="3.2"/>
<circle clip-path="url(#clip702)" cx="2048.85" cy="725.902" r="14.4" fill="#009af9" fill-rule="evenodd" fill-opacity="1" stroke="#000000" stroke-opacity="1" stroke-width="3.2"/>
<circle clip-path="url(#clip702)" cx="2058.98" cy="663.989" r="14.4" fill="#009af9" fill-rule="evenodd" fill-opacity="1" stroke="#000000" stroke-opacity="1" stroke-width="3.2"/>
<circle clip-path="url(#clip702)" cx="2069.11" cy="801.583" r="14.4" fill="#009af9" fill-rule="evenodd" fill-opacity="1" stroke="#000000" stroke-opacity="1" stroke-width="3.2"/>
<circle clip-path="url(#clip702)" cx="2079.24" cy="669.404" r="14.4" fill="#009af9" fill-rule="evenodd" fill-opacity="1" stroke="#000000" stroke-opacity="1" stroke-width="3.2"/>
<circle clip-path="url(#clip702)" cx="2089.37" cy="687.381" r="14.4" fill="#009af9" fill-rule="evenodd" fill-opacity="1" stroke="#000000" stroke-opacity="1" stroke-width="3.2"/>
<circle clip-path="url(#clip702)" cx="2099.5" cy="650.997" r="14.4" fill="#009af9" fill-rule="evenodd" fill-opacity="1" stroke="#000000" stroke-opacity="1" stroke-width="3.2"/>
<circle clip-path="url(#clip702)" cx="2109.63" cy="601.954" r="14.4" fill="#009af9" fill-rule="evenodd" fill-opacity="1" stroke="#000000" stroke-opacity="1" stroke-width="3.2"/>
<circle clip-path="url(#clip702)" cx="2119.76" cy="710.079" r="14.4" fill="#009af9" fill-rule="evenodd" fill-opacity="1" stroke="#000000" stroke-opacity="1" stroke-width="3.2"/>
<circle clip-path="url(#clip702)" cx="2129.89" cy="644.775" r="14.4" fill="#009af9" fill-rule="evenodd" fill-opacity="1" stroke="#000000" stroke-opacity="1" stroke-width="3.2"/>
<circle clip-path="url(#clip702)" cx="2140.02" cy="688.587" r="14.4" fill="#009af9" fill-rule="evenodd" fill-opacity="1" stroke="#000000" stroke-opacity="1" stroke-width="3.2"/>
<circle clip-path="url(#clip702)" cx="2150.15" cy="696.258" r="14.4" fill="#009af9" fill-rule="evenodd" fill-opacity="1" stroke="#000000" stroke-opacity="1" stroke-width="3.2"/>
<circle clip-path="url(#clip702)" cx="2160.28" cy="705.956" r="14.4" fill="#009af9" fill-rule="evenodd" fill-opacity="1" stroke="#000000" stroke-opacity="1" stroke-width="3.2"/>
<circle clip-path="url(#clip702)" cx="2170.41" cy="690.216" r="14.4" fill="#009af9" fill-rule="evenodd" fill-opacity="1" stroke="#000000" stroke-opacity="1" stroke-width="3.2"/>
<circle clip-path="url(#clip702)" cx="2180.54" cy="662.381" r="14.4" fill="#009af9" fill-rule="evenodd" fill-opacity="1" stroke="#000000" stroke-opacity="1" stroke-width="3.2"/>
<circle clip-path="url(#clip702)" cx="2190.67" cy="716.309" r="14.4" fill="#009af9" fill-rule="evenodd" fill-opacity="1" stroke="#000000" stroke-opacity="1" stroke-width="3.2"/>
<circle clip-path="url(#clip702)" cx="2200.8" cy="665.718" r="14.4" fill="#009af9" fill-rule="evenodd" fill-opacity="1" stroke="#000000" stroke-opacity="1" stroke-width="3.2"/>
<circle clip-path="url(#clip702)" cx="2210.93" cy="662.451" r="14.4" fill="#009af9" fill-rule="evenodd" fill-opacity="1" stroke="#000000" stroke-opacity="1" stroke-width="3.2"/>
<circle clip-path="url(#clip702)" cx="2221.06" cy="697.183" r="14.4" fill="#009af9" fill-rule="evenodd" fill-opacity="1" stroke="#000000" stroke-opacity="1" stroke-width="3.2"/>
<circle clip-path="url(#clip702)" cx="2231.19" cy="719.122" r="14.4" fill="#009af9" fill-rule="evenodd" fill-opacity="1" stroke="#000000" stroke-opacity="1" stroke-width="3.2"/>
<circle clip-path="url(#clip702)" cx="2241.32" cy="659.025" r="14.4" fill="#009af9" fill-rule="evenodd" fill-opacity="1" stroke="#000000" stroke-opacity="1" stroke-width="3.2"/>
<circle clip-path="url(#clip702)" cx="2251.45" cy="739.513" r="14.4" fill="#009af9" fill-rule="evenodd" fill-opacity="1" stroke="#000000" stroke-opacity="1" stroke-width="3.2"/>
<circle clip-path="url(#clip702)" cx="2261.58" cy="647.298" r="14.4" fill="#009af9" fill-rule="evenodd" fill-opacity="1" stroke="#000000" stroke-opacity="1" stroke-width="3.2"/>
<circle clip-path="url(#clip702)" cx="2271.71" cy="701.824" r="14.4" fill="#009af9" fill-rule="evenodd" fill-opacity="1" stroke="#000000" stroke-opacity="1" stroke-width="3.2"/>
<circle clip-path="url(#clip702)" cx="2281.84" cy="757.238" r="14.4" fill="#009af9" fill-rule="evenodd" fill-opacity="1" stroke="#000000" stroke-opacity="1" stroke-width="3.2"/>
<circle clip-path="url(#clip702)" cx="2291.97" cy="833.728" r="14.4" fill="#009af9" fill-rule="evenodd" fill-opacity="1" stroke="#000000" stroke-opacity="1" stroke-width="3.2"/>
<polyline clip-path="url(#clip702)" style="stroke:#e26f46; stroke-linecap:round; stroke-linejoin:round; stroke-width:4; stroke-opacity:1; fill:none" points="265.903,1322.8 276.033,1306.96 286.164,1292.21 296.294,1282.44 306.425,1266.29 316.555,1261.08 326.685,1261.13 336.816,1262.78 346.946,1251.01 357.076,1246.6 367.207,1237.17 377.337,1236.1 387.467,1232.29 397.598,1220.02 407.728,1234.21 417.858,1228.43 427.989,1218.87 438.119,1207.72 448.249,1197.04 458.38,1189.11 468.51,1185.17 478.641,1177.79 488.771,1176.1 498.901,1172.57 509.032,1166.25 519.162,1160.85 529.292,1152.57 539.423,1152.94 549.553,1137.89 559.683,1133.15 569.814,1130.26 579.944,1134.18 590.074,1132.88 600.205,1132.63 610.335,1135.56 620.465,1122.71 630.596,1120.82 640.726,1111.88 650.857,1110.45 660.987,1108.71 671.117,1107.01 681.248,1102.61 691.378,1095.95 701.508,1089.2 711.639,1091.89 721.769,1073.64 731.899,1069.17 742.03,1070.99 752.16,1057.27 762.29,1065.4 772.421,1061.28 782.551,1065.78 792.681,1064.54 802.812,1059.26 812.942,1053.18 823.073,1042.61 833.203,1037.11 843.333,1018.83 853.464,1000.64 863.594,983.197 873.724,963.478 883.855,948.198 893.985,930.457 904.115,896.979 914.246,873.52 924.376,845.279 934.506,822.423 944.637,793.085 954.767,763.774 964.897,742.083 975.028,703.039 985.158,692.437 995.289,662.676 1005.42,637.409 1015.55,603.869 1025.68,589.397 1035.81,568.129 1045.94,541.464 1056.07,516.436 1066.2,495.663 1076.33,485.379 1086.46,473.01 1096.59,451.563 1106.72,427.465 1116.85,423.761 1126.98,416.213 1137.11,409.069 1147.24,405.465 1157.37,410.345 1167.5,414.311 1177.63,417.646 1187.77,433.201 1197.9,427.163 1208.03,426.503 1218.16,427.685 1228.29,441.126 1238.42,440.784 1248.55,437.967 1258.68,435.993 1268.81,430.084 1278.94,429.116 1289.07,420.024 1299.2,395.567 1309.33,379.711 1319.46,360.98 1329.59,351.819 1339.72,337.234 1349.85,321.081 1359.98,294.828 1370.11,275.733 1380.24,259.627 1390.37,242.164 1400.5,223.866 1410.63,200.493 1420.76,197.401 1430.89,197.068 1441.02,198.891 1451.15,196.391 1461.28,196.179 1471.42,188.697 1481.55,184.353 1491.68,191.807 1501.81,197.937 1511.94,200.346 1522.07,204.417 1532.2,216.85 1542.33,214.086 1552.46,211.161 1562.59,201.983 1572.72,216.27 1582.85,230.951 1592.98,230.516 1603.11,240.195 1613.24,241.362 1623.37,257.145 1633.5,276.719 1643.63,282.079 1653.76,290.737 1663.89,295.992 1674.02,300.743 1684.15,304.816 1694.28,331.012 1704.41,337.265 1714.54,347.307 1724.67,356.812 1734.8,377.497 1744.93,382.691 1755.07,392.419 1765.2,417.8 1775.33,448.378 1785.46,458.964 1795.59,467.713 1805.72,487.633 1815.85,502.12 1825.98,523.978 1836.11,550.152 1846.24,560.538 1856.37,570.125 1866.5,582.799 1876.63,587.222 1886.76,579.338 1896.89,593.484 1907.02,590.088 1917.15,600.137 1927.28,589.195 1937.41,596.055 1947.54,598.323 1957.67,614.289 1967.8,623.327 1977.93,631.328 1988.06,634.556 1998.19,649.105 2008.32,666.22 2018.45,675.523 2028.58,686.238 2038.71,695.648 2048.85,697.582 2058.98,695.338 2069.11,700.773 2079.24,697.946 2089.37,686.707 2099.5,695.302 2109.63,689.982 2119.76,682.907 2129.89,671.908 2140.02,674.518 2150.15,672.938 2160.28,678.527 2170.41,675.607 2180.54,681.752 2190.67,678.213 2200.8,676.091 2210.93,674.171 2221.06,670.987 2231.19,687.743 2241.32,698.971 2251.45,721.708 2261.58,746.697 2271.71,773.528 2281.84,802.577 2291.97,833.728 "/>
<polyline clip-path="url(#clip702)" style="stroke:#3da44d; stroke-linecap:round; stroke-linejoin:round; stroke-width:4; stroke-opacity:1; fill:none" points="265.903,1319.82 276.033,1308.77 286.164,1297.75 296.294,1287.11 306.425,1276.74 316.555,1267.46 326.685,1259.97 336.816,1254.16 346.946,1249.72 357.076,1245.94 367.207,1242.48 377.337,1238.94 387.467,1234.76 397.598,1229.8 407.728,1224.35 417.858,1217.98 427.989,1211.27 438.119,1204.7 448.249,1198.71 458.38,1193.09 468.51,1187.44 478.641,1181.6 488.771,1175.85 498.901,1169.98 509.032,1164.08 519.162,1159.1 529.292,1154.61 539.423,1150.37 549.553,1145.95 559.683,1141.32 569.814,1136.52 579.944,1132.18 590.074,1128.59 600.205,1125.96 610.335,1124.12 620.465,1122.93 630.596,1121.26 640.726,1118.69 650.857,1115.26 660.987,1110.49 671.117,1104.8 681.248,1098.63 691.378,1092.8 701.508,1087.85 711.639,1083.74 721.769,1080.2 731.899,1077.12 742.03,1074.43 752.16,1071.77 762.29,1069.11 772.421,1066.3 782.551,1062.87 792.681,1058.6 802.812,1053.14 812.942,1046.53 823.073,1038.89 833.203,1029.33 843.333,1017.34 853.464,1002.89 863.594,985.57 873.724,965.889 883.855,943.946 893.985,920.444 904.115,895.964 914.246,871.05 924.376,845.96 934.506,820.573 944.637,795.125 954.767,769.082 964.897,742.115 975.028,714.642 985.158,687.321 995.289,660.773 1005.42,635.164 1015.55,609.559 1025.68,584.608 1035.81,561.238 1045.94,539.671 1056.07,519.586 1066.2,501.096 1076.33,483.954 1086.46,467.804 1096.59,453.675 1106.72,441.151 1116.85,430.244 1126.98,421.043 1137.11,414.965 1147.24,411.914 1157.37,411.697 1167.5,413.55 1177.63,416.847 1187.77,421.704 1197.9,427.518 1208.03,432.996 1218.16,437.104 1228.29,438.848 1238.42,437.706 1248.55,433.974 1258.68,428.222 1268.81,421.032 1278.94,413.029 1289.07,404.306 1299.2,394.582 1309.33,383.257 1319.46,369.492 1329.59,353.238 1339.72,334.995 1349.85,315.836 1359.98,296.243 1370.11,277.216 1380.24,259.204 1390.37,242.828 1400.5,228.7 1410.63,216.561 1420.76,206.7 1430.89,199.476 1441.02,195.327 1451.15,193.557 1461.28,193.317 1471.42,193.389 1481.55,193.601 1491.68,194.343 1501.81,195.627 1511.94,197.239 1522.07,198.878 1532.2,201.258 1542.33,204.896 1552.46,209.932 1562.59,216.261 1572.72,222.998 1582.85,229.385 1592.98,235.102 1603.11,241.064 1613.24,248.07 1623.37,255.702 1633.5,264.144 1643.63,273.902 1653.76,284.628 1663.89,295.507 1674.02,305.954 1684.15,316.517 1694.28,327.44 1704.41,338.36 1714.54,349.624 1724.67,361.019 1734.8,373.13 1744.93,386.99 1755.07,402.391 1765.2,419.342 1775.33,437.644 1785.46,456.416 1795.59,474.821 1805.72,492.892 1815.85,509.759 1825.98,525.454 1836.11,539.12 1846.24,550.896 1856.37,560.606 1866.5,568.815 1876.63,576.659 1886.76,584.238 1896.89,590.699 1907.02,595.694 1917.15,599.381 1927.28,602.396 1937.41,605.397 1947.54,609.414 1957.67,614.991 1967.8,622.042 1977.93,630.9 1988.06,641.164 1998.19,651.581 2008.32,662.256 2018.45,672.695 2028.58,682.164 2038.71,689.448 2048.85,694.052 2058.98,696.032 2069.11,695.759 2079.24,693.286 2089.37,689.723 2099.5,685.941 2109.63,682.788 2119.76,680.764 2129.89,679.557 2140.02,679.153 2150.15,679.185 2160.28,679.385 2170.41,679.653 2180.54,680.155 2190.67,681.163 2200.8,682.772 2210.93,685.427 2221.06,689.403 2231.19,694.747 2241.32,701.58 2251.45,710.27 2261.58,720.759 2271.71,733.28 2281.84,747.333 2291.97,762.102 "/>
<polyline clip-path="url(#clip702)" style="stroke:#c271d2; stroke-linecap:round; stroke-linejoin:round; stroke-width:4; stroke-opacity:1; fill:none" points="265.903,1316.74 276.033,1306.81 286.164,1297.44 296.294,1288.62 306.425,1280.36 316.555,1272.64 326.685,1265.44 336.816,1258.71 346.946,1252.41 357.076,1246.46 367.207,1240.78 377.337,1235.3 387.467,1229.94 397.598,1224.64 407.728,1219.37 417.858,1214.08 427.989,1208.77 438.119,1203.43 448.249,1198.07 458.38,1192.7 468.51,1187.33 478.641,1181.97 488.771,1176.64 498.901,1171.36 509.032,1166.17 519.162,1161.09 529.292,1156.13 539.423,1151.31 549.553,1146.64 559.683,1142.13 569.814,1137.79 579.944,1133.63 590.074,1129.66 600.205,1125.88 610.335,1122.27 620.465,1118.81 630.596,1115.46 640.726,1112.21 650.857,1109.04 660.987,1105.94 671.117,1102.9 681.248,1099.94 691.378,1097.06 701.508,1094.24 711.639,1091.45 721.769,1088.64 731.899,1085.73 742.03,1082.62 752.16,1079.18 762.29,1075.29 772.421,1070.79 782.551,1065.51 792.681,1059.3 802.812,1051.99 812.942,1043.43 823.073,1033.47 833.203,1022 843.333,1008.93 853.464,994.177 863.594,977.735 873.724,959.623 883.855,939.901 893.985,918.666 904.115,896.048 914.246,872.196 924.376,847.278 934.506,821.472 944.637,794.968 954.767,767.967 964.897,740.678 975.028,713.328 985.158,686.15 995.289,659.381 1005.42,633.249 1015.55,607.974 1025.68,583.772 1035.81,560.85 1045.94,539.391 1056.07,519.553 1066.2,501.468 1076.33,485.24 1086.46,470.941 1096.59,458.619 1106.72,448.28 1116.85,439.894 1126.98,433.391 1137.11,428.66 1147.24,425.536 1157.37,423.805 1167.5,423.201 1177.63,423.428 1187.77,424.162 1197.9,425.064 1208.03,425.786 1218.16,425.997 1228.29,425.395 1238.42,423.728 1248.55,420.797 1258.68,416.467 1268.81,410.655 1278.94,403.33 1289.07,394.505 1299.2,384.236 1309.33,372.624 1319.46,359.816 1329.59,346.011 1339.72,331.451 1349.85,316.419 1359.98,301.213 1370.11,286.14 1380.24,271.496 1390.37,257.557 1400.5,244.568 1410.63,232.73 1420.76,222.202 1430.89,213.097 1441.02,205.475 1451.15,199.348 1461.28,194.681 1471.42,191.412 1481.55,189.461 1491.68,188.746 1501.81,189.176 1511.94,190.656 1522.07,193.098 1532.2,196.421 1542.33,200.55 1552.46,205.412 1562.59,210.933 1572.72,217.045 1582.85,223.692 1592.98,230.838 1603.11,238.469 1613.24,246.584 1623.37,255.185 1633.5,264.278 1643.63,273.873 1653.76,283.971 1663.89,294.571 1674.02,305.674 1684.15,317.283 1694.28,329.403 1704.41,342.029 1714.54,355.153 1724.67,368.753 1734.8,382.799 1744.93,397.243 1755.07,412.011 1765.2,427 1775.33,442.088 1785.46,457.133 1795.59,471.983 1805.72,486.497 1815.85,500.537 1825.98,513.989 1836.11,526.761 1846.24,538.796 1856.37,550.069 1866.5,560.591 1876.63,570.399 1886.76,579.548 1896.89,588.097 1907.02,596.125 1917.15,603.72 1927.28,610.98 1937.41,617.997 1947.54,624.851 1957.67,631.591 1967.8,638.234 1977.93,644.761 1988.06,651.114 1998.19,657.206 2008.32,662.936 2018.45,668.192 2028.58,672.86 2038.71,676.842 2048.85,680.067 2058.98,682.504 2069.11,684.163 2079.24,685.093 2089.37,685.381 2099.5,685.142 2109.63,684.509 2119.76,683.62 2129.89,682.614 2140.02,681.629 2150.15,680.803 2160.28,680.275 2170.41,680.187 2180.54,680.683 2190.67,681.909 2200.8,684.006 2210.93,687.11 2221.06,691.346 2231.19,696.827 2241.32,703.652 2251.45,711.901 2261.58,721.639 2271.71,732.907 2281.84,745.73 2291.97,760.114 "/>
<path clip-path="url(#clip700)" d="M276.709 352.309 L712.119 352.309 L712.119 93.1086 L276.709 93.1086  Z" fill="#ffffff" fill-rule="evenodd" fill-opacity="1"/>
<polyline clip-path="url(#clip700)" style="stroke:#000000; stroke-linecap:round; stroke-linejoin:round; stroke-width:4; stroke-opacity:1; fill:none" points="276.709,352.309 712.119,352.309 712.119,93.1086 276.709,93.1086 276.709,352.309 "/>
<circle clip-path="url(#clip700)" cx="372.159" cy="144.949" r="20.48" fill="#009af9" fill-rule="evenodd" fill-opacity="1" stroke="#000000" stroke-opacity="1" stroke-width="4.55111"/>
<path clip-path="url(#clip700)" d="M486.036 137.067 L486.036 141.094 Q484.23 140.169 482.286 139.706 Q480.341 139.243 478.258 139.243 Q475.087 139.243 473.489 140.215 Q471.915 141.187 471.915 143.131 Q471.915 144.613 473.049 145.469 Q474.184 146.303 477.61 147.067 L479.068 147.391 Q483.605 148.363 485.503 150.145 Q487.424 151.905 487.424 155.076 Q487.424 158.687 484.554 160.793 Q481.707 162.9 476.707 162.9 Q474.624 162.9 472.355 162.483 Q470.11 162.09 467.61 161.28 L467.61 156.881 Q469.971 158.108 472.262 158.733 Q474.554 159.335 476.799 159.335 Q479.809 159.335 481.429 158.317 Q483.049 157.275 483.049 155.4 Q483.049 153.664 481.869 152.738 Q480.711 151.812 476.753 150.956 L475.272 150.608 Q471.313 149.775 469.554 148.062 Q467.795 146.326 467.795 143.317 Q467.795 139.659 470.387 137.669 Q472.98 135.678 477.749 135.678 Q480.11 135.678 482.193 136.025 Q484.276 136.372 486.036 137.067 Z" fill="#000000" fill-rule="nonzero" fill-opacity="1" /><path clip-path="url(#clip700)" d="M494.207 136.303 L498.466 136.303 L498.466 162.229 L494.207 162.229 L494.207 136.303 M494.207 126.21 L498.466 126.21 L498.466 131.604 L494.207 131.604 L494.207 126.21 Z" fill="#000000" fill-rule="nonzero" fill-opacity="1" /><path clip-path="url(#clip700)" d="M524.438 148.965 Q524.438 144.335 522.517 141.789 Q520.619 139.243 517.17 139.243 Q513.744 139.243 511.822 141.789 Q509.924 144.335 509.924 148.965 Q509.924 153.571 511.822 156.118 Q513.744 158.664 517.17 158.664 Q520.619 158.664 522.517 156.118 Q524.438 153.571 524.438 148.965 M528.697 159.011 Q528.697 165.631 525.758 168.849 Q522.818 172.09 516.753 172.09 Q514.508 172.09 512.517 171.742 Q510.526 171.418 508.651 170.724 L508.651 166.58 Q510.526 167.599 512.355 168.085 Q514.184 168.571 516.082 168.571 Q520.271 168.571 522.355 166.372 Q524.438 164.196 524.438 159.775 L524.438 157.668 Q523.119 159.96 521.058 161.094 Q518.998 162.229 516.128 162.229 Q511.359 162.229 508.443 158.594 Q505.526 154.96 505.526 148.965 Q505.526 142.946 508.443 139.312 Q511.359 135.678 516.128 135.678 Q518.998 135.678 521.058 136.812 Q523.119 137.946 524.438 140.238 L524.438 136.303 L528.697 136.303 L528.697 159.011 Z" fill="#000000" fill-rule="nonzero" fill-opacity="1" /><path clip-path="url(#clip700)" d="M559.021 146.581 L559.021 162.229 L554.762 162.229 L554.762 146.719 Q554.762 143.039 553.327 141.21 Q551.892 139.382 549.021 139.382 Q545.572 139.382 543.582 141.581 Q541.591 143.78 541.591 147.576 L541.591 162.229 L537.308 162.229 L537.308 136.303 L541.591 136.303 L541.591 140.331 Q543.119 137.993 545.179 136.835 Q547.262 135.678 549.97 135.678 Q554.438 135.678 556.73 138.456 Q559.021 141.21 559.021 146.581 Z" fill="#000000" fill-rule="nonzero" fill-opacity="1" /><path clip-path="url(#clip700)" d="M579.299 149.196 Q574.137 149.196 572.146 150.377 Q570.155 151.557 570.155 154.405 Q570.155 156.673 571.637 158.016 Q573.142 159.335 575.711 159.335 Q579.253 159.335 581.382 156.835 Q583.535 154.312 583.535 150.145 L583.535 149.196 L579.299 149.196 M587.794 147.437 L587.794 162.229 L583.535 162.229 L583.535 158.293 Q582.077 160.655 579.901 161.789 Q577.725 162.9 574.577 162.9 Q570.595 162.9 568.234 160.678 Q565.896 158.432 565.896 154.682 Q565.896 150.307 568.813 148.085 Q571.753 145.863 577.563 145.863 L583.535 145.863 L583.535 145.446 Q583.535 142.507 581.591 140.909 Q579.669 139.289 576.174 139.289 Q573.952 139.289 571.845 139.821 Q569.739 140.354 567.794 141.419 L567.794 137.483 Q570.132 136.581 572.331 136.141 Q574.53 135.678 576.614 135.678 Q582.239 135.678 585.016 138.594 Q587.794 141.511 587.794 147.437 Z" fill="#000000" fill-rule="nonzero" fill-opacity="1" /><path clip-path="url(#clip700)" d="M596.567 126.21 L600.827 126.21 L600.827 162.229 L596.567 162.229 L596.567 126.21 Z" fill="#000000" fill-rule="nonzero" fill-opacity="1" /><polyline clip-path="url(#clip700)" style="stroke:#e26f46; stroke-linecap:round; stroke-linejoin:round; stroke-width:4; stroke-opacity:1; fill:none" points="300.571,196.789 443.747,196.789 "/>
<path clip-path="url(#clip700)" d="M486.036 188.907 L486.036 192.934 Q484.23 192.009 482.286 191.546 Q480.341 191.083 478.258 191.083 Q475.087 191.083 473.489 192.055 Q471.915 193.027 471.915 194.971 Q471.915 196.453 473.049 197.309 Q474.184 198.143 477.61 198.907 L479.068 199.231 Q483.605 200.203 485.503 201.985 Q487.424 203.745 487.424 206.916 Q487.424 210.527 484.554 212.633 Q481.707 214.74 476.707 214.74 Q474.624 214.74 472.355 214.323 Q470.11 213.93 467.61 213.12 L467.61 208.721 Q469.971 209.948 472.262 210.573 Q474.554 211.175 476.799 211.175 Q479.809 211.175 481.429 210.157 Q483.049 209.115 483.049 207.24 Q483.049 205.504 481.869 204.578 Q480.711 203.652 476.753 202.796 L475.272 202.448 Q471.313 201.615 469.554 199.902 Q467.795 198.166 467.795 195.157 Q467.795 191.499 470.387 189.509 Q472.98 187.518 477.749 187.518 Q480.11 187.518 482.193 187.865 Q484.276 188.212 486.036 188.907 Z" fill="#000000" fill-rule="nonzero" fill-opacity="1" /><path clip-path="url(#clip700)" d="M505.989 201.036 Q500.827 201.036 498.836 202.217 Q496.846 203.397 496.846 206.245 Q496.846 208.513 498.327 209.856 Q499.832 211.175 502.401 211.175 Q505.943 211.175 508.072 208.675 Q510.225 206.152 510.225 201.985 L510.225 201.036 L505.989 201.036 M514.484 199.277 L514.484 214.069 L510.225 214.069 L510.225 210.133 Q508.767 212.495 506.591 213.629 Q504.415 214.74 501.267 214.74 Q497.285 214.74 494.924 212.518 Q492.586 210.272 492.586 206.522 Q492.586 202.147 495.503 199.925 Q498.443 197.703 504.253 197.703 L510.225 197.703 L510.225 197.286 Q510.225 194.347 508.281 192.749 Q506.359 191.129 502.864 191.129 Q500.642 191.129 498.535 191.661 Q496.429 192.194 494.485 193.259 L494.485 189.323 Q496.822 188.421 499.022 187.981 Q501.221 187.518 503.304 187.518 Q508.929 187.518 511.707 190.434 Q514.484 193.351 514.484 199.277 Z" fill="#000000" fill-rule="nonzero" fill-opacity="1" /><path clip-path="url(#clip700)" d="M520.202 188.143 L524.716 188.143 L532.818 209.902 L540.919 188.143 L545.433 188.143 L535.711 214.069 L529.924 214.069 L520.202 188.143 Z" fill="#000000" fill-rule="nonzero" fill-opacity="1" /><path clip-path="url(#clip700)" d="M568.373 200.805 Q568.373 196.175 566.452 193.629 Q564.554 191.083 561.105 191.083 Q557.679 191.083 555.757 193.629 Q553.859 196.175 553.859 200.805 Q553.859 205.411 555.757 207.958 Q557.679 210.504 561.105 210.504 Q564.554 210.504 566.452 207.958 Q568.373 205.411 568.373 200.805 M572.632 210.851 Q572.632 217.471 569.692 220.689 Q566.753 223.93 560.688 223.93 Q558.443 223.93 556.452 223.582 Q554.461 223.258 552.586 222.564 L552.586 218.42 Q554.461 219.439 556.29 219.925 Q558.118 220.411 560.017 220.411 Q564.206 220.411 566.29 218.212 Q568.373 216.036 568.373 211.615 L568.373 209.508 Q567.054 211.8 564.993 212.934 Q562.933 214.069 560.063 214.069 Q555.294 214.069 552.378 210.434 Q549.461 206.8 549.461 200.805 Q549.461 194.786 552.378 191.152 Q555.294 187.518 560.063 187.518 Q562.933 187.518 564.993 188.652 Q567.054 189.786 568.373 192.078 L568.373 188.143 L572.632 188.143 L572.632 210.851 Z" fill="#000000" fill-rule="nonzero" fill-opacity="1" /><path clip-path="url(#clip700)" d="M591.452 191.129 Q588.026 191.129 586.035 193.814 Q584.044 196.476 584.044 201.129 Q584.044 205.782 586.012 208.467 Q588.003 211.129 591.452 211.129 Q594.854 211.129 596.845 208.444 Q598.836 205.758 598.836 201.129 Q598.836 196.522 596.845 193.837 Q594.854 191.129 591.452 191.129 M591.452 187.518 Q597.007 187.518 600.178 191.129 Q603.35 194.74 603.35 201.129 Q603.35 207.495 600.178 211.129 Q597.007 214.74 591.452 214.74 Q585.873 214.74 582.702 211.129 Q579.554 207.495 579.554 201.129 Q579.554 194.74 582.702 191.129 Q585.873 187.518 591.452 187.518 Z" fill="#000000" fill-rule="nonzero" fill-opacity="1" /><path clip-path="url(#clip700)" d="M610.41 178.05 L614.669 178.05 L614.669 214.069 L610.41 214.069 L610.41 178.05 Z" fill="#000000" fill-rule="nonzero" fill-opacity="1" /><polyline clip-path="url(#clip700)" style="stroke:#3da44d; stroke-linecap:round; stroke-linejoin:round; stroke-width:4; stroke-opacity:1; fill:none" points="300.571,248.629 443.747,248.629 "/>
<path clip-path="url(#clip700)" d="M467.61 239.983 L471.869 239.983 L477.193 260.214 L482.494 239.983 L487.517 239.983 L492.841 260.214 L498.142 239.983 L502.401 239.983 L495.619 265.909 L490.596 265.909 L485.017 244.659 L479.415 265.909 L474.392 265.909 L467.61 239.983 Z" fill="#000000" fill-rule="nonzero" fill-opacity="1" /><path clip-path="url(#clip700)" d="M530.41 250.261 L530.41 265.909 L526.151 265.909 L526.151 250.399 Q526.151 246.719 524.716 244.89 Q523.281 243.062 520.41 243.062 Q516.961 243.062 514.971 245.261 Q512.98 247.46 512.98 251.256 L512.98 265.909 L508.697 265.909 L508.697 229.89 L512.98 229.89 L512.98 244.011 Q514.508 241.673 516.568 240.515 Q518.651 239.358 521.359 239.358 Q525.827 239.358 528.119 242.136 Q530.41 244.89 530.41 250.261 Z" fill="#000000" fill-rule="nonzero" fill-opacity="1" /><path clip-path="url(#clip700)" d="M538.906 239.983 L543.165 239.983 L543.165 265.909 L538.906 265.909 L538.906 239.983 M538.906 229.89 L543.165 229.89 L543.165 235.284 L538.906 235.284 L538.906 229.89 Z" fill="#000000" fill-rule="nonzero" fill-opacity="1" /><path clip-path="url(#clip700)" d="M556.29 232.622 L556.29 239.983 L565.063 239.983 L565.063 243.293 L556.29 243.293 L556.29 257.367 Q556.29 260.538 557.146 261.441 Q558.026 262.344 560.688 262.344 L565.063 262.344 L565.063 265.909 L560.688 265.909 Q555.757 265.909 553.882 264.08 Q552.007 262.228 552.007 257.367 L552.007 243.293 L548.882 243.293 L548.882 239.983 L552.007 239.983 L552.007 232.622 L556.29 232.622 Z" fill="#000000" fill-rule="nonzero" fill-opacity="1" /><path clip-path="url(#clip700)" d="M574.878 232.622 L574.878 239.983 L583.651 239.983 L583.651 243.293 L574.878 243.293 L574.878 257.367 Q574.878 260.538 575.734 261.441 Q576.614 262.344 579.276 262.344 L583.651 262.344 L583.651 265.909 L579.276 265.909 Q574.345 265.909 572.47 264.08 Q570.595 262.228 570.595 257.367 L570.595 243.293 L567.47 243.293 L567.47 239.983 L570.595 239.983 L570.595 232.622 L574.878 232.622 Z" fill="#000000" fill-rule="nonzero" fill-opacity="1" /><path clip-path="url(#clip700)" d="M601.035 252.876 Q595.873 252.876 593.882 254.057 Q591.891 255.237 591.891 258.085 Q591.891 260.353 593.373 261.696 Q594.878 263.015 597.447 263.015 Q600.989 263.015 603.118 260.515 Q605.271 257.992 605.271 253.825 L605.271 252.876 L601.035 252.876 M609.53 251.117 L609.53 265.909 L605.271 265.909 L605.271 261.973 Q603.813 264.335 601.637 265.469 Q599.461 266.58 596.313 266.58 Q592.331 266.58 589.97 264.358 Q587.632 262.112 587.632 258.362 Q587.632 253.987 590.549 251.765 Q593.489 249.543 599.299 249.543 L605.271 249.543 L605.271 249.126 Q605.271 246.187 603.327 244.589 Q601.405 242.969 597.91 242.969 Q595.688 242.969 593.581 243.501 Q591.475 244.034 589.53 245.099 L589.53 241.163 Q591.868 240.261 594.067 239.821 Q596.266 239.358 598.35 239.358 Q603.975 239.358 606.752 242.274 Q609.53 245.191 609.53 251.117 Z" fill="#000000" fill-rule="nonzero" fill-opacity="1" /><path clip-path="url(#clip700)" d="M618.141 229.89 L622.424 229.89 L622.424 251.163 L635.132 239.983 L640.572 239.983 L626.822 252.112 L641.15 265.909 L635.595 265.909 L622.424 253.247 L622.424 265.909 L618.141 265.909 L618.141 229.89 Z" fill="#000000" fill-rule="nonzero" fill-opacity="1" /><path clip-path="url(#clip700)" d="M666.243 251.881 L666.243 253.964 L646.66 253.964 Q646.937 258.362 649.299 260.677 Q651.683 262.969 655.919 262.969 Q658.373 262.969 660.664 262.367 Q662.979 261.765 665.248 260.561 L665.248 264.589 Q662.956 265.561 660.548 266.071 Q658.141 266.58 655.664 266.58 Q649.461 266.58 645.826 262.969 Q642.215 259.358 642.215 253.2 Q642.215 246.835 645.641 243.108 Q649.09 239.358 654.923 239.358 Q660.155 239.358 663.187 242.737 Q666.243 246.094 666.243 251.881 M661.984 250.631 Q661.937 247.136 660.016 245.052 Q658.118 242.969 654.97 242.969 Q651.405 242.969 649.252 244.983 Q647.123 246.997 646.799 250.654 L661.984 250.631 Z" fill="#000000" fill-rule="nonzero" fill-opacity="1" /><path clip-path="url(#clip700)" d="M688.257 243.964 Q687.539 243.548 686.683 243.362 Q685.849 243.154 684.831 243.154 Q681.22 243.154 679.275 245.515 Q677.354 247.853 677.354 252.251 L677.354 265.909 L673.072 265.909 L673.072 239.983 L677.354 239.983 L677.354 244.011 Q678.697 241.649 680.849 240.515 Q683.002 239.358 686.081 239.358 Q686.521 239.358 687.053 239.427 Q687.585 239.474 688.234 239.589 L688.257 243.964 Z" fill="#000000" fill-rule="nonzero" fill-opacity="1" /><polyline clip-path="url(#clip700)" style="stroke:#c271d2; stroke-linecap:round; stroke-linejoin:round; stroke-width:4; stroke-opacity:1; fill:none" points="300.571,300.469 443.747,300.469 "/>
<path clip-path="url(#clip700)" d="M486.522 304.485 Q486.522 299.855 484.6 297.309 Q482.702 294.763 479.253 294.763 Q475.827 294.763 473.906 297.309 Q472.008 299.855 472.008 304.485 Q472.008 309.091 473.906 311.638 Q475.827 314.184 479.253 314.184 Q482.702 314.184 484.6 311.638 Q486.522 309.091 486.522 304.485 M490.781 314.531 Q490.781 321.151 487.841 324.369 Q484.901 327.61 478.836 327.61 Q476.591 327.61 474.6 327.262 Q472.61 326.938 470.735 326.244 L470.735 322.1 Q472.61 323.119 474.438 323.605 Q476.267 324.091 478.165 324.091 Q482.355 324.091 484.438 321.892 Q486.522 319.716 486.522 315.295 L486.522 313.188 Q485.202 315.48 483.142 316.614 Q481.082 317.749 478.211 317.749 Q473.443 317.749 470.526 314.114 Q467.61 310.48 467.61 304.485 Q467.61 298.466 470.526 294.832 Q473.443 291.198 478.211 291.198 Q481.082 291.198 483.142 292.332 Q485.202 293.466 486.522 295.758 L486.522 291.823 L490.781 291.823 L490.781 314.531 Z" fill="#000000" fill-rule="nonzero" fill-opacity="1" /><path clip-path="url(#clip700)" d="M518.211 292.818 L518.211 296.8 Q516.406 295.804 514.577 295.318 Q512.771 294.809 510.92 294.809 Q506.776 294.809 504.484 297.448 Q502.193 300.064 502.193 304.809 Q502.193 309.554 504.484 312.193 Q506.776 314.809 510.92 314.809 Q512.771 314.809 514.577 314.323 Q516.406 313.813 518.211 312.818 L518.211 316.753 Q516.429 317.587 514.508 318.003 Q512.609 318.42 510.457 318.42 Q504.6 318.42 501.151 314.739 Q497.702 311.059 497.702 304.809 Q497.702 298.466 501.174 294.832 Q504.67 291.198 510.734 291.198 Q512.702 291.198 514.577 291.615 Q516.452 292.008 518.211 292.818 Z" fill="#000000" fill-rule="nonzero" fill-opacity="1" /><path clip-path="url(#clip700)" d="M522.563 291.823 L527.077 291.823 L535.179 313.582 L543.281 291.823 L547.794 291.823 L538.072 317.749 L532.285 317.749 L522.563 291.823 Z" fill="#000000" fill-rule="nonzero" fill-opacity="1" /><path clip-path="url(#clip700)" d="M570.202 292.587 L570.202 296.614 Q568.396 295.689 566.452 295.226 Q564.507 294.763 562.424 294.763 Q559.253 294.763 557.656 295.735 Q556.081 296.707 556.081 298.651 Q556.081 300.133 557.216 300.989 Q558.35 301.823 561.776 302.587 L563.234 302.911 Q567.771 303.883 569.669 305.665 Q571.591 307.425 571.591 310.596 Q571.591 314.207 568.72 316.313 Q565.873 318.42 560.873 318.42 Q558.79 318.42 556.521 318.003 Q554.276 317.61 551.776 316.8 L551.776 312.401 Q554.137 313.628 556.429 314.253 Q558.72 314.855 560.966 314.855 Q563.975 314.855 565.595 313.837 Q567.216 312.795 567.216 310.92 Q567.216 309.184 566.035 308.258 Q564.878 307.332 560.919 306.476 L559.438 306.128 Q555.48 305.295 553.72 303.582 Q551.961 301.846 551.961 298.837 Q551.961 295.179 554.554 293.189 Q557.146 291.198 561.915 291.198 Q564.276 291.198 566.359 291.545 Q568.442 291.892 570.202 292.587 Z" fill="#000000" fill-rule="nonzero" fill-opacity="1" /><path clip-path="url(#clip700)" d="M582.493 313.86 L582.493 327.61 L578.211 327.61 L578.211 291.823 L582.493 291.823 L582.493 295.758 Q583.836 293.443 585.873 292.332 Q587.933 291.198 590.78 291.198 Q595.503 291.198 598.442 294.948 Q601.405 298.698 601.405 304.809 Q601.405 310.92 598.442 314.67 Q595.503 318.42 590.78 318.42 Q587.933 318.42 585.873 317.309 Q583.836 316.175 582.493 313.86 M596.984 304.809 Q596.984 300.11 595.04 297.448 Q593.118 294.763 589.739 294.763 Q586.359 294.763 584.415 297.448 Q582.493 300.11 582.493 304.809 Q582.493 309.508 584.415 312.193 Q586.359 314.855 589.739 314.855 Q593.118 314.855 595.04 312.193 Q596.984 309.508 596.984 304.809 Z" fill="#000000" fill-rule="nonzero" fill-opacity="1" /><path clip-path="url(#clip700)" d="M608.465 281.73 L612.725 281.73 L612.725 317.749 L608.465 317.749 L608.465 281.73 Z" fill="#000000" fill-rule="nonzero" fill-opacity="1" /><path clip-path="url(#clip700)" d="M621.637 291.823 L625.896 291.823 L625.896 317.749 L621.637 317.749 L621.637 291.823 M621.637 281.73 L625.896 281.73 L625.896 287.124 L621.637 287.124 L621.637 281.73 Z" fill="#000000" fill-rule="nonzero" fill-opacity="1" /><path clip-path="url(#clip700)" d="M656.359 302.101 L656.359 317.749 L652.099 317.749 L652.099 302.239 Q652.099 298.559 650.664 296.73 Q649.229 294.902 646.359 294.902 Q642.91 294.902 640.919 297.101 Q638.928 299.3 638.928 303.096 L638.928 317.749 L634.646 317.749 L634.646 291.823 L638.928 291.823 L638.928 295.851 Q640.456 293.513 642.516 292.355 Q644.599 291.198 647.308 291.198 Q651.775 291.198 654.067 293.976 Q656.359 296.73 656.359 302.101 Z" fill="#000000" fill-rule="nonzero" fill-opacity="1" /><path clip-path="url(#clip700)" d="M687.03 303.721 L687.03 305.804 L667.447 305.804 Q667.724 310.202 670.085 312.517 Q672.47 314.809 676.706 314.809 Q679.159 314.809 681.451 314.207 Q683.766 313.605 686.034 312.401 L686.034 316.429 Q683.743 317.401 681.335 317.911 Q678.928 318.42 676.451 318.42 Q670.247 318.42 666.613 314.809 Q663.002 311.198 663.002 305.04 Q663.002 298.675 666.428 294.948 Q669.877 291.198 675.71 291.198 Q680.942 291.198 683.974 294.577 Q687.03 297.934 687.03 303.721 M682.771 302.471 Q682.724 298.976 680.803 296.892 Q678.905 294.809 675.757 294.809 Q672.192 294.809 670.039 296.823 Q667.91 298.837 667.585 302.494 L682.771 302.471 Z" fill="#000000" fill-rule="nonzero" fill-opacity="1" /></svg>
